<?xml version="1.0" encoding="utf-8"?>
<!-- Generator: Adobe Illustrator 17.1.0, SVG Export Plug-In . SVG Version: 6.00 Build 0)  -->
<!DOCTYPE svg PUBLIC "-//W3C//DTD SVG 1.1//EN" "http://www.w3.org/Graphics/SVG/1.1/DTD/svg11.dtd">
<svg version="1.1" id="Layer_1" xmlns="http://www.w3.org/2000/svg" xmlns:xlink="http://www.w3.org/1999/xlink" x="0px" y="0px"
	 viewBox="0 0 425.2 850.4" enable-background="new 0 0 425.2 850.4" xml:space="preserve">
<g>
	<polyline fill="#FFED00" points="344,135.2 382.9,135.2 382.9,653.7 42.4,653.7 42.4,548.3 344,135.2 	"/>
</g>
<g>
	<g>
		<polyline fill="#E30613" points="42.3,135.1 42.4,547.4 344,135.2 42.3,135.1 		"/>
		<path d="M35.3,660.6h354.9V128.1H35.3V660.6z M376.1,142.1c0,13.4,0,491.1,0,504.5c-13.1,0-313.7,0-326.9,0
			c0-13.4,0-491.1,0-504.5C62.4,142.1,363,142.1,376.1,142.1z"/>
	</g>
</g>
<g>
	<polyline fill="#008BD2" points="338.9,142.2 36,556 71.2,557.6 336.3,198.1 338.9,142.2 	"/>
	<polyline points="301.4,386.7 162.2,294.7 312.4,219.5 301.4,386.7 	"/>
	<polyline points="292.8,539.7 190,539.7 241.6,449.9 292.8,539.7 	"/>
</g>
<g>
	<g>
		<path fill="#E30613" d="M216.8,590.2c0.2-21.2,46.9-19.4,66.1,0H216.8"/>
		<path d="M54.8,716.6l-5.5,7.1H35.4l26.3-34.8h10.2l25.5,34.8h-14l-5.2-7.1H54.8 M66.1,698.9h-0.2l-7.4,12.3h16L66.1,698.9z"/>
	</g>
</g>
<g>
	<polyline points="142.2,718 160.7,718 160.7,723.7 129,723.7 129,689.8 142.2,689.8 142.2,718 	"/>
	<polyline points="214.5,723.7 201.4,723.7 201.4,695.6 187.8,695.6 187.8,689.8 228.1,689.8 228.1,695.6 214.5,695.6 214.5,723.7 	
		"/>
</g>
<g>
	<g>
		<polyline points="273.7,695.6 273.7,703 294.6,703 294.6,708.8 273.7,708.8 273.7,718 295.4,718 295.4,723.7 260.6,723.7 
			260.6,689.8 295.4,689.8 295.4,695.6 273.7,695.6 		"/>
		<polyline points="331.8,688.9 341.3,688.9 376.7,712.6 376.9,712.6 376.9,689.8 390,689.8 390,724.4 380.6,724.4 345.1,700.7 
			344.9,700.7 344.9,723.7 331.8,723.7 331.8,688.9 		"/>
	</g>
</g>
<g>
</g>
<g>
</g>
<g>
</g>
<g>
</g>
<g>
</g>
<g>
</g>
</svg>
