<?xml version="1.0" encoding="utf-8"?>
<!-- Generator: Adobe Illustrator 17.1.0, SVG Export Plug-In . SVG Version: 6.00 Build 0)  -->
<!DOCTYPE svg PUBLIC "-//W3C//DTD SVG 1.1//EN" "http://www.w3.org/Graphics/SVG/1.1/DTD/svg11.dtd">
<svg version="1.1" id="Logo" xmlns="http://www.w3.org/2000/svg" xmlns:xlink="http://www.w3.org/1999/xlink" x="0px" y="0px"
	 viewBox="0 0 841.9 595.3" enable-background="new 0 0 841.9 595.3" xml:space="preserve">
<g>
	<g>
		<path fill="#00386A" d="M351.4,368.6c5.3,4.2,12.1,6.1,18.7,6.1c10.8-0.1,17.8-6.1,17.8-14.7c0-6.5-3.4-10.5-12-12.9
			c-1-0.3-6.7-1.8-8.1-2.2c-4.2-1.2-5.8-3-5.7-5.7c0-3.1,3.4-5.2,7.7-5.1c2.9,0.1,4.9,0.6,7.3,1.6c5,2.1,7.5,0.3,9.4-3.8
			c-4.4-3.8-9.8-5.7-16.9-5.6c-9.7,0.1-16.5,5.8-16.5,13.9c0,6.8,4,10.6,11.1,12.7c1.4,0.4,6.5,1.7,7.2,1.9c6.2,1.5,7.4,3.4,7.4,6.1
			c0,3.4-3.1,6-8.5,6c-3.4,0-6.4-0.9-9.6-2.3C357.5,362.9,353.4,363.4,351.4,368.6z"/>
		<path fill="#00386A" d="M436.9,333.5c-4.1-4-8.9-7.2-18.1-7.2c-13.7,0-24.1,10.4-24.1,24.2c0,13,9.7,24.1,23.8,24.1
			c7.8,0,14.2-2.7,19.3-8.5l-5.7-5.8c-3.6,3.7-7.6,6.1-13.3,6.1c-8.5,0-14.9-6.9-14.9-16.2c0-9.2,6.4-16,14.9-16c3,0,5.7,0.8,8,2.2
			C430.6,338.9,434.6,338.1,436.9,333.5z"/>
		<path fill="#00386A" d="M470.3,326.9H468c-4.3,0-6.2,0.5-8.7,6.3l-17.7,40.8h9l4.7-11.1h21.3l4.7,11.1h9.5L470.3,326.9z
			 M473.3,355h-14.8l7.5-17.7L473.3,355z"/>
		<path fill="#00386A" d="M463.5,395.4c-3,3-8.3,7.8-11.1,9.2c-3.3,1.7-4.4,0.7-3.6-2.3c1-3.6,3.6-9.6,6-13.7
			c1.1-1.8,1.7-3.6,0.4-4.1c-1.2-0.5-2.7,0.2-4.2,3.2c-1.5,3-4.8,10.6-5.6,14.7c-0.8,4,0.4,5.9,2.9,6c3.4,0.1,9.5-4.7,14.4-9.3
			c-0.3,1.5-1.6,5.6-1.9,6.5c-0.4,1.3,1.3,1.9,2.2,0.5c1.5-2.2,3.3-7.3,3.6-10C466.8,394.3,465.2,393.7,463.5,395.4z"/>
		<path fill="#00386A" d="M466.5,390.4c1,0,2-0.9,2.2-2c0.2-1.1-0.5-2.1-1.6-2.1c-1,0-2,0.9-2.1,2
			C464.8,389.5,465.5,390.4,466.5,390.4z"/>
		<path fill="#00386A" d="M437.5,384.4c-1.8,0.1-3.9,1.1-5.2,4c-0.8,1.8-1.7,4.2-2.6,6.8c-2.1,0-4.1-0.2-6-0.6
			c-1.8-0.3-2.5,1.3-1.5,2.2c0.7,0.6,1.1,2,0.7,3.7c-0.5,2.1-2.1,3.6-3.9,3.4c-1.7-0.2-2.3-2.3-1.6-4.8c0.7-2.4,2.1-3.7,3.5-4.2
			c1.8-0.7,1.2-2.7-0.7-2.3c-2.6,0.6-5.4,3.4-6.1,6.8c-0.9,4,1.1,7.1,4.4,7.3c3,0.2,6-2.1,6.9-6c0.3-1.1,0.1-2.2-0.2-3.2
			c1.2,0.2,2.5,0.3,3.7,0.3c-1.3,4.1-2.4,8.4-2.9,11.5c-0.2,1.3,0.4,1.7,0.8,1.7c0.4,0,0.9-0.4,1.1-1.2c1.1-3.8,2.4-8.1,3.9-12.1
			c3.1-0.2,6.1-1,8.3-2.1c1.3-0.7,1.3-2-0.1-1.6c-2.4,0.6-4.8,1-7.2,1.2c0.9-2.1,1.7-4.1,2.6-5.9c0.6-1.2,1.3-1.9,2-2.3
			c0.9-0.5,1.8-0.4,2.4,0.2c0.7,0.7,2-0.1,1.3-1.2C440.5,385,439.2,384.3,437.5,384.4z"/>
		<path fill="#00386A" d="M492.1,402.9c-1.2,0.8-3,1.3-4.8,1.4c-1.9,0-3.6-0.3-4.3-1.7c5-0.9,8-3.7,8.2-6.4c0.1-1.7-0.6-3.5-3.9-3.5
			c-0.9,0-1.8,0.2-2.6,0.6c-2.2,0.7-6.2,1.2-9.9,1.4c0.9-2.1,1.8-4.1,2.6-5.7c1.3-2.6,3.2-2.8,4.3-2c0.8,0.6,1.8,0,1.1-1.2
			c-0.5-0.9-1.8-1.6-3.5-1.5c-1.8,0.1-3.9,1.1-5.2,4c-0.8,1.7-1.7,4-2.5,6.5c-0.8,0-1.5,0-2.1-0.1c-1.2-0.1-1.4,2.7,0.3,2.7
			c0.2,0,0.5,0,0.9,0c-1.4,4.3-2.6,8.9-3.1,12.1c-0.2,1.3,0.4,1.7,0.8,1.7c0.4,0,0.9-0.4,1.1-1.2c1.1-3.9,2.7-8.6,4.3-12.9
			c2.5-0.3,5.6-0.7,7.5-1.3c-1.1,1.4-1.9,3.1-1.9,5c-0.2,4.3,3,6.2,6.4,6.1c3.1-0.1,5.6-1.6,6.9-3
			C493.5,403.2,493,402.3,492.1,402.9z M488.3,395.2c0.8,0.6,0.5,2.5-1.3,3.9c-1.3,1-3,1.6-4.5,1.9c0-1.8,0.8-3.8,2.1-5
			C485.9,394.8,487.6,394.6,488.3,395.2z"/>
		<path fill="#00386A" d="M396.5,391.9c-1.5,0.5-3.2,2.2-4.7,4c-0.6,0.7-1.3,1.7-1.8,2.6c0.4-1.2,0.6-2.6,0.7-3.5
			c0.2-1.7-1.8-2.5-3-0.5c-1.9,3.2-4.9,7.2-7.2,9.1c-0.9,0.8-1.7,1-2.2,0.9c-0.7-0.1-0.9-0.7-0.9-1.5c0-0.9,0.3-2,0.8-3.1
			c0.5-1.2,0-1.7-1-1.6c-0.9,0.1-1.5,0.5-2,1.4c-0.7,1.3-1.2,2.4-2.3,3.7c-0.9,1-2.2,1.6-3,1.1c-0.7-0.4-0.9-1.4-0.7-2.6
			c0.4-2.4,1.7-4.5,3.4-5.6c0.9-0.6,1.9-0.8,2.8-0.8c0.7,0.1,1.4,0.3,1.9,0.7c0.5,0.4,1.1,0.4,1.5,0c0.2-0.2,0.3-0.6,0.2-0.9
			c-0.2-1-1.2-1.8-2.6-2.1c-2.3-0.5-5,0.2-8.1,3.7c-1.1,1.3-1.8,3-2.3,4.8c-0.5,3.4,0.9,5.6,3.6,5.5c1.3-0.1,3.4-0.7,5.3-3.4
			c0,1.3,0.6,2.5,1.8,2.9c1.5,0.5,3.1-0.1,4.5-1.2c2.4-1.9,4.3-4.6,6-7.1c-0.3,1.8-1.5,5.3-2.1,7c-0.5,1.6,1.5,2.2,2.4,0.5
			c1.5-2.9,3.2-5.6,5-7.7c1.7-2,3.8-3.4,4.7-3.6c1.1-0.2,1.6-1,1.6-1.7C398.5,391.9,397.6,391.5,396.5,391.9z"/>
		<path fill="#00386A" d="M406.8,403.7c-1.2,0.9-2.8,1.6-4.5,1.6c-2.3,0-4-0.9-4.3-2.9c4.9,0.3,8.1-2.3,8.4-5
			c0.2-1.7-0.8-3.5-3.7-3.5c-3.7,0-7.5,3.5-7.8,7.7c-0.3,4.1,2.4,6.1,5.9,6.1c2.9,0,5.3-1.4,6.7-2.7
			C408.3,404.2,407.6,403.1,406.8,403.7z M403.6,396.2c0.7,0.6,0.4,2.3-1.3,3.5c-1.2,0.8-2.8,1-4.3,1c0.3-1.4,1-2.9,2.1-3.8
			C401.3,395.8,403,395.7,403.6,396.2z"/>
		<path fill="#00386A" d="M366.5,390.9c-0.5-0.9-1.9-1.9-4.5-1.8c-3.8,0.2-8.9,3.6-11,10.2c-1.7,5.3,0.3,10,5,9.7
			c1.8-0.1,3.5-0.8,5.1-1.8c0,0,0.1,0,0.1-0.1c0.3-0.2,1-0.7,1-0.7c1.3-1,1.7-1.5,2.4-2.5c0.7-1.2-0.4-2.3-1.2-1.3
			c-0.9,1.2-1.8,1.7-3.3,2.4c-0.6,0.3-1.9,0.7-2.5,0.8c-1.2,0.1-2.2-0.2-2.8-1.3c-0.8-1.6-0.2-5.1,1.4-8.2c1.7-3,3.5-4.2,5-4.3
			c1.1-0.1,1.9,0.2,2.6,1c0.5,0.6,1.2,0.8,1.8,0.5C366.6,393.1,367,391.9,366.5,390.9z"/>
		<path fill="#009FE3" d="M431.5,216.2l8.8-15l-4.8-8.3c-1.9-3.1-2.9-4.3-6-4.4c-2.4,0.1-3.9,1.6-5.1,3.6l-3.5,6L431.5,216.2z"/>
		<path fill="#009FE3" d="M421,234.3l-10.6-18.1l-39.7,68.5c-1.1,1.8-1.7,4.5-0.6,6.4l10.5,18.6c-1.4-2.6-0.8-4.9,0.7-7.6L421,234.3
			z"/>
		<g>
			<path fill="#52AE32" d="M490.8,256.8c1-2,0.5-4.2-0.7-6.1l-34-58.6c-1.1-1.9-2.5-3.6-5.6-3.6l-21,0c3.1,0.1,4.2,1.3,6,4.4
				l38.6,66.8h9.9C487.1,259.6,489.2,259.1,490.8,256.8z"/>
			<path fill="#52AE32" d="M390.8,188.5c3.1,0.1,4.2,1.3,6.1,4.4l38.9,66.8h21.1l-39.3-67.6c-1.1-1.9-2.5-3.6-5.6-3.6H390.8z"/>
			<path fill="#52AE32" d="M467.7,278.2h-21.1l9.1,15.7h8.9c3.4,0,5.2-0.6,6.8-3.1c0,0,0,0,0,0c1.3-2.3,0.9-4.6-0.3-6.6L467.7,278.2
				z"/>
		</g>
		<g>
			<g>
				<path fill="#00386A" d="M484,259.7h-77.9l-10.8,18.6l78.7,0c2.6,0,4.8-0.7,6-2.8l10.8-18.7C489.2,259.1,487.1,259.6,484,259.7z"
					/>
				<path fill="#00386A" d="M380.6,309.7c1.3,2.1,3.4,2.7,5.7,2.7l68.8,0c3,0,4.7-0.8,5.9-2.9l10.4-18.7c-1.7,2.5-3.4,3.1-6.8,3.1
					h-78.5l-4.8,8.2C379.8,304.8,379.2,307.1,380.6,309.7z"/>
			</g>
			<g>
				<path fill="#00386A" d="M484,259.7h-77.9l-10.8,18.6l78.7,0c2.6,0,4.8-0.7,6-2.8l10.8-18.7C489.2,259.1,487.1,259.6,484,259.7z"
					/>
				<path fill="#00386A" d="M380.6,309.7c1.3,2.1,3.4,2.7,5.7,2.7l68.8,0c3,0,4.7-0.8,5.9-2.9l10.4-18.7c-1.7,2.5-3.4,3.1-6.8,3.1
					h-78.5l-4.8,8.2C379.8,304.8,379.2,307.1,380.6,309.7z"/>
			</g>
		</g>
		<path fill="#00386A" d="M361.7,276.1c1,1.5,2.6,2.2,5.2,2.2h7.5l10.8-18.6h-17.4l-4.4,7.5l-0.8,1.3
			C361.1,271.2,360.3,273.5,361.7,276.1L361.7,276.1z"/>
		<path fill="#009FE3" d="M401.6,201.1l-4.8-8.2c-1.9-3.1-2.9-4.3-6.1-4.4c-2.4,0.1-4,1.6-5.1,3.6l-33.9,59.3
			c-1.1,1.9-1.8,4.3-0.5,6.5l10.4,18.2c-1.4-2.6-0.6-4.9,0.9-7.6L401.6,201.1z"/>
	</g>
	<rect x="303.6" y="141.4" fill="none" width="234.8" height="312.4"/>
</g>
<g>
</g>
<g>
</g>
<g>
</g>
<g>
</g>
<g>
</g>
<g>
</g>
</svg>
