<?xml version="1.0" encoding="utf-8"?>
<!-- Generator: Adobe Illustrator 17.1.0, SVG Export Plug-In . SVG Version: 6.00 Build 0)  -->
<!DOCTYPE svg PUBLIC "-//W3C//DTD SVG 1.1//EN" "http://www.w3.org/Graphics/SVG/1.1/DTD/svg11.dtd">
<svg version="1.1" id="Lager_1" xmlns="http://www.w3.org/2000/svg" xmlns:xlink="http://www.w3.org/1999/xlink" x="0px" y="0px"
	 viewBox="0 0 1190.6 841.9" enable-background="new 0 0 1190.6 841.9" xml:space="preserve">
<path fill="#C10A27" d="M375.2,324.1h38.9c20.6,0,37.9,7.1,37.9,30.5c0,14.1-7.5,25-21.7,27.5l25.6,42.5h-26.6l-21-40.2h-10.9v40.2
	h-22.2V324.1z M397.4,365.7h13.1c8.1,0,18.6-0.3,18.6-11.2c0-10.1-9.1-11.6-17.2-11.6h-14.5V365.7z"/>
<polygon fill="#C10A27" points="531.5,343.7 502.8,343.7 502.8,324.1 582.3,324.1 582.3,343.7 553.7,343.7 553.7,424.6 531.5,424.6 
	"/>
<polygon fill="#C10A27" points="632.4,324.1 700.7,324.1 700.7,344.5 654.5,344.5 654.5,363.3 698.1,363.3 698.1,383.7 654.5,383.7 
	654.5,404.2 703.2,404.2 703.2,424.6 632.4,424.6 "/>
<path fill="#C10A27" d="M821.6,350.2c-4.4-5.3-10.8-8.2-19-8.2c-16.8,0-29.1,13.6-29.1,32.4c0,18.7,12.4,32.4,28.4,32.4
	c8.9,0,16.2-4,20.7-10.8l18.5,13.8c-8.4,11.9-22.6,17.5-36.3,17.5c-31.4,0-54.2-20.6-54.2-52.8c0-32.2,22.9-52.8,54.2-52.8
	c11.2,0,25.4,3.8,33.9,14.8L821.6,350.2z"/>
<polygon fill="#C10A27" points="888.9,324.1 911,324.1 911,361.6 954.1,361.6 954.1,324.1 976.2,324.1 976.2,424.6 954.1,424.6 
	954.1,381.2 911,381.2 911,424.6 888.9,424.6 "/>
<path fill="#C10A27" d="M324.4,374.9c0-30.5-24.7-55.2-55.2-55.2c-30.5,0-55.2,24.7-55.2,55.2c0,26.8,19.1,49.1,44.4,54.1l0,0.1
	l41.2,25.2l11.6-19l-17.7-10.8C311.8,415.5,324.4,396.7,324.4,374.9 M236,374.9c0-18.3,14.9-33.2,33.2-33.2
	c18.3,0,33.2,14.9,33.2,33.2c0,18.3-14.9,33.2-33.2,33.2C250.9,408.1,236,393.2,236,374.9"/>
<path d="M891.2,505.4h-11.6v4.9h6.2v7.2c-1.9,1.1-4.4,1.6-7.1,1.6c-6.3,0-10.4-4.8-10.4-11.3c0-6,4.2-10.9,10.4-10.9
	c3,0,6,1.1,7.9,3l4-4c-3.2-2.8-7.3-3.8-12-3.8c-9.4,0-16,6.3-16,16.1c0,9.5,6.7,15.8,16,15.8c4.7,0,8.9-1,12.6-3V505.4z
	 M830.1,523.1h5.4v-23.3h0.1l15,23.3h6.9v-30.4H852v22.6l-0.1,0.1h0.1l-0.1-0.1l-14.7-22.6h-7.2V523.1z M818,523.1h5.4v-30.4H818
	V523.1z M796.5,505.6v-8.2h4.7c2.8,0,6.1,0.4,6.1,4c0,3.9-3.6,4.2-6.6,4.2H796.5z M791.1,523.1h5.4v-12.9h3.9l7,12.9h6.5l-8.1-13.4
	c4.5-0.6,7-3.9,7-8.2c0-6.8-5.5-8.7-11.3-8.7h-10.6V523.1z M764.9,523.1h20.9v-4.9h-15.5V510h13.9v-4.9h-13.9v-7.5H785v-4.9h-20.1
	V523.1z M738.7,523.1h20.9v-4.9h-15.5V510H758v-4.9h-13.9v-7.5h14.7v-4.9h-20.1V523.1z M704.5,523.1h5.4v-23.3h0.1l15,23.3h6.9
	v-30.4h-5.4v22.6l-0.1,0.1h0.1l-0.1-0.1l-14.7-22.6h-7.2V523.1z M692.5,523.1h5.4v-30.4h-5.4V523.1z M686.2,505.4h-11.6v4.9h6.2v7.2
	c-1.9,1.1-4.4,1.6-7.1,1.6c-6.3,0-10.4-4.8-10.4-11.3c0-6,4.2-10.9,10.4-10.9c3,0,6,1.1,7.9,3l4-4c-3.2-2.8-7.3-3.8-12-3.8
	c-9.4,0-16,6.3-16,16.1c0,9.5,6.7,15.8,16,15.8c4.7,0,8.9-1,12.6-3V505.4z M625.1,523.1h5.4v-23.3h0.1l15,23.3h6.9v-30.4h-5.4v22.6
	l-0.1,0.1h0.1l-0.1-0.1l-14.7-22.6h-7.2V523.1z M598.9,523.1h20.9v-4.9h-15.5V510h13.9v-4.9h-13.9v-7.5H619v-4.9h-20.1V523.1z
	 M560,523.1h20.9v-4.9h-15.5V510h13.9v-4.9h-13.9v-7.5h14.7v-4.9H560V523.1z M539.8,523.1h4.7l12.3-30.4h-5.8l-8.5,23l-8.3-23h-6.2
	L539.8,523.1z M519.3,523.1h5.4v-30.4h-5.4V523.1z M501,523.1h5.4v-25.5h9.3v-4.9h-24v4.9h9.3V523.1z M475,511.5l4.8-12.4l4.7,12.4
	H475z M464.4,523.1h6l2.7-6.9h13.2l2.8,6.9h6.2l-13.1-30.4h-4.7L464.4,523.1z M449.9,523.1h4.7l12.3-30.4H461l-8.5,23l-8.3-23H438
	L449.9,523.1z M409.8,507.7c0-6,4.2-10.9,10.4-10.9c6.3,0,10.5,4.8,10.5,10.9c0,6.5-4.2,11.3-10.5,11.3
	C414,519,409.8,514.2,409.8,507.7 M404.1,508.1c0,9.5,6.7,15.8,16,15.8c9.5-0.2,16.2-6.5,16.2-16c0-9.7-6.7-16.1-16.2-15.9
	C410.8,492,404.1,498.3,404.1,508.1 M371.6,523.1h5.4v-23.3h0.1l15,23.3h6.9v-30.4h-5.4v22.6l-0.1,0.1h0.1l-0.1-0.1l-14.7-22.6h-7.2
	V523.1z M337.5,523.1h5.4v-23.3h0.1l15,23.3h6.9v-30.4h-5.4v22.6l-0.1,0.1h0.1l-0.1-0.1l-14.7-22.6h-7.2V523.1z M325.4,523.1h5.4
	v-30.4h-5.4V523.1z"/>
<g>
</g>
<g>
</g>
<g>
</g>
<g>
</g>
<g>
</g>
<g>
</g>
</svg>
