<?xml version="1.0" encoding="utf-8"?>
<!-- Generator: Adobe Illustrator 17.1.0, SVG Export Plug-In . SVG Version: 6.00 Build 0)  -->
<!DOCTYPE svg PUBLIC "-//W3C//DTD SVG 1.1//EN" "http://www.w3.org/Graphics/SVG/1.1/DTD/svg11.dtd">
<svg version="1.1" id="Layer_1" xmlns="http://www.w3.org/2000/svg" xmlns:xlink="http://www.w3.org/1999/xlink" x="0px" y="0px"
	 viewBox="0 0 612 792" enable-background="new 0 0 612 792" xml:space="preserve">
<g>
	<rect x="251" y="382.1" fill-rule="evenodd" clip-rule="evenodd" fill="#FFFFFF" width="107.7" height="30"/>
	<g>
		<path fill-rule="evenodd" clip-rule="evenodd" d="M251,374h109.2v41.8H251V399h32v-5h-32V374L251,374z M274,400.1v9h8.6v-4h2
			c0,0,8.1,0.4,8.1-8.8c0-9.3-6.3-9.1-8.3-9.1c-1.9,0-10.4,0-10.4,0v5.7h10.2v7.2H274L274,400.1z M293.6,393.9h7.9c0,0,5-0.4,5,4.2
			c0,4.6,0,10.9,0,10.9h-9.4c0,0-5.6,0.7-5.6-4.7c0-4.8,4.5-4.2,5.6-4.2h2v4.5h1.1v-5.6h-6.7V393.9L293.6,393.9z M317.5,393.9v5.1
			h-3.6v10.1h-6.2v-10.9c0,0,0.1-4.3,4.6-4.3L317.5,393.9L317.5,393.9z M357.7,393.9v5.1h-3.6v10.1h-6.3v-10.9c0,0,0.1-4.3,4.7-4.3
			L357.7,393.9L357.7,393.9z M318.3,387.5v21.7h6.1v-5.4l2.7,5.3h6.9l-4.6-7.8l4.2-7.4h-6.6l-2.7,5.2v-11.7H318.3L318.3,387.5z
			 M346.7,403.2V399c0,0,0.9-5.5-6.8-5.2c-7.6-0.3-7.3,3.7-7.4,7.9c0,4.5,0.8,7.6,6.8,7.4c6.4,0,7.4,0,7.4,0v-4.9h-7.4v-5.6h1.1v4.5
			H346.7L346.7,403.2z"/>
	</g>
</g>
<g>
</g>
<g>
</g>
<g>
</g>
<g>
</g>
<g>
</g>
<g>
</g>
</svg>
