<?xml version="1.0" encoding="utf-8"?>
<!-- Generator: Adobe Illustrator 17.1.0, SVG Export Plug-In . SVG Version: 6.00 Build 0)  -->
<!DOCTYPE svg PUBLIC "-//W3C//DTD SVG 1.1//EN" "http://www.w3.org/Graphics/SVG/1.1/DTD/svg11.dtd">
<svg version="1.1" id="Artwork" xmlns="http://www.w3.org/2000/svg" xmlns:xlink="http://www.w3.org/1999/xlink" x="0px" y="0px"
	 viewBox="0 0 300 172.8" enable-background="new 0 0 300 172.8" xml:space="preserve">
<path fill="#958471" d="M149.7,70.2c40.6,0,80-8,117-23.6c1.6-0.7,3.1-1.3,4.6-2v-1.1c-1.7,0.7-3.3,1.5-5,2.2
	c-37,15.6-76.2,23.6-116.7,23.6c-40.5,0-79.7-7.9-116.7-23.6c-1.5-0.6-3-1.3-4.5-2v1.1c1.4,0.6,2.8,1.2,4.2,1.8
	C69.8,62.2,109.2,70.2,149.7,70.2z"/>
<rect x="28.5" y="95.2" fill="#958471" width="242.9" height="1"/>
<g>
	<path fill-rule="evenodd" clip-rule="evenodd" fill="#2D276A" d="M84.2,115.6h12c0.4,0,0.6-0.3,0.6-0.6v-3.6c0-0.3-0.3-0.6-0.6-0.6
		H79.9c-1.5,0-3.7-0.8-4.8-1.9c-1.1-1.1-1.8-3.3-1.8-4.8V87.6c0-0.4-0.3-0.6-0.6-0.6h-3.7c-0.4,0-0.6,0.3-0.6,0.6v12
		c0,4.3,1.7,8.3,4.7,11.3C76,113.9,80,115.6,84.2,115.6z"/>
	<path fill-rule="evenodd" clip-rule="evenodd" fill="#2D276A" d="M230.2,115.6h12c0.4,0,0.6-0.3,0.6-0.6v-3.6
		c0-0.3-0.3-0.6-0.6-0.6h-16.4c-1.5,0-3.7-0.8-4.8-1.9c-1.1-1.1-1.8-3.3-1.8-4.8V87.6c0-0.4-0.3-0.6-0.6-0.6h-3.7
		c-0.4,0-0.6,0.3-0.6,0.6v12c0,4.3,1.7,8.3,4.7,11.3C222,113.9,226,115.6,230.2,115.6z"/>
	<path fill-rule="evenodd" clip-rule="evenodd" fill="#2D276A" d="M88.6,104.4c0.2,0.2,0.7,0.2,0.9,0L101,92.8
		c2.9-2.9,7.1-2.4,9.6,0l11.6,11.6c0.1,0.1,0.3,0.2,0.5,0.2c0.2,0,0.3-0.1,0.4-0.2l2.5-2.5c0.3-0.3,0.3-0.7,0-0.9l-8.5-8.5
		c-6.2-6.2-16.3-6.2-22.6,0l-8.5,8.5c-0.1,0.1-0.2,0.3-0.2,0.4c0,0.2,0.1,0.3,0.2,0.5L88.6,104.4z"/>
	<path fill-rule="evenodd" clip-rule="evenodd" fill="#2D276A" d="M165.5,99c-0.2-0.2-0.7-0.2-0.9,0L153,110.6
		c-2.9,2.9-7.1,2.4-9.6,0L131.8,99c-0.1-0.1-0.3-0.2-0.5-0.2c-0.2,0-0.3,0.1-0.5,0.2l-2.5,2.5c-0.2,0.2-0.2,0.7,0,0.9l8.5,8.5
		c6.2,6.2,16.3,6.2,22.6,0l8.5-8.5c0.1-0.1,0.2-0.3,0.2-0.4c0-0.2-0.1-0.3-0.2-0.5L165.5,99z"/>
	<path fill-rule="evenodd" clip-rule="evenodd" fill="#2D276A" d="M173.5,104.4c0.2,0.2,0.7,0.2,0.9,0L186,92.8
		c2.9-2.9,7.1-2.4,9.6,0l11.6,11.6c0.1,0.1,0.3,0.2,0.5,0.2c0.2,0,0.3-0.1,0.4-0.2l2.5-2.5c0.3-0.3,0.3-0.7,0-0.9l-8.5-8.5
		c-6.2-6.2-16.3-6.2-22.6,0L171,101c-0.1,0.1-0.2,0.3-0.2,0.4c0,0.2,0.1,0.3,0.2,0.5L173.5,104.4z"/>
	<path fill-rule="evenodd" clip-rule="evenodd" fill="#2D276A" d="M138.1,85.8h12c0.4,0,0.6-0.3,0.6-0.6v-3.6c0-0.4-0.3-0.6-0.6-0.6
		h-16.4c-1.5,0-3.7-0.8-4.8-1.9c-1.1-1.1-1.8-3.3-1.8-4.8V57.8c0-0.4-0.3-0.6-0.6-0.6h-3.7c-0.4,0-0.6,0.3-0.6,0.6v12
		c0,4.3,1.7,8.3,4.7,11.3C129.8,84.1,133.8,85.8,138.1,85.8z"/>
	<path fill-rule="evenodd" clip-rule="evenodd" fill="#2D276A" d="M81.9,74.6c0.3,0.2,0.7,0.2,0.9,0L94.4,63c2.9-2.9,7.1-2.4,9.6,0
		l11.6,11.6c0.1,0.1,0.3,0.2,0.5,0.2c0.2,0,0.3-0.1,0.5-0.2l2.5-2.5c0.2-0.2,0.2-0.7,0-0.9l-8.5-8.5c-6.2-6.2-16.3-6.2-22.6,0
		l-8.5,8.5c-0.1,0.1-0.2,0.3-0.2,0.5c0,0.2,0.1,0.3,0.2,0.5L81.9,74.6z"/>
	<path fill-rule="evenodd" clip-rule="evenodd" fill="#2D276A" d="M155.1,86h3.6c0.4,0,0.6-0.3,0.6-0.6V69c0-2.1,0.8-3.7,1.9-4.8
		c1.1-1.1,2.6-1.9,4.8-1.9h16.4c0.3,0,0.6-0.3,0.6-0.6V58c0-0.4-0.3-0.6-0.6-0.6h-12c-8.8,0-16,7.2-16,16v12
		C154.5,85.7,154.7,86,155.1,86z"/>
	<path fill-rule="evenodd" clip-rule="evenodd" fill="#2D276A" d="M181.3,74.6c0.3,0.2,0.6,0.2,0.9,0L193.7,63
		c2.9-2.9,7.1-2.4,9.5,0l11.6,11.6c0.1,0.1,0.3,0.2,0.5,0.2c0.2,0,0.3-0.1,0.5-0.2l2.5-2.5c0.3-0.2,0.3-0.7,0-0.9l-8.5-8.5
		c-6.2-6.2-16.3-6.2-22.6,0l-8.5,8.5c-0.1,0.1-0.2,0.3-0.2,0.5c0,0.2,0.1,0.3,0.2,0.5L181.3,74.6z"/>
</g>
<rect x="0" y="0" fill-rule="evenodd" clip-rule="evenodd" fill="none" width="300" height="172.8"/>
<rect x="68.3" y="171" fill="none" width="174.6" height="1.7"/>
</svg>
