<?xml version="1.0" encoding="utf-8"?>
<!-- Generator: Adobe Illustrator 17.1.0, SVG Export Plug-In . SVG Version: 6.00 Build 0)  -->
<!DOCTYPE svg PUBLIC "-//W3C//DTD SVG 1.1//EN" "http://www.w3.org/Graphics/SVG/1.1/DTD/svg11.dtd">
<svg version="1.1" id="Lager_1" xmlns="http://www.w3.org/2000/svg" xmlns:xlink="http://www.w3.org/1999/xlink" x="0px" y="0px"
	 viewBox="0 0 210.3 31.9" enable-background="new 0 0 210.3 31.9" xml:space="preserve">
<g>
	<path fill="#D51224" d="M20.5,10.4c-3.6-1.6-5.7-2.2-7.8-2.2c-2.2,0-3.6,0.8-3.6,2c0,3.7,12.5,2.7,12.5,11.2c0,4.7-4,7.5-9.4,7.5
		c-4.3,0-6.4-1.1-8.9-2.4v-5.3c3.5,2.3,5.7,3.2,8.4,3.2c2.3,0,3.6-0.8,3.6-2.3c0-4-12.5-2.6-12.5-11.4c0-4.2,3.7-7.1,9.4-7.1
		c2.7,0,5.2,0.6,8.3,1.9V10.4z"/>
	<path fill="#D51224" d="M37.4,28.9h-2.7L22.9,4.1h6.7l6.5,14l6.2-14h6.6L37.4,28.9z"/>
	<path fill="#D51224" d="M62.6,4.1c5.6,0,8.1,3.9,8.1,7.3c0,3.5-2.4,7.4-8.1,7.4h-4.9v9.9h-6.1V4.1H62.6z M57.8,14.2h2.8
		c2.8,0,3.8-1,3.8-2.8c0-2.1-1.2-2.8-4.5-2.8h-2.2V14.2z"/>
	<path fill="#878787" d="M89.9,28.6h-2.1l-2.5-16.5c-0.1-0.8-0.2-2.7-0.3-4h-0.1c-0.1,1.3-0.2,3.2-0.4,4l-2.9,16.5h-2.1L75.7,4.1
		h2.3l2.2,16.4c0.2,1.2,0.3,2.4,0.4,3.6h0.1c0.2-1.2,0.3-2.4,0.5-3.6L84,4.1H86l2.3,16.4c0.2,1.2,0.3,2.4,0.5,3.6h0.1
		c0.1-1.2,0.2-2.4,0.4-3.6l2.5-16.4h2.3L89.9,28.6z"/>
	<path fill="#878787" d="M108.3,16.4c0,4.6-0.3,12.6-6,12.6c-5.4,0-6-6.9-6-12.6c0-6.2,0.8-12.6,6-12.6
		C107.8,3.8,108.3,11,108.3,16.4z M98.6,16.4c0,4.3,0.2,10.4,3.7,10.4c3.5,0,3.7-6,3.7-10.4C106,12,105.8,6,102.3,6
		C98.8,5.8,98.6,12,98.6,16.4z"/>
	<path fill="#878787" d="M111.9,28.6V4.1h2.4c3.4,0,6.7,0.3,6.7,6.2c0,3.1-0.7,6.2-4.6,6.3l5.4,12h-2.4l-5.2-12h-0.1v12H111.9z
		 M114.2,14.8h0.8c3.2,0,3.7-1.1,3.7-4.3c0-3.9-1.2-4.3-4.1-4.3h-0.5V14.8z"/>
	<path fill="#878787" d="M127.2,26.5h5.3v2.1H125V4.1h2.3V26.5z"/>
	<path fill="#878787" d="M135.4,4.1h2.5c4.7,0,7.7,0.6,7.7,12.3c0,9.6-1.6,12.3-7.6,12.3h-2.6V4.1z M137.7,26.5h0.7
		c4.4,0,4.9-3.1,4.9-10.2c0-8.4-0.9-10.2-5.2-10.2h-0.4V26.5z"/>
	<path fill="#878787" d="M161.9,28.6h-2.1l-2.5-16.5c-0.1-0.8-0.2-2.7-0.3-4h-0.1c-0.1,1.3-0.2,3.2-0.4,4l-2.9,16.5h-2.1l-3.9-24.5
		h2.3l2.2,16.4c0.2,1.2,0.3,2.4,0.4,3.6h0.1c0.2-1.2,0.3-2.4,0.5-3.6L156,4.1h2l2.3,16.4c0.2,1.2,0.3,2.4,0.5,3.6h0.1
		c0.1-1.2,0.2-2.4,0.4-3.6l2.5-16.4h2.3L161.9,28.6z"/>
	<path fill="#878787" d="M171.6,28.6h-2.3V4.1h2.3V28.6z"/>
	<path fill="#878787" d="M175.8,4.1h2.5c4.7,0,7.7,0.6,7.7,12.3c0,9.6-1.6,12.3-7.6,12.3h-2.6V4.1z M178,26.5h0.7
		c4.4,0,4.9-3.1,4.9-10.2c0-8.4-0.9-10.2-5.2-10.2H178V26.5z"/>
	<path fill="#878787" d="M197.3,6.2h-5.4v8.6h5.3v2.1h-5.3v9.6h5.4v2.1h-7.7V4.1h7.7V6.2z"/>
</g>
<g>
	<path fill="#878787" d="M200.7,4.9h-1.4V4.4h3.4v0.5h-1.4V9h-0.6V4.9z"/>
	<path fill="#878787" d="M207.2,7c0-0.6-0.1-1.4-0.1-2h0c-0.2,0.5-0.4,1.1-0.6,1.8L205.7,9h-0.5l-0.8-2.2c-0.2-0.7-0.4-1.3-0.5-1.8
		h0c0,0.6,0,1.4-0.1,2.1l-0.1,2h-0.6l0.3-4.6h0.8l0.8,2.2c0.2,0.6,0.4,1.1,0.5,1.6h0c0.1-0.5,0.3-1,0.5-1.6l0.8-2.2h0.8l0.3,4.6
		h-0.6L207.2,7z"/>
</g>
<g>
</g>
<g>
</g>
<g>
</g>
<g>
</g>
<g>
</g>
<g>
</g>
<g>
</g>
<g>
</g>
<g>
</g>
<g>
</g>
<g>
</g>
<g>
</g>
</svg>
