<?xml version="1.0" encoding="utf-8"?>
<!-- Generator: Adobe Illustrator 17.1.0, SVG Export Plug-In . SVG Version: 6.00 Build 0)  -->
<!DOCTYPE svg PUBLIC "-//W3C//DTD SVG 1.1//EN" "http://www.w3.org/Graphics/SVG/1.1/DTD/svg11.dtd">
<svg version="1.1" id="Layer_1" xmlns="http://www.w3.org/2000/svg" xmlns:xlink="http://www.w3.org/1999/xlink" x="0px" y="0px"
	 viewBox="0 0 100 100" enable-background="new 0 0 100 100" xml:space="preserve">
<g>
	<path fill="#1F1431" d="M260.5,48.6v2.2c-0.5,0.2-0.1,1.3-0.2,1.9v2.2c-0.3,0.1-0.2,0.6-0.2,1v1.4c-0.2,0-0.2,0.3-0.2,0.5v1.2
		c-0.2,0-0.2,0.3-0.2,0.5v1c-0.2,0-0.2,0.3-0.2,0.5v1c-0.2,0-0.2,0.1-0.2,0.2v0.7c-0.2,0-0.2,0.3-0.2,0.5V64c-0.2,0-0.2,0.1-0.2,0.2
		v0.7c-0.2,0-0.2,0.1-0.2,0.2v0.7c-0.2,0-0.2,0.1-0.2,0.2v0.5c-0.2,0-0.2,0.3-0.2,0.5v0.5c-0.2,0-0.2,0.1-0.2,0.2v0.5
		c-0.2,0-0.2,0.1-0.2,0.2V69c-0.2,0-0.2,0.1-0.2,0.2v0.5c-0.2,0-0.2,0.1-0.2,0.2v0.5c-0.2,0-0.2,0.1-0.2,0.2v0.5
		c-0.2,0-0.2,0.1-0.2,0.2v0.2c-0.2,0-0.2,0.1-0.2,0.2v0.5c-0.2,0-0.2,0.1-0.2,0.2v0.2c-0.2,0-0.2,0.1-0.2,0.2v0.5
		c-0.2,0-0.2,0.1-0.2,0.2V74c-0.2,0-0.2,0.1-0.2,0.2v0.2c-0.2,0-0.2,0.1-0.2,0.2v0.5c-0.2,0-0.2,0.3-0.2,0.5c-0.2,0-0.2,0.1-0.2,0.2
		v0.2c-0.2,0-0.2,0.1-0.2,0.2v0.2c-0.2,0-0.2,0.1-0.2,0.2v0.2c-0.2,0-0.2,0.1-0.2,0.2v0.2c-0.2,0-0.2,0.1-0.2,0.2
		c-0.1,0.2-0.3,0.4-0.2,0.7c-0.2,0-0.2,0.1-0.2,0.2c-0.2,0-0.2,0.1-0.2,0.2v0.2c-0.2,0-0.2,0.1-0.2,0.2v0.2c-0.2,0-0.2,0.1-0.2,0.2
		v0.2c-0.2,0-0.2,0.1-0.2,0.2c-0.2,0-0.2,0.1-0.2,0.2V81c-0.2,0-0.2,0.1-0.2,0.2v0.2c-0.2,0-0.2,0.1-0.2,0.2c-0.2,0-0.2,0.1-0.2,0.2
		c0,0.2-0.2,0.2-0.2,0.5c-0.2,0-0.2,0.1-0.2,0.2c0,0.2-0.2,0.2-0.2,0.5c-0.2,0-0.2,0.1-0.2,0.2c0,0.2-0.2,0.2-0.2,0.5
		c-0.2,0-0.2,0.1-0.2,0.2v0.2c-0.2,0-0.2,0.1-0.2,0.2c-0.2,0-0.2,0.1-0.2,0.2c-0.2,0-0.2,0.1-0.2,0.2c0,0.2-0.2,0.2-0.2,0.5
		c-0.2,0-0.2,0.1-0.2,0.2c-0.2,0-0.2,0.1-0.2,0.2v0.2c-0.2,0.1-0.4,0.2-0.5,0.5c-0.2,0-0.2,0.1-0.2,0.2c-0.2,0-0.2,0.1-0.2,0.2v0.2
		c-0.2,0.1-0.4,0.2-0.5,0.5c-0.2,0-0.2,0.1-0.2,0.2c-0.2,0-0.2,0.1-0.2,0.2c-0.2,0-0.2,0.1-0.2,0.2v0.2c-0.2,0-0.2,0.1-0.2,0.2
		c-0.4,0.2-0.7,0.5-1,1c-0.2,0-0.2,0.1-0.2,0.2c-0.2,0-0.2,0.1-0.2,0.2c-0.2,0-0.2,0.1-0.2,0.2c-0.2,0-0.2,0.1-0.2,0.2
		c-0.2,0-0.2,0.1-0.2,0.2c-0.2,0-0.2,0.1-0.2,0.2c-0.2,0-0.2,0.1-0.2,0.2c-0.2,0-0.2,0.1-0.2,0.2c-0.2,0-0.2,0.1-0.2,0.2
		c-0.2,0-0.2,0.1-0.2,0.2c-0.2,0-0.2,0.1-0.2,0.2c-0.4,0.2-0.7,0.5-1,1c-0.2,0-0.2,0.1-0.2,0.2h-0.2c-0.2,0-0.2,0.1-0.2,0.2
		c-0.2,0-0.2,0.1-0.2,0.2c-0.2,0-0.2,0.1-0.2,0.2c-0.2,0.1-0.4,0.2-0.5,0.5h-0.2c-0.2,0-0.2,0.1-0.2,0.2c-0.2,0-0.2,0.1-0.2,0.2
		c-0.2,0-0.2,0.1-0.2,0.2c-0.2,0-0.2,0.1-0.2,0.2h-0.2c-0.2,0-0.2,0.1-0.2,0.2c-0.2,0-0.2,0.1-0.2,0.2c-0.2,0.1-0.4,0.2-0.5,0.5H237
		c-0.2,0-0.2,0.1-0.2,0.2c-0.2,0.1-0.2,0.2-0.5,0.2c-0.2,0-0.2,0.1-0.2,0.2c-0.2,0-0.2,0.2-0.5,0.2c-0.2,0-0.2,0.1-0.2,0.2
		c-0.2,0-0.2,0.1-0.2,0.2c-0.2,0-0.2,0.1-0.2,0.2h-0.2c-0.2,0-0.2,0.1-0.2,0.2c-0.2,0-0.2,0.1-0.2,0.2h-0.2c-0.2,0-0.2,0.1-0.2,0.2
		h-0.2c-0.2,0-0.2,0.1-0.2,0.2c-0.2,0-0.2,0.1-0.2,0.2h-0.2c-0.2,0-0.2,0.1-0.2,0.2h-0.2c-0.2,0-0.2,0.1-0.2,0.2h-0.2
		c-0.2,0-0.2,0.1-0.2,0.2c-0.2,0-0.2,0.1-0.2,0.2c-0.4-0.1-0.4,0.2-0.7,0.2c-0.2,0-0.2,0.1-0.2,0.2H230c-0.2,0-0.2,0.1-0.2,0.2h-0.2
		c-0.2,0-0.2,0.1-0.2,0.2H229c-0.2,0-0.2,0.1-0.2,0.2h-0.2c-0.2,0-0.2,0.1-0.2,0.2c-0.3,0-0.4,0-0.5,0.2h-0.5
		c-0.2,0-0.2,0.1-0.2,0.2h-0.2c-0.2,0-0.2,0.1-0.2,0.2h-0.2c-0.2,0-0.2,0.1-0.2,0.2h-0.5c-0.2,0-0.2,0.1-0.2,0.2h-0.2
		c-0.2,0-0.2,0.1-0.2,0.2h-0.5c-0.2,0-0.2,0.1-0.2,0.2H224c-0.2,0-0.2,0.1-0.2,0.2h-0.5c-0.2,0-0.2,0.1-0.2,0.2h-0.5
		c-0.2,0-0.2,0.1-0.2,0.2h-0.5c-0.2,0-0.2,0.1-0.2,0.2h-0.5c-0.2,0-0.2,0.1-0.2,0.2h-0.5c-0.2,0-0.2,0.1-0.2,0.2h-0.5
		c-0.2,0-0.2,0.1-0.2,0.2h-0.7c-0.2,0-0.2,0.1-0.2,0.2H218c-0.2,0-0.2,0.1-0.2,0.2H217c-0.2,0-0.2,0.1-0.2,0.2h-0.7
		c-0.2,0-0.2,0.1-0.2,0.2h-0.7c-0.2,0-0.2,0.1-0.2,0.2h-0.7c-0.3,0-0.4,0.1-0.5,0.2H213c-0.3,0-0.4,0.1-0.5,0.2h-0.7
		c-0.3,0-0.4,0-0.5,0.2h-1c-0.3,0-0.4,0-0.5,0.2h-1c-0.3,0-0.4,0.1-0.5,0.2H207c-0.3,0-0.7,0-0.7,0.2h-1.4c-0.4,0-0.9-0.1-1,0.2
		h-2.4h-5h-3.1c-0.1-0.3-0.6-0.2-1-0.2h-1.7c0-0.3-0.4-0.2-0.7-0.2h-1.2c0-0.2-0.3-0.2-0.5-0.2h-1c0-0.2-0.3-0.2-0.5-0.2h-1
		c0-0.2-0.3-0.2-0.5-0.2h-0.7c0.1-0.2-0.1-0.2-0.2-0.2h-0.7c0-0.2-0.3-0.2-0.5-0.2h-0.7c0.1-0.2-0.1-0.2-0.2-0.2h-0.5
		c0-0.2-0.3-0.2-0.5-0.2h-0.5c0-0.2-0.1-0.2-0.2-0.2h-0.5c0.1-0.2-0.1-0.2-0.2-0.2h-0.5c0-0.2-0.1-0.2-0.2-0.2h-0.5
		c0.1-0.2-0.1-0.2-0.2-0.2h-0.5c0.1-0.2-0.1-0.2-0.2-0.2h-0.5c0-0.2-0.1-0.2-0.2-0.2h-0.5c0.1-0.2-0.1-0.2-0.2-0.2H176
		c0-0.2-0.1-0.2-0.2-0.2h-0.5c0-0.2-0.3-0.2-0.5-0.2c0.7-1.4,2.4-1.8,3.6-2.4c4-2.1,8-4.7,11.3-7.4c4.6-3.9,7.7-8.7,11.5-13.4
		c0.3,0,0.7,0,0.7-0.2h1c0.3,0,0.7,0,0.7-0.2h0.7c0.3,0,0.4,0,0.5-0.2h0.7c0.3,0,0.4-0.1,0.5-0.2h0.7c0.2,0,0.2-0.1,0.2-0.2h0.5
		c0.3,0,0.4-0.1,0.5-0.2h0.5c0.2,0,0.2-0.1,0.2-0.2h0.5c0.2,0.1,0.2-0.1,0.2-0.2h0.5c0.2,0.1,0.2-0.1,0.2-0.2h0.5
		c0.2,0.1,0.2-0.1,0.2-0.2h0.5c0.2,0.1,0.2-0.1,0.2-0.2h0.2c0.2,0,0.2-0.1,0.2-0.2h0.5c0.2,0,0.2-0.1,0.2-0.2h0.2
		c0.2,0.1,0.2-0.1,0.2-0.2h0.2c0.2,0,0.2-0.1,0.2-0.2h0.2c0.2,0.1,0.2-0.1,0.2-0.2h0.2c0.2,0.1,0.2-0.1,0.2-0.2h0.2
		c0.2,0.1,0.2-0.1,0.2-0.2c0.2,0,0.2-0.1,0.2-0.2c0.4,0.1,0.4-0.2,0.7-0.2c0.2,0,0.2-0.1,0.2-0.2c0.2,0,0.2-0.1,0.2-0.2h0.2
		c0.2,0.1,0.2-0.1,0.2-0.2c0.2,0.1,0.2-0.1,0.2-0.2h0.2c0.2,0,0.2-0.1,0.2-0.2c0.2,0.1,0.2-0.1,0.2-0.2h0.2c0.2,0,0.2-0.1,0.2-0.2
		c0.2,0,0.2-0.1,0.2-0.2c0.2,0,0.2-0.1,0.2-0.2h0.2c0.2,0,0.2-0.1,0.2-0.2c0.2,0,0.2-0.1,0.2-0.2c0.2,0,0.2-0.1,0.2-0.2
		c1-0.8,1.9-1.7,2.6-2.6c0.2,0,0.2-0.1,0.2-0.2c0.2,0.1,0.2-0.1,0.2-0.2c0.2,0,0.2-0.1,0.2-0.2c0-0.2,0.2-0.2,0.2-0.5
		c0.2,0.1,0.2-0.1,0.2-0.2c0.2,0,0.2-0.1,0.2-0.2v-0.2c0.2,0,0.2-0.1,0.2-0.2c0.2,0,0.2-0.1,0.2-0.2c0.2,0,0.2-0.1,0.2-0.2v-0.2
		c0.2,0,0.2-0.1,0.2-0.2v-0.2c0.2,0.1,0.2-0.1,0.2-0.2c0.2,0.1,0.2-0.1,0.2-0.2c0-0.2,0.2-0.2,0.2-0.5c0.2,0,0.2-0.1,0.2-0.2v-0.2
		c0.2,0.1,0.2-0.1,0.2-0.2v-0.2c0.2,0.1,0.2-0.1,0.2-0.2v-0.2c0.2,0.1,0.2-0.1,0.2-0.2v-0.2c0.2,0.1,0.2-0.1,0.2-0.2V64
		c0.2,0,0.2-0.1,0.2-0.2v-0.2c0.2,0.1,0.2-0.1,0.2-0.2V63c0.2,0.1,0.2-0.1,0.2-0.2v-0.5c0.2,0,0.2-0.1,0.2-0.2v-0.2
		c0.2,0,0.2-0.1,0.2-0.2v-0.5c0.2,0.1,0.2-0.1,0.2-0.2v-0.5c0.2,0,0.2-0.1,0.2-0.2v-0.5c0.2,0,0.2-0.1,0.2-0.2v-0.5
		c0.2,0.1,0.2-0.1,0.2-0.2v-0.5c0.2,0,0.2-0.3,0.2-0.5v-0.5c0.2,0,0.2-0.1,0.2-0.2v-0.7c0.2,0,0.2-0.3,0.2-0.5v-0.7
		c0.2,0.1,0.2-0.1,0.2-0.2v-1c0.2,0,0.2-0.3,0.2-0.5v-1c0.2,0,0.2-0.3,0.2-0.5v-1.2c0.3,0,0.2-0.4,0.2-0.7v-1.4c0.4,0.2,0.4-1.1,0-1
		v-1.4c0-0.3,0-0.7-0.2-0.7v-1c0.1-0.2-0.1-0.2-0.2-0.2v-1c0.1-0.2-0.1-0.2-0.2-0.2v-0.7c0.1-0.2-0.1-0.2-0.2-0.2v-0.7
		c0.1-0.2-0.1-0.2-0.2-0.2v-0.5c0-0.3,0-0.4-0.2-0.5v-0.5c0-0.2-0.1-0.2-0.2-0.2V39c0-0.2-0.1-0.2-0.2-0.2v-0.5
		c0-0.2-0.1-0.2-0.2-0.2v-0.2c0.1-0.2-0.1-0.2-0.2-0.2v-0.5c0.1-0.2-0.1-0.2-0.2-0.2v-0.2c0-0.2-0.1-0.2-0.2-0.2v-0.2
		c0.1-0.2-0.1-0.2-0.2-0.2c0-0.3,0-0.4-0.2-0.5c0-0.3-0.1-0.4-0.2-0.5c0.1-0.4-0.2-0.4-0.2-0.7c0-0.2-0.1-0.2-0.2-0.2v-0.2
		c0.1-0.2-0.1-0.2-0.2-0.2v-0.2c0.1-0.2-0.1-0.2-0.2-0.2c0-0.2-0.2-0.2-0.2-0.5c0.1-0.2-0.1-0.2-0.2-0.2c0.1-0.2-0.1-0.2-0.2-0.2
		v-0.2c0-0.2-0.1-0.2-0.2-0.2c0-0.2-0.2-0.2-0.2-0.5c0-0.2-0.1-0.2-0.2-0.2c0-0.2-0.1-0.2-0.2-0.2c0.1-0.2-0.1-0.2-0.2-0.2v-0.2
		c0.1-0.2-0.1-0.2-0.2-0.2c0-0.2-0.1-0.2-0.2-0.2c-0.1-0.3-0.4-0.6-0.7-0.7c0-0.2-0.1-0.2-0.2-0.2c0-0.2-0.1-0.2-0.2-0.2
		c0.1-0.2-0.1-0.2-0.2-0.2c0.1-0.2-0.1-0.2-0.2-0.2c0-0.2-0.1-0.2-0.2-0.2c0.1-0.2-0.1-0.2-0.2-0.2c0.1-0.2-0.1-0.2-0.2-0.2
		c0-0.2-0.1-0.2-0.2-0.2c-0.1-0.3-0.4-0.6-0.7-0.7c0.1-0.2-0.1-0.2-0.2-0.2c0-0.2-0.1-0.2-0.2-0.2h-0.2c-0.1-0.2-0.2-0.4-0.5-0.5
		c0-0.2-0.1-0.2-0.2-0.2c0-0.2-0.1-0.2-0.2-0.2c-0.2,0-0.2-0.2-0.5-0.2c0.1-0.2-0.1-0.2-0.2-0.2c-0.2,0-0.2-0.2-0.5-0.2
		c0.1-0.2-0.1-0.2-0.2-0.2H217c0-0.2-0.1-0.2-0.2-0.2h-0.2c0.1-0.2-0.1-0.2-0.2-0.2c0.1-0.2-0.1-0.2-0.2-0.2h-0.2
		c0.1-0.2-0.1-0.2-0.2-0.2h-0.2c0-0.2-0.1-0.2-0.2-0.2h-0.2c0-0.2-0.1-0.2-0.2-0.2h-0.2c0.1-0.2-0.1-0.2-0.2-0.2h-0.2
		c0.1-0.2-0.1-0.2-0.2-0.2h-0.2c0-0.2-0.1-0.2-0.2-0.2H213c0-0.2-0.1-0.2-0.2-0.2h-0.5c0.1-0.2-0.1-0.2-0.2-0.2h-0.2
		c0.1-0.2-0.1-0.2-0.2-0.2H211c0-0.2-0.1-0.2-0.2-0.2h-0.5c0.1-0.2-0.1-0.2-0.2-0.2h-0.5c0.1-0.2-0.1-0.2-0.2-0.2h-0.5
		c0-0.2-0.1-0.2-0.2-0.2h-0.5c0-0.2-0.3-0.2-0.5-0.2h-0.5c0-0.2-0.1-0.2-0.2-0.2h-0.7c0-0.2-0.3-0.2-0.5-0.2H205
		c0-0.2-0.1-0.2-0.2-0.2h-1c0-0.2-0.3-0.2-0.5-0.2h-1c0-0.3-0.4-0.2-0.7-0.2h-0.2c-6-8.4-13.7-15.8-22.8-20.6
		c-1.2-0.6-3.1-0.9-3.8-2.4c0.3,0,0.4-0.1,0.5-0.2h0.5c0.2,0.1,0.2-0.1,0.2-0.2h0.2c0.2,0.1,0.2-0.1,0.2-0.2h0.5
		c0.2,0.1,0.2-0.1,0.2-0.2h0.5c0.2,0.1,0.2-0.1,0.2-0.2h0.5c0.2,0,0.2-0.1,0.2-0.2h0.5c0.2,0,0.2-0.1,0.2-0.2h0.5
		c0.2,0.1,0.2-0.1,0.2-0.2h0.5c0.2,0,0.2-0.1,0.2-0.2h0.7c0.2,0.1,0.2-0.1,0.2-0.2h0.7c0.2,0.1,0.2-0.1,0.2-0.2h0.7
		c0.2,0.1,0.2-0.1,0.2-0.2h0.7c0.2,0,0.2-0.1,0.2-0.2h1c0.2,0.1,0.2-0.1,0.2-0.2h1c0.3,0,0.4-0.1,0.5-0.2h1c0.3,0,0.4-0.1,0.5-0.2h1
		c0.3,0,0.7,0,0.7-0.2h1.4c0.3,0,0.7,0,0.7-0.2h1.9c0.4-0.1,1.4,0.3,1.4-0.2h7.2c0,0.5,1,0.1,1.4,0.2h1.9c0,0.3,0.4,0.2,0.7,0.2h1.4
		c0,0.2,0.3,0.2,0.5,0.2h1c0,0.3,0.4,0.2,0.7,0.2h0.7c0,0.2,0.3,0.2,0.5,0.2h0.7c0,0.2,0.3,0.2,0.5,0.2h0.7c0,0.2,0.3,0.2,0.5,0.2
		h0.7c0,0.2,0.1,0.2,0.2,0.2h0.7c0,0.2,0.1,0.2,0.2,0.2h0.5c0,0.2,0.3,0.2,0.5,0.2h0.5c0,0.2,0.1,0.2,0.2,0.2h0.5
		c0,0.2,0.1,0.2,0.2,0.2h0.5c0,0.2,0.3,0.2,0.5,0.2h0.2c0,0.2,0.3,0.2,0.5,0.2h0.2c0,0.2,0.1,0.2,0.2,0.2h0.5c0,0.2,0.1,0.2,0.2,0.2
		h0.5c0,0.2,0.1,0.2,0.2,0.2h0.5c0,0.2,0.3,0.2,0.5,0.2c0,0.2,0.1,0.2,0.2,0.2h0.5c0,0.2,0.3,0.2,0.5,0.2c0,0.2,0.1,0.2,0.2,0.2h0.2
		c0,0.2,0.1,0.2,0.2,0.2h0.5c0,0.2,0.3,0.2,0.5,0.2c0,0.2,0.1,0.2,0.2,0.2h0.2c0,0.2,0.1,0.2,0.2,0.2h0.2c0,0.2,0.1,0.2,0.2,0.2h0.2
		c0,0.2,0.1,0.2,0.2,0.2h0.2c0,0.2,0.1,0.2,0.2,0.2h0.2c0,0.2,0.1,0.2,0.2,0.2h0.2c0,0.2,0.1,0.2,0.2,0.2h0.2c0,0.2,0.1,0.2,0.2,0.2
		c0.2,0.1,0.4,0.3,0.7,0.2c0,0.2,0.1,0.2,0.2,0.2c0,0.2,0.1,0.2,0.2,0.2h0.2c0,0.2,0.1,0.2,0.2,0.2h0.2c0,0.2,0.1,0.2,0.2,0.2h0.2
		c0,0.2,0.1,0.2,0.2,0.2c0,0.2,0.1,0.2,0.2,0.2h0.2c0,0.2,0.1,0.2,0.2,0.2h0.2c0,0.2,0.1,0.2,0.2,0.2c0,0.2,0.1,0.2,0.2,0.2
		c0.2,0.1,0.2,0.2,0.5,0.2c0,0.2,0.1,0.2,0.2,0.2h0.2c0,0.2,0.1,0.2,0.2,0.2c0,0.2,0.1,0.2,0.2,0.2h0.2c0,0.2,0.1,0.2,0.2,0.2
		c0,0.2,0.1,0.2,0.2,0.2c0.2,0,0.2,0.2,0.5,0.2c0,0.2,0.1,0.2,0.2,0.2c0.2,0,0.2,0.2,0.5,0.2c0,0.2,0.1,0.2,0.2,0.2h0.2
		c0.1,0.2,0.2,0.4,0.5,0.5c0,0.2,0.1,0.2,0.2,0.2h0.2c0.1,0.2,0.2,0.4,0.5,0.5c0,0.2,0.1,0.2,0.2,0.2c0,0.2,0.1,0.2,0.2,0.2h0.2
		c0.1,0.2,0.2,0.4,0.5,0.5c0,0.2,0.1,0.2,0.2,0.2c0,0.2,0.1,0.2,0.2,0.2c0,0.2,0.1,0.2,0.2,0.2h0.2c0.1,0.3,0.4,0.6,0.7,0.7
		c0,0.2,0.1,0.2,0.2,0.2c0,0.2,0.1,0.2,0.2,0.2c0,0.2,0.1,0.2,0.2,0.2c0,0.2,0.1,0.2,0.2,0.2c0,0.2,0.1,0.2,0.2,0.2
		c0,0.2,0.1,0.2,0.2,0.2h0.2c0,0.2,0.1,0.2,0.2,0.2c0,0.2,0.1,0.2,0.2,0.2c0,0.2,0.1,0.2,0.2,0.2c0,0.2,0.1,0.2,0.2,0.2
		c0,0.2,0.1,0.2,0.2,0.2c0,0.2,0.1,0.2,0.2,0.2V10c0,0.2,0.1,0.2,0.2,0.2c0,0.2,0.1,0.2,0.2,0.2c0,0.2,0.1,0.2,0.2,0.2
		c0,0.2,0.1,0.2,0.2,0.2c0,0.2,0.1,0.2,0.2,0.2c0.2,0.4,0.5,0.8,1,1v0.2c0,0.2,0.1,0.2,0.2,0.2c0,0.2,0.1,0.2,0.2,0.2
		c0,0.2,0.1,0.2,0.2,0.2c0.1,0.2,0.2,0.4,0.5,0.5v0.2c0,0.2,0.1,0.2,0.2,0.2c0,0.2,0.1,0.2,0.2,0.2c0,0.2,0.1,0.2,0.2,0.2v0.2
		c0,0.2,0.1,0.2,0.2,0.2c0,0.2,0.1,0.2,0.2,0.2c0,0.2,0.1,0.2,0.2,0.2v0.2c0,0.2,0.1,0.2,0.2,0.2c0,0.2,0.2,0.2,0.2,0.5
		c0,0.2,0.1,0.2,0.2,0.2c0,0.2,0.1,0.2,0.2,0.2c0,0.2,0.1,0.2,0.2,0.2v0.2c0,0.2,0.1,0.2,0.2,0.2c0,0.2,0.1,0.2,0.2,0.2v0.2
		c0,0.2,0.1,0.2,0.2,0.2v0.2c0,0.2,0.1,0.2,0.2,0.2c0,0.2,0.2,0.2,0.2,0.5c0,0.2,0.1,0.2,0.2,0.2v0.2c0,0.2,0.1,0.2,0.2,0.2
		c0,0.2,0.2,0.2,0.2,0.5c0,0.2,0.1,0.2,0.2,0.2V21c0,0.2,0.1,0.2,0.2,0.2v0.2c0,0.2,0.1,0.2,0.2,0.2c0,0.2,0.1,0.2,0.2,0.2
		c0,0.3,0.1,0.4,0.2,0.5c0,0.3,0.1,0.4,0.2,0.5c0,0.3,0.1,0.4,0.2,0.5c0,0.3,0.1,0.4,0.2,0.5c0,0.3,0.1,0.4,0.2,0.5v0.5
		c0,0.2,0.1,0.2,0.2,0.2v0.2c0,0.2,0.1,0.2,0.2,0.2v0.2c0,0.2,0.1,0.2,0.2,0.2c0,0.3,0.1,0.4,0.2,0.5V27c0,0.2,0.1,0.2,0.2,0.2v0.2
		c0,0.2,0.1,0.2,0.2,0.2v0.5c0,0.2,0.1,0.2,0.2,0.2v0.5c0,0.2,0.1,0.2,0.2,0.2v0.5c0,0.2,0.1,0.2,0.2,0.2v0.2c0,0.3,0.1,0.4,0.2,0.5
		v0.5c0,0.2,0.1,0.2,0.2,0.2v0.5c0,0.2,0.1,0.2,0.2,0.2v0.5c0,0.2,0.1,0.2,0.2,0.2v0.7c0,0.2,0.1,0.2,0.2,0.2v0.7
		c0,0.2,0.1,0.2,0.2,0.2v0.7c0,0.2,0.1,0.2,0.2,0.2v0.7c0,0.3,0.1,0.4,0.2,0.5v0.7c0,0.3,0.1,0.4,0.2,0.5v1c0,0.3,0.1,0.4,0.2,0.5
		v1.2c0,0.3,0.1,0.4,0.2,0.5v1.4c0,0.4-0.1,0.9,0.2,1v2.6C260.4,46.9,259.9,48.3,260.5,48.6"/>
	<path fill="#293E8F" d="M188.7,78.9c3.4,1.7,7.8,2.3,13,2.2c-3.8,4.7-6.9,9.5-11.5,13.4c-3.3,2.8-7.3,5.3-11.3,7.4
		c-1.2,0.6-2.9,1-3.6,2.4h-0.2c-0.3-1-1.6-0.2-1.9,0.2c-0.6,0-1,0.1-1.2,0.5c-12.1,4.6-32.4,4.2-44.9,0.2c-0.6-0.4-1.3-0.6-2.2-0.7
		c-1-0.7-2.2-1.1-3.6-1.4c-1-0.7-2.1-1.2-3.4-1.7c0-0.2-0.3-0.2-0.5-0.2c-0.2-0.5-0.6-0.6-1.2-0.7c-0.1-0.3-0.3-0.5-0.7-0.5
		c-0.1-0.3-0.3-0.5-0.7-0.5c-0.2-0.4-0.4-0.8-1-0.7c-4.6-28.3-8.3-58.8-11.8-87.4c1.1-1.2,2.3-2.3,3.4-3.6c0.2,0,0.2-0.1,0.2-0.2
		c0.2,0,0.2-0.1,0.2-0.2c0.2,0.1,0.2-0.1,0.2-0.2c0.2,0.1,0.2-0.1,0.2-0.2c0.9-0.2,1.2-0.9,1.7-1.4c0.7,0,0.9-0.6,1.2-1
		c0.2,0,0.2-0.1,0.2-0.2c0.6,0,0.8-0.4,1-0.7c0.8-0.2,1.3-0.6,1.7-1.2c0.4,0,0.6-0.2,0.7-0.5c0.4,0,0.6-0.2,0.7-0.5
		c0.9-0.2,1.5-0.6,1.9-1.2c0.7-0.2,1.4-0.4,1.7-1c0.3,0,0.4,0,0.5-0.2c1.4-0.5,2.7-1.1,3.8-1.9c0.3,0,0.4,0,0.5-0.2
		c0.8,0,1.3-0.3,1.7-0.7c0.6,0,1-0.1,1.2-0.5c0.8-0.1,1.5-0.3,1.9-0.7c12.6-5.1,33.4-4.8,45.8,0.2c0.2,0.4,0.6,0.5,1.2,0.5
		c0.3,0.5,0.9,0.5,1.2,0h0.2c0.7,1.5,2.6,1.7,3.8,2.4c9.1,4.8,16.8,12.2,22.8,20.6c-5.3-0.1-10,0.4-13.4,2.2c-0.8,0-1.3,0.3-1.7,0.7
		c-0.9,0.1-1.5,0.4-1.9,1c-0.3,0-0.4,0.1-0.5,0.2c-0.6,0.1-1,0.2-1.2,0.7c-0.4,0-0.6,0.2-0.7,0.5c-0.4,0-0.6,0.2-0.7,0.5
		c-0.6,0-0.8,0.4-1,0.7c-0.6,0-0.8,0.4-1,0.7c-0.2,0-0.2,0.1-0.2,0.2c-0.9,0.2-1.2,0.9-1.7,1.4c-0.2,0-0.2,0.1-0.2,0.2
		c-0.2,0-0.2,0.1-0.2,0.2c-0.2,0-0.2,0.1-0.2,0.2c-0.5,0-0.8,0.2-0.7,0.7c-0.2,0-0.2,0.1-0.2,0.2c-0.2,0-0.2,0.1-0.2,0.2
		c-0.2,0-0.2,0.1-0.2,0.2c-0.2,0-0.2,0.1-0.2,0.2c-0.5,0.4-1.1,0.6-1.2,1.4h-0.2c-5.5-7.3-14.4-13.7-27.4-12c-0.1,0-0.2,0-0.2-0.1
		c-0.1-0.2-0.8-0.3-1.2-0.1c-3.7-0.1-9,2.1-11.7,3.6c-0.7,0.2-1.4,0.4-1.7,1c-0.6,0.1-1,0.3-1.2,0.7c-0.4,0-0.6,0.2-0.7,0.5
		c-0.6,0-0.8,0.4-1,0.7c-0.7,0-0.9,0.5-1.2,1c-0.2,0-0.2,0.1-0.2,0.2c-0.2,0-0.2,0.1-0.2,0.2c-0.8,0.3-1.4,0.8-1.7,1.7
		c-0.2,0-0.2,0.1-0.2,0.2c-0.2,0-0.2,0.1-0.2,0.2c-0.4,0.3-0.9,0.5-1,1.2c-0.3,0.2-0.8,0.4-0.7,1c-0.3,0.1-0.5,0.3-0.5,0.7
		c-0.3,0.1-0.5,0.3-0.5,0.7c-1.2,1.6-2.1,3.3-2.6,5.5c-1.2,2.5-1.9,5.5-2.2,8.9c-0.4,0.1-0.4,1.8,0,1.9c0.6,7,2.2,13,5.3,17.5
		c0.2,1,0.7,1.7,1.4,2.2c0,0.6,0.4,0.8,0.7,1c0,0.7,0.6,0.9,1,1.2c0,0.2,0.1,0.2,0.2,0.2c0,0.2,0.1,0.2,0.2,0.2
		c0,0.2,0.1,0.2,0.2,0.2c0,0.5,0.2,0.8,0.7,0.7c0,0.2,0.1,0.2,0.2,0.2c0,0.2,0.1,0.2,0.2,0.2c0,0.2,0.1,0.2,0.2,0.2
		c0.3,0.4,0.5,1,1.2,1c0,0.2,0.1,0.2,0.2,0.2c0.7,0.9,1.7,1.5,2.9,1.9c1,0.9,2.3,1.5,3.8,1.9c0.4,0.5,1.1,0.6,1.9,0.7
		c0,0.3,0.4,0.2,0.7,0.2c1.5,0.7,4.7,1.6,6.7,1.7c0.4,0,1.6,0.5,1.4-0.5c12.9,1.5,21.8-5,26.9-13c0.4,0.2,0.4,0.9,1,1
		c0.1,0.8,0.7,1,1.2,1.4c0,0.2,0.1,0.2,0.2,0.2c0.9,1.5,2.1,2.7,3.6,3.6c0,0.2,0.1,0.2,0.2,0.2c0.3,0.4,0.5,0.9,1.2,1
		c0.2,0.4,0.4,0.8,1,0.7c0.1,0.3,0.3,0.5,0.7,0.5c0.1,0.3,0.3,0.5,0.7,0.5c0.2,0.5,0.6,0.6,1.2,0.7c0,0.2,0.3,0.2,0.5,0.2
		c0.2,0.5,0.7,0.7,1.4,0.7c0,0.2,0.3,0.2,0.5,0.2C187.8,78.8,188.2,79,188.7,78.9"/>
	<path fill="#1F1431" d="M174.2,67.1v0.2c-5.1,7.9-14,14.5-26.9,13c0-0.2-0.1-0.2-0.2-0.2v-0.2c0.1-0.2-0.1-0.2-0.2-0.2
		c0-0.2-0.1-0.2-0.2-0.2v-0.2c0.1-0.2-0.1-0.2-0.2-0.2v-0.2c0.1-0.2-0.1-0.2-0.2-0.2c0.1-0.2-0.1-0.2-0.2-0.2v-0.2
		c0-0.2-0.1-0.2-0.2-0.2v-0.2c0-0.2-0.1-0.2-0.2-0.2V77c0-0.2-0.1-0.2-0.2-0.2v-0.2c0.1-0.2-0.1-0.2-0.2-0.2V76
		c0.1-0.2-0.1-0.2-0.2-0.2v-0.2c0.1-0.2-0.1-0.2-0.2-0.2V75c0.1-0.2-0.1-0.2-0.2-0.2c0-0.3,0-0.4-0.2-0.5v-0.5
		c0-0.2-0.1-0.2-0.2-0.2v-0.2c0-0.2-0.1-0.2-0.2-0.2v-0.5c0-0.2-0.1-0.2-0.2-0.2v-0.2c0.1-0.2-0.1-0.2-0.2-0.2v-0.5
		c0.1-0.2-0.1-0.2-0.2-0.2v-0.5c0.1-0.2-0.1-0.2-0.2-0.2V70c0.1-0.2-0.1-0.2-0.2-0.2v-0.5c0.1-0.2-0.1-0.2-0.2-0.2v-0.7
		c0-0.2-0.1-0.2-0.2-0.2v-0.5c0-0.2-0.1-0.2-0.2-0.2v-0.7c0-0.2-0.1-0.2-0.2-0.2v-0.7c0-0.2-0.1-0.2-0.2-0.2v-0.7
		c0-0.3-0.1-0.4-0.2-0.5v-0.7c0-0.2-0.1-0.2-0.2-0.2v-1c0-0.3,0-0.4-0.2-0.5v-0.7c0-0.3,0-0.4-0.2-0.5v-1.2c0-0.3,0-0.4-0.2-0.5
		v-1.2c0-0.3,0-0.7-0.2-0.7v-1.7c0-0.4,0.1-0.9-0.2-1V52v-7.2v-2.4c0.3-0.1,0.2-0.6,0.2-1V40c0.3,0,0.2-0.4,0.2-0.7v-1.2
		c0.2,0,0.2-0.3,0.2-0.5v-1c0.2,0,0.2-0.3,0.2-0.5v-1c0.2,0.1,0.2-0.1,0.2-0.2v-1c0.2,0,0.2-0.1,0.2-0.2V33c0.2,0.1,0.2-0.1,0.2-0.2
		v-0.7c0.2,0,0.2-0.1,0.2-0.2v-0.7c0.2,0.1,0.2-0.1,0.2-0.2v-0.5c0.2,0,0.2-0.3,0.2-0.5v-0.5c0.2,0.1,0.2-0.1,0.2-0.2v-0.5
		c0.2,0,0.2-0.1,0.2-0.2V28c0.2,0,0.2-0.1,0.2-0.2v-0.2c0.2,0.1,0.2-0.1,0.2-0.2v-0.5c0.2,0,0.2-0.1,0.2-0.2v-0.2
		c0.2,0,0.2-0.1,0.2-0.2v-0.5c0.2,0,0.2-0.1,0.2-0.2v-0.2c0.2,0.1,0.2-0.1,0.2-0.2v-0.2c0.2,0,0.2-0.1,0.2-0.2v-0.2
		c0.2,0,0.2-0.1,0.2-0.2v-0.2c0.2,0,0.2-0.1,0.2-0.2v-0.2c0.2,0.1,0.2-0.1,0.2-0.2v-0.2c0.2,0,0.2-0.1,0.2-0.2v-0.2
		c0.2,0,0.2-0.1,0.2-0.2v-0.2c0.2,0,0.2-0.1,0.2-0.2c0.2,0.1,0.2-0.1,0.2-0.2V21c0.2,0.1,0.2-0.1,0.2-0.2c0.2,0,0.2-0.1,0.2-0.2
		v-0.2c0.2,0,0.2-0.1,0.2-0.2c0.2,0,0.2-0.1,0.2-0.2c0-0.2,0.2-0.3,0.2-0.5c13-1.7,21.9,4.7,27.4,12v0.2c-0.2,0-0.2,0.1-0.2,0.2
		c-0.2,0-0.2,0.1-0.2,0.2c-0.2,0-0.2,0.1-0.2,0.2c0,0.2-0.2,0.2-0.2,0.5c-0.2,0-0.2,0.1-0.2,0.2v0.2c-0.2,0-0.2,0.1-0.2,0.2
		c-0.2,0-0.2,0.1-0.2,0.2c-0.1,0.2-0.2,0.4-0.2,0.7c-0.2,0-0.2,0.1-0.2,0.2c-0.2,0-0.2,0.1-0.2,0.2v0.2c-0.2,0-0.2,0.1-0.2,0.2v0.2
		c-0.2,0-0.2,0.1-0.2,0.2v0.5c-0.2,0-0.2,0.3-0.2,0.5c-0.2,0-0.2,0.1-0.2,0.2v0.5c-0.2,0-0.2,0.1-0.2,0.2v0.2
		c-0.2,0-0.2,0.3-0.2,0.5V39c-0.2,0-0.2,0.1-0.2,0.2v0.5c-0.2,0-0.2,0.3-0.2,0.5v0.5c-0.2,0-0.2,0.3-0.2,0.5v0.7
		c-0.2,0-0.2,0.3-0.2,0.5v1.2c-0.2,0-0.2,0.3-0.2,0.5v1.7c-0.5,0.2-0.1,1.3-0.2,1.9v1.9c0.1,0.6-0.3,1.7,0.2,1.9v1.7
		c0,0.3,0,0.7,0.2,0.7v1c0,0.3,0.1,0.4,0.2,0.5v1c0,0.2,0.1,0.2,0.2,0.2v0.7c0,0.3,0.1,0.4,0.2,0.5v0.5c0,0.3,0.1,0.4,0.2,0.5v0.5
		c0,0.2,0.1,0.2,0.2,0.2v0.5c0,0.3,0.1,0.4,0.2,0.5v0.2c0,0.2,0.1,0.2,0.2,0.2v0.5c0,0.2,0.1,0.2,0.2,0.2v0.5c0,0.2,0.1,0.2,0.2,0.2
		v0.2c0,0.2,0.1,0.2,0.2,0.2V63c0,0.2,0.1,0.2,0.2,0.2c0,0.3,0.1,0.4,0.2,0.5c0,0.3,0.1,0.4,0.2,0.5c-0.1,0.4,0.2,0.4,0.2,0.7
		c0,0.2,0.1,0.2,0.2,0.2v0.2c0,0.2,0.1,0.2,0.2,0.2c0,0.2,0.1,0.2,0.2,0.2v0.2c0,0.2,0.1,0.2,0.2,0.2c0,0.2,0.2,0.2,0.2,0.5
		C173.9,67.1,174,67.1,174.2,67.1"/>
	<path fill="#1A77BC" d="M114.1,100.3c-1.3,1.9,0.4,4.9,0.2,7.2c-9.1,0.6-19.3,0.1-28.8,0.2c-2.3-21.3-4.1-43.1-6.2-64.6
		c-1.3,0.3-1.5,1.9-1.9,3.1c-0.8,1.2-1.5,2.7-1.9,4.3c-3.1,6.5-6,13.2-8.6,20.2c-0.6,0.8-1,1.7-1.2,2.9c-0.6,0.8-1,1.7-1.2,2.9
		c-0.3,0.2-0.5,0.6-0.5,1.2c-0.6,0.8-1,1.7-1.2,2.9c-0.8,1.1-1.3,2.6-1.7,4.1c-0.4,0.2-0.5,0.6-0.5,1.2c-0.8,1.1-1.3,2.6-1.7,4.1
		c-0.4,0.2-0.5,0.6-0.5,1.2c-0.8,1.1-1.3,2.5-1.7,4.1c-0.4,0.2-0.5,0.6-0.5,1.2c-0.8,1.1-1.3,2.6-1.7,4.1c-0.9,1.5-1.6,3.4-2.2,5.3
		c-0.3,0.2-0.5,0.6-0.5,1.2c-0.2,0-0.2,0.3-0.2,0.5H40.4c-0.3-0.6-0.4-1.5-1-1.9c-0.2-1.1-0.6-2.1-1.2-2.9c-0.4-1.5-0.9-2.9-1.7-4.1
		c-0.2-1.1-0.6-2.1-1.2-2.9c-0.4-1.5-0.9-2.9-1.7-4.1c-0.6-2.1-1.4-4.1-2.4-5.8c-0.4-1.5-0.9-2.9-1.7-4.1c-0.2-1.1-0.6-2.1-1.2-2.9
		c-0.2-1.2-0.6-2.1-1.2-2.9c-0.2-1.1-0.6-2.1-1.2-2.9c-0.2-1.2-0.6-2.1-1.2-2.9c0-0.8-0.3-1.3-0.7-1.7c-0.2-1.1-0.6-2.1-1.2-2.9
		c-0.6-2.1-1.4-4-2.4-5.8c0-0.8-0.3-1.3-0.7-1.7c-0.6-2.1-1.4-4-2.4-5.8c-0.4-1.7-1.1-3.2-1.9-4.6c-0.5-1.9-1.2-3.6-2.2-5
		c-1.4,1.9-1.1,4.8-1.4,7.4c-2,18-3.8,38-5.3,56.6H6.3C-0.9,88-8.3,69.2-15.1,49.7v-0.2c3.1-17.7,4.8-36.8,7.7-54.7H6.5
		c1.9,0,3.9-0.1,5.9-0.2h6.3c0.6,0.1,1.1,0.1,1.7,0.2c0.7,0.1,0.8,0.1,1.2,0.7c0,0.6,0.1,1,0.5,1.2c0.4,1.5,0.9,2.9,1.7,4.1
		c0,0.6,0.1,1,0.5,1.2c0.7,2.3,1.5,4.6,2.6,6.5c0,0.6,0.1,1,0.5,1.2c0,0.6,0.1,1,0.5,1.2c0,0.6,0.1,1,0.5,1.2
		c1.8,5.1,3.8,10.2,6,14.9c0,0.6,0.1,1,0.5,1.2c0,0.6,0.1,1,0.5,1.2c0,0.6,0.1,1,0.5,1.2c0,0.6,0.1,1,0.5,1.2c0,0.6,0.1,1,0.5,1.2
		c2.6,7.5,5.7,14.6,8.6,21.8c0.7,0,1-0.4,1-1.2c1.4-2.6,2.6-5.4,3.6-8.4c1-1.7,1.8-3.6,2.4-5.8c0.4-0.2,0.5-0.6,0.5-1.2
		c0.8-1.1,1.3-2.5,1.7-4.1c0.4-0.2,0.5-0.6,0.5-1.2c0.4-0.2,0.5-0.6,0.5-1.2c0.4-0.2,0.5-0.6,0.5-1.2c0.4-0.2,0.5-0.6,0.5-1.2
		c0.4-0.2,0.5-0.6,0.5-1.2c0.4-0.2,0.5-0.6,0.5-1.2c0.4-0.2,0.5-0.6,0.5-1.2c0.4-0.2,0.5-0.6,0.5-1.2c0.4-0.2,0.5-0.6,0.5-1.2
		c0.4-0.2,0.5-0.6,0.5-1.2c1.1-2.1,2-4.2,2.6-6.7c0.4-0.2,0.5-0.6,0.5-1.2c0.4-0.2,0.5-0.6,0.5-1.2c0.4-0.2,0.5-0.6,0.5-1.2
		c1.4-2.9,2.6-5.8,3.6-9.1c0.4-0.2,0.5-0.6,0.5-1.2c1.1-1.9,1.9-4.2,2.6-6.5c9.2-0.4,20.1-0.4,29.3,0c0.7,6,1.4,12.1,2.4,17.8
		c0.2,0,0.3,0.2,0.5,0.2C105.8,41.5,109.5,72,114.1,100.3"/>
	<path fill="#00973F" d="M6.4,106.8v0.5c-10.1,0.4-20.9,0.3-31,0c-1.8-4.5-3.2-9.4-5.3-13.7c-0.4-2.1-1.2-3.7-1.9-5.5
		c-13.2-0.5-27.4-0.1-41-0.2c-1.8,2.9-2.9,6.6-4.1,10.1c-0.6,1-1.1,2.2-1.4,3.6c-0.7,0.9-1.2,2-1.4,3.4c-0.8,0.6-0.6,2.1-1.7,2.4
		c-10.1-0.2-21.2,1-30.7-0.2c25.9-3.8,40-19.4,48-41c7.9-0.1,16.5,0.3,24-0.2c-1.5-6.9-3.8-13-6-19.2c-0.9-3.2-1.8-6.3-3.1-9.1
		c-0.3-1.5-0.7-3-1.4-4.1c-0.3-1.5-0.7-2.9-1.4-3.8c-1.9,1.6-2.1,4.5-2.9,7c-0.8,2.4-1.9,4.8-2.4,7.2c-2.3,5-3.5,11.1-5.8,16.1
		c2.1-16.7-1.9-28.8-7.9-38.4c-1.3-2.1-4.2-4.9-4.3-6.7c0-0.5,0.1-1,0.2-1.5c0-0.1,0.1-0.3,0.2-0.4c0.1,0,0.1-0.1,0.1-0.2v-0.1
		c0.8-1.8,2.2-3.6,2.2-5.4c0.7-1.3,1.4-2.6,1.7-4.3c1-1.9,1.8-3.9,2.4-6.2c0.4-0.2,0.5-0.6,0.5-1.2c10.1-0.7,22.1-0.7,32.2,0
		c0.2,0.6,0.2,1.4,0.7,1.7c0.2,1.2,0.6,2.3,1.2,3.1c2.3,6.8,4.8,13.5,7.4,19.9c1.5,4.7,3.1,9.2,5,13.4c0.3,1.7,1,3.1,1.7,4.3
		c0.7,2.6,1.7,5,2.9,7.2c0.5,1.6,0.9,3.3,1.9,4.3c0,0.2,0.1,0.2,0.2,0.2C-8.3,68.9-0.9,87.8,6.4,106.8"/>
	<path fill="#3FAB36" d="M-93.8,58.5c0.5-3.4,0.6-7.3,0.5-11.3c0.1-0.2-0.1-0.2-0.2-0.2v-1.7c0.1-0.2-0.1-0.2-0.2-0.2v-1.2
		c0-0.2-0.1-0.2-0.2-0.2c-0.8-5.1-2.8-9-5.3-12.5c0.1-0.2-0.1-0.2-0.2-0.2c-0.1-0.5-0.7-0.5-0.7-1c0.1-0.2-0.1-0.2-0.2-0.2
		c-0.9-1.1-2-2.2-3.1-3.1c0.1-0.2-0.1-0.2-0.2-0.2c-0.5-0.1-0.5-0.7-1-0.7c0.1-0.2-0.1-0.2-0.2-0.2c-1.9-1.2-3.7-2.6-6-3.4
		c0.1-0.2-0.1-0.2-0.2-0.2c-0.4,0-0.5-0.3-1-0.2c0.1-0.2-0.1-0.2-0.2-0.2c-1-0.1-1.6-0.7-2.6-0.7c0-0.2-0.1-0.2-0.2-0.2
		c-1.4-0.2-2.5-0.7-4.1-0.7c0.1-0.2-0.1-0.2-0.2-0.2h-1.4c0-0.2-0.1-0.2-0.2-0.2h-2.4c0-0.2-0.1-0.2-0.2-0.2h-5.3
		c-0.2,0-0.2,0.1-0.2,0.2c-1.1,0-2.3-0.1-3.1,0.2v63.4c3.3,0.6,7.6,0.1,11,0c0.2,0.1,0.2-0.1,0.2-0.2c1.6,0.1,2.6-0.4,4.1-0.5
		c0.2,0,0.2-0.1,0.2-0.2c1.1,0.1,1.6-0.5,2.6-0.5c0.2,0,0.2-0.1,0.2-0.2c0.9,0.1,1.2-0.4,1.9-0.5c0.2,0.1,0.2-0.1,0.2-0.2
		c1.1-0.1,1.6-0.8,2.6-1c0.2,0,0.2-0.1,0.2-0.2c2.1-0.9,3.8-2.1,5.5-3.4c0.2,0.1,0.2-0.1,0.2-0.2c1.6-1.4,3.1-2.8,4.3-4.6
		c0.2,0.1,0.2-0.1,0.2-0.2c2.3-3.3,4.1-7.1,4.8-12C-93.9,58.8-93.9,58.7-93.8,58.5 M-40.6,65.5c0-0.3,0-0.7-0.2-0.7v-0.5
		c0-0.3,0-0.4-0.2-0.5v-0.5c0-0.2-0.1-0.2-0.2-0.2v-0.5c0.1-0.2-0.1-0.2-0.2-0.2v-0.5c0-0.3,0-0.4-0.2-0.5v-0.2
		c0-0.3-0.1-0.4-0.2-0.5v-0.5c0.1-0.2-0.1-0.2-0.2-0.2v-0.5c0.1-0.2-0.1-0.2-0.2-0.2v-0.5c0-0.2-0.1-0.2-0.2-0.2V58
		c0.1-0.2-0.1-0.2-0.2-0.2v-0.5c0-0.3,0-0.4-0.2-0.5v-0.5c0-0.2-0.1-0.2-0.2-0.2v-0.5c0.1-0.2-0.1-0.2-0.2-0.2v-0.5
		c0.1-0.2-0.1-0.2-0.2-0.2v-0.5C-43.9,54-44,54-44.2,54v-0.5c0.1-0.2-0.1-0.2-0.2-0.2v-0.5c0.1-0.2-0.1-0.2-0.2-0.2V52
		c0.1-0.2-0.1-0.2-0.2-0.2v-0.5c0.1-0.2-0.1-0.2-0.2-0.2v-0.5c0-0.2-0.1-0.2-0.2-0.2v-0.5c0.1-0.2-0.1-0.2-0.2-0.2v-0.5
		c0-0.2-0.1-0.2-0.2-0.2v-0.5c0-0.2-0.1-0.2-0.2-0.2v-0.5c0-0.3,0-0.4-0.2-0.5V47v-0.5c2.2,6.2,4.5,12.3,6,19.2
		c-7.5,0.6-16.1,0.1-24,0.2c-8,21.7-22.1,37.2-48,41c9.5,1.2,20.6,0,30.7,0.2c1.1-0.3,0.9-1.8,1.7-2.4v0.2v0.5
		c-0.2,0-0.2,0.1-0.2,0.2v0.2c-0.2,0-0.2,0.1-0.2,0.2v0.2c-0.2,0-0.2,0.1-0.2,0.2v0.2c-0.2,0-0.2,0.1-0.2,0.2c0,0.1,0,0.3-0.2,0.2
		c-0.7,0.1-2.1-0.3-2.4,0.2h-16.1h-5c-19.2-0.1-38.4-0.1-57.4-0.5V-5.3c7.4,0.2,14.3-0.2,21.6-0.2c0.2,0.1,0.2-0.1,0.2-0.2
		c4.7,0.1,9.2-0.1,13.7-0.2c0,0.2,0.1,0.2,0.2,0.2c3.5-0.1,6.6,0.1,9.8,0.2c0,0.2,0.1,0.2,0.2,0.2c2.1-0.1,3.3,0.5,5.3,0.5
		c0,0.2,0.1,0.2,0.2,0.2c1.4-0.1,2.1,0.5,3.4,0.5c0,0.2,0.1,0.2,0.2,0.2c0.8-0.2,0.9,0.4,1.7,0.2c0,0.2,0.1,0.2,0.2,0.2
		c0.7-0.2,0.7,0.4,1.4,0.2c0,0.2,0.1,0.2,0.2,0.2c2.8,0.6,5,1.8,7.4,2.6c0,0.2,0.1,0.2,0.2,0.2c1.2,0.3,2,1,3.1,1.4
		c0,0.2,0.1,0.2,0.2,0.2c0.5,0.2,1,0.5,1.4,0.7c0,0.2,0.1,0.2,0.2,0.2c0.4,0.1,0.6,0.4,1,0.5c0,0.2,0.1,0.2,0.2,0.2
		c1.4,0.7,2.4,1.6,3.6,2.4c0,0.2,0.1,0.2,0.2,0.2c0.4,0.1,0.4,0.4,0.7,0.5c0,0.2,0.1,0.2,0.2,0.2c1.7,1.2,3.1,2.5,4.6,3.8
		c0,0.2,0.1,0.2,0.2,0.2c0,0.2,0.1,0.2,0.2,0.2c0,0.2,0.1,0.2,0.2,0.2c0.9,0.7,1.7,1.5,2.4,2.4c0,0.2,0.1,0.2,0.2,0.2
		c0,0.2,0.1,0.2,0.2,0.2c0.2,0,0.3,0.2,0.5,0.2c0.2,0.1,0.2-0.1,0.2-0.2v-0.2c0.2,0,0.2-0.1,0.2-0.2v-0.5c0.1,0,0.2,0,0.2-0.1
		c-0.1,0.5-0.2,1-0.2,1.5c0.1,1.8,3,4.6,4.3,6.7c6,9.6,10,21.7,7.9,38.4c2.3-5,3.5-11.1,5.8-16.1v0.5v0.2c-0.2,0-0.2,0.1-0.2,0.2
		v0.5c-0.2,0-0.2,0.1-0.2,0.2v0.5c-0.2,0-0.2,0.1-0.2,0.2v0.5c-0.2,0-0.2,0.1-0.2,0.2v0.5c-0.2,0-0.2,0.1-0.2,0.2V48
		c-0.2,0-0.2,0.1-0.2,0.2v0.5c-0.2,0-0.2,0.1-0.2,0.2v0.5c-0.2,0-0.2,0.1-0.2,0.2v0.5c-0.2,0-0.2,0.1-0.2,0.2v0.5
		c-0.2,0-0.2,0.1-0.2,0.2v0.5c-0.2,0-0.2,0.1-0.2,0.2v0.5c-0.2,0-0.2,0.1-0.2,0.2V53c-0.2,0-0.2,0.1-0.2,0.2v0.5
		c-0.2,0-0.2,0.1-0.2,0.2v0.5c-0.2,0-0.2,0.1-0.2,0.2v0.5c-0.2,0-0.2,0.1-0.2,0.2v0.5c-0.2,0-0.2,0.1-0.2,0.2v0.5
		c-0.2,0-0.2,0.1-0.2,0.2v0.5c-0.2,0-0.2,0.1-0.2,0.2V58c-0.2,0-0.2,0.1-0.2,0.2v0.5c-0.2,0-0.2,0.1-0.2,0.2v0.5
		c-0.2,0-0.2,0.1-0.2,0.2V60c-0.2,0-0.2,0.1-0.2,0.2v0.5c-0.2,0-0.2,0.1-0.2,0.2v0.5c-0.2,0-0.2,0.1-0.2,0.2v0.5
		c-0.2,0-0.2,0.1-0.2,0.2c0.1,1.3-0.8,1.6-0.7,2.9c7.4,0.6,15.9,0.1,23.8,0.2H-40.6z"/>
</g>
</svg>
