<?xml version="1.0" encoding="utf-8"?>
<!-- Generator: Adobe Illustrator 17.1.0, SVG Export Plug-In . SVG Version: 6.00 Build 0)  -->
<!DOCTYPE svg PUBLIC "-//W3C//DTD SVG 1.1//EN" "http://www.w3.org/Graphics/SVG/1.1/DTD/svg11.dtd">
<svg version="1.1" id="Layer_1" xmlns="http://www.w3.org/2000/svg" xmlns:xlink="http://www.w3.org/1999/xlink" x="0px" y="0px"
	 viewBox="0 0 301.9 151.7" enable-background="new 0 0 301.9 151.7" xml:space="preserve">
<g>
	<g>
		<path fill="#D70926" d="M128.3,53.3c-4.6,0-8.4-4.3-8.4-9.5c0-5.3,3.8-9.5,8.4-9.5c4.6,0,8.4,4.3,8.4,9.5
			C136.7,49,133,53.3,128.3,53.3 M128.3,28.8c-8.3,0-15,6.7-15,15c0,8.3,6.7,15,15,15c8.3,0,15-6.7,15-15
			C143.4,35.5,136.6,28.8,128.3,28.8"/>
		<polyline fill="#D70926" points="169.3,29.8 145.3,29.8 145.3,35 154.1,35 154.1,35 154.1,58.1 160.4,58.1 160.4,35 160.4,35 
			169.3,35 169.3,29.8 		"/>
		<path fill="#D70926" d="M178.7,47l4-10.4h0.1l4,10.4h-4H178.7 M186.7,29.8h-3.9h-3.9l-11.7,28.3h7.4l2.4-6.4l0,0h5.8h5.8l0,0
			l2.4,6.4h7.4L186.7,29.8"/>
		<polyline fill="#D70926" points="52.5,29.8 28.5,29.8 28.5,35 37.4,35 37.4,35 37.4,58.1 43.7,58.1 43.7,35 43.7,35 52.5,35 
			52.5,29.8 		"/>
		<path fill="#D70926" d="M69.2,53.3c-4.6,0-8.4-4.3-8.4-9.5c0-5.3,3.8-9.5,8.4-9.5c4.6,0,8.4,4.3,8.4,9.5
			C77.6,49,73.8,53.3,69.2,53.3 M69.2,28.8c-8.3,0-15,6.7-15,15c0,8.3,6.7,15,15,15c8.3,0,15-6.7,15-15
			C84.2,35.5,77.5,28.8,69.2,28.8"/>
		<polyline fill="#D70926" points="113,29.8 105.6,29.8 98.8,41.7 91.9,29.8 84.5,29.8 95.6,47.4 95.6,47.5 95.6,58.1 98.8,58.1 
			102,58.1 102,47.5 102,47.4 113,29.8 		"/>
		<rect x="28.5" y="72.3" fill="#C6C6C6" width="245.1" height="5.7"/>
		<g>
			<path d="M29.7,123.3v-17h3.4l4,12c0.4,1.1,0.6,2,0.8,2.5c0.2-0.6,0.5-1.5,0.9-2.7l4.1-11.8h3v17h-2.2v-14.2l-4.9,14.2h-2
				l-4.9-14.5v14.5H29.7z"/>
			<path d="M47.7,123.3l6.5-17h2.4l7,17h-2.6l-2-5.2H52l-1.9,5.2H47.7z M52.6,116.3h5.8l-1.8-4.7c-0.5-1.4-0.9-2.6-1.2-3.5
				c-0.2,1.1-0.5,2.2-0.9,3.2L52.6,116.3z"/>
			<path d="M68,123.3v-15h-5.6v-2h13.5v2h-5.6v15H68z"/>
			<path d="M78.2,123.3v-17h12.3v2h-10v5.2h9.4v2h-9.4v5.8h10.4v2H78.2z"/>
			<path d="M94.1,123.3v-17h7.5c1.5,0,2.7,0.2,3.5,0.5s1.4,0.8,1.9,1.6c0.5,0.8,0.7,1.6,0.7,2.6c0,1.2-0.4,2.2-1.2,3.1
				c-0.8,0.8-2,1.4-3.6,1.6c0.6,0.3,1,0.6,1.4,0.8c0.7,0.6,1.3,1.4,1.9,2.3l3,4.6h-2.8l-2.3-3.5c-0.7-1-1.2-1.8-1.6-2.3
				c-0.4-0.5-0.8-0.9-1.1-1.1c-0.3-0.2-0.7-0.4-1-0.5c-0.3-0.1-0.7-0.1-1.3-0.1h-2.6v7.6H94.1z M96.3,113.8h4.8c1,0,1.8-0.1,2.4-0.3
				s1-0.6,1.3-1c0.3-0.5,0.5-1,0.5-1.5c0-0.8-0.3-1.5-0.9-2s-1.5-0.8-2.8-0.8h-5.4V113.8z"/>
			<path d="M111.6,123.3v-17h2.3v17H111.6z"/>
			<path d="M115.9,123.3l6.5-17h2.4l7,17h-2.6l-2-5.2h-7.1l-1.9,5.2H115.9z M120.8,116.3h5.8l-1.8-4.7c-0.5-1.4-0.9-2.6-1.2-3.5
				c-0.2,1.1-0.5,2.2-0.9,3.2L120.8,116.3z"/>
			<path d="M133.6,123.3v-17h2.3v15h8.4v2H133.6z"/>
			<path d="M152.6,123.3v-17h2.3v7h8.8v-7h2.3v17h-2.3v-8h-8.8v8H152.6z"/>
			<path d="M167.9,123.3l6.5-17h2.4l7,17h-2.6l-2-5.2h-7.1l-1.9,5.2H167.9z M172.8,116.3h5.8l-1.8-4.7c-0.5-1.4-0.9-2.6-1.2-3.5
				c-0.2,1.1-0.5,2.2-0.9,3.2L172.8,116.3z"/>
			<path d="M185.6,123.3v-17h2.3l8.9,13.4v-13.4h2.2v17h-2.3l-8.9-13.4v13.4H185.6z"/>
			<path d="M202.7,123.3v-17h5.9c1.3,0,2.3,0.1,3,0.2c1,0.2,1.8,0.6,2.5,1.2c0.9,0.8,1.6,1.7,2,2.9c0.4,1.2,0.7,2.5,0.7,4
				c0,1.3-0.2,2.4-0.5,3.4s-0.7,1.8-1.2,2.5c-0.5,0.7-1,1.2-1.5,1.5s-1.2,0.7-2,0.9c-0.8,0.2-1.7,0.3-2.7,0.3H202.7z M205,121.3h3.6
				c1.1,0,2-0.1,2.6-0.3c0.6-0.2,1.1-0.5,1.5-0.9c0.5-0.5,0.9-1.3,1.2-2.2c0.3-0.9,0.4-2,0.4-3.3c0-1.8-0.3-3.1-0.9-4.1
				c-0.6-1-1.3-1.6-2.1-1.9c-0.6-0.2-1.6-0.3-2.9-0.3H205V121.3z"/>
			<path d="M219.8,123.3v-17h2.3v15h8.4v2H219.8z"/>
			<path d="M233.5,123.3v-17h2.3v17H233.5z"/>
			<path d="M239.7,123.3v-17h2.3l8.9,13.4v-13.4h2.2v17h-2.3l-8.9-13.4v13.4H239.7z"/>
			<path d="M264.8,116.6v-2l7.2,0v6.3c-1.1,0.9-2.2,1.5-3.4,2c-1.2,0.4-2.4,0.7-3.6,0.7c-1.7,0-3.2-0.4-4.6-1.1
				c-1.4-0.7-2.4-1.7-3.1-3.1c-0.7-1.4-1-2.9-1-4.5c0-1.7,0.3-3.2,1-4.6c0.7-1.4,1.7-2.5,3-3.2c1.3-0.7,2.8-1,4.5-1
				c1.2,0,2.3,0.2,3.3,0.6s1.8,1,2.3,1.7c0.6,0.7,1,1.6,1.3,2.8l-2,0.6c-0.3-0.9-0.6-1.5-1-2c-0.4-0.5-0.9-0.9-1.6-1.2
				c-0.7-0.3-1.5-0.4-2.3-0.4c-1,0-1.9,0.2-2.7,0.5c-0.8,0.3-1.4,0.7-1.8,1.2c-0.5,0.5-0.8,1.1-1.1,1.7c-0.4,1.1-0.6,2.2-0.6,3.4
				c0,1.5,0.3,2.8,0.8,3.8s1.3,1.8,2.3,2.3c1,0.5,2.1,0.7,3.2,0.7c1,0,1.9-0.2,2.9-0.6s1.6-0.8,2.1-1.2v-3.2H264.8z"/>
		</g>
	</g>
</g>
<g>
</g>
<g>
</g>
<g>
</g>
<g>
</g>
<g>
</g>
<g>
</g>
</svg>
