<?xml version="1.0" encoding="utf-8"?>
<!-- Generator: Adobe Illustrator 17.1.0, SVG Export Plug-In . SVG Version: 6.00 Build 0)  -->
<!DOCTYPE svg PUBLIC "-//W3C//DTD SVG 1.1//EN" "http://www.w3.org/Graphics/SVG/1.1/DTD/svg11.dtd">
<svg version="1.1" id="Lager_1" xmlns="http://www.w3.org/2000/svg" xmlns:xlink="http://www.w3.org/1999/xlink" x="0px" y="0px"
	 viewBox="0 0 245.5 78" enable-background="new 0 0 245.5 78" xml:space="preserve">
<g>
	<path fill="#BD1D1D" d="M6.2,67.9v-2.2h2c3.5,0,4.6-3.9,4.6-7.6V18.7c-1.5-2-2.9-4.3-5.4-4.3H6.2v-2.1h31L59.3,42V18.4
		c0-2.2-2.5-4-5.5-4h-1.6v-2.2h16.8v2.2h-2.4c-4.2,0-4.2,3.1-4.2,9.7v43.8H48.6L15.7,23.3v34.8c0,3.7,0.8,7.6,4.7,7.6H23v2.2H6.2z"
		/>
	<path fill="#BD1D1D" d="M71.9,67.9v-2.2h6.2V14.4h-6.2v-2.2h37.6v2.2h-6.2v51.3h6.2v2.2H71.9z"/>
	<path fill="#BD1D1D" d="M113.1,67.9v-2.2h6.2V14.4h-6.2v-2.2h44.7c8.4,0,20,3,20,13.2c0,9.8-10.8,12.4-18.8,12.5v1.6
		c1.7,0.1,3.5,0.2,5.2,0.4c7.6,0.7,15,4.5,15,13c0,15.9-18.9,14.9-30.2,14.9H113.1z M144.2,65.7h2.8c6.2,0,6.4-5.5,6.4-7.8V47.4
		c0-6.2-3.1-7.4-7.2-7.4h-2V65.7z M144.2,37.8h3.5c3.2,0,4.6-2.7,4.6-6.3V20.4c0-4.2-2.1-5.9-6.3-5.9h-1.9V37.8z"/>
	<path fill="#BD1D1D" d="M180.2,67.9v-2.2h6V14.4h-6v-2.2h54.7l0.4,19.5h-2.7c-2.3-8.8-7.8-17.3-16.7-17.3h-5v24.3h1.4
		c2.5,0,8.2-2.6,9-10.9h2.7v24.5h-2.7c-0.7-8.8-6.4-11.4-9-11.4h-1.4v24.8h5.5c6.2,0,12.6-4.5,17.1-19h2.4l-0.4,21.2H180.2z"/>
</g>
<g>
</g>
<g>
</g>
<g>
</g>
<g>
</g>
<g>
</g>
<g>
</g>
<g>
</g>
<g>
</g>
<g>
</g>
<g>
</g>
<g>
</g>
<g>
</g>
</svg>
