<?xml version="1.0" encoding="utf-8"?>
<!-- Generator: Adobe Illustrator 17.1.0, SVG Export Plug-In . SVG Version: 6.00 Build 0)  -->
<!DOCTYPE svg PUBLIC "-//W3C//DTD SVG 1.1//EN" "http://www.w3.org/Graphics/SVG/1.1/DTD/svg11.dtd">
<svg version="1.1" id="Lager_1" xmlns="http://www.w3.org/2000/svg" xmlns:xlink="http://www.w3.org/1999/xlink" x="0px" y="0px"
	 viewBox="0 0 595.3 595.3" enable-background="new 0 0 595.3 595.3" xml:space="preserve">
<radialGradient id="SVGID_1_" cx="303.4085" cy="351.8447" r="269.9879" fx="140.3109" fy="357.3136" gradientUnits="userSpaceOnUse">
	<stop  offset="1.876830e-02" style="stop-color:#F3F2F3"/>
	<stop  offset="0.2536" style="stop-color:#EDECED"/>
	<stop  offset="0.567" style="stop-color:#DDDCDE"/>
	<stop  offset="0.6062" style="stop-color:#DBD9DB"/>
	<stop  offset="0.6469" style="stop-color:#D5D4D6"/>
	<stop  offset="0.7004" style="stop-color:#C6C4C6"/>
	<stop  offset="0.761" style="stop-color:#ADAAAD"/>
	<stop  offset="0.8269" style="stop-color:#8A888B"/>
	<stop  offset="0.8971" style="stop-color:#5F5C5F"/>
	<stop  offset="0.9698" style="stop-color:#2A2729"/>
	<stop  offset="0.9944" style="stop-color:#000000"/>
</radialGradient>
<path fill="url(#SVGID_1_)" d="M297.4,490.5c-51.5,0-99.8-20-136.2-56.4c-36.4-36.4-56.4-84.8-56.4-136.2c0-51.5,20-99.8,56.4-136.2
	s84.8-56.4,136.2-56.4s99.8,20,136.2,56.4S490,246.4,490,297.8c0,51.5-20,99.8-56.4,136.2C397.2,470.4,348.9,490.5,297.4,490.5z
	 M448.2,448.6c40.3-40.3,62.5-93.8,62.5-150.8c0-57-22.2-110.5-62.5-150.8c-40.3-40.3-93.8-62.5-150.8-62.5S186.9,106.8,146.6,147
	c-40.3,40.3-62.5,93.8-62.5,150.8c0,57,22.2,110.5,62.5,150.8c40.3,40.3,93.8,62.5,150.8,62.5S407.9,488.9,448.2,448.6z"/>
<radialGradient id="SVGID_2_" cx="297.4079" cy="281.8393" r="224.748" fx="72.6697" fy="279.7402" gradientTransform="matrix(4.499940e-11 1 -1.0915 4.911698e-11 605.0364 -15.5687)" gradientUnits="userSpaceOnUse">
	<stop  offset="0.8299" style="stop-color:#FFFFFF"/>
	<stop  offset="0.8318" style="stop-color:#E3E2E3"/>
	<stop  offset="0.8348" style="stop-color:#BFBDC0"/>
	<stop  offset="0.8381" style="stop-color:#A19FA2"/>
	<stop  offset="0.8417" style="stop-color:#878588"/>
	<stop  offset="0.8457" style="stop-color:#737174"/>
	<stop  offset="0.8504" style="stop-color:#646164"/>
	<stop  offset="0.856" style="stop-color:#585658"/>
	<stop  offset="0.8636" style="stop-color:#524F52"/>
	<stop  offset="0.8817" style="stop-color:#504E50"/>
	<stop  offset="0.8901" style="stop-color:#535052;stop-opacity:0.7777"/>
	<stop  offset="0.8958" style="stop-color:#5B585A;stop-opacity:0.6288"/>
	<stop  offset="0.9006" style="stop-color:#686668;stop-opacity:0.5015"/>
	<stop  offset="0.9049" style="stop-color:#7B797C;stop-opacity:0.3863"/>
	<stop  offset="0.909" style="stop-color:#949194;stop-opacity:0.2792"/>
	<stop  offset="0.9128" style="stop-color:#B2B0B3;stop-opacity:0.1781"/>
	<stop  offset="0.9164" style="stop-color:#D7D6D8;stop-opacity:8.363950e-02"/>
	<stop  offset="0.9195" style="stop-color:#FFFFFF;stop-opacity:0"/>
	<stop  offset="0.9975" style="stop-color:#FFFFFF"/>
</radialGradient>
<path fill="url(#SVGID_2_)" d="M297.4,490.5c-51.5,0-99.8-20-136.2-56.4c-36.4-36.4-56.4-84.8-56.4-136.2c0-51.5,20-99.8,56.4-136.2
	s84.8-56.4,136.2-56.4s99.8,20,136.2,56.4S490,246.4,490,297.8c0,51.5-20,99.8-56.4,136.2C397.2,470.4,348.9,490.5,297.4,490.5z
	 M448.2,448.6c40.3-40.3,62.5-93.8,62.5-150.8c0-57-22.2-110.5-62.5-150.8c-40.3-40.3-93.8-62.5-150.8-62.5S186.9,106.8,146.6,147
	c-40.3,40.3-62.5,93.8-62.5,150.8c0,57,22.2,110.5,62.5,150.8c40.3,40.3,93.8,62.5,150.8,62.5S407.9,488.9,448.2,448.6z"/>
<radialGradient id="SVGID_3_" cx="297.4079" cy="297.8393" r="213.2537" gradientUnits="userSpaceOnUse">
	<stop  offset="0.9225" style="stop-color:#B7B5B8"/>
	<stop  offset="0.9357" style="stop-color:#C7C5C7"/>
	<stop  offset="0.9603" style="stop-color:#DFDDDF"/>
	<stop  offset="0.9825" style="stop-color:#EEEDEE"/>
	<stop  offset="1" style="stop-color:#F3F2F3"/>
</radialGradient>
<path fill="url(#SVGID_3_)" d="M297.4,490.5c-51.5,0-99.8-20-136.2-56.4c-36.4-36.4-56.4-84.8-56.4-136.2c0-51.5,20-99.8,56.4-136.2
	s84.8-56.4,136.2-56.4s99.8,20,136.2,56.4S490,246.4,490,297.8c0,51.5-20,99.8-56.4,136.2C397.2,470.4,348.9,490.5,297.4,490.5z
	 M448.2,448.6c40.3-40.3,62.5-93.8,62.5-150.8c0-57-22.2-110.5-62.5-150.8c-40.3-40.3-93.8-62.5-150.8-62.5S186.9,106.8,146.6,147
	c-40.3,40.3-62.5,93.8-62.5,150.8c0,57,22.2,110.5,62.5,150.8c40.3,40.3,93.8,62.5,150.8,62.5S407.9,488.9,448.2,448.6z"/>
<radialGradient id="SVGID_4_" cx="297.4081" cy="297.8388" r="283.5303" gradientUnits="userSpaceOnUse">
	<stop  offset="0.9617" style="stop-color:#FFFFFF"/>
	<stop  offset="0.9907" style="stop-color:#E4E3E5"/>
	<stop  offset="1" style="stop-color:#DBD9DB"/>
</radialGradient>
<path fill="url(#SVGID_4_)" d="M511.7,130.8l1.1,1.4c36.9,47.8,56.4,105.1,56.4,165.7c0,72.6-28.3,140.8-79.6,192.1
	c-51.3,51.3-119.6,79.6-192.1,79.6S156.6,541.3,105.3,490C54,438.7,25.7,370.4,25.7,297.8S54,157,105.3,105.7s119.6-79.6,192.1-79.6
	c60.6,0,117.9,19.5,165.8,56.4l1.4,1.1L463.5,68c-48-34.9-105.6-53.7-166.1-53.7c-75.7,0-146.9,29.5-200.5,83s-83,124.8-83,200.5
	s29.5,146.9,83,200.5s124.8,83,200.5,83s146.9-29.5,200.5-83s83-124.8,83-200.5c0-60.4-18.8-118-53.6-166L511.7,130.8z"/>
<radialGradient id="SVGID_5_" cx="247.0304" cy="146.65" r="433.6596" gradientUnits="userSpaceOnUse">
	<stop  offset="0" style="stop-color:#F3F2F3"/>
	<stop  offset="0.475" style="stop-color:#F1F1F1"/>
	<stop  offset="0.6458" style="stop-color:#EBEAEB"/>
	<stop  offset="0.6982" style="stop-color:#E7E6E7"/>
	<stop  offset="0.8646" style="stop-color:#DBD9DB"/>
</radialGradient>
<path fill="url(#SVGID_5_)" d="M93.3,253.2c8.4-39,27.9-74.5,56.4-103C189.2,110.7,241.6,89,297.4,89s108.2,21.7,147.7,61.2
	c28.5,28.5,48,64.1,56.4,103H93.3z M297.4,506.7c-55.8,0-108.2-21.7-147.7-61.2c-28.5-28.5-48-64.1-56.4-103h408.1
	c-8.4,39-27.9,74.5-56.4,103C405.6,484.9,353.2,506.7,297.4,506.7z M536.6,108.7c10.1,12.8,19.2,26.2,27.1,40.3l3.8,0v-121h-121
	l0,3.7c14,7.9,27.5,16.9,40.3,27.1L464.4,81c-46.2-35.6-104.1-56.8-167-56.8c-151.2,0-273.7,122.5-273.7,273.7
	s122.5,273.7,273.7,273.7S571.1,449,571.1,297.8c0-62.8-21.2-120.7-56.8-166.9L536.6,108.7z"/>
<radialGradient id="SVGID_6_" cx="309.4081" cy="101.8388" r="456.4" gradientUnits="userSpaceOnUse">
	<stop  offset="0" style="stop-color:#FFFFFF"/>
	<stop  offset="0.554" style="stop-color:#FDFDFD"/>
	<stop  offset="0.7533" style="stop-color:#F7F6F7"/>
	<stop  offset="0.8951" style="stop-color:#ECEBEC"/>
	<stop  offset="0.9361" style="stop-color:#E7E6E7"/>
</radialGradient>
<path fill="url(#SVGID_6_)" d="M93.3,253.2c8.4-39,27.9-74.5,56.4-103C189.2,110.7,241.6,89,297.4,89s108.2,21.7,147.7,61.2
	c28.5,28.5,48,64.1,56.4,103H93.3z M297.4,506.7c-55.8,0-108.2-21.7-147.7-61.2c-28.5-28.5-48-64.1-56.4-103h408.1
	c-8.4,39-27.9,74.5-56.4,103C405.6,484.9,353.2,506.7,297.4,506.7z M536.6,108.7c10.1,12.8,19.2,26.2,27.1,40.3l3.8,0v-121h-121
	l0,3.7c14,7.9,27.5,16.9,40.3,27.1L464.4,81c-46.2-35.6-104.1-56.8-167-56.8c-151.2,0-273.7,122.5-273.7,273.7
	s122.5,273.7,273.7,273.7S571.1,449,571.1,297.8c0-62.8-21.2-120.7-56.8-166.9L536.6,108.7z"/>
<g>
	<polygon fill="none" points="506.1,253.7 88.7,253.7 91.1,251.7 113,241.9 481.8,241.9 503.7,251.7 	"/>
	<path fill="none" d="M483,245.8c-8.8-31.5-25.6-60.4-49.4-84.2c-36.4-36.4-84.8-56.4-136.2-56.4s-99.8,20-136.2,56.4
		c-23.8,23.8-40.6,52.7-49.4,84.2l-21.5,9.8l-2.4,2c7.9-41.9,28.2-80.1,58.7-110.6c40.3-40.3,93.8-62.5,150.8-62.5
		s110.5,22.2,150.8,62.5c30.5,30.5,50.7,68.7,58.7,110.6l-2.4-2L483,245.8z"/>
	<polygon fill="none" points="88.7,342 506.9,342 504.5,343.9 481.8,353.8 113,353.8 91.1,343.9 	"/>
	<path fill="none" d="M87.9,338c7.9,41.9,28.2,80.1,58.7,110.6c40.3,40.3,93.8,62.5,150.8,62.5s110.5-22.2,150.8-62.5
		c30.5-30.5,50.7-68.7,58.7-110.6l-2.4,2l-21.5,9.8c-8.8,31.5-25.6,60.4-49.4,84.2c-36.4,36.4-84.8,56.4-136.2,56.4
		s-99.8-20-136.2-56.4c-23.8-23.8-40.6-52.7-49.4-84.2L90.3,340L87.9,338z"/>
	<linearGradient id="SVGID_7_" gradientUnits="userSpaceOnUse" x1="357.0638" y1="341.2844" x2="237.499" y2="165.7772">
		<stop  offset="0" style="stop-color:#DBD9DB"/>
		<stop  offset="0.305" style="stop-color:#D8D6D8"/>
		<stop  offset="0.5312" style="stop-color:#CFCDD0"/>
		<stop  offset="0.732" style="stop-color:#C0BEC1"/>
		<stop  offset="0.9169" style="stop-color:#ABA9AC"/>
		<stop  offset="1" style="stop-color:#A09EA1"/>
	</linearGradient>
	<polygon fill="url(#SVGID_7_)" points="506.1,253.7 88.7,253.7 91.1,251.7 113,241.9 481.8,241.9 503.7,251.7 	"/>
	<linearGradient id="SVGID_8_" gradientUnits="userSpaceOnUse" x1="88.729" y1="347.8669" x2="506.8939" y2="347.8669">
		<stop  offset="5.000000e-03" style="stop-color:#5C595B"/>
		<stop  offset="0.9133" style="stop-color:#706E71"/>
		<stop  offset="1" style="stop-color:#737073"/>
	</linearGradient>
	<polygon fill="url(#SVGID_8_)" points="88.7,342 506.9,342 504.5,343.9 481.8,353.8 113,353.8 91.1,343.9 	"/>
	
		<radialGradient id="SVGID_9_" cx="300.4079" cy="259.614" r="233.137" fx="89.6287" fy="258.5644" gradientTransform="matrix(1.109870e-02 0.9999 -1.3339 1.480577e-02 643.3798 -44.6192)" gradientUnits="userSpaceOnUse">
		<stop  offset="0.7783" style="stop-color:#FFFFFF"/>
		<stop  offset="0.7799" style="stop-color:#E3E2E3"/>
		<stop  offset="0.7822" style="stop-color:#BFBDC0"/>
		<stop  offset="0.7847" style="stop-color:#A19FA2"/>
		<stop  offset="0.7875" style="stop-color:#878588"/>
		<stop  offset="0.7907" style="stop-color:#737174"/>
		<stop  offset="0.7943" style="stop-color:#646164"/>
		<stop  offset="0.7986" style="stop-color:#585658"/>
		<stop  offset="0.8045" style="stop-color:#524F52"/>
		<stop  offset="0.8187" style="stop-color:#504E50"/>
		<stop  offset="0.825" style="stop-color:#545154;stop-opacity:0.8622"/>
		<stop  offset="0.8316" style="stop-color:#5F5D5F;stop-opacity:0.7174"/>
		<stop  offset="0.8383" style="stop-color:#727073;stop-opacity:0.5694"/>
		<stop  offset="0.8452" style="stop-color:#8C898D;stop-opacity:0.4191"/>
		<stop  offset="0.8521" style="stop-color:#AEACAF;stop-opacity:0.267"/>
		<stop  offset="0.859" style="stop-color:#D9D7D9;stop-opacity:0.1157"/>
		<stop  offset="0.8643" style="stop-color:#FFFFFF;stop-opacity:0"/>
		<stop  offset="0.9975" style="stop-color:#FFFFFF"/>
	</radialGradient>
	<path fill="url(#SVGID_9_)" d="M483,245.8c-8.8-31.5-25.6-60.4-49.4-84.2c-36.4-36.4-84.8-56.4-136.2-56.4s-99.8,20-136.2,56.4
		c-23.8,23.8-40.6,52.7-49.4,84.2l-21.5,9.8l-2.4,2c7.9-41.9,28.2-80.1,58.7-110.6c40.3-40.3,93.8-62.5,150.8-62.5
		s110.5,22.2,150.8,62.5c30.5,30.5,50.7,68.7,58.7,110.6l-2.4-2L483,245.8z M87.9,338c7.9,41.9,28.2,80.1,58.7,110.6
		c40.3,40.3,93.8,62.5,150.8,62.5s110.5-22.2,150.8-62.5c30.5-30.5,50.7-68.7,58.7-110.6l-2.4,2l-21.5,9.8
		c-8.8,31.5-25.6,60.4-49.4,84.2c-36.4,36.4-84.8,56.4-136.2,56.4s-99.8-20-136.2-56.4c-23.8-23.8-40.6-52.7-49.4-84.2L90.3,340
		L87.9,338z"/>
	<linearGradient id="SVGID_10_" gradientUnits="userSpaceOnUse" x1="481.4944" y1="75.1935" x2="470.5005" y2="64.8769">
		<stop  offset="2.396495e-02" style="stop-color:#FFFFFF"/>
		<stop  offset="0.1752" style="stop-color:#FAFAFA"/>
		<stop  offset="0.3616" style="stop-color:#ECEBEC"/>
		<stop  offset="0.5664" style="stop-color:#D4D2D5"/>
		<stop  offset="0.7832" style="stop-color:#B4B1B4"/>
		<stop  offset="1" style="stop-color:#8D8B8E"/>
	</linearGradient>
	<polygon fill="url(#SVGID_10_)" points="464.6,83.6 489.6,58.6 471.8,59.7 463.5,68 	"/>
	<linearGradient id="SVGID_11_" gradientUnits="userSpaceOnUse" x1="524.0508" y1="131.6265" x2="524.4552" y2="104.0521">
		<stop  offset="3.367103e-02" style="stop-color:#DBD9DB"/>
		<stop  offset="0.2004" style="stop-color:#D6D4D6"/>
		<stop  offset="0.4059" style="stop-color:#C7C6C8"/>
		<stop  offset="0.6318" style="stop-color:#B0AEB1"/>
		<stop  offset="0.8705" style="stop-color:#918F92"/>
		<stop  offset="1" style="stop-color:#7E7B7E"/>
	</linearGradient>
	<polygon fill="url(#SVGID_11_)" points="527.3,131.8 535.6,123.6 536.8,105.7 511.7,130.8 	"/>
	<linearGradient id="SVGID_12_" gradientUnits="userSpaceOnUse" x1="571.9213" y1="158.8193" x2="570.9505" y2="20.2221">
		<stop  offset="0" style="stop-color:#DBD9DB"/>
		<stop  offset="0.3923" style="stop-color:#D6D4D6"/>
		<stop  offset="0.8746" style="stop-color:#C7C6C8"/>
		<stop  offset="1" style="stop-color:#C3C1C4"/>
	</linearGradient>
	<polygon fill="url(#SVGID_12_)" points="565.5,29.9 565.5,147 577.3,158.8 577.3,18.1 	"/>
	<linearGradient id="SVGID_13_" gradientUnits="userSpaceOnUse" x1="436.5841" y1="23.9787" x2="577.293" y2="23.9787">
		<stop  offset="8.952520e-03" style="stop-color:#F1F0F1"/>
		<stop  offset="1" style="stop-color:#CCCBCD"/>
	</linearGradient>
	<polygon fill="url(#SVGID_13_)" points="577.3,18.1 436.6,18.1 448.4,29.9 565.5,29.9 	"/>
</g>
<g>
	<linearGradient id="SVGID_14_" gradientUnits="userSpaceOnUse" x1="431.843" y1="35.8584" x2="445.2569" y2="21.2772">
		<stop  offset="0" style="stop-color:#898689"/>
		<stop  offset="0.1359" style="stop-color:#8E8C8F"/>
		<stop  offset="0.3212" style="stop-color:#9E9C9F"/>
		<stop  offset="0.535" style="stop-color:#B8B6B9"/>
		<stop  offset="0.7683" style="stop-color:#DDDCDE"/>
		<stop  offset="0.9474" style="stop-color:#FFFFFF"/>
	</linearGradient>
	<polygon fill="url(#SVGID_14_)" points="448.4,30.5 448.4,29.9 436.6,18.1 436.6,37.5 	"/>
	<radialGradient id="SVGID_15_" cx="300.2173" cy="316.2455" r="326.894" gradientUnits="userSpaceOnUse">
		<stop  offset="0.9604" style="stop-color:#3A3739"/>
		<stop  offset="0.9749" style="stop-color:#524F51"/>
		<stop  offset="0.9804" style="stop-color:#5C595B"/>
	</radialGradient>
	<path fill="url(#SVGID_15_)" d="M535.6,123.6c8.3,11.3,15.7,23,22.2,35.2l7-11.8c-7.8-13.8-16.8-27.1-26.7-39.5l-1.4-1.7
		L535.6,123.6z"/>
	<linearGradient id="SVGID_16_" gradientUnits="userSpaceOnUse" x1="479.1062" y1="74.4153" x2="469.3226" y2="58.0625">
		<stop  offset="0.3819" style="stop-color:#FFFFFF"/>
		<stop  offset="0.4649" style="stop-color:#E5E4E5"/>
		<stop  offset="0.6446" style="stop-color:#B3B1B4"/>
		<stop  offset="0.8001" style="stop-color:#8F8D90"/>
		<stop  offset="0.9237" style="stop-color:#7A787B"/>
		<stop  offset="1" style="stop-color:#737073"/>
	</linearGradient>
	<polygon fill="url(#SVGID_16_)" points="464.6,83.6 489.6,58.6 471.8,59.7 463.5,68 	"/>
	<linearGradient id="SVGID_17_" gradientUnits="userSpaceOnUse" x1="524.107" y1="118.0787" x2="533.4907" y2="128.6151">
		<stop  offset="8.672625e-03" style="stop-color:#737073"/>
		<stop  offset="0.4005" style="stop-color:#595759"/>
		<stop  offset="0.7442" style="stop-color:#4B484A"/>
		<stop  offset="1" style="stop-color:#454245"/>
	</linearGradient>
	<polygon fill="url(#SVGID_17_)" points="527.3,131.8 535.6,123.6 536.8,105.7 511.7,130.8 	"/>
	<radialGradient id="SVGID_18_" cx="293.1349" cy="307.5263" r="323.2609" gradientUnits="userSpaceOnUse">
		<stop  offset="0.9528" style="stop-color:#3A3739"/>
		<stop  offset="0.9615" style="stop-color:#4B484A"/>
		<stop  offset="0.9724" style="stop-color:#5C595B"/>
	</radialGradient>
	<path fill="url(#SVGID_18_)" d="M489.6,58.6l-1.7-1.4c-12.5-9.9-25.8-18.9-39.5-26.7l-11.8,7c12.2,6.5,23.9,14,35.2,22.2
		L489.6,58.6z"/>
	<linearGradient id="SVGID_19_" gradientUnits="userSpaceOnUse" x1="567.5895" y1="159.4705" x2="567.1152" y2="147.1531">
		<stop  offset="0" style="stop-color:#3A3739"/>
		<stop  offset="0.7671" style="stop-color:#504D4F"/>
		<stop  offset="1" style="stop-color:#575457"/>
	</linearGradient>
	<polygon fill="url(#SVGID_19_)" points="557.8,158.8 577.3,158.8 565.5,147 564.8,147 	"/>
	<linearGradient id="SVGID_20_" gradientUnits="userSpaceOnUse" x1="565.4808" y1="88.4272" x2="577.293" y2="88.4272">
		<stop  offset="5.000000e-03" style="stop-color:#7E7B7E"/>
		<stop  offset="0.312" style="stop-color:#79777A"/>
		<stop  offset="0.6893" style="stop-color:#6C696C"/>
		<stop  offset="1" style="stop-color:#5C595B"/>
	</linearGradient>
	<polygon fill="url(#SVGID_20_)" points="565.5,29.9 565.5,147 577.3,158.8 577.3,18.1 	"/>
	<linearGradient id="SVGID_21_" gradientUnits="userSpaceOnUse" x1="506.9385" y1="16.0458" x2="506.9385" y2="25.5597">
		<stop  offset="0" style="stop-color:#CCCBCD"/>
		<stop  offset="1" style="stop-color:#FFFFFF"/>
	</linearGradient>
	<polygon fill="url(#SVGID_21_)" points="577.3,18.1 436.6,18.1 448.4,29.9 565.5,29.9 	"/>
	<linearGradient id="SVGID_22_" gradientUnits="userSpaceOnUse" x1="297.4225" y1="253.1853" x2="297.7095" y2="242.6126">
		<stop  offset="0" style="stop-color:#E7E6E7"/>
		<stop  offset="1" style="stop-color:#CFCDCF"/>
	</linearGradient>
	<polygon fill="url(#SVGID_22_)" points="506.1,253.7 88.7,253.7 91.1,251.7 113,241.9 481.8,241.9 503.7,251.7 	"/>
	<linearGradient id="SVGID_23_" gradientUnits="userSpaceOnUse" x1="297.9761" y1="355.2213" x2="297.8405" y2="344.3025">
		<stop  offset="5.000000e-03" style="stop-color:#504E50"/>
		<stop  offset="0.1038" style="stop-color:#666366"/>
		<stop  offset="0.2583" style="stop-color:#817E81"/>
		<stop  offset="0.4202" style="stop-color:#979497"/>
		<stop  offset="0.5907" style="stop-color:#A6A4A7"/>
		<stop  offset="0.7754" style="stop-color:#AFADB0"/>
		<stop  offset="1" style="stop-color:#B2B0B3"/>
	</linearGradient>
	<polygon fill="url(#SVGID_23_)" points="88.7,342 506.9,342 504.5,343.9 481.8,353.8 113,353.8 91.1,343.9 	"/>
	<radialGradient id="SVGID_24_" cx="297.4081" cy="297.8391" r="211.3781" gradientUnits="userSpaceOnUse">
		<stop  offset="0.9225" style="stop-color:#B7B5B8"/>
		<stop  offset="0.9357" style="stop-color:#C7C5C7"/>
		<stop  offset="0.9603" style="stop-color:#DFDDDF"/>
		<stop  offset="0.9825" style="stop-color:#EEEDEE"/>
		<stop  offset="1" style="stop-color:#F3F2F3"/>
	</radialGradient>
	<path fill="url(#SVGID_24_)" d="M483,245.8c-8.8-31.5-25.6-60.4-49.4-84.2c-36.4-36.4-84.8-56.4-136.2-56.4s-99.8,20-136.2,56.4
		c-23.8,23.8-40.6,52.7-49.4,84.2l-21.5,9.8l-2.4,2c7.9-41.9,28.2-80.1,58.7-110.6c40.3-40.3,93.8-62.5,150.8-62.5
		s110.5,22.2,150.8,62.5c30.5,30.5,50.7,68.7,58.7,110.6l-2.4-2L483,245.8z M87.9,338c7.9,41.9,28.2,80.1,58.7,110.6
		c40.3,40.3,93.8,62.5,150.8,62.5s110.5-22.2,150.8-62.5c30.5-30.5,50.7-68.7,58.7-110.6l-2.4,2l-21.5,9.8
		c-8.8,31.5-25.6,60.4-49.4,84.2c-36.4,36.4-84.8,56.4-136.2,56.4s-99.8-20-136.2-56.4c-23.8-23.8-40.6-52.7-49.4-84.2L90.3,340
		L87.9,338z"/>
	
		<radialGradient id="SVGID_25_" cx="285.8722" cy="281.9568" r="291.1997" fx="-4.6437" fy="301.9018" gradientTransform="matrix(0.2515 0.9679 -1.0785 0.2802 518.0702 -73.7352)" gradientUnits="userSpaceOnUse">
		<stop  offset="0.4023" style="stop-color:#E7E6E7"/>
		<stop  offset="0.5633" style="stop-color:#E5E4E5"/>
		<stop  offset="0.637" style="stop-color:#DEDCDE"/>
		<stop  offset="0.693" style="stop-color:#D2D0D2"/>
		<stop  offset="0.74" style="stop-color:#C0BFC1"/>
		<stop  offset="0.7814" style="stop-color:#ABA9AC"/>
		<stop  offset="0.8188" style="stop-color:#918E91"/>
		<stop  offset="0.8525" style="stop-color:#737073"/>
		<stop  offset="0.8837" style="stop-color:#504E50"/>
	</radialGradient>
	<path fill="url(#SVGID_25_)" d="M511.7,130.8l1.1,1.4c36.9,47.8,56.4,105.1,56.4,165.7c0,72.6-28.3,140.8-79.6,192.1
		c-51.3,51.3-119.6,79.6-192.1,79.6S156.6,541.3,105.3,490C54,438.7,25.7,370.4,25.7,297.8S54,157,105.3,105.7
		s119.6-79.6,192.1-79.6c60.6,0,117.9,19.5,165.8,56.4l1.4,1.1L463.5,68c-48-34.9-105.6-53.7-166.1-53.7
		c-75.7,0-146.9,29.5-200.5,83s-83,124.8-83,200.5s29.5,146.9,83,200.5s124.8,83,200.5,83s146.9-29.5,200.5-83s83-124.8,83-200.5
		c0-60.4-18.8-118-53.6-166L511.7,130.8z"/>
</g>
<g>
	<linearGradient id="SVGID_26_" gradientUnits="userSpaceOnUse" x1="476.6055" y1="77.2025" x2="476.5613" y2="57.4297">
		<stop  offset="2.396495e-02" style="stop-color:#E6E6E6"/>
		<stop  offset="5.433594e-02" style="stop-color:#E7E6E7"/>
		<stop  offset="0.2285" style="stop-color:#E2E1E3"/>
		<stop  offset="0.4212" style="stop-color:#D6D4D6"/>
		<stop  offset="0.6229" style="stop-color:#C1BFC2"/>
		<stop  offset="0.8293" style="stop-color:#A5A3A6"/>
		<stop  offset="1" style="stop-color:#898689"/>
	</linearGradient>
	<polygon fill="url(#SVGID_26_)" points="464.6,83.6 489.6,58.6 471.8,59.7 463.5,68 	"/>
	
		<radialGradient id="SVGID_27_" cx="329.5997" cy="375.0989" r="300.2381" fx="192.6118" fy="396.6869" gradientUnits="userSpaceOnUse">
		<stop  offset="1.876830e-02" style="stop-color:#F3F2F3"/>
		<stop  offset="0.2542" style="stop-color:#EDECED"/>
		<stop  offset="0.5682" style="stop-color:#DDDCDE"/>
		<stop  offset="0.6075" style="stop-color:#DBD9DB"/>
		<stop  offset="0.6481" style="stop-color:#D5D4D6"/>
		<stop  offset="0.7006" style="stop-color:#C6C4C7"/>
		<stop  offset="0.7597" style="stop-color:#ADABAE"/>
		<stop  offset="0.8237" style="stop-color:#8C898C"/>
		<stop  offset="0.8915" style="stop-color:#625F62"/>
		<stop  offset="0.9615" style="stop-color:#2E2B2D"/>
		<stop  offset="0.99" style="stop-color:#000000"/>
	</radialGradient>
	<path fill="url(#SVGID_27_)" d="M483,245.8c-8.8-31.5-25.6-60.4-49.4-84.2c-36.4-36.4-84.8-56.4-136.2-56.4s-99.8,20-136.2,56.4
		c-23.8,23.8-40.6,52.7-49.4,84.2l-21.5,9.8l-2.4,2c7.9-41.9,28.2-80.1,58.7-110.6c40.3-40.3,93.8-62.5,150.8-62.5
		s110.5,22.2,150.8,62.5c30.5,30.5,50.7,68.7,58.7,110.6l-2.4-2L483,245.8z M87.9,338c7.9,41.9,28.2,80.1,58.7,110.6
		c40.3,40.3,93.8,62.5,150.8,62.5s110.5-22.2,150.8-62.5c30.5-30.5,50.7-68.7,58.7-110.6l-2.4,2l-21.5,9.8
		c-8.8,31.5-25.6,60.4-49.4,84.2c-36.4,36.4-84.8,56.4-136.2,56.4s-99.8-20-136.2-56.4c-23.8-23.8-40.6-52.7-49.4-84.2L90.3,340
		L87.9,338z"/>
</g>
<radialGradient id="SVGID_28_" cx="297.4079" cy="282.84" r="221.9172" fx="81.2452" fy="283.1191" gradientTransform="matrix(2.630787e-03 1 -1.1409 3.001521e-03 619.3226 -15.4158)" gradientUnits="userSpaceOnUse">
	<stop  offset="0.8299" style="stop-color:#FFFFFF"/>
	<stop  offset="0.8318" style="stop-color:#E3E2E3"/>
	<stop  offset="0.8348" style="stop-color:#BFBDC0"/>
	<stop  offset="0.8381" style="stop-color:#A19FA2"/>
	<stop  offset="0.8417" style="stop-color:#878588"/>
	<stop  offset="0.8457" style="stop-color:#737174"/>
	<stop  offset="0.8504" style="stop-color:#646164"/>
	<stop  offset="0.856" style="stop-color:#585658"/>
	<stop  offset="0.8636" style="stop-color:#524F52"/>
	<stop  offset="0.8817" style="stop-color:#504E50"/>
	<stop  offset="0.8901" style="stop-color:#535052;stop-opacity:0.7777"/>
	<stop  offset="0.8958" style="stop-color:#5B585A;stop-opacity:0.6288"/>
	<stop  offset="0.9006" style="stop-color:#686668;stop-opacity:0.5015"/>
	<stop  offset="0.9049" style="stop-color:#7B797C;stop-opacity:0.3863"/>
	<stop  offset="0.909" style="stop-color:#949194;stop-opacity:0.2792"/>
	<stop  offset="0.9128" style="stop-color:#B2B0B3;stop-opacity:0.1781"/>
	<stop  offset="0.9164" style="stop-color:#D7D6D8;stop-opacity:8.363950e-02"/>
	<stop  offset="0.9195" style="stop-color:#FFFFFF;stop-opacity:0"/>
	<stop  offset="0.9975" style="stop-color:#FFFFFF"/>
</radialGradient>
<path fill="url(#SVGID_28_)" d="M297.4,490.5c-51.5,0-99.8-20-136.2-56.4c-36.4-36.4-56.4-84.8-56.4-136.2
	c0-51.5,20-99.8,56.4-136.2s84.8-56.4,136.2-56.4s99.8,20,136.2,56.4S490,246.4,490,297.8c0,51.5-20,99.8-56.4,136.2
	C397.2,470.4,348.9,490.5,297.4,490.5z M448.2,448.6c40.3-40.3,62.5-93.8,62.5-150.8c0-57-22.2-110.5-62.5-150.8
	c-40.3-40.3-93.8-62.5-150.8-62.5S186.9,106.8,146.6,147c-40.3,40.3-62.5,93.8-62.5,150.8c0,57,22.2,110.5,62.5,150.8
	c40.3,40.3,93.8,62.5,150.8,62.5S407.9,488.9,448.2,448.6z"/>
<linearGradient id="SVGID_29_" gradientUnits="userSpaceOnUse" x1="226.2776" y1="20.8791" x2="535.1662" y2="245.3567">
	<stop  offset="3.089844e-02" style="stop-color:#FFFFFF;stop-opacity:0"/>
	<stop  offset="0.4121" style="stop-color:#FFFFFF;stop-opacity:0"/>
	<stop  offset="0.5359" style="stop-color:#FBFAFB;stop-opacity:0.2347"/>
	<stop  offset="0.6769" style="stop-color:#EEEDEE;stop-opacity:0.5018"/>
	<stop  offset="0.8256" style="stop-color:#D8D6D9;stop-opacity:0.7837"/>
	<stop  offset="0.9398" style="stop-color:#C3C1C4"/>
	<stop  offset="0.969" style="stop-color:#C4C3C5;stop-opacity:0.5145"/>
	<stop  offset="0.9798" style="stop-color:#CBC9CC;stop-opacity:0.3354"/>
	<stop  offset="0.9875" style="stop-color:#D6D5D7;stop-opacity:0.2069"/>
	<stop  offset="0.9938" style="stop-color:#E6E5E6;stop-opacity:0.1034"/>
	<stop  offset="0.9991" style="stop-color:#FBFBFB;stop-opacity:1.477301e-02"/>
	<stop  offset="1" style="stop-color:#FFFFFF;stop-opacity:0"/>
</linearGradient>
<path fill="url(#SVGID_29_)" d="M297.4,84.6c57,0,110.5,22.2,150.8,62.5c30.5,30.5,50.7,68.7,58.7,110.6l-2.4-2l-21.5-9.8
	c-8.8-31.5-25.6-60.4-49.4-84.2c-36.4-36.4-84.8-56.4-136.2-56.4L297.4,84.6z"/>
<linearGradient id="SVGID_30_" gradientUnits="userSpaceOnUse" x1="394.493" y1="81.438" x2="407.4491" y2="250.6053">
	<stop  offset="0.3113" style="stop-color:#FFFFFF;stop-opacity:0"/>
	<stop  offset="0.6504" style="stop-color:#FDFDFD;stop-opacity:0.4923"/>
	<stop  offset="0.7725" style="stop-color:#F7F6F7;stop-opacity:0.6696"/>
	<stop  offset="0.8595" style="stop-color:#ECEBEC;stop-opacity:0.796"/>
	<stop  offset="0.9297" style="stop-color:#DBDADC;stop-opacity:0.898"/>
	<stop  offset="0.9893" style="stop-color:#C7C5C8;stop-opacity:0.9845"/>
	<stop  offset="1" style="stop-color:#C3C1C4"/>
</linearGradient>
<path fill="url(#SVGID_30_)" d="M297.4,84.6c57,0,110.5,22.2,150.8,62.5c30.5,30.5,50.7,68.7,58.7,110.6l-2.4-2l-21.5-9.8
	c-8.8-31.5-25.6-60.4-49.4-84.2c-36.4-36.4-84.8-56.4-136.2-56.4L297.4,84.6z"/>
<linearGradient id="SVGID_31_" gradientUnits="userSpaceOnUse" x1="373.5147" y1="474.4356" x2="250.4711" y2="268.3351" gradientTransform="matrix(1 0 0 1 2.6837 -1.175)">
	<stop  offset="0" style="stop-color:#C3C1C4"/>
	<stop  offset="0.3326" style="stop-color:#C0BEC1"/>
	<stop  offset="0.5792" style="stop-color:#B7B5B8"/>
	<stop  offset="0.7974" style="stop-color:#A9A6AA"/>
	<stop  offset="0.9991" style="stop-color:#949295"/>
	<stop  offset="1" style="stop-color:#949295"/>
</linearGradient>
<path fill="url(#SVGID_31_)" d="M506.9,342H88.7l2.4,2l21.9,9.8h368.8l22.7-9.8L506.9,342z"/>
<linearGradient id="SVGID_32_" gradientUnits="userSpaceOnUse" x1="346.8916" y1="345.2481" x2="242.302" y2="164.0936" gradientTransform="matrix(1 0 0 1 2.6837 -1.175)">
	<stop  offset="0" style="stop-color:#DBD9DB"/>
	<stop  offset="0.305" style="stop-color:#D8D6D8"/>
	<stop  offset="0.5312" style="stop-color:#CFCDD0"/>
	<stop  offset="0.732" style="stop-color:#C0BEC1"/>
	<stop  offset="0.9169" style="stop-color:#ABA9AC"/>
	<stop  offset="1" style="stop-color:#A09EA1"/>
</linearGradient>
<path fill="url(#SVGID_32_)" d="M481.8,241.9H113l-21.8,9.8l-2.4,2h417.3l-2.4-2L481.8,241.9z"/>
<linearGradient id="SVGID_33_" gradientUnits="userSpaceOnUse" x1="295.1277" y1="354.948" x2="295.1277" y2="343.1359" gradientTransform="matrix(1 0 0 1 2.6837 -1.175)">
	<stop  offset="0" style="stop-color:#E7E6E7"/>
	<stop  offset="1" style="stop-color:#CFCDCF"/>
</linearGradient>
<path fill="url(#SVGID_33_)" d="M506.9,342H88.7l2.4,2l21.9,9.8h368.8l22.7-9.8L506.9,342z"/>
<linearGradient id="SVGID_34_" gradientUnits="userSpaceOnUse" x1="89.4504" y1="347.8669" x2="504.8986" y2="347.8669">
	<stop  offset="8.710938e-03" style="stop-color:#A09EA1"/>
	<stop  offset="9.688088e-02" style="stop-color:#D6D5D7"/>
	<stop  offset="0.1673" style="stop-color:#FFFFFF"/>
	<stop  offset="0.8338" style="stop-color:#FFFFFF"/>
	<stop  offset="0.9355" style="stop-color:#C5C3C6"/>
	<stop  offset="1" style="stop-color:#A09EA1"/>
</linearGradient>
<path fill="url(#SVGID_34_)" d="M506.9,342H88.7l2.4,2l21.9,9.8h368.8l22.7-9.8L506.9,342z"/>
<linearGradient id="SVGID_35_" gradientUnits="userSpaceOnUse" x1="294.7244" y1="254.8919" x2="294.7244" y2="243.0798" gradientTransform="matrix(1 0 0 1 2.6837 -1.175)">
	<stop  offset="0" style="stop-color:#E7E6E7"/>
	<stop  offset="1" style="stop-color:#CFCDCF"/>
</linearGradient>
<path fill="url(#SVGID_35_)" d="M481.8,241.9H113l-21.8,9.8l-2.4,2h417.3l-2.4-2L481.8,241.9z"/>
<g>
	<linearGradient id="SVGID_36_" gradientUnits="userSpaceOnUse" x1="452.9441" y1="30.5234" x2="443.8484" y2="29.4877">
		<stop  offset="0" style="stop-color:#F3F2F3"/>
		<stop  offset="0.2413" style="stop-color:#F0EFF0"/>
		<stop  offset="0.4448" style="stop-color:#E6E5E6"/>
		<stop  offset="0.6346" style="stop-color:#D5D4D6"/>
		<stop  offset="0.816" style="stop-color:#BEBCBF"/>
		<stop  offset="0.9901" style="stop-color:#A29FA3"/>
		<stop  offset="1" style="stop-color:#A09EA1"/>
	</linearGradient>
	<polygon fill="url(#SVGID_36_)" points="446.4,31.6 446.4,27.9 454.7,31.9 	"/>
	<linearGradient id="SVGID_37_" gradientUnits="userSpaceOnUse" x1="564.6876" y1="140.635" x2="565.8439" y2="151.6616">
		<stop  offset="0" style="stop-color:#ABA9AC"/>
		<stop  offset="1" style="stop-color:#676467"/>
	</linearGradient>
	<polygon fill="url(#SVGID_37_)" points="567.4,148.9 563.7,148.9 563.5,140.8 	"/>
	<radialGradient id="SVGID_38_" cx="291.0084" cy="303.1697" r="321.9811" gradientUnits="userSpaceOnUse">
		<stop  offset="0.7746" style="stop-color:#7E7B7E"/>
		<stop  offset="0.9492" style="stop-color:#B4B2B5"/>
		<stop  offset="0.9908" style="stop-color:#C3C1C4"/>
	</radialGradient>
	<path fill="url(#SVGID_38_)" d="M492.6,58.4c-12-9.8-24.7-18.7-37.9-26.5l-8.2-0.2c14,7.9,27.5,16.9,40.3,27.1L492.6,58.4z"/>
	<radialGradient id="SVGID_39_" cx="300.8201" cy="297.5158" r="322.9019" gradientUnits="userSpaceOnUse">
		<stop  offset="0.9587" style="stop-color:#7C797C"/>
		<stop  offset="0.9706" style="stop-color:#676467"/>
		<stop  offset="0.9726" style="stop-color:#726F72"/>
		<stop  offset="0.9862" style="stop-color:#B7B5B8"/>
	</radialGradient>
	<path fill="url(#SVGID_39_)" d="M536.6,108.7c10.1,12.8,19.2,26.2,27.1,40.3l-0.2-8.1c-7.8-13.2-16.7-25.9-26.6-38L536.6,108.7z"/>
	<linearGradient id="SVGID_40_" gradientUnits="userSpaceOnUse" x1="482.1445" y1="81.7122" x2="472.8344" y2="56.5982">
		<stop  offset="0" style="stop-color:#FFFFFF"/>
		<stop  offset="0.3556" style="stop-color:#CCCACD"/>
		<stop  offset="0.7404" style="stop-color:#9C999C"/>
		<stop  offset="0.9284" style="stop-color:#898689"/>
	</linearGradient>
	<polygon fill="url(#SVGID_40_)" points="464.7,86.2 492.6,58.4 486.7,58.7 464.4,81 	"/>
	<linearGradient id="SVGID_41_" gradientUnits="userSpaceOnUse" x1="522.7274" y1="116.4084" x2="527.7776" y2="121.2751">
		<stop  offset="3.341079e-02" style="stop-color:#737073"/>
		<stop  offset="0.9906" style="stop-color:#504E50"/>
	</linearGradient>
	<polygon fill="url(#SVGID_41_)" points="514.3,130.9 536.6,108.7 536.9,102.8 509.1,130.6 	"/>
	
		<radialGradient id="SVGID_42_" cx="297.4081" cy="297.8388" r="335.1491" fx="198.5876" fy="-19.2576" gradientTransform="matrix(1 -3.887773e-03 3.542528e-03 0.9112 -1.0529 27.6072)" gradientUnits="userSpaceOnUse">
		<stop  offset="0.5128" style="stop-color:#FFFFFF"/>
		<stop  offset="0.5871" style="stop-color:#FCFCFC"/>
		<stop  offset="0.6462" style="stop-color:#F3F2F3"/>
		<stop  offset="0.7" style="stop-color:#E2E1E3"/>
		<stop  offset="0.7507" style="stop-color:#CCCBCD"/>
		<stop  offset="0.7992" style="stop-color:#B0AEB1"/>
		<stop  offset="0.8461" style="stop-color:#8E8C8F"/>
		<stop  offset="0.8908" style="stop-color:#686568"/>
		<stop  offset="0.925" style="stop-color:#454245"/>
	</radialGradient>
	<path fill="url(#SVGID_42_)" d="M509.1,130.6c37.6,47.4,58.1,105.8,58.1,167.2c0,72.1-28.1,139.8-79,190.7s-118.7,79-190.7,79
		s-139.8-28.1-190.7-79s-79-118.7-79-190.7s28.1-139.8,79-190.7s118.7-79,190.7-79c61.5,0,119.9,20.4,167.3,58.1l-0.3-5.2
		c-46.2-35.6-104.1-56.8-167-56.8c-151.2,0-273.7,122.5-273.7,273.7s122.5,273.7,273.7,273.7S571.1,449,571.1,297.8
		c0-62.8-21.2-120.7-56.8-166.9L509.1,130.6z"/>
	<linearGradient id="SVGID_43_" gradientUnits="userSpaceOnUse" x1="563.5135" y1="88.4272" x2="564.9938" y2="88.4272">
		<stop  offset="0" style="stop-color:#B7B5B8"/>
		<stop  offset="0.533" style="stop-color:#A8A6A9"/>
		<stop  offset="1" style="stop-color:#A09EA1"/>
	</linearGradient>
	<polygon fill="url(#SVGID_43_)" points="563.5,31.9 563.5,140.8 567.4,148.9 567.4,27.9 	"/>
	<linearGradient id="SVGID_44_" gradientUnits="userSpaceOnUse" x1="506.9386" y1="26.9981" x2="506.9386" y2="31.726">
		<stop  offset="0.2017" style="stop-color:#E2E1E2"/>
		<stop  offset="0.3976" style="stop-color:#ECEBEC"/>
		<stop  offset="0.6403" style="stop-color:#FFFFFF"/>
	</linearGradient>
	<polygon fill="url(#SVGID_44_)" points="567.4,27.9 446.4,27.9 454.7,31.9 563.5,31.9 	"/>
	
		<radialGradient id="SVGID_45_" cx="378.4039" cy="530.3272" r="483.6676" fx="-94.739" fy="530.2183" gradientUnits="userSpaceOnUse">
		<stop  offset="0.4469" style="stop-color:#FFFFFF"/>
		<stop  offset="0.5665" style="stop-color:#FDFCFD"/>
		<stop  offset="0.6433" style="stop-color:#F4F4F4"/>
		<stop  offset="0.7081" style="stop-color:#E6E5E6"/>
		<stop  offset="0.7662" style="stop-color:#D2D1D3"/>
		<stop  offset="0.8199" style="stop-color:#B9B7BA"/>
		<stop  offset="0.8703" style="stop-color:#9B989C"/>
		<stop  offset="0.9181" style="stop-color:#787578"/>
		<stop  offset="0.9627" style="stop-color:#504D4F"/>
		<stop  offset="0.9846" style="stop-color:#3A3739"/>
	</radialGradient>
	<path fill="url(#SVGID_45_)" d="M297.4,509.1c-56.4,0-109.5-22-149.4-61.9c-39.9-39.9-61.9-93-61.9-149.4
		c0-56.4,22-109.5,61.9-149.4s93-61.9,149.4-61.9s109.5,22,149.4,61.9s61.9,93,61.9,149.4c0,56.4-22,109.5-61.9,149.4
		C406.9,487.1,353.8,509.1,297.4,509.1z M449.6,450c40.6-40.6,63-94.7,63-152.2c0-57.5-22.4-111.5-63-152.2s-94.7-63-152.2-63
		s-111.5,22.4-152.2,63s-63,94.7-63,152.2c0,57.5,22.4,111.5,63,152.2c40.6,40.6,94.7,63,152.2,63S408.9,490.7,449.6,450z"/>
</g>
<g>
	<path fill="#1E3480" d="M503.7,251.7H91.1c-3.3,14.9-5,30.4-5,46.1c0,15.7,1.7,31.1,5,46.1l412.6,0c3.3-14.9,5-30.4,5-46.1
		C508.7,282.2,507,266.7,503.7,251.7z"/>
</g>
<path fill="#FFFFFF" d="M280.6,314.9h-11.5v7.6l68.3,0v-22.8H330c0,8.7-6.4,15.2-16.1,15.2h-10.5v-34h11.3v-7.5l-45.5,0l0,7.5h11.5
	L280.6,314.9z M359.2,322.5l26.6,0l22.6-41.7l11.3,0v-7.6h-34v7.6h9.8L379,311.2l-16.6-30.4l11.9,0l0-7.6h-49.3l0,7.6h11.3
	L359.2,322.5z M415,298c0,14.5,11.7,26.1,35.1,26.1c23.4,0,35-11.6,35-26.1c0-14.3-12.3-25.7-35.1-25.7
	C427.2,272.2,415,283.6,415,298z M143.4,280.8l11.9,0l0-7.6H106l0,7.6h11.3l23,41.7l26.6,0l22.6-41.7l11.3,0v-7.6h-34v7.6h9.8
	l-16.4,30.4L143.4,280.8z M196.2,298c0,14.5,11.7,26.1,35.1,26.1s35-11.6,35-26.1c0-14.3-12.3-25.7-35.1-25.7
	C208.3,272.2,196.2,283.6,196.2,298z M219.1,297.6c0.2-9.5,4.7-17.8,12.5-17.6c7.8,0.1,11.9,8.6,11.8,18.1
	c-0.2,8.9-3.9,18.3-12.4,18.1C222.6,316,218.9,306.8,219.1,297.6z M437.9,297.6c0.2-9.5,4.7-17.8,12.5-17.6
	c7.8,0.1,11.9,8.6,11.8,18.1c-0.2,8.9-3.9,18.3-12.4,18.1C441.4,316,437.7,306.8,437.9,297.6z"/>
<g>
</g>
<g>
</g>
<g>
</g>
<g>
</g>
<g>
</g>
<g>
</g>
</svg>
