<?xml version="1.0" encoding="utf-8"?>
<!-- Generator: Adobe Illustrator 17.1.0, SVG Export Plug-In . SVG Version: 6.00 Build 0)  -->
<!DOCTYPE svg PUBLIC "-//W3C//DTD SVG 1.1//EN" "http://www.w3.org/Graphics/SVG/1.1/DTD/svg11.dtd">
<svg version="1.1" id="Layer_1" xmlns="http://www.w3.org/2000/svg" xmlns:xlink="http://www.w3.org/1999/xlink" x="0px" y="0px"
	 viewBox="0 0 519.4 54.9" enable-background="new 0 0 519.4 54.9" xml:space="preserve">
<g>
	<path fill="#FBBA00" d="M82.6,36.2c0,0.2-0.1,0.3-0.3,0.4c-1.5,0.3-3.1,0.6-4.8,0.6c-6.2,0-10.6-2.7-10.6-10.6
		c0-7.5,4.8-10,10.5-10c1.4,0,3.3,0.2,4.9,0.4c0.1,0,0.2,0.1,0.2,0.3v0.1l-0.2,1.6c-0.1,0.2-0.2,0.3-0.4,0.3
		c-1.4-0.1-2.9-0.2-4.3-0.2c-4.2,0-7.4,1.5-7.4,7.5c0,6.1,2.8,7.8,7.5,7.8c1.6,0,2.8-0.1,4.7-0.3c0.2,0,0.3,0.1,0.3,0.3V36.2z"/>
	<path fill="#FBBA00" d="M100.4,36.6c0,0.2-0.1,0.3-0.3,0.3h-2.6c-0.2,0-0.3-0.1-0.3-0.3v-9.8c0-3.2-1.8-4.5-4.6-4.5
		c-1.8,0-2.6,0.1-3.7,0.2c-0.2,0-0.3,0.1-0.3,0.3v13.8c0,0.2-0.1,0.3-0.3,0.3h-2.6c-0.2,0-0.3-0.1-0.3-0.3V14.4
		c0-0.2,0.1-0.3,0.3-0.3l2.6-0.3c0.2,0,0.3,0.1,0.3,0.3v5.8c0,0.2,0.1,0.2,0.4,0.2c0.8-0.1,2.8-0.3,4.2-0.3c5,0,7.3,2,7.3,7.2V36.6z
		"/>
	<path fill="#FBBA00" d="M117.9,36.1c0,0.2-0.1,0.4-0.4,0.4c-2.3,0.2-5.6,0.6-7.2,0.6c-3.3,0-7.2-1.1-7.2-6.1c0-4.8,4.6-5.2,7.1-5.2
		c1.2,0,3.7,0.2,4.5,0.4c0-3.4-2-4-5-4c-1.6,0-3,0.1-4.1,0.2h-0.1c-0.2,0-0.3-0.1-0.3-0.2l-0.3-1.8v0c0-0.1,0.1-0.2,0.3-0.2
		c1.5-0.2,3.7-0.4,5-0.4c4.6,0,7.7,1.4,7.7,6V36.1z M114.8,28.6c0-0.2-0.1-0.3-0.3-0.3h-4c-2,0-4.1,0.3-4.1,2.8c0,2.9,2.1,3.3,4,3.3
		h4.2c0.3,0,0.3-0.1,0.3-0.3V28.6z"/>
	<path fill="#FBBA00" d="M124.8,36.9h-2.6c-0.2,0-0.3-0.1-0.3-0.3V14.3c0-0.2,0.1-0.3,0.3-0.3l2.6-0.3c0.2,0,0.3,0.1,0.3,0.3v22.5
		C125.1,36.8,125,36.9,124.8,36.9"/>
	<path fill="#FBBA00" d="M151.6,36.5c0,0.2-0.1,0.3-0.3,0.3h-2.6c-0.2,0-0.3-0.1-0.3-0.3l0-10.4c0-3.1-1.6-4-3.5-4h-1.4
		c-0.8,0-1.6,0-1.9,0.1c-0.2,0.1-0.3,0.1-0.3,0.2v0.1c0.4,1.9,0.5,3.7,0.5,5.4v8.6c0,0.2-0.1,0.3-0.3,0.3h-2.5
		c-0.3,0-0.3-0.1-0.3-0.3V26.2c0-3.2-1.5-4-3.6-4l-2.6,0.1c-0.2,0-0.3,0-0.3,0.3v14.1c0,0.2-0.1,0.3-0.3,0.3h-2.6
		c-0.2,0-0.3-0.1-0.3-0.3V20.8c0-0.3,0-0.4,0.3-0.4c1.2-0.2,3.8-0.6,5.6-0.6h0.5c0.9,0,1.9,0,3.8,0.6h0.4c1-0.2,2.6-0.6,5.1-0.6
		c4.3,0,6.7,2,6.7,6.9V36.5z"/>
	<path fill="#FBBA00" d="M170.6,29.7h-12.4c-0.2,0-0.3,0-0.3,0.3c0.1,3.7,2.6,4.6,6.3,4.6c1.4,0,2.9-0.1,4.5-0.2
		c0.1,0,0.3,0,0.3,0.2v0.1l-0.3,1.8c-0.1,0.2-0.2,0.2-0.4,0.3c-1.5,0.2-3.2,0.4-5.1,0.4c-5.1,0-8.5-2.1-8.5-8.7
		c0-6.4,3.7-8.6,8.1-8.6c5.4,0,8,3,8,9.6C170.9,29.6,170.8,29.7,170.6,29.7 M162.7,22.1c-2.9,0-4.8,1.6-4.8,4.9
		c0,0.2,0.1,0.3,0.3,0.3h9.2c0.2,0,0.3,0,0.3-0.3C167.6,23.8,165.6,22.1,162.7,22.1"/>
	<path fill="#FBBA00" d="M180.9,22.2c-1.3,0-2.3,0.1-3.6,0.2c-0.2,0-0.3,0.1-0.3,0.3v13.8c0,0.2-0.1,0.3-0.3,0.3h-2.6
		c-0.1,0-0.3-0.1-0.3-0.3V20.8c0-0.2,0.1-0.3,0.3-0.4c2-0.3,4.3-0.6,6.7-0.7c0.2,0,0.3,0.1,0.3,0.3v2
		C181.2,22.1,181.1,22.2,180.9,22.2"/>
	<path fill="#FBBA00" d="M188.6,37.1c-1.4,0-3.1-0.1-4.8-0.4c-0.2-0.1-0.3-0.1-0.3-0.3v-1.8c0-0.1,0.1-0.2,0.2-0.2h0.1
		c0.8,0,2.7,0.2,4.3,0.2c2.1,0,4.6-0.1,4.6-2.4c0-4-9.4-2.2-9.4-7.9c0-3.5,3.7-4.3,6.9-4.3c1.4,0,3.2,0.2,4.5,0.4
		c0.2,0.1,0.3,0.2,0.3,0.3l-0.3,1.7c0,0.1-0.1,0.2-0.3,0.2h-0.1c-1-0.1-2.5-0.3-4.2-0.3c-1.8,0-3.7,0.1-3.7,1.9
		c0,3.2,9.4,1.8,9.4,7.6C195.8,35.5,192.9,37.1,188.6,37.1"/>
	<path fill="#FBBA00" d="M223.1,18.7c0,0.2-0.1,0.3-0.3,0.3h-6.2v17.5c0,0.2-0.1,0.4-0.3,0.4h-2.2c-0.2,0-0.3-0.1-0.3-0.4V19h-6
		c-0.2,0-0.3-0.1-0.3-0.3v-1.7c0-0.2,0.1-0.3,0.3-0.3h15.3c0.1,0,0.3,0.1,0.3,0.2v0.1L223.1,18.7z"/>
	<path fill="#FBBA00" d="M238.1,29.7h-12.4c-0.2,0-0.3,0-0.3,0.3c0.1,3.7,2.6,4.6,6.3,4.6c1.4,0,2.9-0.1,4.5-0.2
		c0.1,0,0.3,0,0.3,0.2v0.1l-0.3,1.8c-0.1,0.2-0.1,0.2-0.4,0.3c-1.5,0.2-3.2,0.4-5.1,0.4c-5.1,0-8.5-2.1-8.5-8.7
		c0-6.4,3.7-8.6,8.1-8.6c5.4,0,8,3,8,9.6C238.4,29.6,238.3,29.7,238.1,29.7 M230.2,22.1c-2.9,0-4.8,1.6-4.8,4.9
		c0,0.2,0.1,0.3,0.3,0.3h9.2c0.2,0,0.3,0,0.3-0.3C235.1,23.8,233.1,22.1,230.2,22.1"/>
	<path fill="#FBBA00" d="M256.1,36.5c0.1,0.1,0.1,0.1,0.1,0.2c0,0.1-0.1,0.1-0.2,0.1h-3.3c-0.2,0-0.3-0.1-0.4-0.2l-6.8-8
		c-0.1-0.1-0.2-0.2-0.4-0.2H245c-0.2,0-0.3,0.1-0.3,0.3v7.8c0,0.2-0.1,0.4-0.3,0.4h-2.5c-0.2,0-0.3-0.2-0.3-0.4V14.4
		c0-0.2,0.1-0.3,0.3-0.3l2.5-0.3c0.1,0,0.3,0.1,0.3,0.3v11.9c0,0.3,0.1,0.4,0.3,0.4h0.2c0.1,0,0.2-0.1,0.4-0.3l6-5.9
		c0.1-0.1,0.2-0.2,0.4-0.2h2.8c0.1,0,0.2,0.1,0.2,0.2c0,0.1,0,0.1-0.1,0.1l-6.9,6.9L256.1,36.5L256.1,36.5z"/>
	<path fill="#FBBA00" d="M273.1,36.9h-2.6c-0.2,0-0.3-0.1-0.3-0.3V26.4c0-3.3-1.6-4.2-4.8-4.2c-1,0-2.5,0.1-3.4,0.2
		c-0.2,0-0.3,0.1-0.3,0.3v13.8c0,0.2-0.1,0.3-0.3,0.3h-2.6c-0.2,0-0.3-0.1-0.3-0.3V20.8c0-0.2,0.1-0.3,0.3-0.4
		c2.4-0.4,5.1-0.7,6.7-0.7c4.9,0,7.8,1.4,7.8,6.4v10.3C273.4,36.8,273.3,36.9,273.1,36.9"/>
	<path fill="#FBBA00" d="M284.8,37.1c-4.4,0-8.5-2.8-8.5-8.6c0-6.1,3.7-8.9,8.5-8.9c4.9,0,8.6,2.7,8.6,8.9
		C293.4,34.3,289.4,37.1,284.8,37.1 M284.8,22c-2.9,0-5.3,1.6-5.3,6.5c0,4.3,2.2,6.1,5.4,6.1c3.2,0,5.4-1.9,5.4-6.1
		C290.3,23.6,287.8,22,284.8,22"/>
	<path fill="#FBBA00" d="M299.4,36.9h-2.6c-0.2,0-0.3-0.1-0.3-0.3V14.3c0-0.2,0.1-0.3,0.3-0.3l2.6-0.3c0.2,0,0.3,0.1,0.3,0.3v22.5
		C299.7,36.8,299.6,36.9,299.4,36.9"/>
	<path fill="#FBBA00" d="M311.3,37.1c-4.4,0-8.5-2.8-8.5-8.6c0-6.1,3.7-8.9,8.5-8.9c4.9,0,8.6,2.7,8.6,8.9
		C319.9,34.3,315.9,37.1,311.3,37.1 M311.3,22c-2.9,0-5.3,1.6-5.3,6.5c0,4.3,2.2,6.1,5.4,6.1c3.2,0,5.4-1.9,5.4-6.1
		C316.8,23.6,314.3,22,311.3,22"/>
	<path fill="#FBBA00" d="M337.4,32.4c0,4.5-1,7.5-3.5,10c-0.2,0.1-0.3,0.2-0.5,0.2h-2.6c-0.2,0-0.3-0.1-0.3-0.2c0-0.1,0-0.1,0.1-0.2
		c0.7-0.7,3-3.4,3.2-5.1c0-0.2-0.1-0.3-0.2-0.3h-0.1c-0.9,0.1-2.1,0.3-3.1,0.3c-4.4,0-8.3-2.5-8.3-9c0-6.4,4.2-8.3,8.8-8.3
		c1.9,0,4.1,0.3,6.2,0.7c0.2,0.1,0.3,0.1,0.3,0.4V32.4z M334.2,22.8c0-0.2,0-0.3-0.2-0.3c-0.8-0.1-2-0.2-3.2-0.2
		c-3.4,0-5.5,1.5-5.5,5.8c0,4.4,2.1,6.5,5.4,6.5c0.8,0,2.3-0.1,3.2-0.2c0.2,0,0.3-0.1,0.3-0.3V22.8z"/>
	<path fill="#FBBA00" d="M356.1,36.5c0.1,0.1,0.1,0.1,0.1,0.2c0,0.1-0.1,0.1-0.2,0.1h-3.3c-0.2,0-0.3-0.1-0.4-0.2l-6.8-8
		c-0.1-0.1-0.2-0.2-0.4-0.2h-0.2c-0.2,0-0.3,0.1-0.3,0.3v7.8c0,0.2-0.1,0.4-0.3,0.4h-2.5c-0.2,0-0.3-0.2-0.3-0.4V14.4
		c0-0.2,0.1-0.3,0.3-0.3l2.5-0.3c0.1,0,0.3,0.1,0.3,0.3v11.9c0,0.3,0.1,0.4,0.3,0.4h0.2c0.1,0,0.2-0.1,0.4-0.3l6-5.9
		c0.1-0.1,0.2-0.2,0.4-0.2h2.8c0.1,0,0.2,0.1,0.2,0.2c0,0.1,0,0.1-0.1,0.1l-6.9,6.9L356.1,36.5L356.1,36.5z"/>
	<path fill="#FBBA00" d="M364.8,37.1c-4.4,0-8.5-2.8-8.5-8.6c0-6.1,3.7-8.9,8.5-8.9c4.9,0,8.6,2.7,8.6,8.9
		C373.4,34.3,369.4,37.1,364.8,37.1 M364.8,22c-2.9,0-5.3,1.6-5.3,6.5c0,4.3,2.2,6.1,5.4,6.1c3.2,0,5.4-1.9,5.4-6.1
		C370.3,23.6,367.8,22,364.8,22"/>
	<path fill="#FBBA00" d="M391.1,36.9h-2.6c-0.2,0-0.3-0.1-0.3-0.3V26.4c0-3.3-1.6-4.2-4.8-4.2c-1,0-2.5,0.1-3.4,0.2
		c-0.2,0-0.3,0.1-0.3,0.3v13.8c0,0.2-0.1,0.3-0.3,0.3h-2.6c-0.2,0-0.3-0.1-0.3-0.3V20.8c0-0.2,0.1-0.3,0.3-0.4
		c2.4-0.4,5.1-0.7,6.7-0.7c4.9,0,7.8,1.4,7.8,6.4v10.3C391.3,36.8,391.3,36.9,391.1,36.9"/>
	<path fill="#FBBA00" d="M399.5,37.1c-1.4,0-3.1-0.1-4.8-0.4c-0.2-0.1-0.3-0.1-0.3-0.3v-1.8c0-0.1,0.1-0.2,0.2-0.2h0.1
		c0.8,0,2.7,0.2,4.3,0.2c2.1,0,4.6-0.1,4.6-2.4c0-4-9.4-2.2-9.4-7.9c0-3.5,3.7-4.3,6.9-4.3c1.4,0,3.2,0.2,4.5,0.4
		c0.2,0.1,0.3,0.2,0.3,0.3l-0.3,1.7c0,0.1-0.1,0.2-0.3,0.2h-0.1c-1-0.1-2.5-0.3-4.2-0.3c-1.8,0-3.7,0.1-3.7,1.9
		c0,3.2,9.4,1.8,9.4,7.6C406.7,35.5,403.8,37.1,399.5,37.1"/>
	<path fill="#FBBA00" d="M423.6,36.3c-1.8,0.3-4.4,0.7-6.4,0.7c-5,0-7.7-1.7-7.7-6.8V20.2c0-0.2,0.1-0.3,0.3-0.3h2.5
		c0.2,0,0.3,0.1,0.3,0.3v10.2c0,2.9,1.4,4.1,4.4,4.1c1.1,0,2.4-0.1,3.4-0.2c0.2,0,0.3-0.1,0.3-0.3V20.2c0-0.2,0.1-0.3,0.3-0.3h2.5
		c0.2,0,0.3,0.1,0.3,0.3v15.8C423.9,36.1,423.8,36.3,423.6,36.3"/>
	<path fill="#FBBA00" d="M430.9,36.9h-2.6c-0.2,0-0.3-0.1-0.3-0.3V14.3c0-0.2,0.1-0.3,0.3-0.3l2.6-0.3c0.2,0,0.3,0.1,0.3,0.3v22.5
		C431.1,36.8,431.1,36.9,430.9,36.9"/>
	<path fill="#FBBA00" d="M443.7,36.5c-0.1,0.2-0.1,0.2-0.4,0.3c-1.3,0.1-2,0.3-3.1,0.3c-2.8,0-4.1-1.2-4.1-4.2V22.2
		c0-0.2-0.1-0.3-0.3-0.3h-2c-0.2,0-0.3-0.1-0.3-0.3v-1.4c0-0.2,0.1-0.3,0.3-0.3h2c0.2,0,0.3-0.1,0.3-0.3v-3.9c0-0.2,0.1-0.3,0.3-0.4
		l2.5-0.3c0.2,0,0.3,0.1,0.3,0.3v4.2c0,0.2,0.1,0.3,0.3,0.3h3.2c0.2,0,0.3,0.1,0.3,0.3v1.4c0,0.2-0.1,0.3-0.3,0.3h-3.2
		c-0.2,0-0.3,0.1-0.3,0.3V32c0,1.7,0.3,2.4,2.5,2.4h1.8c0.3,0,0.3,0.1,0.3,0.3L443.7,36.5z"/>
	<path fill="#FBBA00" d="M461.2,29.7h-12.4c-0.2,0-0.3,0-0.3,0.3c0.1,3.7,2.6,4.6,6.3,4.6c1.4,0,2.9-0.1,4.5-0.2
		c0.1,0,0.3,0,0.3,0.2v0.1l-0.3,1.8c-0.1,0.2-0.1,0.2-0.4,0.3c-1.5,0.2-3.2,0.4-5.1,0.4c-5.1,0-8.5-2.1-8.5-8.7
		c0-6.4,3.7-8.6,8.1-8.6c5.4,0,8,3,8,9.6C461.5,29.6,461.4,29.7,461.2,29.7 M453.3,22.1c-2.9,0-4.8,1.6-4.8,4.9
		c0,0.2,0.1,0.3,0.3,0.3h9.2c0.2,0,0.3,0,0.3-0.3C458.2,23.8,456.3,22.1,453.3,22.1"/>
	<path fill="#FBBA00" d="M471.6,22.2c-1.3,0-2.3,0.1-3.6,0.2c-0.2,0-0.3,0.1-0.3,0.3v13.8c0,0.2-0.1,0.3-0.3,0.3h-2.6
		c-0.2,0-0.3-0.1-0.3-0.3V20.8c0-0.2,0.1-0.3,0.3-0.4c2-0.3,4.3-0.6,6.7-0.7c0.2,0,0.3,0.1,0.3,0.3v2
		C471.9,22.1,471.8,22.2,471.6,22.2"/>
	<path fill="#FBBA00" d="M501.7,36.6c0,0.1-0.1,0.2-0.2,0.2h-2.6c-0.2,0-0.4-0.1-0.4-0.3l-1.8-6.5c0-0.2-0.1-0.3-0.3-0.3h-8.1
		c-0.2,0-0.3,0.1-0.3,0.2l-1.8,6.5c-0.1,0.3-0.2,0.3-0.4,0.3h-2.3c-0.2,0-0.3-0.1-0.3-0.3c0,0,0-0.1,0-0.1l5.2-19.6
		c0-0.1,0.2-0.3,0.4-0.3h7.2c0.2,0,0.4,0.1,0.4,0.3l5.2,19.5C501.6,36.6,501.7,36.6,501.7,36.6 M493.8,19.2c0-0.1-0.1-0.2-0.3-0.2
		h-2.3c-0.2,0-0.3,0.1-0.3,0.2l-2.1,8v0.1c0,0.1,0.1,0.2,0.2,0.2h6.8c0.1,0,0.1-0.1,0.1-0.1v-0.1L493.8,19.2z"/>
	<path fill="#FBBA00" d="M512.9,36.9h-8.3c-0.2,0-0.3-0.1-0.3-0.3V16.9c0-0.2,0.1-0.3,0.3-0.3h7.6c2.9,0,6.1,1.2,6.1,4.9
		c0,2.9-1.7,4.2-2.8,4.5v0.2c1.1,0.2,3.9,1,3.9,5C519.4,35.6,515.7,36.9,512.9,36.9 M511.1,19h-3.4c-0.2,0-0.3,0.1-0.3,0.3v5.4
		c0,0.2,0.1,0.3,0.3,0.3h3.9c1.2,0,3.6-0.3,3.6-3.1C515.1,19.3,513,19,511.1,19 M512.3,27.4h-4.6c-0.2,0-0.3,0.1-0.3,0.3v6.4
		c0,0.2,0.1,0.3,0.3,0.3h4.4c2,0,4.2-0.5,4.2-3.5C516.3,28.4,514.6,27.4,512.3,27.4"/>
</g>
<g>
	<path fill="#FBBA00" d="M27.4,0C12.3,0,0,12.3,0,27.4c0,15.1,12.3,27.4,27.4,27.4c15.2,0,27.4-12.3,27.4-27.4
		C54.9,12.3,42.6,0,27.4,0z M19.4,23.4c-0.1,0.2-0.1,0.2-0.3,0.2l-1.9,0c-3,0.1-4.8,1-5.1,4.5c-0.1,0.5-0.1,1,0,1.5
		c0.1,2.3,1.1,3.4,4,3.3l2.9-0.1c0.1,0,0.2,0,0.2,0.1l0,0.1L19,34.8c0,0.2-0.1,0.2-0.3,0.3c-1.1,0.1-2.5,0.3-4,0.3
		C10.8,35.6,8.1,34,8,29.9c0-0.4,0-0.9,0-1.5c0.5-5.1,3.7-6.8,7.8-6.9c1.2,0,2.7,0,3.7,0.1c0.1,0,0.2,0.1,0.2,0.2l0,0.1L19.4,23.4z
		 M29.7,23.1c0,0.1-0.1,0.2-0.3,0.2l-1.9,0.1c-0.1,0-0.2,0.1-0.3,0.3L26.7,31c0,0.1,0,0.3,0,0.4c0,1,0.6,1.2,1.7,1.2l0.7,0
		c0.1,0,0.2,0.1,0.2,0.2l0,0L29,34.5c0,0.1-0.2,0.2-0.3,0.2C27.6,34.9,26.9,35,26,35c-2.1,0.1-3.2-0.7-3.3-2.7c0-0.2,0-0.5,0-0.8
		l0.7-7.8c0-0.1-0.1-0.2-0.2-0.2l-1.4,0c-0.1,0-0.2-0.1-0.2-0.2l0.2-1.7c0-0.1,0.1-0.2,0.3-0.2l1.4,0c0.1,0,0.2-0.1,0.2-0.2l0.3-3.2
		c0-0.1,0.1-0.2,0.2-0.2l3.5-0.3c0.1,0,0.2,0,0.2,0.2l0,0.1L27.5,21l0,0.1c0,0.1,0.1,0.2,0.2,0.2l1.9-0.1c0.1,0,0.2,0.1,0.2,0.2l0,0
		L29.7,23.1z M45.9,20.9l-4.9,5.3l4.8,7.7c0,0,0,0.1,0,0.1c0,0.1-0.1,0.2-0.2,0.2l-4.2,0.1c-0.1,0-0.2,0-0.3-0.2l-3.7-5.8
		c-0.1-0.1-0.2-0.2-0.3-0.2l-0.6,0c-0.2,0-0.3,0.1-0.3,0.3l-0.5,5.7c0,0.2-0.2,0.3-0.3,0.3l-3.3,0.1c-0.2,0-0.2-0.1-0.2-0.2l0-0.1
		l1.5-17.7c0-0.2,0.1-0.2,0.3-0.2l3.4-0.4l0,0c0.1,0,0.2,0.1,0.2,0.2l0,0l-0.8,9.5l0,0.1c0,0.1,0.1,0.2,0.2,0.2l0.4,0
		c0.1,0,0.2-0.1,0.3-0.2l4.4-4.8c0.1-0.1,0.2-0.1,0.4-0.2l3.4-0.1C45.9,20.6,46,20.7,45.9,20.9C46,20.8,45.9,20.8,45.9,20.9z"/>
	<path fill="none" d="M19.5,21.6c-1-0.1-2.4-0.1-3.7-0.1c-4.1,0.1-7.3,1.8-7.8,6.9C8,29,8,29.5,8,29.9c0.1,4.1,2.8,5.6,6.7,5.5
		c1.5-0.1,2.9-0.2,4-0.3C18.9,35,19,35,19,34.8l0.1-1.7l0-0.1c0-0.1-0.1-0.1-0.2-0.1L16,33c-2.9,0.1-3.9-1-4-3.3c0-0.4,0-0.9,0-1.5
		c0.3-3.5,2.1-4.4,5.1-4.5l1.9,0c0.2,0,0.2-0.1,0.3-0.2l0.3-1.6l0-0.1C19.7,21.7,19.6,21.6,19.5,21.6z"/>
	<path fill="none" d="M29.6,21.2l-1.9,0.1c-0.2,0-0.2-0.1-0.2-0.2l0-0.1l0.3-3.4l0-0.1c0-0.1-0.1-0.2-0.2-0.2l-3.5,0.3
		c-0.1,0-0.2,0.1-0.2,0.2l-0.3,3.2c0,0.2-0.1,0.2-0.2,0.2l-1.4,0c-0.2,0-0.2,0.1-0.3,0.2l-0.2,1.7c0,0.1,0.1,0.2,0.2,0.2l1.4,0
		c0.2,0,0.2,0.1,0.2,0.2l-0.7,7.8c0,0.3,0,0.6,0,0.8c0.1,2,1.2,2.7,3.3,2.7c0.9,0,1.6-0.1,2.7-0.2c0.1-0.1,0.3-0.1,0.3-0.2l0.4-1.7
		l0,0c0-0.1-0.1-0.2-0.2-0.2l-0.7,0c-1.2,0-1.7-0.2-1.7-1.2c0-0.1,0-0.2,0-0.4l0.7-7.4c0-0.1,0.1-0.3,0.3-0.3l1.9-0.1
		c0.1,0,0.2-0.1,0.3-0.2l0.1-1.6l0,0C29.8,21.3,29.8,21.2,29.6,21.2z"/>
	<path fill="none" d="M45.8,20.6l-3.4,0.1c-0.2,0-0.3,0-0.4,0.2l-4.4,4.8c-0.1,0.1-0.2,0.2-0.3,0.2l-0.4,0c-0.2,0-0.2-0.1-0.2-0.2
		l0-0.1l0.8-9.5l0,0c0-0.1-0.1-0.2-0.2-0.2l0,0l-3.4,0.4c-0.2,0-0.3,0.1-0.3,0.2L32,34.3l0,0.1c0,0.1,0.1,0.2,0.2,0.2l3.3-0.1
		c0.2,0,0.3-0.1,0.3-0.3l0.5-5.7c0-0.2,0.1-0.3,0.3-0.3l0.6,0c0.1,0,0.2,0.1,0.3,0.2l3.7,5.8c0.1,0.1,0.1,0.2,0.3,0.2l4.2-0.1
		c0.1,0,0.2-0.1,0.2-0.2c0,0,0-0.1,0-0.1l-4.8-7.7l4.9-5.3c0,0,0,0,0-0.1C46,20.7,45.9,20.6,45.8,20.6z"/>
</g>
<g>
</g>
<g>
</g>
<g>
</g>
<g>
</g>
<g>
</g>
<g>
</g>
</svg>
