<?xml version="1.0" encoding="utf-8"?>
<!-- Generator: Adobe Illustrator 17.1.0, SVG Export Plug-In . SVG Version: 6.00 Build 0)  -->
<!DOCTYPE svg PUBLIC "-//W3C//DTD SVG 1.1//EN" "http://www.w3.org/Graphics/SVG/1.1/DTD/svg11.dtd">
<svg version="1.1" id="Layer_1" xmlns="http://www.w3.org/2000/svg" xmlns:xlink="http://www.w3.org/1999/xlink" x="0px" y="0px"
	 viewBox="0 0 100 100" enable-background="new 0 0 100 100" xml:space="preserve">
<g>
	<path fill-rule="evenodd" clip-rule="evenodd" fill="#E30613" d="M131.5,105.4c3.1,5.2,16.4,12.2,27.5,12.2
		c10.6,0,24.7-5.5,25.3-17c0.7-12.9-12.6-16.6-22.1-21.6c-9.2-4.8-16.9-8.7-21.2-13.9c-11.3-13.6-9.9-30.3,1.6-41.9
		c3.3-3.3,7.9-5.7,12.6-7.3c3.2-1.2,7.1-1.7,10.6-2.3c10.3-1.2,18.2-0.1,27.6,2.8l0.1,16.4c-4.3-3.5-12.4-10.9-29.9-5.7
		c-8.7,3.4-11.4,9.8-10.8,17.2c1,11.4,14.8,15.5,24.3,20.3c11.6,5.8,15.9,9.4,20.2,14.4c4.2,5,7.3,12.4,6.2,21.1
		c-2.9,22.3-26.3,29.8-39.7,30.3c-8.9,0.3-16.2-0.2-26.3-3.3C135.8,119.5,132.4,110.2,131.5,105.4L131.5,105.4z"/>
	<path fill-rule="evenodd" clip-rule="evenodd" fill="#E30613" d="M-12.5-42.6c7.4,0,14,3.2,18.6,8.2c0,0,0,0,0,0
		c3.5,3.7,8.5,9.6,12.8,13c3.3,2.6,8.1,4.1,12.5,4.1c11.8,0,21.5-9.6,21.5-21.5c0-11.8-9.8-21.4-21.5-21.5
		c-11.3,0-21.3,10-24.4,22.5v-20C12.8-65.1,21.4-70,31.4-70c17.2,0,31.2,14,31.2,31.2c0,17.2-14,31.2-31.2,31.2
		c-10.1,0-19.2-4.9-24.9-12.4C1.5-26-0.9-29.8-6.7-32.1c-1.8-0.7-3.7-1.1-5.8-1.1c-8.7,0-15.7,7.1-15.7,15.7
		c0,8.7,7.1,15.7,15.7,15.7c3.2,0,6.7-0.5,10.8-3.6c3.5-2.6,7.6-7.1,8.7-10.2v14.3C2.4,4.3-4.7,7.7-12.5,7.7
		c-13.9,0-25.2-11.3-25.2-25.2C-37.6-31.3-26.3-42.6-12.5-42.6L-12.5-42.6z"/>
	<path fill-rule="evenodd" clip-rule="evenodd" fill="#E30613" d="M-195.1,110.1l0,6.3c0,4.5-3.3,9.4-6.9,11.2c0,0.1,0,0,0,0.1
		c6.9,0,25.7,0,32.7,0c0,0,0-0.1,0-0.1c-3.7-1.8-6.9-6.6-6.9-11.1l0-0.7c0-4.5,0-37.1,0-43.8c9.3,0,16.9,0,26.3,0
		c3.8,0.2,7.1,2.1,7.9,5.8l0-17.9h-34.2V33.1v-6.3h0l0,0c10.4,0,20.9,0,31.3,0c5.5,0.1,9.1,3.2,11.4,7.3v-19h-34.7l0,0l-33.7,0
		c0,0.1,0,0,0,0.1c3.6,1.8,6.9,6.8,6.9,11.3l0,6.6L-195.1,110.1L-195.1,110.1z"/>
	<path fill-rule="evenodd" clip-rule="evenodd" fill="#E30613" d="M-18.7,24c0,33.1,0,75.9,0,109c0,8.6-1.8,15.7-5.6,22.9
		c-3.8,7.2-8.4,12.3-12.1,15.8c11.8-1.8,19.5-6.7,26.5-13.5c5.4-5.3,9.3-11.6,10.7-23.3c0-30.7,0-80.2,0-110.9
		c0.1-3.4,3.9-7.6,7-8.7c0,0,0,0,0-0.1l-33.4,0c0,0,0,0,0,0.1C-22.6,16.3-18.7,20.7-18.7,24L-18.7,24z"/>
	<path fill-rule="evenodd" clip-rule="evenodd" fill="#E30613" d="M41.4,24C41.4,24,41.4,24,41.4,24l0,37.2l0,0l-0.1,22.3v33
		c0,3.2,4.1,10,7.2,11.2c0,0.1,0,0,0,0.1c-1.9,0-15.6,0-33.6,0c0-0.2,0,0.1,0-0.1c3.1-1.1,7.3-7.9,7.3-11.2c0-32.3,0-60,0-92.5
		c0-3.2-3.8-7.6-7-8.7c0,0,0,0,0-0.1c6.5,0,31.8,0,33,0c0,0,0,0,0,0.1C45.3,16.3,41.4,20.7,41.4,24L41.4,24z"/>
	<path fill-rule="evenodd" clip-rule="evenodd" fill="#E30613" d="M55.5,15.1c-0.2,0.6-5.2,17.8-6.4,21.4c1.6-2.7,7.6-9.5,12.3-9.5
		c4.4,0,20,0,20.1,0c0,31.4,0,58,0,89.4c0,3.2-4.1,10-7.2,11.2c0,0.2,0-0.1,0,0.1c10.3,0,23.7,0,33.9,0c0-0.3,0,0.1,0-0.1
		c-3.1-1.1-7.3-7.9-7.2-11.2V27.1c0.4,0,14.5,0,18,0c4.1,0,7.3,6.1,7.4,8c0.7-2.7,5.6-18,6.2-19.9H55.5L55.5,15.1z"/>
	<path fill-rule="evenodd" clip-rule="evenodd" fill="#E30613" d="M-120.8,24.2c0-0.9,0-1.8,0-1.7c0,26.9,0,47.9,0,74.7l0,0
		c0.9,17.9,18.7,32.3,40.3,32.3c21.6,0,39.4-14.4,40.3-32.3l0,0c0.1-15,0-65.8,0-72.9V24c0-3.3,3.9-7.6,7-8.7c0,0,0,0,0-0.1
		c-2.5,0-23.8,0-33.8,0c0,0.1,0,0,0,0.1c3.1,1.1,6.9,5.4,7,8.7l0,0.1c0,24.4,0,49,0,73.4c-0.1,10.8-9.2,19.5-20.4,19.5
		c-11.1,0-20.2-8.6-20.4-19.2c0-0.1,0-0.3,0-0.4c0-26,0-47.8,0-72.5c0,0,0,0,0,0l0-0.9c0-3.2,3.9-7.6,7-8.7c0,0,0,0,0-0.1h-33.8
		c0,0,0,0,0,0.1c3.1,1.1,7,5.5,7,8.7L-120.8,24.2L-120.8,24.2z"/>
	<path fill-rule="evenodd" clip-rule="evenodd" fill="#E30613" d="M213.2,24.2c0-0.9,0,51.1,0,73.1l0,0
		c0.9,17.9,18.7,32.3,40.3,32.3c21.6,0,39.4-14.4,40.3-32.3l0,0c0.1-15,0-65.8,0-72.9l0-0.5c0-3.3,3.9-7.6,7-8.7c0,0,0-0.1,0-0.1
		c-2.5,0-23.8-0.1-33.8-0.1c0,0.1,0,0.1,0,0.2c3.1,1.1,6.9,5.4,7,8.6l0,0.1c0,24.4,0,49,0,73.4c-0.1,10.8-9.2,19.5-20.4,19.5
		c-11.1,0-20.2-8.6-20.4-19.2c0-0.1,0-0.3,0-0.4c0-26,0-47.8,0-72.5c0,0,0,0,0,0V24c0-3.2,3.8-7.6,7-8.7c0,0,0-0.1,0-0.1h-33.8
		c0,0,0,0.1,0,0.1c3.1,1.1,7,5.5,7,8.7L213.2,24.2L213.2,24.2z"/>
</g>
</svg>
