<?xml version="1.0" encoding="utf-8"?>
<!-- Generator: Adobe Illustrator 17.1.0, SVG Export Plug-In . SVG Version: 6.00 Build 0)  -->
<!DOCTYPE svg PUBLIC "-//W3C//DTD SVG 1.1//EN" "http://www.w3.org/Graphics/SVG/1.1/DTD/svg11.dtd">
<svg version="1.1" id="Lager_1" xmlns="http://www.w3.org/2000/svg" xmlns:xlink="http://www.w3.org/1999/xlink" x="0px" y="0px"
	 viewBox="0 0 841.9 595.3" enable-background="new 0 0 841.9 595.3" xml:space="preserve">
<g>
	<g>
		<g>
			<g>
				<path d="M304.2,301.6h57.7c12.3,0,22.3-9.4,22.3-20.9v-3.9c0-11.3-9.4-20.5-21.5-20.9l-0.4,0h-39c-3.4,0-6.1-2.6-6.1-5.8v-3.8
					c0-3.2,2.8-5.8,6.1-5.8h56.5v-15.2h-56.5c-12.3,0-22.3,9.4-22.3,20.9v3.8c0,11.5,10,20.9,22.3,20.9h38.6c3.4,0,6.1,2.6,6.1,5.8
					v3.9c0,3.2-2.8,5.8-6.1,5.8h-57.7V301.6z"/>
			</g>
			<g>
				<g>
					<path d="M403.3,301.6h16.2v-76.3h-16.1L403.3,301.6z"/>
				</g>
			</g>
			<g>
				<path d="M629.3,301.6h16.2l0-55.3c0-11.6-10-20.9-22.3-20.9h-80.5v76.3h16.1v-61.1h26.9l0,61.1h16.1v-61.1h21.4
					c3.4,0,6.1,2.6,6.1,5.8L629.3,301.6z"/>
			</g>
			<g>
				<path d="M740.6,246.3c0-11.5-10-20.9-22.3-20.9h-51.3v15.2h51.3c3.4,0,6.1,2.6,6.1,5.8l0,9.5h-40.7c-12.3,0-22.3,9.4-22.3,21
					v3.9c0,11.6,10,21,22.3,21h56.8L740.6,246.3z M724.5,286.4L724.5,286.4h-40.7c-3.4,0-6.1-2.6-6.1-5.8v-3.9
					c0-3.2,2.8-5.8,6.1-5.8h40.7L724.5,286.4z"/>
			</g>
			<g>
				<path d="M441.3,280.7c0,11.5,10,20.9,22.3,20.9h56.9v-45.8h-42.5V271h26.3v15.4h-40.6c-3.4,0-6.1-2.6-6.1-5.8l0-34.4
					c0-3.2,2.8-5.8,6.1-5.8h56.7v-15.2h-56.7c-12.3,0-22.3,9.4-22.3,21L441.3,280.7z"/>
			</g>
		</g>
		<g>
			<linearGradient id="SVGID_1_" gradientUnits="userSpaceOnUse" x1="185.4906" y1="317.259" x2="134.5577" y2="214.873">
				<stop  offset="6.134970e-03" style="stop-color:#DB0F16"/>
				<stop  offset="0.681" style="stop-color:#E41B13"/>
			</linearGradient>
			<path fill="url(#SVGID_1_)" d="M177.4,173.8c-12.7,0-23.4,26.1-27.1,62.2c-36.1,3.7-62.2,14.4-62.2,27.1
				c0,12.7,26.1,23.4,62.2,27.1c3.7,36.1,14.4,62.2,27.1,62.2c15.7,0,28.4-40,28.4-89.3C205.8,213.8,193.1,173.8,177.4,173.8z"/>
			<linearGradient id="SVGID_2_" gradientUnits="userSpaceOnUse" x1="190.4371" y1="244.0855" x2="220.8934" y2="296.8374">
				<stop  offset="0" style="stop-color:#7C7C7B"/>
				<stop  offset="0.2081" style="stop-color:#656565"/>
				<stop  offset="0.5305" style="stop-color:#474746"/>
				<stop  offset="0.8059" style="stop-color:#313130"/>
				<stop  offset="1" style="stop-color:#212121"/>
			</linearGradient>
			<path fill="url(#SVGID_2_)" d="M204.5,236l-54.2,54.2c8.5,0.9,17.7,1.3,27.1,1.3c49.3,0,89.3-12.7,89.3-28.4
				C266.7,250.4,240.5,239.6,204.5,236z"/>
			<path fill="#660C00" d="M204.5,236L204.5,236l-54.2,54.2c8.5,0.9,17.7,1.3,27.1,1.3c9.4,0,18.6-0.5,27.1-1.3
				c0.9-8.5,1.3-17.7,1.3-27.1C205.8,253.6,205.3,244.5,204.5,236z"/>
			<path fill="#A31008" d="M150.3,290.2l54.2-54.2c-8.5-0.9-17.6-1.3-27.1-1.3c-9.4,0-18.6,0.5-27.1,1.3c-0.9,8.5-1.3,17.7-1.3,27.1
				C148.9,272.5,149.4,281.6,150.3,290.2C150.3,290.2,150.3,290.2,150.3,290.2z"/>
		</g>
	</g>
</g>
<g>
</g>
<g>
</g>
<g>
</g>
<g>
</g>
<g>
</g>
<g>
</g>
</svg>
