<?xml version="1.0" encoding="utf-8"?>
<!-- Generator: Adobe Illustrator 17.1.0, SVG Export Plug-In . SVG Version: 6.00 Build 0)  -->
<!DOCTYPE svg PUBLIC "-//W3C//DTD SVG 1.1//EN" "http://www.w3.org/Graphics/SVG/1.1/DTD/svg11.dtd">
<svg version="1.1" id="Lager_1" xmlns="http://www.w3.org/2000/svg" xmlns:xlink="http://www.w3.org/1999/xlink" x="0px" y="0px"
	 viewBox="0 0 841.9 1190.5" enable-background="new 0 0 841.9 1190.5" xml:space="preserve">
<g>
	<path fill="#D32210" d="M456.3,564.5v-35.9l9-7.1v11.3h8.4v7.9h-8.4v21.6c0,2.8,1.4,4.9,3.9,4.9c1.7,0,3.3-0.7,4-1.5l2.1,6.8
		c-1.6,1.5-4.3,2.7-8.5,2.7C460,575.1,456.3,571.4,456.3,564.5"/>
	<path fill="#D32210" d="M320.6,553.4c0-12.5,8.8-21.6,21.4-21.6c8,0,12.9,3.4,15.8,7.4l-5.9,5.5c-2.3-3.3-5.5-4.9-9.5-4.9
		c-7.5,0-12.5,5.6-12.5,13.7c0,8,5,13.8,12.5,13.8c4,0,7.2-1.7,9.5-4.9l5.9,5.5c-2.9,3.9-7.8,7.4-15.8,7.4
		C329.4,575.2,320.6,566,320.6,553.4"/>
	<path fill="#D32210" d="M361.3,553.4c0-12,8.7-21.6,21-21.6c12.4,0,20.4,9.5,20.4,22.5v2.1h-31.9c0.7,6.2,5.4,11.4,13.2,11.4
		c4,0,8.8-1.6,11.7-4.5l4.1,5.9c-4.1,3.9-10.2,6-16.8,6C370.6,575.2,361.3,566.5,361.3,553.4 M382.3,539.1c-7.7,0-11.2,5.9-11.6,11
		h23.3C393.7,545.2,390.4,539.1,382.3,539.1"/>
	<path fill="#D32210" d="M437.5,574.1v-25.1c0-7.2-2.6-9.1-8-8.6c-4.5,0.4-10.9,5.5-10.9,12.1v21.6h-9v-8.2l0-15.6c0-3.8,2-9.2,7-13
		c5.6-4.2,11.5-5.6,16.5-5.6c8.4,0.1,13.3,4.7,13.3,14.8v27.6H437.5z"/>
	<rect x="483.2" y="532.8" fill="#D32210" width="9" height="41.3"/>
	<path fill="#D32210" d="M502.5,574.1v-24.7c0-2.2,0.8-7.5,5.3-11.3c5.5-4.7,11.7-6.2,17.1-6.2v8.7c-0.7,0-1.6,0-2.8,0
		c-4.7,0.1-10.6,4.7-10.6,10.4v23.2H502.5z"/>
	<path fill="#D32210" d="M525.8,553.4c0-11.8,8.1-21.6,21.2-21.6c13.3,0,21.3,9.8,21.3,21.6c0,11.9-8,21.7-21.3,21.7
		C533.9,575.2,525.8,565.3,525.8,553.4 M558.9,553.4c0-7.3-4.3-13.7-12-13.7c-7.6,0-11.9,6.4-11.9,13.7c0,7.4,4.3,13.8,11.9,13.8
		C554.7,567.2,558.9,560.8,558.9,553.4"/>
</g>
<g>
	<path fill="#A59E94" d="M323.9,597.6v-11.7h4.7c2.3,0,3.7,1.6,3.7,3.5c0,1.9-1.3,3.5-3.7,3.5h-3.2v4.6H323.9z M330.7,589.4
		c0-1.3-0.9-2.2-2.3-2.2h-3.1v4.4h3.1C329.8,591.6,330.7,590.7,330.7,589.4z"/>
	<path fill="#A59E94" d="M333.4,593.3c0-2.5,1.8-4.4,4.2-4.4c2.6,0,4.1,2,4.1,4.5v0.3h-6.8c0.1,1.6,1.2,2.9,3,2.9
		c1,0,1.9-0.4,2.6-1.1l0.6,0.9c-0.9,0.8-2,1.3-3.4,1.3C335.2,597.8,333.4,596,333.4,593.3z M337.5,590c-1.8,0-2.7,1.5-2.8,2.8h5.5
		C340.3,591.5,339.5,590,337.5,590z"/>
	<path fill="#A59E94" d="M343.2,593.3c0-2.5,1.6-4.4,4.2-4.4c2.6,0,4.2,2,4.2,4.4c0,2.5-1.6,4.4-4.2,4.4
		C344.9,597.8,343.2,595.8,343.2,593.3z M350.2,593.3c0-1.7-1-3.3-2.8-3.3c-1.8,0-2.8,1.5-2.8,3.3c0,1.7,1,3.3,2.8,3.3
		C349.2,596.6,350.2,595,350.2,593.3z"/>
	<path fill="#A59E94" d="M355.1,596.3v4.5h-1.3v-11.7h1.3v1.3c0.6-0.9,1.7-1.5,2.9-1.5c2.2,0,3.8,1.7,3.8,4.4c0,2.7-1.5,4.4-3.8,4.4
		C356.8,597.8,355.8,597.2,355.1,596.3z M360.3,593.3c0-1.9-1-3.3-2.7-3.3c-1,0-2.1,0.6-2.5,1.3v3.8c0.5,0.7,1.5,1.4,2.5,1.4
		C359.3,596.6,360.3,595.2,360.3,593.3z"/>
	<path fill="#A59E94" d="M363.8,597.6v-11.7h1.3v11.7H363.8z"/>
	<path fill="#A59E94" d="M367.2,593.3c0-2.5,1.8-4.4,4.2-4.4c2.6,0,4.1,2,4.1,4.5v0.3h-6.8c0.1,1.6,1.2,2.9,3,2.9
		c1,0,1.9-0.4,2.6-1.1l0.6,0.9c-0.9,0.8-2,1.3-3.4,1.3C369,597.8,367.2,596,367.2,593.3z M371.3,590c-1.8,0-2.7,1.5-2.8,2.8h5.5
		C374.1,591.5,373.3,590,371.3,590z"/>
	<path fill="#A59E94" d="M376.8,593.9v-1.2h4.2v1.2H376.8z"/>
	<path fill="#A59E94" d="M388.9,597.6v-1.3c-0.6,0.9-1.7,1.5-2.9,1.5c-2.2,0-3.8-1.7-3.8-4.4c0-2.7,1.6-4.4,3.8-4.4
		c1.1,0,2.2,0.6,2.9,1.5v-4.5h1.3v11.7H388.9z M388.9,595.2v-3.8c-0.5-0.7-1.5-1.4-2.5-1.4c-1.7,0-2.7,1.4-2.7,3.3
		c0,1.9,1,3.3,2.7,3.3C387.4,596.6,388.5,596,388.9,595.2z"/>
	<path fill="#A59E94" d="M392.9,597.6v-8.5h1.3v1.3c0.7-0.9,1.7-1.5,2.8-1.5v1.3c-0.2,0-0.3,0-0.5,0c-0.8,0-1.9,0.7-2.3,1.3v6H392.9
		z"/>
	<path fill="#A59E94" d="M398.4,587c0-0.5,0.4-0.9,0.9-0.9c0.5,0,0.9,0.4,0.9,0.9c0,0.5-0.4,0.9-0.9,0.9
		C398.8,587.9,398.4,587.5,398.4,587z M398.6,597.6v-8.5h1.3v8.5H398.6z"/>
	<path fill="#A59E94" d="M404.8,597.6l-3.5-8.5h1.4l2.8,6.9l2.8-6.9h1.4l-3.5,8.5H404.8z"/>
	<path fill="#A59E94" d="M410.7,593.3c0-2.5,1.8-4.4,4.2-4.4c2.6,0,4.1,2,4.1,4.5v0.3h-6.8c0.1,1.6,1.2,2.9,3,2.9
		c1,0,1.9-0.4,2.6-1.1l0.6,0.9c-0.9,0.8-2,1.3-3.4,1.3C412.5,597.8,410.7,596,410.7,593.3z M414.8,590c-1.8,0-2.7,1.5-2.8,2.8h5.5
		C417.6,591.5,416.7,590,414.8,590z"/>
	<path fill="#A59E94" d="M426.7,597.6V592c0-1.5-0.8-2-1.9-2c-1,0-2,0.6-2.5,1.3v6.2H421v-8.5h1.3v1.2c0.6-0.7,1.8-1.4,3-1.4
		c1.8,0,2.7,0.9,2.7,2.7v5.9H426.7z"/>
	<path fill="#A59E94" d="M435.2,597.6v-11.7h1.3v11.7H435.2z"/>
	<path fill="#A59E94" d="M438.6,593.3c0-2.5,1.6-4.4,4.2-4.4c2.6,0,4.2,2,4.2,4.4c0,2.5-1.6,4.4-4.2,4.4
		C440.2,597.8,438.6,595.8,438.6,593.3z M445.6,593.3c0-1.7-1-3.3-2.8-3.3c-1.8,0-2.8,1.5-2.8,3.3c0,1.7,1,3.3,2.8,3.3
		C444.6,596.6,445.6,595,445.6,593.3z"/>
	<path fill="#A59E94" d="M449.1,599.7l0.7-0.9c0.7,0.8,1.5,1.1,2.7,1.1c1.4,0,2.7-0.7,2.7-2.5v-1.3c-0.6,0.9-1.7,1.5-2.9,1.5
		c-2.2,0-3.8-1.6-3.8-4.4c0-2.7,1.5-4.4,3.8-4.4c1.1,0,2.2,0.6,2.9,1.5v-1.3h1.3v8.3c0,2.7-2,3.6-4,3.6
		C451.1,601,450.1,600.7,449.1,599.7z M455.3,595.1v-3.7c-0.5-0.7-1.5-1.3-2.5-1.3c-1.7,0-2.7,1.3-2.7,3.2c0,1.9,1,3.2,2.7,3.2
		C453.8,596.5,454.8,595.9,455.3,595.1z"/>
	<path fill="#A59E94" d="M459,587c0-0.5,0.4-0.9,0.9-0.9c0.5,0,0.9,0.4,0.9,0.9c0,0.5-0.4,0.9-0.9,0.9
		C459.4,587.9,459,587.5,459,587z M459.2,597.6v-8.5h1.3v8.5H459.2z"/>
	<path fill="#A59E94" d="M462.4,596.4l0.7-0.9c0.6,0.6,1.6,1.2,2.8,1.2c1.3,0,2-0.6,2-1.5c0-2-5.2-0.8-5.2-3.9
		c0-1.3,1.1-2.4,3.1-2.4c1.5,0,2.5,0.5,3.1,1.2l-0.6,0.9c-0.5-0.6-1.4-1.1-2.5-1.1c-1.2,0-1.9,0.6-1.9,1.3c0,1.8,5.2,0.6,5.2,3.9
		c0,1.4-1.1,2.6-3.3,2.6C464.4,597.8,463.3,597.3,462.4,596.4z"/>
	<path fill="#A59E94" d="M471.5,595.8v-5.5h-1.4v-1.2h1.4v-2.3h1.3v2.3h1.7v1.2h-1.7v5.3c0,0.6,0.3,1.1,0.8,1.1
		c0.4,0,0.7-0.2,0.9-0.4l0.4,1c-0.3,0.3-0.8,0.5-1.6,0.5C472.2,597.8,471.5,597,471.5,595.8z"/>
	<path fill="#A59E94" d="M476.2,587c0-0.5,0.4-0.9,0.9-0.9c0.5,0,0.9,0.4,0.9,0.9c0,0.5-0.4,0.9-0.9,0.9
		C476.6,587.9,476.2,587.5,476.2,587z M476.4,597.6v-8.5h1.3v8.5H476.4z"/>
	<path fill="#A59E94" d="M479.9,593.3c0-2.5,1.7-4.4,4.2-4.4c1.5,0,2.5,0.6,3.1,1.5l-0.9,0.8c-0.6-0.8-1.3-1.1-2.2-1.1
		c-1.8,0-2.9,1.4-2.9,3.3c0,1.9,1.1,3.3,2.9,3.3c0.9,0,1.6-0.3,2.2-1.1l0.9,0.8c-0.6,0.8-1.6,1.5-3.1,1.5
		C481.6,597.8,479.9,595.8,479.9,593.3z"/>
	<path fill="#A59E94" d="M488.3,596.4l0.7-0.9c0.6,0.6,1.6,1.2,2.8,1.2c1.3,0,2-0.6,2-1.5c0-2-5.2-0.8-5.2-3.9
		c0-1.3,1.1-2.4,3.1-2.4c1.5,0,2.5,0.5,3.1,1.2l-0.6,0.9c-0.5-0.6-1.4-1.1-2.5-1.1c-1.2,0-1.9,0.6-1.9,1.3c0,1.8,5.2,0.6,5.2,3.9
		c0,1.4-1.1,2.6-3.3,2.6C490.3,597.8,489.2,597.3,488.3,596.4z"/>
	<path fill="#A59E94" d="M501,596.4l0.7-0.9c0.6,0.6,1.6,1.2,2.8,1.2c1.3,0,2-0.6,2-1.5c0-2-5.2-0.8-5.2-3.9c0-1.3,1.1-2.4,3.1-2.4
		c1.5,0,2.5,0.5,3.1,1.2l-0.6,0.9c-0.5-0.6-1.4-1.1-2.5-1.1c-1.2,0-1.9,0.6-1.9,1.3c0,1.8,5.2,0.6,5.2,3.9c0,1.4-1.1,2.6-3.3,2.6
		C503,597.8,501.8,597.3,501,596.4z"/>
	<path fill="#A59E94" d="M509.4,593.3c0-2.5,1.6-4.4,4.2-4.4c2.6,0,4.2,2,4.2,4.4c0,2.5-1.6,4.4-4.2,4.4
		C511,597.8,509.4,595.8,509.4,593.3z M516.3,593.3c0-1.7-1-3.3-2.8-3.3c-1.8,0-2.8,1.5-2.8,3.3c0,1.7,1,3.3,2.8,3.3
		C515.3,596.6,516.3,595,516.3,593.3z"/>
	<path fill="#A59E94" d="M520.2,597.6v-7.3h-1.4v-1.2h1.4v-0.6c0-1.7,1-2.7,2.5-2.7c0.7,0,1.3,0.2,1.8,0.6l-0.5,0.8
		c-0.3-0.2-0.6-0.4-1-0.4c-0.9,0-1.3,0.6-1.3,1.7v0.6h1.7v1.2h-1.7v7.3H520.2z"/>
	<path fill="#A59E94" d="M525.1,595.8v-5.5h-1.4v-1.2h1.4v-2.3h1.3v2.3h1.7v1.2h-1.7v5.3c0,0.6,0.3,1.1,0.8,1.1
		c0.4,0,0.7-0.2,0.9-0.4l0.4,1c-0.3,0.3-0.8,0.5-1.6,0.5C525.7,597.8,525.1,597,525.1,595.8z"/>
	<path fill="#A59E94" d="M537.3,597.6l-2.2-6.8l-2.2,6.8h-1.3l-2.7-8.5h1.4l2.1,6.7l2.2-6.7h1.1l2.2,6.7l2.1-6.7h1.4l-2.7,8.5H537.3
		z"/>
	<path fill="#A59E94" d="M548.1,597.6v-1c-0.7,0.8-1.7,1.2-2.8,1.2c-1.4,0-2.9-1-2.9-2.8c0-1.9,1.5-2.8,2.9-2.8
		c1.2,0,2.1,0.4,2.8,1.1v-1.5c0-1.1-0.9-1.8-2.1-1.8c-1,0-1.8,0.4-2.6,1.2l-0.6-0.9c0.9-0.9,2-1.4,3.4-1.4c1.8,0,3.3,0.8,3.3,2.9
		v5.8H548.1z M548.1,595.8v-1.6c-0.5-0.7-1.4-1-2.3-1c-1.2,0-2.1,0.8-2.1,1.8c0,1.1,0.9,1.9,2.1,1.9
		C546.7,596.8,547.6,596.5,548.1,595.8z"/>
	<path fill="#A59E94" d="M552,597.6v-8.5h1.3v1.3c0.7-0.9,1.7-1.5,2.8-1.5v1.3c-0.2,0-0.3,0-0.5,0c-0.8,0-1.9,0.7-2.3,1.3v6H552z"/>
	<path fill="#A59E94" d="M557.3,593.3c0-2.5,1.8-4.4,4.2-4.4c2.6,0,4.1,2,4.1,4.5v0.3h-6.8c0.1,1.6,1.2,2.9,3,2.9
		c1,0,1.9-0.4,2.6-1.1l0.6,0.9c-0.9,0.8-2,1.3-3.4,1.3C559.1,597.8,557.3,596,557.3,593.3z M561.5,590c-1.8,0-2.7,1.5-2.8,2.8h5.5
		C564.2,591.5,563.4,590,561.5,590z"/>
</g>
<g>
</g>
<g>
</g>
<g>
</g>
<g>
</g>
<g>
</g>
<g>
</g>
</svg>
