<?xml version="1.0" encoding="utf-8"?>
<!-- Generator: Adobe Illustrator 17.1.0, SVG Export Plug-In . SVG Version: 6.00 Build 0)  -->
<!DOCTYPE svg PUBLIC "-//W3C//DTD SVG 1.1//EN" "http://www.w3.org/Graphics/SVG/1.1/DTD/svg11.dtd">
<svg version="1.1" id="Layer_1" xmlns="http://www.w3.org/2000/svg" xmlns:xlink="http://www.w3.org/1999/xlink" x="0px" y="0px"
	 viewBox="0 0 595 842" enable-background="new 0 0 595 842" xml:space="preserve">
<g>
	<path fill-rule="evenodd" clip-rule="evenodd" d="M374.2,424.4h10.6l-5.3-13.5L374.2,424.4L374.2,424.4z M373.6,425.9l-0.4,1.2
		c-0.7,1.8-2.3,5.4-2.3,7.2c0,2.1,2.4,1.9,3.9,2.1v1.1c-1.8,0-3.5-0.1-5.3-0.2c-1.7,0-3.3,0.1-5,0.2v-1.1c2.6-0.3,3.6-1.1,4.6-3.4
		c1.3-3.1,2.6-6.1,4-9.2l7.3-18.9h1.6l9.7,24.4c0.6,1.2,1.6,4.2,2.5,5.3c1.1,1.4,2.5,1.6,4.1,1.8v1.1c-2.3,0-4.6-0.1-6.8-0.2
		c-2.3,0-4.7,0.1-7,0.2v-1.1c1.3,0,3.7,0,3.7-1.8c0-1.2-0.5-2.6-1-3.7l-1.9-4.9H373.6L373.6,425.9z"/>
	<path fill-rule="evenodd" clip-rule="evenodd" d="M410.5,408.9v20.2c0,1.6-0.2,3.9,0.8,5.3c1.1,1.6,3.6,1.8,5.4,1.8
		c8.4,0,10-6,10-13.1c0-9.5-2.7-16-13-16c-0.6,0-2.4-0.1-2.9,0.3C410.5,407.7,410.5,408.5,410.5,408.9L410.5,408.9z M405.6,428.4
		V415c0-1.5,0-5.1-0.4-6.4c-0.5-1.7-2.5-1.6-4.1-1.6v-1.2c2,0,4,0.1,6,0.2c2.6,0,5.2-0.1,7.8-0.2c10.1-0.2,17.8,6.1,17.8,16.6
		c0,10.2-6.7,15.5-16.6,15.2c-2.8,0-5.7-0.1-8.5-0.2c-2.2,0-4.4,0.1-6.5,0.2v-1.1c1.5,0,3.6,0,4.1-1.6
		C405.6,433.5,405.6,430,405.6,428.4L405.6,428.4z"/>
	<path d="M195.2,405.8c-5.1,0-10.3,0.1-15.4,0.2c-2.8,0-5.7-0.1-8.6-0.2v1.1c1.5,0,3.5,0,4.1,1.6c0.5,1.3,0.5,4.8,0.5,6.4v13.5
		c0,1.5,0,5.1-0.5,6.4c-0.6,1.6-2.6,1.6-4.1,1.6v1.1c2.5,0,4.9-0.1,7.4-0.2c2.4,0,4.9,0.1,7.4,0.2v-1.1c-1.7-0.1-4,0.3-4.8-1.6
		c-0.5-1.3-0.5-4.8-0.5-6.3v-6c4.6,0,7.2,0.1,7.8,5.1h1.1c0-2-0.1-4-0.2-6c0.1-2.2,0.1-4.4,0.2-6.5h-1.1c-0.3,3.5-1.2,6.1-7.8,5.8
		v-10.8c0.1-3,0-2.7,3.8-2.7c2.3,0,5,0,7.1,0.9c2.2,0.9,2.6,2.9,3.2,5h1.1L195.2,405.8L195.2,405.8z"/>
	<path d="M163,415.9c0-1.9,0-5.6,0.7-7.3c0.7-1.7,2.4-1.7,3.9-1.7v-1.1c-1.8,0-3.6,0.1-5.4,0.2c-1.9,0-3.7-0.1-5.6-0.2v1.1
		c1.9,0,3.8,0.2,4.5,2.2c0.5,1.5,0.5,5.2,0.5,6.9v10.5c0,6.4-3.3,9.9-9.9,9.9c-6.6,0-9-3.5-9-9.6v-11.8c0-1.5,0-5.1,0.4-6.4
		c0.6-1.7,2.6-1.6,4.1-1.6v-1.1c-2.4,0-4.8,0.1-7.3,0.2c-2.3,0-4.6-0.1-6.8-0.2v1.1c1.5,0,3.5,0,4.1,1.6c0.5,1.3,0.5,4.8,0.5,6.4
		v11.5c0,8.7,4.2,11.7,12.8,11.7c9.1,0,12.5-4.5,12.5-13.2V415.9L163,415.9z"/>
	<path d="M102.9,422H120v6.4c0,1.5,0,5.1-0.5,6.4c-0.6,1.6-2.6,1.6-4.1,1.6v1.1c2.4,0,4.8-0.1,7.2-0.2c2.3,0,4.7,0.1,7,0.2v-1.1
		c-1.5,0-3.5,0-4.1-1.6c-0.5-1.3-0.5-4.8-0.5-6.4v-13.5c0-1.5,0-5.1,0.5-6.4c0.6-1.6,2.6-1.6,4.1-1.6v-1.1c-2.4,0-4.8,0.1-7.2,0.2
		c-2.4,0-4.7-0.1-7-0.2v1.1c1.5,0,3.5,0,4.1,1.6c0.5,1.3,0.5,4.8,0.5,6.4v5.6h-17.1v-5.6c0-1.5,0-5.1,0.5-6.4
		c0.6-1.6,2.6-1.6,4.1-1.6v-1.1c-2.4,0-4.8,0.1-7.3,0.2c-2.3,0-4.6-0.1-6.9-0.2v1.1c1.5,0,3.5,0,4.1,1.6c0.5,1.3,0.5,4.8,0.5,6.4
		v13.5c0,1.5,0,5.1-0.5,6.4c-0.6,1.6-2.6,1.6-4.1,1.6v1.1c2.4,0,4.8-0.1,7.2-0.2c2.3,0,4.7,0.1,7,0.2v-1.1c-1.5,0-3.5,0-4.1-1.6
		c-0.5-1.3-0.5-4.8-0.5-6.4V422L102.9,422z"/>
	<path d="M214,438.4h1.4l9.7-24.2c1.2-3.3,2.1-7.3,6.2-7.3v-1.1c-1.7,0-3.4,0.1-5,0.2c-1.8,0-3.6-0.1-5.5-0.2v1.1
		c1.8,0,3.7,0,3.7,2.4c0,2.1-2.7,9.4-3.6,11.7l-4.6,11.1l-4.9-12.2c-0.8-2-3.6-9.4-3.6-11c0-2,2.4-2,3.7-2v-1.1
		c-2.4,0-4.7,0.1-7.1,0.2c-2.3,0-4.5-0.1-6.8-0.2v1.1c4,0.1,4.6,2.8,5.8,5.9L214,438.4L214,438.4z"/>
	<path d="M264,415.9c0-1.9,0-5.6,0.7-7.3c0.7-1.7,2.4-1.7,3.9-1.7v-1.1c-1.8,0-3.6,0.1-5.4,0.2c-1.9,0-3.7-0.1-5.6-0.2v1.1
		c1.9,0,3.8,0.2,4.5,2.2c0.5,1.5,0.5,5.2,0.5,6.9v10.5c0,6.4-3.3,9.9-9.9,9.9c-6.6,0-9-3.5-9-9.6v-11.8c0-1.5,0-5.1,0.4-6.4
		c0.6-1.7,2.6-1.6,4.1-1.6v-1.1c-2.4,0-4.8,0.1-7.3,0.2c-2.3,0-4.6-0.1-6.8-0.2v1.1c1.5,0,3.5,0,4.1,1.6c0.5,1.3,0.5,4.8,0.5,6.4
		v11.5c0,8.7,4.2,11.7,12.8,11.7c9.1,0,12.5-4.5,12.5-13.2V415.9L264,415.9z"/>
	<path fill-rule="evenodd" clip-rule="evenodd" d="M281.7,408.9v20.2c0,1.6-0.2,3.9,0.8,5.3c1.1,1.6,3.6,1.8,5.4,1.8
		c8.4,0,10-6,10-13.1c0-9.5-2.7-16-13-16c-0.6,0-2.4-0.1-2.9,0.3C281.7,407.7,281.7,408.5,281.7,408.9L281.7,408.9z M276.8,428.4
		V415c0-1.5,0-5.1-0.4-6.4c-0.5-1.7-2.5-1.6-4.1-1.6v-1.2c2,0,4,0.1,6,0.2c2.6,0,5.2-0.1,7.8-0.2c10.1-0.2,17.8,6.1,17.8,16.6
		c0,10.2-6.7,15.5-16.6,15.2c-2.8,0-5.7-0.1-8.5-0.2c-2.2,0-4.4,0.1-6.5,0.2v-1.1c1.5,0,3.6,0,4.1-1.6
		C276.8,433.5,276.8,430,276.8,428.4L276.8,428.4z"/>
	<path d="M311.3,437.2h0.5l1.2-2c2.6,1.9,5.1,2.9,8.4,2.9c5.6,0,11.5-3,11.5-9.3c0-6.3-5.6-8.8-10.6-10.8c-3-1.2-6.4-2.5-6.4-6.3
		c0-3.1,2.5-5.1,5.6-5.1c4.7,0,6.9,3.6,8,7.6h1.1l-0.2-8.3h-0.5l-1.1,1.9c-2.2-1.5-4.6-2.4-7.2-2.4c-5.2,0-9.5,3.2-9.5,8.6
		s4.7,7.8,9,9.5c3.5,1.4,7.3,3.1,7.3,7.5c0,3.9-3.1,6-6.9,6c-5.5,0-8.1-4.1-9.1-8.9h-1.1V437.2L311.3,437.2z"/>
	<path d="M365.8,405.8h-29.5v7.5h1.1c0.2-5.7,2.5-6,7.2-6c1.9,0,4-0.1,4,1.3v22.7c0,3.6-0.7,4.9-5.3,5.1v1.1c2.6,0,5.1-0.1,7.6-0.2
		c2.6,0,5.3,0.1,8,0.2v-1.1c-4.7-0.2-5.3-1.5-5.3-5.1v-22.7c0-1.5,2.9-1.3,4.7-1.3c4.5,0,6.3,1.2,6.6,6h1.3L365.8,405.8L365.8,405.8
		z"/>
	<path d="M442.2,428.3c0,1.5,0,5.1-0.5,6.4c-0.6,1.6-2.6,1.6-4.1,1.6v1.1h26.1l0.4-7.7H463c-0.6,5.7-3.9,6.3-8.9,6.4
		c-1.9,0-4.9,0-6.1-1.7c-0.9-1.2-0.9-3.4-0.9-4.8v-7.9c4.6,0,7.2,0.2,7.8,5.3h1.1c0-2-0.1-4-0.2-6c0.1-2.2,0.1-4.4,0.2-6.5h-1.1
		c-0.3,3.5-1.2,6.2-7.8,5.9V409c0-2.1-0.2-2,1.2-2h3.5c5.1,0,7.6,0.3,8.5,6h1.1v-7.2h-23.9v1.3c1.5,0,3.5,0,4.1,1.6
		c0.5,1.3,0.5,4.8,0.5,6.4V428.3L442.2,428.3z"/>
	<path d="M474.2,427.5c0,1.9,0,4.9-0.4,6.6c-0.5,2.1-2.3,2.2-4.1,2.4v1.1c1.8,0,3.6-0.1,5.3-0.2c1.8,0,3.7,0.1,5.5,0.2v-1.1
		c-1.8-0.2-3.4-0.1-4.2-2c-0.7-1.6-0.7-5.2-0.7-7v-16.1h0.1l18.8,22.7c1.1,1.3,2.1,2.7,3.2,4h1.4v-20.7c0-1.9,0.1-6.9,0.6-8.4
		c0.6-2.1,1.9-1.9,3.6-2.1v-1.1c-1.8,0-3.4,0.1-5.1,0.2c-1.8,0-3.5-0.1-5.3-0.2v1.1c2.4,0.4,3.7,0.2,4.3,2.9c0.4,2,0.4,5.3,0.4,7.4
		v13.3h-0.1l-20.3-24.7c-1.2,0-2.5,0.1-3.8,0.2c-1.5,0-3-0.1-4.6-0.2v1.1c2.6,0,3.7,0.8,5.2,2.9V427.5L474.2,427.5z"/>
</g>
<g>
</g>
<g>
</g>
<g>
</g>
<g>
</g>
<g>
</g>
<g>
</g>
<g>
</g>
<g>
</g>
<g>
</g>
<g>
</g>
<g>
</g>
<g>
</g>
</svg>
