<?xml version="1.0" encoding="utf-8"?>
<!-- Generator: Adobe Illustrator 17.1.0, SVG Export Plug-In . SVG Version: 6.00 Build 0)  -->
<!DOCTYPE svg PUBLIC "-//W3C//DTD SVG 1.1//EN" "http://www.w3.org/Graphics/SVG/1.1/DTD/svg11.dtd">
<svg version="1.1" xmlns="http://www.w3.org/2000/svg" xmlns:xlink="http://www.w3.org/1999/xlink" x="0px" y="0px"
	 viewBox="0 0 226.8 141.7" enable-background="new 0 0 226.8 141.7" xml:space="preserve">
<path d="M36.8,107.3c-0.3,0.3-0.7,0.4-1.1,0.4h-4.1c-0.4,0-0.8-0.1-1.1-0.4l-1.7-1.7c-0.3-0.3-0.4-0.7-0.4-1.1v-7.7
	c0-0.4,0.1-0.8,0.4-1.1l1.7-1.7c0.3-0.3,0.7-0.4,1.1-0.4h4.1c0.4,0,0.8,0.1,1.1,0.4l2,2l-1.3,1.3l-1.8-1.8c-0.1-0.1-0.2-0.1-0.3-0.1
	h-3.5c-0.1,0-0.2,0-0.3,0.1l-1.2,1.2c-0.1,0.1-0.1,0.2-0.1,0.3v7.2c0,0.1,0,0.2,0.1,0.3l1.2,1.2c0.1,0.1,0.2,0.1,0.3,0.1h3.5
	c0.1,0,0.2,0,0.3-0.1l1.7-1.8l1.3,1.3L36.8,107.3z M51.8,105.5l-1.7,1.7c-0.3,0.3-0.7,0.4-1.1,0.4h-5.2c-0.4,0-0.8-0.1-1.1-0.4
	l-1.7-1.7c-0.3-0.3-0.4-0.7-0.4-1.1v-7.7c0-0.4,0.1-0.8,0.4-1.1l1.7-1.7c0.3-0.3,0.7-0.4,1.1-0.4H49c0.4,0,0.8,0.1,1.1,0.4l1.7,1.7
	c0.3,0.3,0.5,0.7,0.5,1.1v7.7C52.2,104.9,52.1,105.2,51.8,105.5z M50.3,97c0-0.1-0.1-0.2-0.1-0.3L49,95.5c-0.1-0.1-0.2-0.1-0.3-0.1
	h-4.6c-0.1,0-0.2,0-0.3,0.1l-1.2,1.2c-0.1,0.1-0.1,0.2-0.1,0.3v7.2c0,0.1,0,0.2,0.1,0.3l1.2,1.2c0.1,0.1,0.2,0.1,0.3,0.1h4.6
	c0.1,0,0.2,0,0.3-0.1l1.2-1.2c0.1-0.1,0.1-0.2,0.1-0.3L50.3,97z M62.6,107.7l-5.7-12v12H55V93.5h2.9l5.7,12v-12h1.9v14.2H62.6z
	 M76.7,107.3c-0.3,0.3-0.7,0.4-1.1,0.4h-4.1c-0.4,0-0.8-0.1-1.1-0.4l-1.7-1.7c-0.3-0.3-0.4-0.7-0.4-1.1v-7.7c0-0.4,0.1-0.8,0.4-1.1
	l1.7-1.7c0.3-0.3,0.7-0.4,1.1-0.4h4.1c0.4,0,0.8,0.1,1.1,0.4l2,2l-1.3,1.3l-1.8-1.8c-0.1-0.1-0.2-0.1-0.3-0.1h-3.5
	c-0.1,0-0.2,0-0.3,0.1l-1.2,1.2c-0.1,0.1-0.1,0.2-0.1,0.3v7.2c0,0.1,0,0.2,0.1,0.3l1.2,1.2c0.1,0.1,0.2,0.1,0.3,0.1h3.5
	c0.1,0,0.2,0,0.3-0.1l1.7-1.8l1.3,1.3L76.7,107.3z M89.9,107.7l-4-5.8c-0.1-0.1-0.2-0.2-0.4-0.2h-2.8v6h-1.9V93.5h7.7
	c0.4,0,0.7,0.1,1,0.4l1.3,1.3c0.3,0.3,0.5,0.6,0.5,1.1V99c0,0.4-0.2,0.8-0.4,1.1l-1.3,1.3c-0.3,0.3-0.6,0.4-1,0.4H88l4.3,6H89.9z
	 M89.3,96.5c0-0.1-0.1-0.2-0.1-0.3l-0.7-0.7c-0.1-0.1-0.2-0.1-0.3-0.1h-5.5v4.4h5.4c0.1,0,0.2,0,0.3-0.1l0.7-0.7
	c0.1-0.1,0.1-0.2,0.1-0.3L89.3,96.5z M94,107.7V93.5h9.2v1.9h-7.2v4.3h7.2v1.9h-7.2v4.3h7.2v1.9H94z M111.3,95.4v12.3h-1.9V95.4
	h-4.2v-1.9h10.4v1.9H111.3z M117.8,107.7V93.5h9.2v1.9h-7.2v4.3h7.2v1.9h-7.2v4.3h7.2v1.9H117.8z M143.5,107.7l-0.4-2l-1.6,1.6
	c-0.3,0.3-0.6,0.4-1,0.4h-4.2c-0.4,0-0.8-0.1-1.1-0.4l-1.7-1.7c-0.3-0.3-0.4-0.7-0.4-1.1v-7.7c0-0.4,0.1-0.8,0.4-1.1l1.7-1.7
	c0.3-0.3,0.7-0.4,1.1-0.4h5.2c0.4,0,0.7,0.1,1,0.4l2,2l-1.3,1.3l-1.8-1.8c-0.1-0.1-0.2-0.1-0.3-0.1h-4.6c-0.1,0-0.2,0-0.3,0.1
	l-1.2,1.2c-0.1,0.1-0.1,0.2-0.1,0.3v7.2c0,0.1,0,0.2,0.1,0.3l1.2,1.2c0.1,0.1,0.2,0.1,0.3,0.1h3.6c0.1,0,0.2,0,0.3-0.1l2.2-2.2
	c0.1-0.1,0.1-0.2,0.1-0.3v-1.7H139v-1.9h5.8v5.3l0.6,2.8H143.5z M156.8,107.7l-4-5.8c-0.1-0.1-0.2-0.2-0.4-0.2h-2.8v6h-1.9V93.5h7.7
	c0.4,0,0.7,0.1,1,0.4l1.3,1.3c0.3,0.3,0.5,0.6,0.5,1.1V99c0,0.4-0.2,0.8-0.4,1.1l-1.3,1.3c-0.3,0.3-0.6,0.4-1,0.4h-0.5l4.3,6H156.8z
	 M156.1,96.5c0-0.1-0.1-0.2-0.1-0.3l-0.7-0.7c-0.1-0.1-0.2-0.1-0.3-0.1h-5.5v4.4h5.4c0.1,0,0.2,0,0.3-0.1L156,99
	c0.1-0.1,0.1-0.2,0.1-0.3L156.1,96.5z M171.8,105.5l-1.7,1.7c-0.3,0.3-0.7,0.4-1.1,0.4h-5.2c-0.4,0-0.8-0.1-1.1-0.4l-1.7-1.7
	c-0.3-0.3-0.4-0.7-0.4-1.1v-7.7c0-0.4,0.1-0.8,0.4-1.1l1.7-1.7c0.3-0.3,0.7-0.4,1.1-0.4h5.2c0.4,0,0.8,0.1,1.1,0.4l1.7,1.7
	c0.3,0.3,0.5,0.7,0.5,1.1v7.7C172.2,104.9,172,105.2,171.8,105.5z M170.3,97c0-0.1-0.1-0.2-0.1-0.3l-1.2-1.2
	c-0.1-0.1-0.2-0.1-0.3-0.1H164c-0.1,0-0.2,0-0.3,0.1l-1.2,1.2c-0.1,0.1-0.1,0.2-0.1,0.3v7.2c0,0.1,0,0.2,0.1,0.3l1.2,1.2
	c0.1,0.1,0.2,0.1,0.3,0.1h4.6c0.1,0,0.2,0,0.3-0.1l1.2-1.2c0.1-0.1,0.1-0.2,0.1-0.3L170.3,97z M184.9,105.5l-1.7,1.7
	c-0.3,0.3-0.7,0.4-1.1,0.4h-4c-0.4,0-0.8-0.1-1.1-0.4l-1.7-1.7c-0.3-0.3-0.4-0.7-0.4-1.1V93.5h1.9v10.7c0,0.1,0,0.2,0.1,0.3l1.2,1.2
	c0.1,0.1,0.2,0.1,0.3,0.1h3.3c0.1,0,0.2,0,0.3-0.1l1.2-1.2c0.1-0.1,0.1-0.2,0.1-0.3V93.5h2v10.9
	C185.3,104.9,185.2,105.2,184.9,105.5z M198,100l-1.3,1.3c-0.3,0.3-0.6,0.4-1,0.4h-5.8v6H188V93.5h7.7c0.4,0,0.7,0.1,1,0.4l1.3,1.3
	c0.3,0.3,0.5,0.6,0.5,1.1V99C198.4,99.4,198.3,99.7,198,100z M196.5,96.5c0-0.1-0.1-0.2-0.1-0.3l-0.7-0.7c-0.1-0.1-0.2-0.1-0.3-0.1
	h-5.5v4.4h5.4c0.1,0,0.2,0,0.3-0.1l0.7-0.7c0.1-0.1,0.1-0.2,0.1-0.3L196.5,96.5z"/>
<path d="M204.1,56.7c-3.1,0-5.7-2.5-5.7-5.7c0-3.1,2.5-5.7,5.7-5.7c3.1,0,5.7,2.5,5.7,5.7C209.8,54.2,207.2,56.7,204.1,56.7z
	 M204.1,46.1c-2.7,0-4.9,2.2-4.9,4.9c0,2.7,2.2,4.9,4.9,4.9c2.7,0,4.9-2.2,4.9-4.9C208.9,48.3,206.8,46.1,204.1,46.1z M205.9,54.6
	l-2.1-3c-0.1-0.1-0.2-0.1-0.3-0.1h-0.7v3.1h-0.8v-7.1h3.1c0.3,0,0.6,0.1,0.8,0.3l0.5,0.5c0.2,0.2,0.3,0.4,0.3,0.8v0.8
	c0,0.3,0,0.6-0.3,0.8l-0.5,0.5c-0.2,0.2-0.5,0.3-0.8,0.3h-0.6l2.2,3.1H205.9z M205.9,49c0-0.1,0-0.2-0.1-0.2l-0.5-0.5
	c0-0.1-0.1-0.1-0.2-0.1h-2.2v2.5h2.2c0.1,0,0.2,0,0.2-0.1l0.5-0.5c0.1,0,0.1-0.1,0.1-0.2V49z"/>
<path d="M186,85h-6.8c-0.6,0-1.5-0.4-1.9-0.8l-3.7-3.7l4-4l2.4,2.4c0.2,0.2,0.7,0.4,1,0.4h5.1V85z M190.5,74.6
	c0.6,0.1,1.1,0.6,1.1,1.1v2c0,0.3-0.2,0.7-0.4,1l-0.3,0.3c-0.2,0.2-0.7,0.4-1,0.4h-2.8V85h4.5c0.6,0,1.5-0.4,1.9-0.8l4.1-4.1
	c0.4-0.4,0.8-1.3,0.8-1.9v-4.8c0-1.7-1.5-3.4-3.3-3.8l-12.6-2.5c-0.6-0.1-1.1-0.6-1.1-1.1v-2c0-0.3,0.2-0.7,0.4-1l0.3-0.3
	c0.2-0.2,0.7-0.4,1-0.4h2.8v-5.7h-5.7c-0.6,0-1.5,0.4-1.9,0.8l-2.9,2.9c-0.4,0.4-0.8,1.3-0.8,1.9v6c0,1.7,1.5,3.4,3.3,3.8
	L190.5,74.6z M187.1,62.4h2.8c0.3,0,0.7,0.2,1,0.4l2.4,2.4l4-4l-3.7-3.7c-0.4-0.4-1.3-0.8-1.9-0.8h-4.5V62.4z M162.1,78.2l-0.7,0.7
	c-0.2,0.2-0.7,0.4-1,0.4h-6.8c-0.3,0-0.7-0.2-1-0.4l-0.3-0.3c-0.2-0.2-0.4-0.7-0.4-1v-2.3c0-0.3,0.2-0.7,0.4-1l0.3-0.3
	c0.2-0.2,0.7-0.4,1-0.4h8.5V68h-11.3c-0.6,0-1.5,0.4-1.9,0.8l-2.9,2.9c-0.4,0.4-0.8,1.3-0.8,1.9v5.7c0,0.6,0.4,1.5,0.8,1.9l2.9,2.9
	c0.4,0.4,1.3,0.8,1.9,0.8h11.3V78.2z M170.5,78.6c-0.2-0.2-0.4-0.7-0.4-1V62.4c0-0.6-0.4-1.5-0.8-1.9l-2.9-2.9
	c-0.4-0.4-1.3-0.8-1.9-0.8h-12.5c-0.6,0-1.5,0.4-1.9,0.8l-3.7,3.7l4,4l2.4-2.4c0.2-0.2,0.7-0.4,1-0.4h7.9c0.3,0,0.7,0.2,1,0.4
	l0.3,0.3c0.2,0.2,0.4,0.7,0.4,1v20.7c0.3-0.1,0.6-0.3,0.8-0.5l2-2l2.8,2.8l4-4L170.5,78.6z M142.1,60.4l-2.9-2.9
	c-0.4-0.4-1.3-0.8-1.9-0.8h-6.8c-0.6,0-1.5,0.4-1.9,0.8l-0.3,0.3v7.9l3-3c0.2-0.2,0.7-0.4,1-0.4h2.3c0.3,0,0.7,0.2,1,0.4l0.3,0.3
	c0.2,0.2,0.4,0.7,0.4,1v21h6.8V62.4C142.9,61.7,142.5,60.9,142.1,60.4z M126.2,60.4l-2.9-2.9c-0.4-0.4-1.3-0.8-1.9-0.8h-6.8
	c-0.6,0-1.5,0.4-1.9,0.8l-0.3,0.3v7.9l3-3c0.2-0.2,0.7-0.4,1-0.4h2.3c0.3,0,0.7,0.2,1,0.4l0.3,0.3c0.2,0.2,0.4,0.7,0.4,1v21h6.8
	V62.4C127,61.7,126.6,60.9,126.2,60.4z M110,56.7h-6.8l1,4c0.1,0.3,0.1,0.8,0.1,1.1V85h6.8V61.8c0-0.3-0.1-0.8-0.1-1.1L110,56.7z
	 M100.1,60.4l-2.9-2.9c-0.4-0.4-1.3-0.8-1.9-0.8h-6.8v5.7h4c0.3,0,0.7,0.2,1,0.4l0.3,0.3c0.2,0.2,0.4,0.7,0.4,1v13.6
	c0,0.3-0.2,0.7-0.4,1L93.4,79c-0.2,0.2-0.7,0.4-1,0.4h-4V85h6.8c0.6,0,1.5-0.4,1.9-0.8l2.9-2.9c0.4-0.4,0.8-1.3,0.8-1.9v-17
	C100.9,61.7,100.6,60.9,100.1,60.4z M87.3,79.4h-4c-0.3,0-0.7-0.2-1-0.4L82,78.6c-0.2-0.2-0.4-0.7-0.4-1V64.1c0-0.3,0.2-0.7,0.4-1
	l0.3-0.3c0.2-0.2,0.7-0.4,1-0.4h4v-5.7h-6.8c-0.6,0-1.5,0.4-1.9,0.8l-2.9,2.9c-0.4,0.4-0.8,1.3-0.8,1.9v17c0,0.6,0.4,1.5,0.8,1.9
	l2.9,2.9c0.4,0.4,1.3,0.8,1.9,0.8h6.8V79.4z M70.6,60.4l-2.9-2.9c-0.4-0.4-1.3-0.8-1.9-0.8H59c-0.6,0-1.5,0.4-1.9,0.8L55.6,59v7.9
	l4.1-4.1c0.2-0.2,0.7-0.4,1-0.4h2.3c0.3,0,0.7,0.2,1,0.4l0.3,0.3c0.2,0.2,0.4,0.7,0.4,1v21h6.8V62.4C71.4,61.7,71.1,60.9,70.6,60.4z
	 M54.4,45.4h-6.8V85h6.8V45.4z M28.3,85h6.8V53.3h-6.8V85z M46.5,45.4H17v6.8h29.5V45.4z"/>
<g>
	<path d="M167.9,41.2L155,45c0.3,0.5,0.6,0.9,0.9,1.2l1.8,2l9.8,0c1.7,0,4.4-0.6,6-1.4l22.6-11.4c1.5-0.8,2.6-2.8,2.3-4.5l-1.3-8.1
		l-26.3,17.1C170,40.4,168.7,41,167.9,41.2z"/>
	<path fill="#E0DFDB" d="M167.6,20.1c-0.9,0.1-2.2,0.5-2.9,1l-15.8,9.6c0.1,0.6,0.2,1.2,0.4,1.6l5,11.4c0.2,0.4,0.5,0.9,0.8,1.4
		l12.9-3.8c0.8-0.2,2.1-0.8,2.8-1.3L197,22.8l-0.7-4.3c-0.1-0.4-0.2-0.8-0.4-1.2L167.6,20.1z"/>
	<path fill="#41C0F0" d="M192.7,14.9l-25.1-3.5c-1.7-0.2-4.5,0-6.1,0.6L151,15.6l-2.2,13.7c-0.1,0.4-0.1,0.9,0,1.4l15.8-9.6
		c0.7-0.4,2-0.9,2.9-1l28.3-2.9C195.2,16,194,15.1,192.7,14.9z"/>
	<path fill="#E63312" d="M151,15.6l-5.3,1.8c-1.6,0.6-3.1,2.4-3.2,4.2l-0.7,9.2c-0.1,1.7,0.3,4.4,1,6l3.7,8.5
		c0.7,1.6,2.7,2.9,4.4,2.9h6.9l-1.8-2c-0.6-0.6-1.4-1.8-1.7-2.6l-5-11.4c-0.3-0.8-0.5-2.1-0.4-3L151,15.6z"/>
</g>
</svg>
