<?xml version="1.0" encoding="utf-8"?>
<!-- Generator: Adobe Illustrator 17.1.0, SVG Export Plug-In . SVG Version: 6.00 Build 0)  -->
<!DOCTYPE svg PUBLIC "-//W3C//DTD SVG 1.1//EN" "http://www.w3.org/Graphics/SVG/1.1/DTD/svg11.dtd">
<svg version="1.1" id="Layer_1" xmlns="http://www.w3.org/2000/svg" xmlns:xlink="http://www.w3.org/1999/xlink" x="0px" y="0px"
	 viewBox="0 0 297.6 420.9" enable-background="new 0 0 297.6 420.9" xml:space="preserve">
<g>
	<path d="M62.4,224.4h9.1v1h-7.9v6.3h6.6v1h-6.6v7.3h8.2v1h-9.3V224.4z M62.4,224.4"/>
	<path d="M77.2,234.7l-3.8-5.8h1.2l2,3.1c0.4,0.7,0.8,1.3,1.3,2h0.1c0.4-0.7,0.8-1.3,1.2-2l1.9-3.1h1.2l-3.7,5.9l4.1,6.2h-1.2
		l-2.1-3.3c-0.5-0.8-0.9-1.5-1.4-2.2h-0.1c-0.5,0.7-0.9,1.5-1.4,2.2l-2.1,3.3h-1.2L77.2,234.7z M77.2,234.7"/>
	<path d="M86.3,242.1v4.4h-1.1v-17.5h1l0.1,1.5h0.1c1.2-0.9,2.6-1.8,4.1-1.8c3.2,0,4.8,2.4,4.8,6.2c0,4.1-2.5,6.5-5.3,6.5
		c-1.1,0-2.4-0.5-3.6-1.5V242.1z M89.9,240.3c2.4,0,4.2-2.3,4.2-5.5c0-3-1.1-5.2-3.8-5.2c-1.2,0-2.5,0.7-3.9,2v7.2
		C87.7,239.9,89,240.3,89.9,240.3L89.9,240.3z M89.9,240.3"/>
	<path d="M103,228.6c2.9,0,4.6,2,4.6,5.6c0,0.3,0,0.6-0.1,0.9h-8.7c0.1,3,1.8,5.2,4.6,5.2c1.3,0,2.3-0.4,3.2-1.1l0.4,0.9
		c-1,0.6-2,1.2-3.8,1.2c-3.1,0-5.6-2.4-5.6-6.3C97.8,231,100.3,228.6,103,228.6L103,228.6z M106.6,234.3c0-3.1-1.4-4.7-3.5-4.7
		c-2.1,0-3.9,1.8-4.1,4.7H106.6z M106.6,234.3"/>
	<path d="M110.8,228.9h1l0.1,2.2h0.1c0.8-1.5,2-2.5,3.4-2.5c0.5,0,0.8,0,1.2,0.2l-0.2,1c-0.4-0.2-0.6-0.2-1.1-0.2
		c-1.1,0-2.4,0.8-3.3,3.1v8.2h-1.1V228.9z M110.8,228.9"/>
	<path d="M118.2,225c0-0.6,0.5-1,1-1c0.5,0,1,0.4,1,1c0,0.6-0.5,1-1,1C118.6,226,118.2,225.6,118.2,225L118.2,225z M118.6,228.9h1.1
		V241h-1.1V228.9z M118.6,228.9"/>
	<path d="M128.5,228.6c2.9,0,4.6,2,4.6,5.6c0,0.3,0,0.6,0,0.9h-8.7c0,3,1.8,5.2,4.5,5.2c1.3,0,2.3-0.4,3.2-1.1l0.5,0.9
		c-1,0.6-2,1.2-3.8,1.2c-3.1,0-5.6-2.4-5.6-6.3C123.2,231,125.8,228.6,128.5,228.6L128.5,228.6z M132.1,234.3c0-3.1-1.4-4.7-3.5-4.7
		c-2.1,0-3.9,1.8-4.1,4.7H132.1z M132.1,234.3"/>
	<path d="M136.2,228.9h1l0.1,1.9h0.1c1.2-1.2,2.5-2.2,4.1-2.2c2.5,0,3.6,1.5,3.6,4.6v7.7h-1.1v-7.6c0-2.6-0.8-3.8-2.8-3.8
		c-1.4,0-2.5,0.8-3.9,2.3v9.1h-1.1V228.9z M136.2,228.9"/>
	<path d="M154,228.6c1.7,0,2.7,0.7,3.5,1.5l-0.7,0.8c-0.8-0.7-1.7-1.3-2.9-1.3c-2.5,0-4.4,2.2-4.4,5.4c0,3.2,1.7,5.3,4.4,5.3
		c1.3,0,2.4-0.6,3.2-1.4l0.6,0.8c-1,0.9-2.3,1.6-3.8,1.6c-3.1,0-5.5-2.3-5.5-6.3C148.5,230.9,151,228.6,154,228.6L154,228.6z
		 M154,228.6"/>
	<path d="M164.5,228.6c2.9,0,4.6,2,4.6,5.6c0,0.3,0,0.6-0.1,0.9h-8.7c0.1,3,1.8,5.2,4.6,5.2c1.3,0,2.3-0.4,3.2-1.1l0.5,0.9
		c-1,0.6-2,1.2-3.8,1.2c-3.1,0-5.6-2.4-5.6-6.3C159.2,231,161.8,228.6,164.5,228.6L164.5,228.6z M168,234.3c0-3.1-1.4-4.7-3.5-4.7
		c-2.1,0-3.9,1.8-4.1,4.7H168z M168,234.3"/>
	<path d="M183.6,224.3c2,0,3.6,1,4.7,2.1l-1.6,1.8c-0.8-0.8-1.8-1.4-3-1.4c-2.7,0-4.6,2.3-4.6,6c0,3.7,1.8,6,4.5,6
		c1.5,0,2.5-0.6,3.4-1.6l1.6,1.8c-1.3,1.5-3.1,2.4-5.1,2.4c-4.2,0-7.5-3-7.5-8.5C176,227.5,179.4,224.3,183.6,224.3L183.6,224.3z
		 M183.6,224.3"/>
	<path d="M190.9,223.3h2.9v4.6l-0.1,2.4c1-1,2.3-1.9,3.9-1.9c2.6,0,3.8,1.8,3.8,4.9v7.7h-2.9v-7.4c0-2-0.6-2.8-1.9-2.8
		c-1.1,0-1.8,0.5-2.8,1.5v8.6h-2.9V223.3z M190.9,223.3"/>
	<path d="M211.6,233.1c0-1.3-0.6-2.4-2.2-2.4c-1.2,0-2.4,0.6-3.5,1.2l-1.1-1.9c1.4-0.9,3.1-1.6,5.1-1.6c3.1,0,4.6,1.9,4.6,5.3v7.3
		h-2.4l-0.2-1.4h-0.1c-1.1,0.9-2.4,1.7-3.8,1.7c-2.2,0-3.7-1.5-3.7-3.6C204.3,235,206.5,233.7,211.6,233.1L211.6,233.1z M208.9,239
		c1,0,1.8-0.5,2.7-1.4v-2.8c-3.3,0.4-4.4,1.3-4.4,2.5C207.1,238.6,207.9,239,208.9,239L208.9,239z M208.9,239"/>
	<path d="M217.9,228.7h2.4l0.2,1.7h0.1c1.1-1.1,2.4-2,4-2c2.6,0,3.8,1.8,3.8,4.9v7.7h-2.9v-7.4c0-2-0.6-2.8-1.9-2.8
		c-1.1,0-1.8,0.5-2.8,1.5v8.6h-2.9V228.7z M217.9,228.7"/>
	<path d="M232.2,240.6L232.2,240.6c-0.6-0.5-1.1-1.2-1.1-2.2c0-1,0.7-1.8,1.4-2.3V236c-0.8-0.6-1.6-1.8-1.6-3.3
		c0-2.8,2.3-4.4,4.9-4.4c0.7,0,1.3,0.1,1.8,0.3h4.4v2.1h-2.3c0.4,0.5,0.7,1.2,0.7,2.1c0,2.7-2.1,4.2-4.7,4.2c-0.5,0-1.1-0.1-1.7-0.3
		c-0.4,0.3-0.6,0.6-0.6,1.2c0,0.7,0.5,1.1,2,1.1h2.2c3,0,4.5,0.9,4.5,3c0,2.4-2.6,4.3-6.6,4.3c-2.9,0-5.1-1.1-5.1-3.2
		C230.5,242.2,231.1,241.3,232.2,240.6L232.2,240.6z M236,244.6c2,0,3.3-0.9,3.3-2c0-1-0.8-1.2-2.2-1.2h-1.7c-0.7,0-1.2-0.1-1.7-0.2
		c-0.6,0.5-1,1.1-1,1.6C232.9,243.9,234.1,244.6,236,244.6L236,244.6z M237.9,232.8c0-1.5-0.9-2.4-2.1-2.4s-2.2,0.9-2.2,2.4
		c0,1.6,1,2.5,2.2,2.5C236.9,235.3,237.9,234.4,237.9,232.8L237.9,232.8z M237.9,232.8"/>
	<path d="M248.7,228.4c3.3,0,5.1,2.4,5.1,5.9c0,0.6,0,1.1-0.1,1.4h-7.8c0.2,2.2,1.7,3.5,3.6,3.5c1.1,0,2-0.3,2.9-0.9l1,1.8
		c-1.2,0.8-2.7,1.3-4.2,1.3c-3.4,0-6.1-2.4-6.1-6.5C243,230.8,245.8,228.4,248.7,228.4L248.7,228.4z M251.3,233.7
		c0-2-0.8-3.1-2.5-3.1c-1.5,0-2.7,1.1-3,3.1H251.3z M251.3,233.7"/>
	<path d="M62.4,216.5v-27h13.5c6.1,0,9.4,4.1,9.4,9c0,4.9-3.3,8.9-9.4,8.9h-6.6v9.1H62.4z M78.2,198.5c0-1.9-1.5-2.9-3.4-2.9h-5.5
		v5.8h5.5C76.7,201.4,78.2,200.3,78.2,198.5L78.2,198.5z M78.2,198.5"/>
	<path d="M89.9,216.4v-27h19.8v6.1H96.9v4.2h12.5v6.1H96.9v4.6h12.8v6.1H89.9z M89.9,216.4"/>
	<path d="M116,216.4v-27h7v20.9h10.8v6.1H116z M116,216.4"/>
	<path d="M158.6,216.4l-1.3-3.9h-10.6l-1.3,3.9h-7.9l10.2-27h8.8l10.2,27H158.6z M151.9,196.2l-3.4,10.2h6.8L151.9,196.2z
		 M151.9,196.2"/>
	<path d="M168.2,202.9c0-8.6,6.6-14,14.6-14c6,0,9.7,3.2,11.5,6.6l-5.8,3c-1-1.8-3.1-3.4-5.7-3.4c-4.4,0-7.5,3.4-7.5,7.8
		c0,4.4,3.1,7.8,7.5,7.8c2,0,4-0.8,5-1.6V207h-6.1v-6.1h13v10.7c-2.9,3.2-6.8,5.3-11.9,5.3C174.7,216.8,168.2,211.5,168.2,202.9
		L168.2,202.9z M168.2,202.9"/>
	<rect x="201.2" y="189.4" width="7" height="27"/>
	<path d="M213.4,202.9c0-8.3,6.3-14,14.6-14c6.5,0,10,3.7,11.8,7.2l-6,2.9c-0.9-2.1-3.2-3.9-5.8-3.9c-4.4,0-7.5,3.4-7.5,7.8
		c0,4.4,3.1,7.8,7.5,7.8c2.6,0,4.9-1.8,5.8-3.9l6,2.8c-1.7,3.4-5.3,7.2-11.8,7.2C219.7,216.8,213.4,211.2,213.4,202.9L213.4,202.9z
		 M213.4,202.9"/>
	<path d="M242.8,202.9c0-8.2,6.2-14,14.4-14c8.2,0,14.4,5.7,14.4,14c0,8.2-6.2,14-14.4,14C249,216.8,242.8,211.1,242.8,202.9
		L242.8,202.9z M264.6,202.9c0-4.4-2.9-7.8-7.3-7.8c-4.5,0-7.4,3.4-7.4,7.8c0,4.4,2.9,7.8,7.4,7.8
		C261.7,210.7,264.6,207.3,264.6,202.9L264.6,202.9z M264.6,202.9"/>
	<g>
		<defs>
			<rect id="SVGID_1_" x="-28" y="172.9" width="352.8" height="75.8"/>
		</defs>
		<clipPath id="SVGID_2_">
			<use xlink:href="#SVGID_1_"  overflow="visible"/>
		</clipPath>
		<path clip-path="url(#SVGID_2_)" d="M291.9,216.4l-4.5-9.1h-3.6v9.1h-7v-27h13.5c6,0,9.4,4,9.4,9c0,4.7-2.8,7.2-5.4,8.1l5.5,9.9
			H291.9z M292.6,198.3c0-1.9-1.5-2.9-3.4-2.9h-5.5v5.8h5.5C291.1,201.2,292.6,200.2,292.6,198.3L292.6,198.3z M292.6,198.3"/>
		<path clip-path="url(#SVGID_2_)" d="M305,216.4v-27h19.8v6.1H312v4.2h12.5v6.1H312v4.6h12.8v6.1H305z M305,216.4"/>
	</g>
	<path fill="#EA8900" d="M10.6,173.6c-21.3,0-38.6,17.3-38.6,38.6c0,16.1,9.8,29.8,23.8,35.6l3.1-14.5c-7.4-4.1-12.4-12-12.4-21.1
		c0-13.3,10.8-24.1,24.1-24.1c7.5,0,14.2,3.4,18.7,8.8l12.7,0.2l-7.7,9.9c0.4,1.7,0.6,3.4,0.6,5.2c0,9.1-5,17-12.4,21.1l3.1,14.5
		c14-5.8,23.8-19.6,23.8-35.6C49.2,190.9,31.9,173.6,10.6,173.6L10.6,173.6z M10.6,173.6"/>
	<path fill="#EA8900" d="M21.9,207.5c0,2.8-2.3,5.1-5.1,5.1c-2.8,0-5.1-2.3-5.1-5.1c0-2.8,2.3-5.1,5.1-5.1
		C19.6,202.4,21.9,204.7,21.9,207.5L21.9,207.5z M21.9,207.5"/>
</g>
</svg>
