<?xml version="1.0" encoding="utf-8"?>
<!-- Generator: Adobe Illustrator 17.1.0, SVG Export Plug-In . SVG Version: 6.00 Build 0)  -->
<!DOCTYPE svg PUBLIC "-//W3C//DTD SVG 1.1//EN" "http://www.w3.org/Graphics/SVG/1.1/DTD/svg11.dtd">
<svg version="1.1" xmlns="http://www.w3.org/2000/svg" xmlns:xlink="http://www.w3.org/1999/xlink" x="0px" y="0px"
	 viewBox="0 0 283.5 283.5" enable-background="new 0 0 283.5 283.5" xml:space="preserve">
<path d="M141.7,0C63.5,0,0,63.5,0,141.7C0,220,63.5,283.5,141.7,283.5c78.3,0,141.7-63.5,141.7-141.7C283.5,63.5,220,0,141.7,0z
	 M141.7,265.7c-68.5,0-124-55.5-124-124c0-68.5,55.5-124,124-124c68.5,0,124,55.5,124,124C265.7,210.2,210.2,265.7,141.7,265.7z"/>
<path d="M207.5,88.6l25.6,44.3l13-13l-28.3-49H76L65.8,88.6h36.8l-10.6,39.7l-18.6-10.8l-4.7,17.7L87.1,146L74,194.9H53.1v17.7h62
	v-17.7H92.4l10.6-39.7l29.9,17.2l29.9-17.2l10.6,39.7h-22.8v17.7h62v-17.7h-20.9L178.6,146l13-7.5l13.1,22.7l13-13l-19.6-33.9
	l-24.2,14l-10.6-39.7H207.5z M158,137.5L132.9,152l-25.1-14.5l13.1-48.9h24L158,137.5z"/>
<path d="M132.9,26.6c-9.8,0-17.7,7.9-17.7,17.7S123.1,62,132.9,62c9.8,0,17.7-7.9,17.7-17.7S142.7,26.6,132.9,26.6z M132.9,51.4
	c-3.9,0-7.1-3.2-7.1-7.1s3.2-7.1,7.1-7.1c3.9,0,7.1,3.2,7.1,7.1S136.8,51.4,132.9,51.4z"/>
</svg>
