<?xml version="1.0" encoding="utf-8"?>
<!-- Generator: Adobe Illustrator 17.1.0, SVG Export Plug-In . SVG Version: 6.00 Build 0)  -->
<!DOCTYPE svg PUBLIC "-//W3C//DTD SVG 1.1//EN" "http://www.w3.org/Graphics/SVG/1.1/DTD/svg11.dtd">
<svg version="1.1" id="Lager_1" xmlns="http://www.w3.org/2000/svg" xmlns:xlink="http://www.w3.org/1999/xlink" x="0px" y="0px"
	 viewBox="0 0 841.9 595.3" enable-background="new 0 0 841.9 595.3" xml:space="preserve">
<g id="XMLID_376_">
	<path id="XMLID_106_" fill-rule="evenodd" clip-rule="evenodd" fill="#2782A3" d="M579.5,253.4c0.8,0,1.2-0.6,1.9-0.7
		c0.4-0.9,0.1-1.4,0.2-2.1c-0.6-0.4-0.6-1.3-1-1.8c-3-0.9-5.6-1-8.1-1.1c0,0.1,0,0.2-0.1,0.3c-1-0.5-1.6-0.1-2.5-0.3
		c-3.1,0.3-6.4,0.3-9.6,0.4c-2.2,0.3-4.8,0-7,0.4c-1.5,0.2-2.9,0.4-4.6,0.1c-0.1,0.3-0.6,0.1-0.9,0.1c-0.3,0.6-1.5-0.1-1.4,1.2
		c-0.6,0-0.7-0.4-1-0.5c-0.8-0.4-0.9,0.3-1.7-0.1c-2.8,0.4-5.8,0.2-8.5,0.6c-0.8,0.1-2.5,0-3.6,0.6c-0.8-0.2-1.7,0.3-2.2-0.5
		c0.4-0.7,1.5-0.3,2.4-0.3c0.7-0.5,2.1,0.2,2.9-0.2c2.7-1,6.3-1,9.9-1.5c0.5-0.3,1.3-0.2,2.1-0.1c0.6-0.2,1.1-0.5,1.8-0.4
		c5.4-0.5,11.9-1.2,17.5-2.1c4.5-0.7,10.8-0.7,13.4-1.9c0.7-0.3,1.3-0.6,1.5-1.8c-0.5-1.9-1.9-3.7-4.1-3.8c-0.2,0-0.4-0.1-0.5-0.1
		c0.4-1.9-1.6-2.3-0.7-4.5c1.6-0.5,3.4-0.6,5.1-0.9c1.3-1.9-0.7-2.9-0.7-4.8c-1.6-0.1-2.8-0.1-4.2-0.7c-1,0.5-2.6,0.1-4-0.1
		c-1.5,0.3-4.2,0.6-5.5-0.1c1.3-0.8,2.8-1.1,4.6-1c1-0.5,2.4-0.4,3.4-1c0.6-3.3-1.3-5.4-4.9-5.2c-1.4,0.5-4.5,0.3-5.1-1.9
		c-0.1-0.7-0.6-1.2-0.4-2.2c1-0.2,1.9-0.6,3-0.5c5-0.8,10.4-1.2,14.8-3c0.8-1.8-0.7-2-0.4-3.5c-0.5-1.3-1.8-0.5-3.2-1.1
		c-2.7,0.2-5.6,0-8.4,0.1c-2.4-0.2-5.6,1.1-7.4-0.6c0-0.1,0-0.2,0.1-0.3c-0.2-3.9-7.5-2.8-7.5-2.8c-1,0.2-2.1,0.4-3.5,0.1
		c0.7-1.1,2.3-0.7,2.6-2.4c0.3-1.3-1.1-1.4-0.8-2.7c-0.1,0-0.2-0.1-0.3-0.1c1.8-3.1,1.3-6.6-2.1-7.6c1.6-1.7,0.5-2.9,0.5-4.8
		c-0.4-1-1.9-1.9-3.1-1.7c-1,0-1.6,0.5-2.9-0.1c-0.6-1.9-0.3-4.2-2-5.4c-1.2-1-2.7-0.4-4.4-1.1c-3.4,0.5-8.9,1-9.1-3.5
		c-2.2-0.9-3.3,0.3-5.2-0.1c-2.7-0.1-5.1,0.3-7.8,0.2c-1.2,0.5-2.6,0.6-4.2,0.5c-5,0.4-9.8,1.1-15,1.2c-1.1,0.2-1.9,1-3.5,0.3
		c-5.4,0.3-10.5,1.1-15.9,1.2c-2,0.4-4.2,0.6-6.5,0.5c0.7-0.9,1.8-1,2.9-1.1c12-3.4,25.2-4.7,38.1-6.4c0.4-2.2-0.4-3.6-1.6-4.7
		c-21.1,3.8-43.9,4-65.7,6.7c0-0.1,0.1-0.3,0.1-0.4c-1.1-5.6-8.1-6.1-13.2-5.1c-2.9,0.4-5.5,1.5-8.6,1.5c-2.9,0.4-5.6,1.2-8.6,1.5
		c-0.6,0.6-1.8,0-2.6,0.3c-1.4,0.9-3.3,0.8-5,1c-1.6,0.8-3.9,0.6-5.8,0.8c-5.4,1.4-11.7,1.3-16.7,3.2c-0.4,0.1-0.8,0.3-1.3,0.1
		c-1.3,0.3-2.4,0.8-4,0.4c-2.2,0.6-4.6,0.9-7.1,1c-5.6,1.2-11.4,2.1-17.8,2c-0.9,0-1.4,0.8-2.7,0.3c-1.9,0.6-3.8,1.1-6.2,0.7
		c-1.3,0.4-3,0-4.4,0.3c-3.2,0.3-6.4,0.6-9.7,0.8c-3.4-0.8-5.2,1-8.4,0.6c-1.8,0.3-3.9,0-5.4,1c-0.2,0.3-0.5,0.3-0.6,0.8
		c-0.2,1,1.7,0.6,2.4,1.1c-0.3,1.3,1.2,1.4,2.2,1.9c0.7-0.5,1.9,0,3,0.3c0-0.2,0.1-0.3,0.1-0.4c0.8,0.2,1.6,0.4,2.5,0.6
		c1-0.7,2.4-0.8,4-0.4c0.7-0.6,2.4,0.4,3.1-0.2c2.9-0.4,5.8-0.8,9.2-0.5c1.2-0.3,2.1-1.2,4-0.4c2.5-0.8,5.7-0.2,8.4-0.7
		c0.3-0.9,1.8,0.3,2.6,0.2l4,1.5c-0.5,1-1.8,0.6-2.8,0.7c-1,0.2-1.6,0.8-3.1,0.2c-1.1,0.8-2.3,1.3-4.1,0.8c-1.8,0.1-2.9,1.4-5.3,0.5
		c-0.5,1.2-2.1,0.3-3.2,0.6c-3.3,0.4-6.2,1.3-9.8,1.2c-4.3,0.8-9,1-13.4,1.7c-4.6,0.3-8.6,1.7-13.4,1.7c-1.9,1.4-5.4-0.1-6.6,2.5
		c-0.9,4.6,5.1,7.9,9.1,6c0.3,0.1,0.6,0.1,0.8,0.2c2,0.7,3.1-0.3,5.1,0.4c0.1,0,0.3,0.1,0.4,0.1c0.8-0.7,2.6,0.4,3.5-0.1
		c0.5-0.9,2.3,0.4,3.4,0.4c-0.5,0.7-1.6,0.4-2.3,0.8c-1.3,0.4-2.9,0.2-4.4,0.3c0,0.1-0.1,0.3-0.1,0.4c-6.2,0.5-11.9,1.6-17.9,2.4
		c-1.6,0.7-3.9,0.1-5.1,1.5c-1.1,3.1,1.3,3.9,1.7,5.9c5,1.1,9.4,1.2,13.6,1.1c0.8-0.6,2.1-0.5,3.5-0.1c2,0.3,3.1-1,5.6,0l0.7,2.9
		c-1.6,0.9-3.6,1-5.8,0.9c-6,1.3-12.8,1.4-18.8,2.7c-2.4,0.4-4.9,0.8-7.6,0.8c-0.5,0.6-1.2,0.7-2.2,0.4c-2.3,0.7-4.6,1.3-7.2,1.4
		c-2.8,1.2-6.8,0.9-7.1,4.7c0,0.6,0.5,0.9,0.5,1.5c1.2,2.4,3.6,3.6,7,3.6c-0.1,1.2-1.1,0.9-1.9,0.9c-0.7,0.4-1.3,1-2.3,0.8
		c-1.6,5.4,2.2,7.1,7.1,7.3c2.2-0.5,4.8-0.2,6,0.1c-1.8,0.8-3.8,1.2-5.9,1.3c-4.3,1.1-8.9,1.6-13.5,2.2c-1.1-0.7-1.2,0.4-2.1-0.1
		l-1.5,1c-1.2,0-1.8,0.9-2.9,1.1c-0.6,1.4-0.2,2.1-0.3,3.2c0.9,0.6,0.9,1.9,1.6,2.7c4.5,1.3,8.4,1.6,12.2,1.7c0-0.1,0.1-0.3,0.1-0.4
		c1.6,0.7,2.4,0.2,3.8,0.5c4.6-0.5,9.6-0.4,14.4-0.5c3.4-0.4,7.2,0,10.5-0.6c2.2-0.2,4.3-0.6,6.9-0.1c0.2-0.5,0.8-0.2,1.3-0.1
		c0.5-0.9,2.2,0.2,2.1-1.8c0.9,0,1,0.6,1.6,0.8c1.2,0.6,1.4-0.4,2.6,0.2l-1.3,2c-0.8,0.5-2,0.2-3.1,0.1c-0.9,0.3-1.7,0.7-2.8,0.7
		c-8.2,0.8-17.9,1.8-26.3,3.1c-6.7,1-16.2,1-20.1,2.8c-1,0.4-2,0.8-2.3,2.6c0.7,2.9,2.9,5.5,6.1,5.7c0.3,0.1,0.5,0.1,0.8,0.2
		c-0.6,2.9,2.3,3.4,1.1,6.7c-2.4,0.7-5.1,0.9-7.7,1.3c-1.9,2.9,1.1,4.4,1,7.1c2.4,0.2,4.2,0.2,6.3,1.1c1.6-0.7,3.9-0.2,6,0.2
		c2.2-0.4,6.2-0.9,8.2,0.2c-1.9,1.2-4.2,1.6-6.8,1.5c-1.5,0.8-3.6,0.6-5.1,1.5c-0.9,4.9,1.9,8.2,7.4,7.8c2.1-0.8,6.7-0.5,7.6,2.8
		c0.2,1.1,0.9,1.9,0.5,3.3c-1.4,0.3-2.8,0.8-4.5,0.7c-7.6,1.2-15.5,1.9-22.3,4.5c-1.2,2.6,1,3,0.6,5.2c0.8,1.9,2.7,0.8,4.8,1.7
		c4-0.4,8.4,0,12.6-0.1c3.6,0.4,8.4-1.7,11.1,0.9c0,0.1,0,0.3-0.1,0.4c0.3,5.8,6.9,3.3,11.2,4.2c1.6-0.3,3.1-0.7,5.2-0.1
		c-1,1.7-3.4,1-3.8,3.6l4.2,1.4c1.8,1.5,4,0.5,6.6,1.6c5.1-0.7,13.3-1.6,13.6,5.2c3.4,1.4,4.9-0.4,7.8,0.1c4,0.1,7.6-0.5,11.8-0.3
		c1.8-0.7,3.9-0.9,6.2-0.7c7.5-0.7,14.7-1.7,22.5-1.7c1.7-0.3,2.8-1.5,5.3-0.5l-29.7,5.7c-0.6,3.2,2.3,8.3,4.1,10
		c39.7-7.1,83-5.9,122.7-13.9c6.7-1.4,15.5-3.7,23.4-3.8c-0.3-2.8,0.8-6.5-1.2-8.1c-16.2,3.9-32.7,7.3-50.1,9.1
		c-2.5,0.9-6.9,1.2-9.2,0.5c0.9-0.9,1.9-1.6,3.4-1.5c0.9-0.8,2.5-0.6,3.7-0.9c1.3-0.7,2.9-1.1,4.6-1.2c0.1-0.4,0.6-0.2,0.9-0.2
		c1.1-0.8,3.1-0.4,4.2-1.2c26-6.7,49.6-7.2,75.4-14.1c0.2-2.1,4.9-9.1,2.9-10.9l8.5-3.9c0.1-0.2,0.4-0.2,0.4-0.5
		c0.1-0.6-1.1-0.4-1.6-0.7c0.2-0.9-0.8-1-1.4-1.3c-0.4,0.3-1.3,0-2-0.2c0,0.1,0,0.2-0.1,0.3c-0.5-0.1-1.1-0.3-1.6-0.4
		c-0.7,0.5-1.6,0.5-2.7,0.2c-0.5,0.4-1.6-0.3-2,0.1c-2,0.3-3.9,0.5-6.1,0.3c-0.8,0.2-1.4,0.8-2.7,0.2c-1.6,0.5-3.8,0.2-5.6,0.4
		c-0.2,0.6-1.2-0.1-1.7-0.1l1.2-1.5c0.7-0.5,1.5-0.8,2.7-0.5c1.2-0.1,2-0.9,3.5-0.3c0.3-0.8,1.4-0.2,2.1-0.4
		c2.2-0.2,4.2-0.9,6.5-0.8c2.9-0.5,6-0.7,8.9-1.1c3.1-0.2,5.7-1.1,8.9-1.1c1.2-0.9,3.6,0,4.4-1.7c0.6-3.1-3.4-5.3-6-4
		c-0.2-0.1-0.4-0.1-0.6-0.1c-1.3-0.5-2.1,0.2-3.4-0.2c-0.1,0-0.2-0.1-0.3-0.1c-0.5,0.5-1.7-0.3-2.3,0c-0.3,0.6-1.5-0.3-2.2-0.2
		c0.4-0.5,1.1-0.3,1.6-0.5c0.9-0.3,1.9-0.2,2.9-0.2c0-0.1,0-0.2,0.1-0.3c4.1-0.3,7.9-1.1,11.9-1.6c1-0.5,2.6-0.1,3.4-1
		c0.7-2.1-0.8-2.6-1.1-4c-3.3-0.7-6.2-0.8-9.1-0.7c-0.6,0.4-1.4,0.3-2.3,0c-1.3-0.2-2.1,0.7-3.8,0c-2.5,0-4.7,0.5-7.3,0.3
		c-1.3,0.5-3.1,0.1-4.2,0.8c-0.1,0.3-0.6,0.1-0.9,0.1c-2.4-0.7-4.6,1-6.5-0.4c3-1.1,6.6-1.2,10.5-1.7c2.8-0.2,5.2-1,8.1-1.1
		c1-0.6,2.4-0.7,3.9-0.5c4-0.9,8.5-0.9,12.5-1.8c1.6-0.3,3.3-0.5,5-0.6c0.3-0.4,0.8-0.4,1.5-0.2c1.5-0.5,3.1-0.9,4.8-0.9
		c1.9-0.8,4.5-0.6,4.7-3.1c0-0.4-0.3-0.6-0.4-1c-0.8-1.6-2.4-2.4-4.7-2.4c0.1-0.8,0.8-0.6,1.3-0.6c0.5-0.2,0.9-0.7,1.6-0.5
		c1.1-3.6-1.4-4.7-4.7-4.9c-1.5,0.3-3.2,0.2-4-0.1c1.2-0.5,2.5-0.8,3.9-0.8c2.9-0.7,5.9-1.1,9-1.4c0.7,0.4,0.8-0.2,1.4,0
		L579.5,253.4z M472.1,234.5C472.1,234.5,472.1,234.5,472.1,234.5C472.1,234.5,472.1,234.5,472.1,234.5
		C472.1,234.5,472.1,234.5,472.1,234.5z"/>
	<g id="XMLID_1_">
		<g id="XMLID_59_">
			<rect id="XMLID_32_" x="332.8" y="204.9" fill="#FFFFFF" width="38.5" height="8.6"/>
			<rect id="XMLID_31_" x="332.8" y="216" fill="#FFFFFF" width="38.5" height="8.6"/>
			<rect id="XMLID_30_" x="338.5" y="227.1" fill="#FFFFFF" width="26.1" height="8.5"/>
			<rect id="XMLID_29_" x="338.5" y="238" fill="#FFFFFF" width="26.1" height="8.5"/>
			<rect id="XMLID_28_" x="338.5" y="249" fill="#FFFFFF" width="26.1" height="8.5"/>
			<rect id="XMLID_27_" x="338.5" y="259.9" fill="#FFFFFF" width="26.1" height="8.5"/>
			<rect id="XMLID_26_" x="338.5" y="270.8" fill="#FFFFFF" width="26.1" height="8.5"/>
			<rect id="XMLID_25_" x="332.8" y="281.7" fill="#FFFFFF" width="38.5" height="8.5"/>
			<rect id="XMLID_24_" x="332.8" y="292.4" fill="#FFFFFF" width="38.5" height="8.5"/>
		</g>
		<g id="XMLID_47_">
			<rect id="XMLID_23_" x="446.1" y="204.9" fill="#FFFFFF" width="80.3" height="8.6"/>
			<rect id="XMLID_22_" x="445.9" y="216" fill="#FFFFFF" width="80.5" height="8.6"/>
			<rect id="XMLID_21_" x="473.1" y="227.1" fill="#FFFFFF" width="26.1" height="8.5"/>
			<rect id="XMLID_20_" x="508.7" y="227.1" fill="#FFFFFF" width="17.9" height="7"/>
			<rect id="XMLID_19_" x="445.8" y="227.1" fill="#FFFFFF" width="17.9" height="7"/>
			<rect id="XMLID_18_" x="473.1" y="238" fill="#FFFFFF" width="26.1" height="8.5"/>
			<rect id="XMLID_17_" x="473.1" y="249" fill="#FFFFFF" width="26.1" height="8.5"/>
			<rect id="XMLID_16_" x="473.1" y="259.9" fill="#FFFFFF" width="26.1" height="8.5"/>
			<rect id="XMLID_15_" x="473.1" y="270.8" fill="#FFFFFF" width="26.1" height="8.5"/>
			<rect id="XMLID_14_" x="467" y="281.7" fill="#FFFFFF" width="38.5" height="8.5"/>
			<rect id="XMLID_13_" x="467" y="292.4" fill="#FFFFFF" width="38.5" height="8.5"/>
		</g>
		<g id="XMLID_35_">
			<rect id="XMLID_12_" x="418.7" y="227.1" fill="#FFFFFF" width="23" height="7.2"/>
			<rect id="XMLID_11_" x="380.6" y="271.6" fill="#FFFFFF" width="24.4" height="7.3"/>
			<path id="XMLID_10_" fill="#FFFFFF" d="M441.6,213.6h-60.7c0,0,4.7-8.6,17-8.6h43.7V213.6z"/>
			<path id="XMLID_9_" fill="#FFFFFF" d="M441.6,224.7h-62.8v-6.1c0-0.8,0.8-2.1,1.2-2.6h61.6V224.7z"/>
			<path id="XMLID_8_" fill="#FFFFFF" d="M380.7,292.2h62.5c0,0-4.8,8.6-17.5,8.6h-45.1V292.2z"/>
			<path id="XMLID_7_" fill="#FFFFFF" d="M380.7,281.1h64v7.5c-0.3,0.8-0.3,0.7-0.6,1.1h-63.4V281.1z"/>
			<rect id="XMLID_6_" x="378.8" y="227.1" fill="#FFFFFF" width="25.7" height="8.5"/>
			<path id="XMLID_5_" fill="#FFFFFF" d="M384.6,257.5h60.3c0,0-1.4-5.4-4.6-8.5h-61C379.3,249,380.8,254.1,384.6,257.5"/>
			<path id="XMLID_4_" fill="#FFFFFF" d="M437.7,246.6c0,0-3.3-2.3-7.1-3.5h-26.1V238h-25.7l0,8.5L437.7,246.6z"/>
			<rect id="XMLID_3_" x="418.7" y="270.5" fill="#FFFFFF" width="26.1" height="8.5"/>
			<path id="XMLID_34_" fill="#FFFFFF" d="M444.8,260v-0.5h-57.7c0,0,2.4,2,6.3,2.9h25.2v5.6h26.2V260z"/>
		</g>
	</g>
</g>
<g>
	<path fill="#C0C1B5" d="M320,415v-38.9h5.4v35h9.9v3.9H320z"/>
	<path fill="#C0C1B5" d="M346.3,415.4c-1.6,0-3-0.2-4.1-0.7s-1.9-1.2-2.5-2.2s-1-2.1-1.3-3.4s-0.4-2.9-0.4-4.8V398
		c0-1.9,0.1-3.5,0.4-4.9s0.7-2.5,1.3-3.4s1.4-1.7,2.5-2.1s2.4-0.7,4-0.7c1,0,1.9,0.1,2.6,0.3s1.4,0.4,2,0.8s1,0.8,1.4,1.3
		s0.7,1.1,0.9,1.8s0.4,1.4,0.6,2.2s0.2,1.8,0.3,2.6s0.1,1.9,0.1,3.1l0,2.2h-10.9v3.7c0,0.1,0,0.2,0,0.3c0,0.8,0,1.4,0,1.7
		s0,0.9,0.1,1.5s0.1,1.1,0.3,1.3s0.3,0.6,0.5,0.9s0.5,0.6,0.9,0.7s0.8,0.2,1.3,0.2c1.1,0,1.9-0.4,2.3-1.1s0.6-1.9,0.6-3.4v-1.7h5
		v1.1C354.2,412.4,351.6,415.4,346.3,415.4z M343.3,398.4h5.9v-2.5c0-0.7,0-1.4-0.1-1.9s-0.1-1-0.2-1.5s-0.3-0.8-0.5-1.1
		s-0.5-0.5-0.8-0.6s-0.8-0.2-1.3-0.2c-1.2,0-2,0.4-2.4,1.3s-0.6,2.5-0.6,5V398.4z"/>
	<path fill="#C0C1B5" d="M363.8,415.4c-1.6,0-2.9-0.7-4-2s-1.6-2.8-1.6-4.5c0-1.3,0.2-2.5,0.6-3.6s0.9-1.9,1.4-2.6s1.3-1.3,2.5-2.1
		s2.1-1.2,2.8-1.5s1.8-0.8,3.4-1.5c0.1,0,0.2-0.1,0.2-0.1v-2c0-1.8-0.2-3.1-0.6-3.8s-1.1-1.1-2.2-1.1c-1.9,0-2.9,1.3-2.9,3.9v1.4
		l-5.1-0.2c0-0.3,0-0.6,0-1c0.2-2.8,0.9-4.8,2.3-6s3.4-1.9,6-1.9c2.7,0,4.6,0.7,5.8,2.2s1.8,3.7,1.8,6.6v12.7c0,2.1,0.2,4.3,0.5,6.7
		h-4.7c-0.3-1.5-0.6-2.9-0.7-4.1c-0.4,1.2-1.1,2.3-2,3.2S365.3,415.4,363.8,415.4z M365.9,410.9c0.7,0,1.3-0.3,1.9-0.8
		s1.1-1,1.4-1.5v-7.9c-1.8,1-3,1.8-3.6,2.2c-1.5,1.2-2.2,2.7-2.2,4.3c0,1.1,0.2,2,0.6,2.6S365.1,410.9,365.9,410.9z"/>
	<path fill="#C0C1B5" d="M379.4,415v-27.8h5.1v4c1-1.6,1.9-2.7,2.9-3.4s2.1-1,3.2-1c0.3,0,0.6,0,0.8,0v5.7c-1-0.4-1.9-0.5-2.8-0.5
		c-0.9,0-1.6,0.2-2.3,0.6s-1.3,1.1-1.9,2.1V415H379.4z"/>
	<path fill="#C0C1B5" d="M394.7,415v-27.8h5.1v2.7c2.2-2.1,4.4-3.1,6.8-3.1c0.8,0,1.5,0.2,2,0.5s1,0.8,1.3,1.3s0.5,1.2,0.6,1.8
		s0.2,1.3,0.2,2V415h-5.1v-21c0-1.1-0.2-1.9-0.5-2.4s-0.9-0.8-1.7-0.8c-1,0-2.2,0.6-3.6,1.7V415H394.7z"/>
	<path fill="#C0C1B5" d="M426.8,415v-27.8h4.7v2.6c1.9-2.1,4.1-3.1,6.5-3.1c2.3,0,3.8,1.2,4.5,3.5c1.9-2.3,4.2-3.5,6.9-3.5
		c1.5,0,2.6,0.5,3.6,1.6s1.4,2.7,1.4,4.9V415h-4.7v-21.5c0-1.3-0.2-2.2-0.6-2.7s-1-0.8-1.8-0.7c-1.4,0-2.9,0.8-4.3,2.2
		c0,0.2,0,0.5,0,0.8V415h-4.7v-21.5c0-1.3-0.2-2.2-0.6-2.7s-1-0.8-1.8-0.7c-1.4,0-2.9,0.8-4.3,2.3V415H426.8z"/>
	<path fill="#C0C1B5" d="M467,415.4c-1.5,0-2.8-0.2-3.9-0.7s-1.9-1.2-2.5-2.1s-1.1-2-1.3-3.2s-0.4-2.6-0.4-4.3v-8
		c0-1.6,0.1-3,0.4-4.3s0.7-2.3,1.3-3.2s1.4-1.6,2.5-2.1s2.3-0.7,3.9-0.7c2.9,0,5,0.9,6.2,2.6s1.9,4.3,1.9,7.6v8
		c0,3.3-0.6,5.9-1.9,7.6S469.9,415.4,467,415.4z M467,411.6c0.5,0,0.9-0.1,1.2-0.2s0.6-0.4,0.8-0.7s0.4-0.6,0.5-0.9s0.2-0.7,0.3-1.3
		s0.1-1,0.1-1.4s0-0.9,0-1.6v-8.7c0-0.6,0-1,0-1.3s0-0.7-0.1-1.2s-0.1-0.9-0.2-1.2s-0.2-0.6-0.3-0.9s-0.3-0.6-0.5-0.8
		s-0.5-0.3-0.8-0.5s-0.7-0.2-1.1-0.2s-0.8,0.1-1.1,0.2s-0.6,0.3-0.8,0.5s-0.4,0.4-0.5,0.8s-0.3,0.7-0.3,0.9s-0.1,0.7-0.2,1.2
		s-0.1,0.9-0.1,1.2s0,0.7,0,1.3v8.7c0,0.6,0,1,0,1.3s0,0.7,0.1,1.2s0.1,0.9,0.2,1.2s0.2,0.6,0.3,0.9s0.3,0.6,0.5,0.8
		s0.5,0.3,0.8,0.5S466.6,411.6,467,411.6z"/>
	<path fill="#C0C1B5" d="M479.9,415v-27.8h5.1v4c1-1.6,1.9-2.7,2.9-3.4s2.1-1,3.2-1c0.3,0,0.6,0,0.8,0v5.7c-1-0.4-1.9-0.5-2.8-0.5
		c-0.9,0-1.6,0.2-2.3,0.6s-1.3,1.1-1.9,2.1V415H479.9z"/>
	<path fill="#C0C1B5" d="M502.8,415.4c-1.6,0-3-0.2-4.1-0.7s-1.9-1.2-2.5-2.2s-1-2.1-1.3-3.4s-0.4-2.9-0.4-4.8V398
		c0-1.9,0.1-3.5,0.4-4.9s0.7-2.5,1.3-3.4s1.4-1.7,2.5-2.1s2.4-0.7,4-0.7c1,0,1.9,0.1,2.6,0.3s1.4,0.4,2,0.8s1,0.8,1.4,1.3
		s0.7,1.1,0.9,1.8s0.4,1.4,0.6,2.2s0.2,1.8,0.3,2.6s0.1,1.9,0.1,3.1l0,2.2h-10.9v3.7c0,0.1,0,0.2,0,0.3c0,0.8,0,1.4,0,1.7
		s0,0.9,0.1,1.5s0.1,1.1,0.3,1.3s0.3,0.6,0.5,0.9s0.5,0.6,0.9,0.7s0.8,0.2,1.3,0.2c1.1,0,1.9-0.4,2.3-1.1s0.6-1.9,0.6-3.4v-1.7h5
		v1.1C510.7,412.4,508,415.4,502.8,415.4z M499.8,398.4h5.9v-2.5c0-0.7,0-1.4-0.1-1.9s-0.1-1-0.2-1.5s-0.3-0.8-0.5-1.1
		s-0.5-0.5-0.8-0.6s-0.8-0.2-1.3-0.2c-1.2,0-2,0.4-2.4,1.3s-0.6,2.5-0.6,5V398.4z"/>
	<path fill="#C0C1B5" d="M515.1,415v-5.7h5.2v5.7H515.1z"/>
</g>
<g>
</g>
<g>
</g>
<g>
</g>
<g>
</g>
<g>
</g>
<g>
</g>
</svg>
