<?xml version="1.0" encoding="utf-8"?>
<!-- Generator: Adobe Illustrator 17.1.0, SVG Export Plug-In . SVG Version: 6.00 Build 0)  -->
<!DOCTYPE svg PUBLIC "-//W3C//DTD SVG 1.1//EN" "http://www.w3.org/Graphics/SVG/1.1/DTD/svg11.dtd">
<svg version="1.1" id="Layer_1" xmlns="http://www.w3.org/2000/svg" xmlns:xlink="http://www.w3.org/1999/xlink" x="0px" y="0px"
	 viewBox="0 0 100 100" enable-background="new 0 0 100 100" xml:space="preserve">
<g>
	<path fill="#004289" d="M-44,6.2c0-0.5-0.4-2-1.8-2c-0.7,0-1.7,0.3-2.8,1c-0.9,0.6-2.2,1.8-3.5,3.2c-0.1,0.1-0.4,0.1-0.3-0.1
		c0.1-0.5,2.5-7.1,3.9-11.2c0.1-0.3-0.3-0.5-0.7-0.5c-0.6,0-2.4,0.2-2.7,0.8c-0.1,0.2-0.2,0.3-0.4,0.4C-52.7-2.1-54-2-56.2-2h-6.3
		C-64.3-2-66-2-66.7-2c-0.8-0.1-1.2-0.3-1.2-0.4c-0.1-0.1-0.2-0.2-0.2-0.2c-0.2,0-0.5,0.2-0.6,0.3c-0.4,1.7-1.4,3.1-1.6,3.7
		c-0.1,0.3-0.1,0.5,0.1,0.5c0.2,0,0.5,0,0.9-0.6c0.8-1.2,2-2.1,3.1-2.3c0.9-0.1,2.7-0.1,3.2-0.1c0.1,0,0.3,0.2,0.2,0.3
		C-63,0.5-65.2,8-66.6,12.2c-0.7,2-1,2.3-3.2,2.7c-0.4,0.1-0.8,0.3-0.8,0.5c0,0.1,0.4,0.4,0.9,0.4c0.5,0,3.3-0.1,5.1-0.1
		c1.6,0,2.8,0.1,3.3,0.1c0.6,0,0.9-0.2,0.9-0.4c0-0.2-0.3-0.4-0.7-0.4c-1.8-0.3-2-0.8-1.6-2.5c0.4-2.1,3.3-12.2,3.7-13
		c0.1-0.1,0.4-0.4,0.5-0.4c0.9-0.1,4.9,0,5.4,0.1c0.1,0,0.3,0.3,0.3,0.4c-1.5,4.7-4.4,13.8-4.6,15.2c0,0.1,0,0.4,0.2,0.6
		c0.2,0.3,0.7,0.6,1.2,0.6c0.3,0,0.8-0.3,1.2-0.9c0.7-1.4,2.5-4.5,3.7-6.1c1.8-2.4,2.4-2.8,3-2.8c0.4,0,0.6,0.5,0.6,1.2
		c0,1.4-1,5.1-2,7.1c-0.2,0.3-0.3,0.4-0.5,0.4c-0.3,0-0.9-0.4-1.3-0.7c0,0-0.2,0-0.2,0.1c-0.1,0.2-0.7,0.8-0.7,1c0,0.8,0.5,1,1.3,1
		c0.4,0,1.3-0.4,1.6-0.6c0.6-0.4,2.1-1.2,2.7-1.9C-45.6,12.4-44,9-44,6.2 M-35.2,4.2c-1.4,0-3.3,0.9-4.7,2.3
		c-1.3,1.4-2.7,4.1-2.7,6.1c0,2.2,1.8,3.4,2.8,3.4c2,0,4.1-1.2,5.4-2.9c0.2-0.2,0.4-0.7,0.4-0.9c0-0.1-0.1-0.2-0.2-0.2
		c-0.2,0-0.4,0.3-0.6,0.4c-1.4,1.2-2.4,1.5-3.1,1.5c-0.6,0-1.2-0.7-1.2-1.6c0-0.7,0.1-1.2,0.2-1.4c0.1-0.3,0.1-0.4,0.4-0.4
		c0.8-0.2,2.3-0.6,3.4-1c1.4-0.6,2.7-1.5,2.7-3.1C-32.6,5.3-33.3,4.2-35.2,4.2 M-35.6,5c0.3,0,0.5,0.2,0.5,0.8
		c0,0.5-0.6,2.7-3.4,3.6c-0.2,0.1-0.2-0.1-0.2-0.3C-38,7-36.7,5-35.6,5 M-9.6-2.5c-0.1,0-0.4,0.1-0.6,0.3c-0.7,0.8-2.1,0.9-2.6,0.9
		c-0.1,0-0.4,0.3-0.5,0.4c-0.2,0.4-0.9,1.3-1.4,1.8c-2.8,3.5-6.1,7.6-9.8,11.7c-1,1.1-2,1.9-3.6,2.2c-0.6,0.1-1,0.2-1,0.5
		c0,0.3,0.2,0.4,1,0.4c0.3,0,1.3-0.1,2.6-0.1c1.3,0,2.1,0.1,3.2,0.1c0.4,0,0.9-0.1,0.9-0.4c0-0.2-0.3-0.4-0.7-0.5
		c-1.3-0.3-1.4-1.1-0.9-2c0.6-1.1,1.7-2.4,2.5-3.2c0.4-0.4,0.6-0.6,1-0.7c1.1-0.2,3.4-0.3,3.9-0.3c0.4,0,0.4,0.1,0.4,0.4
		c-0.2,0.7-0.6,3-1,4.2c-0.1,0.1-0.3,1.5-1.8,1.6c-0.6,0.1-1,0.3-1,0.5c0,0.3,0.5,0.4,0.8,0.4c1.2,0,3.5-0.2,4.5-0.2
		c1,0,1.5,0.1,2.5,0.1c0.4,0,0.9-0.1,0.9-0.4c0-0.3-0.3-0.4-0.8-0.5c-1.1-0.2-1.5-0.6-1.2-2.5c0.6-3.5,1.3-7.3,1.9-10.4
		c0.3-1.2,0.7-2.6,0.9-3.3C-9.2-2.4-9.3-2.5-9.6-2.5 M-18.5,7.8c-0.1,0-0.1-0.3-0.1-0.4c0.9-1.3,3-4.2,4.3-5.4
		c0.2-0.2,0.4-0.4,0.6-0.4c0.1,0,0.1,0.3-0.1,0.8c-0.2,1.1-0.9,4.4-1.1,4.9c0,0.1-0.3,0.4-0.3,0.4C-16.1,7.6-18.3,7.8-18.5,7.8
		 M-5,4.2c-1.3,0-3,1-3.7,3C-8.9,7.7-8.8,8-8.5,8C-8.4,8-8.2,7.8-8,7.6c0.8-0.8,1.3-0.9,1.5-0.9C-6.2,6.7-6,7-6.2,7.7
		c-0.9,2.8-2.3,6.4-2.5,7.2c0,0.2,0,0.5,0,0.6c0.2,0.3,1,0.5,1.3,0.5c0.8,0,1.1-0.4,1.5-1.1c0.6-1,2.3-4.9,3.5-7.3
		c0.5-0.9,0.8-1.1,1.1-1.1C-1,6.5-0.7,7.2-0.5,8C-0.4,8.3-0.2,8.4,0,8.4c0.4,0,1.9-1.1,1.9-2.8c0-0.6-0.4-1.5-1.4-1.5
		c-0.7,0-1.5,0.3-2.6,1.6c-0.5,0.6-1.1,1.4-1.7,2.4C-4.1,8.5-4.2,8.3-4,8c0.3-0.6,0.6-1.5,0.6-2.2C-3.5,5.1-4,4.2-5,4.2 M9.2,1.1
		c-0.8,0-1.5,0.3-1.9,0.8c-0.4,0.5-1,1.3-1.5,2.3C5.7,4.4,5.5,4.5,5.4,4.5C4.9,4.5,4.5,4.6,4,4.6C3.7,4.6,3.2,5,3.2,5.3
		c0,0.2,0.3,0.3,0.7,0.4c0.3,0,0.9,0.1,1.1,0.1c0.1,0,0.1,0.2,0.1,0.3c-1.2,3.1-3,7.5-3.1,7.8c-0.1,0.3-0.2,0.6-0.2,0.8
		c0,0.5,0.7,1.3,1.2,1.3c1.4,0,4.4-1.6,5.7-3.4c0.3-0.4,0.3-0.7,0.3-0.9c0-0.2-0.4-0.1-0.6,0.1c-0.8,0.7-2,1.5-2.5,1.5
		c-0.2,0-0.4-0.4-0.3-0.6c0.9-2.5,2-5.7,2.5-6.8c0-0.1,0.2-0.2,0.3-0.2c0.5,0,2-0.1,2.3-0.1c0.3-0.1,0.7-0.4,0.7-0.7
		c0-0.1-0.1-0.3-0.4-0.3c-0.6,0-1.6-0.1-2.2-0.1c-0.1,0-0.2-0.1-0.2-0.3C8.9,3.9,9.3,2.4,9.4,2C9.6,1.4,9.5,1.1,9.2,1.1 M24,4.2
		c-1.5,0-3.2,0.7-4.4,1.8c-2.1,1.8-3.2,4.9-3.2,6.5c0,2.6,1.8,3.6,3.5,3.6c0.9,0,2-0.3,2.7-0.6c2.5-1.1,5-4.1,5-7.6
		C27.6,6.3,26.4,4.2,24,4.2 M23.7,5c0.6,0,0.8,0.5,0.8,1.1c0,2.4-2,7.4-3.2,8.5c-0.4,0.4-0.5,0.6-0.8,0.6c-0.4,0-0.9-0.5-0.9-1.1
		c0-2.9,1.5-6.4,2.9-8.2C23,5.3,23.4,5,23.7,5 M35.6,4.6c-0.1,0-0.2-0.2-0.2-0.3c0.5-2.1,1.6-4.7,2.1-5.7c0.8-1.5,1.4-1.7,1.7-1.7
		c0.7,0,0.9,0.6,0.9,1.9c0,0.1,0,0.5,0,0.6c0,0.2,0.2,0.4,0.4,0.4c0.8,0,1.9-0.7,2-2C42.5-3,41.9-4,40-4c-1.2,0-2.4,0.6-3.5,1.5
		c-1.4,1-3.3,4-4.3,7c0,0.1-0.2,0.2-0.2,0.2c-0.4,0-1.1,0.1-1.6,0.1c-0.4,0-0.6,0.4-0.6,0.7c0,0.1,0,0.3,0.2,0.3l1.5,0
		c0.1,0,0.3,0.2,0.3,0.2c-1.6,5.5-2.6,9.2-3.4,12.3c-0.7,2.7-1.2,3.6-1.7,3.6c-0.6,0-1.3-0.7-2.1-1.9c-0.1-0.1-0.5-0.1-0.7,0
		c-0.5,0.2-1.3,0.9-1.3,1.6c0,0.7,0.7,1.6,2.4,1.6c0.7,0,2-0.3,3-0.9c1.5-0.9,3-2.1,3.7-4.7C32.5,14,33.8,9.7,34.9,6
		c0.1-0.2,0.3-0.4,0.4-0.4c0.8,0,1.5-0.1,2.2-0.1c0.4,0,0.7-0.6,0.7-0.8c0-0.1-0.1-0.3-0.2-0.3L35.6,4.6z M50,6.3
		c-0.1,0-0.2-0.2-0.1-0.4c0.3-1.3,1.4-5.1,2-6c0.3-0.6,0.4-0.9,1.5-0.9c1,0,2,0.1,2.4,0.2c0.6,0.2,1,0.7,1,1.9
		c0,0.5,0.4,0.9,0.6,0.9c0.1,0,0.3-0.1,0.3-0.2c0.1-0.5,0.5-2.5,1.1-3.5c0.1-0.1,0-0.6-0.2-0.5C57.7-2,56.6-2,52.5-2h-2.6
		c-1.4,0-3-0.1-3.7-0.1c-0.6,0-1,0.1-1,0.3c0,0.3,0.3,0.4,0.7,0.4c1.6,0.4,2.3,0.6,1.8,2.2c-1,3.5-2.5,8.5-3.5,11.6
		c-0.4,1.4-0.8,2-2.8,2.3c-0.6,0.1-0.8,0.3-0.8,0.5c0,0.2,0.4,0.4,0.9,0.4c0.8,0,2-0.1,3.6-0.1c1.6,0,7.2,0.2,8.5,0.2
		c0.6,0,1.6,0,1.9-0.2c0.3-0.1,0.4-0.3,0.6-0.6c0.5-0.7,1.3-2.4,1.5-3.2c0.1-0.6,0.1-0.8-0.1-0.8c-0.2,0-0.4,0.2-0.8,0.7
		c-0.8,1-1.7,2-2.5,2.5c-0.5,0.3-1.4,0.6-1.9,0.6c-0.5,0-1.8-0.1-2.7-0.2c-0.6-0.1-0.9-0.1-1.1-0.5c-0.3-0.6-0.3-1.1,0-2.5
		c0.3-1.2,0.8-3.2,1-3.8c0.1-0.2,0.4-0.4,0.6-0.4l2.9-0.1c0.8,0,1.1,0.3,1.1,1.4c0,0.6,0.2,0.8,0.4,0.8s0.4-0.3,0.5-0.8
		c0.2-0.8,0.6-2.5,1.1-3.7c0.2-0.5,0.2-1.1-0.1-1.1c-0.3,0-0.4,0.3-0.6,0.5c-0.9,1.2-1.2,1.5-2.9,1.5L50,6.3z M69.6,4.2
		c-0.7,0-1.6,0.3-2.8,1.3c-0.8,0.6-2.4,2.6-3.3,3.9c-0.3,0.4-0.5,0.2-0.3-0.3c0.2-0.6,1.2-2.7,1.4-3.2c0.3-0.6,0.2-0.7,0.2-1
		c-0.1-0.6-0.8-0.8-1.1-0.8c-2.6,0-4.6,2-4.6,3.4c0,0.1,0.1,0.4,0.2,0.4c0.2,0,0.3,0,0.4-0.2c0.6-0.6,1.4-1.4,2.2-1.4
		c0.2,0,0.3,0.1,0.1,0.4c-0.8,2.1-2,4.4-2.7,6.2c-0.1,0.3-0.6,1.2-0.6,1.8c0,0.5,0.7,1.3,1.6,1.3c0.3,0,0.8-0.5,1.5-1.7
		c0.9-1.4,2.2-4,3.5-5.9c0.9-1.4,2.1-2.6,2.7-2.6c0.6,0,0.7,0.4,0.4,1.3c-0.3,0.9-3.3,7-3.5,7.4c-0.1,0.3-0.1,0.5,0.1,0.8
		c0.2,0.4,0.8,0.7,1.1,0.7c1.9,0,4.3-1.5,5.4-3c0.2-0.2,0.5-0.6,0.5-1c0-0.3-0.1-0.5-0.5-0.1c-0.6,0.6-1.9,1.3-2.3,1.3
		c-0.2,0-0.4-0.2-0.1-0.7c0.3-0.4,1.4-3,2-4.7c0.3-0.8,0.4-1.4,0.4-1.9C71.6,5.2,70.9,4.2,69.6,4.2 M80.3,4.1
		c-1.4,0-2.7,0.5-3.4,1.1c-1.7,1.2-3.1,3.2-3.1,5.4c0,1,0.7,2.3,1.9,2.7c0,0,0.2,0.1,0.1,0.3c-0.3,0.4-0.9,0.8-1.3,1.1
		c-0.3,0.3-0.4,0.6-0.4,0.8c0,0.7,0.3,0.9,0.6,1.3c0,0,0,0.1-0.1,0.2c-0.7,0.3-1.8,0.6-2.7,1.2c-0.7,0.4-1.5,1.1-1.5,2
		c0,0.7,0.6,1.5,1.6,2.1c0.8,0.5,2.1,0.9,3.8,0.9c1.4,0,3.5-0.3,5.5-1.5c0.8-0.5,1.5-1.4,1.5-2.2c0-1.1-0.8-1.8-1.5-2.3
		c-0.7-0.5-2.7-1.6-3.7-2.2c-0.7-0.4-1-0.6-1-1c0,0,0-0.2,0.1-0.3c0.1-0.1,0.1-0.1,0.2-0.1c0.8,0,2.1-0.1,3.1-0.7
		c1.7-0.9,3.6-3.3,3.6-5.6c0-0.2,0-0.5-0.1-0.8c0-0.1,0-0.3,0.2-0.3c0.4,0,0.8,0.3,1.6,0.3c0.5,0,0.9-0.1,0.9-1
		c0-0.7-0.4-0.9-0.9-0.9c-0.4,0-1.3,0.2-1.7,0.3c-0.6,0.2-0.8,0.2-1,0.1C81.9,4.3,81,4.1,80.3,4.1 M80.2,4.9c0.4,0,0.6,0.5,0.6,0.9
		c-0.1,2-1.7,5.3-2.9,6.3c-0.4,0.4-0.6,0.4-0.8,0.4c-0.6,0-0.7-0.6-0.7-1c0-1.2,1.5-4.8,3-6.2C79.7,5,80,4.9,80.2,4.9 M77.5,22
		c-1.2,0-2.7-0.3-3.7-1.1c-0.4-0.4-0.6-0.9-0.6-1.3c0-0.7,0.8-1.7,1.8-2.1c0.1-0.1,0.6,0,0.7,0.1c0.8,0.4,2.5,1.2,3.5,2
		c0.6,0.5,0.7,0.9,0.7,1.1C79.8,21.2,78.9,22,77.5,22 M91.5,4.2c-1.8,0-4.5,1.9-5.1,2.6c-0.2,0.3-0.3,0.5-0.3,0.7
		c0,0.1,0.3,0.3,0.4,0.2c0.7-0.5,1.4-0.8,1.7-0.8c0.3,0,0.3,0.3,0.2,0.5c-1.1,3-2,4.9-3,7.3c-0.1,0.3-0.1,0.3-0.1,0.4
		c0,0.4,0.8,0.9,1.2,0.9c1.1,0,4-1.5,5.4-3.2c0.3-0.4,0.5-0.8,0.5-1c0-0.1-0.2-0.2-0.2-0.2c-0.2,0-0.3,0.1-0.6,0.3
		c-1,0.9-1.8,1.3-2,1.3c-0.2,0-0.4-0.1-0.3-0.4c0.9-2.2,1.3-3.6,2.7-6.8c0.1-0.3,0.3-0.8,0.3-1C92.2,4.9,91.8,4.2,91.5,4.2
		 M91.8-1.7c-0.2,0-0.6,0.1-0.9,0.3c-0.5,0.3-0.9,0.9-0.9,1.7c0,0.7,0.3,1.1,0.7,1.4C90.8,1.9,91,2,91.3,2c1,0,2-1.1,2-2
		C93.3-0.9,92.8-1.7,91.8-1.7 M104.4,4.2c-0.7,0-1.6,0.3-2.8,1.3c-0.8,0.6-2.4,2.6-3.3,3.9C98,9.9,97.8,9.7,98,9.2
		c0.2-0.6,1.2-2.7,1.4-3.2c0.3-0.6,0.2-0.7,0.2-1c-0.1-0.6-0.8-0.8-1.1-0.8c-2.6,0-4.6,2-4.6,3.4C93.9,7.7,94,8,94.1,8
		c0.2,0,0.3,0,0.4-0.2c0.6-0.6,1.4-1.4,2.2-1.4c0.2,0,0.3,0.1,0.1,0.4c-0.8,2.1-2,4.4-2.7,6.2c-0.1,0.3-0.6,1.2-0.6,1.8
		c0,0.5,0.7,1.3,1.6,1.3c0.3,0,0.8-0.5,1.5-1.7c0.9-1.4,2.2-4,3.5-5.9c0.9-1.4,2.1-2.6,2.7-2.6c0.6,0,0.7,0.4,0.4,1.3
		c-0.3,0.9-3.3,7-3.5,7.4c-0.1,0.3-0.1,0.5,0.1,0.8c0.2,0.4,0.8,0.7,1.1,0.7c1.9,0,4.3-1.5,5.4-3c0.2-0.2,0.5-0.6,0.5-1
		c0-0.3-0.1-0.5-0.5-0.1c-0.6,0.6-1.9,1.3-2.3,1.3c-0.2,0-0.4-0.2-0.1-0.7c0.3-0.4,1.4-3,2-4.7c0.3-0.8,0.4-1.4,0.4-1.9
		C106.4,5.2,105.7,4.2,104.4,4.2 M115.9,4.2c-1.4,0-3.3,0.9-4.8,2.3c-1.3,1.4-2.7,4.1-2.7,6.1c0,2.2,1.8,3.4,2.8,3.4
		c2,0,4.1-1.2,5.4-2.9c0.2-0.2,0.4-0.7,0.4-0.9c0-0.1-0.1-0.2-0.2-0.2c-0.2,0-0.4,0.3-0.6,0.4c-1.4,1.2-2.4,1.5-3.1,1.5
		c-0.6,0-1.2-0.7-1.2-1.6c0-0.7,0.1-1.2,0.2-1.4c0.1-0.3,0.1-0.4,0.4-0.4c0.8-0.2,2.3-0.6,3.4-1c1.4-0.6,2.7-1.5,2.7-3.1
		C118.4,5.3,117.7,4.2,115.9,4.2 M115.5,5c0.3,0,0.5,0.2,0.5,0.8c0,0.5-0.6,2.7-3.4,3.6c-0.2,0.1-0.2-0.1-0.2-0.3
		C113,7,114.3,5,115.5,5 M126.3,4.2c-1.4,0-3.3,0.9-4.7,2.3c-1.3,1.4-2.7,4.1-2.7,6.1c0,2.2,1.8,3.4,2.8,3.4c2,0,4.1-1.2,5.4-2.9
		c0.2-0.2,0.4-0.7,0.4-0.9c0-0.1-0.1-0.2-0.2-0.2c-0.2,0-0.4,0.3-0.6,0.4c-1.4,1.2-2.4,1.5-3.1,1.5c-0.6,0-1.2-0.7-1.2-1.6
		c0-0.7,0.1-1.2,0.2-1.4c0.1-0.3,0.1-0.4,0.4-0.4c0.8-0.2,2.3-0.6,3.4-1c1.4-0.6,2.7-1.5,2.7-3.1C128.8,5.3,128.2,4.2,126.3,4.2
		 M125.9,5c0.3,0,0.5,0.2,0.5,0.8c0,0.5-0.6,2.7-3.4,3.6c-0.2,0.1-0.2-0.1-0.2-0.3C123.4,7,124.7,5,125.9,5 M133.4,4.2
		c-1.3,0-3,1-3.7,3c-0.2,0.6-0.1,0.9,0.2,0.9c0.1,0,0.3-0.2,0.5-0.4c0.8-0.8,1.3-0.9,1.5-0.9c0.3,0,0.5,0.3,0.3,0.9
		c-0.9,2.8-2.3,6.4-2.5,7.2c0,0.2,0,0.5,0,0.6c0.2,0.3,1,0.5,1.3,0.5c0.8,0,1.1-0.4,1.5-1.1c0.6-1,2.3-4.9,3.5-7.3
		c0.5-0.9,0.8-1.1,1.1-1.1c0.3,0,0.5,0.7,0.7,1.5c0.1,0.3,0.3,0.3,0.5,0.3c0.4,0,1.9-1.1,1.9-2.8c0-0.6-0.4-1.5-1.4-1.5
		c-0.7,0-1.5,0.3-2.6,1.6c-0.5,0.6-1.1,1.4-1.7,2.4c-0.3,0.4-0.4,0.3-0.3-0.1c0.3-0.6,0.6-1.5,0.6-2.2
		C134.9,5.1,134.4,4.2,133.4,4.2 M146.5,4.2c-1.8,0-4.5,1.9-5.1,2.6c-0.2,0.3-0.3,0.5-0.3,0.7c0,0.1,0.3,0.3,0.4,0.2
		c0.7-0.5,1.4-0.8,1.7-0.8c0.3,0,0.3,0.3,0.2,0.5c-1.1,3-2,4.9-3,7.3c-0.1,0.3-0.1,0.3-0.1,0.4c0,0.4,0.8,0.9,1.2,0.9
		c1.1,0,4-1.5,5.4-3.2c0.3-0.4,0.5-0.8,0.5-1c0-0.1-0.2-0.2-0.2-0.2c-0.2,0-0.3,0.1-0.6,0.3c-1,0.9-1.8,1.3-2,1.3
		c-0.2,0-0.4-0.1-0.3-0.4c0.9-2.2,1.3-3.6,2.7-6.8c0.1-0.3,0.3-0.8,0.3-1C147.2,4.9,146.8,4.2,146.5,4.2 M146.7-1.7
		c-0.2,0-0.6,0.1-0.9,0.3c-0.5,0.3-1,0.9-1,1.7c0,0.7,0.3,1.1,0.7,1.4c0.2,0.1,0.4,0.2,0.7,0.2c1,0,2-1.1,2-2
		C148.2-0.9,147.7-1.7,146.7-1.7 M159.4,4.2c-0.7,0-1.6,0.3-2.8,1.3c-0.8,0.6-2.4,2.6-3.3,3.9c-0.3,0.4-0.5,0.2-0.3-0.3
		c0.2-0.6,1.2-2.7,1.4-3.2c0.3-0.6,0.2-0.7,0.2-1c-0.1-0.6-0.8-0.8-1.1-0.8c-2.6,0-4.6,2-4.6,3.4c0,0.1,0.1,0.4,0.2,0.4
		c0.2,0,0.3,0,0.4-0.2c0.6-0.6,1.4-1.4,2.2-1.4c0.2,0,0.3,0.1,0.1,0.4c-0.8,2.1-2,4.4-2.7,6.2c-0.1,0.3-0.6,1.2-0.6,1.8
		c0,0.5,0.7,1.3,1.6,1.3c0.3,0,0.8-0.5,1.5-1.7c0.9-1.4,2.2-4,3.5-5.9c0.9-1.4,2.1-2.6,2.7-2.6c0.6,0,0.7,0.4,0.4,1.3
		c-0.3,0.9-3.3,7-3.5,7.4c-0.1,0.3-0.1,0.5,0.1,0.8c0.2,0.4,0.8,0.7,1.1,0.7c1.9,0,4.3-1.5,5.4-3c0.2-0.2,0.5-0.6,0.5-1
		c0-0.3-0.1-0.5-0.5-0.1c-0.6,0.6-1.9,1.3-2.3,1.3c-0.2,0-0.4-0.2-0.1-0.7c0.3-0.4,1.4-3,2-4.7c0.3-0.8,0.4-1.4,0.4-1.9
		C161.3,5.2,160.7,4.2,159.4,4.2 M170.1,4.1c-1.4,0-2.7,0.5-3.4,1.1c-1.7,1.2-3.1,3.2-3.1,5.4c0,1,0.7,2.3,1.9,2.7
		c0,0,0.2,0.1,0.1,0.3c-0.3,0.4-0.9,0.8-1.3,1.1c-0.3,0.3-0.4,0.6-0.4,0.8c0,0.7,0.3,0.9,0.6,1.3c0,0,0,0.1-0.1,0.2
		c-0.7,0.3-1.8,0.6-2.7,1.2c-0.7,0.4-1.5,1.1-1.5,2c0,0.7,0.6,1.5,1.6,2.1c0.8,0.5,2.1,0.9,3.8,0.9c1.4,0,3.5-0.3,5.5-1.5
		c0.8-0.5,1.5-1.4,1.5-2.2c0-1.1-0.8-1.8-1.5-2.3c-0.7-0.5-2.7-1.6-3.7-2.2c-0.7-0.4-1-0.6-1-1c0,0,0-0.2,0.1-0.3
		c0.1-0.1,0.1-0.1,0.2-0.1c0.8,0,2.1-0.1,3.1-0.7c1.7-0.9,3.6-3.3,3.6-5.6c0-0.2,0-0.5-0.1-0.8c0-0.1,0-0.3,0.2-0.3
		c0.4,0,0.8,0.3,1.6,0.3c0.5,0,0.9-0.1,0.9-1c0-0.7-0.4-0.9-0.9-0.9c-0.4,0-1.3,0.2-1.7,0.3c-0.6,0.2-0.8,0.2-1,0.1
		C171.6,4.3,170.8,4.1,170.1,4.1 M169.9,4.9c0.4,0,0.6,0.5,0.6,0.9c-0.1,2-1.7,5.3-2.9,6.3c-0.4,0.4-0.6,0.4-0.8,0.4
		c-0.6,0-0.7-0.6-0.7-1c0-1.2,1.5-4.8,3-6.2C169.5,5,169.8,4.9,169.9,4.9 M167.2,22c-1.2,0-2.7-0.3-3.7-1.1
		c-0.4-0.4-0.6-0.9-0.6-1.3c0-0.7,0.8-1.7,1.8-2.1c0.1-0.1,0.6,0,0.7,0.1c0.8,0.4,2.5,1.2,3.5,2c0.6,0.5,0.7,0.9,0.7,1.1
		C169.6,21.2,168.7,22,167.2,22"/>
	<polygon fill="#004289" points="175.8,45.3 -43.1,45.3 -45.9,45.5 -48.4,45.8 -50.9,46.5 -53.3,47.4 -55.7,48.5 -57.7,49.9 
		-59.7,51.2 -61.5,52.9 -63.2,54.9 -64.7,56.9 -66.1,59 -67.1,61.3 -68.1,63.7 -68.6,66.2 -69,68.8 -69.1,71.4 -69,74.1 -68.6,76.6 
		-68.1,79.2 -67.1,81.6 -66.1,83.9 -64.7,86.1 -63.2,88 -61.5,89.9 -59.7,91.6 -57.7,93.1 -55.7,94.4 -53.3,95.5 -50.9,96.4 
		-48.4,97 -45.9,97.4 -43.1,97.6 175.9,97.6 175.9,104.7 -43.8,104.7 -45.5,104.7 -47.2,104.6 -48.9,104.4 -50.6,104 -52.1,103.7 
		-53.7,103.3 -55.2,102.7 -56.7,102.1 -58.1,101.5 -59.6,100.6 -61,99.9 -62.2,99 -63.6,98.1 -64.9,97.1 -66.1,96.1 -67.2,94.9 
		-68.3,93.8 -69.3,92.6 -70.3,91.3 -71.3,90 -72.1,88.6 -73,87.2 -73.7,85.9 -74.3,84.4 -75,82.9 -75.5,81.3 -75.9,79.7 -76.4,78.1 
		-76.6,76.5 -76.8,74.8 -76.9,73.1 -77,71.4 -76.9,69.7 -76.8,68 -76.6,66.4 -76.4,64.7 -75.9,63.1 -75.5,61.6 -75,60 -74.3,58.5 
		-73.7,57 -73,55.6 -72.1,54.1 -71.3,52.8 -70.3,51.6 -69.3,50.3 -68.3,49 -67.2,47.8 -66.1,46.8 -64.9,45.7 -63.6,44.8 -62.2,43.8 
		-61,43 -59.6,42.1 -58.1,41.4 -56.7,40.7 -55.2,40.1 -53.7,39.6 -52.1,39.1 -50.6,38.8 -48.9,38.5 -47.2,38.3 -45.5,38.2 
		-43.8,38.1 175.8,38.1 	"/>
	<path fill="#004289" d="M-50.9,80.6c1.2-0.3,1.5-0.9,1.5-2.3v-0.6V63.8v-0.6c0-1.5-0.4-2-1.5-2.3v-4.8h11.4h1c2.8,0,4.7,0.5,6,1.6
		c1.8,1.4,2.7,3.8,2.7,6.8c0,3.9-1.4,6-4.6,6.8c2.8,0.4,4,1.8,4,4.4l0,2.3c0,1.5,0.3,2.1,1.3,2.6v4.7h-7.4c-0.4-1.2-0.5-2.2-0.5-4.6
		v-2.5v-0.7c0-1.7,0-2.1-0.4-2.7c-0.5-0.9-1.1-1.1-2.8-1.1h-2.5v3.9v0.6c0,1.5,0.4,2,1.5,2.3v4.8h-9.8V80.6z M-42.6,68.6h1.8h0.5
		c1.7,0,2.3-0.1,2.9-0.6c0.7-0.5,1-1.5,1-2.9c0-2.6-1-3.4-4.1-3.4h-0.4h-1.8V68.6z"/>
	<path fill="#004289" d="M-26.1,80.6c1.2-0.3,1.5-0.9,1.5-2.3v-0.6V63.8v-0.6c0-1.5-0.3-2-1.5-2.3v-4.8h20.7v9h-6.3v-0.2
		c0-2.2-0.7-3.1-2.7-3.1H-15h-2.9v5.9h8.1v4.9h-8.1v6.9h2.8h0.6c2,0,2.7-0.7,2.7-2.9v-1.1h6.3v9.8h-20.7V80.6z"/>
	<path fill="#004289" d="M-2.2,80.6c1.2-0.3,1.5-0.9,1.5-2.3v-0.6V63.8v-0.6c0-1.5-0.4-2-1.5-2.3v-4.8h9.8v4.8
		C6.4,61.2,6,61.8,6,63.2v0.6v13.9v0.6c0,1.5,0.4,2,1.5,2.3v4.8h-9.8V80.6z"/>
	<path fill="#004289" d="M10.9,80.6c1.2-0.3,1.5-0.9,1.5-2.3v-0.6V63.8v-0.6c0-1.5-0.4-2-1.5-2.3v-4.8h7.7l7.5,15.1v-7.4v-0.6
		c0-1.5-0.4-2-1.5-2.3v-4.8h9.3v4.8c-1.2,0.3-1.5,0.9-1.5,2.3v0.6v21.5h-6.1L18.6,70v7.7v0.6c0,1.5,0.4,2,1.5,2.3v4.8h-9.2V80.6z"/>
	<path fill="#004289" d="M36.8,80.6c1.2-0.3,1.5-0.9,1.5-2.3v-0.6V63.8v-0.6c0-1.5-0.4-2-1.5-2.3v-4.8h20.7v9h-6.3v-0.2
		c0-2.2-0.7-3.1-2.7-3.1H48h-2.9v5.9h8.1v4.9h-8.1v6.9h2.8h0.6c2,0,2.7-0.7,2.7-2.9v-1.1h6.3v9.8H36.8V80.6z"/>
	<path fill="#004289" d="M60.7,80.6c1.2-0.3,1.5-0.9,1.5-2.3v-0.6V63.8v-0.6c0-1.5-0.4-2-1.5-2.3v-4.8h11.4h1c2.8,0,4.7,0.5,6,1.6
		c1.8,1.4,2.7,3.8,2.7,6.8c0,3.9-1.4,6-4.6,6.8c2.8,0.4,4,1.8,4,4.4l0,2.3c0,1.5,0.3,2.1,1.3,2.6v4.7h-7.4c-0.4-1.2-0.5-2.2-0.5-4.6
		v-2.5v-0.7c0-1.7,0-2.1-0.4-2.7c-0.5-0.9-1.1-1.1-2.8-1.1h-2.5v3.9v0.6c0,1.5,0.4,2,1.5,2.3v4.8h-9.8V80.6z M68.9,68.6h1.8h0.5
		c1.7,0,2.3-0.1,2.9-0.6c0.7-0.5,1-1.5,1-2.9c0-2.6-1-3.4-4.1-3.4h-0.4h-1.8V68.6z"/>
	<path fill="#004289" d="M89.7,80.6c1.1-0.3,1.5-0.9,1.5-2.3v-0.6V61.6c-1.9,0.1-2.6,1.1-2.6,3.4v3h-5.5V56.1H106V68h-5.4v-3
		c0-2.4-0.8-3.3-2.6-3.4v16.1v0.6c0,1.5,0.3,2,1.5,2.3v4.8h-9.8V80.6z"/>
	<path fill="#004289" d="M126.9,65.7h-6.5v-0.3v-0.2l0-0.8c0-2-1.2-3.2-3.2-3.2c-1.8,0-3.1,1.1-3.1,2.7c0,1.3,1,2.1,3.5,3.1l2.8,1.1
		c5.2,2,7,4.1,7,8.5c0,5.7-3.8,9.2-10,9.2c-3.5,0-6.8-1.1-9.9-3.3v-7.4h6.7v0.4c0,1.5,0.1,2.2,0.4,2.8c0.5,1,1.6,1.6,2.9,1.6
		c1.9,0,3.2-1.3,3.2-3.1c0-1.8-0.9-2.6-4.9-4.2c-2.8-1.1-3.3-1.3-4.3-1.8c-2.6-1.4-3.9-3.6-3.9-6.8c0-5.4,3.7-8.6,10-8.6
		c3.5,0,7,1.3,9.4,3.3V65.7z"/>
	<path fill="#004289" d="M129.2,80.6c1.2-0.3,1.5-0.9,1.5-2.3v-0.6V63.8v-0.6c0-1.5-0.4-2-1.5-2.3v-4.8h20.7v9h-6.3v-0.2
		c0-2.2-0.7-3.1-2.7-3.1h-0.5h-2.9v5.9h8.1v4.9h-8.1v6.9h2.8h0.6c2,0,2.7-0.7,2.7-2.9v-1.1h6.3v9.8h-20.7V80.6z"/>
	<path fill="#004289" d="M153,80.6c1.2-0.3,1.5-0.9,1.5-2.3v-0.6V63.8v-0.6c0-1.5-0.4-2-1.5-2.3v-4.8h7.7l7.5,15.1v-7.4v-0.6
		c0-1.5-0.4-2-1.5-2.3v-4.8h9.3v4.8c-1.2,0.3-1.5,0.9-1.5,2.3v0.6v21.5h-6.1L160.7,70v7.7v0.6c0,1.5,0.4,2,1.5,2.3v4.8H153V80.6z"/>
</g>
</svg>
