<?xml version="1.0" encoding="utf-8"?>
<!-- Generator: Adobe Illustrator 17.1.0, SVG Export Plug-In . SVG Version: 6.00 Build 0)  -->
<!DOCTYPE svg PUBLIC "-//W3C//DTD SVG 1.1//EN" "http://www.w3.org/Graphics/SVG/1.1/DTD/svg11.dtd">
<svg version="1.1" id="Lager_1" xmlns="http://www.w3.org/2000/svg" xmlns:xlink="http://www.w3.org/1999/xlink" x="0px" y="0px"
	 viewBox="0 0 841.9 595.3" enable-background="new 0 0 841.9 595.3" xml:space="preserve">
<g>
	<g>
		<path fill="#00457C" d="M476.1,277.9c25.6-2.5,51.6-18.8,61.4-37.8c11.2-21.7-3-39.7-31.6-40.1c-15.7-0.3-31.9,5.1-45.8,13.3
			c0.3,0.2,0,0.2,0.3,0.5c1.5,1.9,5.2,3.6,9.5,1.8c10.6-4.4,21.7-7.9,32.9-7.2c20.6,1.3,26.5,14.2,16.6,27.6
			c-8.4,11.5-23.8,20.6-41.2,23.4c-18.6,3-22.8-3.8-17.4-12.7c5.6-9.3,21.8-18.9,39.4-23.1c-0.5-2-4.9-4.1-11-2.4
			c-21.1,6.2-40.4,18.4-47.4,31.1C432.5,268.9,448.2,280.6,476.1,277.9z"/>
		<path fill="#00457C" d="M545.7,236.5l12.3,40.6c-4.3,0.9-8.2-5.3-10.3-8.5c-4.6-7.2-14.4-6.1-13.1-7.6c2.9-3.3,5.4-6.8,7.3-10.4
			C544.4,245.7,545.6,240.9,545.7,236.5"/>
	</g>
	<path fill="#00457C" d="M651.8,211.1l12.7,0c4.3,0,7.7,3.4,7.7,7.7c0,4.2-3.4,7.7-7.7,7.7l-6.4,0v12h-6.2L651.8,211.1L651.8,211.1
		L651.8,211.1z M658,220.6h6.4c1.1,0,1.9-0.9,1.9-1.9c0-1.1-0.9-1.9-1.9-1.9H658V220.6L658,220.6z"/>
	<polygon fill="#00457C" points="672.2,211.1 679.1,211.1 679.1,232.3 690.5,232.3 690.5,238.4 679.1,238.4 672.2,238.4 
		672.2,232.3 672.2,211.1 	"/>
	<polygon fill="#00457C" points="691.8,224.6 681.5,211.1 689.5,211.1 695.2,218.7 701,211.1 709,211.1 698.7,224.6 698.7,238.4 
		691.8,238.4 691.8,224.6 	"/>
	<path fill="#00457C" d="M642,233.4c1.8,0,3.1-1.2,3.1-2.6c0-2.5-2.6-3.2-4.5-3.8c-2-0.6-3.8-1.1-5.3-2.6c-1.5-1.4-2.5-3.5-2.5-5.5
		c0-0.6,0.1-1.2,0.2-1.8h-2.8v28l-18.4-19v12.2h-6.3v-28.8l18.4,19v-11.5h-7.2V211h7.2h6.3h6.5v1.2c1.5-0.9,3.4-1.5,5.3-1.5
		c5.1,0,9.5,3.9,9.2,8.8h-6.9c0-1-0.2-1.6-0.7-2c-0.5-0.4-1-0.7-1.9-0.7c-1.4,0-2.2,0.9-2.2,2.1c0,1.6,2,2.2,3.2,2.5
		c2,0.6,4.1,1.2,5.8,2.5c2.3,1.6,3.3,3.7,3.3,6.5c0,5.2-4.7,9-10.1,9c-5.2,0-10.1-3.6-10.1-8.7v-0.7h7v0.7
		C638.6,232.3,640,233.4,642,233.4L642,233.4z"/>
	<path fill="#00457C" d="M559.9,206.1v26.8h9.2c7.4,0,13.5-6,13.5-13.4c0-7.4-6-13.4-13.5-13.4H559.9L559.9,206.1z M552.9,199.4h7
		l9.2,0c8.1,0,15.2,4.8,18.4,11.7h3.5h13.1v6.1H591v3.4l13.1,0v6.1H591v5.6h13.1v6.1H591h-7v-5.3c-3.7,4-9,6.6-14.9,6.6l-9.2,0h-7
		V199.4L552.9,199.4z"/>
	<g>
		<path fill="#00457C" d="M567.8,276.7h-3V250h3V276.7z"/>
		<path fill="#00457C" d="M573.6,256.7l6.9,15.9l6.9-15.9l3.8,20h-2.2l-2.4-12.8h0l-6.1,13.6l-6.1-13.6h0l-2.4,12.8h-2.2
			L573.6,256.7z"/>
		<path fill="#00457C" d="M595.3,276.7h-2.1v-18.9h3.1c1.6,0,3.3,0,4.7,1c1.4,1,2.1,2.6,2.1,4.3c0,1.5-0.6,3.1-1.8,4.1
			c-1.3,1.1-2.9,1.3-4.5,1.3h-1.5V276.7z M595.3,266.5h1.4c2.3,0,4.3-0.7,4.3-3.4c0-3.1-2.5-3.3-4.9-3.3h-0.8V266.5z"/>
		<path fill="#00457C" d="M607.4,274.7h5.2v2h-7.3v-18.9h2.1V274.7z"/>
		<path fill="#00457C" d="M617,271.3l-2.3,5.4h-2.3l8.7-19.8l8.5,19.8h-2.3l-2.2-5.4H617z M621.1,261.8l-3.2,7.6h6.4L621.1,261.8z"
			/>
		<path fill="#00457C" d="M631.4,257l14.8,15.5v-14.7h2.1v19.8l-14.8-15.4v14.6h-2.1V257z"/>
		<path fill="#00457C" d="M656.7,276.7h-2.1v-17H650v-2h11.3v2h-4.6V276.7z"/>
		<path fill="#00457C" d="M670.8,261.5c-0.8-1.3-1.7-2.1-3.3-2.1c-1.7,0-3.1,1.2-3.1,2.9c0,1.6,1.7,2.4,3,3l1.3,0.6
			c2.5,1.1,4.5,2.3,4.5,5.3c0,3.3-2.7,5.8-5.9,5.8c-3,0-5.3-2-5.9-4.9l2.1-0.6c0.3,1.9,1.8,3.5,3.8,3.5c2,0,3.9-1.6,3.9-3.7
			c0-2.2-1.7-3-3.5-3.8l-1.2-0.5c-2.2-1-4.1-2.1-4.1-4.8c0-2.9,2.5-4.8,5.3-4.8c2.1,0,3.9,1.1,4.9,2.9L670.8,261.5z"/>
	</g>
</g>
<g>
	<path fill="#0062AE" d="M389.8,227.9v23c0,1.4,0.2,2.4,0.6,3.2c0.4,0.8,1.3,1.2,2.8,1.3c1.2,0,1.9-0.1,1.9-0.1
		c0.9-0.1,1.7,0.6,1.7,1.6v1.8c-0.6,0-1.2,0-1.9,0.1c-0.6,0-1.2,0.1-1.9,0.1c-2.8,0-4.7-0.6-5.8-1.6c-1.4-1.3-1.5-4.3-1.5-4.3
		c-0.1-0.9,0-2.5,0-3.4v-21.6h-4.2c-0.9,0-1.7-0.8-1.7-1.7v-1.8h6v-8.5c0-0.9,0.8-1.7,1.7-1.7h0.8c0.9,0,1.7,0.8,1.7,1.7v8.5h0h5.2
		c0.9,0,1.7,0.8,1.7,1.7v1.8H389.8z"/>
	<g>
		<path fill="#0062AE" d="M319.2,247.2c0.4,1.6,1.1,3.1,2,4.3c0.9,1.3,2.1,2.3,3.5,3.2c1.4,0.8,3.1,1.3,5.1,1.3c3,0,5.4-0.8,7.1-2.4
			c2.2-2.1,3.1-4.8,3.1-4.8c0.4-1.1,1.2-1.6,2.3-1.6h2.3c-0.9,3.9-2.5,6.9-4.9,9c-2.4,2.1-5.7,3.2-10,3.2c-2.7,0-5-0.5-7-1.4
			c-2-0.9-3.6-2.2-4.8-3.9c-1.2-1.7-2.1-3.6-2.7-5.8c-0.6-2.2-0.9-4.5-0.9-6.9c0-2.2,0.3-4.5,0.9-6.6c0.6-2.2,1.5-4.1,2.7-5.8
			c1.2-1.7,2.8-3.1,4.8-4.1c2-1,4.3-1.6,7-1.6c2.7,0,5.1,0.6,7,1.7c1.9,1.1,3.5,2.5,4.7,4.3c1.2,1.8,2.1,3.8,2.6,6.2
			c0.5,2.3,0.7,5.3,0.7,5.3c0,0.9-0.7,1.7-1.7,1.7h-24.6C318.5,244,318.7,245.6,319.2,247.2z M339.8,234.5c-0.5-1.5-1.2-2.7-2.1-3.9
			c-0.9-1.1-2.1-2-3.4-2.7c-1.3-0.7-2.8-1-4.5-1c-1.7,0-3.2,0.3-4.6,1c-1.3,0.7-2.4,1.6-3.4,2.7c-0.9,1.1-1.7,2.4-2.2,3.9
			c-0.6,1.5-0.8,2.9-0.8,2.9c-0.2,0.9,0.5,1.7,1.4,1.7h20.4C340.6,237.4,340.3,235.9,339.8,234.5z"/>
	</g>
	<g>
		<path fill="#0062AE" d="M196.7,247.2c0.4,1.6,1.1,3.1,2,4.3c0.9,1.3,2.1,2.3,3.5,3.2c1.4,0.8,3.1,1.3,5.1,1.3c3,0,5.4-0.8,7.1-2.4
			c2.2-2.1,3.1-4.8,3.1-4.8c0.4-1.1,1.2-1.6,2.3-1.6h2.3c-0.9,3.9-2.5,6.9-4.9,9c-2.4,2.1-5.7,3.2-10,3.2c-2.7,0-5-0.5-7-1.4
			c-2-0.9-3.6-2.2-4.8-3.9c-1.2-1.7-2.1-3.6-2.7-5.8c-0.6-2.2-0.9-4.5-0.9-6.9c0-2.2,0.3-4.5,0.9-6.6c0.6-2.2,1.5-4.1,2.7-5.8
			c1.2-1.7,2.8-3.1,4.8-4.1c2-1,4.3-1.6,7-1.6c2.7,0,5.1,0.6,7,1.7c1.9,1.1,3.5,2.5,4.7,4.3c1.2,1.8,2.1,3.8,2.6,6.2
			c0.5,2.3,0.7,5.3,0.7,5.3c0,0.9-0.7,1.7-1.7,1.7h-24.6C196.1,244,196.3,245.6,196.7,247.2z M217.3,234.5c-0.5-1.5-1.2-2.7-2.1-3.9
			c-0.9-1.1-2.1-2-3.4-2.7c-1.3-0.7-2.8-1-4.5-1c-1.7,0-3.2,0.3-4.6,1c-1.3,0.7-2.4,1.6-3.4,2.7c-0.9,1.1-1.7,2.4-2.2,3.9
			c-0.6,1.5-0.8,2.9-0.8,2.9c-0.2,0.9,0.5,1.7,1.4,1.7h20.4C218.1,237.4,217.8,235.9,217.3,234.5z"/>
	</g>
	<g>
		<path fill="#0062AE" d="M282.9,252v22.9c0,0.9-0.8,1.7-1.7,1.7h-0.8c-0.9,0-1.7-0.8-1.7-1.7V226c0-0.9,0.8-1.7,1.7-1.7h0.4
			c0.9,0,1.7,0.8,1.7,1.7v4.8h0.1l0,0c1-2.4,2.5-4.2,4.7-5.5c2.2-1.3,4.7-2,7.4-2c2.6,0,4.9,0.5,6.8,1.5c1.9,1,3.5,2.3,4.8,3.9
			c1.3,1.7,2.2,3.6,2.8,5.8c0.6,2.2,0.9,4.5,0.9,6.9c0,2.4-0.3,4.7-0.9,6.9c-0.6,2.2-1.6,4.1-2.8,5.8c-1.3,1.7-2.9,3-4.8,3.9
			c-1.9,0.9-4.2,1.4-6.8,1.4c-1.2,0-2.5-0.2-3.7-0.5c-1.2-0.3-2.4-0.8-3.4-1.4c-1.1-0.6-2-1.4-2.8-2.3c0,0-0.6-0.6-1-1.4
			c-0.6-1-0.9-1.8-0.9-1.8H282.9z M305.4,236.2c-0.4-1.7-1.1-3.3-2-4.7c-0.9-1.4-2.1-2.5-3.5-3.3c-1.4-0.9-3.1-1.3-5.1-1.3
			c-2.3,0-4.2,0.4-5.8,1.2c-1.5,0.8-2.8,1.9-3.7,3.2c-0.9,1.3-1.6,2.9-2,4.6c-0.4,1.8-0.6,3.6-0.6,5.6c0,1.8,0.2,3.5,0.6,5.3
			c0.4,1.7,1.1,3.3,2.1,4.7c0.9,1.4,2.2,2.5,3.7,3.3c1.5,0.9,3.4,1.3,5.6,1.3c2,0,3.7-0.4,5.1-1.3c1.4-0.9,2.6-2,3.5-3.3
			c0.9-1.4,1.6-2.9,2-4.7c0.4-1.7,0.6-3.5,0.6-5.3C306,239.6,305.8,237.9,305.4,236.2z"/>
	</g>
	<g>
		<path fill="#0062AE" d="M229.3,202.5c0.9-0.2,1.7,0.4,1.7,1.3v53c0,0.9-0.8,1.7-1.7,1.7h-0.8c-0.9,0-1.7-0.8-1.7-1.7v-52
			c0-0.9,0.7-1.9,1.7-2.1L229.3,202.5z"/>
	</g>
	<g>
		<path fill="#0062AE" d="M241.5,199.4c0.9-0.3,1.6,0.3,1.6,1.2v56.2c0,0.9-0.8,1.7-1.7,1.7h-0.8c-0.9,0-1.7-0.8-1.7-1.7v-55
			c0-0.9,0.7-1.9,1.6-2.2L241.5,199.4z"/>
	</g>
	<g>
		<path fill="#0062AE" d="M141,224.6c0.9-0.2,1.8,0.3,2.1,1.2l6.3,25.1c0.2,0.9,0.4,1.7,0.5,1.7c0,0,0.3-0.7,0.6-1.6l10.4-29.9
			c0.3-0.9,1.3-1.8,2.2-2l2.7-0.7c0.9-0.2,1.9,0.3,2.2,1.2l10.1,31.3c0.3,0.9,0.6,1.6,0.6,1.6c0,0,0.3-0.7,0.5-1.6l9.6-36.7
			c0.2-0.9,1.2-1.8,2.1-2.1l1.5-0.4c0.9-0.2,1.4,0.3,1.2,1.2l-12.1,43.9c-0.2,0.9-1.2,1.6-2.2,1.6h-1.4c-0.9,0-1.9-0.7-2.2-1.6
			L165.2,225c-0.3-0.9-0.6-1.6-0.6-1.6c0,0-0.3,0.7-0.6,1.6l-11.2,31.9c-0.3,0.9-1.3,1.6-2.3,1.6H149c-0.9,0-1.9-0.7-2.2-1.6
			l-8.2-29.9c-0.2-0.9,0.3-1.8,1.2-2.1L141,224.6z"/>
	</g>
	<path fill="#0062AE" d="M375.4,235.1c0,0-1.4,0-1.9-1.4c-0.6-1.9-1.5-3.4-2.8-4.6c-1.5-1.5-3.7-2.2-6.5-2.2c-2,0-3.7,0.4-5.2,1.3
		c-1.5,0.8-2.7,1.9-3.7,3.3c-1,1.4-1.7,2.9-2.3,4.7c-0.5,1.7-0.8,3.5-0.8,5.3c0,1.8,0.3,3.6,0.8,5.3c0.5,1.7,1.3,3.3,2.3,4.7
		c1,1.4,2.2,2.5,3.7,3.3c1.5,0.8,3.2,1.3,5.2,1.3c1.3,0,2.5-0.2,3.6-0.7c1.1-0.5,2.2-1.2,3-2c0.9-0.9,1.6-1.9,2.2-3.1
		c0.6-1.2,0.8-2.2,0.8-2.2c0.2-1.2,1-1.7,2-1.7h2.5c-0.6,4.1-2.1,7.4-4.6,9.7c-2.5,2.3-5.6,3.5-9.5,3.5c-2.6,0-4.9-0.5-6.9-1.4
		c-2-0.9-3.7-2.2-5.1-3.9c-1.4-1.6-2.4-3.5-3.1-5.7c-0.7-2.2-1.1-4.5-1.1-7c0-2.5,0.4-4.8,1.1-7c0.7-2.2,1.7-4.1,3.1-5.7
		c1.4-1.6,3.1-2.9,5.1-3.9c2-1,4.3-1.5,6.9-1.5c3.7,0,6.7,1,9.3,2.9c3.6,2.7,4.3,7.2,4.3,7.2l0.3,1.6H375.4z"/>
	<g>
		<path fill="#0062AE" d="M251.7,249.3c0.4,1.9,1.4,3.4,2.8,4.5c1.9,1.4,4.2,2.2,7,2.2c1,0,2.1-0.1,3.1-0.3c1.1-0.2,2.1-0.6,3-1.1
			c0.9-0.5,1.7-1.2,2.3-2c0.6-0.8,0.9-1.8,0.9-3c0-1-0.2-1.9-0.6-2.5c-0.4-0.7-1-1.3-1.7-1.7c-0.7-0.5-1.5-0.9-2.4-1.2
			c-0.9-0.3-1.1-0.4-1.1-0.4c-0.9-0.2-2.4-0.6-3.3-0.8l-3.7-0.8c-1.4-0.4-2.6-0.8-3.8-1.2c-1.1-0.5-2.1-1-3-1.7
			c-0.9-0.7-1.5-1.5-2-2.5c-0.5-1-0.7-2.2-0.7-3.7c0-1.7,0.4-3.2,1.2-4.4c0.8-1.2,1.8-2.2,3-3c1.2-0.7,2.6-1.3,4.1-1.7
			c1.5-0.4,3-0.5,4.5-0.5c1.7,0,3.3,0.2,4.8,0.7c1.5,0.4,2.8,1.1,3.9,2.1s2,2.1,2.7,3.4c0.7,1.4,0.9,3,1,3.1
			c0.1,0.7,0.2,1.7,0.2,1.7h-2.1c0,0-1.8,0-2.3-2.1c-0.1-0.4-0.3-0.9-0.5-1.3c-0.5-0.9-1.1-1.7-2-2.3c-0.8-0.6-1.8-1.1-2.8-1.4
			c-1.1-0.3-2.2-0.4-3.4-0.4c-0.9,0-1.9,0.1-2.8,0.3c-0.9,0.2-1.8,0.5-2.6,1c-0.8,0.5-1.4,1.1-1.9,1.8c-0.5,0.8-0.7,1.7-0.7,2.8
			c0,0.9,0.2,1.7,0.7,2.3c0.5,0.6,1,1.2,1.8,1.6c0.7,0.4,1.5,0.8,2.3,1.1c0.8,0.3,0.8,0.3,0.8,0.3c0.8,0.2,2.2,0.6,3.1,0.8l3.9,0.9
			c1.6,0.4,2.4,0.5,3.5,1c1.2,0.5,2.2,1.1,3.1,1.8c0.9,0.8,1.6,1.7,2.2,2.8c0.6,1.1,0.9,2.4,0.9,3.9c0,1.9-0.4,3.4-1.3,4.7
			c-0.8,1.3-1.9,2.4-3.2,3.2c-1.3,0.8-2.8,1.4-4.4,1.8c-1.6,0.4-3.2,0.5-4.8,0.5c-4,0-7.2-1-9.8-2.8c-3.5-2.6-4.1-7.5-4.1-7.5
			l-0.2-1.7h2.4C251.3,247.4,251.7,249.3,251.7,249.3z"/>
	</g>
	<g>
		<path fill="#0062AE" d="M289.7,263.7v5.5h7.5v-5.5h1.2v12.7h-1.2v-6.1h-7.5v6.1h-1.2v-12.7H289.7z"/>
		<path fill="#0062AE" d="M309.8,263.7v1h-7.5v4.6h7.1v1h-7.1v5h7.6v1H301v-12.7H309.8z"/>
		<path fill="#0062AE" d="M316.6,263.7l5,12.7h-1.3l-1.5-3.9H313l-1.5,3.9h-1.3l5.1-12.7H316.6z M318.3,271.4l-2.5-6.5l-2.5,6.5
			H318.3z"/>
		<path fill="#0062AE" d="M323.6,263.7v11.7h7.1v1h-8.3v-12.7H323.6z"/>
		<path fill="#0062AE" d="M339,263.7v1h-4.4v11.7h-1.2v-11.7H329v-1H339z"/>
		<path fill="#0062AE" d="M341.4,263.7v5.5h7.5v-5.5h1.2v12.7H349v-6.1h-7.5v6.1h-1.2v-12.7H341.4z"/>
		<path fill="#0062AE" d="M361.2,266.2c-0.2-0.4-0.5-0.7-0.9-1c-0.4-0.3-0.7-0.5-1.2-0.6c-0.4-0.1-0.9-0.2-1.3-0.2
			c-0.8,0-1.6,0.2-2.2,0.5c-0.6,0.3-1.1,0.7-1.5,1.3c-0.4,0.5-0.7,1.1-0.9,1.8c-0.2,0.7-0.3,1.3-0.3,2c0,0.7,0.1,1.4,0.3,2
			c0.2,0.7,0.5,1.3,0.9,1.8c0.4,0.5,0.9,1,1.5,1.3c0.6,0.3,1.3,0.5,2.2,0.5c0.6,0,1.1-0.1,1.6-0.3c0.5-0.2,0.9-0.5,1.2-0.9
			c0.3-0.4,0.6-0.8,0.8-1.3c0.2-0.5,0.3-1,0.4-1.6h1.2c-0.1,0.8-0.3,1.5-0.5,2.1c-0.3,0.6-0.7,1.2-1.1,1.6c-0.5,0.4-1,0.8-1.6,1
			c-0.6,0.2-1.3,0.4-2,0.4c-1,0-1.9-0.2-2.6-0.5c-0.8-0.4-1.4-0.8-1.9-1.4c-0.5-0.6-0.9-1.3-1.1-2.1c-0.2-0.8-0.4-1.6-0.4-2.5
			c0-0.9,0.1-1.7,0.4-2.5c0.2-0.8,0.6-1.5,1.1-2.1c0.5-0.6,1.1-1.1,1.9-1.5c0.8-0.4,1.6-0.5,2.6-0.5c0.6,0,1.2,0.1,1.8,0.3
			c0.6,0.2,1.1,0.4,1.6,0.8c0.5,0.4,0.9,0.8,1.2,1.3c0.3,0.5,0.5,1.1,0.6,1.8h-1.2C361.6,267.1,361.4,266.6,361.2,266.2z"/>
		<path fill="#0062AE" d="M370,263.7l5,12.7h-1.3l-1.5-3.9h-5.8l-1.5,3.9h-1.3l5.1-12.7H370z M371.7,271.4l-2.5-6.5l-2.5,6.5H371.7z
			"/>
		<path fill="#0062AE" d="M381.9,263.7c0.5,0,1,0.1,1.5,0.2c0.5,0.1,0.9,0.3,1.2,0.6c0.4,0.3,0.6,0.6,0.8,1c0.2,0.4,0.3,0.9,0.3,1.5
			c0,0.8-0.2,1.5-0.6,2.1c-0.4,0.6-1,1-1.8,1.1v0c0.4,0.1,0.8,0.2,1,0.3c0.3,0.2,0.5,0.4,0.7,0.6c0.2,0.2,0.3,0.5,0.4,0.9
			c0.1,0.3,0.1,0.7,0.1,1.1c0,0.2,0,0.5,0,0.8c0,0.3,0,0.6,0.1,0.9c0,0.3,0.1,0.6,0.2,0.9c0.1,0.3,0.2,0.5,0.3,0.6h-1.3
			c-0.1-0.1-0.1-0.3-0.2-0.4c0-0.2-0.1-0.3-0.1-0.5c0-0.2,0-0.4,0-0.5c0-0.2,0-0.3,0-0.5c0-0.4-0.1-0.9-0.1-1.3
			c-0.1-0.4-0.2-0.8-0.3-1.2c-0.2-0.3-0.4-0.6-0.7-0.8c-0.3-0.2-0.8-0.3-1.3-0.3h-4.6v5.6h-1.2v-12.7H381.9z M381.9,269.7
			c0.4,0,0.7-0.1,1-0.2c0.3-0.1,0.6-0.3,0.9-0.5c0.2-0.2,0.4-0.5,0.6-0.8c0.1-0.3,0.2-0.6,0.2-1c0-0.8-0.2-1.4-0.7-1.8
			c-0.4-0.5-1.1-0.7-2.1-0.7h-4.5v5H381.9z"/>
		<path fill="#0062AE" d="M396.7,263.7v1h-7.5v4.6h7.1v1h-7.1v5h7.6v1H388v-12.7H396.7z"/>
	</g>
</g>
<g>
</g>
<g>
</g>
<g>
</g>
<g>
</g>
<g>
</g>
<g>
</g>
</svg>
