<?xml version="1.0" encoding="utf-8"?>
<!-- Generator: Adobe Illustrator 17.1.0, SVG Export Plug-In . SVG Version: 6.00 Build 0)  -->
<!DOCTYPE svg PUBLIC "-//W3C//DTD SVG 1.1//EN" "http://www.w3.org/Graphics/SVG/1.1/DTD/svg11.dtd">
<svg version="1.1" xmlns="http://www.w3.org/2000/svg" xmlns:xlink="http://www.w3.org/1999/xlink" x="0px" y="0px"
	 viewBox="0 0 841.9 595.3" enable-background="new 0 0 841.9 595.3" xml:space="preserve">
<g id="blu">
	<g>
		<path fill="#00A9E7" d="M340.2,284.3h12.2c1.6,0,2.9-0.4,3.9-1.2c1-0.8,1.4-1.8,1.4-3.1c0-1.3-0.5-2.3-1.5-3.1
			c-1-0.8-2.3-1.2-3.8-1.2H340c-13.3,0-20,4-20,11.9v20.1c0,7.9,6.7,11.8,20.1,11.8h12.3c1.5,0,2.8-0.4,3.8-1.1
			c1-0.8,1.5-1.8,1.5-3.1c0-1.2-0.5-2.3-1.4-3.1c-1-0.8-2.2-1.2-3.9-1.2h-12.3c-6.3,0-9.4-1.1-9.4-3.3v-6.4h18.4c1.7,0,3-0.4,4-1.3
			c1-0.8,1.4-1.8,1.4-2.9c0-1.2-0.5-2.2-1.4-3c-1-0.8-2.3-1.3-4-1.3h-18.4V288C330.7,285.5,333.8,284.3,340.2,284.3L340.2,284.3z"/>
		<path fill="#00A9E7" d="M233.3,276.9c-1-0.8-2.3-1.1-3.7-1.1c-1.4,0-2.6,0.4-3.7,1.1c-1.1,0.8-1.6,1.8-1.6,3.2V315
			c0,1.5,0.5,2.7,1.5,3.5c1,0.8,2.2,1.2,3.7,1.2c1.5,0,2.7-0.4,3.8-1.2c1.1-0.8,1.6-1.9,1.6-3.4v-34.9
			C234.9,278.7,234.3,277.7,233.3,276.9L233.3,276.9z"/>
		<path fill="#00A9E7" d="M199.9,276.9c-1.1-0.8-2.3-1.1-3.7-1.1c-1.4,0-2.6,0.4-3.7,1.1c-1.1,0.8-1.6,1.8-1.6,3.2v30.2l-9.5-16.7
			c-1.2-2.1-2.8-3.1-5-3.1c-2,0-3.6,1-4.8,3.1l-9.4,16.9v-30.4c0-1.4-0.5-2.5-1.6-3.2c-1.1-0.7-2.3-1.1-3.7-1.1
			c-1.5,0-2.7,0.4-3.8,1.1c-1,0.7-1.6,1.8-1.6,3.2v35.3c0,2.8,1.8,4.2,5.3,4.2h7.7c2.5,0,4.1-0.8,4.9-2.4l6.9-13.8l7.2,13.8
			c0.8,1.6,2.4,2.4,4.8,2.4h7.7c3.5,0,5.3-1.4,5.3-4.2v-35.3C201.5,278.7,201,277.7,199.9,276.9L199.9,276.9z"/>
		<path fill="#00A9E7" d="M287.3,306.1c0,3.3-3.5,5-10.4,5h-8.6v-26.8h8.6c6.9,0,10.3,1.8,10.3,5.3V306.1L287.3,306.1z M277,275.8
			h-14.8c-3,0-4.5,1.1-4.5,3.4v37.1c0,2.2,1.5,3.4,4.5,3.4H277c13.9,0,20.9-4.3,20.9-12.9v-18.6C297.9,279.9,290.9,275.8,277,275.8
			L277,275.8z"/>
		<path fill="#00A9E7" d="M647.7,284.3H660c1.6,0,2.9-0.4,3.9-1.2c1-0.8,1.4-1.8,1.4-3.1c0-1.3-0.5-2.3-1.5-3.1
			c-1-0.8-2.3-1.2-3.8-1.2h-12.4c-13.3,0-20,4-20,11.9v20.1c0,7.9,6.7,11.8,20,11.8H660c1.5,0,2.8-0.4,3.8-1.1
			c1-0.8,1.5-1.8,1.5-3.1c0-1.2-0.5-2.3-1.4-3.1c-1-0.8-2.2-1.2-3.9-1.2h-12.3c-6.3,0-9.4-1.1-9.4-3.3v-6.4h18.4c1.7,0,3-0.4,4-1.3
			c0.9-0.8,1.4-1.8,1.4-3c0-1.2-0.5-2.2-1.4-3c-1-0.8-2.3-1.3-4-1.3h-18.4V288C638.2,285.5,641.4,284.3,647.7,284.3L647.7,284.3z"/>
		<path fill="#00A9E7" d="M398.6,291.8c-6.4,0-9.6-0.9-9.6-2.8v-3.1c0-1.7,3.4-2.5,10.1-2.5c5.6,0,8.3,0.9,8.3,2.8
			c0,2.9,1.8,4.4,5.4,4.4c3.5,0,5.2-1.6,5.2-4.8c0-7.2-6.5-10.9-19.5-10.9c-13.3,0-20,3.7-20,11v3.4c0,7.1,6.7,10.7,20,10.7
			c6.5,0,9.7,0.9,9.7,2.8v6.6c0,1.7-3.3,2.5-9.9,2.5c-6.2,0-9.3-0.8-9.3-2.5V306c0-2.8-1.8-4.2-5.3-4.2c-3.5,0-5.3,1.4-5.3,4.2v3.8
			c0,7.1,6.7,10.6,20.1,10.6c13.4,0,20.1-3.7,20.1-11V302C418.8,295.2,412.1,291.8,398.6,291.8L398.6,291.8z"/>
		<path fill="#00A9E7" d="M470.8,297.3c0,2.2-2.8,3.3-8.3,3.3h-10.8v-16.3h9.5c6.3,0,9.5,1.1,9.5,3.4V297.3L470.8,297.3z
			 M461.2,275.8h-14.8c-3.5,0-5.3,1.4-5.3,4.2v35.4c0,1.3,0.5,2.3,1.6,3.1c1.1,0.8,2.3,1.1,3.7,1.1c1.4,0,2.6-0.4,3.7-1.1
			c1.1-0.8,1.6-1.8,1.6-3.1v-6.2h10.8c12.5,0,18.7-3.6,18.7-10.8v-11.9C481.2,279.3,474.6,275.8,461.2,275.8L461.2,275.8z"/>
		<path fill="#00A9E7" d="M599.4,278c-1.9-0.9-4.1-1.7-6.5-2.3c-2.4-0.6-4.9-0.8-7.4-0.8c-3,0-5.8,0.3-8.2,0.9
			c-2.4,0.6-4.5,1.4-6.3,2.4c-1.7,1-3.1,2.2-4,3.5c-1,1.3-1.4,2.7-1.4,4.2v24.1c0,1.6,0.6,3,1.8,4.3c1.2,1.3,2.8,2.4,4.7,3.3
			c1.9,0.9,4.1,1.6,6.4,2.1c2.4,0.5,4.8,0.8,7.2,0.8c2.9,0,5.6-0.3,8.1-0.9c2.5-0.6,4.6-1.4,6.4-2.4c1.8-1,3.1-2.2,4.1-3.5
			c1-1.3,1.5-2.7,1.5-4.2v-6.7c0-1.3-0.5-2.4-1.5-3.2c-1-0.8-2.3-1.1-3.8-1.1c-1.4,0-2.6,0.4-3.7,1.1c-1.1,0.8-1.6,1.8-1.6,3.2v5.3
			c0,0.5-0.3,1-0.8,1.5c-0.5,0.5-1.2,0.9-2.1,1.3c-0.9,0.4-1.9,0.7-3.1,0.9c-1.2,0.2-2.4,0.3-3.7,0.3c-1,0-2-0.1-3-0.3
			c-1.1-0.2-2.1-0.5-3-0.8c-0.9-0.4-1.7-0.8-2.3-1.3c-0.6-0.5-0.9-1-0.9-1.6v-20.7c0-0.9,0.9-1.8,2.6-2.6c1.7-0.8,4-1.2,7-1.2
			c2.6,0,4.8,0.3,6.7,1c1.9,0.7,2.8,1.6,2.8,2.7v1.3c0,1.2,0.5,2.2,1.6,3c1,0.8,2.3,1.2,3.8,1.2c1.5,0,2.8-0.4,3.7-1.1
			c1-0.7,1.5-1.8,1.5-3.1v-2.6c0-1.5-0.6-2.9-1.7-4.3C602.9,280.1,601.3,278.9,599.4,278L599.4,278z"/>
		<path fill="#00A9E7" d="M532.6,302h-18.9v-15.3c0-2.1,3.4-3.2,10.3-3.2c5.7,0,8.6,1.2,8.6,3.5V302L532.6,302z M536.9,278
			c-1.9-1-4.1-1.7-6.5-2.2c-2.4-0.5-4.9-0.8-7.4-0.8c-3,0-5.7,0.3-8.1,0.9c-2.4,0.6-4.5,1.4-6.3,2.4c-1.8,1-3.1,2.1-4.1,3.4
			c-1,1.3-1.5,2.7-1.5,4.1v29.7c0.1,1.3,0.7,2.4,1.8,3.2c1.1,0.8,2.3,1.1,3.7,1.1c1.5,0,2.7-0.4,3.7-1.1c1-0.8,1.6-1.8,1.6-3.2v-4.9
			h18.9v4.9c0,1.3,0.5,2.4,1.6,3.2c1.1,0.8,2.3,1.1,3.8,1.1c1.4,0,2.6-0.4,3.7-1.1c1-0.8,1.6-1.8,1.6-3.2v-29.7
			c0-1.5-0.6-2.9-1.7-4.3C540.3,280.1,538.8,279,536.9,278L536.9,278z"/>
	</g>
	<g>
		<path fill="#00A9E7" d="M678,284.3c-2.3,0-4.2-1.9-4.2-4.2c0-2.4,1.9-4.2,4.2-4.2c2.4,0,4.2,1.9,4.2,4.2
			C682.2,282.4,680.4,284.3,678,284.3z M678,276.4c-2,0-3.6,1.6-3.6,3.6c0,2,1.6,3.6,3.6,3.6s3.6-1.6,3.6-3.6
			C681.6,278,680,276.4,678,276.4z M679.2,282.5l-1.3-1.9h-0.8v1.9h-0.7v-4.9h2c0.8,0,1.6,0.6,1.6,1.5c0,1.1-1,1.4-1.2,1.4l1.3,1.9
			H679.2z M678.4,278.2h-1.3v1.7h1.3c0.4,0,0.9-0.3,0.9-0.8C679.2,278.5,678.8,278.2,678.4,278.2z"/>
	</g>
</g>
<g id="UpCase">
	<g>
		<path d="M371.3,357.5v-13.4l-5.4,13.4h-0.8l-5.4-13.4v13.4h-2v-16h2.9l5,12.3l5-12.3h2.9v16H371.3z"/>
		<path d="M376.3,351.7c0-3.4,2.2-6.1,5.7-6.1c3.5,0,5.7,2.7,5.7,6.1s-2.2,6.1-5.7,6.1C378.5,357.8,376.3,355,376.3,351.7z
			 M385.9,351.7c0-2.3-1.4-4.5-3.8-4.5c-2.5,0-3.8,2.1-3.8,4.5c0,2.4,1.4,4.5,3.8,4.5C384.5,356.2,385.9,354.1,385.9,351.7z"/>
		<path d="M390.7,357.5v-16h1.8v6.2c0.9-1.3,2.3-2,3.9-2c3,0,5.2,2.4,5.2,6.1c0,3.8-2.1,6.1-5.2,6.1c-1.6,0-3-0.8-3.9-2v1.7H390.7z
			 M396,356.2c2.3,0,3.7-1.9,3.7-4.5s-1.4-4.5-3.7-4.5c-1.4,0-2.9,0.9-3.5,1.9v5.2C393.1,355.4,394.5,356.2,396,356.2z"/>
		<path d="M404.2,343.1c0-0.7,0.6-1.2,1.2-1.2s1.2,0.6,1.2,1.2c0,0.7-0.5,1.2-1.2,1.2S404.2,343.7,404.2,343.1z M404.5,357.5v-11.6
			h1.8v11.6H404.5z"/>
		<path d="M409.9,357.5v-16h1.8v16H409.9z"/>
		<path d="M414.6,351.7c0-3.4,2.4-6.1,5.7-6.1c3.5,0,5.6,2.7,5.6,6.2v0.5h-9.3c0.1,2.2,1.7,4,4.1,4c1.3,0,2.7-0.5,3.6-1.5l0.9,1.2
			c-1.2,1.1-2.7,1.8-4.6,1.8C417.1,357.8,414.6,355.3,414.6,351.7z M420.3,347.1c-2.5,0-3.7,2.1-3.8,3.8h7.6
			C424.1,349.2,422.9,347.1,420.3,347.1z"/>
		<path d="M446.4,357.5l-1.4-3.6h-8l-1.4,3.6h-2.3l6.4-16h2.5l6.4,16H446.4z M441,343.5l-3.4,8.6h6.8L441,343.5z"/>
		<path d="M459.1,357.5v-1.7c-0.9,1.2-2.3,2-3.9,2c-3,0-5.2-2.3-5.2-6.1c0-3.7,2.1-6.1,5.2-6.1c1.6,0,3,0.8,3.9,2v-6.2h1.8v16H459.1
			z M459.1,354.3v-5.2c-0.6-1-2-1.9-3.5-1.9c-2.3,0-3.7,1.9-3.7,4.5s1.4,4.5,3.7,4.5C457.1,356.2,458.5,355.3,459.1,354.3z"/>
		<path d="M467.6,357.5l-4.8-11.6h2l3.8,9.5l3.9-9.5h1.9l-4.8,11.6H467.6z"/>
		<path d="M475.6,351.7c0-3.4,2.4-6.1,5.7-6.1c3.5,0,5.6,2.7,5.6,6.2v0.5h-9.3c0.1,2.2,1.7,4,4.1,4c1.3,0,2.7-0.5,3.6-1.5l0.9,1.2
			c-1.2,1.1-2.7,1.8-4.6,1.8C478,357.8,475.6,355.3,475.6,351.7z M481.3,347.1c-2.5,0-3.7,2.1-3.8,3.8h7.6
			C485,349.2,483.9,347.1,481.3,347.1z"/>
		<path d="M489.7,357.5v-11.6h1.8v1.8c0.9-1.2,2.3-2.1,3.9-2.1v1.8c-0.2,0-0.4,0-0.7,0c-1.1,0-2.6,0.9-3.2,1.8v8.2H489.7z"/>
		<path d="M498,355.1v-7.6h-1.9v-1.6h1.9v-3.2h1.8v3.2h2.3v1.6h-2.3v7.2c0,0.9,0.4,1.5,1.2,1.5c0.5,0,1-0.2,1.2-0.5l0.5,1.4
			c-0.5,0.4-1.1,0.7-2.1,0.7C498.9,357.8,498,356.8,498,355.1z"/>
		<path d="M504.4,343.1c0-0.7,0.6-1.2,1.2-1.2s1.2,0.6,1.2,1.2c0,0.7-0.5,1.2-1.2,1.2S504.4,343.7,504.4,343.1z M504.7,357.5v-11.6
			h1.8v11.6H504.7z"/>
		<path d="M509.1,356l0.9-1.3c0.8,0.9,2.2,1.7,3.8,1.7c1.8,0,2.8-0.8,2.8-2c0-2.8-7.2-1.1-7.2-5.4c0-1.8,1.5-3.3,4.3-3.3
			c2,0,3.4,0.7,4.3,1.7l-0.8,1.2c-0.7-0.8-1.9-1.5-3.5-1.5c-1.6,0-2.6,0.8-2.6,1.8c0,2.5,7.2,0.9,7.2,5.4c0,1.9-1.6,3.5-4.5,3.5
			C511.9,357.8,510.3,357.2,509.1,356z"/>
		<path d="M520.9,343.1c0-0.7,0.6-1.2,1.2-1.2s1.2,0.6,1.2,1.2c0,0.7-0.5,1.2-1.2,1.2S520.9,343.7,520.9,343.1z M521.2,357.5v-11.6
			h1.8v11.6H521.2z"/>
		<path d="M534.4,357.5v-7.6c0-2.1-1.1-2.7-2.6-2.7c-1.4,0-2.7,0.9-3.4,1.8v8.5h-1.8v-11.6h1.8v1.7c0.8-1,2.4-2,4.1-2
			c2.4,0,3.7,1.2,3.7,3.7v8.1H534.4z"/>
		<path d="M539.8,360.4l0.9-1.3c1,1.1,2.1,1.6,3.8,1.6c1.9,0,3.7-0.9,3.7-3.4v-1.7c-0.9,1.2-2.3,2.1-3.9,2.1c-3,0-5.2-2.3-5.2-6
			c0-3.7,2.1-6,5.2-6c1.6,0,3,0.8,3.9,2v-1.7h1.8v11.4c0,3.7-2.7,4.9-5.5,4.9C542.5,362.2,541.2,361.8,539.8,360.4z M548.2,354.2
			v-5.1c-0.6-1-2-1.8-3.5-1.8c-2.3,0-3.7,1.8-3.7,4.4c0,2.5,1.4,4.4,3.7,4.4C546.2,356,547.6,355.2,548.2,354.2z"/>
		<path d="M560.3,357.5v-10h-1.9v-1.6h1.9V345c0-2.4,1.3-3.8,3.4-3.8c0.9,0,1.7,0.2,2.4,0.9l-0.7,1.1c-0.4-0.3-0.8-0.6-1.4-0.6
			c-1.2,0-1.8,0.8-1.8,2.3v0.9h2.3v1.6h-2.3v10H560.3z"/>
		<path d="M566,351.7c0-3.4,2.2-6.1,5.7-6.1c3.5,0,5.7,2.7,5.7,6.1s-2.2,6.1-5.7,6.1C568.2,357.8,566,355,566,351.7z M575.5,351.7
			c0-2.3-1.4-4.5-3.8-4.5c-2.5,0-3.8,2.1-3.8,4.5c0,2.4,1.4,4.5,3.8,4.5C574.2,356.2,575.5,354.1,575.5,351.7z"/>
		<path d="M580.3,357.5v-11.6h1.8v1.8c0.9-1.2,2.3-2.1,3.9-2.1v1.8c-0.2,0-0.4,0-0.7,0c-1.1,0-2.6,0.9-3.2,1.8v8.2H580.3z"/>
		<path d="M594.5,357.5v-16h7.1c2.8,0,4.5,1.7,4.5,4.1c0,2-1.3,3.4-2.8,3.7c1.7,0.3,3.1,2,3.1,3.9c0,2.6-1.7,4.3-4.6,4.3H594.5z
			 M604.1,345.9c0-1.4-1-2.6-2.8-2.6h-4.8v5.2h4.8C603.1,348.4,604.1,347.3,604.1,345.9z M604.4,353c0-1.5-1-2.8-2.9-2.8h-4.9v5.5
			h4.9C603.3,355.7,604.4,354.7,604.4,353z"/>
		<path d="M609.5,357.5v-11.6h1.8v1.8c0.9-1.2,2.3-2.1,3.9-2.1v1.8c-0.2,0-0.4,0-0.7,0c-1.1,0-2.6,0.9-3.2,1.8v8.2H609.5z"/>
		<path d="M624.7,357.5v-1.3c-0.9,1.1-2.3,1.6-3.8,1.6c-1.9,0-4-1.3-4-3.8c0-2.6,2.1-3.8,4-3.8c1.6,0,2.9,0.5,3.8,1.6v-2.1
			c0-1.5-1.2-2.4-2.9-2.4c-1.4,0-2.5,0.5-3.5,1.6l-0.8-1.2c1.2-1.3,2.7-1.9,4.6-1.9c2.5,0,4.5,1.1,4.5,3.9v8H624.7z M624.7,355v-2.2
			c-0.7-0.9-1.9-1.4-3.2-1.4c-1.7,0-2.9,1.1-2.9,2.5c0,1.5,1.2,2.5,2.9,2.5C622.7,356.5,624,356,624.7,355z"/>
		<path d="M637.9,357.5v-7.6c0-2.1-1.1-2.7-2.6-2.7c-1.4,0-2.7,0.9-3.4,1.8v8.5h-1.8v-11.6h1.8v1.7c0.8-1,2.4-2,4.1-2
			c2.4,0,3.7,1.2,3.7,3.7v8.1H637.9z"/>
		<path d="M651.7,357.5v-1.7c-0.9,1.2-2.3,2-3.9,2c-3,0-5.2-2.3-5.2-6.1c0-3.7,2.1-6.1,5.2-6.1c1.6,0,3,0.8,3.9,2v-6.2h1.8v16H651.7
			z M651.7,354.3v-5.2c-0.6-1-2-1.9-3.5-1.9c-2.3,0-3.7,1.9-3.7,4.5s1.4,4.5,3.7,4.5C649.7,356.2,651.1,355.3,651.7,354.3z"/>
		<path d="M656.1,356l0.9-1.3c0.8,0.9,2.2,1.7,3.8,1.7c1.8,0,2.8-0.8,2.8-2c0-2.8-7.2-1.1-7.2-5.4c0-1.8,1.5-3.3,4.3-3.3
			c2,0,3.4,0.7,4.3,1.7l-0.8,1.2c-0.7-0.8-1.9-1.5-3.5-1.5c-1.6,0-2.6,0.8-2.6,1.8c0,2.5,7.2,0.9,7.2,5.4c0,1.9-1.6,3.5-4.5,3.5
			C658.9,357.8,657.3,357.2,656.1,356z"/>
	</g>
	<g>
	</g>
	<g>
	</g>
	<g>
	</g>
	<g>
	</g>
	<g>
	</g>
	<g>
	</g>
</g>
</svg>
