<?xml version="1.0" encoding="utf-8"?>
<!-- Generator: Adobe Illustrator 17.1.0, SVG Export Plug-In . SVG Version: 6.00 Build 0)  -->
<!DOCTYPE svg PUBLIC "-//W3C//DTD SVG 1.1//EN" "http://www.w3.org/Graphics/SVG/1.1/DTD/svg11.dtd">
<svg version="1.1" id="Lager_1" xmlns="http://www.w3.org/2000/svg" xmlns:xlink="http://www.w3.org/1999/xlink" x="0px" y="0px"
	 viewBox="0 0 1734 841.9" enable-background="new 0 0 1734 841.9" xml:space="preserve">
<g>
	<path fill="#3C3C3B" d="M842.5,183.4c-19.5-2.1-34.4,8.2-38.1,20.7c-3.4,11.5,2.1,17.1,15.9,21.7c16.8,5.7,18.8,8.7,16.9,15
		c-2.2,7.6-10.1,10.1-19,9.4c-11.8-1-16.8-7.4-12.7-18.5l-1.7-0.1c0,0-7.9,8-8.6,12.6c-1.4,9.4,7.9,17.5,25.2,18.2
		c14.3,0.5,27.9-6.1,30.8-21.3c2.1-10.9-2.5-18.5-17-23.5c-15.2-5.2-17.5-7.7-16-12.9c1.9-6.5,8.6-11.2,21.8-8.9
		c5.2,0.9,8.4,2.9,10.6,7.3l0.7,0.1l1.7-3.7C855.7,190.2,854.1,184.7,842.5,183.4z"/>
	<path fill="#3C3C3B" d="M879.3,237l7.5-42.8c1.2-6.8-2.8-10.2-7.3-10.2h-4l-9.7,54.9c-2.7,15.4,3.9,22.9,19,22.9
		c4.6,0,8.1-2.9,9-7.8l0.8-4.3H889C881.8,249.7,877.6,246.7,879.3,237z"/>
	<path fill="#3C3C3B" d="M926.8,196.4h16.3c6.9,0,10.6-3.2,11.5-7.9l0.8-4.3h-26.5l2.8-15.8H930c-1.9,0-6.7,2.7-9,5.5
		c-2.7,3.2-4.6,7.5-5.4,12l-8.8,50.1c-3.1,17.7,2.8,26.6,19.9,26.6c8.9,0,14.6-3.5,15.7-9.9l0.8-4.6h-0.7c-3,1.7-7.7,2.2-12.5,2.2
		c-8.4,0-11.9-4.6-9.9-15.6L926.8,196.4z"/>
	<path fill="#3C3C3B" d="M1081.5,182.6c-18.9,0-34.6,12.6-41.8,29.2c-16.2,23.3-27.6,32-33.7,35.2c-4.5,2.1-10.3,3.5-17.5,3.5
		c-14.4,0-21.7-9.1-20.8-21.9h19c26.4,0,33.7-5.6,36.1-19.2c2.7-15.4-9.4-26.8-24.4-26.8c-20.4,0-38.9,16.6-43.3,41.5
		c-3.9,22.2,8.2,38.4,29.4,38.4c2.7,0,5.3-0.2,7.6-0.5c0,0,0,0,0,0c0.4,0,0.7-0.1,1.1-0.2c0.2,0,0.3,0,0.5-0.1
		c9.9-1.5,23.2-5.6,42-28.1c1.5,18.5,16.8,28.8,30.5,28.8c16.6,0,23.8-8.6,24.7-13.5l1-5.5h-0.7c-4.7,4.6-12.1,6.8-20.5,6.8
		c-12,0-24.3-8.6-20.7-28.8c2.7-15.4,14.9-26.6,30.2-26.6c7.5,0,16.1,4.3,17.8,10.1h0.7l1-5.5C1101.5,188.4,1093,182.6,1081.5,182.6
		z M970.1,215c2.2-9.9,12.1-20.6,24.8-20.6c12.1,0,16.6,7.3,15.1,15.7c-1,5.8-4.5,7.5-23.1,7.8l-17.5,0.3L970.1,215z"/>
	<path fill="#3C3C3B" d="M685.8,228.5c26.4,0,33.7-5.6,36.1-19.2c2.7-15.4-9.4-26.8-24.4-26.8c-20.4,0-38.9,16.6-43.3,41.5
		c-3.9,22.2,8.2,38.4,29.4,38.4c17.3,0,27-6.2,28.4-14.3l1-5.8h-0.7c-5.1,4.2-12.9,7.9-24.7,7.9c-14.4,0-21.7-9.1-20.8-21.9H685.8z
		 M669.2,215c2.2-9.9,12.1-20.6,24.8-20.6c12.1,0,16.6,7.3,15.1,15.7c-1,5.8-4.5,7.5-23.1,7.8l-17.5,0.3L669.2,215z"/>
	<path fill="#3C3C3B" d="M766.9,221.8c16-18.5,32.6-37.7,32.6-37.7v-0.7H792c-6.1,0-9.1,2-11.4,5.1c0,0-8.6,9.8-19.4,22
		c-5.8-11.7-10.2-20.9-10.2-20.9c-1.5-3.6-4.8-6.1-10.3-6.1h-7v0.6c0,0,9.3,18.6,18.4,36.6c-15.5,17.1-32,34.7-34.4,34.5l-0.1,0.5
		c0.9,1.9,2.3,5.9,8.2,5.9c5.7,0,8.9-3.2,12.3-6.8c2.4-2.5,10.4-11.6,19.9-22.5c5.4,10.6,9.9,19.2,11.2,21.3c3.9,6.3,7.7,8,11.1,8
		c4,0,7-2.7,8.4-4.1v-0.5C784.9,255.2,775.4,238.2,766.9,221.8z"/>
</g>
<g>
	<circle fill="#E0006D" cx="856" cy="92.9" r="13.9"/>
	<path fill="#E0006D" d="M889.4,66c-0.6,4.3-4.7,7.3-9,6.7c-4.3-0.6-7.3-4.7-6.7-9c0.6-4.3,4.7-7.3,9-6.7
		C887.1,57.6,890.1,61.6,889.4,66z"/>
	<path fill="#E0006D" d="M889.8,138.7c-1.1,7.6-8.2,12.8-15.7,11.7c-7.6-1.1-12.8-8.2-11.7-15.7c1.1-7.6,8.2-12.8,15.7-11.7
		C885.7,124.1,890.9,131.1,889.8,138.7z"/>
	<path fill="#E0006D" d="M938.3,133c-1.1,7.6-8.2,12.8-15.7,11.7c-7.6-1.1-12.8-8.2-11.7-15.7c1.1-7.6,8.2-12.8,15.7-11.7
		C934.2,118.4,939.4,125.4,938.3,133z"/>
	<circle fill="#E0006D" cx="917.5" cy="65.3" r="10.8"/>
	<path fill="#E0006D" d="M944.1,96.8c-0.6,4.3-4.7,7.3-9,6.7c-4.3-0.6-7.3-4.7-6.7-9c0.6-4.3,4.7-7.3,9-6.7
		C941.7,88.4,944.7,92.5,944.1,96.8z"/>
</g>
<path fill="#3C3C3B" d="M907.5,102.6c-0.9,6.1-6.6,10.3-12.7,9.4c-6.1-0.9-10.3-6.6-9.4-12.7c0.9-6.1,6.6-10.3,12.7-9.4
	C904.2,90.8,908.4,96.5,907.5,102.6z"/>
<g>
</g>
<g>
</g>
<g>
</g>
<g>
</g>
<g>
</g>
<g>
</g>
</svg>
