<?xml version="1.0" encoding="utf-8"?>
<!-- Generator: Adobe Illustrator 17.1.0, SVG Export Plug-In . SVG Version: 6.00 Build 0)  -->
<!DOCTYPE svg PUBLIC "-//W3C//DTD SVG 1.1//EN" "http://www.w3.org/Graphics/SVG/1.1/DTD/svg11.dtd">
<svg version="1.1" id="Layer_1" xmlns="http://www.w3.org/2000/svg" xmlns:xlink="http://www.w3.org/1999/xlink" x="0px" y="0px"
	 viewBox="0 0 841.9 595.3" enable-background="new 0 0 841.9 595.3" xml:space="preserve">
<path fill="#C6C6C6" d="M351,253l-13.7,36c0-11.6-11.5-14-15.2-14.9c-12.8-3.3-15.3-3.8-15.3-7.8c0-4.3,4.2-5.8,7.7-5.8
	c5.4,0,9.8,1.6,10.1,7.7l10.9,0c0-11.8-9.8-16.5-20.5-16.5c-9.1,0-18.9,4.9-19.1,15.1c-0.8-10.8-10.2-15.1-20.5-15.1
	c-9.2,0-19.1,5-19.1,15.5c0,9.6,7.7,12.5,15.3,14.6c7.5,2,15.2,2.9,15.2,8.5c0,5.2-6,6.4-10,6.4c-6,0-11.3-2.7-11.3-9.5l-10.8,0
	L242,253.1h-11.5L211,304.3l11.4,0l4-11.4l19.2,0l3.9,11.4l11.7,0l-1.8-4.8c4.1,4.1,10.5,6,17.1,6c10.2,0,17-3.8,19.8-9.6
	c3.6,6.6,11.5,9.6,19.8,9.6c8,0,13.9-2.4,17.4-6.2l-1.9,4.9l11.4,0l4-11.4l19.2,0l3.9,11.4l11.7,0L362.5,253L351,253z M229.4,284.5
	l6.7-18.8l0.1,0l6.5,18.8L229.4,284.5z M316.5,296.7c-6,0-11.3-2.6-11.3-9.4l-7.5,0c-1.1-10.1-11.6-12.2-15.1-13.1
	c-12.8-3.3-15.3-3.8-15.3-7.7c0-4.3,4.2-5.8,7.7-5.8c5.4,0,9.7,1.6,10.1,7.7l10.9,0c0.5,8.8,7.9,11.6,15.2,13.5
	c7.5,2,15.2,2.9,15.2,8.5C326.4,295.6,320.4,296.7,316.5,296.7z M349.9,284.5l6.7-18.8l0.1,0l6.5,18.8L349.9,284.5z M472.5,276.4
	c4.5-2.2,7-5.7,7-10.7c0-9.5-6.6-12.7-16.4-12.7l-24.1,0l0,47.4L421.3,253l-11.6,0l-19.4,51.2l11.4,0l4-11.4l19.2,0l3.9,11.4l11.7,0
	l0,0l23.4,0c9.2,0,18.1-4.5,18.1-14.9C482,283,478.8,278.2,472.5,276.4z M408.7,284.4l6.7-18.8l0.1,0l6.5,18.8L408.7,284.4z
	 M450.3,261.7l10.5,0c4,0,7.8,1,7.8,5.9c0,4.3-3,6.1-6.9,6.1l-11.4,0L450.3,261.7z M462.4,295.5l-12.1,0l0-14.1l12.3,0
	c4.8,0,8.1,2.1,8.1,7.3C470.7,294,466.8,295.5,462.4,295.5z M534.7,251.8c-15.8,0-25.2,11.8-25.2,27c0,6,1.6,11.5,4.4,15.9l-19,0.1
	l-0.2-41.9l-11.3,0.1l0.2,51.3l32.6-0.1l0-6.3c4.3,4.7,10.6,7.7,18.4,7.7c15.9,0,25.2-11.8,25.2-26.6
	C559.9,263.6,550.6,251.7,534.7,251.8z M534.7,295.9c-10.1,0-13.9-8.6-13.9-17.1c0-9,3.8-17.6,13.9-17.6c10.1,0,13.9,8.6,13.9,17.6
	C548.6,287.3,544.8,295.9,534.7,295.9z M588.6,252.9l-11.9,20.2l-12-20.2l-12.7,0l18.9,31.3l0,20l11.3,0l0-19.7l19-31.6L588.6,252.9
	z"/>
<g>
</g>
<g>
</g>
<g>
</g>
<g>
</g>
<g>
</g>
<g>
</g>
<g>
</g>
<g>
</g>
<g>
</g>
<g>
</g>
<g>
</g>
<g>
</g>
</svg>
