<?xml version="1.0" encoding="utf-8"?>
<!-- Generator: Adobe Illustrator 17.1.0, SVG Export Plug-In . SVG Version: 6.00 Build 0)  -->
<!DOCTYPE svg PUBLIC "-//W3C//DTD SVG 1.1//EN" "http://www.w3.org/Graphics/SVG/1.1/DTD/svg11.dtd">
<svg version="1.1" id="Layer_1" xmlns="http://www.w3.org/2000/svg" xmlns:xlink="http://www.w3.org/1999/xlink" x="0px" y="0px"
	 viewBox="0 0 595.3 841.9" enable-background="new 0 0 595.3 841.9" xml:space="preserve">
<g>
	<path fill="#525149" d="M216.9,402.5h8.6c2,0,4.3,0,6.7,1.9c1.4,1.2,2.9,3.3,2.9,6.7c0,3.2-1.4,5.3-2.4,6.3
		c-2.4,2.4-5.8,2.5-8.8,2.5h-7V402.5z M219.4,404.6v13.3h5.1c2.2,0,4.9-0.1,6.7-2.4c1-1.3,1.4-2.9,1.4-4.4c0-2.3-0.9-3.9-1.8-4.8
		c-1.7-1.6-3.6-1.6-5.2-1.7H219.4z"/>
	<path fill="#525149" d="M242,402.5h2.5v17.4H242V402.5z"/>
	<path fill="#525149" d="M276.7,402.5h8.6c2,0,4.3,0,6.7,1.9c1.4,1.2,2.9,3.3,2.9,6.7c0,3.2-1.4,5.3-2.4,6.3
		c-2.4,2.4-5.8,2.5-8.8,2.5h-7V402.5z M279.2,404.6v13.3h5.1c2.2,0,4.9-0.1,6.7-2.4c1-1.3,1.4-2.9,1.4-4.4c0-2.3-0.9-3.9-1.8-4.8
		c-1.6-1.6-3.6-1.6-5.2-1.7H279.2z"/>
	<path fill="#525149" d="M301.8,402.5h11.8c1.5,0,3.4,0,4.9,1.4c0.6,0.5,1.6,1.6,1.6,3.7c0,4.2-3.5,4.7-4.7,4.9l6.4,7.3h-3.2
		l-5.9-6.9h-8.4v6.9h-2.5V402.5z M304.3,404.6v6.3h8.6c1.4,0,3.1,0,4.1-1.3c0.4-0.6,0.6-1.2,0.6-1.8c0-0.7-0.2-1.3-0.5-1.8
		c-0.8-1.3-2-1.3-3.2-1.3H304.3z"/>
	<path fill="#00A1E4" d="M347.7,411.5c0,5.9-4.9,8.9-10.5,8.9c-2.5,0-5.1-0.5-7.1-1.9c-1.7-1.2-3.5-3.4-3.5-7
		c0-6.4,5.3-9.3,10.5-9.3C343.2,402.1,347.7,405.7,347.7,411.5z M329,411.3c0,1.4,0.3,3.1,1.5,4.4c1.6,1.9,4.2,2.5,6.7,2.5
		c6.4,0,8-4.1,8-7c0-4.6-3.7-7.1-8.4-7C333.2,404.3,329,406.2,329,411.3z"/>
	<path fill="#525149" d="M354,402.5h3.4l5.4,11.3c0.9,1.9,1,2.2,1.7,3.9c0.6-1.7,0.8-2.1,1.6-3.8l5.5-11.4h3.4v17.4h-2.3v-10
		c0-3.3,0.1-3.9,0.2-5.3c-0.5,1.4-0.6,1.7-1.3,3.1l-5.9,12.3h-2.3l-5.4-11.3c-1-2-1.2-2.5-1.8-4c0.1,1.3,0.1,1.7,0.2,4.4v10.8H354
		V402.5z"/>
	<rect x="335.6" y="389.1" fill="#00A1E4" width="2.7" height="8"/>
	<path fill="#525149" d="M262,402.5h-2.6l-9,17.4h2.8l6.8-13.5c0.1-0.3,0.3-0.6,0.4-0.9c0.1-0.2,0.2-0.5,0.2-0.7
		c0,0.2,0.1,0.4,0.2,0.7c0.1,0.3,0.3,0.6,0.4,0.9l6.8,13.6h2.8L262,402.5z"/>
</g>
</svg>
