<?xml version="1.0" encoding="utf-8"?>
<!-- Generator: Adobe Illustrator 17.1.0, SVG Export Plug-In . SVG Version: 6.00 Build 0)  -->
<!DOCTYPE svg PUBLIC "-//W3C//DTD SVG 1.1//EN" "http://www.w3.org/Graphics/SVG/1.1/DTD/svg11.dtd">
<svg version="1.1" xmlns="http://www.w3.org/2000/svg" xmlns:xlink="http://www.w3.org/1999/xlink" x="0px" y="0px"
	 viewBox="0 0 283.5 141.7" enable-background="new 0 0 283.5 141.7" xml:space="preserve">
<g id="Logotyp">
	<g>
		<path d="M74,48c-6,0-11.5,2.3-15.6,6l7.4,8.5c2.1-2,5-3.2,8.2-3.2c6.6,0,12,5.4,12,12c0,6.6-5.4,12-12,12c-6.6,0-12-5.4-12-12
			H50.7c0,12.8,10.4,23.2,23.2,23.2c12.8,0,23.2-10.4,23.2-23.2C97.2,58.4,86.8,48,74,48z"/>
		<linearGradient id="SVGID_1_" gradientUnits="userSpaceOnUse" x1="46.7637" y1="61.9436" x2="72.4912" y2="61.9436">
			<stop  offset="0" style="stop-color:#FFE000"/>
			<stop  offset="1" style="stop-color:#E84E0F"/>
		</linearGradient>
		<path fill="url(#SVGID_1_)" d="M72.5,61.8L59.9,47.2c-8,7.3-13.1,17.8-13.1,29.5H66C66,70.8,68.5,65.5,72.5,61.8z"/>
		<path fill="#EA5B0C" d="M62,71.3H50.7c0,1.9,0.2,3.7,0.6,5.4h11.9C62.5,75.1,62,73.2,62,71.3z"/>
		<path fill="#EA5B0C" d="M65.8,62.6c1.4-1.3,3.1-2.3,5-2.8L63,50.8c-1.7,0.9-3.2,2-4.6,3.2L65.8,62.6z"/>
	</g>
	<g>
		<path d="M155.8,62.3v23.6h4.6V65.9c1.2-0.1,3.5-0.2,4.9-0.2c3.2,0.2,4.2,1.6,4.2,7.5v12.6h4.7V74.1c0-8.9-2.3-12.1-9.1-12.2
			C161.7,61.9,155.8,62.3,155.8,62.3z"/>
		<rect x="146.7" y="62.2" width="4.7" height="23.6"/>
		<path d="M134.8,85.8h4.7V68h3.4v-3.7h-3.4v-1.8c0-3.4,1.2-4,3.4-4h8.4v-3.9c0,0-7,0-9.8,0c-4.5,0-6.7,2.6-6.7,7.8v1.8h-2.4V68h2.4
			V85.8z"/>
		<path d="M186.8,61.8c-7.2,0-9.6,3.1-9.6,12.2c0,4.7,0.7,7.7,2.1,9.6c1.5,1.9,3.7,2.7,7.4,2.7c3.7,0,9.2-0.3,9.2-0.3v-3.8
			c0,0-7.9,0.3-9.6,0.3c-4.5,0-4.7-3-4.7-9.7c0-5.9,1.7-7.1,4.7-7.1c1.9,0,4.4,0.4,4.9,0.5v10.3l4.7-0.2V55h-4.7v7.1
			C190.7,62.1,188.9,61.8,186.8,61.8z"/>
		<path d="M118.3,55.4c-4.9,0-8.5,0.5-8.5,0.5V76c0,0,4.3,0.2,5.1,0.2c0-0.4,0-16.6,0-16.6c0.4,0,2.1-0.2,3.8-0.2
			c5.6,0,6,1.6,6,11.5c0,9.8-0.4,11.2-6,11.2c-1.9,0-8.9-0.3-8.9-0.3v4.2c0,0,3.9,0.2,8.5,0.2c5.3,0,8.1-0.9,9.6-3.2
			c1.5-2.3,1.8-6,1.8-12C129.7,59.2,128.8,55.4,118.3,55.4z"/>
	</g>
</g>
<g id="Friyta__x28_do_not_print_x29_">
	<path fill="none" d="M45.5,71H34.2c0,1.9,0.2,3.7,0.6,5.4h11.9C45.9,74.8,45.5,72.9,45.5,71z"/>
	<path fill="none" d="M108.5,71H97.2c0,1.9,0.2,3.7,0.6,5.4h11.9C109,74.8,108.5,72.9,108.5,71z"/>
	<path fill="none" d="M207.2,72.1h-11.3c0,1.9,0.2,3.7,0.6,5.4h11.9C207.6,75.9,207.2,74.1,207.2,72.1z"/>
	<path fill="none" d="M68.5,95.8v11.3c1.9,0,3.7-0.2,5.4-0.6V94.5C72.3,95.4,70.4,95.8,68.5,95.8z"/>
	<path fill="none" d="M59.2,35.9v11.3c1.9,0,3.7-0.2,5.4-0.6V34.6C63,35.5,61.1,35.9,59.2,35.9z"/>
	<g>
	</g>
	<g>
	</g>
	<g>
	</g>
	<g>
	</g>
	<g>
	</g>
	<g>
	</g>
</g>
</svg>
