<?xml version="1.0" encoding="utf-8"?>
<!-- Generator: Adobe Illustrator 17.1.0, SVG Export Plug-In . SVG Version: 6.00 Build 0)  -->
<!DOCTYPE svg PUBLIC "-//W3C//DTD SVG 1.1//EN" "http://www.w3.org/Graphics/SVG/1.1/DTD/svg11.dtd">
<svg version="1.1" id="Layer_1" xmlns="http://www.w3.org/2000/svg" xmlns:xlink="http://www.w3.org/1999/xlink" x="0px" y="0px"
	 viewBox="0 0 132.3 40.3" enable-background="new 0 0 132.3 40.3" xml:space="preserve">
<g>
	<linearGradient id="SVGID_1_" gradientUnits="userSpaceOnUse" x1="73.4435" y1="31.1307" x2="121.3143" y2="6.7393">
		<stop  offset="0.3371" style="stop-color:#005092"/>
		<stop  offset="0.927" style="stop-color:#008BCB"/>
	</linearGradient>
	<path fill="url(#SVGID_1_)" d="M114.1,14.9c0.4-0.2,1-0.3,1.6-0.6c0.4-0.2,0.5-0.2,1-0.6c0,0,0-0.1-0.1-0.1c-0.3,0-0.7-0.1-0.7-0.4
		c0-0.3,0.1-0.7,0.3-1c0.2-0.2,0.5-0.5,0.5-0.8c0-0.6-0.3-0.7-0.5-0.7c0,0.5-0.5,1-0.7,1.3c-0.7,0.8-1.3,1.1-1.4,1.9
		C114.2,14.1,114,14.6,114.1,14.9C113.9,14.9,114,14.9,114.1,14.9z M96.7,21C96.8,21,96.8,20.9,96.7,21c-1.3,0.1-2.7,0.5-4,1.1
		c-0.1-0.1-0.1-0.2-0.1-0.4c0-0.4,0.1-1,0.5-1c1,0,1.5-0.6,1.5-0.6s-1.5-0.2-1.4-0.8c0-0.2,0.2-0.3,0.3-0.2c0.6,0.1,0.8-0.4,0.8-0.4
		s-0.5-0.1-0.8-0.3c0,0-0.1-0.1,0-0.2c0.1-0.1,0.2-0.2,0.3-0.1c0.5,0.1,0.7,0.1,0.9,0.1c0.1,0,0.2-0.1,0.1-0.1
		c-0.2-0.1-0.4-0.3-0.7-0.5c0.5-0.3,0.8-0.7,0.8-0.7s-0.1,0-0.4-0.1c-0.3-0.1-0.3-1.6-0.5-1.9c-0.2-0.4-0.7-0.7-1-0.8
		c-0.4-0.2-0.7-0.2-0.9-0.4c-0.3-0.3,0.2-2.2-1.8-2.2c-1.3,0-2.2,1-2.4,2c-0.1,0.3,0,0.8,0,0.8s1.1-0.2,1.5,0.9
		c-0.3-0.3-0.6-0.5-0.7-0.5c-0.4-0.1-0.7,0.2-0.8,0.6c-0.2,1.1,0.9,2,1,2.1c-0.2,2.2,0.7,3.5,0.8,5.3c0.1,1.1-0.7,1.6-0.9,1.7
		c-0.9,0.9-1.1,1.3-1.4,2.1c0-0.6,0.2-1.4,0.7-2.3c0-0.1,0-0.2-0.1-0.1c-0.4,0.2-1.2,0.7-1.5,1c-0.4,0.4-0.7,0.7-1,1.1
		c-0.5,0.2-1.3,0.5-2.4,1.2c-0.9,0.6-1.4,1.7-1.4,1.7s-0.9-0.1-2.2,0c-2.8,0.2-6.4,1.5-6.4,1.5h14.4C87.9,27,92.9,22.3,96.7,21z
		 M91.7,15.2c0,0,0.2,0.2,0.7,0.2c0.5,0,0.7,0.1,0.9,0.3c0,1-0.5,1.7-0.9,1.7c-0.1,0-0.1-0.1-0.1-0.1c0-0.2,0-0.4-0.1-0.5
		c-0.1-0.2-0.3-0.4-0.6-0.5c-0.1,0-0.2-0.1-0.2-0.3C91.3,15.5,91.7,15.2,91.7,15.2z M95.7,16.3c0.1,0,0.1,0,0.2-0.1
		c0.2-0.1,0.3-0.3,0.3-0.4c0-0.3-0.3-0.5-0.9-0.6c-0.2,0-0.3,0-0.4,0.2c-0.2,0.2,0,0.6,0,0.7C95.4,16.1,95.6,16.3,95.7,16.3z
		 M122.4,9.6c-0.2,0-0.5,0.2-0.7,0.5c-0.1,0.1-0.3,0.5-0.4,0.8c-0.2,0.1-0.3,0.3-0.4,0.4c-0.2,0.2-0.4,0.5-0.4,0.5
		c-0.1,0.4-0.5,1.2-0.5,1.2c0.1-0.4,0.4-1.3,0.4-1.5c0-0.2,0-0.6-0.1-0.8c0-0.2,0-0.4,0-0.6c0-0.1,0.1-0.6-0.1-0.6
		c-0.2,0-0.5,0.2-0.6,0.6c-0.1,0.3,0,0.8,0,1.4c0,0.1-0.1,0.3-0.2,0.7c-0.1,0.4-0.2,1-0.3,1.4c0-0.2,0.2-1.1,0.2-1.4
		c0-0.4-0.3-1.6-0.3-1.8c0-0.2-0.1-0.2-0.2-0.2c-0.3,0-0.6,0.4-0.5,1c0,0.2,0.2,0.7,0.2,1c0,0.3-0.2,0.6-0.2,0.7
		c0,0.4-0.1,0.9-0.1,1.2c0-0.2,0-1.2,0-1.4c0-0.2-0.3-0.9-0.5-1.3c-0.1-0.2-0.2-0.2-0.3-0.1c-0.3,0.2-0.3,0.7-0.3,1
		c0,0.2,0.2,0.6,0.3,0.9c-0.2,1.7-0.6,1.8-0.6,1.8s-0.1,0.1-0.6,0.2c-0.8,0.1-2.1,0.5-2.5,0.1c0,0-0.1-0.1-0.1,0
		c-0.1,0.1-1.1,0.9-1.7,1.4c-1.9,1.4-3.2,1.8-4.6,2.8c-1.7,2.7-3.3,3.6-5.4,4.2c-0.9,0.2-1.8,0.2-2-0.2c-0.4-1.1,1.1-1.7,2.1-1.9
		c0.1,0,0.1-0.1,0-0.1c-0.5-0.3-1.1-0.4-1.8-0.4c-5.3-0.1-10.2,6.2-9.8,9.6c0,0.1,0,0.1,0,0.2h5.4c0.8-0.7,1.6-1.6,2.4-2.8
		c0,0-1.4,0.3-2.6,0.2c0,0,1.6-0.3,4-1.9c3.8,1,7.3-4,8.3-2.3c0,0.1,0.1,0,0.1,0c3.1-2.1,4.3-4.7,6.4-6.6c1-0.8,1.2-1.2,2.8-1.6
		c0.5-0.1,0.5-0.3,0.7-0.5c0.2-0.3,0.5,0,0.8-0.4c0.1-0.2,0-0.4,0.4-0.5c0.5-0.1,0.5-0.5,0.7-0.8c0.6-0.6,0.5-0.6,1-1.1
		c0.2-0.2,0.9-1.1,1-1.3c0.1-0.2,0.4-0.9,0.7-1.3C123,9.6,122.7,9.5,122.4,9.6z"/>
	<g>
		<path fill="#005092" d="M27.9,23.4h5.6c0.5,0,0.8-0.4,0.8-0.9v-0.4c-0.3,0.1-0.7,0.1-1.4,0.1H31l3.2-6.1H28v1.2h2.8l-2.7,5.1
			C27.9,22.8,27.8,23.2,27.9,23.4"/>
		<path fill="#005092" d="M22.4,19.5l1.4,2.8c0.4,0.8,0.6,1.1,1.5,1.1h2c-0.1-0.1-0.2-0.3-0.4-0.7l-2.1-3.9l2.4-2.8h-2.2L22.4,19.5z
			"/>
		<path fill="#005092" d="M19.7,23.4h2.5v-8.8c0-0.9-0.7-1.5-1.6-1.5h-1V23.4z"/>
		<path fill="#005092" d="M18.6,22.8L16,15.2c-0.3-0.9-0.6-1.3-1.9-1.3H13l-3.5,9.5H11l0.8-2.4h3.4l0.5,1.5c0.2,0.6,0.4,0.8,1,0.8
			h2.1C18.8,23.3,18.7,23.1,18.6,22.8z M12.2,19.9l1.4-4l1.3,4H12.2z"/>
		<path fill="#005092" d="M38.6,23.6c2.1,0,3.9-1.5,3.9-4c0-2.1-1.7-3.7-3.9-3.7c-2.1,0-3.9,1.6-3.9,4.1
			C34.7,22.2,36.5,23.6,38.6,23.6 M38.6,22.3c-0.9,0-1.2-1-1.2-2.5c0-1.5,0.3-2.5,1.2-2.5c0.9,0,1.1,1.1,1.1,2.6
			C39.7,21.3,39.5,22.3,38.6,22.3"/>
		<path fill="#005092" d="M43.6,23.4h1.6v-6.1l4,4.8c0.6,0.7,0.9,1.2,1.5,1.2h1.2v-8.7c0-0.5-0.3-0.8-0.9-0.8h-0.7v5.7L46.5,15
			c-0.6-0.7-0.9-1.1-1.7-1.1h-1.2V23.4z"/>
		<path fill="#005092" d="M56.9,23.6c2.1,0,3.9-1.5,3.9-4c0-2.1-1.7-3.7-3.9-3.7c-2.1,0-3.9,1.6-3.9,4.1
			C53,22.2,54.8,23.6,56.9,23.6 M56.9,22.3c-0.9,0-1.2-1-1.2-2.5c0-1.5,0.3-2.5,1.2-2.5c0.9,0,1.1,1.1,1.1,2.6
			C58.1,21.3,57.8,22.3,56.9,22.3"/>
		<path fill="#005092" d="M77.4,19.9c0-0.3,0.1-0.6,0.1-0.9c0-1.7-1.3-3.1-3.5-3.1c-2.2,0-3.8,1.5-3.8,3.9c0,2.3,1.4,3.8,3.7,3.8
			c2.3,0,3.1-1.2,3.2-2.4c-0.5,0.4-1.2,0.6-2.1,0.6c-1.3,0-2.1-0.7-2.2-1.9H77.4z M72.7,18.9c0.1-1.1,0.5-1.8,1.2-1.8
			c1,0,1.2,1.8,1.2,1.8H72.7z"/>
		<path fill="#005092" d="M66.4,16c-0.9,0-1.6,0.3-1.9,0.7v-2c0-0.9-0.7-1.5-1.6-1.5h-1v10.3h3c2.8,0,4.4-1.5,4.4-4.2
			C69.3,17.4,68,16,66.4,16z M64.8,22.2h-0.4v-4.7c0.2,0,0.3,0,0.5,0c1,0,1.7,0.9,1.7,2.1C66.7,21.3,66,22.2,64.8,22.2z"/>
		<path fill="#005092" d="M78.5,23.4h2.5v-8.8c0-0.9-0.7-1.5-1.6-1.5h-0.9V23.4z"/>
	</g>
	<line fill="none" stroke="#005092" stroke-width="0.35" x1="9.4" y1="30.7" x2="122.8" y2="30.7"/>
</g>
<rect fill="none" width="132.3" height="40.3"/>
<g>
</g>
<g>
</g>
<g>
</g>
<g>
</g>
<g>
</g>
<g>
</g>
</svg>
