<?xml version="1.0" encoding="utf-8"?>
<!-- Generator: Adobe Illustrator 17.1.0, SVG Export Plug-In . SVG Version: 6.00 Build 0)  -->
<!DOCTYPE svg PUBLIC "-//W3C//DTD SVG 1.1//EN" "http://www.w3.org/Graphics/SVG/1.1/DTD/svg11.dtd">
<svg version="1.1" xmlns="http://www.w3.org/2000/svg" xmlns:xlink="http://www.w3.org/1999/xlink" x="0px" y="0px"
	 viewBox="0 0 340 85" enable-background="new 0 0 340 85" xml:space="preserve">
<g id="Boundingbox">
	<rect y="26" fill="none" width="284" height="59"/>
</g>
<g id="Trapping">
	<g>
		<path fill="#FFFFFF" d="M7.1,31.8c0,1.1,0.2,7.5,0.3,9.9c5.1-3.3,10.7-5.2,16.2-5.2c9.5,0,13.5,3.9,13.5,13c0,0.3-0.1,0.5-0.3,0.7
			s-0.4,0.3-0.7,0.3l-2.4,0c-9.8,0-22.1-0.1-28.4,6.2C2.4,59.5,1,63.4,1,68.5C1,78.7,10.3,84,19.4,84c6.7,0,13.2-3.6,16.2-9.1
			c0.2-0.3,0.5-0.5,0.9-0.5h0.2c0.5,0,1,0.4,1,1l0,1.2c0,2,0.1,4.1,0.4,6.1c1.4,0,8.6,0,10.1,0c0-1.9,0-32.3,0-32.3
			c0-15.9-6.7-22.4-23-22.4C19.4,27.9,12.5,29.4,7.1,31.8z M12.7,67.6c0-7,5.8-10.6,17.1-10.6h6.2c0.6,0,1,0.4,1,1
			c0,8.4-3.7,17.4-14.2,17.4C16.5,75.5,12.7,72.5,12.7,67.6z"/>
		<path fill="#FFFFFF" d="M53.6,44.2c0,10.8,7.8,13.1,14.7,15.1c5.4,1.6,10.4,3.1,10.4,8.4c0,5.4-5.3,7.8-10.5,7.8
			c-4.2,0-8.7-1.1-13.3-3.2c-0.2,2-0.7,8.3-0.8,9.6c5.6,1.4,10.6,2.1,15.4,2.1c10.7,0,22.2-4.5,22.2-17.2c0-11.3-8.3-13.9-15.6-16.1
			c-4.9-1.5-9.5-2.9-9.5-7.2c0-5.3,4.9-7.1,9.5-7.1c4.3,0,7.7,0.6,12.1,2.1c0.2-1.8,0.6-7.5,0.8-8.8c-4.3-0.9-9.3-1.8-14.7-1.8
			C64.3,27.9,53.6,32.2,53.6,44.2z"/>
		<path fill="#FFFFFF" d="M97.2,55.7c0,17.7,9.8,28.3,26.3,28.3c5.4,0,9.6-0.5,13.4-1.6c-0.1-1.2-0.4-7.8-0.5-9.8
			c-3.4,1.3-7.1,2.2-10.2,2.2c-11.7,0-15.9-9.9-15.9-19.1c0-9.3,4.8-18.6,15.6-18.6c3.3,0,6.1,0.6,9,1.7c0.2-1.9,0.9-7.9,1-9.2
			c-3.8-1.1-8-1.6-12.9-1.6C107.3,27.9,97.2,38.8,97.2,55.7z"/>
		<path fill="#FFFFFF" d="M139.8,56.3c0,16.6,11.2,27.7,28,27.7c16.8,0,28.1-11.1,28.1-27.7c0-17-11.3-28.4-28.1-28.4
			C151.1,27.9,139.8,39.3,139.8,56.3z M152.9,54.7c0-8.5,4.7-17.6,14.9-17.6c10.4,0,15,8.8,15,17.6c0,13-5.3,20.1-15,20.1
			C158.3,74.8,152.9,67.4,152.9,54.7z"/>
		<path fill="#FFFFFF" d="M249.5,37.1c-0.2,0.3-0.5,0.6-0.9,0.6c-0.4,0-0.7-0.2-0.9-0.6c-3-6.3-7.9-9.2-15.6-9.2
			c-6.2,0-11.9,3.1-15.5,8.6c-0.2,0.3-0.5,0.4-0.8,0.4h-0.2c-0.6,0-1-0.4-1-1c0,0,0-5.3,0-6.8c-1.6,0-9.9,0-11.5,0
			c0,1.9,0,51.6,0,53.5c1.6,0,10.9,0,12.5,0c0-1.9,0-25.9,0-25.9c0-16.3,6.4-19.7,11.8-19.7c9.3,0,9.3,8.5,9.3,13.6c0,0,0,30.1,0,32
			c1.6,0,10.8,0,12.4,0c0-1.9,0-25.9,0-25.9c0-16.3,6.4-19.7,11.8-19.7c9.2,0,9.2,8.5,9.2,13.6c0,0,0,30.1,0,32c1.6,0,10.9,0,12.5,0
			c0-1.9,0-34,0-34c0-14.2-5.2-20.8-16.5-20.8C258.7,27.9,252.3,31.5,249.5,37.1z"/>
	</g>
</g>
<g id="Ascom">
	<g>
		<path fill="#E30613" d="M37.2,83.7c-0.5-2.8-0.5-5.5-0.5-8.2h-0.2c-3.3,6-10.3,9.6-17,9.6C9.7,85,0,79.2,0,68.5
			c0-20.3,21.8-19,36.1-19c0-8.8-3.9-12-12.5-12c-6.1,0-12.2,2.4-17.1,6L6,31.1c5.7-2.6,13-4.2,19.2-4.2c16.6,0,24,6.6,24,23.4v33.3
			H37.2z M29.9,58c-6.4,0-16.1,1.1-16.1,9.6c0,5.2,4.7,6.8,9.1,6.8c9.6,0,13.2-8,13.2-16.4H29.9z"/>
		<path fill="#E30613" d="M69.6,85c-5.6,0-11.2-0.9-16.5-2.4l0.9-11.9c4.4,2.2,9.2,3.7,14.1,3.7c4.2,0,9.5-1.8,9.5-6.8
			c0-10.8-25.1-3.5-25.1-23.5c0-12.3,10.9-17.3,21.7-17.3c5.4,0,10.5,0.9,15.8,2l-0.9,10.9c-4.6-1.7-8.1-2.4-13-2.4
			c-3.9,0-8.5,1.5-8.5,6.1c0,8.8,25.1,3.2,25.1,23.3C92.8,80,81.1,85,69.6,85z"/>
		<path fill="#E30613" d="M123.4,85c-17.9,0-27.3-12.2-27.3-29.3c0-16.3,9.7-28.8,26.8-28.8c4.7,0,9.4,0.5,14,1.9l-1.3,11.4
			c-3.2-1.5-6.3-2.1-9.8-2.1c-10.1,0-14.6,8.6-14.6,17.6c0,9.5,4.3,18.1,14.9,18.1c3.6,0,7.8-1.1,11.1-2.6l0.6,11.9
			C133.2,84.6,128.3,85,123.4,85z"/>
		<path fill="#E30613" d="M167.8,85c-17.1,0-29-11.5-29-28.7c0-17.3,11.6-29.4,29-29.4c17.4,0,29.1,12,29.1,29.4
			C196.9,73.6,184.9,85,167.8,85z M167.8,38.1c-9.4,0-13.9,8.1-13.9,16.6c0,9.2,3,19.1,13.9,19.1c11.1,0,14-9.8,14-19.1
			C181.8,46.1,177.2,38.1,167.8,38.1z"/>
		<path fill="#E30613" d="M269,83.7v-33c0-6-0.4-12.6-8.2-12.6c-9.6,0-10.8,11.5-10.8,18.7v26.9h-14.4v-33c0-6.1-0.4-12.6-8.3-12.6
			c-9.6,0-10.8,11.5-10.8,18.7v26.9H202V28.2h13.5V36h0.2c3.7-5.6,9.7-9,16.3-9c7.5,0,13.2,2.8,16.5,9.7c3.2-6.4,10.4-9.7,17.4-9.7
			c13.8,0,17.5,9.7,17.5,21.8v35H269z"/>
	</g>
</g>
</svg>
