<?xml version="1.0" encoding="utf-8"?>
<!-- Generator: Adobe Illustrator 17.1.0, SVG Export Plug-In . SVG Version: 6.00 Build 0)  -->
<!DOCTYPE svg PUBLIC "-//W3C//DTD SVG 1.1//EN" "http://www.w3.org/Graphics/SVG/1.1/DTD/svg11.dtd">
<svg version="1.1" id="Layer_1" xmlns="http://www.w3.org/2000/svg" xmlns:xlink="http://www.w3.org/1999/xlink" x="0px" y="0px"
	 viewBox="0 0 280.7 73.7" enable-background="new 0 0 280.7 73.7" xml:space="preserve">
<path fill="#003C70" d="M182.3,18.2c0-2.4,1.9-4.4,4.3-4.4c2.4,0,4.3,2,4.3,4.4c0,2.4-1.9,4.3-4.3,4.3
	C184.2,22.5,182.3,20.6,182.3,18.2z M179,24.7c-0.5-0.1-1.2-0.1-1.7,0c-5.2,0.4-8,3.6-9.4,6.4c-0.1,0.2-0.2,0.2-0.4,0.2
	c-0.1,0-0.1-0.1-0.1-0.2l-0.1-4.4c-0.1-1.2-0.8-1.9-1.9-1.9l-8.1,0c-0.4,0-0.8,0.3-0.8,0.8V30c0,0.4,0.3,0.8,0.8,0.8l3.4,0v20.7
	l-3.4,0c-0.4,0-0.8,0.3-0.8,0.8l0,4.4c0,0.4,0.3,0.7,0.6,0.8c0.1,0,0.1,0,0.1,0h14.1c0,0,0.1,0,0.1,0c0.4-0.1,0.6-0.3,0.6-0.7
	c0,0,0,0,0-0.1l0-4.4c0-0.1,0-0.1,0-0.1c0-0.3-0.3-0.6-0.6-0.6c-0.1,0-0.1,0-0.2,0l-3.3,0v-9.1c0-5.2,2.7-8.8,7.7-10
	c1.1-0.3,2.5-0.3,3.1-0.3c0.4,0,0.9-0.3,0.9-0.8v-5.8C179.8,25,179.5,24.8,179,24.7z M227.7,41c0,9.9-6.8,16.9-16.5,16.9h0
	c-9.7,0-16.5-6.9-16.5-16.9c0-9.8,6.8-16.6,16.5-16.6C220.9,24.4,227.7,31.2,227.7,41z M202.1,41c0,5.9,3.8,10.2,9.1,10.2
	c5.3,0,9.1-4.3,9.1-10.2c0-6.6-4.6-10.1-9.1-10.1C206.7,30.9,202.1,34.4,202.1,41z M154.5,49.9c-0.1,0.3-0.4,0.7-0.5,0.9l-0.1,0.1
	c0,0.1-4.2,7-14.1,7c-9.6,0-16.3-7.2-16.3-16.9c0-10.6,7.9-16.6,15.7-16.6c4.9,0,8.3,1.5,10.9,4.2c2.7,2.7,4.2,6.7,4.3,11.6
	c0,0.3,0,1.1,0,1.7h0c0,0.1,0,0.2-0.1,0.5c-0.1,0.4-0.4,0.7-0.8,0.7h-22.5c0.4,5.8,5,8.3,9,8.3c5.6,0,9.1-4.2,9.3-4.5l0-0.1
	c0.3-0.4,0.7-0.5,1.1-0.2l3.6,2.4C154.6,49.2,154.6,49.6,154.5,49.9z M146.9,37.2c-0.2-3.7-3.3-6.5-7.4-6.5c-3.6,0-7.5,2.4-8.1,6.5
	H146.9z M263.7,51.4C263.7,51.4,263.6,51.4,263.7,51.4l-3.6,0V35.5c0-7.1-4-11.5-10.8-11.1c-4.2,0.2-7.2,2.2-9.6,5.3
	c0,0-0.2,0.2-0.4,0.1c-0.1,0-0.1-0.2-0.1-0.2l-0.1-2.9c0-1.1-0.8-1.9-1.9-1.9l-8,0c-0.4,0-0.8,0.3-0.8,0.8V30c0,0.4,0.3,0.7,0.7,0.8
	c0,0,0,0,0.1,0h3.4v20.7l-3.4,0c-0.4,0-0.8,0.4-0.8,0.8v4.4c0,0.4,0.3,0.8,0.8,0.8l14.1,0c0.4,0,0.7-0.3,0.7-0.7l0-4.5
	c0-0.4-0.3-0.7-0.6-0.7c0,0-0.1,0-0.1,0l-3.3,0V36.2c0.6-1.1,2.8-4.2,6.5-4.8c3.5-0.5,6.3,1.1,6.3,4.8v17.5c0,2.5,1.3,3.7,3.8,3.7h7
	c0.4,0,0.8-0.3,0.8-0.8v-4.4C264.4,51.8,264.1,51.5,263.7,51.4z M193.8,51.4L193.8,51.4l-3.5,0l0-25.9c0-0.4-0.3-0.8-0.8-0.8l-5.8,0
	c-0.4,0-0.8,0.3-0.8,0.8v28.1c0,2.5,1.3,3.7,3.8,3.7h7c0,0,0.1,0,0.1,0c0.4,0,0.7-0.4,0.7-0.8l0-4.4
	C194.6,51.8,194.2,51.4,193.8,51.4z M91,52.2l0,4.4c0,0,0,0,0,0c0,0.4-0.3,0.7-0.7,0.8c0,0-0.1,0-0.1,0h-7c-2.3,0-2.7-1.3-2.8-2.6
	c0-0.1-0.1-1.7-0.1-1.9c0-0.2,0-0.2-0.1-0.3c-0.1-0.1-0.3,0-0.4,0.1c-3.1,3.5-6.7,5.1-10.8,5.1c-7,0-11.3-3.9-11.3-9.7
	c0-6.8,6.6-11.5,17.7-11.5h4.1c0-4-2.4-6-6.9-6c-4,0-6.3,1.5-7.5,2.2c-0.2,0.1-1.3,0.9-1.3,0.9c-0.1,0-0.1,0.1-0.2,0.1
	c-0.3,0.1-0.6,0-0.8-0.2l-3.6-3.3c-0.2-0.3-0.2-0.7,0-1c0,0,0.1-0.1,0.2-0.2c0.1-0.1,0.6-0.5,1-0.8l0,0c1.6-1.2,6.1-4.1,12.2-4.1
	c9.5,0,14.1,4.4,14.1,13.5v13.6l3.4,0c0,0,0,0,0,0C90.7,51.4,91,51.8,91,52.2z M78.7,47.5c0.3-0.3,0.5-0.6,0.8-0.9v-4.2h-3.8
	c-6.8,0-10.4,1.8-10.4,5.1c0,2.2,2.2,3.8,5.2,3.8C74.3,51.2,77,49.2,78.7,47.5z M54.6,16.2L54.6,16.2l-4.4,0c-0.4,0-0.7,0.3-0.8,0.7
	c0,0,0,0,0,0.1c0,0.9,0.2,3.2,0.2,3.3c0,0.1,0,0.2-0.2,0.2c-0.1,0-0.2,0-0.3-0.2c-3-2.9-7.2-4.5-11.8-4.5c-12.3,0-20.9,8.7-20.9,21
	c0,11.9,8.6,21,20.8,21c0.5,0,1.1,0,1.6,0l0.1,0c8-0.5,13-4.9,15.5-8.4c0.3-0.4,0.5-0.7,0.7-1.1l0,0c0.1-0.1,0.3-0.4,0.3-0.7
	c0.1-0.3,0-0.7-0.3-0.9L51,43.9c-0.3-0.2-0.8-0.1-1,0.2c0,0-0.7,0.9-1.3,1.6c-1.8,2.2-5,4.7-10.4,5l0,0c-0.2,0-0.4,0-0.7,0h-0.3
	c-7.6,0-13.3-6-13.3-13.9c0-9.8,6.9-14.9,13.5-14.9c0.9,0,1.6,0,2.4,0.1c2.2,0.3,4.2,1.3,5.3,2.3c0.2,0.2,0.3,0.4,0.1,0.5
	c-0.1,0-0.2,0-0.3,0h0c-0.1,0-2.6-0.1-3.8-0.1c0,0-0.1,0-0.2,0c-0.4,0.1-0.6,0.4-0.6,0.7l0,4.4c0,0,0,0.1,0,0.1
	c0,0.4,0.3,0.7,0.7,0.7c0,0,0.1,0,0.1,0l13.5,0c0.4,0,0.7-0.3,0.8-0.8l0-13.1C55.3,16.5,55,16.2,54.6,16.2z M123.3,30.8H120l-9,25.8
	c-0.2,0.7-0.5,0.9-0.9,0.9h-7.9c-0.5,0-0.7-0.2-0.9-0.9l-9-25.8l-3.4,0c-0.4,0-0.8-0.4-0.8-0.8v-4.4c0-0.4,0.3-0.8,0.8-0.8l13.3,0
	c0.4,0,0.8,0.3,0.8,0.8l0,4.4c0,0.4-0.3,0.7-0.7,0.8c0,0-0.1,0-0.1,0h-2.2c0.6,1.9,5.9,18.5,6,18.6c0,0.1,0.1,0.2,0.2,0.2
	c0.1,0,0.2-0.1,0.2-0.2c0-0.1,5.4-16.7,6-18.6h-2.2c0,0-0.1,0-0.1,0c-0.4,0-0.7-0.4-0.7-0.8l0-4.4c0-0.4,0.4-0.8,0.8-0.8v0l0,0
	l13.3,0c0.4,0,0.8,0.3,0.8,0.8h0l0,0l0,4.4C124.1,30.4,123.8,30.8,123.3,30.8L123.3,30.8z M109.4,30L109.4,30L109.4,30L109.4,30z"/>
<rect x="0" y="0" fill="none" width="280.7" height="73.7"/>
<g>
</g>
<g>
</g>
<g>
</g>
<g>
</g>
<g>
</g>
<g>
</g>
</svg>
