<?xml version="1.0" encoding="utf-8"?>
<!-- Generator: Adobe Illustrator 17.1.0, SVG Export Plug-In . SVG Version: 6.00 Build 0)  -->
<!DOCTYPE svg PUBLIC "-//W3C//DTD SVG 1.1//EN" "http://www.w3.org/Graphics/SVG/1.1/DTD/svg11.dtd">
<svg version="1.1" id="Layer_1" xmlns="http://www.w3.org/2000/svg" xmlns:xlink="http://www.w3.org/1999/xlink" x="0px" y="0px"
	 viewBox="0 0 841.9 595.3" enable-background="new 0 0 841.9 595.3" xml:space="preserve">
<g>
	<g>
		<g>
			<path fill="#86BC25" d="M481.9,274c-0.2-0.3-3.2-4.7-3.8-5.5c-1.5-1.5-2.7-2.3-3.8-2.3c-1,0-1.4,0.6-1.4,1.9
				c0.1,1.3,0.5,2.4,1.2,3.4c0.9,1.3,2.2,2.2,3.5,3c1.7,1.1,2.9,1.8,3.7,1.9l0.3,0C482.5,275.8,482.6,275,481.9,274z"/>
		</g>
	</g>
	<g>
		<path fill="#86BC25" d="M653.5,323.3c0,0-0.3-0.9-1.1-1.1c-0.8-0.2-2.8,4-5.6,4.8c-0.4,0.1-0.7-0.1-0.9-0.2
			c-11.1-7-11.8-21.9-11.9-22.7c4.6-10.4,14-26.6,15.8-36.2c3.3-12.3,1.4-30.5-5.8-32c-6.4-0.4-12.6,3.5-15.4,17.8
			c-0.7,3.6-2.7,11.8-2.3,28.6c0.1,6.8,0.4,15.7,1.2,20.8c0,0.2,0.2,0.7-0.1,1.1c-3,6.2-13.4,16-14.2,7.8c-0.3-2.1-0.3-5.7,0.9-10.8
			c1-4.4,0.7-8-1-10.7c-1.4-2.2-3.3-3.9-4-4.3c-0.8-0.4-1.7,0.6-1.9,1.2c-0.6,2.6-1.1,6.2-1.4,10.9c-0.3,4.4-1,9.3-1.5,11.7
			c-0.7,4.5-11.9,6.5-16.8-1.1c-2.7-4.3-3.3-7.9-1.7-10.8c1.8-3.3,5.6-4.9,11.2-4.6l3.2,0.1c0.8,0,0.7-1.3-0.4-3.9
			c-0.7-1.9-1.5-3.5-2.3-4.8c-0.5-1-1.2-1.6-1.9-1.6c-3.7,0-10.2,0.8-12.3,6.9c-1.6,4.7-3.5,10.7-4.7,14.1c-1.2,3.4-6.4,8.9-8.2,9
			c-1.2,0-2.1-0.3-2.5-1.1c-0.5-0.7-0.1-3.3,1.2-7.7c1.2-4.4,0.8-8.3-1.5-11.8c-2.1-3.3-4.2-4.9-6.2-4.9c-3.1,0-5.8,3.7-7.4,12.3
			c-1.5,8.6-3.5,13.5-4.9,13.5c-0.8,0-1-0.5-1.3-1.4c-0.2-0.6-0.8-3.6-1.4-9.3c-0.6-5.7-1.6-9.8-3.1-12.1c-1.4-2.2-3.2-3.2-5.6-3.2
			c-2.9,0-5,2.1-6.3,6.3c-0.9,3.2-0.8,3.3-1.7,6.5c-1,2.5-2.8,1.2-4.9,0c-2.9-10.4-10-16.1-11.5-16.1c-1.6,0-3,0.7-4.7,2.3
			c-1.7,1.5-2.1,3-1.1,4.6c0.7,1,2.1,2.5,4.4,4.4c2.3,1.9,3.8,3.5,4.5,4.6c3.1,4.8,3.9,9.3,2.5,13.5c-1.4,4.2-4.5,6.3-9.3,6.4
			c-4.1,0.1-6.9-1.3-8.3-3.9c-2.5-4.8-1.8-9.6,1.6-14.6c0.5-0.8,0.5-1.7,0.5-2c0-1.4-0.5-2.4-0.7-2.8c-0.4-0.7-1.1-1.3-1.9-1.7
			c-0.5-0.2-1.3-0.3-1.8,0c-2.2,1.6-4,3.5-4.8,6.1c-0.8,2.6-0.4,4.7-1.8,7.4c-3.6,5.6-8.6,9.9-11.4,10c-1.3,0-2.4-0.6-3.3-2
			c-2-3.1-2.4-6.8-1.3-11.1c0.6-2.6,2.1-6,4.4-10.1c0.5-1,1-1.8,1.3-2.5c0.8-1.7,0-4.1-0.6-4.7c-0.7-0.6-1.6-1.1-2.6-1.7
			c-2.1-1.2-3.6-1.7-4.7-1.7c-1.3,0-2,0.8-2.1,2.4c0.3,2.7,0.9,3.3,1,6c0.2,1.3-1.1,15.4-13.7,20.8c-0.5,0.2-0.4-0.3-0.4-0.3
			c1-5-0.1-14.6-2.5-18c-2.1-3-3.9-4.8-6.8-7.1c-2.8-2.3-6.3-4.2-9.3-5.6c-1.7-0.2-3.6,1.8-1.9,7.1c-2.8,6.6-7.9,19.2-19.2,25.3
			c-0.4-0.1-0.4-0.3-0.3-0.6c0.5-2.6,2.1-10.1-2.4-17.1c-2-3.1-4.3-5.5-6.9-7.2c-3.4-2.4-6.1-3.7-9.1-5c-1.5-0.1-2.9,2-1.1,7
			c-1.4,6.5-8,24.3-16.3,25.9c-2.7,0.5-5.1-0.3-8.9-1.5c-4.4-1.3-7.1-2.9-8.3-5.1c0.4-0.3,10.2-7,11.6-8.4c4.3-4.1,5-8.4,2.1-13
			c-1.6-2.7-4-4-7.2-3.9c-5.8,0.1-9.5,3.4-11,10.1c-1.2,5-0.6,11.6,0,14.5c-0.2,0.2-8.2,7-11.1,4.3c-5.2-4-1-15-3.3-18.4
			c-2.3-3.3-4.9,2.1-5,1c-0.4-3.6-0.5-2.6-0.1-5.6c1.2-3,2.8-5,4.7-8.1c7.9-10.4,10.7-19,11.7-22.2c2.4-7.4,0.5-15.8-2.9-21
			c-2.2-3.4-3.6-4.8-6.5-4.8c0,0-2.3,0-3.8,1.7c-3,3.4-5.4,8.5-6.9,19.1c-1.5,11.1-1.9,20-3.1,34.7c-2.3,5.9-8.2,16.6-17.6,15.1
			c-1.5-0.2-2.7-1.9-3.6-3.7c-1.5-3.7-2.2-8.9-4.6-12.6c-1.1-1.6-4.6-3.2-6.5-3.2c-1.6,0-3.3,0.8-5.1,2.3c-1.7,1.5-2.1,3-1.1,4.6
			c0.6,1,2.1,2.5,4.4,4.4c2.3,1.9,3.8,3.5,4.5,4.6c3.1,4.8,3.9,9.3,2.5,13.5c-1.4,4.2-4.5,6.3-9.3,6.4c-4.1,0-6.9-1.3-8.3-3.9
			c-2.6-5.1-1.6-10.6,2.3-15.5c0.7-0.8-0.6-3.3-0.9-3.9c-0.6-0.9-1.5-2.3-2.9-2.1c-2.7,0.4-11.3,20-18.2,22.2
			c-1.9,0.3-2.2-1.5-2.4-2.5c-0.8-3.6-0.6-7.1-0.3-10.8c0.1-1,0.1-2-0.1-3c-1.4-6.6-10.1-5.6-13.9-8.6c-0.1-1.2-0.2-2.4-0.5-3.6
			c-0.3-1.5-1.7-5.7-4.5-5.3c-3.9,0.6-4.5,6.9-4,9.2c0.5,2.2,1.7,4.3,3.9,5.8c0.2,2.8-4.9,10.6-12.3,15.6c-2.9,2-5.3,2.6-7.8,3.3
			c-0.4,0.1-0.4-0.4-0.3-0.5c5.1-5.9,8.2-15.2,8.1-21.7c-0.1-5.6-2.4-11.5-10.4-11.3c-7.6,0.1-15,7-19.4,12c-0.2,0.2-0.7,0-0.7-0.3
			c-1.4-9.2-2.2-10.9-3.2-12.4c-2.6-3.8-9.6,2.2-10.5,2.7c-1,0.6-2,1.2-1.8,1.9c0.6,1.4,2.5,0.4,3.8,2.3c0.8,3.1,1.8,6.8,2.9,15.2
			c-4.2,7.5-16.9,30.8-16.6,46.8c0.1,3.4-0.6,10.9,8.4,11.8c7.5-1.2,17.5-15.1,18.3-39.9c2.5,1.1,5.9,1.2,9.5,0.3
			c9,1.1,19.3-2,27.6-10.3c3.6-4,7.6-9.9,8.7-14.5c3,0.2,6.2,1.3,6.8,3.7c0.6,2.8,0.7,5.5,1.3,8.3c0.7,3.5,2.6,10.4,9.1,9.3
			c3.7-0.6,9.6-5.7,12-8.9c0.6-0.6,1.1-1.2,1.3-1.2c0.2,0,0.4,0.2,0.3,0.4c-1.9,8.7,5.7,12.9,14.5,12.8c10.4-0.1,16.1-3.8,17-10.9
			c0.1-1,0.2-2.2,0.1-3.4c0-0.2,0.4-0.4,0.6-0.3c0.6,0.3,1.2,0.5,2.4,0.6c6.1-0.2,10.6-3.4,13.3-6c1.5-1.5,2.5-0.2,0,5.2
			c-0.9,2.5-2,3.8-4.4,11.2c-1,3-3.2,13,4.7,20.6c7.3,7.1,10.9,10.4,12.9-1.6c1.4-14,1.2-19.1-0.8-26.1c0-0.3,0.4-0.3,0.5-0.2
			c5.1,6.2,13.7,1.3,16.3-0.5c0.2-0.1,0.8-0.5,1.4-0.9c0.5,1.4,1.1,2.8,2.1,4.3c2.6,4.1,8.4,5.7,14.4,6
			c15.2,0.6,19.8-22.1,22.6-28.6c0-0.1,0.3-0.1,0.5,0c1.1,0.9,3.1,2,5.4,4.2c2.3,2.2,5.3,7.5,5.3,12c0.1,2.1-1.3,3.7-4.2,4.6
			c-0.5,0.1-2.9,0.6-7.4,1.3c-2.7,0.5-3.8,1.1-3.3,1.9c1.8,2.8,5.6,4.1,11.4,4c3.2-0.1,7.4-0.8,12.6-4c8.5-4.9,15.3-19.8,18.6-27.1
			c1,0.5,3.3,2.6,5.9,5.4c2.1,2.4,5.4,6.7,5.5,12.5c0.1,2.1-1.3,3.7-4.2,4.6c-0.5,0.1-2.4,0.8-6.9,1.5c-2.7,0.4-2.6,1.7-2,2.5
			c1.8,2.8,4.3,3.5,10.2,3.4c3.2,0,7.7-1.7,13.4-4.8c2.9-1.6,5.5-3.7,7.4-5.9c0.1-0.1,0.4-0.1,0.5,0.2c0.5,3.7,3.3,14.2,9.7,13.1
			c5.5-0.6,11.6-8.8,13.4-11.2c0.2-0.2,0.5-0.2,0.6,0c0.5,1.5,1,2.8,1.7,3.8c2.5,3.9,7,5.8,13.6,5.7c10.4-0.1,16.1-3.8,17-10.9
			c0.3-2.2,0.1-4.9-0.6-8.1c0-0.2,0.2-0.2,0.3-0.1c4.9,4.6,5.6-1.1,8.8-5.9c0.1-0.2,0.6-0.3,0.9,0.3c1.3,2.1,2.6,5.3,3.8,9.7
			c1.3,4.4,2.6,7.8,4.1,10c1.8,2.9,4.5,5.2,6.5,5c1,0,2.7-3.3,3.9-10c1.2-6.7,2-10.2,3.6-10.2c0.9,0,1.5,0.9,1.5,0.9
			c0.9,1.4,1.8,3.7,2.7,6.8c0.9,3.2,1.9,5.5,2.9,7.2c1.5,2.4,3,3.5,4.6,3.5c2.4,0.2,10.2-7.9,12.2-10.4c1.2-1,1.9,0.1,2,0.3
			c0.6,1.2,1.2,2.3,1.9,3.4c1.4,2.3,2.7,3.8,3.9,4.6c1.2,0.8,3.1,1.2,5.6,1.2c2.9,0,6.1-1.2,9.6-3.4c0.5-0.3,1.9-0.5,2.1-0.3
			c2.3,0.9,3.5,8,10.6,4.9c3.7-1.7,7.2-6.1,10.9-10.3c0.3-0.3,1-0.3,1.1,0.1c0.4,1.1,1.1,2.7,1.2,3c1.9,4.2,8.1,18.7,14.1,18.6
			C647.9,333.3,654.3,325.5,653.5,323.3z M199.4,315.2c3.7,44.1-13.5,43.7-12,29.6c1.7-15.7,8.6-25,11.4-29.8
			C199,314.6,199.4,314.8,199.4,315.2z M207,305.2c2-3.2,6.3-6.6,12.2-9.2c9.1-4,10.5,13.4,6.9,19.4c-4.5,7.4-12.6,5.7-15,5.3
			c-2.5-0.4-3.3-2.3-3.3-2.3S207.5,309.5,207,305.2z M340.1,284.1c1.3-19.9,3.5-34.2,8.3-34.3c1.5,0,2.8,0.8,3.9,2.4
			c3.4,5.3-3.3,17.8-11.7,32.1C340.5,284.7,340.1,284.3,340.1,284.1z M338.6,338.2c-1.3,0-6-2.9-6.5-10.9
			c-0.4-5.9,2.3-11.4,4.5-14.9c0.1-0.2,0.4-0.2,0.5,0.1c0.4,1.3,1.3,4,3,4.1C340.7,330.6,340.9,338.1,338.6,338.2z M364.8,308.2
			c-0.1,0.1-0.4-0.1-0.4-0.3c-0.2-1.6,0-4.1,0.7-7.3c0.8-3.5,1.7-5.4,2.7-5.8c1-0.4,2.1-0.4,3.2,0c1.6,0.6,2.7,1.7,3.3,3.2
			c0.3,1-1,3-3.9,5.8C367.9,306.1,365.9,307.5,364.8,308.2z M631.7,271.7c0.7-13.3,3.2-19.8,7.4-19.5c1.1,0.1,2.2,0.6,3.3,1.5
			c0.4,0.4,0.8,0.9,1.2,1.3c1.8,3.4,0.8,10.9-3,22.3c-2,6.3-4.2,12.7-7,17.6c-0.3,0.6-1.3,0.9-1.5-0.3
			C631.4,285.1,631.2,279.9,631.7,271.7z"/>
	</g>
</g>
<path fill="#004994" d="M203.3,238.6c-9.7,0-18.5-5.9-18.5-17.1c0-9.8,6.5-17.4,18.1-17.4c9.9,0,14,5.6,15.4,7.8l12.8-4
	c-6.8-12.3-22.2-13.6-28.1-13.6c-16.2,0-31.5,7.8-31.5,27.1c0,17.9,12.6,27.4,30.8,27.4c13.1,0,19.9-4.3,24-8
	c4.6-4.2,5.7-7.9,6.7-11.1l-13.5,0.1C217.7,232.8,214.4,238.6,203.3,238.6z"/>
<polygon fill="#004994" points="281.6,215.5 251.3,215.5 251.3,195.8 238.4,195.8 238.4,247 251.3,247 251.3,225.1 281.6,225.1 
	281.6,247 294.4,247 294.4,195.8 281.6,195.8 "/>
<polygon fill="#004994" points="383.2,195.8 370.4,195.8 370.4,247 409,247 409,237.6 383.2,237.6 "/>
<path fill="#004994" d="M453.6,227.7c-1.5,3.5-1.9,4.9-2.4,7c-0.7-2.9-1.2-4.3-2.6-7.6l-13.3-31.3h-18.5V247h12.1v-36
	c-0.1-1.9-0.2-2.4-0.4-4.6c0.6,2.1,0.7,2.7,1.5,4.6l15.3,36h11.7l15.3-36.7c0.7-1.8,1-2.4,1.5-3.9c-0.3,2-0.5,3.3-0.5,4.8V247h12.1
	v-51.2h-18.3L453.6,227.7z"/>
<polygon fill="#004994" points="509.9,225.6 540.6,225.6 540.6,216.6 509.9,216.6 509.9,205.1 544.8,205.1 544.8,195.8 497.1,195.8 
	497.1,247 546.2,247 546.2,237.9 509.9,237.9 "/>
<path fill="#004994" d="M604.9,222.5c3.6-2.8,4.9-7.4,4.9-11.3c0-3-0.7-6.8-3.3-9.9c-4.3-4.9-9.6-5.4-15.4-5.4h-35.2V247h12.8v-20.6
	h14.6l14.1,20.6H612l-15.5-21.4C598.6,225.3,602.1,224.6,604.9,222.5z M589.1,217.4h-20.5v-12.5h19.9c5.1,0,6.3,1.2,7.2,2.5
	c0.9,1.2,1,3,1,4C596.8,217,591.9,217.4,589.1,217.4z"/>
<g>
	<path fill="#004994" d="M626,231.4l-11.6,3.3c2.6,5,6.2,8.2,10.1,10.3c1.3-4.1,2.9-7.2,4.7-9.6C627.8,234.3,626.7,233,626,231.4z"
		/>
	<path fill="#004994" d="M652,216.9c-2.4-0.5-12.9-2-15-2.4c-3.8-0.8-6.8-1.6-6.9-5c-0.1-4.9,5.7-6,11.4-6.1c2.5,0,6.9,0.2,10.3,1.8
		c3.1,1.5,4.1,3.3,4.6,4.1l12.1-3.3c-1-1.6-3.3-5.4-8.6-8.1c-5.3-2.8-11.1-3.8-18.5-3.7c-8.1,0.1-17.5,2.1-21.7,9.1
		c-1.3,2.1-1.9,4.8-1.9,7.3c0.2,11.6,12.1,13.6,16.9,14.4c2.4,0.4,12.9,1.8,15,2.2c2.8,0.5,6.3,1.3,6.4,5c0,1.8-0.8,3.2-2.1,4.2
		c1.4,2.9,2.2,6.5,2.7,10.2c6.2-2.1,11.8-6.4,11.6-15.5C668.1,219.9,658,217.9,652,216.9z"/>
</g>
<polygon fill="#004994" points="245.3,377.2 255.7,377.2 255.7,374.1 245.3,374.1 245.3,369.6 256.7,369.6 256.7,366.5 241.3,366.5 
	241.3,385.4 257.4,385.4 257.4,382.2 245.3,382.2 "/>
<path fill="#004994" d="M296.7,366.7c-0.9-0.2-2.1-0.2-3.1-0.2h-7.8v19h6.9c1.9,0,3.4,0,5.3-0.5c4.5-1.3,6.1-5.1,6.1-8.8
	c0-3.4-1.3-5.5-2.2-6.6C300.1,367.5,297.8,366.9,296.7,366.7z M298.6,380.6c-1.1,1.2-2.6,1.4-3.2,1.5c-1,0.1-2.3,0.2-4.4,0.2h-1.1
	v-12.6h2.1c1.9,0,2.5,0,3.5,0.2c1.2,0.3,1.9,0.7,2.3,1c1.1,0.9,2.1,2.4,2.1,5.2C299.8,376.3,299.9,379.1,298.6,380.6z"/>
<path fill="#004994" d="M346.8,377.9c0,1.3,0,1.8-0.3,2.4c-0.9,2.1-3.9,2.1-4.4,2.1c-2.9,0-4-1.1-4.4-2.3c-0.2-0.6-0.2-1-0.2-2.1
	v-11.7h-4.1v11.3c0,2,0,2.9,0.3,3.9c0.4,1,1.1,1.8,1.4,2c1.8,1.7,4.3,2.3,6.9,2.3c5.3,0,7.8-2.4,8.5-4.3c0.4-1.1,0.4-2,0.4-4.2
	v-10.9h-4V377.9z"/>
<path fill="#004994" d="M395.2,379.7c-0.1,0.1-0.4,0.7-0.9,1.2c-1,1.1-2.3,1.7-4,1.7c-0.6,0-1.9-0.1-3.2-0.9
	c-0.6-0.4-1.1-0.8-1.6-1.4c-1.3-1.7-1.3-3.9-1.3-4.5c0-3.5,1.8-5.4,3.4-6.1c0.4-0.2,1.3-0.5,2.5-0.5c1.7,0,3.3,0.7,4.2,2
	c0.4,0.6,0.5,1.3,0.6,1.5l4-0.9c-0.4-1-0.8-1.9-1.5-2.8c-1-1.2-3.2-3-7.3-3c-4.8,0-7.2,2.4-8.3,3.7c-2,2.5-2,5.2-2,6.2
	c0,5.6,3.3,8.2,5.8,9.2c1.9,0.8,3.6,0.8,4.4,0.8c4.4,0,6.7-2.1,7.7-3.2c0.7-0.8,1.2-1.6,1.6-2.6l-3.8-1.4
	C395.4,379.2,395.3,379.4,395.2,379.7z"/>
<path fill="#004994" d="M433,366.5l-7.3,19h4.4l1.3-3.7h8.1l1.3,3.7h4.3l-7.4-19H433z M432.4,378.6l3-8.7l3,8.7H432.4z"/>
<polygon fill="#004994" points="469.7,369.7 475.5,369.7 475.5,385.4 479.6,385.4 479.6,369.7 485.6,369.7 485.6,366.5 469.7,366.5 
	"/>
<rect x="514.3" y="366.5" fill="#004994" width="4" height="19"/>
<path fill="#004994" d="M556.4,366c-4.6,0-8.3,2.5-9.8,6.3c-0.6,1.6-0.6,3.1-0.6,3.7c0,2.6,0.9,5,2.9,7c2,2,4.3,2.9,7.4,2.9
	c1.8,0,3.1-0.3,3.8-0.5c1.9-0.6,3.2-1.7,3.7-2.2c2.9-2.7,3-6.1,3-7.2c0-3.6-1.6-5.8-2.7-7C563,368,560.6,366,556.4,366z
	 M558.9,382.1c-1.1,0.4-2.1,0.5-2.5,0.5c-0.6,0-1.9,0-3.2-0.8c-3-1.7-3.1-5.2-3.1-6c0-3.5,1.9-5.3,3.4-6c0.4-0.2,1.4-0.6,2.8-0.6
	c2.2,0,3.9,0.9,5,2.5c1,1.4,1.3,3,1.3,4.6C562.6,379.9,560.5,381.5,558.9,382.1z"/>
<polygon fill="#004994" points="607.2,366.5 607.7,379.8 598.1,366.5 594.4,366.5 594.4,385.4 598.4,385.4 598.1,372.1 607.6,385.4 
	611.2,385.4 611.2,366.5 "/>
<path fill="#004994" d="M319.4,235.8h18.7c0.8-1.4,1.8-2.7,2.8-3.9c2.8-3.2,6.6-3.6,8-3.6l0,0h0.2h0c1.9,0,3.6,0.4,4.9,1.1
	c0.6,0.3,1.4-0.2,0.5-1.6c-0.4-0.9-15.5-32.1-15.5-32.1h-13.8L300.5,247h14L319.4,235.8z M330.7,211.3c0.3-0.6,0.5-1.3,0.8-1.9
	c0.1-0.6,0.3-1.2,0.5-1.8c0.1,0.7,0.2,1.4,0.4,2c0.2,0.7,0.5,1.4,0.9,2l6.8,15.2h-16.5L330.7,211.3z"/>
<g>
</g>
<g>
</g>
<g>
</g>
<g>
</g>
<g>
</g>
<g>
</g>
</svg>
