<?xml version="1.0" encoding="utf-8"?>
<!-- Generator: Adobe Illustrator 17.1.0, SVG Export Plug-In . SVG Version: 6.00 Build 0)  -->
<!DOCTYPE svg PUBLIC "-//W3C//DTD SVG 1.1//EN" "http://www.w3.org/Graphics/SVG/1.1/DTD/svg11.dtd">
<svg version="1.1" id="Layer_1" xmlns="http://www.w3.org/2000/svg" xmlns:xlink="http://www.w3.org/1999/xlink" x="0px" y="0px"
	 viewBox="0 0 841.9 1190.6" enable-background="new 0 0 841.9 1190.6" xml:space="preserve">
<g>
	<path fill="#7C7C7B" d="M474.1,677.5c-1.9,0-3-1.4-3.6-2.3c-0.9,0.6-1.9,0.9-3.2,0.9h-0.1c-1.6,0-2.9-0.8-3.9-2.2
		c-0.8-1.1-1.4-2.7-1.9-4.7c-0.8-3.7-1.3-10.8-1.3-10.8c-0.1-1.1-0.5-2.3-1.4-2.3c-0.3,0-0.6,0.1-0.9,0.3c-2.4,1.5-3.9,5.7-4.7,8.6
		c-0.4,1.2-0.7,2.7-1,4.1c-0.2,0.8-0.4,1.6-0.5,2.3c0,0.1-0.1,0.3-0.1,0.5l0,0.1c-0.2,0.9-0.4,2.2-1,2.7c-0.2,0.2-0.5,0.3-0.7,0.3
		c-1.1,0-1.7-1.8-1.9-2.6c-0.6-2-0.8-4.2-0.9-6.2c-0.5-8.6,1.4-13.1,2.5-14.3c0.3-0.4,0.9-0.5,1.2-0.5c0.2,0,0.5,0.1,0.7,0.4
		c0.3,0.6,0.1,1.7-0.2,3.4l0,0.1c-0.3,2.2-0.8,5.1-0.7,8.3c1.4-4.3,3.6-8.5,6.1-11.5c1.4-1.7,2.7-2.5,4-2.5c0.8,0,1.6,0.4,2.1,1.1
		c0.4,0.5,0.7,1.1,0.9,2c0.4,1.5,0.8,3.9,1.2,10.5c0.5,9.1,2.6,9.1,3.8,9.2h0.1c0.4,0,0.7-0.1,0.9-0.3c-0.1-0.7-0.2-1.4-0.3-2.1
		c-0.2-3.8,1.4-9.3,2.9-12.9c2.2-5.5,5.6-8.6,7.8-9.2c0.3-0.1,0.6-0.1,0.9-0.1c1.2,0,2.5,0.6,3.4,1.9c0.1-0.2,0.1-0.5,0.1-0.6
		c0.9-3.8,2.4-8.9,3.6-11.4c0,0,2-4.2,3.3-4.2c0.3,0,0.5,0.2,0.6,0.6c0.3,0.7,0,1.6-0.3,2.3l-0.1,0.3c-0.2,0.5-0.4,1-0.5,1.6
		c-0.2,0.5-0.4,1.1-0.6,1.6c-0.4,1.2-0.8,2.5-1.2,3.8c-1.3,4.5-2.1,9-2.6,13.4c-0.5,4.4-0.8,8.6,0.1,12.5c0.2,0.9,0.6,2.1,1.6,2.5
		c0.2,0.1,0.4,0.1,0.7,0.1c0.7,0,1.5-0.4,2.5-1.1c1.4-1.1,2.7-2.6,3.9-4.4c0.5-0.8,1-1.7,1.3-2.6c0.1-0.2,0.2-0.5,0.3-0.8
		c0.2-0.5,0.4-1.1,0.7-1.6c0.4-0.5,0.8-0.6,1.1-0.6c0.2,0,0.4,0.1,0.4,0.1c0.7,0.2,0.8,0.6,0.8,1.5c0.1,2.4-1.2,4.8-2.2,6.3
		c-1.4,2.3-3.3,4.3-5.4,5.8c-1.2,0.8-2.5,1.3-3.6,1.3c-1.1,0-2.1-0.4-3-1.3c-1-1-1.5-2.3-1.9-3.3c-0.2-0.6-0.4-1.3-0.6-1.8
		c0-0.1-0.1-0.2-0.1-0.4c-0.1-0.3-0.2-0.6-0.3-0.7c-0.1,0.1-0.1,0.3-0.2,0.5c-0.3,0.6-0.6,1.2-0.9,1.8c-1.4,2.7-3.7,6.4-7.5,6.6
		C474.3,677.5,474.2,677.5,474.1,677.5L474.1,677.5z M480.6,651L480.6,651c-1,0.1-2.2,1.2-3.3,3c-0.8,1.3-1.5,2.9-2.3,5.1
		c-1.2,3.3-2.6,8-2.4,11.4c0.1,1,0.3,1.9,0.6,2.6c0.4,0.7,0.8,0.9,1.4,0.9h0.1c1.2,0,3.1-1.6,4.5-3.9c1.2-1.9,2.7-6.2,3-7.1l0,0l0,0
		c0.8-2.1,1.2-6,1.2-6.1c0-0.2,0-0.5,0-0.8C483.3,654.4,483.4,651.3,480.6,651L480.6,651z"/>
	<path fill="#7C7C7B" d="M514.8,677.7L514.8,677.7c-2.6,0-3.7-2.2-4.1-3.1c-0.5-1.3-0.8-3-0.8-4.9c0-3.9,2-9.6,3.8-13.2
		c2.7-5.6,6.3-8.6,8.7-9.1c0.2,0,0.5-0.1,0.7-0.1c2.2,0,4,2,4.7,4.1c0,0,0.2,1.1,0.4,1.8c0.2,0,0.4,0.1,0.5,0.2c0.5,0.3,0.9,0.6,1,1
		c0.1,0.4,0,0.7-0.1,0.8l-1,5.4c-0.2,0.8-0.3,1.6-0.4,2.4c-0.3,1.6-0.6,3.1-0.6,4.6c0,1.4,0.5,2.7,1.3,3.6c0.5,0.6,1.2,0.8,1.9,0.8
		c0.1,0,0.2,0,0.4,0c0.9-0.1,1.9-0.3,2.7-0.9c0.7-0.5,0.7-0.8,0.6-1.8c0-0.2,0-0.4-0.1-0.6c-0.1-2,0-4.3,0.3-7.3
		c0.1-1.2,0.3-2.3,0.5-3.4l0-0.3c1-6.7,2.1-13.3,5.2-19.7l0.1-0.1c1.3-2.8,2.4-4.3,3.2-4.3c0.3,0,0.5,0.2,0.7,0.6
		c0.3,0.6,0,1.5-0.2,2.2c0,0.1-0.1,0.3-0.1,0.4c-0.2,0.7-0.5,1.4-0.7,2.1c-0.8,2.4-1.6,4.8-2.3,7.2c-2.2,8.3-3.1,15.4-2.8,21.8
		c0,1,0.3,2.1,0.8,2.9c0.4,0.7,1.1,1.3,1.8,1.5c0.3,0.1,0.6,0.1,0.9,0.1c2.5,0,5.1-2.5,5.7-4.5l0.1-0.4l0.1,0.4l0.9,2.3
		c0.1,1.5-1.9,5.3-7,6.1c-0.3,0-0.6,0-0.8,0c-2.3,0-4.2-2-4.8-2.6c-1,1-3.5,2-5.3,2h-0.1h-0.1c-2.6-0.1-4.3-1.2-5.3-3.3
		c-0.5-1.1-0.9-2.2-1.1-3.4c-0.6,1.3-1.6,3.2-2.4,4.4C520.5,675.2,517.7,677.7,514.8,677.7L514.8,677.7z M522.9,650.4L522.9,650.4
		c-1.1,0-2.4,1.1-3.6,2.9c-0.9,1.3-1.8,3-2.7,5.2c-1.5,3.4-3.2,8.2-3.2,11.7c0,1,0.2,2.1,0.5,2.7c0.4,0.8,0.8,1.1,1.5,1.1h0.1
		c1.3,0,3.3-1.5,4.8-3.8c1.6-2.2,3.5-7.2,3.6-7.2c1-2.2,1.7-6.2,1.7-6.2c0-0.2,0-0.4,0-0.6l0-0.2
		C525.6,654.1,525.9,650.9,522.9,650.4L522.9,650.4z"/>
	<path fill="#7C7C7B" d="M562.1,677.3c-0.2,0-0.5,0-0.7,0c-1.2-0.2-2.4-0.4-3.3-1.8c-0.6-1-1.2-2.3-1.7-4c-0.5-1.6-0.8-3.3-1-4.8
		c-0.9,1.1-2.3,2.7-3.6,4.1c-1,1.1-1.9,2.1-2.3,2.7l-0.2,0.2c-0.1,0.1-0.1,0.2-0.2,0.2c-0.5,0.6-2,2.4-3.2,2.4c-0.1,0-0.2,0-0.4-0.1
		c-1.1-0.5-0.9-2.2-0.3-5.6l0.1-0.4c0.5-3.3,1.2-7.4,1-11.8c-0.1-2,0.1-3.3,0.7-3.8c0.2-0.3,0.6-0.4,0.9-0.4c0.3,0,0.6,0.1,0.9,0.2
		c2.6,1.2,0.8,11.2,0.3,13.4c0.6-0.7,1.1-1.2,1.7-1.9c1.4-1.7,3-3.8,3.8-5.1c0.7-1,1.3-1.7,1.9-2.2c0.1-0.1,0.2-0.1,0.3-0.1
		c0.4,0,1.5,0,2.4,9.5c0.2,1.9,1.2,5.6,3.2,5.6c2,0,3.6-2.2,4.8-6.4c0.6-2.3,0.8-4.7,1-7c0.1-1,0.2-2.4,0.2-3.8
		c0-0.6-0.1-1.2-0.2-1.8l-0.1-0.5c0-0.1,0-0.2,0-0.3c-0.1-0.5-0.2-1.1,0-1.6c0.2-0.5,0.7-0.6,0.9-0.7c0.1,0,0.1,0,0.2,0
		c0.3,0,0.6,0.2,0.9,0.5c0.7,0.8,2.2,3.7,0.8,13.6c-0.3,2.7-1.3,5.6-2.7,7.8C566.7,676,564.6,677.3,562.1,677.3L562.1,677.3z"/>
	<path fill="#7C7C7B" d="M399.5,676.2c-0.8,0-1.8-0.5-1.8-2.6c0-1.3,0.9-2,2.3-2c1.4,0,2.3,0.8,2.3,2
		C402.4,675,400.8,676.2,399.5,676.2L399.5,676.2z"/>
	<path fill="#7C7C7B" d="M413.5,679.2c-0.2,0-0.3,0-0.5-0.1c-1.4-0.8,0-3.8,0.9-5.8c0.2-0.4,0.3-0.8,0.4-1c0.4-1,0.9-2,1.3-3.1
		l0.3-0.6c0.9-2,1.7-3.9,2.1-5.1c0,0,0,0,0,0c0,0-0.1,0-0.2-0.1c-0.3-0.2-1.1-0.5-0.9-1.4c0.3-1.6,2.1-1.8,2.7-1.9c0,0,0,0,0.1,0
		c0.2-0.5,0.6-1.6,1.1-3.1c0.4-1.1,0.9-2.3,1.5-3.8c0.7-1.7,1.3-3.5,1.9-5.2c1.2-3.3,2.4-6.6,4-9.8c0.2-0.5,0.5-1.1,0.7-1.7
		c0.7-1.9,1.6-4,3.3-4.7c0.1-0.1,0.3-0.1,0.5-0.1c0.5,0,1.1,0.1,1.3,0.5c0.5,0.5,0.6,1.4,0.7,2.2c0,0.2,0.1,0.4,0.1,0.6l0.2,0.7
		c0.2,0.9,0.4,1.7,0.6,2.6c0.3,1.1,0.6,2.3,0.8,3.4c0.3,1.3,0.6,2.6,0.9,3.8c0.6,2,1.2,4,1.9,6c0.7,2.3,1.5,4.7,2.2,7.1
		c1.2,4.1,2.7,8.8,3.8,12.9l0.1,0.4l0,0.1c0.3,1.1,0.6,2.3,1,3.8c0.2,0.7,0.1,1.4-0.2,1.9c-0.1,0.2-0.4,0.4-0.6,0.4h-0.1
		c-2.5,0-4-4.8-5.9-10.8l-0.1-0.3c-0.2-0.8-0.5-1.6-0.7-2.4l0-0.1c0-0.1-0.1-0.3-0.1-0.4c-0.1-0.5-0.4-1.4-0.7-1.6
		c-0.2-0.1-0.6-0.2-1.1-0.2c-0.5,0-1.1,0.1-1.5,0.1l-0.1,0l-0.2,0c-1.8,0.2-10,1.1-12.4,1.4c-0.2,0.5-0.5,1.1-0.8,1.8
		C419,672.2,415.6,679.2,413.5,679.2L413.5,679.2z M431.9,639.7c-0.4,0.5-0.7,1.2-1,1.8c-0.1,0.3-0.3,0.6-0.4,0.9
		c-0.4,0.8-0.9,1.9-1.3,3.2c-1.8,5-4.5,12.5-5,13.8c5.8-0.5,10-1,11.8-1.4c0.1,0,0.3,0,0.4,0c0.3,0,0.5,0,0.6,0.1
		c-1.2-4.9-1.7-7-2-7.9c-0.6-2.1-1.2-4.2-1.7-6.3l-0.3-1c0-0.2-0.1-0.3-0.1-0.5C432.8,641.6,432.5,640.4,431.9,639.7L431.9,639.7z"
		/>
	<path fill="#7C7C7B" d="M229.6,683.4c-0.1,0-0.2,0-0.3-0.1c-1.6-0.6-0.8-4.9-0.5-7.2c0-0.2,0.1-0.3,0.1-0.5c0-0.2,0-0.3,0.1-0.4
		c0.1-0.9,0.5-3.9,0.4-6.2c-0.2,0-1.4-0.3-1.5-1.2c-0.1-1.5,1.2-2.1,1.8-2.3c0.1,0,0.1-0.1,0.1-0.1l0,0l0,0c0,0,0,0,0,0
		c0-0.5,0-1.6,0-3.2c0.1-5.7,0.2-19.1,0.8-22.7c0.4-2.2,1.8-3.9,2.9-3.9c0.3,0,0.6,0.2,0.8,0.5c0.5,0.9,0.3,3.5,0.1,6.8
		c-0.1,2.1-0.3,4.7-0.3,7.1c0,5.4-0.1,13.4-0.2,14.7c6.2-1,12.1-2.5,14.1-3c0.2-0.1,0.4-0.1,0.6-0.1c0.2,0,0.3,0,0.5,0.1
		c0-1.7,0.1-5.3,0.1-7c0-4.1,0.1-8,0.2-12.3c0.1-4.1,1.4-9.9,4-9.9h0.1c0.5,0,0.7,0.2,0.8,0.4c0.3,0.5-0.1,1.4-0.1,1.4
		c-1.5,5.4-1.3,18.4-1.1,29.9v0.1l0,0.4c0,3.4,0.1,6.6,0.1,9.5l0,0.4c0,0.9,0,2.1,0,3.6c0,0.9-0.5,2-1.3,2.1c-0.1,0-0.2,0-0.3,0
		c-2.3,0-2.5-4.3-2.6-9.8l0,0c0-0.8,0-1.6-0.1-2.5c0-0.1,0-0.3,0-0.5c0-0.4,0-1.2-0.2-1.3c-0.1-0.1-0.3-0.1-0.6-0.1
		c-0.6,0-1.5,0.2-1.9,0.3l-0.2,0c-1.5,0.3-9.5,1.7-12.1,2.3c-0.1,0.4-0.3,1.5-0.4,2.3C232.3,678.6,231.2,683.4,229.6,683.4
		L229.6,683.4z"/>
	<path fill="#7C7C7B" d="M386.2,677c-0.3,0-0.5,0-0.7,0c-1.2-0.1-2.3-0.9-3.2-2.2c-0.7-1-1.2-2.3-1.7-4c-0.5-1.7-0.8-3.4-1-4.8
		c-1,1.6-2.7,3.8-3.9,5.4c-0.4,0.6-0.8,1-1,1.4l-0.2,0.2c-0.1,0.1-0.2,0.2-0.2,0.3l-0.1,0.1c-0.7,1-2.1,3-3.2,3
		c-0.1,0-0.3,0-0.4-0.1c-1.2-0.5-0.9-3.4-0.4-7.4c0.4-3,0.9-7.2,0.7-11.4l0-0.3c-0.3,0.3-0.9,0.7-1.8,0.7c-0.5,0-1-0.1-1.5-0.3
		c0,0.2,0.1,0.2,0.1,0.3c0,0.1,0,0.1,0.1,0.3c0.8,3.4,0.8,7.2,0.1,10.3c-0.9,4.2-3.2,7-6.4,7.7c-0.5,0.1-0.9,0.2-1.3,0.2
		c-1.6,0-3.2-0.8-4.4-2.2c-1.2,1.2-3.1,2-5.1,2h-0.1c-1.5,0-2.9-0.8-3.9-2.2c-0.8-1.1-1.4-2.7-1.9-4.8c-0.8-3.6-1.3-10.8-1.3-10.8
		c-0.1-1.1-0.5-2.3-1.4-2.3c-0.3,0-0.6,0.1-0.9,0.3c-2.4,1.6-3.9,5.7-4.7,8.6c-0.4,1.3-0.7,2.8-1,4.1l-0.1,0.4
		c-0.2,0.7-0.3,1.3-0.4,1.9c0,0.2-0.1,0.3-0.1,0.6l0,0.1c-0.2,0.9-0.4,2.2-1,2.7c-0.2,0.2-0.5,0.3-0.7,0.3c-1.1,0-1.7-1.8-1.9-2.6
		c-0.6-1.9-0.8-4.1-0.9-6.2c-0.5-8.4,1.5-13,2.7-14.2c0.3-0.4,0.6-0.5,1-0.5c0.2,0,0.5,0.1,0.7,0.4c0.3,0.5,0.1,1.7-0.2,3.4
		c-0.4,2.2-0.8,5.1-0.7,8.4c1.4-4.3,3.6-8.5,6.1-11.5c1.4-1.7,2.7-2.5,4-2.5c0.8,0,1.6,0.4,2.1,1.1c0.4,0.5,0.7,1.1,0.9,2
		c0.4,1.5,0.8,3.8,1.2,10.5c0.5,9.1,2.6,9.1,3.8,9.2l0.1,0c0.8,0,1.6-0.4,2.6-0.9c-3.5-8.1,0.7-14.1,2.7-17c0.5-0.7,1-1.5,1-1.7
		c-0.3-0.5-0.4-1-0.2-1.5c0.4-1,2-1.4,2.3-1.5c0.2,0,0.4,0,0.5,0c1.8,0,3.3,0.8,4.5,2.3c0.1,0.1,0.3,0.3,0.5,0.4
		c0.9,0.8,2.3,2,3.7,2c0.7,0,1.5-0.3,2.1-1c0.2-0.2,0.4-0.3,0.7-0.3c0.3,0,0.6,0.1,1,0.3c2.4,1.1,1.4,10.1,0.9,13.7
		c0.2-0.3,0.4-0.5,0.6-0.8c0.4-0.6,0.9-1.2,1.2-1.7c1-1.6,2.1-3.2,2.9-4.4l0.2-0.3c0.7-1,1.2-1.8,1.9-2.2c0.1-0.1,0.2-0.1,0.3-0.1
		c0.4,0,1.5,0,2.4,9.5c0.2,1.9,1.2,5.6,3.2,5.6c1.2,0,2.3-1.2,3.4-3.5c0.9-1.8,1.3-3.7,1.6-5.9c0.6-3.8,0.8-7.3,0.5-11
		c0-0.7,0-1.1,0.3-1.3c0.2-0.2,0.4-0.2,0.6-0.2c0.2,0,0.3,0,0.6,0.1c0.2,0.1,0.4,0.2,0.6,0.4c0.5,0.5,0.9,1.5,1,2.2
		c0.7,3.8,0.3,7.7-0.2,11.5c-0.3,2.7-1.3,5.6-2.7,7.8C391.3,674.7,389.3,677,386.2,677L386.2,677z M361.7,654.8
		c-0.2,0-0.4,0.1-0.5,0.2c-1.4,1-5.8,6.6-4.5,12.7c0.7,3.2,1.9,5,3.3,5c0.2,0,0.3,0,0.5-0.1c2.1-0.6,3.6-2.5,4.4-5.6
		c1.3-7-0.5-10.2-1.4-11.2C362.9,655.2,362.3,654.8,361.7,654.8L361.7,654.8z"/>
	<path fill="#7C7C7B" d="M303.1,678.2c-1.2,0-1.9-1-2.2-6.4c0-0.6-0.1-1.7-0.3-2.7l0-0.1c0-0.2-0.1-0.4-0.1-0.6
		c0-0.2-0.1-0.4-0.1-0.6c-0.9,5.2-3.5,8.4-6.9,8.4c-0.1,0-0.1,0-0.2,0c-2.8-0.1-3.6-1.6-4.4-3.4c-0.5-1.1-0.7-2.3-0.9-3.4
		c-0.5,1-1.5,3.1-2.3,4.3c-1.4,2.1-4.1,4.5-6.9,4.5c-1.2,0-2.8-0.6-3.9-3.6c-0.7-1.8-0.8-3.3-0.8-4.4c0-0.3,0-0.6,0-0.9
		c-1.9,2.3-4,4.8-6.3,6.1c-1.3,0.7-3.5,1.5-5.7,1.5c-0.7,0-1.3-0.2-1.8-0.4c-0.1,0-0.2-0.1-0.4-0.1c-1.9-0.5-3.8-3.1-3.8-6.9
		c-0.4,0-1.8-0.1-2-1.4c-0.1-0.6,0-1.1,0.3-1.4c0.2-0.3,0.5-0.4,0.7-0.4l1.5-0.5c0.2-0.6,0.3-1.3,0.4-2c0.7-3.2,1.6-7.5,4.6-11.2
		c1.3-1.3,2.6-2.1,4.1-2.3c0.3,0,0.6-0.1,0.8-0.1c0.8,0,1.5,0.2,2,0.5c0.8,0.4,1.8,1.4,1.8,2.7c0,0,0.7,2.5-1.1,5.8
		c-2.9,5.5-9.5,8.9-9.6,9c-0.1,0-0.1,0.1-0.2,0.3c-0.2,0.8,0.2,3.4,0.5,3.7c0.5,0.7,1.3,1.1,2.4,1.1c1.9,0,4.5-1.6,7.7-4.6
		c1.8-1.8,3.8-4.3,4.5-5.8c0.8-1.7,1.5-3.1,2.1-4.2c0.4-0.7,0.7-1.2,0.8-1.6c2.5-5.5,5.9-7.2,8.3-7.7c0.3,0,0.5-0.1,0.7-0.1
		c2.2,0,3.8,1.2,4.5,3.2c0.1,0.3,0.2,0.7,0.3,1.3c0.2,0,0.3,0.1,0.5,0.2c0.5,0.3,0.8,0.6,0.9,1c0.1,0.4,0,0.7-0.1,0.8l-0.9,5.4
		c-0.1,0.8-0.3,1.6-0.4,2.4c-0.3,1.6-0.5,3.1-0.5,4.6c0,1.5,0.4,3.4,1.2,4.2c0.3,0.3,0.6,0.4,1,0.4c0.3,0,0.5-0.1,0.8-0.2
		c1.8-0.9,2.7-2.9,3.4-4.8c0.2-0.6,0.4-1.2,0.6-1.8l0.1-0.3l0.1-0.3c0.1-0.3,0.7-4.8,0.8-7.3c-0.2-1-0.3-1.9-0.4-2.4
		c-0.2-0.8,0-1.6,0.4-2.2c0.3-0.3,0.6-0.5,0.9-0.5s1,0.2,1.5,1.6c0.8,2.3,1.3,4.7,1.6,6.4c3-4.9,7.2-7,10.2-7c1.2,0,2.1,0.3,2.6,1
		c0.8,0.9,0.7,1.7,0.5,2.2c-0.5,1.1-2.1,1.9-4.1,2.1c-2.3,0.2-4.9,1.7-6.3,3.4c-1.9,2.6-1.6,6.8-1.3,10.1l0,0.1
		c0.2,2.5,0,4.1-0.7,4.9c-0.3,0.3-0.6,0.5-0.9,0.5C303.2,678.2,303.1,678.2,303.1,678.2L303.1,678.2z M286.6,652.3L286.6,652.3
		c-1.2,0-2.3,0.7-3.4,2.2l-0.1,0.2c-0.9,1.2-1.7,2.2-2.5,4.3c-1.4,3.4-3.1,8.2-3.1,11.7c0,1,0.2,1.6,0.5,2.3
		c0.4,0.9,0.8,1.5,1.4,1.6l0.1,0c1.2,0,3.1-1.5,4.6-3.8c1.5-2.2,3.4-7.2,3.4-7.2c0.9-1.9,1.5-5.5,1.6-6.2c0-0.2,0-0.5,0.1-0.8
		C289.1,654.3,289.1,652.7,286.6,652.3L286.6,652.3z M266.4,653.3c-0.9,0-1.9,0.8-2.8,2.2c-0.8,1.2-2.8,6.4-2.9,8.1
		c0.9-0.5,3.1-2.1,4.2-3.5c2.3-3.2,2.7-5.4,2.2-6.4C266.8,653.5,266.6,653.3,266.4,653.3L266.4,653.3L266.4,653.3z"/>
	<g>
		<path fill="#7C7C7B" d="M613.5,700.3h-0.2h-0.1c-2.2-0.1-5.4-2-7-6.1c-1.4-3.6-3.4-13.4,9.8-27.1l2.6-2.9c0-0.1-0.1-0.3-0.1-0.5
			c-0.2-1.2-0.7-3.5-1.2-5.3c-0.6,1.9-1.2,3.7-1.7,4.7c-1,2.6-2.8,5.3-4.7,7.3c-2.2,2.3-5,3.6-7.5,3.6c-0.4,0-0.7,0-1.1-0.1
			c-1.4-0.3-2.4-1-3-2.4c-0.1,0.2-0.3,0.4-0.5,0.6c-1.2,1.6-2.9,3.9-5.8,4h-0.1c-2.5,0-4.4-1.2-5.4-3.3c-0.5-1.1-0.8-2.4-0.9-3.4
			c-0.5,1-1.6,2.7-2.4,3.9c-1.5,2.1-4.3,4.5-7.1,4.5c-2.6,0-3.7-2.2-4.1-3.2c-0.7-1.8-0.8-3.3-0.8-4.4c0-3.9,2-9.6,3.8-13.2
			c2.7-5.6,6.3-8.6,8.7-9.1c0.2,0,0.5-0.1,0.7-0.1c2.2,0,4,2,4.7,4.1c0,0,0,0.1,0,0.2c0.1,0.3,0.2,0.9,0.3,1.6
			c0.2,0,0.3,0.1,0.5,0.2c0.5,0.3,0.9,0.6,1,1c0.1,0.4,0,0.7-0.1,0.8l-1,5.4c-0.2,0.8-0.3,1.6-0.4,2.4c-0.3,1.6-0.6,3.1-0.6,4.7
			c0,1,0.2,1.8,0.7,2.8c0.6,1.1,1.3,1.7,2.1,1.7h0.1c1.1,0,2.9-1.7,4-3.3l0.1-0.2c0.5-0.7,0.8-1.1,1-1.8c0.1-0.1,0.1-0.2,0.1-0.3
			c0.1-0.3,0.2-0.5,0.4-1.2c0.1-0.6,0.2-1,0.3-1.3c0.1-0.5,0.2-0.9,0.3-1.7l0-0.2c0.4-2.6,1.5-6.1,2.8-8.8c0.7-1.4,1.7-2.1,2.4-2.1
			c0.2,0,0.5,0.1,0.6,0.3c0.2,0.3,0.3,0.7,0.1,1.3c-0.2,0.9-0.4,1.8-0.6,2.6l0,0.1c-0.3,1.2-0.6,2.4-0.8,3.7c-0.1,0.5-0.2,1-0.3,1.5
			l-0.1,0.5c-0.4,2.1-0.9,4.6-0.7,6.5c0.1,1,0.7,1.5,1.7,1.5c1,0,2.4-0.5,3.5-1.3c2.9-2.1,4.1-5.2,5.4-8.4c0.2-0.5,0.4-1,0.6-1.5
			c0.4-1,0.8-2.1,1.1-3.1l0-0.1l0-0.1c0.7-2.2,1.2-3.8,2-4c0.1,0,0.2,0,0.3,0c2.3,0,3.2,6.6,3.2,6.7c0.3,1,0.6,2.5,0.8,3.4
			c0.5-0.6,1.1-1.2,1.6-1.7c1-1.1,2.1-2.2,3.2-3.1c0.3-0.2,0.5-0.5,0.8-0.7c0.8-0.8,1.6-1.5,2.5-2.2c0,0,0.1-0.1,0.2-0.2
			c0.9-0.8,3.6-3.2,5.8-3.2c0.1,0,0.2,0,0.3,0l0.2,0l-0.1,0.2l-4.4,5.5c-3.5,2.4-6.5,5.8-9.5,9.2l0.4,2.1l0,0.3
			c0.8,5.1,2.1,14.1,2.1,16.3c0.4,7.7-1.9,11.8-3.9,13.9C618.5,699.2,616.1,700.3,613.5,700.3L613.5,700.3z M619.2,667.9
			c-0.5,0.6-1.1,1.3-1.6,1.9c-2.6,3.1-5,6-6.2,8.6c-2.9,5.5-3.6,11.5-1.7,15.4c0.8,1.7,2,2.8,3.6,3.1c0.2,0,0.4,0.1,0.7,0.1
			c2.1,0,4.1-1.9,5.2-3.7C622.7,686.9,620.2,672.6,619.2,667.9L619.2,667.9z M585,651L585,651c-1,0-2.4,1.1-3.6,2.9
			c-0.9,1.3-1.8,3-2.7,5.2c-1.5,3.4-3.2,8.2-3.2,11.7c0,1,0.2,1.6,0.5,2.3c0.4,0.8,0.8,1.1,1.5,1.1h0.1c1.2,0,3.2-1,4.8-3.3
			c1.4-2,3.2-6.3,3.5-7.2c0.9-2,1.5-5.5,1.7-6.2c0-0.1,0-0.2,0-0.3c0-0.1,0-0.3,0-0.5c0-0.2,0-0.4,0-0.5
			C587.5,654.1,587.6,651.4,585,651L585,651z"/>
	</g>
	<path fill="#7C7C7B" d="M635.7,677.2c-3.5,0-6.9-0.9-8.6-1.7c-0.7-0.3-1.2-1.2-1-1.8c0.1-0.4,0.4-0.7,1-0.7c0.2,0,0.5,0.1,0.8,0.1
		c2,0.6,4.3,0.9,6.5,0.9c4.4,0,7.8-1.2,8.3-2.9c0.4-1.3-0.8-2.8-3.3-4.4l-0.8-0.5c-1.9-1.2-3.8-2.4-5.4-4c-0.3-0.3-0.6-0.7-1-1.1
		c-0.3-0.3-0.5-0.6-0.7-0.9c-1.2-1.6-1.7-3-1.7-4.4c0-1.4,0.8-3.1,2.1-4.4c1-1.1,2.4-1.7,4.1-1.7c3.7,0,7.1,2.8,7.1,5.7
		c0,0.3-0.1,0.5-0.3,0.7c-0.2,0.2-0.4,0.3-0.7,0.3c-0.4,0-0.7-0.2-0.9-0.6c-0.8-1.7-3.1-3.2-4.9-3.2c-0.8,0-1.9,0.3-2.5,1.6
		c-1.7,3.5,2.6,6.3,6.7,9c1.1,0.7,2.1,1.4,3.1,2.1c1.4,1.1,2.9,3.3,2.8,5.7c-0.1,1.9-1.3,3.5-3.5,4.7
		C640.8,676.6,638.4,677.2,635.7,677.2L635.7,677.2z"/>
</g>
<path fill="#FFCC00" d="M519.8,360.6c-0.7,0-1.5,0.1-2.2,0.1c-4.2-10.5-13.2-17-25.8-17c-1.7,0-3.4,0.1-5.2,0.3
	c-6-15-18.5-24.3-36.5-24.3c-35.5,0-78.3,36.7-95.5,82c-17.3,45.3-2.4,82.1,33.1,82.1c17.8,0,37.6-9.3,55-24.4
	c1.6,0.3,3.2,0.4,4.9,0.4c12.6,0,26.5-6.5,38.7-17.1c0.7,0,1.4,0.1,2.1,0.1c17.8,0,39.2-18.4,47.9-41.1
	C545,379.1,537.6,360.6,519.8,360.6z M408.2,466.9c-27.4,0-38.9-31-25.6-69.2c13.3-38.3,46.4-69.2,73.9-69.2
	c12.2,0,21.2,6.1,26.4,16.3c-23,5.1-47.9,28.7-58.7,57c-10.1,26.7-4.6,49.1,12,56C426.9,463.5,417.2,466.9,408.2,466.9z
	 M460.4,446.1c-19.5,0-27.6-21.9-18.1-48.9c9.4-27.1,32.8-49,52.3-49c9.2,0,15.9,4.9,19.4,13.1c-16.4,3.4-34.3,20.2-42,40.5
	c-6.8,17.9-3.6,33.1,6.7,38.8C472.5,444.1,466.3,446.1,460.4,446.1z M534,398.7c-6.7,19.1-23.3,34.6-37,34.6
	c-13.7,0-19.5-15.5-12.8-34.6c6.7-19.1,23.2-34.7,37-34.7C535,364,540.7,379.6,534,398.7z"/>
<g>
	<path d="M355.6,511.4c-5.9-3.2-10.8-4.7-16.3-4.7c-10.8,0-18.8,7.3-18.8,17.2c0,10.1,7.8,17.1,19.2,17.1c5.3,0,11.1-1.8,16.4-5.1
		v7.1c-4.6,2.3-9.7,4-17.1,4c-17.7,0-25.5-13-25.5-22.4c0-13.7,10.9-23.8,25.9-23.8c4.8,0,9.7,1.1,16.2,3.7V511.4z"/>
	<path d="M393.6,531.2c0,9.4-6.9,15.7-16.8,15.7c-9.6,0-16.4-6.6-16.4-15.7c0-8.5,7.1-15.1,16.4-15.1
		C386.5,516.1,393.6,522.4,393.6,531.2z M366.6,531.2c0,6.3,4.1,10.4,10.1,10.4c6.5,0,10.6-4,10.6-10.3c0-5.7-4.5-9.9-10.6-9.9
		C370.9,521.4,366.6,525.5,366.6,531.2z"/>
	<path d="M422,524.4c-3.5-2.3-5.9-2.9-8.6-2.9c-5.6,0-9.5,4-9.5,10c0,6.1,4.2,9.8,10.5,9.8c2.6,0,5.1-0.7,8.2-2v5.8
		c-2.1,0.9-6,1.7-9.3,1.7c-9.3,0-15.8-6.1-15.8-14.8c0-9.8,5.9-16,15.4-16c3.6,0,6,0.8,9,2.1V524.4z"/>
	<path d="M434.1,520.6h0.1c2.4-2.8,5.8-4.5,9.3-4.5c6.1,0,10.6,4,10.6,12.1v18.2H448V528c0-4.4-2.4-7.2-6.1-7.2
		c-2.7,0-4.9,1.2-7.8,4.3v21.3h-6.2v-45h6.2V520.6z"/>
	<path d="M467.7,546.3h-6.1v-45h6.1V546.3z"/>
	<path d="M501.3,543.4c-3.7,2.4-7.1,3.5-12.4,3.5c-9.7,0-15.1-7.6-15.1-15.8c0-9,6-15.1,14.6-15.1c8.3,0,13.5,5.3,13.5,16.3h-21.9
		c1,5.9,4.5,8.9,10.5,8.9c3.7,0,7.3-1.3,10.9-3.6V543.4z M495.7,528.5c-0.2-4.5-2.9-7.3-7.3-7.3c-4.7,0-7.5,2.6-8.4,7.3H495.7z"/>
	<path d="M531.3,544.6c-2.8,1.8-4,2.3-6,2.3c-2.7,0-4.2-1-4.7-3c-2.7,2-5.6,3-8.4,3c-4.6,0-7.6-3.5-7.6-7.3c0-5.9,5.6-7.6,10.6-9.3
		l5.4-1.9v-1.6c0-3.7-1.8-5.2-5.6-5.2c-3.4,0-6.8,1.5-9.8,4.9v-6.4c2.4-2.7,5.8-4,10.3-4c6.3,0,11.3,3,11.3,9.8v15.2
		c0,1.1,0.4,1.5,1.2,1.5c0.6,0,1.9-0.6,3.3-1.6V544.6z M520.6,531.7c-5.2,1.7-9.8,3.5-9.8,6.9c0,2.4,1.9,4.1,4.4,4.1
		c2,0,3.8-0.9,5.4-2.5V531.7z"/>
	<path d="M541.9,516.7v6.8h0.2c3.1-5.2,6.1-7.4,9-7.4c2.5,0,4.8,1.1,7.4,3.4l-3.3,5.1c-1.9-1.7-4.3-2.9-5.7-2.9
		c-4.2,0-7.6,4-7.6,9.1v15.5h-6.1v-29.7H541.9z"/>
</g>
<g>
	<g>
		<path d="M574.3,534.7c-5.2,0-9.4-4.2-9.4-9.4c0-5.2,4.2-9.4,9.4-9.4c5.2,0,9.4,4.2,9.4,9.4C583.8,530.5,579.5,534.7,574.3,534.7z
			 M574.3,517.4c-4.3,0-7.9,3.5-7.9,7.8c0,4.4,3.5,7.9,7.9,7.9c4.3,0,7.9-3.5,7.9-7.9C582.2,520.9,578.7,517.4,574.3,517.4z
			 M570.2,520.4h4.5c2.5,0,3.4,1.6,3.4,2.7c0,1.6-1.2,2.8-2.9,2.9v0c0.9,0.3,1.5,1.2,2.4,2.5l1.2,2h-2l-0.9-1.6
			c-1.3-2.3-1.8-2.7-3-2.7h-1v4.3h-1.6V520.4z M574.2,524.8c1.3,0,2.1-0.5,2.1-1.5c0-0.9-0.7-1.5-1.8-1.5h-2.6v3H574.2z"/>
	</g>
</g>
<g>
</g>
<g>
</g>
<g>
</g>
<g>
</g>
<g>
</g>
<g>
</g>
<g>
</g>
<g>
</g>
<g>
</g>
<g>
</g>
<g>
</g>
<g>
</g>
</svg>
