<?xml version="1.0" encoding="utf-8"?>
<!-- Generator: Adobe Illustrator 17.1.0, SVG Export Plug-In . SVG Version: 6.00 Build 0)  -->
<!DOCTYPE svg PUBLIC "-//W3C//DTD SVG 1.1//EN" "http://www.w3.org/Graphics/SVG/1.1/DTD/svg11.dtd">
<svg version="1.1" id="Lager_1" xmlns="http://www.w3.org/2000/svg" xmlns:xlink="http://www.w3.org/1999/xlink" x="0px" y="0px"
	 viewBox="0 0 841.9 595.3" enable-background="new 0 0 841.9 595.3" xml:space="preserve">
<path fill="#555454" d="M667.4,279.1c-9,0.6-11.5,1.5-11.5,1.5c-2.6,0-3.2,0-4.3,0c-10.6,0-19.6,8.1-19.6,21.5v59.2h-19.6v-97.4
	h19.2v10.6c5-6.9,15-11.7,25.9-11.7c9.4,0,16.5,2.5,23.3,9.2L667.4,279.1z"/>
<path fill="#555454" d="M703.9,361.3c-18.3,0-26.7-13.1-26.7-27.1v-53.6h-21.3l10.1-15l11.1,6.1V236h19.6v29.6h18.8v15h-18.8v52.7
	c0,7.1,3.5,11.3,10.8,11.3h8.1v16.7H703.9z"/>
<polygon fill="#EF7B10" points="737.4,344.6 720.8,361.3 720.8,344.6 737.4,344.6 "/>
<path fill="#EF7B10" d="M254.4,348.4c-8.6,8.6-21,12.8-35.1,12.8h-47.7v-136h47.7c14.1,0,26.5,4.2,35.1,12.8
	c14.7,14.7,13.8,34.6,13.8,54.2C268.2,311.9,269.1,333.7,254.4,348.4z M240.3,252.9c-5.7-6.3-13.4-9.2-23.1-9.2h-25v98.9h25
	c9.7,0,17.4-2.9,23.1-9.2c7.1-7.8,7.3-22.5,7.3-41.3C247.6,273.5,247.4,260.7,240.3,252.9z"/>
<path fill="#EF7B10" d="M290.1,318.4c0,16.6,8.8,27.1,24.6,27.1c10.9,0,16.6-3.1,23.5-9.9l12.4,11.6c-9.9,9.9-19.3,15.1-36.3,15.1
	c-24.3,0-43.5-12.8-43.5-49.7c0-31.3,16.2-49.5,41.1-49.5c26,0,41.1,19.1,41.1,46.6v8.6H290.1z M331,291.7
	c-3.1-7.3-9.9-12.2-19.1-12.2c-9.2,0-16.2,5-19.3,12.2c-1.9,4.4-2.3,7.3-2.5,13.2h43.5C333.5,298.9,332.9,296,331,291.7z"/>
<path fill="#EF7B10" d="M395,361.2h-15.9l-35.5-96.8h20.6l22.9,68.2l22.7-68.2h20.6L395,361.2z"/>
<path fill="#555454" d="M484.9,307.7H454v53.5h-20.6v-136h51.6c26.5,0,43.5,17.6,43.5,41.3C528.5,290.1,511.5,307.7,484.9,307.7z
	 M483.8,243.7H454V289h29.8c14.3,0,24.1-8.2,24.1-22.5C507.8,252.1,498.1,243.7,483.8,243.7z"/>
<path fill="#555454" d="M595.5,350.9c-6.3,6.5-15.9,11.5-29,11.5c-13.2,0-22.5-5-28.8-11.5c-9.2-9.6-11.5-21.8-11.5-38.2
	c0-16.2,2.3-28.5,11.5-38c6.3-6.5,15.7-11.5,28.8-11.5c13.2,0,22.7,5,29,11.5c9.2,9.5,11.5,21.8,11.5,38
	C606.9,329.1,604.6,341.3,595.5,350.9z M580.8,286.1c-3.6-3.6-8.6-5.5-14.3-5.5c-5.7,0-10.5,1.9-14.1,5.5c-5.9,5.9-6.7,16-6.7,26.5
	c0,10.5,0.8,20.6,6.7,26.5c3.6,3.6,8.4,5.7,14.1,5.7c5.7,0,10.7-2.1,14.3-5.7c5.9-5.9,6.7-16,6.7-26.5
	C587.5,302.2,586.7,292,580.8,286.1z"/>
<g>
</g>
<g>
</g>
<g>
</g>
<g>
</g>
<g>
</g>
<g>
</g>
</svg>
