<?xml version="1.0" encoding="utf-8"?>
<!-- Generator: Adobe Illustrator 17.1.0, SVG Export Plug-In . SVG Version: 6.00 Build 0)  -->
<!DOCTYPE svg PUBLIC "-//W3C//DTD SVG 1.1//EN" "http://www.w3.org/Graphics/SVG/1.1/DTD/svg11.dtd">
<svg version="1.1" id="Layer_1" xmlns="http://www.w3.org/2000/svg" xmlns:xlink="http://www.w3.org/1999/xlink" x="0px" y="0px"
	 viewBox="0 0 612 792" enable-background="new 0 0 612 792" xml:space="preserve">
<g>
	<path fill="#6AC8EE" d="M127.2,245c0-7.1-2.5-13.2-7.6-18.3c-5-5-11.1-7.5-18.3-7.5c-7.2,0-13.3,2.5-18.3,7.5
		c-5,5.1-7.5,11.1-7.5,18.3c0,7.1,2.5,13.2,7.5,18.3c5,5,11.1,7.6,18.3,7.6c7.1,0,13.2-2.5,18.3-7.6
		C124.6,258.3,127.2,252.2,127.2,245L127.2,245z"/>
	<path d="M566.1,295.9l2.5-29.2c0.5-6-0.6-10.4-3.3-12.9c-2.8-2.6-7.6-3.9-14.5-3.9h-23l-4,46.1H536l3.1-36h9.8
		c3.2,0,5.4,0.5,6.4,1.5c1,1,1.3,3.3,1,6.7l-2.4,27.7H566.1L566.1,295.9z"/>
	<path d="M519.2,259.4l0.8-9.6h-17.8c-7.6,0-13.6,1.9-17.9,5.8c-4.3,3.9-6.7,9.6-7.4,17.2c-0.7,7.6,0.8,13.3,4.4,17.2
		c3.6,3.9,9.2,5.8,16.8,5.8h17.8l0.8-9.6h-16.2c-4.6,0-7.5-0.6-8.8-1.8c-1.3-1.2-1.9-3.5-1.7-6.8h27.5l0.8-9.6h-27.6
		c0.4-3.3,1.4-5.5,3.1-6.8c1.6-1.3,4.6-1.9,9.1-1.9H519.2L519.2,259.4z"/>
	<path d="M458.8,249.8h-10.5c-4.6,0-8.3,0.6-11.2,1.7c-2.9,1.1-5.5,2.9-7.7,5.4c-1.9,2.1-3.3,4.4-4.4,7c-1,2.5-1.7,5.3-2,8.4
		c-0.6,7.4,0.8,13.2,4.5,17.4c3.6,4.2,9,6.2,16,6.2H467l5.4-62.8h-12.2L458.8,249.8L458.8,249.8z M450.6,259.8h7.4l-2.3,26.3h-8.4
		c-4.6,0-7.8-1-9.5-2.9c-1.7-2-2.4-5.3-2-9.9c0.4-4.8,1.8-8.2,4-10.3C442.1,260.8,445.6,259.8,450.6,259.8L450.6,259.8z"/>
	<polygon points="419.1,233.1 406.3,233.1 405.3,244.6 418.1,244.6 419.1,233.1 	"/>
	<polygon points="413.7,295.9 417.7,249.8 404.9,249.8 400.9,295.9 413.7,295.9 	"/>
	<path d="M386.2,233.1H374l-1.5,16.7h-8.6l-0.8,9.2h8.6l-1.9,22.5c-0.4,4.6,0.5,8.2,2.7,10.7c2.2,2.5,5.5,3.7,10,3.7h11.1l0.8-9.2
		h-5c-2.9,0-4.9-0.7-6-2c-1-1.3-1.4-3.7-1.1-7.1l1.6-18.6h12.9l0.8-9.2h-12.9L386.2,233.1L386.2,233.1z"/>
	<path d="M336.6,260c3.2,0,5.3,0.5,6.2,1.6c0.9,1.1,1.3,3.3,1,6.7l-2.4,27.6h12.3l2.5-29.2c0.5-6-0.6-10.3-3.4-12.9
		c-2.8-2.6-7.6-4-14.4-4h-46.9l-4,46.1h12.3l3.1-36h14.3l-3.1,36h12.5l3.1-36H336.6L336.6,260z"/>
	<path d="M275.8,254.2c-3-2.9-7.6-4.4-13.9-4.4h-25l-0.8,9.5h20.4c4.1,0,7,0.6,8.5,1.7c1.5,1.1,2.1,3,1.9,5.8l-0.1,1.2h-16.1
		c-6.6,0-11.4,1.1-14.4,3.4c-3.1,2.3-4.8,6-5.3,11.3c-0.4,4.2,0.6,7.5,2.9,9.8c2.3,2.3,5.7,3.5,10.3,3.5H277l2.5-28.9
		C280,261.3,278.8,257.1,275.8,254.2L275.8,254.2z M266.1,277.1l-0.8,9.5H250c-2.7,0-4.4-0.3-5.2-0.9c-0.8-0.7-1.2-1.8-1-3.4
		c0.2-1.9,0.8-3.2,2-4c1.2-0.8,3.2-1.2,6-1.2H266.1L266.1,277.1z"/>
	<path d="M227.2,261.4c0.4-4.3-0.3-7.3-2.1-9c-1.8-1.7-5.1-2.6-9.9-2.6h-20.5l-4,46.1H203l3.2-37.2h4.3c2.3,0,3.7,0.3,4.3,0.9
		c0.6,0.6,0.8,1.8,0.6,3.6l-0.5,5.9h11.6L227.2,261.4L227.2,261.4z"/>
	<path d="M187.7,244.1l0.9-10.9h-20.2c-6,0-11,0.6-15.1,1.7c-4.1,1.2-7.5,3-10.1,5.4c-2.5,2.4-4.5,5.4-5.8,9.2
		c-1.3,3.7-2.3,9.6-3,17.6l-2.5,28.9h13.3l2.2-25.7h37.9l0.9-10.9l-37.9,0c0.5-5.4,2.2-9.2,5.1-11.6c2.8-2.4,7.1-3.6,12.8-3.6H187.7
		L187.7,244.1z"/>
	<path fill="#6AC8EE" d="M71.4,261.8c0.9-0.9,1.9-1.7,2.8-2.5c-2.3-4.4-3.4-9.2-3.4-14.5c0-3.2,0.4-6.2,1.3-9.1
		c-3-1.2-6.2-1.7-9.6-1.7c-7.1,0-13.2,2.5-18.3,7.5c-5,5.1-7.5,11.2-7.5,18.3c0,7.1,2.5,13.2,7.5,18.3c5,5,11.1,7.5,18.2,7.6
		c0-0.5,0-1.1,0-1.6C62.4,275.3,65.4,267.9,71.4,261.8L71.4,261.8z"/>
	<path fill="#6AC8EE" d="M118.8,283.2c0-4.2-0.9-8-2.6-11.5c-4.4,2.4-9.3,3.6-14.8,3.6c-8.7,0-16.1-3.1-22.2-9.2c-1-1-1.9-2-2.7-3
		c-0.7,0.5-1.3,1.1-1.9,1.8c-5,5.1-7.5,11.2-7.5,18.3c0,7.1,2.5,13.2,7.5,18.3c5,5.1,11.1,7.6,18.3,7.6s13.2-2.5,18.3-7.6
		C116.3,296.4,118.8,290.3,118.8,283.2L118.8,283.2z"/>
</g>
</svg>
