<?xml version="1.0" encoding="utf-8"?>
<!-- Generator: Adobe Illustrator 17.1.0, SVG Export Plug-In . SVG Version: 6.00 Build 0)  -->
<!DOCTYPE svg PUBLIC "-//W3C//DTD SVG 1.1//EN" "http://www.w3.org/Graphics/SVG/1.1/DTD/svg11.dtd">
<svg version="1.1" id="Layer_1" xmlns="http://www.w3.org/2000/svg" xmlns:xlink="http://www.w3.org/1999/xlink" x="0px" y="0px"
	 viewBox="0 0 1190.5 841.9" enable-background="new 0 0 1190.5 841.9" xml:space="preserve">
<path fill="#706F6F" d="M507.6,414.8c-18.2-32.1-53.8-17.6-53.8-17.6c25.2-16,51.9-1.5,54.9,3.6c0.1,0.2,2.1,1.9,10.2-11.1
	C520,388.1,513.5,425.2,507.6,414.8z"/>
<path d="M421.2,432.9v-24.5h24.4v3.6h-19.8v7.6H437v3.6h-11.1v9.7H421.2z"/>
<path d="M468.8,412h-17.1v6.4h15.7c2.3,0,3.9,0.4,4.7,1.2c0.8,0.8,1.2,2.3,1.2,4.6v2.9c0,2.2-0.4,3.8-1.3,4.6
	c-0.8,0.8-2.4,1.2-4.7,1.2h-14.9c-2.3,0-3.9-0.4-4.8-1.2c-0.8-0.8-1.2-2.3-1.2-4.6v-0.7l4.2-0.9v3.6h18.5v-6.9h-15.8
	c-2.3,0-3.9-0.4-4.7-1.2c-0.8-0.8-1.2-2.3-1.2-4.6v-2.3c0-2.3,0.4-3.8,1.2-4.6c0.8-0.8,2.4-1.2,4.7-1.2H467c2.2,0,3.8,0.4,4.7,1.2
	c0.9,0.8,1.4,2.2,1.4,4.2v0.6l-4.2,0.9V412z"/>
<path d="M581.3,432.9v-10.7l-12.8-13.8h5.6l9.8,10.6l9.3-10.6h5.4l-12.7,13.8v10.7H581.3z"/>
<path d="M604,413.3c0.2,1.4,0.4,2.9,0.4,4.4v15.2h-4.2v-24.5h3.5l17.9,16c1.1,1,2.1,2.1,2.9,3.4c-0.2-1.5-0.4-3-0.4-4.6v-14.8h4.2
	v24.5h-3.2l-18.3-16.2C605.7,415.6,604.7,414.4,604,413.3z"/>
<path d="M668.9,412.9l0.1,3.4v16.5h-3.8v-24.5h3.8l12.2,15.9l11.2-15.9h4.2v24.5h-4.2v-16.5c0-1.2,0.1-2.3,0.3-3.4
	c-0.5,1.5-1.1,2.7-1.6,3.4l-9.4,12.7h-1.2l-9.8-12.5C669.9,415.5,669.3,414.4,668.9,412.9z"/>
<path d="M707.1,432.9h-4.6v-24.4h4.6V432.9z"/>
<path d="M734,412h-17.1v17.2H734v-5.8l4.6,0.9v2.9c0,2.2-0.4,3.8-1.3,4.6c-0.8,0.8-2.4,1.2-4.7,1.2h-14.4c-2.4,0-3.9-0.4-4.7-1.2
	c-0.8-0.8-1.2-2.3-1.2-4.6v-12.9c0-2.3,0.4-3.8,1.2-4.6c0.8-0.8,2.4-1.2,4.7-1.2h14.4c2.3,0,3.9,0.4,4.7,1.2
	c0.8,0.8,1.3,2.3,1.3,4.6v2.3l-4.6,0.8V412z"/>
<path d="M764.6,412h-17.1v6.4h15.7c2.3,0,3.9,0.4,4.7,1.2c0.8,0.8,1.2,2.3,1.2,4.6v2.9c0,2.2-0.4,3.8-1.3,4.6
	c-0.8,0.8-2.4,1.2-4.7,1.2h-14.9c-2.3,0-3.9-0.4-4.8-1.2c-0.8-0.8-1.2-2.3-1.2-4.6v-0.7l4.2-0.9v3.6H765v-6.9h-15.8
	c-2.3,0-3.9-0.4-4.7-1.2c-0.8-0.8-1.2-2.3-1.2-4.6v-2.3c0-2.3,0.4-3.8,1.2-4.6c0.8-0.8,2.4-1.2,4.7-1.2h13.7c2.2,0,3.8,0.4,4.7,1.2
	c0.9,0.8,1.4,2.2,1.4,4.2v0.6l-4.2,0.9V412z"/>
<path fill="#706F6F" d="M509.1,422.8c21.4-9.5,28.1-27.7,28.1-27.7c1.5,9.8-11.7,26.5-17,28.5c0,0-1.8,1.4,8.8,8.1
	C530.4,432.6,500.5,426.6,509.1,422.8z"/>
<path fill="#C51A1B" d="M504.1,423.9c16.4,32.9,49.6,20.2,49.6,20.2c-25.9,16.7-48.1,0.5-50.7-6.2c0,0-1.8-2.3-10.2,11.1
	C491.7,450.6,498.8,413.2,504.1,423.9z"/>
<path fill="#706F6F" d="M503.1,418.3c-19.3,8.5-25.3,24.9-25.3,24.9c-1.4-8.8,10.6-23.8,15.3-25.6c0,0,1.6-1.3-7.9-7.3
	C484,409.5,510.9,414.9,503.1,418.3z"/>
<g>
	<path d="M564.9,410.3c-2-1.3-5.3-1.9-9.8-1.9h-14.1v16.9h4.6V412h9c3.8,0,6.6,0.6,8.3,1.9c1.8,1.3,2.8,3.5,2.8,6.7
		c0,3.2-0.9,5.5-2.6,6.8c-1.8,1.3-4.6,1.9-8.4,1.9h-9v0h-4.6v3.7H555c10.1,0,15.1-4.1,15.1-12.3
		C570.2,415.9,568.4,412.5,564.9,410.3z"/>
</g>
<g>
	<polygon fill="none" points="638.1,427.1 637.8,427.7 638.1,427.1 	"/>
	<polygon points="648.7,408.4 644.5,408.4 630.4,432.9 635,432.9 646.6,412 653.1,423.6 645,423.6 642.9,427.1 655,427.1 
		658.2,432.9 663.2,432.9 	"/>
</g>
<g>
</g>
<g>
</g>
<g>
</g>
<g>
</g>
<g>
</g>
<g>
</g>
</svg>
