<?xml version="1.0" encoding="utf-8"?>
<!-- Generator: Adobe Illustrator 17.1.0, SVG Export Plug-In . SVG Version: 6.00 Build 0)  -->
<!DOCTYPE svg PUBLIC "-//W3C//DTD SVG 1.1//EN" "http://www.w3.org/Graphics/SVG/1.1/DTD/svg11.dtd">
<svg version="1.1" id="Layer_1" xmlns="http://www.w3.org/2000/svg" xmlns:xlink="http://www.w3.org/1999/xlink" x="0px" y="0px"
	 viewBox="0 0 1984.3 841.9" enable-background="new 0 0 1984.3 841.9" xml:space="preserve">
<polygon fill="#497593" points="561,496.5 561,461.1 614.3,496.5 738.3,496.5 631.9,425.6 644.7,417.7 762.6,496.5 808.4,496.5 
	808.4,355 738.1,355 738.1,390.5 685.2,355 613.4,355 561,390.5 561,354.8 489.8,402.3 489.8,448.8 443,417.5 537.5,354.8 
	419.2,354.8 312.8,425.6 419.2,496.5 "/>
<polygon fill="#FBBA00" points="832,496.5 938.3,425.6 832,354.8 832,354.8 891.2,354.8 997.6,425.6 891.2,496.5 836.1,496.5 "/>
<g>
	<path fill="#497593" d="M1055.2,416.3c-0.1-1.2-0.1-3-1.3-4.8c-2-3.2-5.7-3.7-7.9-3.7c-11.6,0-13.9,10.8-13.9,18.1
		c0,3.2,0.5,9,3.9,12.7c2.4,2.6,5.5,4.1,11.2,4.1c4.9,0,6.6-0.6,7.7-0.9v-10h-9.2v-7.9h19.4v23.7c-3,1-7.8,2.6-17.3,2.6
		c-10.8,0-16.4-2.6-20.2-6.3c-5.3-5.2-6.3-12.7-6.3-17.7c0-16.8,10.5-25.8,24.9-25.8c6.1,0,12.4,1.7,16.2,6c3.2,3.6,3.3,7.4,3.4,9.9
		H1055.2z"/>
	<path fill="#497593" d="M1074.3,401.9h10.2v20.4l15.9-20.6h11.9l-17.4,21.3l18.9,26.2h-12.7l-16.6-24.2v24.2h-10.2V401.9z"/>
	<path fill="#497593" d="M1118.4,401.7h14.7l17.8,37.4v-37.4h9.5v47.5h-14l-18.4-39.4v39.4h-9.6V401.7z"/>
	<path fill="#497593" d="M1207.4,401.7l16.5,47.5h-10.2l-3.4-10.2h-18.8l-3.5,10.2h-9.7l17.1-47.5H1207.4z M1207.6,431.3l-6.6-20.2
		l-7,20.2H1207.6z"/>
	<path fill="#497593" d="M1228.8,401.7h31.8v7.7h-21.6v11.3h20.2v7.7h-20.2v12.8h22.3v7.9h-32.5V401.7z"/>
	<path fill="#497593" d="M1268,401.7h18.2c5.3-0.1,10.6-0.1,14.4,3.2c3,2.6,4.1,6,4.1,9.1c0,8.9-7.6,11-9.9,11.6
		c7.2,0.7,7.7,4.7,8.5,10.9c0.7,5.6,1.1,7.9,1.4,9.2c0.5,2.1,0.9,2.6,1.4,3.4h-11.2c-0.5-2.6-1.9-14.6-2.6-16.5
		c-0.9-2.7-3.4-2.7-5.1-2.7h-8.9v19.2H1268V401.7z M1278,422.5h8.2c1.2,0,3.5,0,5.2-1.3c0.7-0.5,2.6-2.2,2.6-5.5
		c0-3.2-1.6-4.7-2.5-5.3c-1.6-1.1-3.5-1.1-6.7-1.1h-6.8V422.5z"/>
	<path fill="#497593" d="M1333,400.7c5.1,0,12,1.2,16.7,6.4c5.1,5.8,6,13.2,6,17.9c0,6.9-2.1,14.2-6,18.6
		c-5.3,5.9-12.9,6.8-16.9,6.8c-6.2,0-12.5-2-16.8-6.5c-5.2-5.5-5.8-13.4-5.8-17.7C1310.2,413.6,1316,400.7,1333,400.7z
		 M1324.4,439.1c1.4,2,3.9,3.8,8.6,3.8c4.1,0,7-1.4,8.9-4.4c1.6-2.4,3.2-6,3.2-13.6c0-2.3-0.2-5.6-1.2-8.5c-2-5.8-6-8.4-10.8-8.4
		c-3.8,0-6.8,1.6-8.7,4c-2.7,3.3-3.5,8.4-3.5,13.8C1320.9,430.4,1321.6,435.4,1324.4,439.1z"/>
	<path fill="#497593" d="M1369.9,434c0,2.2-0.1,9,8.6,9c5.5,0,9-2.6,9-6.6c0-4.2-3-4.9-9-6.4c-11.3-2.8-17.5-6.2-17.5-14.4
		c0-7.8,5.6-14.7,18.8-14.7c4.9,0,10.8,1.1,14.3,5.6c2.7,3.4,2.7,7.2,2.7,8.8h-9.8c-0.1-1.6-0.7-7.2-7.7-7.2c-4.7,0-7.8,2.6-7.8,6.4
		c0,4.4,3.5,5.2,10.3,6.9c8.2,2,16.3,4.2,16.3,13.5c0,8.5-7.1,15.4-20.2,15.4c-18.2,0-18.3-11.7-18.4-16.3H1369.9z"/>
	<path fill="#497593" d="M1405.3,401.9h14.6c6.8,0,12.5,0.5,16.5,5.2c2.5,3,2.9,6.4,2.9,8.9c0,5.5-2.3,10.2-6,12.6
		c-3.5,2.2-8.3,2.2-10.8,2.2h-6.9v18.5h-10.3V401.9z M1415.4,423.2h4.1c3.3,0,9.4,0,9.4-7.2c0-6.4-5.4-6.4-8.3-6.4h-5.1V423.2z"/>
	<path fill="#497593" d="M1464.2,401.7l16.5,47.5h-10.2L1467,439h-18.8l-3.5,10.2h-9.7l17.1-47.5H1464.2z M1464.4,431.3l-6.6-20.2
		l-7,20.2H1464.4z"/>
	<path fill="#497593" d="M1510.6,417.2c-0.2-1.6-0.8-8.3-7.7-8.3c-7.6,0-10.7,7.9-10.7,17.7c0,2.8,0,16.3,9.9,16.3
		c4.3,0,8.3-2.7,8.5-9h10.7c-0.2,2.8-0.5,7.2-4.3,11.2c-4.2,4.3-9.5,5.3-13.9,5.3c-16.3,0-21.7-12.1-21.7-23.8c0-15,8.4-25,21.7-25
		c10.4,0,17.7,6.3,17.7,15.8H1510.6z"/>
	<path fill="#497593" d="M1528,401.7h31.8v7.7h-21.6v11.3h20.2v7.7h-20.2v12.8h22.3v7.9H1528V401.7z"/>
</g>
<rect x="171" y="213" fill="none" width="1537" height="425.2"/>
<g>
</g>
<g>
</g>
<g>
</g>
<g>
</g>
<g>
</g>
<g>
</g>
<g>
</g>
<g>
</g>
<g>
</g>
<g>
</g>
<g>
</g>
<g>
</g>
</svg>
