<?xml version="1.0" encoding="utf-8"?>
<!-- Generator: Adobe Illustrator 17.1.0, SVG Export Plug-In . SVG Version: 6.00 Build 0)  -->
<!DOCTYPE svg PUBLIC "-//W3C//DTD SVG 1.1//EN" "http://www.w3.org/Graphics/SVG/1.1/DTD/svg11.dtd">
<svg version="1.1" id="Layer_1" xmlns="http://www.w3.org/2000/svg" xmlns:xlink="http://www.w3.org/1999/xlink" x="0px" y="0px"
	 viewBox="0 0 566.9 566.9" enable-background="new 0 0 566.9 566.9" xml:space="preserve">
<g>
	<path fill="#002C57" d="M274.8,299.8c-20.8,0-27.8,0-38.1-2.9c-3.6-1.3-10-3-14.6-10.4c-8.6-14.7-8.6-42.2-8.6-55.5
		c0-13.2,0-36.7,8.6-51.2c4.6-7.5,11-9.3,14.6-10.6c10.3-2.7,17.3-2.7,38.1-2.7c20.3,0,27.3,0,37.8,2.7c3.6,1.3,9.8,3,14.1,10.6
		c9.3,14.5,9.3,39.5,9.3,52.8c0,12.9,0,39.2-9.3,53.9c-4.3,7.3-10.5,9.1-14.1,10.4C302.1,299.8,295.1,299.8,274.8,299.8
		 M274.8,240.5c17.5,0,17.2,0,17.2,5.7v36.1h24.6v-99.9H292v30c0,5.9,0.3,5.9-17.2,5.9c-17.8,0-17.7,0-17.7-5.9v-30h-24.2v99.9h24.2
		v-36.1C257.1,240.5,257,240.5,274.8,240.5 M274.7,325.4c17.8,0.1,50.1,1.7,68.5-18.8c8.9-10,11.2-16.5,15.7-30.6
		c3.9-12.3,3.4-19.7,4.6-33.3c0.4-10,0.9-22-2.5-39.2c-3.7-19.1-6.6-29.5-15.3-38.3c11.6-5.9,13.2-23.3,11.6-35.1
		c0,0-8.9-4.4-14.8-6.6c-6.5-2.4-16.9-5-16.9-5c0,9.3,1.1,23.4-5.9,28.1c-7.1,4.1-24.6,0-27.4-8.9c-0.9-2.7-1.8-12,0-23.6
		c-2.5-0.5-9.4-2.1-17.8-2.1c-9.1,0-15,1.6-17.5,2.1c1.2,11.6,0.9,20.9,0,23.6c-3,8.9-20.3,13.1-27.3,8.9
		c-7.7-4.7-5.9-18.8-5.9-28.1c0,0-11.3,2.8-18.2,5.4c-5.6,2.1-14.1,6.3-14.1,6.3c-1.8,11.8,0,29.2,11.6,35.1
		c-8.7,8.8-11.6,19.1-15.3,38.3c-3,17.2-2.3,29.2-2.1,39.2c0.9,13.6,0.9,20.9,4.1,33.3c4.6,14.1,7.4,20.8,16.7,30.6
		C225.6,326.5,256.9,325.4,274.7,325.4"/>
	<path fill="#002C57" d="M250,410.2c-2.8,0.4-6.1,3.6-7.5,7.3v-6.2h-8v35.3h8.5v-16.8c0-3.8,0.2-6.7,2-9c1.3-1.7,3.7-3.4,6-3.3
		c2.3,0.1,3.7,0.5,3.7,0.5v-7.6C254.7,410.4,252.4,409.9,250,410.2"/>
	<path fill="#002C57" d="M198.9,351.7h-8.5v20.7c0,5.9-2.3,8.8-7.1,8.8c-1.9,0-3.2-0.7-4.2-1.7c-1.2-1.2-1.8-3.3-1.8-6.3v-21.5h-8.5
		V374c0,4.9,1.1,8.4,3.4,10.7c2.2,2.2,4.9,3.3,9.3,3.3c3.1,0,6.9-2.1,9.1-4.9v4h8.4V351.7z"/>
	<path fill="#002C57" d="M331.6,361.2c0-2.6-0.9-4.9-2.6-6.6c-2.4-2.5-5.9-3.9-11-3.9c-5,0-13.5,1.1-14.5,10.7h8.5
		c-0.1-4.5,5.6-4.1,5.6-4.1c1.8,0,3.5,0.6,4.7,1.5c0.7,0.6,1.2,1.5,1.3,3c0.1,2.4-1,3.5-9,4.3c-6.2,0.6-13.5,2.3-13.5,11.2
		c0,2.8,1,5.3,2.8,7.1c2.2,2.2,5.5,3.4,9.4,3.4c5.1,0,8-1.3,10.6-4.2l0.4,3.3h8.2v-1.3c-1.1-0.8-0.8-4.3-0.8-4.3V361.2z
		 M309.5,377.1c-0.2-2.7,1.3-4.6,5.3-5.3c1-0.2,2.1-0.3,3.2-0.5c1.6-0.2,3.5-0.7,5.1-1.8v5.4c0,4.4-4.3,6-7.5,6
		C312.4,380.9,309.7,379.7,309.5,377.1"/>
</g>
<polygon fill="#002C57" points="154.6,339.9 154.6,357.9 135.2,357.9 135.2,339.9 126,339.9 126,387 135.2,387 135.2,366.1 
	154.6,366.1 154.6,387 163.8,387 163.8,339.9 "/>
<g>
	<path fill="#002C57" d="M217.8,381.1c-3.6,0.1-6.5-1.5-7-4.7h-8.6c0.4,8.9,9.3,11.6,15.5,11.5c6.2-0.1,9-1.6,11.7-4.4
		c1.9-1.9,2.9-4.4,2.9-7.3c0-6.9-5.2-9.1-11.1-10.5l-1.9-0.4c-4.6-0.9-8.4-1.8-8.2-4.5c0.2-2.7,3.1-3.2,5.4-3.3
		c2.3-0.1,4.1,0.3,5.5,3h8.8c-0.9-6.8-7.1-9.8-13.8-9.7c-6.5,0.1-14.3,2.7-14.3,10.3c0,7.2,4.9,9.3,10.9,10.6
		c0.8,0.2,1.6,0.4,2.4,0.5c4.4,0.9,7.7,1.8,7.8,4.7C223.9,379.9,221.5,381,217.8,381.1"/>
</g>
<polygon fill="#002C57" points="303.3,351.7 294.4,351.7 286.9,378.9 279.1,351.7 269.9,351.7 282.1,387 291.2,387 "/>
<g>
	<path fill="#002C57" d="M351.8,350.6c-2.8,0.4-6.1,3.6-7.5,7.3v-6.2h-8V387h8.5v-16.8c0-3.8,0.2-6.7,2-9c1.3-1.7,3.7-3.4,6-3.3
		c2.3,0.1,3.7,0.5,3.7,0.5v-7.6C356.5,350.7,354.3,350.2,351.8,350.6"/>
	<path fill="#002C57" d="M389.8,362.9c0-3.7-1.1-6.6-3.2-8.7c-2.2-2.2-5.3-3.4-9.3-3.4c-4.2,0-7.3,2.2-9.8,6.2v-5.3h-8V387h8.5
		v-20.8c0-2.5,0.5-4.9,2.1-6.5c1.4-1.4,3.4-2.2,5.8-2.2c3.9,0.1,5.2,2.3,5.4,7.4V387h8.5V362.9z"/>
	<path fill="#002C57" d="M423.1,361.3c0-2.6-0.9-4.9-2.6-6.6c-2.4-2.5-6.5-3.9-11.5-3.9c-5,0-13.5,1.1-14.5,10.7h8.5
		c-0.1-4.5,5.6-4.1,5.6-4.1c1.8,0,4,0.6,5.2,1.5c0.7,0.6,1.2,1.5,1.3,3c0.1,2.4-1.1,3.5-9,4.3c-6.2,0.6-13.5,2.3-13.5,11.2
		c0,2.8,1,5.3,2.8,7.1c2.2,2.2,5.5,3.4,9.4,3.4c5.1,0,8-1.3,10.6-4.2l0.4,3.3h8.2v-1.3c-1.1-0.8-0.8-4.3-0.8-4.3V361.3z M401,377.1
		c-0.2-2.7,1.3-4.6,5.3-5.2c1-0.2,2.1-0.3,3.2-0.5c1.6-0.2,3.5-0.7,5.1-1.8v5.4c0,4.4-4.3,6-7.5,6C404,380.9,401.3,379.8,401,377.1"
		/>
	<path fill="#002C57" d="M268.2,396.6l0-44.8l-8.1,0v4.4c-2.2-3-5.2-5.4-9.7-5.4c-10.1,0-16,7.2-16,18.8c0,5.9,1.9,11.2,5.1,14.4
		c2.6,2.6,5.6,4,9.7,4c4.6,0,8-2.1,10.5-5.3v13.9L268.2,396.6z M251.5,381.1c-2.4,0-3.9-0.8-5.5-2.3c-2-2-3.1-5.4-3.1-9.4
		c0-3.8,1.2-7.2,3.3-9.4c1.5-1.5,3-2.3,5.2-2.3c5,0,7.6,3.2,8.4,9c0.1,0.9,0.2,4.1,0.1,4.7C259.4,377.6,256.7,381.1,251.5,381.1"/>
	<path fill="#002C57" d="M320.5,411.3H312V432c0,5.9-2.3,8.8-7.1,8.8c-1.9,0-3.2-0.7-4.2-1.7c-1.2-1.2-1.8-3.3-1.8-6.3v-21.5h-8.5
		v22.2c0,4.9,1.1,8.4,3.4,10.7c2.2,2.2,4.9,3.3,9.3,3.3c3.1,0,6.9-2.1,9.1-4.9v4h8.4V411.3z"/>
	<path fill="#002C57" d="M263.4,428.6c0-5.5,1.8-11.4,7.7-11.4c6,0,7.8,5.9,7.8,11.4c0,5.4-1.8,11.5-7.8,11.5
		C265.2,440.1,263.4,434,263.4,428.6 M254.6,428.6c0,10.8,6.5,18.5,16.5,18.5c10.1,0,16.5-7.7,16.5-18.5c0-10.8-6.5-18.4-16.5-18.4
		C261.1,410.2,254.6,417.8,254.6,428.6"/>
	<path fill="#002C57" d="M325.2,456l0-44.8l8.1,0v4.4c2.2-3,5.2-5.4,9.7-5.4c10.1,0,16,7.2,16,18.8c0,5.9-1.9,11.2-5.1,14.4
		c-2.6,2.6-5.6,4-9.7,4c-4.6,0-8-2.1-10.5-5.3V456L325.2,456z M342,440.4c2.4,0,3.9-0.8,5.5-2.3c2-2,3.1-5.4,3.1-9.4
		c0-3.8-1.2-7.2-3.3-9.4c-1.5-1.5-3-2.3-5.2-2.3c-5,0-7.6,3.2-8.4,9c-0.1,0.9-0.2,4.1-0.1,4.7C334.1,437,336.8,440.4,342,440.4"/>
	<path fill="#002C57" d="M223.6,446.8h6v-24.7h-17.1v7.3h8.5c-0.5,6.4-4.1,9.9-10.2,9.9c-8.5,0-11.7-7.8-11.7-15.4
		c0-8.1,3.2-15.8,11.7-15.8c4.4,0,7.8,1.9,8.9,7h9c-1-10.5-9.2-15.5-17.9-15.5c-13.3,0-21.1,10.7-21.1,24.4c0,13.3,7.8,24,21.1,24
		c4.1,0,8.5-1.7,11.8-6.3L223.6,446.8z"/>
</g>
<g>
</g>
<g>
</g>
<g>
</g>
<g>
</g>
<g>
</g>
<g>
</g>
</svg>
