<?xml version="1.0" encoding="utf-8"?>
<!-- Generator: Adobe Illustrator 17.1.0, SVG Export Plug-In . SVG Version: 6.00 Build 0)  -->
<!DOCTYPE svg PUBLIC "-//W3C//DTD SVG 1.1//EN" "http://www.w3.org/Graphics/SVG/1.1/DTD/svg11.dtd">
<svg version="1.1" xmlns="http://www.w3.org/2000/svg" xmlns:xlink="http://www.w3.org/1999/xlink" x="0px" y="0px"
	 viewBox="0 0 842 595" enable-background="new 0 0 842 595" xml:space="preserve">
<g id="Layer_2">
	<path stroke="#000000" d="M500.5,395"/>
	<path stroke="#000000" d="M440.8,291.2"/>
	<path stroke="#000000" d="M423.7,395.3"/>
	<path stroke="#000000" d="M483.3,291.8"/>
	<path stroke="#000000" d="M462.5,293"/>
	<path stroke="#000000" d="M462.2,394.5"/>
	<path stroke="#000000" d="M462.2,294.2"/>
	<path stroke="#000000" d="M342.5,374c0.5,6,9,9.3,9,9.3H388c11,2.8,1.5,11.7,1.5,11.7h-44c-13-6-16-18.7-16-18.7V331
		c8.5-25.5,32-26.2,32-26.2c28,3.3,31.5,26.7,31.5,26.7V353c-1.5,4.7-5,4-5,4h-45.5V374z M342.5,344h37c0,0,5.5-25-18-25
		C361.5,319,340,318,342.5,344z"/>
	<path stroke="#000000" d="M466.8,337.8l-17.3-29.3c0,0-12.7-10-11.5,6.5l20.8,35.8l-21,36c0,0-1.7,14,11.7,6.3l17-29.7l16.7,29
		c0,0,12.7,9.3,11.7-7l-20.7-35.3l21.3-35.7c0,0,0.3-16.3-11.7-5.7L466.8,337.8z"/>
	<path stroke="#000000" d="M582.2,305.8c18,3.3,20.3,21.7,20.3,21.7v62.3c-2,5.7-4.3,5.2-4.3,5.2h-45.7c-14-3.5-15-25.8-15-25.8
		c1.7-22.7,15-25,15-25l36.4-0.3v-15c-1.3-8-9.1-9.7-9.1-9.7l-29.7-0.3c-14-6.3,0-13,0-13H582.2z M555.5,357.8c-10.3,12.9,0,24,0,24
		h33.4l0-24.1L555.5,357.8z"/>
	<path stroke="#000000" d="M669.8,390.5c0,0-6.3,10.9-13.7,0V310c0,0,0.5-3.6,4.8-4.6h32.9c0,0,17.2,2.6,20.6,21v64.1
		c0,0-6.2,11.2-13.4,0v-61.1c0,0-0.9-7.2-10.1-10.4h-21.1V390.5z"/>
	<path fill="none" stroke="#000000" d="M714.5,389.8"/>
	<path fill="none" stroke="#000000" d="M713.9,324.5"/>
	<path stroke="#000000" d="M776.4,379.8c-2.7-0.8-11.4,0.6-8.1,9c1.6,4.1,10.9,5.9,21.3,6.2c0,0,14.9,1.8,23.6-6.2
		c0,0,5.8-3.8,6.5-15.6c0,0,0.7-7.4-5.4-13.6l-32-28c0,0-4.6-5.9,3.9-10.8c0,0,5.4-4,16.4-0.5c0,0,6.4,3.5,10.9,1.4
		c0,0,6.3-4,1.4-10c0,0-4.4-4-13.5-5.5c0,0-13.9-3.5-25.2,4.6c0,0-8.5,5.4-8.8,17.2c0,0-1.8,9.4,10.2,18.4c0,0,26.1,21.8,27.2,23.5
		c0.8,1.3,3.5,8.2-5.2,11.6c0,0-5.4,1.4-8.2,1c0,0-4.8-0.1-8.2-1C780.7,380.9,779,380.5,776.4,379.8z"/>
</g>
<g id="Layer_4">
	<path fill="#E97335" stroke="#E97335" stroke-width="0.9921" d="M22.5,373.5l-8,19c0,0,32.4,9.7,49,3c21-8.5,37-25.5,42-97
		c0,0,4-74,21-93c0,0,20-23,38,19c0,0,7,10,12,47c0,0,11,68,22,93c0,0,10,34,36,36c0,0,32,3,38-28.5c5.5-28.9,4.5-80.5,4-90
		c-0.4-7.6,1.5-46,10-62.5c0,0,15.5-24.5,35-24.5c0,0,16-1,29,4.5l5-20c0,0-36.5-14.5-69,8c0,0-26,19.5-29,60s-3,97-3,97s0,25-7,31
		c0,0-6,15-25-6c0,0-13-21-18-54c0,0-11-67-14-77c0,0-9-52-45-58c0,0-41-5.5-51,47s-10,94-12.5,108c0,0-2,29.5-22.5,40.5
		C59.5,376,50.5,383.5,22.5,373.5z"/>
</g>
</svg>
