<?xml version="1.0" encoding="utf-8"?>
<!-- Generator: Adobe Illustrator 17.1.0, SVG Export Plug-In . SVG Version: 6.00 Build 0)  -->
<!DOCTYPE svg PUBLIC "-//W3C//DTD SVG 1.1//EN" "http://www.w3.org/Graphics/SVG/1.1/DTD/svg11.dtd">
<svg version="1.1" id="LOGOTYP_ENG" xmlns="http://www.w3.org/2000/svg" xmlns:xlink="http://www.w3.org/1999/xlink" x="0px"
	 y="0px" viewBox="0 0 595.3 841.9" enable-background="new 0 0 595.3 841.9" xml:space="preserve">
<g>
	<path fill="#0075BF" d="M221.8,393.2c0-0.9-0.5-1.4-1.4-1.4h-2.2v-3.2h15.1c5.9,0,9.4,1.8,9.4,6.8s-3.5,6.8-10.1,6.8h-4v5.7
		c0,0.9,0.5,1.4,1.4,1.4h2.4v3.2h-14.2v-3.2h2.2c0.9,0,1.4-0.5,1.4-1.4V393.2L221.8,393.2z M228.5,399h3.1c2.5,0,4.2-1.4,4.2-3.6
		c0-2.2-1.6-3.6-3.6-3.6h-3.7V399L228.5,399z"/>
	<path fill="#0075BF" d="M269.3,400.6c0,7.8-5.1,12.6-13,12.6c-7.9,0-13-4.8-13-12.6c0-7.8,5.1-12.7,13-12.7
		C264.2,387.9,269.3,392.8,269.3,400.6L269.3,400.6z M251,400.6c0,6.3,1.7,9.3,5.2,9.3c3.6,0,5.2-3,5.2-9.3c0-6.3-1.7-9.3-5.2-9.3
		C252.7,391.3,251,394.3,251,400.6L251,400.6z"/>
	<path fill="#0075BF" d="M272.3,393.2c0-0.9-0.5-1.4-1.4-1.4h-2.2v-3.2h16.6c5,0,8,2,8,5.8c0,3.4-2.3,5-5.4,5.4v0.1
		c2.7,0.8,4.2,1.6,4.2,4.6v3.8c0,0.7,0.3,1.2,1.2,1.2c0.9,0,1.2-1.1,1.2-2.2v-1.4h2.4v1.2c0,3.5-1.2,6.1-5.9,6.1
		c-3.4,0-5.7-1.7-5.7-5.9v-3c0-2.2-0.4-2.7-3.3-2.7h-2.9v6.2c0,0.9,0.5,1.4,1.4,1.4h2.2v3.2h-14v-3.2h2.2c0.9,0,1.4-0.5,1.4-1.4
		V393.2L272.3,393.2z M279.1,398.5h3.5c2.7,0,4-0.6,4-3.5c0-2.7-1.5-3.3-4.9-3.3h-2.6V398.5L279.1,398.5z"/>
	<path fill="#0075BF" d="M295,397.8v-9.1h23.9v9.1h-3.3c0-3.7-1.1-6-5.2-6v16.1c0,0.9,0.5,1.4,1.4,1.4h2.2v3.2h-13.9v-3.2h2.2
		c0.9,0,1.4-0.5,1.4-1.4v-16.1c-4.1,0-5.2,2.3-5.2,6H295L295,397.8z"/>
	<path fill="#0075BF" d="M353.5,400.6c0,7.8-5.1,12.6-13,12.6c-7.9,0-13-4.8-13-12.6c0-7.8,5.1-12.7,13-12.7
		C348.4,387.9,353.5,392.8,353.5,400.6L353.5,400.6z M335.2,400.6c0,6.3,1.7,9.3,5.2,9.3c3.6,0,5.2-3,5.2-9.3c0-6.3-1.7-9.3-5.2-9.3
		C336.9,391.3,335.2,394.3,335.2,400.6L335.2,400.6z"/>
	<path fill="#0075BF" d="M353.5,412.5v-3.2h2.2c0.9,0,1.4-0.5,1.4-1.4v-14.6c0-0.9-0.5-1.4-1.4-1.4h-2.2v-3.2h23.9v9.1h-3.3
		c0-5.2-2-6-6.6-6h-3.6v6.9h1.1c2,0,2.8-0.9,2.8-2.4v-1.4h3v10.9h-3v-1.4c0-1.5-0.8-2.4-2.8-2.4h-1.1v6c0,0.9,0.5,1.4,1.4,1.4h2.2
		v3.2H353.5L353.5,412.5z"/>
	<g>
		<g>
			<path fill="#0075BF" d="M190.5,438.9h-1.7c-0.9,0-1.4,0.5-1.4,1.4v8.3h-3.1l-0.8-1.8c-2.1,1.6-4.8,2.2-7.1,2.2
				c-7.5,0-12.7-4.2-12.7-12.3c0-8.1,5.1-13,12.7-13c2.1,0,4.7,0.7,6.5,2.4l0.7-2h3.2v9.8h-3.3c-0.1-3.6-2.2-6.8-5.9-6.8
				c-4.2,0-6.2,3.1-6.2,9.3c0,6.2,2,9.2,6.2,9.2c1.4,0,3-0.5,3-2.2v-3.1c0-0.9-0.5-1.4-1.4-1.4h-1.9v-3.2h13.1V438.9z"/>
			<path fill="#0075BF" d="M217.3,436.4c0,7.8-5.1,12.6-13.1,12.6c-7.9,0-13.1-4.8-13.1-12.6c0-7.8,5.1-12.7,13.1-12.7
				C212.1,423.7,217.3,428.6,217.3,436.4z M198.9,436.4c0,6.3,1.7,9.3,5.3,9.3c3.6,0,5.3-3,5.3-9.3c0-6.3-1.7-9.3-5.3-9.3
				C200.6,427,198.9,430.1,198.9,436.4z"/>
			<path fill="#0075BF" d="M217.5,433.6v-9.1h23.9v9.1H238c0-3.7-1.1-6-5.2-6v16.1c0,0.9,0.5,1.4,1.4,1.4h2.2v3.2h-14v-3.2h2.2
				c0.9,0,1.4-0.5,1.4-1.4v-16.1c-4.1,0-5.2,2.3-5.2,6H217.5z"/>
			<path fill="#0075BF" d="M260.4,434.3v-5.7c0-0.7-0.5-1.1-1.4-1.1h-1.5v-3.2h13.3v3.2h-2.2c-0.9,0-1.4,0.5-1.4,1.4v14.8
				c0,0.9,0.5,1.3,1.4,1.3h2.2v3.2h-13.2v-3.2h1.5c0.9,0,1.4-0.2,1.4-1.2v-6.4h-7.9v6.4c0,0.9,0.5,1.3,1.4,1.3h1.5v3.2h-13.2v-3.2
				h2.2c0.9,0,1.4-0.5,1.4-1.4v-15.1c0-0.6-0.5-1-1.4-1h-2.2v-3.2h13.3v3.2h-1.5c-0.9,0-1.4,0.3-1.4,1.6v5.2H260.4z"/>
			<path fill="#0075BF" d="M274.9,429c0-0.9-0.5-1.4-1.4-1.4h-2.2v-3.2h23.9v9.1h-3.3c0-5.2-2-6-6.6-6h-3.6v6.9h1.1
				c2.1,0,2.8-0.8,2.8-3.1v-0.8h3v10.9h-3v-0.9c0-1.3-0.5-3-1.8-3h-2.2v7.5h4.4c3.8,0,5.8-0.8,5.8-6.6h3.3v9.8h-23.9v-3.2h2.2
				c0.9,0,1.4-0.5,1.4-1.4V429z"/>
			<path fill="#0075BF" d="M317.7,440.9L317.7,440.9l0.1-11.8c0-0.9-0.5-1.4-1.4-1.4h-2.2v-3.2h11.1v3.2h-2.2
				c-0.9,0-1.4,0.5-1.4,1.4v19.3h-7.3l-10-17.7h-0.1v13.1c0,0.9,0.5,1.4,1.4,1.4h2.2v3.2h-11.1v-3.2h2.2c0.9,0,1.4-0.5,1.4-1.4V429
				c0-0.9-0.5-1.4-1.4-1.4h-2.2v-3.2h11.6L317.7,440.9z"/>
			<path fill="#0075BF" d="M329.1,429c0-0.9-0.5-1.4-1.4-1.4h-2.1v-3.2h15.5c5.2,0,7.6,2.3,7.6,5.6c0,3.2-2.2,5-5.1,5.6v0.1
				c3.1,0.9,6.3,1.8,6.3,6.2c0,4.6-2.7,6.4-9.7,6.4h-14.5v-3.2h2c0.9,0,1.4-0.5,1.4-1.4V429z M335.9,434.3h2c2.4,0,4.2-0.8,4.2-3.4
				c0-2.6-1.7-3.3-4.2-3.3h-2V434.3z M335.9,445.1h2.4c2.6,0,4.6-0.7,4.6-3.8c0-3.1-2-3.8-4.6-3.8h-2.4V445.1z"/>
			<path fill="#0075BF" d="M349.5,424.4h14v3.2h-2.2c-0.9,0-1.4,0.5-1.4,1.4v12.7c0,2.3,1.3,3.9,4.2,3.9c4.2,0,4.9-1.8,4.9-6.3V429
				c0-0.9-0.5-1.4-1.4-1.4h-2.1v-3.2h11v3.2h-2.1c-0.9,0-1.4,0.5-1.4,1.4v11.6c0,5.3-2.8,8.4-9.5,8.4c-6.3,0-10.2-2-10.2-8.1V429
				c0-0.9-0.5-1.4-1.4-1.4h-2.2V424.4z"/>
			<path fill="#0075BF" d="M380.4,429c0-0.9-0.5-1.4-1.4-1.4h-2.2v-3.2h16.6c5,0,8,2,8,5.8c0,3.4-2.3,5-5.4,5.4v0.1
				c2.7,0.8,4.2,1.6,4.2,4.6v3.8c0,0.7,0.3,1.2,1.2,1.2c0.9,0,1.2-1.1,1.2-2.2v-1.4h2.4v1.2c0,3.5-1.2,6.2-5.9,6.2
				c-3.4,0-5.7-1.7-5.7-5.9v-3c0-2.2-0.4-2.7-3.3-2.7h-3v6.2c0,0.9,0.5,1.4,1.4,1.4h2.2v3.2h-14v-3.2h2.2c0.9,0,1.4-0.5,1.4-1.4V429
				z M387.2,434.3h3.5c2.7,0,4-0.6,4-3.5c0-2.7-1.5-3.3-4.9-3.3h-2.6V434.3z"/>
			<path fill="#0075BF" d="M431.6,438.9H430c-0.9,0-1.4,0.5-1.4,1.4v8.3h-3.1l-0.8-1.8c-2.1,1.6-4.8,2.2-7.1,2.2
				c-7.5,0-12.7-4.2-12.7-12.3c0-8.1,5.1-13,12.7-13c2.1,0,4.7,0.7,6.5,2.4l0.7-2h3.2v9.8h-3.3c-0.1-3.6-2.2-6.8-5.9-6.8
				c-4.2,0-6.2,3.1-6.2,9.3c0,6.2,2,9.2,6.2,9.2c1.4,0,3-0.5,3-2.2v-3.1c0-0.9-0.5-1.4-1.4-1.4h-1.9v-3.2h13.1V438.9z"/>
		</g>
	</g>
</g>
<g>
	<path fill="#0075BF" d="M298.4,311.6c0.2,0,0.2-0.4,0-0.4c-0.3,0-2.5,0-2.9,0c-0.3,0-0.3,0.4,0,0.4"/>
	<path fill="#0075BF" d="M310.1,323.8c-2.9-0.5-4.8-0.6-4.8-0.6l0.2,5.3c4.8,0.4,10.2,1.4,12.6,5.8c0.9,2.3,0.8,4.4-0.4,6.7l9.4,3
		l8.3-6.3C335,337.1,326.3,327.3,310.1,323.8L310.1,323.8z"/>
	<path fill="#0075BF" d="M305.5,330l0.1,2.5c5.7-0.9,12,4.3,12,4.3C317.4,335.6,315.3,330.6,305.5,330L305.5,330z"/>
	<path fill="#0075BF" d="M266.6,347.8c0,0-1.2,0.8-0.1,2.9l22.1-13l0.1-2.8L266.6,347.8L266.6,347.8z"/>
	<path fill="#0075BF" d="M327.4,345.7l-10.7-3.3c0,0.2,0,3.1,0,3.1l11,3.3l7.4-5.6l-0.1-3.4L327.4,345.7L327.4,345.7z"/>
	<path fill="#0075BF" d="M260.6,352.4c0.6,3.4,1.7,5.7,3.2,7.7c7.9,10.4,19.1,14.8,32.4,14.6l14.9-11c1.6-1.2,4.3-3.2,6.1-2.5l2.4,1
		l4.6-3.2l0-3.8l-4.5,3.1c-4-2-6.7,0.2-6.7,0.2L295.7,371C281.6,371.1,266.7,364.5,260.6,352.4L260.6,352.4z"/>
	<path fill="#0075BF" d="M300.3,318.1l1.2-2.1v-0.8c0,0-12.3,0-12.7,0c-0.4,0-0.4-0.8,0-0.8c0.5,0,1.7,0,1.7,0c0,0,0-1.2,0-1.6
		c0-0.4,1-0.4,1,0c0,0.4,0,1.6,0,1.6s3.1,0,3.1,0c0,0,0-0.4,0-1.6c0-0.4,1-0.4,1,0c0,0.5,0,1.6,0,1.6c0,0,3.3,0,3.3,0
		c0,0,0-1.6,0-1.6c0-0.4,0.9-0.4,0.9,0c0,0,0,1.6,0,1.6c0,0,1.8,0,1.8,0c0,0,0-1.1,0-1.6c0-0.4,0.9-0.4,0.9,0v3.3l-1.6,2.8l0.3,37.9
		l3.9-2.7l-0.8-35.2l1.6-2.9v-0.5c0.9-0.2,0.7-1.5,0-1.5v-2.4h-4.4c-0.5,0-0.5-0.5-0.3-0.9c0.4-0.2,0.5-0.9-0.2-0.9l0-4.6
		c-0.1-0.8,0.8,0,0.7-0.9c-0.1-0.2-0.4-0.3-0.6-0.5c-0.7-1.2-1.8-2.4-3.2-2.9c-0.1-0.2,0-0.8-0.1-0.9c-0.1-0.1-0.3-0.1-0.4-0.1h0.1
		c-0.2,0-0.3,0-0.4,0.1c-0.2,0.1,0,0.7-0.1,0.9c-1.4,0.5-2.5,1.7-3.2,2.9c-0.2,0.2-0.5,0.3-0.6,0.5c-0.2,0.9,0.8,0,0.7,0.9l0,4.6
		c-0.7,0-0.6,0.6-0.2,0.9c0.2,0.4,0.2,0.9-0.3,0.9h-4.6v2.4c-0.7,0.1-0.9,1.4,0,1.5c0,0,0,0.5,0,0.5c0,0,0.9,2,0.9,2l2.2,0
		c0,0-0.4-1-0.6-1.4c-0.1-0.3,0.4-0.7,0.6-0.1c0.2,0.6,0.7,1.5,0.7,1.5h0.8c0,0-0.4-1-0.6-1.4c-0.1-0.3,0.4-0.7,0.6-0.1
		c0.2,0.6,0.7,1.5,0.7,1.5h0.8c0,0-0.4-1-0.6-1.4c-0.1-0.3,0.4-0.7,0.6-0.1c0.2,0.6,0.7,1.5,0.7,1.5h0.8c0,0-0.4-1-0.6-1.4
		c-0.1-0.3,0.4-0.7,0.6-0.1c0.2,0.6,0.7,1.5,0.7,1.5h0.8c0,0-0.4-1-0.6-1.4c-0.1-0.3,0.4-0.7,0.6-0.1c0.2,0.6,0.7,1.5,0.7,1.5l0,0
		H300.3L300.3,318.1z M295,309.6v-3.1c0-0.5,0.7-0.6,0.7,0c0,0.1,0,3,0,3.1C295.6,310.1,295,310.1,295,309.6L295,309.6z
		 M298.9,309.6v-3.1c0-0.5,0.7-0.6,0.7,0c0,0.1,0,3,0,3.1C299.5,310.1,298.9,310.1,298.9,309.6L298.9,309.6z M296.9,309.6v-3.1
		c0-0.5,0.7-0.6,0.7,0c0,0.1,0,3,0,3.1C297.6,310.1,296.9,310.1,296.9,309.6L296.9,309.6z"/>
	<path fill="#0075BF" d="M299.7,319l-0.2,39.5l-10.4-5.1l-1.5,0.7l12,6l6.6-4.8l1.6,0.1l-1.9-1.7l-0.1-7l18.3,7.4l-4.5,3
		c-3.5-1.3-5.6-0.7-8.1,1l-16,11.3c-9.3,0.4-24.1-4.1-31-13.3c-4-4.9-6.4-11.1-3-17.5c4.9-8.9,13.9-12.3,23.4-14.6
		c2.3-0.5,4.3-0.7,4.3-0.7l-0.6,9.5l-22.4,13c-1,0.7-1.5,1.7-1.3,3.2c1.2,5.4,6.8,7,11.4,7.8c3,0.4,5.4,0.1,7.8-0.7l0.9-2.3l3.3-1.5
		l2-33.3H299.7L299.7,319z M307.7,356.1l-7,5.2l0,2.1l7-5.3V356.1L307.7,356.1z M293.7,346.7c0,0,0,1.1,0,1.5c0,0.4,0.9,0.8,0.9,0
		c0-0.9,0-0.8,0-1.6C294.6,346,293.9,345.9,293.7,346.7L293.7,346.7z M294.2,337c0,0,0,1.1,0,1.5c0,0.4,0.9,0.8,0.9,0
		c0-0.9,0-0.8,0-1.6C295,336.3,294.3,336.1,294.2,337L294.2,337z M294.7,324.9c0,0,0,1.1,0,1.5c0,0.4,0.9,0.8,0.9,0
		c0-0.9,0-0.8,0-1.6C295.5,324.2,294.8,324.1,294.7,324.9L294.7,324.9z M285.9,355l-0.7,1.8l14.3,7.1v-2.1L285.9,355L285.9,355z"/>
</g>
</svg>
