<?xml version="1.0" encoding="utf-8"?>
<!-- Generator: Adobe Illustrator 17.1.0, SVG Export Plug-In . SVG Version: 6.00 Build 0)  -->
<!DOCTYPE svg PUBLIC "-//W3C//DTD SVG 1.1//EN" "http://www.w3.org/Graphics/SVG/1.1/DTD/svg11.dtd">
<svg version="1.1" xmlns="http://www.w3.org/2000/svg" xmlns:xlink="http://www.w3.org/1999/xlink" x="0px" y="0px"
	 viewBox="0 0 1277.2 546.2" enable-background="new 0 0 1277.2 546.2" xml:space="preserve">
<g id="Claim_x5F_zweizeilig">
	<path id="Claim_x5F_zweizeilig_1_" fill="#831B78" d="M209.7,113.4v33.4h-15.4v-18.4h-21.8v83.8h14.1v14.1h-49.9v-14.1h14.1v-83.8
		h-22.2v18.4h-15.2v-33.4H209.7z M214.7,154c10.1-8.6,22.4-9.4,26.7-9.4c4.6,0,9.6,0.8,13.9,2.4c16.8,5.8,22.1,18.7,23.8,25.1
		c0.8,3,1.8,7.2,1.8,14.2c0,4.6,0,17-8.6,27.8c-10.2,12.6-25.9,13.9-31,13.9c-5,0-20.8-1.3-31-14.4c-4-5.1-8.5-12.8-8.5-27.4
		C201.7,181.1,201.9,165.2,214.7,154z M227,202.8c0.6,1.9,1,2.4,1.4,3.4c2.9,5,7.5,7.7,13,7.7c3,0,10.4-1.3,13.8-9.4
		c2.7-6.4,2.6-18.2,2.6-18.4c0-7.4-1-13.4-1.8-16c-0.6-2.6-1.8-4.2-2.2-5c-4-6.1-9.8-6.7-12.5-6.7c-8.5,0-12.2,6.2-13.4,8.8
		c-1.6,3.5-2.7,9.9-2.7,19C225.1,190.8,225.6,198.3,227,202.8z M361.6,158h-16.3c2.9,2.4,8.3,7.4,8.2,17c0,4.8-1.1,9.3-3.8,13.1
		c-4,5.8-10.9,8.8-24.8,10.9c-4.2,0.6-7.2,1-8.8,1.8c-0.6,0.3-2.7,1.6-2.7,3.8c0,3.2,3.5,4,8.5,4.6c1.8,0.2,3.4,0.3,5.1,0.5
		c11.5,1.4,18.1,2.6,22.9,4.8c7.5,3.5,11.2,9.8,11.2,18.1c0,4-0.6,13.8-9.9,20.6c-5.4,4-14.6,7.5-29.4,7.5c-1.8,0-16.6,0-26.1-5.1
		c-2.7-1.4-5.4-3.8-7.4-6.4c-1.6-1.9-4.5-6.4-4.3-12.8c0-14.1,13.4-17.4,16.8-18.4c-1.6-0.6-8.6-2.7-8.6-9.6c0-1.9,0.6-4,1.8-5.6
		c3-3.8,8.3-5,12.6-6.1c-1.3-0.5-4.3-1.9-7.4-4.2c-6.1-4.6-9.8-12-9.8-19.7c0-9.8,5.6-18.2,14.1-22.6c7.8-4,14.4-4,30.4-4h27.8V158z
		 M303,240.6c4,5.4,12.6,6.2,18.6,6.2c1.4,0,9,0.2,14.6-2.6c5.8-2.6,6.9-6.6,6.9-9.3c-0.2-1.6-0.3-4.3-3.7-6.9
		c-5.6-4.3-17.6-4.2-17.8-4.2c-1.3,0-9,0-14.4,2.6c-5.3,2.6-6.2,7-6.1,9.3C301.1,236.7,301.6,238.7,303,240.6z M309.6,179.8
		c3.4,5.8,9.9,6.1,11.8,6.1c1.3,0,3.5,0,6.2-1.3c6.4-3,7-9.3,7-11.5c0-7.8-5.4-12.6-13.3-12.6c-1.1,0-3.2,0-5.9,1.1
		c-5,2.1-7.7,6.2-7.7,11.5C307.8,175.5,308.3,177.7,309.6,179.8z M386.2,190c-0.3,12.2,2.2,24.3,17.3,24.3c2.2,0,10.4-0.3,13.9-7.7
		c0.6-1.4,1.1-2.9,1.6-5.9h19.2c0,2.4-0.2,2.9-0.3,4.2c-0.8,3.7-3,8-5.3,10.9c-4.2,5.1-13.3,12.3-29.4,12.3c-3,0-9.8-0.2-17.1-3.5
		c-8.6-4-22.6-14.6-22.6-38.2c0-2.9,0.2-8.6,2.2-15.5c7.2-23.4,26.9-26.2,35.5-26.2c3.8,0,14.1,0.5,23.2,7.2
		c6.1,4.6,14.4,15,14.4,33.6c0,2.7,0,2.9-0.3,4.6H386.2z M416,177.2c0.2-5.8,0-12.5-5.4-16.3c-3.5-2.6-7-2.6-8.6-2.6
		c-10.6,0-13.8,8.8-14.6,12.2c-0.3,1.4-0.8,3.7-1,6.9L416,177.2z M492.6,146.3v14.1h-18.9v33.1c0,9.3-0.5,14.6,3.8,17.4
		c1.4,1,3.2,1.4,5.1,1.4c3.4,0,6.9-1.3,9.9-2.7l-0.2,16c-2.6,0.8-8,2.4-15.4,2.4c-5.4,0-11.2-1.1-15.7-4.5
		c-9.3-6.7-8.5-17.8-8.5-27.5v-35.7h-11.5v-14.1h11.5v-23.7h20.8v23.7H492.6z M531.8,156.9c1.1-1.6,1.4-2.2,2.7-3.7
		c7-8,15.5-8.6,19.5-8.6c7.5,0,12.6,2.6,15.2,4.2c11.8,7.4,10.6,19.7,10.6,31.5v33h12.3v13.1h-43.4v-13.1h10.1v-37
		c0-5.1-0.5-10.1-5.6-12.8c-2.2-1.1-4.5-1.4-6.9-1.4c-1.6,0-5.4,0.2-9,3c-5.4,4.3-5.6,10.7-5.6,17.1v31h10.1v13.1h-43.4v-13.1H511
		V126h-12.5v-13.1h33.3V156.9z M614.3,190c-0.3,12.2,2.2,24.3,17.3,24.3c2.2,0,10.4-0.3,13.9-7.7c0.6-1.4,1.1-2.9,1.6-5.9h19.2
		c0,2.4-0.2,2.9-0.3,4.2c-0.8,3.7-3,8-5.3,10.9c-4.2,5.1-13.3,12.3-29.4,12.3c-3,0-9.8-0.2-17.1-3.5c-8.6-4-22.6-14.6-22.6-38.2
		c0-2.9,0.2-8.6,2.2-15.5c7.2-23.4,26.9-26.2,35.5-26.2c3.8,0,14.1,0.5,23.2,7.2c6.1,4.6,14.4,15,14.4,33.6c0,2.7,0,2.9-0.3,4.6
		H614.3z M644.1,177.2c0.2-5.8,0-12.5-5.4-16.3c-3.5-2.6-7-2.6-8.6-2.6c-10.6,0-13.8,8.8-14.6,12.2c-0.3,1.4-0.8,3.7-1,6.9
		L644.1,177.2z M702.8,159.5c0.6-1.1,1.4-2.2,2.1-3.4c2.1-3,7.5-10.4,18.2-10.4c5.8,0,9.6,1.8,14.6,4.2v22.1h-12.3
		c-0.3-1.4-0.8-2.7-1.3-4.2c-0.6-1.6-2.1-6.6-7.8-6.6c-5.8,0-9.6,5.6-10.9,10.6c-1,4-1.1,11.7-1.3,21.8v19.7h14.4v13.1H671v-13.1
		h12.3v-53.8H671v-13.1h31.8V159.5z M127.6,332.7l1.3-15.7c2.1-2.2,4.2-4.8,9.8-7.7c4-2.1,10.1-4.8,20.3-4.8c13.1,0,20,3.7,24.3,7.5
		c2.4,2.2,4.5,4.8,5.4,7.8c1.3,3.8,1.4,10.1,1.4,19.4v33.9h11.7v13.1h-30.7v-10.9c-1.6,2.2-2.7,3.8-5,5.9c-2.7,2.6-8.3,6.7-17.9,6.7
		c-1.8,0-5.8-0.2-10.2-1.9c-12.2-4.8-13.8-16.6-13.8-21c0-4.8,1.9-14.2,11.8-21.3c9.9-7,22.2-9.1,33.6-11.4v-2.1
		c0-0.2,0.2-4.5-0.6-6.9c-1.6-5-7.5-5.4-11.7-5.4c-1.9,0-11.4-0.2-14.1,7.7c-0.8,1.9-0.8,4.6-1,6.9H127.6z M169.9,344.1
		c-5.9,1.4-8.2,2.2-11.2,3.5c-10.2,4.3-13.3,9.6-13.3,15.2c0,6.2,4.2,9.8,9.9,9.8c1.6,0,5-0.3,8.5-2.6c6.7-4.3,6.1-11,6.1-17.9
		V344.1z M239.3,316.9c1.1-1.6,1.4-2.2,2.7-3.7c7-8,15.5-8.6,19.5-8.6c7.5,0,12.6,2.6,15.2,4.2c11.8,7.4,10.6,19.7,10.6,31.5v33
		h12.3v13.1h-43.4v-13.1h10.1v-37c0-5.1-0.5-10.1-5.6-12.8c-2.2-1.1-4.5-1.4-6.9-1.4c-1.6,0-5.4,0.2-9,3c-5.4,4.3-5.6,10.7-5.6,17.1
		v31h10.1v13.1H206v-13.1h12.5V286H206v-13.1h33.3V316.9z M322.2,350c-0.3,12.2,2.2,24.3,17.3,24.3c2.2,0,10.4-0.3,13.9-7.7
		c0.6-1.4,1.1-2.9,1.6-5.9h19.2c0,2.4-0.2,2.9-0.3,4.2c-0.8,3.7-3,8-5.3,10.9c-4.2,5.1-13.3,12.3-29.4,12.3c-3,0-9.8-0.2-17.1-3.5
		c-8.6-4-22.6-14.6-22.6-38.2c0-2.9,0.2-8.6,2.2-15.5c7.2-23.4,26.9-26.2,35.5-26.2c3.8,0,14.1,0.5,23.2,7.2
		c6.1,4.6,14.4,15,14.4,33.6c0,2.7,0,2.9-0.3,4.6H322.2z M352,337.2c0.2-5.8,0-12.5-5.4-16.3c-3.5-2.6-7-2.6-8.6-2.6
		c-10.6,0-13.8,8.8-14.6,12.2c-0.3,1.4-0.8,3.7-1,6.9L352,337.2z M385.5,332.7l1.3-15.7c2.1-2.2,4.2-4.8,9.8-7.7
		c4-2.1,10.1-4.8,20.3-4.8c13.1,0,20,3.7,24.3,7.5c2.4,2.2,4.5,4.8,5.4,7.8c1.3,3.8,1.4,10.1,1.4,19.4v33.9h11.7v13.1h-30.7v-10.9
		c-1.6,2.2-2.7,3.8-5,5.9c-2.7,2.6-8.3,6.7-17.9,6.7c-1.8,0-5.8-0.2-10.2-1.9c-12.2-4.8-13.8-16.6-13.8-21c0-4.8,1.9-14.2,11.8-21.3
		c9.9-7,22.2-9.1,33.6-11.4v-2.1c0-0.2,0.2-4.5-0.6-6.9c-1.6-5-7.5-5.4-11.7-5.4c-1.9,0-11.4-0.2-14.1,7.7c-0.8,1.9-0.8,4.6-1,6.9
		H385.5z M427.8,344.1c-5.9,1.4-8.2,2.2-11.2,3.5c-10.2,4.3-13.3,9.6-13.3,15.2c0,6.2,4.2,9.8,9.9,9.8c1.6,0,5-0.3,8.5-2.6
		c6.7-4.3,6.1-11,6.1-17.9V344.1z M535.8,272.9v100.3h12.5v13.1h-31.4v-12.2l-1.9,3.4c-3.7,5.1-8.5,7.8-10.6,8.6
		c-4.3,1.8-8.8,1.9-10.2,1.9c-9,0-16.8-3.5-22.9-10.2c-4.3-4.8-10.9-15.2-10.9-31.5c0-4.3,0.3-17,8.2-28.2
		c8.6-12.2,20.2-13.6,25.8-13.6c2.9,0,9,0.2,15.2,5c2.7,2.2,4.5,4.3,5.1,5.3c0.8,1.1,1.1,1.6,2.2,3.7V286h-12.3v-13.1H535.8z
		 M498.3,374.3c15-0.2,16.6-17.3,16.6-28c0-1.1,0.3-14.1-4.5-21.4c-4-6.2-9.4-6.6-12.3-6.6c-10.9,0-16.6,9.1-16.6,28
		C481.5,357.1,483.1,374.3,498.3,374.3z M583.5,361.5v24.8h-25.1v-24.8H583.5z"/>
</g>
<g id="RUAG_x5F_Wortmarke">
	<path id="RUAG_x5F_Wortmarke_1_" fill="#00A3E3" d="M1106.1,306h57.7v28.1h-57.7c-12.7,0-24.5,4.4-24.5,36.2
		c0,27.6,9.8,33.3,24.5,33.3h24.5v-20.5l33.3-28.6v78.3h-57.7c-14.8,0-27.2-0.8-40.2-11.3c-13.1-10.4-19.7-27.2-19.7-49.9
		C1046.2,327.4,1065.8,306,1106.1,306 M991.3,306.3h2.5l54,126.8h-36.2c0,0-9.4-24.4-11-28.4h-46.6c-1.5,4.1-10.6,28.4-10.6,28.4
		h-34.9l53.7-126.8H991.3 M977.1,344.3c-3.8,10.1-9.6,25.3-12,31.6h24.5C987.1,369.6,981.1,354.3,977.1,344.3 M873,306.3V382
		c0,20-5.4,26.1-23,26.1c-17.7,0-23.1-6.1-23.1-26.1v-75.6h-32.5v77c0,15.2,1.3,26.9,7.7,34.5c10.2,12.1,25.4,17.8,47.9,17.8
		c22.3,0,37.5-5.6,47.7-17.8c5.6-6.6,7.9-16.6,7.9-34.5v-77H873 M663.5,306.3H729c30.6,0,45.5,13,45.5,39.6c0,18-8,30.7-22.1,35.8
		c4.2,7,30.7,51.4,30.7,51.4h-37.1c0,0-24.2-43.3-26.2-46.8h-23.6v46.8h-32.6V306.3 M696.1,335.2v22.5H723
		c15.8,0,18.5-3.5,18.5-11.3c0-7.9-2.6-11.2-18.5-11.2H696.1z"/>
</g>
</svg>
