<?xml version="1.0" encoding="utf-8"?>
<!-- Generator: Adobe Illustrator 17.1.0, SVG Export Plug-In . SVG Version: 6.00 Build 0)  -->
<!DOCTYPE svg PUBLIC "-//W3C//DTD SVG 1.1//EN" "http://www.w3.org/Graphics/SVG/1.1/DTD/svg11.dtd">
<svg version="1.1" id="Lager_1" xmlns="http://www.w3.org/2000/svg" xmlns:xlink="http://www.w3.org/1999/xlink" x="0px" y="0px"
	 viewBox="0 0 850.4 283.5" enable-background="new 0 0 850.4 283.5" xml:space="preserve">
<g>
	<g>
		<circle fill="#989496" cx="327.4" cy="137" r="45.1"/>
		<path fill="#002A5A" d="M327.4,93.7c-23.9,0-43.3,19.4-43.3,43.3c0,23.9,19.4,43.3,43.3,43.3c23.9,0,43.3-19.4,43.3-43.3
			C370.7,113.1,351.3,93.7,327.4,93.7z"/>
		<path fill="#989496" d="M351.3,105.2c-6.4-6.4-14.9-9.9-23.9-9.9s-17.5,3.5-23.9,9.9c-6.4,6.4-9.9,14.9-9.9,24c0,0,0,16.1,0,16.3
			c0,0,0,0,0,0h0c0.2,8.8,3.7,17.1,9.9,23.3c6.4,6.4,14.9,9.9,23.9,9.9s17.5-3.5,23.9-9.9c6.2-6.3,9.7-14.5,9.9-23.4l0-16.2
			C361.2,120.1,357.7,111.6,351.3,105.2z M350.7,168.1c-6.2,6.2-14.5,9.7-23.3,9.7c-8.8,0-17.1-3.4-23.3-9.7
			c-6.1-6.1-9.5-14.1-9.6-22.6c0.1-2.4,0.5-4.7,1.2-7c5.1,13,17.6,21.7,31.7,21.7c14.1,0,26.7-8.7,31.7-21.7
			c0.7,2.2,1.1,4.5,1.3,6.8C360.2,153.9,356.8,162,350.7,168.1z M296.2,137c1.7-5.1,4.6-9.7,8.6-13.4c6.1-5.7,14.2-8.9,22.7-8.9
			c8.3,0,16.3,3.2,22.4,9c4,3.7,6.9,8.3,8.7,13.3c-4.6,13.3-17.1,22.2-31.3,22.2C313.3,159.2,300.8,150.3,296.2,137z M360.3,139.7
			c-1.6-6.3-4.9-12-9.8-16.6c-6.3-6-14.5-9.2-23.1-9.2c-8.7,0-17,3.2-23.3,9.1c-4.8,4.5-8.1,10.1-9.6,16.4v-10.2
			c0-8.8,3.4-17.1,9.6-23.3c6.2-6.2,14.5-9.7,23.3-9.7c8.8,0,17.1,3.4,23.3,9.7c6.2,6.2,9.6,14.5,9.6,23.3V139.7z"/>
		<path fill="#9F7E45" d="M319.8,102.4c1.8-0.5,4.3-0.7,4.3-0.7l3.3,6.8l3.3-6.8c0,0,2.3,0.2,4.3,0.7l3,8.9l0.7-7.9
			c2.2,0.6,4.3,1.5,6.8,2.8c2.2,1.2,2.6,2.5,2.4,3.9c0,0-0.2,1.4-1.8,0.8c0,0,2.9,1.5,2.2,4.4c-0.2,1-1.3,1.5-2.8,0.7
			c-1.4-0.8-2.9-1.6-4.7-2.3c-3.2-1.2-5.5-1.6-5.5-1.6l-0.6-1.9c-2.1-0.4-4.5-0.6-4.5-0.6l-0.8,1.7c-1.1,0-2.8,0-4,0l-0.8-1.7
			c-2,0.1-4.5,0.6-4.5,0.6l-0.6,1.9c-1.1,0.2-2.1,0.5-3.4,0.8l0.2-0.6c-2.1,1.6-3.8,2.4-3.8,2.4c-1.3,0.7-5,2.5-5.9,0.7
			c-0.3-0.4-0.2-1.3-0.2-1.3c1.1-0.7,2.6-1.5,3.8-2.1c0,0-0.6,2.3,1.7,1c0.8-0.4,1.7-1,2-1.8c0.5-1.5-1.1-1.2-1.7-1
			c-1,0.3-4.9,1.6-4.9-1c0-1.8,2.5-3.7,5.1-4.8c4-1.6,5.3-0.1,5.2,1.1c-1.6,0.4-2,0.6-3.3,1c0-0.5-0.3-1.1-2-0.5
			c-1.6,0.8-2.1,1.4-1.8,2.1c0.3,0.9,2.9-0.1,3.5-0.2c3.6-0.8,3.1,1.7,3.1,1.7C317.2,109.7,319.8,102.4,319.8,102.4z M320.8,108.3
			c0.7-0.1,2-0.3,3.1-0.4c0,0-1.7-3.7-1.7-3.7L320.8,108.3z M341.1,111.6c0.9,0.4,2.5,1.1,3.3,1.6c0,0,0.8,0.6,1.2,0.1
			c0.3-0.6,0.1-1.2-1.3-1.9c-0.9-0.5-2.5-1.2-3.1-1.5L341.1,111.6z M341.4,107.8c0,0,1.4,0.6,2.3,1c0.3,0.2,0.6,0.3,1,0.4
			c0.3,0,0.4-0.2,0.5-0.4c0.1-0.9-0.9-1.3-1.3-1.5c-1-0.5-1.3-0.6-2.3-1.1C341.6,106.3,341.4,107.8,341.4,107.8z M330.9,107.9
			c1.1,0.1,1.8,0.2,3.1,0.4c0,0-1.4-4.2-1.4-4.2L330.9,107.9z"/>
		<path fill="#989496" d="M310.9,136.3c1.1,0.5,2,0.9,2.9,0.7c2.2-0.3,2.8-1.2,4.8-0.6c0.9,0.3,1.6,1,1.6,1s-0.5-0.2-1.1-0.2
			c-2.1-0.1-3.8,1.5-5.9,1C311.4,137.7,310.9,136.3,310.9,136.3z"/>
		<path fill="#989496" d="M322.7,136.6c-0.7,0.6-2.2,3.9-6.1,2c-0.1,0.4,0.1,1.7,0.7,2.5c0.5,0.8,1.9,1.2,2.9,1.1l0,0
			c-1.2,1.1-0.4,2.8-0.3,5.3c0.7-1.4,1.9-2,1.9-2s-1.2,2.2-1.2,3.4c-0.1,1.9,1.9,3.5,3.5,6c0.5-2.9,0.4-4,0.9-5.7
			c0.5,1,0.9,6,0.8,7.9c2.9-2.3,6.3-2.4,4.8-8.6c0.9,1.1,1.7,3.3,2,4.6l0,0c1.4-2.2,4.6-3.7,2.1-9.6c1.4,1.1,1.8,3,2.4,3.7
			c0.4-2.8,2-7.2-1.5-10.4l0,0c0.9,0.3,2,1.1,2.6,2c0-2.5,1.6-4-2-8.4c0.7-1.1,1.1-2.4,1.3-3.7c-1.4,0.2-3,0.4-4.1,1
			c0-0.1-0.3-0.6-0.9-0.7l-10.3,0c-0.7,0-1.4,1-1.8,2.8c0,0-0.4-0.3-0.8-0.5c-1.3-0.5-4.2-0.5-5.1,2.2c-0.5,1.3-0.1,3.5-0.1,3.5
			s3.2-2.4,4.8,0.4 M321.7,132.9c-0.5-0.3-0.9-1.3-0.3-1.8c0.4-0.3,1.7,0.3,0.8,1.3c0.9,0.5,1.4-0.3,1.4-0.6l0.3,0
			C323.8,132.4,322.9,133.7,321.7,132.9z"/>
		<path fill="#9F7E45" d="M332.5,126.7c0.3,0,0.6,0.2,0.6,0.2l4.1-8.8c-4.4,0-2.8,2.9-2.7,3.1c0.1,0.2-0.2,0.1-0.2,0.1
			c-0.3-0.3-0.6-0.4-1-0.4c-0.8,0-1.5,0.7-1.5,1.5c0,0.8,0.7,1.5,1.5,1.5c0.1,0,0.3,0,0.4,0c0,0-3,2.8-5.3-0.8
			c-0.2-0.3,0.2,0.3,0.9,0.3c0.8,0,1.5-0.7,1.5-1.5c0-0.8-0.7-1.5-1.5-1.5c-0.3,0-0.6,0.1-0.9,0.3l0,0c0.4-0.3,0.6-0.7,0.6-1.2
			c0-0.8-0.7-1.5-1.5-1.5l0,0c-0.8,0-1.5,0.7-1.5,1.5c0,0.5,0.2,0.9,0.6,1.2l0,0c-0.2-0.2-0.5-0.3-0.9-0.3c-0.8,0-1.5,0.7-1.5,1.5
			c0,0.8,0.7,1.5,1.5,1.5c0.7,0,1.1-0.6,0.9-0.3c-2.4,3.6-5.3,0.8-5.3,0.8c0.1,0,0.3,0,0.4,0c0.8,0,1.5-0.7,1.5-1.5
			c0-0.8-0.7-1.5-1.5-1.5c-0.4,0-0.8,0.2-1,0.4c0,0-0.3,0.1-0.2-0.1c0.1-0.2,1.6-3.1-2.7-3.1l4.1,8.8c0,0,0.3-0.2,0.6-0.2
			C322.6,126.7,332.2,126.7,332.5,126.7z"/>
		<path fill="#CA0538" d="M337.4,136.6c0.2-1,0.1-2.3-1.9-4.5c-0.7,0.7-1.4,1.4-2.1,2c0.3,2.7,0.4,6.8-1.9,9c0,0,0-1.8-1-3.7
			c-0.1,2.4-1.2,4.8-3.4,6.3c0,0,0.4-1.7,0.1-4.6c-0.4,1.1-1.2,2.2-2.5,2.6l-0.6-3c0,0,1.1-0.8,1.1-0.8c0,0,0.4,1.7,0.4,1.7
			c1.2-1.1,0.2-2.8,1.3-3.2c0.6-0.2,0.9,0.3,1.1,0.6c0.5,1.1,0.5,1.9,0.5,3.1c0.7-1.6,0.7-3.2,0.5-5c-0.1-0.6,0.2-0.9,0.6-1
			c0.4-0.1,0.7,0.1,1,0.4c0.7,0.9,1.1,2,1.4,3c0.4-1.5,0.5-3.7,0-5.2c-0.1-0.3-0.2-0.6-0.2-0.6c1.6-1.3,3-2.9,3.8-4.9
			c-2.2,0.6-5.1,2.4-5.1,2.4l-0.6-0.6l2.3-1.8c0.1-0.1,0.2-0.3-0.2-0.3l-8.4,0c-0.8,0-1.6,0.3-1.6,1.6l1,0.9c0,0,1.3-0.5,2.5,0.4
			l-0.2,0.7c0,0-0.5-0.4-0.8-0.2c-0.7,1.8-1.9,2-2.8,1.7c-1-0.4-1.2-1.7-1.4-2.3c-1.8-1-4.6-1.2-4.8,2c1.9-0.9,3.9,0.2,4.4,1.3
			l5,1.5c-1.7,1.3-4,5.3-6.8,4c2,2.1,4.1-0.5,4.8,0.6c0.7,1.2-2.6,1.5-2,4.5c0.5-0.5,1.5-1.5,2.1-0.9c0.4,0.4,0.2,0.9,0.1,1
			c-1.4,3-2,4.4,0.3,6.8c0.5-3.7,0.7-4.7,1.7-4.7c1.4,0,1.9,6.2,2,7.7c2.8-1.8,3.3-2.2,2.4-6.7c-0.2-0.8-0.1-1.3,0.5-1.5
			c0.6-0.2,1.1,0.2,1.3,0.6c0.7,1,1.3,2.2,1.7,3.5c0.7-1.2,2.6-2,0.5-7c-0.3-0.6-0.3-1.1,0.2-1.4c1-0.7,2.4,1,2.9,1.8
			c-0.1-1.8,0.8-4-2-6.8c-0.4-0.5-0.4-0.9-0.1-1.3C335.2,135.6,336.6,136.2,337.4,136.6z"/>
		<path fill="#989496" d="M324.7,134.9c1.5-0.3,1.2,1,2.9,1.4C326.2,136.8,325.5,135.1,324.7,134.9L324.7,134.9"/>
		<path fill="#989496" d="M333.7,130.4c-0.6,0.9-1.4,1.7-2.5,1.9C331.7,131.6,332.7,130.5,333.7,130.4z"/>
		<g>
			<g>
				<path fill="#989496" d="M303.5,155.2c-0.3-0.3-0.5-0.5-0.9-0.9l0-1.4c0.9,0.9,1.8,1.7,2.8,2.4l0,1.4c-0.3-0.3-0.7-0.5-1-0.8v8.4
					c-0.3-0.2-0.6-0.5-0.9-0.7V155.2z"/>
				<path fill="#989496" d="M306.1,155.9c1.1,0.8,1.7,1.2,2.5,1.7l0,1.3c-0.5-0.3-1-0.5-1.6-1l0,2.6c0.6,0.4,1.1,0.7,1.5,0.9l0,1.1
					c-0.5-0.3-0.9-0.5-1.5-0.9l0,3.3c0.6,0.4,1,0.6,1.7,1.1l0,1.4c-1.3-0.8-1.5-0.9-2.7-1.8C306.1,165.7,306.1,155.9,306.1,155.9z"
					/>
				<path fill="#989496" d="M312.6,169c-2.7,1.4-4.2-4.6-2.9-9.2c0.2-0.9,1-2,2.8,0l0,1.2c-1.4-2-2-1.4-2.1,1.7
					c-0.1,5.5,1.2,5.5,2.2,4.8L312.6,169z"/>
				<path fill="#989496" d="M313.4,160.1c0.4,0.2,0.5,0.2,1.1,0.4v4.3c0.5,0.2,1,0.3,1.5,0.4l0-4.2c0.5,0.2,0.7,0.2,1,0.3l0,9.8
					c-0.4-0.1-0.7-0.2-1-0.3l0-4.4c-0.5-0.2-1-0.3-1.6-0.5v4.4c-0.3-0.1-0.7-0.3-1.1-0.5C313.4,169.8,313.4,160.1,313.4,160.1z"/>
				<path fill="#989496" d="M318.5,161.7c0.4,0.1,0.6,0.2,0.9,0.2c0.6,1.9,1.3,4.6,1.9,6.5c0,0,0,0,0,0l0-6.1c0.3,0.1,0.7,0.2,1,0.2
					v9.7c-0.3,0-0.5-0.1-0.8-0.1c-0.6-1.9-1.4-4.4-2-6.3c0,0,0,0,0,0l0,5.9c-0.3-0.1-0.7-0.1-1.1-0.2
					C318.5,171.5,318.5,161.7,318.5,161.7z"/>
				<path fill="#989496" d="M329.6,162.7c0.4,0,0.7-0.1,1.1-0.1v8.5c0.8,0,1.6-0.2,2.4-0.3l0,1.3c-1.1,0.2-2.3,0.3-3.4,0.4
					L329.6,162.7z"/>
				<path fill="#989496" d="M343.2,168.4c-2.1,2.6-4.4,1.4-4.3-3.4c0.1-3.2,1.6-6,4.2-5.4l0,1.3c-3.5-1.6-3.3,5.2-2.9,6.7
					c0.4,1.3,1.2,1.1,1.9,0.7l0-2.9c-0.2,0.1-0.5,0.2-0.8,0.4l0-1.2c0.6-0.3,1.3-0.5,1.8-0.8L343.2,168.4z"/>
				<path fill="#989496" d="M344.4,158.5c0.3-0.2,0.6-0.4,1-0.5l0,9.8c-0.3,0.2-0.7,0.4-1,0.5C344.4,168.3,344.4,158.5,344.4,158.5z
					"/>
				<path fill="#989496" d="M346.7,157.2c0.9-0.5,1.7-1.2,2.5-1.8l0,1.4c-0.5,0.4-1,0.7-1.6,1.1l0,2.7c0.6-0.3,0.9-0.6,1.5-1l0,1.1
					c-0.5,0.4-0.9,0.7-1.4,1l0,3.3c0.7-0.4,1.1-0.8,1.7-1.2l0,1.3c-0.8,0.7-1.7,1.4-2.7,1.9L346.7,157.2z"/>
				<path fill="#989496" d="M350.1,163c0.6,0.4,1.6-0.7,1.3-2.1c-0.3-1.5-1.5-2.8-1.3-4.6c0,0,0.3-2.6,2-3.2l0,1.2
					c-1.1,0.2-1.2,1.5-1.2,1.6c0,0.5,0.1,0.8,0.1,0.9c0.3,0.7,0.7,1.5,0.9,2.1c1.2,2.9-0.4,5.4-1.8,5.4L350.1,163z"/>
			</g>
			<path fill="#989496" d="M328.2,167.7c0,2.8-0.5,5.1-2.3,5.1c-1.6,0-2.3-2.3-2.3-5.1c0-2.8,0.7-5.1,2.3-5.1
				C327.7,162.6,328.2,164.9,328.2,167.7z M325.9,163.9c-0.8,0-1.3,1.8-1.3,3.9c0,2.1,0.4,3.8,1.3,3.8c0.8,0,1.3-1.7,1.3-3.8
				C327.2,165.7,326.8,163.9,325.9,163.9z"/>
		</g>
		<path fill="#989496" d="M338,166.5c0,2.8-0.5,5-2.3,5c-1.6,0-2.3-2.2-2.3-5c0-2.8,0.7-5,2.3-5C337.4,161.5,338,163.7,338,166.5z
			 M335.7,162.7c-0.8,0-1.3,1.8-1.3,3.8c0,2.1,0.4,3.7,1.3,3.7c0.8,0,1.3-1.7,1.3-3.7C336.9,164.5,336.5,162.7,335.7,162.7z"/>
	</g>
	<path fill="#002A5A" d="M558.8,135.5v-0.1c2.9-1.1,4.9-4.3,4.9-8.1c0-3.9-1.7-9.9-11.4-9.9h-33.1v34.9l-15-34.9h-16.3L475,147
		l-12.7-29.6H446l-13.3,30.7c0.2-1,0.4-2,0.4-3.1c0-7.1-4.5-10.1-11.9-11.4c-3.9-0.7-14.2-2.2-17.5-2.7c-2-0.3-3-1.1-3-2.5
		c0-2.6,2.5-3.9,6.9-3.9c6.1,0,8.3,1.9,8.7,4.7h15.1c-0.8-9.5-9.6-12.9-24.1-12.9c-17.5,0-20.8,7.5-20.8,12.7
		c0,5.9,3.2,10.1,11.4,11.3l13.3,2c4.7,0.7,6.3,1.5,6.3,3.6c0,3.4-3.6,4.2-7,4.2c-6.9,0-8.6-1.9-9-4.9h-15.8
		c0.8,11.2,10.6,13.6,24.2,13.6c4.4,0,16.5-0.1,21.2-7l-2.5,5.8h14.3l2.4-6.5h17.5l2.4,6.5h19.6l2.4-6.5h17.5l2.4,6.5h44.1
		c12.3,0,14.5-7.2,14.5-11.9C565.7,139.8,563,136.4,558.8,135.5z M448.5,142.6l5.5-15.1h0.1l5.5,15.1H448.5z M490.4,142.6l5.5-15.1
		h0.1l5.5,15.1H490.4z M532.6,126h13.3c2.9,0,4.1,1.6,4.1,3.4c0,1.8-1.2,3.4-4.1,3.4h-13.3V126z M546.9,148.8h-14.3v-8.1h14.3
		c2.8,0,4.7,1.3,4.7,4S549.7,148.8,546.9,148.8z"/>
</g>
</svg>
