<?xml version="1.0" encoding="utf-8"?>
<!-- Generator: Adobe Illustrator 17.1.0, SVG Export Plug-In . SVG Version: 6.00 Build 0)  -->
<!DOCTYPE svg PUBLIC "-//W3C//DTD SVG 1.1//EN" "http://www.w3.org/Graphics/SVG/1.1/DTD/svg11.dtd">
<svg version="1.1" id="Lager_1" xmlns="http://www.w3.org/2000/svg" xmlns:xlink="http://www.w3.org/1999/xlink" x="0px" y="0px"
	 viewBox="0 0 842 595" enable-background="new 0 0 842 595" xml:space="preserve">
<g>
	<g>
		<path d="M397.7,270.3c0,0-4.6-4.5-12.3-4.5c-7.6,0-11.7,4.6-11.7,9c0,3.2,1.7,6.8,7.9,8.5c2.3,0.6,4.3,1.1,6.8,1.6
			c2.1,0.5,3.1,1.4,2.9,2.6c-0.3,1.4-2.7,2-5.2,2c-2.2,0-4.8-0.5-8.6-3.8l-5.4,4c1.5,1.8,6.7,5.7,14.2,5.7c7.5,0,13.1-3.3,13.1-9.6
			c0-4.6-3.1-6.6-7.7-7.9c-3.1-0.9-5.1-1.4-7.3-2c-1.9-0.5-3-1.5-2.8-2.7c0.3-1.2,2.1-1.7,3.8-1.7c1.7,0,4.8,0.4,7.2,2.5
			L397.7,270.3z"/>
		<path d="M430.2,266.3v6.5h-14.7v4.5h10.4v6.3h-10.4v4.6h15.1v6.5h-23.1v-28.3H430.2z"/>
		<rect x="401.6" y="259.7" width="1.8" height="41.4"/>
		<rect x="433.6" y="259.7" width="1.8" height="41.4"/>
		<path d="M439.4,294.6v-28.3h16.7c4.8,0,8.7,2.8,8.7,7.2c0,3.5-2.1,5.5-4.1,6.3c0,0-0.1,0-0.3,0.1c0.2,0,0.3,0,0.3,0
			c3.4,1.1,5.8,3.5,5.8,7.2c0,4.7-3.9,7.6-8.8,7.6H439.4z M447.4,272.2v5h6.4c1.5,0,2.7-1.2,2.7-2.5c0-1.3-1.2-2.5-2.7-2.5H447.4z
			 M455.2,288.3c1.4,0,2.5-1.1,2.5-2.6c0-1.5-1.1-2.6-2.5-2.6h-7.8v5.2L455.2,288.3z"/>
	</g>
</g>
</svg>
