<?xml version="1.0" encoding="utf-8"?>
<!-- Generator: Adobe Illustrator 17.1.0, SVG Export Plug-In . SVG Version: 6.00 Build 0)  -->
<!DOCTYPE svg PUBLIC "-//W3C//DTD SVG 1.1//EN" "http://www.w3.org/Graphics/SVG/1.1/DTD/svg11.dtd">
<svg version="1.1" id="V_x5F_LOGO" xmlns="http://www.w3.org/2000/svg" xmlns:xlink="http://www.w3.org/1999/xlink" x="0px" y="0px"
	 viewBox="0 0 147.4 49.7" enable-background="new 0 0 147.4 49.7" xml:space="preserve">
<rect x="0" y="0" fill="#FFFFFF" width="147.4" height="49.7"/>
<g>
	<g>
		<path fill="#F7A600" d="M121,25.8c3.5,0.5,7-0.4,9.5-2.8c-0.2-1.9-0.9-3.7-2-5.2c-0.6,0.5-2,1.4-2,1.4l1.2,4l-3.3-2.4l-3.4,2.4
			l1.3-4l-3.4-2.5l4.2,0c0,0,0.6-2,1-2.9c-3.8-2-9.2-1.6-12.6,0.7c-3.8,2.6-5.7,7-5.3,11c0.9-1.1,2.4-1.9,3.8-2.1
			C113.9,22.9,117.1,25.2,121,25.8"/>
		<path fill="#F7A600" d="M127.7,16.8c-0.8-0.9-1.7-1.8-2.8-2.4c0.3,0.9,0.8,2.4,0.8,2.4S127.3,16.8,127.7,16.8"/>
		<path fill="#0067AC" d="M130.6,25.3c-2.2,2.4-5.2,3.4-8.6,3.4c-2.9,0-5.6-1.3-8.8-1.3c-2.3,0-4.5,0.7-5.9,3
			c0.7,1.3,1.7,2.7,2.9,3.7c2.4-3.7,7.8-2.4,11.7-2.4c2.8,0,5.1-0.8,6.8-2.1c0.4-0.3,1-0.8,1.3-1.2
			C130.6,27.3,130.6,25.8,130.6,25.3"/>
		<path fill="#0067AC" d="M114.3,36.4c5.3,1.9,11.4-0.1,14.2-4.6c-2.2,1.8-5.2,2.1-6.6,2.2C120.4,34.1,115.6,33.7,114.3,36.4"/>
		<path d="M28.8,25.5H31l-1.1-2.6L28.8,25.5z M34.6,28.2l0.2,0.3c0.1,0.1,0.2,0.3,0.4,0.5h-3.4c0.2-0.1,0.3-0.3,0.3-0.5
			c0-0.2-0.1-0.3-0.3-1l-0.2-0.4l-3.5,0L28,27.5c-0.2,0.4-0.3,0.8-0.3,1c0,0.2,0.1,0.4,0.3,0.5h-2.8c0.2-0.2,0.3-0.3,0.4-0.5
			l0.2-0.3l3.1-7.5h2.5L34.6,28.2z"/>
		<path d="M89.1,20.6h-3c0,0,0.2,0.2,0.3,0.3c0.1,0.1,0.1,0.2,0.1,0.3v6.9c0,0.1,0,0.3-0.1,0.4c-0.1,0.2-0.1,0.2-0.3,0.4h6.8v-2.1
			c-0.6,0.5-0.6,0.5-1.8,0.5h-2.4v-6c0-0.1,0-0.2,0.1-0.4C89,20.8,89.1,20.6,89.1,20.6"/>
		<path d="M64.6,20.6c0.3,0.3,0.4,0.4,0.4,1.1v4.2l-3-5.2h-3c0.2,0.1,0.2,0.2,0.3,0.4c0.1,0.2,0.1,0.2,0.1,0.4l0,7
			c0,0.1,0,0.2-0.1,0.4c-0.1,0.2-0.1,0.2-0.3,0.3h2.4c-0.2-0.1-0.2-0.2-0.3-0.3C61,28.5,61,28.4,61,28.3l0-4.8l3.1,5.5h2.5v-7.3
			c0-0.6,0.1-0.8,0.4-1.1H64.6z"/>
		<path d="M41.3,20.6h-6.8v2.1c0.5-0.5,1-0.5,1.9-0.5h0.3v5.7c0,0.6-0.1,0.8-0.4,1.1h3c-0.3-0.2-0.4-0.4-0.4-1.1v-5.7h0.4
			c1,0,1.4,0,1.9,0.5V20.6z"/>
		<path d="M22.1,26.6l-1.9-4.6c-0.3-0.7-0.3-0.8-0.3-1c0-0.2,0.1-0.4,0.3-0.5h-3.4c0.2,0.2,0.4,0.4,0.4,0.5l0.2,0.3l3.2,7.6h2.5
			l3.1-7.5l0.2-0.3c0.1-0.2,0.2-0.3,0.4-0.5H24c0.2,0.1,0.3,0.3,0.3,0.5c0,0.2-0.1,0.5-0.3,1L22.1,26.6z"/>
		<path d="M50,20.6c0.3,0.2,0.4,0.4,0.4,0.7l0,7c0,0.5-0.1,0.5-0.4,0.7h7.3l0-2.1c-0.4,0.5-0.7,0.5-1.6,0.5h-3.1l0-1.8l2.3,0
			c0.5,0,1.4-0.4,1.4-1.8c0,0-0.3,0.1-1.1,0.1h-2.6l0-1.7h3c0,0,1.2-0.1,1.5,0.4v-2L50,20.6z"/>
		<path d="M71.4,28.3c0,0.3,0.1,0.5,0.4,0.7h-3c0.2-0.2,0.4-0.4,0.4-0.7l0-6.9c0-0.4-0.1-0.5-0.4-0.7l7,0v2
			c-0.3-0.5-1.4-0.4-1.4-0.4h-3v1.9H74c0.8,0,1.1-0.1,1.1-0.1c0,1.4-0.9,1.8-1.4,1.8h-2.3V28.3z"/>
		<path d="M49,20.6h-6.8v2.1c0.5-0.5,1-0.5,1.9-0.5h0.3v5.7c0,0.6-0.1,0.8-0.4,1.1h3c-0.3-0.2-0.4-0.4-0.4-1.1v-5.7h0.4
			c1,0,1.4,0,1.9,0.5V20.6z"/>
		<path d="M78.8,25.5H81l-1.1-2.6L78.8,25.5z M84.6,28.2l0.2,0.3c0.1,0.1,0.2,0.3,0.4,0.5h-3.4c0.2-0.1,0.3-0.3,0.3-0.5
			c0-0.2-0.1-0.3-0.3-1l-0.2-0.4l-3.5,0L78,27.5c-0.2,0.4-0.3,0.8-0.3,1c0,0.2,0.1,0.4,0.3,0.5h-2.8c0.2-0.2,0.3-0.3,0.4-0.5
			l0.2-0.3l3.1-7.5h2.5L84.6,28.2z"/>
		<path d="M97,20.6h-3c0,0,0.2,0.2,0.3,0.3c0.1,0.1,0.1,0.2,0.1,0.3v6.9c0,0.1,0,0.3-0.1,0.4c-0.1,0.2-0.1,0.2-0.3,0.4h6.8v-2.1
			c-0.6,0.5-0.6,0.5-1.8,0.5h-2.4v-6c0-0.1,0-0.2,0.1-0.4C96.8,20.8,97,20.6,97,20.6"/>
	</g>
</g>
<g>
</g>
</svg>
