<?xml version="1.0" encoding="utf-8"?>
<!-- Generator: Adobe Illustrator 17.1.0, SVG Export Plug-In . SVG Version: 6.00 Build 0)  -->
<!DOCTYPE svg PUBLIC "-//W3C//DTD SVG 1.1//EN" "http://www.w3.org/Graphics/SVG/1.1/DTD/svg11.dtd">
<svg version="1.1" id="Lager_1" xmlns="http://www.w3.org/2000/svg" xmlns:xlink="http://www.w3.org/1999/xlink" x="0px" y="0px"
	 viewBox="0 0 595.3 841.9" enable-background="new 0 0 595.3 841.9" xml:space="preserve">
<g>
	<path fill="#FFEE00" d="M278.4,446.8c-7.3,0-13.2-5.9-13.2-13.2v-15h-3.8c-6.5,0-11.8-5.3-11.8-11.8c0-6.5,5.3-11.8,11.8-11.8
		c6.5,0,11.8,5.3,11.8,11.8v3.8l18.1,0l0,8l-18.1,0v15c0,2.8,2.3,5.1,5.1,5.1c2.8,0,5.1-2.3,5.1-5.1v-4.6h8v4.6
		C291.6,440.9,285.7,446.8,278.4,446.8z M261.5,403.1c-2.1,0-3.8,1.7-3.8,3.8c0,2.1,1.7,3.8,3.8,3.8l3.8,0v-3.8
		C265.3,404.8,263.6,403.1,261.5,403.1z"/>
</g>
<g>
	<path fill="#1F2427" d="M300.6,412.3h-2.7v-1.7h7.3v1.7h-2.7v7.3h-2V412.3z"/>
	<path fill="#1F2427" d="M306.2,416.8c0.1,1.1,0.6,1.6,1.6,1.6c0.7,0,1.3-0.4,1.4-0.8h1.6c-0.5,1.5-1.6,2.2-3,2.2
		c-2,0-3.3-1.4-3.3-3.4c0-1.9,1.3-3.4,3.3-3.4c2.2,0,3.3,1.9,3.1,3.8H306.2z M309,415.7c-0.2-0.9-0.6-1.4-1.4-1.4
		c-1.1,0-1.5,0.9-1.5,1.4H309z"/>
	<path fill="#1F2427" d="M311.8,415.1c0.1-1.7,1.6-2.2,3-2.2c1.3,0,2.8,0.3,2.8,1.8v3.4c0,0.6,0.1,1.2,0.2,1.4h-1.8
		c-0.1-0.2-0.1-0.4-0.1-0.6c-0.6,0.6-1.4,0.8-2.2,0.8c-1.2,0-2.2-0.6-2.2-1.9c0-1.5,1.1-1.8,2.2-2c1.1-0.2,2.1-0.1,2.1-0.9
		c0-0.8-0.5-0.9-1.2-0.9c-0.7,0-1.1,0.3-1.2,1H311.8z M315.9,416.4c-0.3,0.3-0.9,0.3-1.5,0.4c-0.6,0.1-1.1,0.3-1.1,1
		c0,0.7,0.5,0.8,1.1,0.8c1.4,0,1.4-1.1,1.4-1.5V416.4z"/>
	<path fill="#1F2427" d="M323.5,415.4c-0.1-0.7-0.6-1.1-1.3-1.1c-1.1,0-1.5,1.2-1.5,2.1c0,0.9,0.4,2,1.5,2c0.8,0,1.3-0.5,1.4-1.3
		h1.7c-0.2,1.7-1.4,2.7-3.1,2.7c-2,0-3.3-1.4-3.3-3.3c0-2,1.2-3.5,3.3-3.5c1.5,0,2.9,0.8,3,2.5H323.5z"/>
	<path fill="#1F2427" d="M326.3,410.7h1.8v3.4h0c0.4-0.7,1.2-1.1,1.9-1.1c1.9,0,2.4,1.1,2.4,2.7v4h-1.8v-3.7c0-1.1-0.3-1.6-1.1-1.6
		c-1,0-1.4,0.5-1.4,1.9v3.4h-1.8V410.7z"/>
	<path fill="#1F2427" d="M299.8,426.8h-1.1v-1.2h1.1v-0.5c0-1.1,0.7-2,2.2-2c0.3,0,0.6,0,0.9,0v1.3c-0.2,0-0.4,0-0.7,0
		c-0.5,0-0.7,0.2-0.7,0.7v0.4h1.2v1.2h-1.2v5.3h-1.8V426.8z"/>
	<path fill="#1F2427" d="M306.7,425.5c2,0,3.4,1.4,3.4,3.4c0,2.1-1.3,3.4-3.4,3.4c-2,0-3.3-1.4-3.3-3.4
		C303.4,426.8,304.7,425.5,306.7,425.5z M306.7,431c1.2,0,1.6-1,1.6-2.1c0-1-0.4-2.1-1.6-2.1c-1.2,0-1.6,1-1.6,2.1
		C305.2,429.9,305.5,431,306.7,431z"/>
	<path fill="#1F2427" d="M311.2,425.6h1.7v1.2h0c0.3-0.8,1.2-1.4,2.1-1.4c0.1,0,0.3,0,0.4,0.1v1.7c-0.2,0-0.4-0.1-0.6-0.1
		c-1.3,0-1.8,0.9-1.8,2.1v2.9h-1.8V425.6z"/>
	<path fill="#1F2427" d="M300.7,441.7c0,1.2,0.9,1.7,2,1.7c0.7,0,1.7-0.2,1.7-1.1c0-1-1.3-1.1-2.7-1.5c-1.3-0.3-2.7-0.9-2.7-2.5
		c0-1.8,1.7-2.7,3.3-2.7c1.9,0,3.6,0.8,3.6,2.9h-1.9c-0.1-1.1-0.8-1.4-1.8-1.4c-0.6,0-1.4,0.3-1.4,1c0,0.7,0.4,0.8,2.7,1.4
		c0.7,0.2,2.7,0.6,2.7,2.6c0,1.6-1.3,2.9-3.7,2.9c-2,0-3.8-1-3.8-3.2H300.7z"/>
	<path fill="#1F2427" d="M314.7,444.6h-1.8l-1.2-4.3h0l-1.1,4.3h-1.8l-2.1-6.5h1.9l1.2,4.4h0l1.1-4.4h1.7l1.1,4.4h0l1.2-4.4h1.8
		L314.7,444.6z"/>
	<path fill="#1F2427" d="M319,441.8c0.1,1.1,0.6,1.6,1.6,1.6c0.7,0,1.3-0.4,1.4-0.8h1.6c-0.5,1.5-1.6,2.2-3,2.2
		c-2,0-3.3-1.4-3.3-3.4c0-1.9,1.3-3.4,3.3-3.4c2.2,0,3.3,1.9,3.1,3.8H319z M321.9,440.7c-0.2-0.9-0.5-1.4-1.4-1.4
		c-1.1,0-1.5,0.9-1.5,1.4H321.9z"/>
	<path fill="#1F2427" d="M329.3,443.8L329.3,443.8c-0.4,0.7-1.2,1-2,1c-2,0-2.9-1.7-2.9-3.5c0-1.7,1-3.4,2.9-3.4
		c0.8,0,1.5,0.3,1.9,1h0h0v-3.3h1.8v8.9h-1.7V443.8z M327.8,439.3c-1.2,0-1.6,1-1.6,2.1c0,1,0.5,2.1,1.6,2.1c1.2,0,1.5-1,1.5-2.1
		C329.3,440.3,328.9,439.3,327.8,439.3z"/>
	<path fill="#1F2427" d="M333.8,441.8c0,1.1,0.6,1.6,1.6,1.6c0.7,0,1.3-0.4,1.4-0.8h1.6c-0.5,1.5-1.6,2.2-3,2.2
		c-2,0-3.3-1.4-3.3-3.4c0-1.9,1.3-3.4,3.3-3.4c2.2,0,3.3,1.9,3.1,3.8H333.8z M336.7,440.7c-0.2-0.9-0.6-1.4-1.4-1.4
		c-1.1,0-1.5,0.9-1.5,1.4H336.7z"/>
	<path fill="#1F2427" d="M339.5,438.2h1.7v0.9h0c0.5-0.7,1.2-1.1,2-1.1c1.9,0,2.4,1.1,2.4,2.7v4h-1.8V441c0-1.1-0.3-1.6-1.1-1.6
		c-1,0-1.4,0.5-1.4,1.9v3.4h-1.8V438.2z"/>
</g>
<g>
</g>
<g>
</g>
</svg>
