<?xml version="1.0" encoding="utf-8"?>
<!-- Generator: Adobe Illustrator 17.1.0, SVG Export Plug-In . SVG Version: 6.00 Build 0)  -->
<!DOCTYPE svg PUBLIC "-//W3C//DTD SVG 1.1//EN" "http://www.w3.org/Graphics/SVG/1.1/DTD/svg11.dtd">
<svg version="1.1" id="Layer_1" xmlns="http://www.w3.org/2000/svg" xmlns:xlink="http://www.w3.org/1999/xlink" x="0px" y="0px"
	 viewBox="0 0 595 842" enable-background="new 0 0 595 842" xml:space="preserve">
<g>
	<rect x="23.3" y="633.3" fill="none" width="334.3" height="152.4"/>
	<g>
		<rect x="48.7" y="658.7" fill="#0062AE" width="283.5" height="101.6"/>
		<ellipse fill="#FFE000" cx="190.5" cy="709.1" rx="139.4" ry="46.6"/>
		<path fill="#0062AE" d="M343.3,670.2h-1.6v-10.4h4c2.5,0,3.7,0.9,3.7,3c0,1.9-1.2,2.7-2.7,2.9l3,4.6h-1.8l-2.7-4.5h-1.8V670.2z
			 M345.2,664.3c1.3,0,2.5-0.1,2.5-1.7c0-1.3-1.2-1.5-2.3-1.5h-2.1v3.2H345.2z M336.1,665c0-5.2,4.2-9,9.2-9c4.9,0,9.1,3.8,9.1,9
			c0,5.2-4.2,9-9.1,9C340.3,674,336.1,670.2,336.1,665z M345.3,672.5c4.1,0,7.3-3.2,7.3-7.5c0-4.3-3.2-7.5-7.3-7.5
			c-4.1,0-7.4,3.2-7.4,7.5C337.9,669.3,341.1,672.5,345.3,672.5z"/>
		<path fill="#0062AE" d="M274.5,727c0,0,1.1-1.3,0.7-2.8l-1.8-4.6h-11.1l-1.8,4.6c-0.4,1.5,0.7,2.8,0.7,2.8h-22.5
			c0,0,1.3-1.1,2.1-2.9l11.9-31.4c0.8-2-0.5-3.1-0.5-3.1H288c0,0-1.3,1.2-0.6,3.2l12.6,31.4c1,2,2.4,2.9,2.4,2.9H274.5z
			 M270.9,712.8c0,0-2.7-6.6-2.8-6.9c-0.3-0.8-0.4-1.9-0.4-1.9h0c0,0,0,1.1-0.4,1.9c-0.1,0.3-2.8,6.9-2.8,6.9H270.9z"/>
		<path fill="#0062AE" d="M87.5,727c1.4-0.7,1.3-3.1,1.3-3.4v-31.7c0-1.7-1.1-2.4-1.1-2.4l25.8,0c0,0-1.1,0.7-1.1,2.4v31.7
			c0,0.3-0.1,2.7,1.3,3.4L87.5,727z"/>
		<path fill="#0062AE" d="M148.6,704.4l8.7-12.1c1.2-1.8-0.2-2.8-0.2-2.8s25.5,0,25.5,0c0,0.1-1.2,0.7-2.3,2.2l-9.5,13.1l11.9,19.1
			c1,1.4,1.9,2,2.6,2.6c0.4,0.3,0.8,0.5,0.8,0.5h-29.7c0,0,0.8-0.5,0.1-2.3l-7.9-13v11.9c0,0.3-0.3,2.7,1.1,3.4l-25.4,0
			c1.4-0.7,1.3-3.1,1.3-3.4v-31.7c0-1.7-1.1-2.4-1.1-2.4l25.1,0c0,0-1.1,0.7-1.1,2.4L148.6,704.4z"/>
		<path fill="#0062AE" d="M234.4,727l0-13.2c0,0-1.6,1.7-3.9,1.7h-15.9l0-3l12.2,0c0.7,0,2.8,0.2,3.3,0.9l0-11.4
			c-0.5,0.8-2.6,0.9-3.3,0.9h-12.2v-3l15.9,0c2.3,0,3.9,1.7,3.9,1.7v-12.1l-43.1,0c0,0,1.1,0.7,1.1,2.4v31.7c0,0.3,0.1,2.7-1.3,3.4
			L234.4,727z"/>
	</g>
</g>
</svg>
