<?xml version="1.0" encoding="utf-8"?>
<!-- Generator: Adobe Illustrator 17.1.0, SVG Export Plug-In . SVG Version: 6.00 Build 0)  -->
<!DOCTYPE svg PUBLIC "-//W3C//DTD SVG 1.1//EN" "http://www.w3.org/Graphics/SVG/1.1/DTD/svg11.dtd">
<svg version="1.1" id="Layer_1" xmlns="http://www.w3.org/2000/svg" xmlns:xlink="http://www.w3.org/1999/xlink" x="0px" y="0px"
	 viewBox="0 0 1177.9 260.4" enable-background="new 0 0 1177.9 260.4" xml:space="preserve">
<path fill="#0A0000" d="M556,94.7c12.7-5.9,26.7-7.4,40.5-8.2c13.4,0.5,27,2,39.6,7.2c3.4,1.6,6.8,3.3,10.1,5.1
	c17.1,10.2,28.5,27.8,33.8,46.7c-16.2,0-32.4,0.3-48.6,0c-0.7-1.9-1.6-3.8-2.3-5.7c-5.1-8.4-13.6-15.1-23.5-16.8
	c-16.6-4.3-35.7,4.3-42.7,20.2c-5.3,12.2-5.3,25.6-4.4,38.6c1.9,12.2,7,25.1,18.3,31.4c0.7,0.4,2.2,1.1,3,1.5
	c12.1,5.1,26.9,4.8,37.9-2.8c9-5.8,13.2-16.2,16.2-26c15.9,0.1,31.8-0.1,47.6,0c-2.2,8.6-4.6,17.1-8.6,25
	c-8.1,16.5-22.3,29.6-39.4,36.3c-12.6,4.6-26.1,7-39.5,6.3c-28.1,0.6-57.8-12.4-71.7-37.7c-1.3-2.3-2.4-4.7-3.6-7.1
	c-10.5-23.9-10.4-52-0.2-76c1.2-2.4,2.3-4.8,3.6-7.1C529.6,111.9,541.8,101,556,94.7L556,94.7z"/>
<path fill="#4ABAD3" d="M312.1,117c11.8-17.6,32.1-28.8,53.2-30.4c9.6-0.2,19.5-0.8,28.8,2.2c23.6,6.1,42.9,27,46,51.3
	c-9.4,0.1-18.8,0.1-28.1,0.1c-2.6-13.5-13.8-24.1-27-27.2c-11.2-2.4-23.6-1.6-33.4,4.7c-13.7,8.2-20.6,24.1-22.8,39.4
	c-1.6,14.9-0.6,30.5,5.7,44.2c5.6,12.6,17.2,22.9,31,25.2c9.3,1,19.2,0.9,27.4-4c9.4-5.8,17.2-15,19.2-26.1
	c9.5-0.1,18.9,0.2,28.4-0.3c-1.4,14.9-8.5,29.5-19.7,39.4c-27.1,25.2-74.2,24.3-100.2-2.2c-14.3-14.8-21.7-35.2-22.6-55.6
	C296.4,156.7,300,134.6,312.1,117L312.1,117z"/>
<path fill="#0A0000" d="M882.6,86.6c30.2,0,60.4-0.3,90.7-0.1c13.1,1.5,27.3,0.8,39,8c7.5,4.6,13.4,11.4,17.4,19.2
	c5.8,12.8,6.9,27.7,3.3,41.2c-2.5,7.1-6.5,13.7-12,18.8c-6.4,5.4-14.3,8.9-22.4,11.2c11.2,19.2,23,38,34.5,57.1
	c2.3,3.7,4.6,7.5,6.8,11.3c-17.2-0.2-34.4,0-51.7,0c-3.2-5.8-6.4-11.6-9.7-17.3c-2.6-4.8-5.3-9.5-8-14.2c-2.3-4.4-4.9-8.5-7.2-12.9
	c-2.6-4.8-5.4-9.5-8-14.2c-2.7-4.7-5.4-9.4-7.9-14.2c-2.8-4.9-5.8-9.7-8.1-14.9c11.6-0.3,23.6,1.2,34.6-3.6
	c4.2-2.3,7.8-5.5,10.1-9.8c2.6-6.3,2.6-13.3,1.4-19.9c-2.2-7.6-9.4-13.1-17-14.2c-12.1-1.6-24.4-0.6-36.5-0.8
	c0.1,45.4,0.2,90.8,0.4,136.2c-16.4,0-32.7,0.1-49.1,0.1C882.9,198,882.8,142.3,882.6,86.6L882.6,86.6z"/>
<path fill="#0A0000" d="M1053.4,86.8c40.7-0.1,81.4-0.2,122.1-0.3c0,11,0.1,21.9,0.1,32.9c-24.3,0.1-48.6,0.1-73,0.2
	c0,10.2,0.1,20.3,0.1,30.5c21.7-0.1,43.3-0.1,65-0.2c0,10.6,0.1,21.1,0.1,31.7c-21.7,0.1-43.3,0.1-65,0.2c0,13.4,0.1,26.7,0.1,40.1
	c24.3-0.1,48.6-0.1,73-0.2c0,10.6,0.1,21.1,0.1,31.7c-40.7,0.1-81.4,0.2-122.1,0.3C1053.7,198,1053.6,142.4,1053.4,86.8L1053.4,86.8
	z"/>
<path fill="#4ABAD3" d="M161.6,86.6c26.5,0.1,53.1-0.9,79.5,1.4c15.4,1.9,29.8,11.3,37.1,25.1c9.5,18.3,8.9,43.1-5.4,59
	c-7.4,7.7-17.3,13-27.9,14.5c13.6,22.8,29,44.4,42.9,67c-11.1,0-22.1,0-33.2,0.1c-15.8-21.8-30.7-44.2-46.5-66
	c-5.7,0.1-11.5,0.1-17.2,0.1c0,22,0.1,44,0.2,66c-9.8,0-19.5,0.1-29.3,0.1C161.9,198,161.7,142.3,161.6,86.6L161.6,86.6z M191,111.5
	c0,18.6,0.1,37.2,0.1,55.8c14.9-0.2,30,0.8,44.7-2.4c5.7-1.8,11.6-4.7,14.8-10.1c4.4-7,4.8-15.8,3.1-23.7
	c-2.7-10.4-12.7-17.8-23.3-18.5C217.3,111.6,204.1,111.3,191,111.5L191,111.5z"/>
<path fill="#4ABAD3" d="M57,86.5c11.2,0.1,22.5,0.1,33.7-0.1c1.4,3.3,2.6,6.6,3.8,9.9c17.9,52.3,36.1,104.5,53.9,156.9
	c-10.2-0.2-20.5,0.3-30.7-0.1c-4.6-10.5-6.6-22.2-10.6-33.1c-21.7,0.4-43.4-0.1-65.1,0.5c-2.8,11.1-6.2,22.1-9.6,33
	c-10.4-0.1-20.8,0-31.2,0.1C19.6,197.9,38.4,142.3,57,86.5L57,86.5z M74.2,112c-7.3,28-16.7,55.5-24.3,83.4c16.5,0,32.9,0,49.3-0.1
	C91.4,167.4,82.9,139.7,74.2,112L74.2,112z"/>
<path fill="#0A0000" d="M745.4,92.4c15.3-6.4,32.1-6.4,48.3-5.6c17.7,2,35.7,8.6,48.2,21.7c16.1,15.4,22.8,38.2,23.5,59.9
	c-0.3,17.5-4.5,35.1-13.6,50.2c-14.7,23.9-43.6,36.5-71.1,34.9c-14.5,0.9-29.2-2-42.2-8.4c-12.4-6.1-22.8-16-29.8-27.9
	c-1.9-3.4-3.6-6.8-5.2-10.3c-3-7.9-5.1-16.2-6.2-24.6c-0.2-7.5-0.2-14.9-0.1-22.4c1.4-10.4,3.9-20.7,8.4-30.3
	C713.6,112.8,727.9,98.9,745.4,92.4L745.4,92.4z M748,142.6c-5.9,12.8-5.1,27.2-4.4,40.9c1.8,12.5,7.9,25.2,19.6,31.2
	c10.9,4.5,23.7,4.7,34.5-0.1c5.7-3.3,10.4-8.1,13.8-13.6c1-2.1,1.9-4.1,3-6.2c3.1-8.3,4.1-17.3,4.7-26.1c-0.7-10.3-1.7-21-7.4-30
	c-6.8-12.6-22.3-18.5-36-16.4C763.8,123.4,753,131.6,748,142.6L748,142.6z"/>
<g>
	<path fill="#0A0000" d="M542.2,1c14.3,0,28.6,0,42.9,0c0,2.3,0,4.6,0,6.9c-5.8,0-11.6,0-17.4,0c0,17.3,0,34.5,0,51.8
		c-2.6,0-5.2,0-7.7,0c0-17.3,0-34.5,0-51.8c-5.9,0-11.8,0-17.7,0C542.2,5.6,542.2,3.3,542.2,1L542.2,1z"/>
	<path fill="#0A0000" d="M592,1c2.2,0,4.4,0,6.6,0c0,7.7,0,15.5,0,23.2c2.4-2.3,5.2-4.3,8.6-4.7c5-0.9,11.1,0,14.4,4.4
		c2.5,2.9,2.6,6.9,2.7,10.5c0.1,8.4,0,16.8,0,25.2c-2.2,0-4.4,0-6.6,0c0-8.3,0-16.6,0-24.9c0-2.6-0.5-5.4-2.3-7.3
		c-4.3-4.3-12.5-2.4-15.1,2.9c-1.5,2.8-1.6,6.1-1.6,9.2c0,6.7,0,13.5,0,20.2c-2.2,0-4.4,0-6.6,0C592,40.1,592,20.6,592,1L592,1z"/>
	<path fill="#0A0000" d="M926,1c2.1,0,4.2,0,6.4,0c0,2.6,0,5.2,0,7.7c-2.1,0-4.3,0-6.4,0C926,6.2,926,3.6,926,1L926,1z"/>
	<path fill="#0A0000" d="M707.7,2.6c3.1-1.4,6.7-1.2,10-0.5c0,1.7,0,3.3,0,5c-1.8,0-3.6-0.4-5.4-0.1c-2,0.4-3,2.7-3.1,4.6
		c-0.2,3-0.1,6.1-0.1,9.1c2.5,0,5,0,7.5,0c0,1.8,0,3.7,0,5.5c-2.5,0-5,0-7.5,0c0,11.2,0,22.3,0,33.5c-2.1,0-4.2,0-6.4,0
		c0-11.2,0-22.3,0-33.5c-2.2,0-4.4,0-6.6,0c0-1.8,0-3.7,0-5.5c2.2,0,4.4,0,6.6,0c0.1-4.6-0.5-9.4,1-13.9
		C704.5,5,705.9,3.4,707.7,2.6L707.7,2.6z"/>
	<path fill="#0A0000" d="M768.6,8.2c2.3,0,4.6,0,6.9,0c0,4.1,0,8.3,0,12.4c2.4,0,4.8,0,7.2,0c0,1.8,0,3.7,0,5.5c-2.4,0-4.8,0-7.2,0
		c0,8.3,0,16.6,0,24.9c0,1.4,0.1,3.3,1.6,4c1.9,0.5,3.8-0.2,5.6-0.7c0,1.8,0,3.7,0,5.5c-3.7,0.2-7.6,1.3-11.1-0.1
		c-3-1.1-2.9-4.7-3-7.3c0-8.8,0-17.5,0-26.3c-2,0-4.1,0-6.1,0c0-1.8,0-3.7,0-5.5c2,0,4.1,0,6.1,0C768.6,16.5,768.6,12.3,768.6,8.2
		L768.6,8.2z"/>
	<path fill="#0A0000" d="M1153.9,20.2c6.2-2.5,14.5,0,17.4,6.3c1.3,2.9,1.3,6.3,1.4,9.4c0,7.9,0,15.9,0,23.8c-2.2,0-4.4,0-6.6,0
		c0-7.8,0-15.7,0-23.5c-0.1-2.4,0.3-5.2-1.4-7.2c-2.2-3.2-6.7-3.9-10.2-3.1c-4.3,0.9-7.5,5.1-7.4,9.4c-0.2,8.1,0,16.2-0.1,24.4
		c-2.2,0-4.4,0-6.6,0c0-13,0-26,0-39c2.2,0,4.4,0,6.6,0c0,1.8,0,3.5,0,5.3C1148.7,23.5,1150.8,21.1,1153.9,20.2L1153.9,20.2z"/>
	<path fill="#0A0000" d="M945.7,22.9c3.5-2.7,8.1-3.3,12.4-3.3c4.3,0.3,8.7,1.7,11.9,4.7c2.2,2.1,3.3,5,3.9,8
		c-2.3,0.2-4.7,0.5-7,0.8c-0.4-2.2-0.9-4.7-2.9-6.1c-3.7-2.7-9.2-3.4-13.2-0.9c-2.3,1.3-3.4,4.9-1.3,6.8c2.3,2.4,5.8,2.7,8.9,3.6
		c4.6,1.1,9.5,1.9,13.2,5c4,3.2,4,9.6,0.9,13.5c-1.6,2.3-4.1,3.7-6.7,4.6c-5.8,1.7-12.4,1.6-17.9-1c-4.4-2.1-6.9-6.8-7.4-11.5
		c2.4-0.4,4.9-0.7,7.3-1.2c0.2,1.8,0.2,3.8,1.3,5.4c1.3,2.6,4.2,4.1,7.1,4.3c3.3,0.3,7,0.3,9.7-1.9c2.5-1.9,2.9-6.4,0.3-8.4
		c-2.1-1.6-4.8-1.9-7.3-2.4c-4.7-1-9.8-1.8-13.7-4.8C940.3,34.4,941.1,26.4,945.7,22.9L945.7,22.9z"/>
	<path fill="#0A0000" d="M846.1,22c2.4-1.4,5.3-1.6,8-2c0,2.3,0,4.6,0,6.9c-2.6,0.1-5.4-0.1-7.8,1.2c-3.2,1.5-5.2,5-5.4,8.4
		c-0.4,7.7,0,15.4-0.1,23.1c-2.2,0-4.4,0-6.6,0c0-13,0-26,0-39c2.2,0,4.4,0,6.6,0c0,2.2,0,4.4,0,6.7C842.2,25.3,843.8,23.2,846.1,22
		L846.1,22z"/>
	<path fill="#0A0000" d="M723.2,20.6c2.2,0,4.4,0,6.6,0c0,8.3,0,16.6,0,24.9c0,2.3,0.1,5,1.8,6.7c2,2.3,5.3,2.3,8.1,2.1
		c3.5-0.4,6.8-2.6,8.2-5.9c0.9-2.3,0.9-4.9,0.9-7.4c0-6.8,0-13.7,0-20.5c2.2,0,4.4,0,6.6,0c0,13,0,26,0,39c-2.2,0-4.4,0-6.6,0
		c0-1.9,0-3.7,0-5.6c-2,2.1-4.1,4.3-6.8,5.4c-4.2,1.7-9.5,2.1-13.5-0.5c-1.9-1.2-3.5-3-4.4-5.1c-1.1-3.4-1-7-1.1-10.5
		C723.2,35.8,723.2,28.2,723.2,20.6L723.2,20.6z"/>
	<path fill="#0A0000" d="M790.7,20.6c2.2,0,4.4,0,6.6,0c0,8.3,0,16.6,0,24.9c0,2.3,0.1,5,1.8,6.7c2,2.3,5.3,2.3,8.1,2.1
		c3.5-0.4,6.8-2.6,8.2-5.9c0.9-2.3,0.9-4.9,0.9-7.4c0-6.8,0-13.7,0-20.5c2.2,0,4.4,0,6.6,0c0,13,0,26,0,39c-2.2,0-4.4,0-6.6,0
		c0-1.9,0-3.7,0-5.6c-2,2.1-4.1,4.3-6.8,5.4c-4.2,1.7-9.5,2.1-13.5-0.5c-1.9-1.2-3.5-3-4.4-5.1c-1.1-3.4-1-7-1.1-10.5
		C790.7,35.8,790.7,28.2,790.7,20.6L790.7,20.6z"/>
	<path fill="#0A0000" d="M926,20.7c2.1,0,4.2,0,6.4,0c0,13,0,26,0,39c-2.1,0-4.2,0-6.4,0C926,46.7,926,33.7,926,20.7L926,20.7z"/>
	<path fill="#0A0000" d="M663.2,46.7c-0.9,3-2.2,6.1-5,7.7c-4.8,2.9-11.8,1.4-15.1-3.1c-2.3-2.8-2.9-6.6-3.3-10.1c10,0,20,0,30,0
		c-0.2-4.8-0.6-10-3.4-14.1c-1.6-2.8-4.2-4.9-7.2-6.1c-7.4-3.4-17.1-1.2-22.1,5.4c-3.8,4.8-4.7,11.2-4,17.1
		c0.5,4.2,1.8,8.5,4.8,11.6c4,4.6,10.5,6.4,16.5,5.7c2.9-0.4,5.8-1.2,8.2-2.9c3.7-2.3,5.7-6.3,7.2-10.2
		C667.6,47.2,665.4,47,663.2,46.7z M643.1,28.3c2.2-3,6.3-4.4,9.9-3.9c3.8,0.6,7.3,3.3,8.6,7c0.5,1.7,0.8,3.4,1.1,5.1
		c-7.5,0-15.1,0-22.6,0C640.6,33.6,641.3,30.6,643.1,28.3z"/>
	<path fill="#0A0000" d="M888.2,46.7c-0.9,3-2.2,6.1-5,7.7c-4.8,2.9-11.8,1.4-15.1-3.1c-2.3-2.8-2.9-6.6-3.3-10.1c10,0,20,0,30,0
		c-0.2-4.8-0.6-10-3.4-14.1c-1.6-2.8-4.2-4.9-7.2-6.1c-7.4-3.4-17.1-1.2-22.1,5.4c-3.8,4.8-4.7,11.2-4,17.1
		c0.5,4.2,1.8,8.5,4.8,11.6c4,4.6,10.5,6.4,16.5,5.7c2.9-0.4,5.8-1.2,8.2-2.9c3.7-2.3,5.7-6.3,7.2-10.2
		C892.6,47.2,890.4,47,888.2,46.7z M868.1,28.3c2.2-3,6.3-4.4,9.9-3.9c3.8,0.6,7.3,3.3,8.6,7c0.5,1.7,0.8,3.4,1.1,5.1
		c-7.5,0-15.1,0-22.6,0C865.5,33.6,866.3,30.6,868.1,28.3z"/>
	<path fill="#0A0000" d="M1125,46.7c-0.9,3-2.2,6.1-5,7.7c-4.8,2.9-11.8,1.4-15.1-3.1c-2.3-2.8-2.9-6.6-3.3-10.1c10,0,20,0,30,0
		c-0.2-2.9-0.3-5.9-1-8.8c-1.2-4.5-4-8.7-8.2-10.9c-7.4-4.1-17.5-2.3-23,4.1c-2.9,3.6-4.6,8.1-4.6,12.7c-0.2,5.4,0.8,11.1,4.1,15.5
		c6,7.9,18.7,9.1,26.5,3.2c3.1-2.4,4.8-6,6.3-9.5C1129.5,47.2,1127.2,47,1125,46.7z M1105,28.3c2.2-3,6.3-4.4,9.9-3.9
		c3.8,0.6,7.3,3.3,8.6,7c0.5,1.7,0.8,3.4,1.1,5.1c-7.5,0-15.1,0-22.6,0C1102.4,33.6,1103.1,30.6,1105,28.3z"/>
	<path fill="#0A0000" d="M1039.5,29.5c-3-7-11-11-18.4-10.1c-4.5,0.3-9.1,1.9-12.2,5.2c-4.5,4.9-6.2,12-5.5,18.5
		c0.5,4.4,1.9,8.9,5.1,12.1c6.9,7.2,19.4,7.3,26.8,0.9C1042.3,49.4,1043.3,38.1,1039.5,29.5z M1034.5,41.9c-0.3,3.1-1,6.2-2.7,8.9
		c-3.8,6-13.8,6.3-18.2,0.7c-1.8-2.4-2.7-5.4-3-8.3c-0.5-5,0-10.6,3.3-14.7c1.8-2.2,4.4-3.5,7.2-3.8c4.5-0.8,9.6,1.3,11.6,5.6
		C1034.5,33.9,1034.7,38,1034.5,41.9z"/>
	<path fill="#0A0000" d="M1087.2,32.7c-1.6-6.3-6.7-11.8-13.2-13.1c-6.4-1.5-13.2,1.3-17.3,6.3c0-1.8,0-3.5,0-5.3
		c-2.2,0-4.4,0-6.6,0c0,19.2,0,38.4,0,57.6c2.2,0,4.4,0,6.6,0c0-7.7,0-15.3,0-23c3.6,3.8,8.8,6,14.1,5.5c5-0.2,10-2.3,13-6.3
		C1088.4,48.3,1089,40,1087.2,32.7z M1081.2,43c-0.6,4.3-2.6,9-6.7,11c-2.5,1-5.3,1.2-8,0.9c-3-0.4-5.7-2.3-7.5-4.7
		c-1.8-2.7-2.4-6-2.4-9.2c-0.1-4.1,0.9-8.4,3.7-11.5c1.5-2,4-3.2,6.4-3.5c3.5-0.6,7.4-0.1,10,2.4C1081,31.8,1081.6,37.8,1081.2,43z"
		/>
</g>
<g>
</g>
<g>
</g>
<g>
</g>
<g>
</g>
<g>
</g>
<g>
</g>
</svg>
