<?xml version="1.0" encoding="utf-8"?>
<!-- Generator: Adobe Illustrator 17.1.0, SVG Export Plug-In . SVG Version: 6.00 Build 0)  -->
<!DOCTYPE svg PUBLIC "-//W3C//DTD SVG 1.1//EN" "http://www.w3.org/Graphics/SVG/1.1/DTD/svg11.dtd">
<svg version="1.1" id="Lager_1" xmlns="http://www.w3.org/2000/svg" xmlns:xlink="http://www.w3.org/1999/xlink" x="0px" y="0px"
	 viewBox="0 0 595 842" enable-background="new 0 0 595 842" xml:space="preserve">
<g>
	<polygon fill="#0097C3" points="108.9,344.1 108.9,300.9 108.9,300.4 109.4,300.4 514.8,300.4 515.2,300.4 515.2,300.9 
		515.2,344.1 515.2,344.6 514.8,344.6 109.4,344.6 108.9,344.6 	"/>
	<polygon fill="#0097C3" points="108.9,495.7 108.9,452.6 108.9,452.1 109.4,452.1 514.8,452.1 515.3,452.1 515.3,452.6 
		515.3,495.7 515.3,496.2 514.8,496.2 109.4,496.2 108.9,496.2 	"/>
	<path fill="#0097C3" d="M514.5,388.1c-2.3-3-5.8-4.7-9.8-4.7c-7.5,0-13.9,4.3-21.1,14.5c-6.2,8.6-13.9,19.4-19.5,19.4
		c-1.4,0-2.4-0.4-3.1-1.4c-1.7-2.2-1.7-7.1,0-14.2c2-8,5.8-13.6,9.3-13.6c2.5,0,3.5,1.4,3.8,2.3c-1-0.1-2.2,0.3-3.1,0.9
		c-1.2,0.9-1.9,2.3-1.9,3.9c0,1.5,0.5,2.8,1.4,3.7c0.9,0.9,2.1,1.4,3.5,1.4c3.5,0,6-2.9,6-7.1c0-2.7-1-5.2-2.7-6.9
		c-1.9-1.9-4.6-2.9-8-2.9c-8.4,0-15.8,7.2-19.4,11.4c-4.1,4.8-8.8,9.6-11.1,11.9c2.2-7.4,1.7-14.4-1.4-18.9c-2-2.9-5-4.4-8.4-4.4
		c-5.2,0-8.6,2.3-10.4,3.9l0.9-3.2h-17.7l-1.1,4.3h4.9c-2.3,7.5-8.6,14.4-11.5,17.4c0.4-1.2,0.8-2.9,0.9-5c0.5-5.6-1-10.6-3.9-13.8
		c-2.1-2.3-4.9-3.5-8-3.5c-8.8,0-16.5,5.4-22.8,15.9l-1.9,3.3c-4.1,7.1-8.3,14.5-15.1,14.5c-1.9,0-3.4-0.7-4.5-2.2
		c-2.8-3.7-3-12.1-0.4-21.3c3.3-11.7,10.3-23.4,17.3-23.4c1.2,0,2.2,0.5,3,1.4c2.7,3.1,2.8,10.4,2.5,13.3l-0.1,0.5h5.1l5.4-19.6
		h-4.9l-0.1,0.2l-2,2.8c-1.1-1.4-4.7-4.7-12.4-4.7c-8.8,0-24.2,9.4-29.4,29.6c-2.5,9.8-1.4,18.4,3.1,24.2c3.2,4.2,8,6.5,13,6.5
		c8.6,0,16.2-6.5,19.5-11.7c0.5,3.5,2.8,11.7,12.8,11.7c9,0,19.5-6.8,30.5-19.7l-8.5,33.3H406l4.2-17.2c1,1.4,3.5,3.6,8.3,3.6
		c6.8,0,18.1-7.8,27.9-19.1c-1.3,5.7-0.6,10.7,2.2,14.4c2.2,3,5.6,4.7,9.1,4.7c11.8,0,20.1-9.9,22.9-13.8c-0.1,3.6,1.1,7,3.3,9.5
		c2.4,2.7,5.9,4.2,9.7,4.2c10.4,0,19.4-7.2,22.5-17.9C518.3,398.8,517.7,392.3,514.5,388.1z M384.9,404.7
		c-1.7,6.7-5.6,14.5-10.9,14.5c-1.2,0-2.1-0.4-2.7-1.2c-1.7-2.2-1.3-7.5,1-15.8c2.7-9.3,5.8-13.8,9.7-13.8c1,0,1.8,0.4,2.4,1.2
		C386.4,392,386.6,398.3,384.9,404.7z M426.2,404.9c-2,8.7-5.5,13.7-9.5,13.7c-3.1,0-4.6-3-4.8-3.6c0.3-1.3,2.3-10.1,3.4-14.1
		c1.6-6.3,5.3-11.1,8.5-11.1c1,0,1.8,0.4,2.4,1.1C427.3,392.3,428.3,396,426.2,404.9z M507.4,404.7c-1.7,6.7-5.6,14.5-10.9,14.5
		c-1.2,0-2.1-0.4-2.7-1.2c-1.7-2.2-1.3-7.5,1-15.8c2.7-9.3,5.8-13.8,9.7-13.8c1,0,1.8,0.4,2.4,1.2
		C508.9,392,509.1,398.3,507.4,404.7z"/>
	<path fill="#0097C3" d="M303.2,396.6c0.9,0.9,2,1.3,3.4,1.3c2.4,0,5-1.5,5-5.8c0-2.1-0.8-4-2.3-5.5c-2.2-2.2-5.7-3.4-10-3.4
		c-8.5,0-14.4,3.5-16.6,9.8c-1.6,4.7,0.9,9.7,7,14.1l0.8,0.6c3.6,2.5,5.7,4.1,5.2,7.3c-0.4,2.6-3.2,4.4-6.6,4.4
		c-5.2,0-6.1-2.8-6.2-3.7c0.9-0.4,3.3-1.8,3.3-4.7c0-1.4-0.4-2.5-1.3-3.4c-1.3-1.3-3.1-1.4-3.8-1.4c-1.7,0-4.6,0.6-5,4.6
		c-0.1,0.6,0,1.2,0,1.5c-0.4,0.6-2,2.7-4.7,3.6c-0.6,0.2-1.5,0.1-2.1-0.5c-0.9-0.8-1-2.4-0.4-4.4c0.6-2.1,6.8-27.1,6.8-27.1H263
		l-1,3.4c-1-1.6-3.4-4-8.9-4c-8.5,0-15.6,8.3-19.1,15.4c-3,6-8.5,17-12.8,17c-0.5,0-0.8-0.2-1.1-0.5c-0.5-0.6-1-2.4,0.3-7.5
		c1.1-4.2,10.1-41.1,10.1-41.1h-21.5l-1.2,5.1h8.1l-5.6,22.3c-4.1,16.1-11.3,21.8-16.1,21.8c-1,0-1.7-0.3-2.2-0.9
		c-1.3-1.6-0.4-5.5,0.2-8.4c0.9-4,3.7-15.4,4.2-17.5h8.9l1.3-5.1H198l3.1-12.5l-4.8,0l-0.1,0.2c-6.3,9.5-9.2,12.6-18.7,12.6H177
		l-1.2,4.8h7.6c-0.3,1.6-1.2,5.8-1.2,5.8c-4.2,15.8-12.2,22.4-15.6,22.4c-1.7,0-2.6-0.3-3.1-0.9c-0.8-1.1-0.7-3.5,0.3-7.5
		c1.9-7.3,10-36.3,11-39.8h8.1c0,0,1.5-4.9,1.5-4.9l-17.3,0c-6.2,0-13.5,0.5-20.7,4.4c-8.9,4.9-15.4,14-19.2,27.1
		c0,0.1-2.4,9.4-4.5,16.3c-2.2,7.3-8.1,8.1-10.5,8.1c-1.5,0-3.1-0.7-4.4-2l-0.8-0.8v6.6l0.4,0.1c2.2,0.5,4.9,0.8,7.9,0.8
		c8.3,0,15.7-6,19.5-11.1c3.1-4.2,4.1-7.9,5.7-13.6l0.3-1.3h12.5c-0.5,1.8-2.1,7.1-3.5,12.2c-1.2,4.3-0.9,7.7,0.9,10
		c1.7,2.3,4.9,3.4,9.3,3.4c4.5,0,12.6-1.1,18.1-8.1c0.1,1.7,0.7,4,2.3,5.7c1.6,1.6,3.9,2.5,6.8,2.5c6.8,0,14.5-4.5,18.3-9
		c0.1,1.7,0.5,4.6,2.4,6.6c1.4,1.6,3.5,2.4,6,2.4c7.6,0,14.6-6.1,17.8-11c0.5,3.3,2.8,11,12,11c5.9,0,10.2-3.7,12.6-6.4
		c0.5,2,2.2,6.4,7.5,6.4c5.6,0,11.2-3.8,13.8-6.7c2.4,4.6,5.1,6.7,14.2,6.7c8.7,0,15.8-5.9,17.1-11.4c1.4-6-1.9-8.4-7.4-12.4
		l-0.7-0.5l-1.1-0.8c-2.7-1.9-5-3.6-5-6.5c0-3.1,2.5-4.5,5-4.5c2.1,0,3.2,0.8,3.7,1.3c-0.6,0.6-1.7,1.9-1.7,3.8
		C301.8,394.5,302.3,395.8,303.2,396.6z M154.8,393.4h-12.6c4.9-16.6,10.7-24,19.4-24.4L154.8,393.4z M258,402.5
		c-2.5,9.5-5.4,13.8-9.6,13.8c-0.9,0-1.6-0.4-2.2-1.1c-1.8-2.4-1.7-8.2,0.2-15.1c2.7-9.8,6.1-11.1,9-11.1c0.9,0,1.7,0.4,2.3,1.2
		C259.4,392.3,259.5,396.8,258,402.5z"/>
</g>
</svg>
