<?xml version="1.0" encoding="utf-8"?>
<!-- Generator: Adobe Illustrator 17.1.0, SVG Export Plug-In . SVG Version: 6.00 Build 0)  -->
<!DOCTYPE svg PUBLIC "-//W3C//DTD SVG 1.1//EN" "http://www.w3.org/Graphics/SVG/1.1/DTD/svg11.dtd">
<svg version="1.1" id="Layer_1" xmlns="http://www.w3.org/2000/svg" xmlns:xlink="http://www.w3.org/1999/xlink" x="0px" y="0px"
	 viewBox="0 0 612 792" enable-background="new 0 0 612 792" xml:space="preserve">
<path fill-rule="evenodd" clip-rule="evenodd" d="M158.8,155.7l16.1,29.4c0,0,15.2-28,15.9-29.4c0,0-8.1,0-9.5,0c0,0,0-5.6,0-7.3
	c1.8,0,31.7,0,33,0c0,1.9,0,7.3,0,7.3c-1.9,0-8,0-11,0c-0.5,0.9-21.8,40.3-21.9,40.5c-1.2,0-24.5,0-25.8,0
	c-0.2-0.1-22.3-40.4-22.3-40.4h-10.9l0-7.3c0.5,0,45.2,0,47.8,0c0,1.5,0,5.4,0,7.3L158.8,155.7L158.8,155.7z"/>
<path fill-rule="evenodd" clip-rule="evenodd" d="M371,155.7l16.1,29.4c0,0,15.2-28,15.9-29.4c0,0-8.1,0-9.5,0c0,0,0-5.6,0-7.3
	c1.8,0,31.7,0,33,0c0,1.9,0,7.3,0,7.3c-1.9,0-8,0-11,0c-0.5,0.9-21.8,40.3-21.9,40.5c-1.2,0-24.5,0-25.8,0
	c-0.2-0.1-22.3-40.4-22.3-40.4h-10.9l0-7.3c0.5,0,45.2,0,47.8,0c0,1.5,0,5.4,0,7.3L371,155.7L371,155.7z"/>
<path fill-rule="evenodd" clip-rule="evenodd" d="M323.9,188.7c3.9,0,5.6-0.5,7.4-1.3c1.4-0.7,2.5-1.6,3.6-2.6
	c3.2-3,4.7-7.2,4.7-10.7c2.1,0,5.7,0,7.3,0c0,0.4,0,19.6,0,22.1l-66.2,0c0-2.1,0-6.8,0-7.4c0,0,10.6,0,11.1,0c0-0.6,0-33,0-33
	s-9.7,0-11.1,0c0-2,0-5.2,0-7.3c1.2,0,43.6,0,44.1,0v7.3c-3.3,0-8.1,0-11,0c0,1.8,0,31.8,0,33C315.6,188.7,321.3,188.7,323.9,188.7
	L323.9,188.7z"/>
<path fill-rule="evenodd" clip-rule="evenodd" d="M243.5,189.9c8.4,0.1,11.9-8.9,12.1-17.6c0.2-9.2-3.8-17.4-11.4-17.5
	c-7.6-0.1-12,7.9-12.1,17.1C231.9,180.9,235.5,189.8,243.5,189.9L243.5,189.9L243.5,189.9z M209.9,172.3c0-13.9,11.8-24.9,33.9-24.9
	c22.2,0,34,11.1,34,24.9c0,14.1-11.2,25.3-33.9,25.3C221.2,197.5,209.9,186.3,209.9,172.3L209.9,172.3z"/>
<path fill-rule="evenodd" clip-rule="evenodd" d="M455.7,189.9c8.4,0.1,11.9-8.9,12.1-17.6c0.2-9.2-3.8-17.4-11.4-17.5
	c-7.6-0.1-12,7.9-12.1,17.1C444.1,180.9,447.6,189.8,455.7,189.9L455.7,189.9L455.7,189.9z M422.1,172.3c0-13.9,11.8-24.9,33.9-24.9
	c22.2,0,34,11.1,34,24.9c0,14.1-11.2,25.3-33.9,25.3C433.4,197.5,422.1,186.3,422.1,172.3L422.1,172.3z"/>
</svg>
