<?xml version="1.0" encoding="utf-8"?>
<!-- Generator: Adobe Illustrator 17.1.0, SVG Export Plug-In . SVG Version: 6.00 Build 0)  -->
<!DOCTYPE svg PUBLIC "-//W3C//DTD SVG 1.1//EN" "http://www.w3.org/Graphics/SVG/1.1/DTD/svg11.dtd">
<svg version="1.1" id="Layer_1" xmlns="http://www.w3.org/2000/svg" xmlns:xlink="http://www.w3.org/1999/xlink" x="0px" y="0px"
	 viewBox="0 0 595.3 841.9" enable-background="new 0 0 595.3 841.9" xml:space="preserve">
<path fill="#009FE3" d="M143.4,235c0-14.9,12.3-27.3,26.7-27.3c14.9,0,27.3,12.4,27.3,27.3c0,14.9-12.3,26.7-27.3,26.7
	C155.8,261.8,143.4,250,143.4,235z"/>
<path fill="#312783" d="M170.2,336.4c14.9,0,27.3,12.4,27.3,27.3c0,14.9-12.3,26.7-27.3,26.7c-14.4,0-26.7-11.8-26.7-26.7
	C143.4,348.7,155.8,336.4,170.2,336.4z"/>
<path fill="#009FE3" d="M106.1,336.4c14.9,0,27.3,12.4,27.3,27.3c0,14.9-12.3,26.7-27.3,26.7c-14.4,0-26.7-11.8-26.7-26.7
	C79.3,348.7,91.7,336.4,106.1,336.4z"/>
<path d="M143.4,492.2c0-14.9,12.3-27.3,26.7-27.3c14.9,0,27.3,12.4,27.3,27.3c0,14.9-12.3,26.7-27.3,26.7
	C155.8,519,143.4,507.1,143.4,492.2z"/>
<path fill="#312783" d="M207.7,299.3c0-14.9,12.3-27.3,26.7-27.3c14.9,0,27.3,12.4,27.3,27.3c0,14.9-12.3,26.7-27.3,26.7
	C220.1,326.1,207.7,314.3,207.7,299.3z"/>
<path d="M207.7,427.9c0-14.9,12.3-27.3,26.7-27.3c14.9,0,27.3,12.3,27.3,27.3c0,14.9-12.3,26.7-27.3,26.7
	C220.1,454.7,207.7,442.8,207.7,427.9z"/>
<path fill="#312783" d="M234.9,336.4c14.4,0,26.8,12.4,26.8,27.3c0,14.9-12.4,26.7-26.8,26.7c-14.9,0-27.3-11.8-27.3-26.7
	C207.7,348.7,220,336.4,234.9,336.4z"/>
<path fill="#EF7D00" d="M272,235c0-14.9,12.3-27.3,26.7-27.3c14.9,0,27.3,12.4,27.3,27.3c0,14.9-12.4,26.7-27.3,26.7
	C284.4,261.8,272,250,272,235z"/>
<path fill="#FDC300" d="M272,170.7c0-14.9,12.3-27.3,26.7-27.3c14.9,0,27.3,12.4,27.3,27.3c0,14.9-12.4,26.7-27.3,26.7
	C284.4,197.5,272,185.7,272,170.7z"/>
<path fill="#312783" d="M271.7,492.2c0-14.9,12.3-27.3,26.7-27.3c14.9,0,27.3,12.4,27.3,27.3c0,14.9-12.4,26.7-27.3,26.7
	C284.1,519,271.7,507.1,271.7,492.2z"/>
<path d="M271.7,556.3c0-14.9,12.3-27.3,26.7-27.3c14.9,0,27.3,12.3,27.3,27.3c0,14.9-12.4,26.7-27.3,26.7
	C284.1,583.1,271.7,571.2,271.7,556.3z"/>
<path fill="#E30613" d="M299.2,272.1c14.4,0,26.7,12.4,26.7,27.3c0,14.9-12.3,26.7-26.7,26.7c-14.9,0-27.3-11.8-27.3-26.7
	C272,284.4,284.3,272.1,299.2,272.1z"/>
<path fill="#E30613" d="M299.2,336.4c14.4,0,26.7,12.4,26.7,27.3c0,14.9-12.3,26.7-26.7,26.7c-14.9,0-27.3-11.8-27.3-26.7
	C272,348.7,284.3,336.4,299.2,336.4z"/>
<path fill="#312783" d="M299.2,400.7c14.4,0,26.7,12.3,26.7,27.3c0,14.9-12.3,26.7-26.7,26.7c-14.9,0-27.3-11.8-27.3-26.7
	C272,413,284.3,400.7,299.2,400.7z"/>
<path fill="#E30613" d="M336.3,299.3c0-14.9,12.3-27.3,26.7-27.3c14.9,0,27.3,12.4,27.3,27.3c0,14.9-12.3,26.7-27.3,26.7
	C348.7,326.1,336.3,314.3,336.3,299.3z"/>
<path fill="#E6007E" d="M336.3,427.9c0-14.9,12.3-27.3,26.7-27.3c14.9,0,27.3,12.3,27.3,27.3c0,14.9-12.3,26.7-27.3,26.7
	C348.7,454.7,336.3,442.8,336.3,427.9z"/>
<path fill="#E6007E" d="M363.5,336.4c14.4,0,26.7,12.4,26.7,27.3c0,14.9-12.3,26.7-26.7,26.7c-14.9,0-27.3-11.8-27.3-26.7
	C336.3,348.7,348.6,336.4,363.5,336.4z"/>
<path fill="#E6007E" d="M400.6,235c0-14.9,12.3-27.3,26.7-27.3c14.9,0,27.3,12.4,27.3,27.3c0,14.9-12.3,26.7-27.3,26.7
	C413,261.8,400.6,250,400.6,235z"/>
<path fill="#FDC300" d="M427.4,336.4c14.9,0,27.3,12.4,27.3,27.3c0,14.9-12.3,26.7-27.3,26.7c-14.4,0-26.7-11.8-26.7-26.7
	C400.6,348.7,413,336.4,427.4,336.4z"/>
<path fill="#FDC300" d="M491.6,336.4c14.9,0,27.3,12.4,27.3,27.3c0,14.9-12.3,26.7-27.3,26.7c-14.4,0-26.7-11.8-26.7-26.7
	C464.9,348.7,477.2,336.4,491.6,336.4z"/>
<path d="M400.6,492.2c0-14.9,12.3-27.3,26.7-27.3c14.9,0,27.3,12.4,27.3,27.3c0,14.9-12.3,26.7-27.3,26.7
	C413,519,400.6,507.1,400.6,492.2z"/>
<g>
	<path d="M60.9,651.4c-0.2,9.6,6.7,12.5,15.1,12.5c4.9,0,12.3-2.7,12.3-9.4c0-5.3-5.3-7.3-9.6-8.4l-10.3-2.5
		c-5.5-1.4-10.5-4-10.5-11.2c0-4.5,2.9-13.1,16-13.1c9.2,0,17.2,4.9,17.2,14.4h-4.4C86.4,626.6,80.6,623,74,623
		c-6,0-11.6,2.3-11.6,9.2c0,4.4,3.2,6.2,7,7.1l11.3,2.8c6.6,1.8,12,4.6,12,12.2c0,3.2-1.3,13.3-17.7,13.3c-11,0-19-4.9-18.5-16.2
		H60.9z"/>
	<path d="M93,633.1h4.6l10.5,29.4h0.1l10.4-29.4h4.2l-12.5,33.5H106L93,633.1z"/>
	<path d="M126.3,651c0.1,6,3.2,13.2,11,13.2c6,0,9.2-3.5,10.5-8.6h4.1c-1.8,7.6-6.2,12-14.6,12c-10.7,0-15.1-8.2-15.1-17.7
		c0-8.8,4.5-17.7,15.1-17.7c10.8,0,15.1,9.4,14.8,18.9H126.3z M148,647.5c-0.2-6.2-4-12-10.7-12c-6.7,0-10.4,5.9-11,12H148z"/>
	<path d="M156.8,633.1h3.8v7.9h0.1c2.1-5.4,6.6-8.6,12.7-8.3v4.1c-7.4-0.4-12.5,5.1-12.5,12v17.9h-4.1V633.1z"/>
	<path d="M176.6,620.2h4.1v6.6h-4.1V620.2z M176.6,633.1h4.1v33.5h-4.1V633.1z"/>
	<path d="M215.4,663.9c-0.1,10-3.9,16.1-14.9,16.1c-6.7,0-13.3-3-13.9-10.1h4.1c0.9,4.9,5.3,6.7,9.8,6.7c7.5,0,10.8-4.5,10.8-12.7
		v-4.5h-0.1c-1.9,4.1-5.9,6.9-10.7,6.9c-10.7,0-15.1-7.7-15.1-17.2c0-9.2,5.5-16.9,15.1-16.9c4.9,0,9,3.1,10.7,6.8h0.1v-5.8h4.1
		V663.9z M211.3,649.5c0-6.6-3.1-13.9-10.8-13.9c-7.8,0-11,7-11,13.9c0,6.8,3.5,13.3,11,13.3C207.6,662.8,211.3,656.3,211.3,649.5z"
		/>
	<path d="M223.9,651c0.1,6,3.2,13.2,11,13.2c6,0,9.2-3.5,10.5-8.6h4.1c-1.8,7.6-6.2,12-14.6,12c-10.7,0-15.1-8.2-15.1-17.7
		c0-8.8,4.5-17.7,15.1-17.7c10.8,0,15.1,9.4,14.8,18.9H223.9z M245.6,647.5c-0.2-6.2-4-12-10.7-12c-6.7,0-10.4,5.9-11,12H245.6z"/>
	<path d="M274.5,642.9c-0.2-5.1-4.1-7.3-8.8-7.3c-3.6,0-7.9,1.4-7.9,5.8c0,3.6,4.2,4.9,7,5.7l5.5,1.2c4.7,0.7,9.6,3.4,9.6,9.3
		c0,7.3-7.2,10.1-13.5,10.1c-7.8,0-13.1-3.6-13.8-11.8h4.1c0.3,5.5,4.4,8.4,9.9,8.4c3.8,0,9.2-1.7,9.2-6.4c0-3.9-3.6-5.2-7.3-6.1
		l-5.3-1.2c-5.3-1.4-9.4-3.2-9.4-9c0-6.8,6.7-9.4,12.6-9.4c6.7,0,12,3.5,12.3,10.8H274.5z"/>
	<path d="M296.7,620.2h4.4v46.4h-4.4V620.2z"/>
	<path d="M308.3,633.1h4.1v5.8h0.1c1.5-4,6-6.8,10.7-6.8c9.4,0,12.3,4.9,12.3,12.9v21.6h-4.1v-20.9c0-5.8-1.9-10.1-8.5-10.1
		c-6.5,0-10.4,4.9-10.5,11.5v19.6h-4.1V633.1z"/>
	<path d="M370,663.9c-0.1,10-3.9,16.1-14.9,16.1c-6.7,0-13.3-3-13.9-10.1h4.1c0.9,4.9,5.3,6.7,9.8,6.7c7.5,0,10.8-4.5,10.8-12.7
		v-4.5h-0.1c-1.9,4.1-5.8,6.9-10.7,6.9c-10.7,0-15.1-7.7-15.1-17.2c0-9.2,5.5-16.9,15.1-16.9c4.9,0,9,3.1,10.7,6.8h0.1v-5.8h4.1
		V663.9z M365.9,649.5c0-6.6-3.1-13.9-10.8-13.9c-7.8,0-11.1,7-11.1,13.9c0,6.8,3.5,13.3,11.1,13.3
		C362.2,662.8,365.9,656.3,365.9,649.5z"/>
	<path d="M378.5,651c0.1,6,3.2,13.2,11.1,13.2c6,0,9.2-3.5,10.5-8.6h4.1c-1.8,7.6-6.2,12-14.6,12c-10.7,0-15.1-8.2-15.1-17.7
		c0-8.8,4.5-17.7,15.1-17.7c10.8,0,15.1,9.4,14.8,18.9H378.5z M400.2,647.5c-0.2-6.2-4-12-10.7-12c-6.7,0-10.4,5.9-11.1,12H400.2z"
		/>
	<path d="M408.9,633.1h4.1v5.8h0.1c1.5-4,6-6.8,10.7-6.8c9.4,0,12.3,4.9,12.3,12.9v21.6h-4.1v-20.9c0-5.8-1.9-10.1-8.5-10.1
		c-6.5,0-10.4,4.9-10.5,11.5v19.6h-4.1V633.1z"/>
	<path d="M442.5,633.1h4.1v36.7c0,5-1.4,9.3-7.2,9.3c-1,0-1.9-0.1-2.9-0.1v-3.4c0.7,0.1,1.6,0.1,2.2,0.1c3.2,0,3.7-2.1,3.7-4.9
		V633.1z M442.5,620.2h4.1v6.6h-4.1V620.2z"/>
	<path d="M483.1,649.9c0,9.6-5.6,17.7-15.9,17.7c-10.3,0-15.9-8.1-15.9-17.7c0-9.6,5.6-17.7,15.9-17.7
		C477.5,632.1,483.1,640.2,483.1,649.9z M455.5,649.9c0,7.2,3.9,14.3,11.8,14.3c7.9,0,11.8-7.2,11.8-14.3s-3.9-14.3-11.8-14.3
		C459.4,635.6,455.5,642.7,455.5,649.9z M459.3,627.3v-6.6h4.4v6.6H459.3z M470.8,627.3v-6.6h4.4v6.6H470.8z"/>
	<path d="M487.9,633.1h3.8v7.9h0.1c2.1-5.4,6.6-8.6,12.7-8.3v4.1c-7.4-0.4-12.5,5.1-12.5,12v17.9h-4.1V633.1z"/>
	<path d="M508.3,651c0.1,6,3.2,13.2,11.1,13.2c6,0,9.2-3.5,10.5-8.6h4.1c-1.8,7.6-6.2,12-14.6,12c-10.7,0-15.1-8.2-15.1-17.7
		c0-8.8,4.5-17.7,15.1-17.7c10.8,0,15.1,9.4,14.8,18.9H508.3z M530,647.5c-0.2-6.2-4-12-10.7-12c-6.7,0-10.4,5.9-11.1,12H530z"/>
	<path d="M538.8,633.1h3.8v7.9h0.1c2.1-5.4,6.6-8.6,12.7-8.3v4.1c-7.4-0.4-12.5,5.1-12.5,12v17.9h-4.1V633.1z"/>
</g>
<g>
</g>
<g>
</g>
<g>
</g>
<g>
</g>
<g>
</g>
<g>
</g>
</svg>
