<?xml version="1.0" encoding="utf-8"?>
<!-- Generator: Adobe Illustrator 17.1.0, SVG Export Plug-In . SVG Version: 6.00 Build 0)  -->
<!DOCTYPE svg PUBLIC "-//W3C//DTD SVG 1.1//EN" "http://www.w3.org/Graphics/SVG/1.1/DTD/svg11.dtd">
<svg version="1.1" id="Lager_1" xmlns="http://www.w3.org/2000/svg" xmlns:xlink="http://www.w3.org/1999/xlink" x="0px" y="0px"
	 viewBox="0 0 396.9 396.9" enable-background="new 0 0 396.9 396.9" xml:space="preserve">
<g>
	<defs>
		<rect id="SVGID_1_" x="81.1" y="170.3" width="234.8" height="85.6"/>
	</defs>
	<clipPath id="SVGID_2_">
		<use xlink:href="#SVGID_1_"  overflow="visible"/>
	</clipPath>
	<path clip-path="url(#SVGID_2_)" fill="#3C3A3A" d="M236.8,175c-8.8-2.8-18.3-4.2-28.2-4.3c-31.4-0.3-78.8,18.9-95.9,38.9h40.9
		c9.3-8.2,18.8-14.8,28.1-19.7c8.5-4.5,17.1-7.6,25.5-9.3c14.2-2.9,28.1-1.8,41.5,3.1c5.3,1.9,10.4,4.5,15.4,7.6
		c4,2.5,7.8,5.3,11.4,8.4c0.4,0.4,0.8,0.7,1.3,1.2c-5.8-6.2-11.9-11.3-18.5-15.6C251.7,180.8,244.4,177.4,236.8,175z M236.9,174.9
		c-8.8-2.8-18.3-4.2-28.2-4.3c-31.5-0.3-79,19-96,39h41.1c9.3-8.2,18.8-14.8,28.1-19.7c8.5-4.5,17.1-7.6,25.5-9.3
		c14.2-2.9,28.1-1.8,41.5,3.1c5.2,1.9,10.4,4.5,15.4,7.6c4,2.5,7.8,5.3,11.4,8.4c0.8,0.7,1.6,1.4,2.4,2.2
		c-6.1-6.7-12.5-12.2-19.5-16.7C251.7,180.8,244.4,177.3,236.9,174.9z M236.9,174.9c-8.8-2.8-18.3-4.2-28.2-4.3
		c-31.5-0.3-79,19-96,39h41.1c9.3-8.2,18.8-14.8,28.1-19.7c8.5-4.5,17.1-7.6,25.5-9.3c14.2-2.9,28.1-1.8,41.5,3.1
		c5.2,1.9,10.4,4.5,15.4,7.6c4,2.5,7.8,5.3,11.4,8.4c0.8,0.7,1.6,1.4,2.4,2.2c-6.1-6.7-12.5-12.2-19.5-16.7
		C251.7,180.8,244.4,177.3,236.9,174.9z M236.9,174.9c-8.8-2.8-18.3-4.3-28.2-4.3c-31.7-0.3-79.2,19.1-96.1,39.1h41.2
		c9.3-8.2,18.8-14.8,28.1-19.7c8.5-4.5,17.1-7.6,25.5-9.3c14.2-2.9,28.1-1.8,41.4,3.1c5.2,1.9,10.4,4.5,15.4,7.6
		c4,2.5,7.8,5.3,11.4,8.4c1.2,1,2.3,2.1,3.4,3.1c-6.4-7.2-13.2-13-20.5-17.8C251.7,180.7,244.5,177.3,236.9,174.9z M236.9,174.8
		c-8.8-2.8-18.3-4.3-28.2-4.3c-31.8-0.3-79.4,19.1-96.3,39.3h41.4c9.3-8.2,18.8-14.8,28.1-19.7c8.5-4.5,17.1-7.6,25.4-9.3
		c14.1-2.9,28.1-1.8,41.4,3.1c5.2,1.9,10.4,4.5,15.3,7.6c4,2.5,7.8,5.3,11.3,8.4c1.6,1.4,3.1,2.8,4.6,4.3c-6.8-7.8-13.8-14-21.6-19
		C251.7,180.6,244.5,177.2,236.9,174.8z M236.9,174.7c-8.8-2.8-18.3-4.3-28.2-4.4c-31.9-0.3-79.6,19.2-96.4,39.4h41.5
		c9.3-8.2,18.8-14.8,28.1-19.7c8.5-4.5,17-7.6,25.4-9.3c14.1-2.9,28.1-1.8,41.4,3.1c5.2,1.9,10.4,4.5,15.3,7.6
		c4,2.5,7.8,5.3,11.3,8.4c2.4,2.1,4.3,4,5.8,5.5c-7.1-8.4-14.6-15.1-22.7-20.4C251.8,180.6,244.5,177.1,236.9,174.7z M236.9,174.7
		c-8.8-2.8-18.3-4.3-28.2-4.4c-32-0.3-79.8,19.3-96.5,39.5h41.7c9.3-8.2,18.8-14.8,28.1-19.7c8.5-4.5,17-7.6,25.4-9.3
		c14.1-2.9,28-1.8,41.4,3.1c5.2,1.9,10.4,4.5,15.3,7.6c3.9,2.5,7.8,5.3,11.3,8.4c3.2,2.7,5.6,5.2,7.2,6.9
		c-5.3-6.5-13.2-14.9-24.1-21.9C251.8,180.5,244.5,177.1,236.9,174.7z M208.7,170.3c-31.3-0.3-79.5,18.8-96.7,39.7h41.8
		c78.4-68.7,131-0.4,131-0.4C273.9,195.7,251.1,170.7,208.7,170.3z M208.7,170.3c-31.3-0.3-79.5,18.8-96.7,39.7h41.8
		c78.4-68.7,131-0.4,131-0.4C273.9,195.7,251.1,170.7,208.7,170.3z M254.7,212.9L254.7,212.9L254.7,212.9L254.7,212.9z M228.2,189.1
		c-7.3,0-14.8,2-21.5,5.9c-3.1,1.8-6,4-8.6,6.4c2-1.5,4.1-2.8,6.3-3.8c6-2.6,12.7-3.2,20.1-1.8c9.2,1.7,19.3,6.6,30.2,14.5h28.1
		C260.9,187,228.5,189.1,228.2,189.1z M228.2,189c-7.4,0-14.8,2-21.5,5.9c-3.5,2-6.8,4.5-9.6,7.3c2.3-1.9,4.7-3.5,7.4-4.6
		c6-2.6,12.7-3.2,20.1-1.8c9.2,1.7,19.3,6.6,30.2,14.5H283C261,187,228.5,189,228.2,189z M228.2,189c-7.4,0-14.8,2-21.5,5.9
		c-3.5,2-6.8,4.5-9.6,7.3c2.3-1.9,4.7-3.5,7.4-4.6c6-2.6,12.7-3.2,20.1-1.8c9.2,1.7,19.3,6.6,30.2,14.5H283
		C261,187,228.5,189,228.2,189z M228.2,189c-7.4,0-14.8,2-21.5,5.9c-4,2.3-7.7,5.2-10.7,8.4c2.5-2.4,5.4-4.3,8.5-5.6
		c5.9-2.6,12.7-3.2,20.1-1.8c9.2,1.7,19.3,6.6,30.2,14.5h28.4C261.1,186.9,228.5,188.9,228.2,189z M228.2,188.9
		c-7.4,0-14.8,2-21.5,5.9c-4.6,2.6-8.6,5.9-11.8,9.7c2.2-2.3,5.4-4.9,9.7-6.8c5.9-2.6,12.7-3.2,20-1.8c9.2,1.7,19.3,6.6,30.2,14.5
		h28.5C261.2,186.8,228.5,188.9,228.2,188.9z M228.2,188.8c-7.4,0-14.8,2-21.5,5.9c-5.2,3-9.8,6.9-13.1,11.3c2.1-2.5,5.8-6,11-8.3
		c5.9-2.6,12.7-3.2,20-1.8c9.2,1.7,19.3,6.6,30.2,14.5h28.7C261.3,186.7,228.5,188.8,228.2,188.8z M228.2,188.8
		c-15.9,0-29.6,9.3-36.2,19.3c0.4-0.6,0.9-1.2,1.5-1.9c2.1-2.5,5.8-6,11.1-8.3c5.9-2.6,12.6-3.2,20-1.8c9.2,1.7,19.3,6.6,30.2,14.5
		h28.9C261.5,186.6,228.5,188.7,228.2,188.8z M228.2,188.7c0,0,33.1-2.4,55.5,21.9h-29c-47.6-34.7-64.5,0.5-64.5,0.5
		C195.4,200.8,209.9,188.7,228.2,188.7"/>
	<path clip-path="url(#SVGID_2_)" fill="#3C3A3A" d="M85.2,228.5h3.1l7,15.5c0.8,1.9,0.9,2.3,1.5,4.1c0.4-1.2,0.6-1.6,1.1-2.8
		l7.3-16.8h3.1l4.2,26.6h-5.4l-1.9-13.4c-0.2-1.6-0.2-2-0.3-3.4c-0.4,1.6-0.5,2-1.2,3.5l-5.8,13.3H95l-6.3-13.7
		c-0.5-1.3-0.6-1.7-0.9-3c0,1.4-0.1,1.7-0.3,3.2l-2,13.5H81L85.2,228.5"/>
</g>
<rect x="119.5" y="228.5" fill="#3C3A3A" width="5.4" height="26.6"/>
<polyline fill="#3C3A3A" points="133.2,228.5 138.6,228.5 138.6,251.3 150.6,251.3 150.6,255.1 133.2,255.1 133.2,228.5 "/>
<path fill="#3C3A3A" d="M169.3,228.5v18.3c0,2.8-0.2,4.9-2.1,6.8c-1.6,1.6-3.9,2.3-6.2,2.3c-2.4,0-4.3-0.8-5.5-2
	c-1.3-1.2-1.7-2.6-2-3.6l1.5-0.6c0.3,0.6,0.6,1.1,1.2,1.7c0.5,0.5,1.6,1.4,3.4,1.4c1,0,2.6-0.3,3.5-1.9c0.7-1.2,0.9-2.6,0.9-5.6
	v-16.8H169.3"/>
<path fill="#3C3A3A" d="M189.9,223.5c0-1.5,1.3-2.7,2.8-2.7c1.4,0,2.7,1.2,2.7,2.7c0,1.4-1.2,2.7-2.7,2.7c-0.7,0-1.4-0.3-1.9-0.8
	C190.2,224.9,189.9,224.2,189.9,223.5z M182,223.5c0-1.5,1.3-2.7,2.7-2.7c1.4,0,2.7,1.2,2.7,2.7c0,1.5-1.2,2.7-2.7,2.7
	c-0.7,0-1.4-0.3-1.9-0.8C182.3,224.9,182,224.2,182,223.5z M181.4,241.3c0,2.1,0,11,7.2,11c7.4,0,7.4-8.7,7.4-10.5
	c0-7.9-3.5-10.7-7.4-10.7C183.9,231.2,181.4,235.4,181.4,241.3z M201.8,241.7c0,6.1-2.9,14.2-13.2,14.2c-9.9,0-13-7.6-13-13.8
	c0-6.7,3.1-14.4,13-14.4C199.1,227.7,201.8,235.9,201.8,241.7"/>
<path fill="#3C3A3A" d="M213.6,251.7c3.8,0,5,0,6.2-0.4c1.8-0.6,3-2.3,3-4.4c0-4.9-5.6-4.9-7.5-4.9c-0.6,0-1.2,0-1.7,0V251.7z
	 M213.6,240.2c1.2,0,2.8,0,4.1-0.3c2.1-0.5,3.5-2.1,3.5-4.1c0-2.1-1.2-3.6-3.7-3.9c-0.8-0.1-3.1,0-3.9,0V240.2z M208.3,228.4h9.5
	c2.1,0,4.3,0,6.3,1.4c1.5,1,2.6,2.7,2.6,5c0,4.4-4.1,5.5-5,5.8c1.1,0.2,2.7,0.3,4.1,1.3c2.1,1.5,2.5,4,2.5,5.1
	c0,3.4-2.1,5.4-3.2,6.2c-2,1.5-4.4,1.8-7.8,1.8h-9V228.4"/>
<path fill="#3C3A3A" d="M239.9,241.5c1.5,0,3,0,4.4-0.6c1.4-0.6,3.2-1.9,3.2-4.4c0-0.6-0.1-2.6-2-3.6c-1.1-0.6-2.3-0.7-3.4-0.7
	c-0.7,0-1.5,0-2.2,0V241.5z M234.5,228.5h9.5c2.8,0,4.7,0.3,6.2,1.4c2.1,1.4,2.9,3.8,2.9,5.7c0,1-0.2,2.5-1.2,4
	c-1.1,1.7-2.3,2.3-3.4,2.9l7.4,12.6h-6l-6.8-11.4c-1.3,0-1.6,0-3.1-0.3v11.8h-5.4V228.5"/>
<path fill="#3C3A3A" d="M265.6,241.3c0,2.1,0,11,7.2,11c7.4,0,7.4-8.7,7.4-10.5c0-7.9-3.5-10.7-7.4-10.7
	C268.1,231.2,265.6,235.4,265.6,241.3z M285.9,241.7c0,6.1-2.9,14.2-13.2,14.2c-9.9,0-13-7.6-13-13.8c0-6.7,3.1-14.4,13-14.4
	C283.2,227.7,285.9,235.9,285.9,241.7"/>
<path fill="#3C3A3A" d="M292.4,228.5h4.8l13.4,15.1c0.4,0.5,0.5,0.6,1,1.2v-16.3h4.2v26.9h-1.3l-17.8-19.9v19.6h-4.3V228.5"/>
<g>
</g>
<g>
</g>
<g>
</g>
<g>
</g>
<g>
</g>
<g>
</g>
<g>
</g>
<g>
</g>
<g>
</g>
<g>
</g>
<g>
</g>
<g>
</g>
</svg>
