<?xml version="1.0" encoding="utf-8"?>
<!-- Generator: Adobe Illustrator 17.1.0, SVG Export Plug-In . SVG Version: 6.00 Build 0)  -->
<!DOCTYPE svg PUBLIC "-//W3C//DTD SVG 1.1//EN" "http://www.w3.org/Graphics/SVG/1.1/DTD/svg11.dtd">
<svg version="1.1" id="Layer_1" xmlns="http://www.w3.org/2000/svg" xmlns:xlink="http://www.w3.org/1999/xlink" x="0px" y="0px"
	 viewBox="0 0 100 100" enable-background="new 0 0 100 100" xml:space="preserve">
<g>
	<polygon fill="#706F6F" points="-1.2,16.2 58.8,16.2 55.2,32.8 21.2,32.8 19.1,42.6 51.7,42.6 48.1,59.3 15.6,59.3 13.6,68.7 
		48.3,68.7 44.8,85.4 -15.9,85.4 	"/>
	<path fill="#706F6F" d="M87.6,68.1h6.6c9.6,0,13.2-6.3,15.6-17.9c2.5-11.9,1.5-18.1-8.1-18.1h-6.5L87.6,68.1z M72,16.2h39
		c19.8,0,32.4,6.7,26.4,34.8c-5.6,26.2-22.4,34.4-42.2,34.4H57.3L72,16.2z"/>
	<path fill="#706F6F" d="M171.5,53.8h15.4L184.1,31h-0.2L171.5,53.8z M169.3,16.2h36.6l10,69.2H188l-1.4-15h-22.4l-7.4,15h-26.5
		L169.3,16.2z"/>
	<path fill="#706F6F" d="M285.4,82.8c-9.7,2.7-18.6,3.8-29.5,3.8c-23,0-38.9-12.1-33.6-36.8C227.3,26.6,249,15,271.2,15
		c13,0,19,1,25.3,2.6l-4,18.6c-3.3-2.2-10-4-17.4-4c-13.2,0-23.3,6.6-26,19.2c-2,9.5,0.1,17.9,10.7,17.9c1.9,0,4.1,0,5.8-0.6
		l3.9-18.4h22.8L285.4,82.8z"/>
	<polygon fill="#706F6F" points="-148,42.4 -60.1,42.4 -63.6,59.1 -151.6,59.1 	"/>
	<polygon fill="#706F6F" points="-137,-10 -49,-10 -52.6,6.7 -140.5,6.7 	"/>
	<polygon fill="#706F6F" points="-159.1,94.8 -71.1,94.8 -74.7,111.5 -162.7,111.5 	"/>
	<path fill="#706F6F" d="M-41.7,85.7c0,0-155,0-155.3,0L-41.7,85.7L-27,16.4c0.1,0-155.3,0-155.3,0l-3.6,16.7l138.5,0L-55,69
		l-138.3,0l-3.7,16.7"/>
</g>
</svg>
