<?xml version="1.0" encoding="utf-8"?>
<!-- Generator: Adobe Illustrator 17.1.0, SVG Export Plug-In . SVG Version: 6.00 Build 0)  -->
<!DOCTYPE svg PUBLIC "-//W3C//DTD SVG 1.1//EN" "http://www.w3.org/Graphics/SVG/1.1/DTD/svg11.dtd">
<svg version="1.1" xmlns="http://www.w3.org/2000/svg" xmlns:xlink="http://www.w3.org/1999/xlink" x="0px" y="0px"
	 viewBox="0 0 1683.8 1190.6" enable-background="new 0 0 1683.8 1190.6" xml:space="preserve">
<g>
	<path fill="#002A5A" d="M604,557l-1-4.2c-6.8-30.1-22.3-57-44.7-77.8l-3.2-2.9l-4.2,1.1c-7.4,1.9-14.8,3.5-22.2,4.9
		c-21.1-14.5-46.6-22.9-74.1-22.9c-27.3,0-52.7,8.4-73.7,22.7c-7.4-1.4-14.8-3.1-22.3-4.9l-4.2-1.1l-3.2,2.9
		c-22.8,21.1-38.4,48.1-45.2,78.1l-1,4.2l3,3.1c5.3,5.5,10.4,11.1,15.4,16.9c-0.2,3.1-0.3,6.3-0.3,9.5c0,51.9,30.3,96.9,74.1,118.2
		c2.5,7.2,4.8,14.4,6.8,21.7l1.2,4.2l4.1,1.3c14.8,4.6,30,6.9,45.2,6.9c15.6,0,30.8-2.3,45.2-6.7l4.1-1.3l1.2-4.2
		c2.1-7.4,4.4-14.7,6.9-21.9c43.8-21.3,74-66.3,74-118.2c0-3.2-0.1-6.4-0.4-9.6c4.9-5.7,10-11.3,15.3-16.8L604,557z"/>
	<g>
		<path fill="#002A5A" d="M1286.3,608.8h32.7l-17.4-38.1L1286.3,608.8z M1234,540.2l0,85.6l34.7-85.6h66.2l46.6,114.9H1338l-8-17.5
			h-55.5l-7,17.5h-77.8v-115H1234z M949.9,608.8h32.7l-17.5-39.3L949.9,608.8z M933.4,540.2h65.2l35.4,85.3v-85.4h56.5l47,61.9
			v-61.8h42.7v114.9H1128l-52.4-68.4v68.1H1002l-7.5-17.7H938l-7.8,17.9h-43l4.7-11.6c-14.7,10.7-26.5,13.9-49.3,13.9
			c-35.7,0-54.1-8.8-68.2-32.8c-7,22.8-28.6,32.5-72.7,32.5c-45.8,0-70.8-13.7-70.8-38.6v-1.1h50.4c0,10.3,8.3,15.7,24.1,15.7
			c9.1,0,17.9-5.9,17.9-12.1c0-7.3-6.2-10.8-20.1-11.1l-18.9-0.5c-31.9-0.8-48.5-12.7-48.5-34.6c0-25.7,22.6-38.3,68.9-38.3
			c41.6,0,64.7,13.1,64.7,36.8l0,1.5h-48.7c0-12.1-5.3-17-18.7-17c-11.6,0-17.9,4-17.9,11.3c0,6.5,6.2,10.3,17.2,10.5l25.4,0.5
			l17.2,1.5c8.1,0.7,18.8,6.3,25.4,13.3c3.6-40.8,25.3-58.7,71.1-58.7c42.7,0,70.7,18.3,70.7,46.1l0,1.7l-46.3,0
			c-2.5-13.4-10.7-19.9-25.1-19.9c-17.7,0-26.8,12-26.8,35.3c0,17.9,10.9,30,27.1,30c14.1,0,21.9-6.3,25.3-20.6H906L933.4,540.2z"/>
	</g>
	<path fill="#CA0538" d="M411.6,582.2c7.4-1.4,14.6,0.9,18.7,6.8c-16.5-8.8-31.6,11.2-47-1.8c-2.8-2.4-5.3-7.1-6.5-9.7
		C376.7,577.5,390.1,587.7,411.6,582.2z"/>
	<path fill="#CA0538" d="M491.7,586.5c0,0,9.5-2.4,14.7,5.4c0,0-0.7-17.8-17.5-26.5c-0.5-0.3-0.9-0.6-1.1-1c7-6.8,9.1-16.2,9.1-16.2
		c-6.1-0.7-11.4,1-15.5,3.2l-46.3,0h0h-2.8v0.1c-0.4,0.3-4,3.7-4.7,6.5c0,0-22.5-15.3-29.6,18c0,0,13.6-9.8,21.4-3.4
		c0,0,4,5.6,11.2,7.5c9.9,2.6,8.7,4.6,9.2,6.6c0,0-1.3,3.1-9.8,8.5c-8.5,5.4-13.4,2.8-21.2,0.3c0,0-0.5,11.5,15,11.3
		c0,0,2.6,0.2,5.6-0.1c0,0-18.5,7.8-11.5,27c0,0,6.4-7.7,13.4-9.4c0,0-20,22.8,6.5,45.1c0,0,0-20.4,7.5-26.7c0,0,4.2,16.3,2.8,25.3
		c0,0-0.3,7.8-2.6,11.8c0,0,31.5-0.7,22.5-38.6c0,0,12.6,4.3,9.9,21.5c0,0,28.4-14.2,9.7-43.3c0,0,10.7,0,14,12.8
		C501.7,632.2,516.8,608.8,491.7,586.5z"/>
	<path fill="#DADADA" d="M452.7,611.3c1.3-4,0.4-7.7-0.6-9.5l-3.6,2l0,0c0.1,0.2,2.7,5.3-2.1,10.1l-3.9,3.9l5.4-0.3
		c0.1,0,8.9-0.7,12.5-9.5c0.2,2.7-0.5,6.2-3.4,10.5l-2.8,4.1l4.9-1c0.3-0.1,7.4-1.6,11.7-8.3c2.5-4,3.5-8.9,2.9-14.7
		c1.7,2.3,3.4,6.2,3.4,12.5v5.7l3.7-4.4c0.1-0.2,13.9-18.2-3.5-35.6l-1.4,4.5c7.4,9.4,6.6,17.7,4.8,22.9c-2.2-10-8.8-12.6-9.1-12.7
		l-3.7-1.4l1,3.8c1.8,7.1,1.3,12.8-1.4,17.1c-1.2,1.9-2.7,3.2-4.1,4.2c3.6-9.7-1.8-15.5-2-15.8l-3.3-3.5l-0.2,4.8
		C457.5,606.5,455.1,609.6,452.7,611.3z"/>
	<path fill="#DADADA" d="M599.8,555.8l-0.5-2.2c-6.6-29.3-21.7-55.6-43.6-75.9l-1.7-1.5l-2.2,0.5c-7.9,2-16,3.8-24,5.3
		c-20.7-14.6-46-23.2-73.2-23.2c-27.1,0-52.2,8.5-72.9,22.9c-8-1.5-16-3.3-24-5.3l-2.2-0.5l-1.6,1.5c-22.2,20.5-37.4,46.9-44,76.2
		l-0.5,2.2l1.6,1.6c5.7,5.9,11.3,12,16.6,18.2c-0.3,3.6-0.5,7.1-0.5,10.8c0,51,30.1,95.1,73.4,115.5c2.7,7.7,5.2,15.5,7.4,23.4
		l0.6,2.2l2.2,0.7c14.4,4.5,29.2,6.7,44,6.7c15.2,0,30-2.2,44-6.6l2.2-0.7l0.6-2.2c2.2-8,4.7-15.8,7.5-23.6
		c43.3-20.4,73.3-64.5,73.3-115.4c0-3.7-0.2-7.3-0.5-10.9c5.3-6.2,10.8-12.3,16.5-18.1L599.8,555.8z M454.6,467.2
		c22.3,0,43.3,6.2,61.2,16.9c-20.2,3.1-40.6,4.7-61.2,4.7c-20.1,0-40.5-1.6-60.9-4.9C411.6,473.3,432.4,467.2,454.6,467.2z
		 M525.8,490.8c25.8,19.2,43.5,48.6,47.3,82.1c-30.6,36.5-54.7,78.2-70.8,122.8c-14.6,6.4-30.8,10-47.7,10c-16.9,0-33-3.5-47.6-9.9
		c-16.1-44.5-40.2-86.2-70.9-122.8c3.8-33.7,21.7-63.2,47.6-82.5c23.8,4.3,47.5,6.5,70.9,6.5C478.6,497.1,502.4,495,525.8,490.8z
		 M318.5,553.4c6.3-26.1,19.9-49.6,39.5-68.3c5,1.2,10,2.4,15,3.4c-22.8,19-38.8,45.8-44.1,76.2C325.5,560.9,322,557.1,318.5,553.4z
		 M335.3,586.5c0-0.4,0-0.9,0-1.3c25.6,31.8,46.1,67.4,60.8,105.2C359.9,669.9,335.3,631,335.3,586.5z M494.1,721
		c-12.6,3.7-25.8,5.6-39.5,5.6c-13.3,0-26.5-2-39.5-5.8c-1.4-4.9-2.9-9.8-4.5-14.6c13.7,5.1,28.6,7.8,44,7.8
		c15.5,0,30.4-2.8,44.1-7.9C497.1,711.1,495.6,716,494.1,721z M573.9,586.5c0,44.5-24.5,83.4-60.7,103.9
		c14.7-37.9,35.2-73.5,60.7-105.3C573.9,585.5,573.9,586,573.9,586.5z M580.3,564.6c-5.2-30.3-21.2-56.9-43.8-75.9
		c5-1,10-2.2,15-3.4c19.3,18.4,32.7,41.9,39.1,68C587.1,557.1,583.7,560.8,580.3,564.6z"/>
	<path fill="#DADADA" d="M446.2,579.8c-1.9-1.3-4.3-1.9-6.3-0.9c6.1,0.2,7,8.7,13.7,7c1.2-0.3,2.3-0.8,3.3-1.5
		C452.6,586.2,449.1,582.3,446.2,579.8z"/>
	<path fill="#DADADA" d="M489.2,554.4c-7,1.2-12.9,6.9-12.9,6.9l1.4,3C485.6,562.6,489.2,554.4,489.2,554.4z"/>
	<path fill="#DADADA" d="M504.7,593.1l4.1,6.1l-0.3-7.4c0-0.8-0.9-18.3-17.5-27.7c0,0,0,0,0,0c6-6.8,7.9-15,8-15.5l0.5-2.3l-2.3-0.3
		c-6.2-0.7-11.6,0.8-16,3c-0.8,0.4-3.5,2-4.1,2.4h0c-4.5,3.1-7.1,6.3-7.3,6.6l3.3,2.6c0.1-0.1,8.6-10.6,21.1-10.6
		c-1.7,5-6.9,16.2-18.8,18.7l0.8,4.1c4.7-1,8.6-3.1,11.6-5.7c0,0,0,0,0.1,0c9.8,5.1,13.7,13.3,15.3,18.9c-5.5-3.2-11.7-1.7-12-1.7
		l-3.8,1l2.9,2.6c10.9,9.6,13.8,19.4,13.8,27.2c0,4.9-1.2,8.9-2.3,11.7c-3.8-7.5-10.6-9.7-14.2-9.7h-3.8l2.1,3.2
		c4,6.3,6,12.2,6,17.8c0,2-0.3,3.9-0.8,5.8c-2,7.2-7.3,12.1-10.8,14.6c0-0.2,0-0.4,0-0.5c0-14.8-11.6-19-11.7-19l-3.6-1.2l0.9,3.6
		c1,4.4,1.6,8.4,1.6,12.1c0,6.2-1.5,11.4-4.6,15.3c-4.2,5.5-10.5,7.5-14.3,8.2c1.2-4.1,1.5-8.7,1.5-9.2c0.2-1.5,0.2-2.8,0.2-4.4
		c0-9.2-3-21-3.2-21.5l-0.8-3.2l-2.5,2.1c-5.9,5-7.6,17.1-8.1,23.8c-5.9-5.9-9.2-12.3-9.7-19c0-0.6-0.1-1.3-0.1-1.9
		c0-10.5,6.7-18.2,6.7-18.3l4.3-5l-6.4,1.6c-4.8,1.2-9.3,4.8-11.9,7.4c-0.3-1.5-0.5-2.9-0.5-4.2c0-11.6,11.2-16.6,11.8-16.8
		l13.4-5.7l-14.4,1.8c-2.7,0.3-5.3,0.1-5.3,0.1c-4.7,0.1-8.2-1-10.4-3.2c-0.9-0.9-1.5-2-1.9-2.9c6.1,2,11.6,3.5,19.6-1.6
		c8.6-5.5,10.4-8.9,10.6-9.5l0.2-0.5l-0.2-1.3c-0.4-3.4-2.1-5.4-10.6-7.6c-6.4-1.7-10-6.6-10.1-6.7l-0.4-0.4c-6-4.9-14.3-2-19.4,0.7
		c2.3-7.5,5.8-12.3,10.3-14.2c5.9-2.4,12.3,0.8,14.2,1.9c0.2,4.2,2.1,10.2,8.6,11.4c2.7,0.6,8.6-0.2,11.1-7.2
		c0.3-0.9,0.6-1.1,0.7-1.1c0.3-0.1,1.3,0.5,2,1.3l3-2.7c-0.3-0.4-1.6-1.7-3.3-2.3c-1-0.7-4.2-2.5-10.4-1.5l-0.1,0l-0.1,0
		c-3.6,0.9-5.9,0.3-7-0.2c0.8-1.3,2.1-2.8,2.9-3.6c0.7-0.7,1.6-1.4,2.5-2v-0.1h-6.3v0.1c-0.8,0.9-2,2.1-2.8,3.6
		c-3.3-1.7-9.9-4.1-16.5-1.5c-6.8,2.8-11.6,10.1-14.1,22l-1.1,5.2l4.4-3.1c0.1-0.1,12.2-8.7,18.7-3.6c1,1.2,5.2,6.1,12.1,8
		c7.3,1.9,7.4,3.1,7.5,4.1c0,0-1.3,2.1-4,4l-1.7-2.4c-4.3-6.3-12.3-9.3-20.8-7.7l-0.1,0c-20.1,5.2-32.9-4.2-33-4.3l-6.5-4.9l3.4,7.4
		c0.8,1.7,3.5,7.3,7,10.3c9.1,7.7,17.9,5,26.5,2.5c7.2-2.1,13.9-4.1,20.9-0.4l2.1,1.1c-0.7,0.5-1.5,1.1-2.5,1.6
		c-6.8,4.3-10.6,3-17,0.9l-5.1-1.6c0,0-0.1,2.8-0.1,2.9c0,0.9,0.2,5.2,3.6,8.7c2.7,2.8,6.8,4.3,12,4.5c-3.9,3.3-8.1,8.7-8.1,16.6
		c0,2.7,0.5,5.7,1.7,9l1.2,3.4l2.3-2.8c0,0,2.6-3,6.1-5.6c-1.8,3.7-3.6,8.7-3.6,14.5c0,0.7,0,1.4,0.1,2.2c0.7,9,5.5,17.4,14.4,24.9
		l3.4,2.9l0-4.4c0-4.5,0.9-15.8,4.4-22.1c0.9,4.2,2.1,10.9,2.1,16.3c0,1.4-0.1,3-0.2,4.1c0,0-0.7,8-2.4,10.9l-1.8,3.2l3.7-0.1
		c0.5,0,13.1-0.4,20.7-10.2c3.6-4.7,5.5-10.7,5.5-17.9c0-2.6-0.3-5.4-0.7-8.3c2.5,2.1,5.3,6,5.3,12.8c0,1.3-0.1,2.7-0.3,4.2l-0.6,4
		l3.6-1.8c0.5-0.3,12.8-6.5,16.3-19.4c0.6-2.3,0.9-4.6,0.9-6.9c0-5-1.5-10.3-4.3-15.8c2.8,1.3,6.2,4,7.8,10.2l1.2,4.6l2.6-4
		c0.1-0.1,4.8-7.6,4.8-18.2c0-7.8-2.6-17.4-11.7-26.8C499.1,588.6,502.4,589.7,504.7,593.1z M432.3,561.8c0.4,1.7,1.9,3,3.8,3
		c2.1,0,3.8-1.6,3.9-3.7c0.9,0,1.7,0,2.3,0.1c-0.2,0.4-0.4,0.7-0.6,1.2c-1.9,5.3-6.1,4.7-6.6,4.6c-3.3-0.6-4.6-3.3-5-5.5
		C430.8,561.6,431.5,561.7,432.3,561.8z M407.2,587.3c-8.2,2.4-15.3,4.5-22.6-1.7c-0.8-0.7-1.6-1.8-2.4-2.9
		c6.2,2.5,16.5,4.9,29.8,1.5c3.2-0.6,6.2-0.4,8.9,0.4C416,584.6,411.5,586,407.2,587.3z"/>
	<path fill="#D6B048" d="M477.1,551.6c0.7-0.5,3.3-2,4.1-2.4c0,0,0,0,0,0l14.4-35.5c-3.9-0.6-8.4,2.4-9.5,6.3
		c-0.5,1.9-0.2,4,0.7,5.7c-0.8-0.9-1.9-1.6-3.2-2c-3.7-1.1-7.6,1.1-8.7,4.9c-0.7,4.4,1,7.8,4.4,9c1.5,0.4,1.9,0.5,3.5,0.2
		c-2.6,4.4-5.9,6.9-11.4,6.9c-5.4,0-9.7-5.8-12.4-10.3c0,0,2.7,1.3,4.2,1.3c3.9,0,7-3.2,7-7.2s-3.2-7.2-7-7.2c-1.3,0-2.5,0.4-3.6,1
		c1.3-1.3,2.2-3.2,2.2-5.2c0-4-3.2-7.2-7-7.2c-3.9,0-7,3.2-7,7.2c0,2,0.8,3.9,2.2,5.2c-1-0.6-2.3-0.9-3.5-0.9c-3.9,0-7,3.2-7,7.2
		s3.2,7.2,7,7.2c1.5,0,3-0.5,4.2-1.3c-2.6,4.4-6.9,10.3-12.3,10.3c-5.4,0-8.8-2.5-11.5-6.9c1.5,0.3,2,0.2,3.5-0.2
		c3.4-1.1,5.1-4.6,4.4-9c-1.1-3.8-5-6-8.7-4.9c-1.3,0.4-2.3,1.1-3.2,2c0.9-1.6,1.2-3.7,0.7-5.7c-1.1-3.8-5.6-6.9-9.5-6.3l15.4,37.9
		H477.1L477.1,551.6z"/>
</g>
</svg>
