<?xml version="1.0" encoding="utf-8"?>
<!-- Generator: Adobe Illustrator 17.1.0, SVG Export Plug-In . SVG Version: 6.00 Build 0)  -->
<!DOCTYPE svg PUBLIC "-//W3C//DTD SVG 1.1//EN" "http://www.w3.org/Graphics/SVG/1.1/DTD/svg11.dtd">
<svg version="1.1" id="lager1" xmlns="http://www.w3.org/2000/svg" xmlns:xlink="http://www.w3.org/1999/xlink" x="0px" y="0px"
	 viewBox="0 0 841.9 595.3" enable-background="new 0 0 841.9 595.3" xml:space="preserve">
<path fill="#E30613" d="M493.8,268.9c-6.5,0-11.9,5.4-11.9,11.9v17.6c0,6.5,5.4,11.9,11.9,11.9h37.8c6.5,0,11.9-5.4,11.9-11.9v-17.6
	c0-6.5-5.4-11.9-11.9-11.9H493.8z M525.8,305.6h-26.2l0-31.9h26.2V305.6z"/>
<path fill="#E30613" d="M601.7,269.3c6.5,0,11.9,5.4,11.9,11.9v29.1h-9.8c-5.4,0-7.9-2.9-7.9-7.2v-29h-26.2l0,36.2l-9.8,0
	c-5.4,0-7.9-2.9-7.9-7.2c0,0,0-33.8,0-33.8L601.7,269.3z"/>
<path fill="#E30613" d="M387.6,303c0,4.3,2.5,7.3,7.9,7.3l8.4,0l0-29.1c0-6.5-5.4-11.9-11.9-11.9h-66.3l0,33.7
	c0,4.3,2.5,7.3,7.9,7.3l8.4,0l0-36.2h15.1l0,29c0,4.3,2.5,7.3,7.9,7.3l7.3,0l0-36.2l15.1,0L387.6,303z"/>
<path fill="#E30613" d="M430.2,305.6l0-31.9h25.7l0,7l18.3,0c0-6.4-5.4-11.7-11.9-11.7h-37.8c-6.5,0-11.9,5.4-11.9,11.9v17.6
	c0,6.5,5.4,11.9,11.9,11.9l37.8,0c6.5,0,11.9-5.3,11.9-11.7l-18.2,0v7L430.2,305.6z"/>
<path fill="#E30613" d="M300.6,287.6H274v-14h26.6V287.6z M317.9,280.7c0-6.4-5.4-11.7-11.9-11.7h-37.8c-6.5,0-11.9,5.4-11.9,11.9
	v17.6c0,6.5,5.4,11.9,11.9,11.9l36.4,0c6.5,0,11.9-5.3,11.9-11.7l-18.2,0v7l-24.2,0l0-13.2h32C312.5,292.4,317.9,287.1,317.9,280.7z
	"/>
<path fill="#E30613" d="M198.3,268.9c-6.1,0-11,4.9-11,11.2c0,6.4,5,11.3,11,11.3l28.8,0c2.5,0,4.5,2,4.5,4.5v5.3
	c0,2.5-2,4.4-4.5,4.4l-21.5,0v-7h-18.2c0,6.4,5.4,11.7,11.9,11.7h36.3c7.4,0,13.4-5.3,13.4-11.8c0-6.5-6-11.8-13.4-11.8h-26.4
	c-2.1,0-4.5-1.7-4.5-4.5c0,0,0-4.6,0-4.6c0-2.1,2.1-3.9,4.6-3.9l20.4,0l0,5.9l18.2,0c-0.5-6-5.7-10.7-11.8-10.7L198.3,268.9z"/>
</svg>
