<?xml version="1.0" encoding="utf-8"?>
<!-- Generator: Adobe Illustrator 17.1.0, SVG Export Plug-In . SVG Version: 6.00 Build 0)  -->
<!DOCTYPE svg PUBLIC "-//W3C//DTD SVG 1.1//EN" "http://www.w3.org/Graphics/SVG/1.1/DTD/svg11.dtd">
<svg version="1.1" id="Layer_1" xmlns="http://www.w3.org/2000/svg" xmlns:xlink="http://www.w3.org/1999/xlink" x="0px" y="0px"
	 viewBox="0 0 100 100" enable-background="new 0 0 100 100" xml:space="preserve">
<g>
	<path d="M-42.6,151v-0.7c-1.5-0.1-1.6-0.5-1.6-1v-27c0-0.5,0.1-1,1.6-1v-0.7h-15.7v0.7c0.9,0,1.4,0.3,1.4,1c0,0.8-3.1,6.7-5.8,12.5
		c-0.6-1.5-5.4-12-5.4-12.5c0-0.7,0.4-1,1.4-1v-0.7h-15.1v0.7c1.4,0.1,1.6,0.5,1.6,1v27c0,0.5-0.2,1-1.6,1v0.7h10.2v-0.7
		c-1.4-0.1-1.7-0.5-1.7-1v-21.7h0.2l10.2,22.8l10.3-22.5l0.2,0.1v21.3c0,0.5-0.2,1-1.7,1v0.7H-42.6L-42.6,151L-42.6,151z"/>
	<path d="M-15,151v-0.7c-1.5-0.1-1.6-0.5-1.6-1v-27c0-0.5,0.2-1,1.6-1v-0.7h-12v0.7c1.5,0.1,1.6,0.5,1.6,1v27c0,0.5-0.1,1-1.6,1v0.7
		H-15L-15,151L-15,151z"/>
	<path d="M2.3,149.3c0,0.5-0.1,1-1.6,1v0.7h18.6c10.8,0,16.3-7.3,16.3-15.2c0-8.6-5-15.3-15.6-15.3H0.7v0.7c1.5,0.1,1.6,0.5,1.6,1
		V149.3L2.3,149.3L2.3,149.3z M11,127.4h7.4c6.2,0,8.6,3.4,8.6,8.4c0,5-2.4,8.4-8.6,8.4H11V127.4L11,127.4L11,127.4z"/>
	<path d="M58.7,139.5h5.6c0.8,1.2,6.9,9.2,6.9,9.8c0,0.7-0.5,1-1.3,1v0.7h12v-0.7c-0.6,0-1.1-0.3-1.6-1l-6.9-9.6
		c4.8-1.4,8.3-4.2,8.3-9.5c0-6.6-3.7-9.6-12.3-9.6H48.4v0.7c1.5,0.1,1.7,0.5,1.7,1v27c0,0.5-0.2,1-1.7,1v0.7h11.9v-0.7
		c-1.4-0.1-1.6-0.5-1.6-1V139.5L58.7,139.5L58.7,139.5z M58.7,127h9.8c3.4,0,4.5,1.5,4.5,3.2c0,1.7-1.1,3.2-4.5,3.2h-9.8V127
		L58.7,127L58.7,127z"/>
	<path d="M112.2,127.2c5,0,9.5,3.1,9.5,8.5s-4.5,8.5-9.5,8.5c-5,0-9.5-3-9.5-8.5S107.2,127.2,112.2,127.2L112.2,127.2L112.2,127.2z
		 M112.2,120.2c-9.8,0-18,5.5-18,15.6c0,10.2,8.2,15.6,18,15.6c9.9,0,18.1-5.5,18.1-15.6C130.4,125.6,122.1,120.2,112.2,120.2
		L112.2,120.2L112.2,120.2z"/>
	<path d="M177.3,122.2l-0.6-0.2c-0.3,0.3-0.5,0.5-0.9,0.5c-0.6,0-1.8-0.5-4-1.1c-2.3-0.7-5.6-1.2-10.2-1.2
		c-9.3,0-19.1,5.2-19.1,15.6c0,10.4,9.9,15.6,19.1,15.6c8.6,0,14-3.2,15.2-3.2c0.4,0,0.7,0,0.8,0.5l0.7-0.5l-6-9.1l-0.6,0.4
		c0.1,0.3,0.3,0.6,0.3,0.9c0,1.7-7.7,3.2-9.8,3.2c-4.7,0-10.8-2-10.8-8c0-5.9,6.1-8,10.8-8c4.9,0,9.4,1.5,9.4,2.7
		c0,0.4-0.1,0.7-0.1,0.9l0.5,0.4L177.3,122.2L177.3,122.2L177.3,122.2z"/>
	<path fill="#004982" d="M-88.4,89.8h40.6c0,0,44-48.3,94-85.9c10.7-9,11.8-21.2,13.6-26.5c1.3-4.1-5.2-6.3-13.1-1.7
		C40.7-20.9-9.3,9.8-88.4,89.8L-88.4,89.8L-88.4,89.8z"/>
	<path fill="#004982" d="M55.6-29.5c3.2-0.2,8.4,1.7,6.9,7.5C61-16.2,41.2,47.7,38,57.7c-3.3,10.1-3.4,27.4,10.9,31.9
		c14.3,4.5,18.8,2.4,28.8-4.1c0.2,0-10.3,0-6.8-13c3.4-13.1,34.8-106.8,34.8-106.8s4.4-10.3-2.8-13.9c-7.2-3.7-11.1-0.7-16.2,1.5
		C81.5-44.7,55.6-29.5,55.6-29.5L55.6-29.5L55.6-29.5z"/>
	<path fill="#004982" d="M82.4,75.7c-4.3,3.5-6.2,5.1-7.4,4.7c-0.4,0-2.3-2.7-0.4-8.7c1.9-6,16-49.2,16-49.2l48.1-38.3
		c0,0,9.7-10.5,22.9-3.2c13.3,7.3,8.5,24.4,7.9,27.4c-0.6,3-15.6,49.1-15.6,49.1s-5.1,10.9-1.1,13.5c3,1.7,4.3-0.2,6-1.5
		c0.2,0.2-10,20.5-23.1,20.1c-13-0.5-22-9-19.2-21.2c2.7-12.2,7.4-27.1,7.4-27.1s2.4-5.1-3.4-3.2C120.6,38.1,85.4,73.4,82.4,75.7
		L82.4,75.7L82.4,75.7z"/>
	<polygon fill="#004982" points="-93,38 -93,40.1 -44.2,40.1 -42.4,38 -93,38 -93,38 	"/>
	<polygon fill="#004982" points="12.6,38 10.6,40.1 38.6,40.1 39.4,38 12.6,38 12.6,38 	"/>
	<polygon fill="#004982" points="163.9,38 163.3,40.1 191.1,40.1 191.1,38 163.9,38 163.9,38 	"/>
</g>
</svg>
