<?xml version="1.0" encoding="utf-8"?>
<!-- Generator: Adobe Illustrator 17.1.0, SVG Export Plug-In . SVG Version: 6.00 Build 0)  -->
<!DOCTYPE svg PUBLIC "-//W3C//DTD SVG 1.1//EN" "http://www.w3.org/Graphics/SVG/1.1/DTD/svg11.dtd">
<svg version="1.1" id="Layer_1" xmlns="http://www.w3.org/2000/svg" xmlns:xlink="http://www.w3.org/1999/xlink" x="0px" y="0px"
	 viewBox="0 0 841.9 595.3" enable-background="new 0 0 841.9 595.3" xml:space="preserve">
<circle fill="#FFFFFF" cx="421.8" cy="297.7" r="28.3"/>
<path fill="#60C6F2" d="M450.2,297.7c0,15.7-12.7,28.3-28.3,28.3c-15.7,0-28.3-12.7-28.3-28.3s12.7-28.3,28.3-28.3
	C437.5,269.3,450.2,282,450.2,297.7z M421.8,278.2c-10.7,0-19.4,8.7-19.4,19.4c0,10.7,8.7,19.4,19.4,19.4c10.7,0,19.4-8.7,19.4-19.4
	C441.3,286.9,432.6,278.2,421.8,278.2z"/>
<polyline fill="#E30613" points="430.5,295.5 434.4,290.6 430.4,290.6 428.5,293 430.5,295.5 "/>
<g>
	<path fill="#004F9F" d="M423.3,293c0.8,0,1.4,0.3,1.9,0.9c0.2,0.2,0.2,0.3,0.4,0.4c0.5,0.6,0.6,0.8,0.9,1.1
		c-0.3,0.3-0.4,0.6-0.9,1.1c-0.1,0.2-0.2,0.2-0.4,0.4c-0.5,0.6-1.2,0.9-1.9,0.9c-1.4,0-2.5-1.1-2.5-2.5
		C420.8,294.2,421.9,293,423.3,293 M421.4,300.7c-0.5-0.1-0.9-0.4-1.1-0.5c-1.6-1-2.6-2.7-2.6-4.7c0-3.1,2.5-5.6,5.6-5.6
		c1.5,0,3.1,0.6,4.3,2l0.1,0.1l0,0l-6.1-10.5l-11.2,19.3L421.4,300.7L421.4,300.7 M425.3,300.7L425.3,300.7l7.5,0.1v-0.1
		c0,0-0.1,0-0.2,0c-0.5-0.1-0.9-0.2-1.2-0.3c-1.1-0.5-2.1-1.4-2.9-2.3c0,0-0.6,0.8-1.1,1.4C426.6,300.3,425.7,300.6,425.3,300.7"/>
	<path fill="#004F9F" d="M432.5,307.9l0-5.2h1v2.8l1.3-1.4h1.2l-1.4,1.4l1.5,2.3h-1.2l-1-1.6l-0.4,0.4v1.2H432.5 M425.6,307.9h-1.1
		v-5.2h1.8c1.3,0,2.1,0.6,2.1,1.7c0,1.4-1,1.7-2.2,1.7c0,0-0.3,0-0.6,0V307.9 M425.6,303.6v1.6h0.8c0.6,0,1-0.2,1-0.8
		c0-0.6-0.4-0.8-1-0.8H425.6z M429.4,305.4l-0.9,0c0-0.2,0-1.3,1.6-1.3c0.8,0,1.7,0.3,1.7,1.3v2.1c0,0.1,0,0.2,0,0.2
		c0,0.1,0.1,0.1,0.1,0.1h-1.1c0,0,0-0.1-0.1-0.2c0-0.1,0-0.1,0-0.2c0,0-0.2,0.5-1,0.5c-0.7,0-1.5-0.4-1.5-1.1c0-0.5,0.3-0.8,0.6-1
		c0.3-0.1,0.7-0.2,1.3-0.3c0.4-0.1,0.5-0.1,0.6-0.3c0-0.3-0.3-0.5-0.6-0.5C429.3,304.8,429.4,305.4,429.4,305.4 M430.7,306.5V306
		c0,0,0,0-0.1,0.1c-0.2,0.1-0.4,0.1-0.6,0.2c-0.3,0.1-0.8,0.2-0.8,0.6c0,0.4,0.4,0.5,0.7,0.5C430.4,307.2,430.7,306.9,430.7,306.5z
		 M409.3,307.9v-4.3h1.6v-0.9h-4.2v0.9h1.6v4.3H409.3 M410.1,306.2c-0.1-1.1,0.7-2.1,1.8-2.1c2.1,0,1.9,2.3,1.9,2.3h-2.8
		c0,0,0,0.9,0.9,0.9c0.6,0,0.8-0.5,0.8-0.5l1.1,0.1c0,0-0.3,1.2-1.8,1.2C411.3,308.1,410.2,307.6,410.1,306.2 M412,304.9
		c-0.7,0-0.8,0.7-0.8,0.7h1.6C412.8,305.6,412.7,304.9,412,304.9z M416.8,307.9h1v-1.7c0-0.5,0.1-0.9,0.5-1.1
		c0.2-0.1,0.4-0.1,0.6-0.1v-0.9c0,0-0.2,0-0.3,0c-0.3,0-0.6,0.2-0.8,0.5c0,0,0,0.1-0.1,0.1l0-0.5h-1V307.9 M414,304.9h0.5v1.9
		c0,0.3,0,0.7,0.3,0.9c0.3,0.2,0.7,0.2,1.1,0.2c0.2,0,0.3,0,0.3,0l0-0.8H416c-0.2,0-0.3,0-0.3-0.1c-0.1-0.1-0.1-0.3-0.1-0.4v-1.8
		h0.7v-0.7h-0.7V303l-1,0v1.2l-0.5,0V304.9 M420.1,305.4l-0.9,0c0-0.2,0-1.3,1.6-1.3c0.8,0,1.7,0.3,1.7,1.3v2.1c0,0.1,0,0.2,0,0.2
		c0,0.1,0.1,0.1,0.1,0.1h-1.1c0,0,0-0.1-0.1-0.2c0-0.1,0-0.1,0-0.2c0,0-0.2,0.5-1,0.5c-0.7,0-1.5-0.4-1.5-1.1c0-0.5,0.3-0.8,0.6-1
		c0.3-0.1,0.7-0.2,1.3-0.3c0.4-0.1,0.5-0.1,0.6-0.3c0-0.3-0.3-0.5-0.6-0.5C420.1,304.8,420.1,305.4,420.1,305.4 M421.5,306.5V306
		c0,0,0,0-0.1,0.1c-0.2,0.1-0.4,0.1-0.6,0.2c-0.3,0.1-0.8,0.2-0.8,0.6c0,0.4,0.4,0.5,0.7,0.5C421.2,307.2,421.5,306.9,421.5,306.5z"
		/>
	<g>
		<g>
			<path fill="#004F9F" d="M437.9,300.8c0.9,0,1.7,0.8,1.7,1.7c0,0.9-0.8,1.7-1.7,1.7c-0.9,0-1.7-0.8-1.7-1.7
				C436.2,301.6,436.9,300.8,437.9,300.8z M437.9,303.9c0.8,0,1.4-0.6,1.4-1.4c0-0.8-0.6-1.4-1.4-1.4c-0.8,0-1.4,0.6-1.4,1.4
				C436.5,303.3,437.1,303.9,437.9,303.9z M437.2,301.6h0.7c0.5,0,0.7,0.2,0.7,0.6c0,0.3-0.2,0.5-0.5,0.5l0.5,0.8h-0.4l-0.5-0.8
				h-0.3v0.8h-0.4V301.6z M437.6,302.4h0.3c0.2,0,0.5,0,0.5-0.3c0-0.3-0.2-0.3-0.5-0.3h-0.3V302.4z"/>
		</g>
	</g>
</g>
<path fill-rule="evenodd" clip-rule="evenodd" fill="#FFFFFF" d="M399.8,294.2c0,0.8-0.6,1.4-1.4,1.4c-0.8,0-1.4-0.7-1.4-1.4
	c0-0.8,0.7-1.4,1.4-1.4C399.2,292.7,399.8,293.4,399.8,294.2"/>
<path fill-rule="evenodd" clip-rule="evenodd" fill="#FFFFFF" d="M443.9,294.2c0,0.8,0.7,1.4,1.5,1.4c0.8,0,1.4-0.7,1.4-1.4
	c0-0.8-0.7-1.4-1.4-1.4C444.5,292.7,443.9,293.4,443.9,294.2"/>
<g>
	<path fill="#FFFFFF" d="M402.2,306.2l0.6,1l-2.2,2.4l0,0l3.2-0.8l0.5,0.8l-2.1,2.6l0,0l3.1-1.1l0.6,0.9l-4.9,1.5l-0.5-0.8l2.2-2.7
		l0,0l-3.4,0.9l-0.5-0.8L402.2,306.2z"/>
	<path fill="#FFFFFF" d="M406.6,312.4l0.8,0.7l-1.2,1.4l1.6,1.4l1.2-1.4l0.8,0.7l-3.2,3.7l-0.8-0.7l1.4-1.6l-1.6-1.4l-1.4,1.6
		l-0.8-0.7L406.6,312.4z"/>
	<path fill="#FFFFFF" d="M411.7,316.2l0.8,0.4l-0.4,5.3l-1.1-0.6l0.1-1.1l-1.7-0.9l-0.8,0.7l-1.1-0.5L411.7,316.2z M411.4,317.6
		l-1.2,1.1l1.1,0.6L411.4,317.6z"/>
	<path fill="#FFFFFF" d="M414.9,318.6l-1.3-0.4l0.3-0.9l3.7,1.1l-0.3,0.9l-1.3-0.4l-1.1,3.8l-1-0.3L414.9,318.6z"/>
	<path fill="#FFFFFF" d="M418.7,320.5l-0.9-0.1l0.8-1.9l1,0.1L418.7,320.5z"/>
	<path fill="#FFFFFF" d="M422.6,320c-0.2-0.2-0.5-0.3-0.8-0.3c-0.3,0-0.7,0.1-0.7,0.5c0,0.9,2.2,0.4,2.2,2.1c0,1.1-0.9,1.6-1.9,1.6
		c-0.6,0-1.2-0.2-1.6-0.6l0.8-0.8c0.2,0.3,0.6,0.5,0.9,0.5c0.4,0,0.7-0.2,0.8-0.5c0-0.9-2.3-0.4-2.3-2.1c0-1,0.9-1.6,1.9-1.6
		c0.6,0,1.1,0.2,1.5,0.5L422.6,320z"/>
	<path fill="#FFFFFF" d="M431.9,321.3c-0.5,0.5-1.1,0.9-1.8,1.1c-1.4,0.5-2.8-0.1-3.3-1.6c-0.5-1.5,0.3-2.8,1.7-3.3
		c0.7-0.2,1.4-0.3,2,0l-0.5,1c-0.4-0.2-0.8-0.2-1.3-0.1c-0.9,0.3-1.2,1.1-1,2c0.3,0.9,1.1,1.3,1.9,1c0.4-0.1,0.7-0.4,0.9-0.5
		l-0.2-0.8l-0.8,0.3l-0.3-0.9l1.8-0.6L431.9,321.3z"/>
	<path fill="#FFFFFF" d="M433.2,315.3c1.3-0.8,2.8-0.6,3.6,0.7c0.8,1.3,0.5,2.8-0.8,3.6c-1.3,0.8-2.8,0.6-3.6-0.7
		C431.5,317.6,431.9,316.2,433.2,315.3z M435.4,318.8c0.8-0.5,0.9-1.4,0.4-2.1c-0.5-0.8-1.4-1-2.1-0.5c-0.8,0.5-0.9,1.4-0.4,2.1
		C433.8,319.1,434.6,319.3,435.4,318.8z"/>
	<path fill="#FFFFFF" d="M437.3,311.8c1-1.1,2.5-1.3,3.7-0.2c1.2,1.1,1.1,2.5,0.1,3.7c-1,1.1-2.5,1.3-3.7,0.2
		C436.3,314.4,436.3,312.9,437.3,311.8z M440.4,314.6c0.6-0.7,0.5-1.6-0.1-2.2c-0.7-0.6-1.6-0.6-2.2,0.1c-0.6,0.7-0.5,1.6,0.1,2.2
		C438.9,315.3,439.8,315.3,440.4,314.6z"/>
	<path fill="#FFFFFF" d="M439.5,309.4l0.8-1.4c0.7-1.4,1.9-2.2,3.5-1.4c1.4,0.7,1.5,2.3,0.9,3.6l-0.8,1.6L439.5,309.4z M443.4,310.3
		l0.3-0.5c0.5-0.9,0.5-1.7-0.5-2.2c-0.8-0.4-1.6,0-2,0.8l-0.3,0.6L443.4,310.3z"/>
</g>
<g>
	<g>
		<path fill="#FFFFFF" d="M402.4,280l1.3-1.3c0.7-0.7,1.6-1.1,2.4-0.2c0.8,0.8,0.5,1.6-0.3,2.3l-0.6,0.5l1.3,1.4l-0.8,0.8L402.4,280
			z M404.6,280.8l0.5-0.5c0.3-0.3,0.5-0.6,0.1-0.9c-0.4-0.4-0.8-0.1-1.1,0.2l-0.4,0.4L404.6,280.8z"/>
		<path fill="#FFFFFF" d="M406.6,276.3l1.6-1c0.8-0.5,1.7-0.7,2.3,0.3c0.4,0.6,0.3,1.2-0.2,1.7l2.1,1.1l-1.1,0.7l-1.9-1.1l-0.5,0.3
			l1,1.7l-0.9,0.6L406.6,276.3z M408.5,277.5l0.5-0.3c0.3-0.2,0.8-0.5,0.5-0.9c-0.3-0.4-0.7-0.2-1,0l-0.6,0.4L408.5,277.5z"/>
		<path fill="#FFFFFF" d="M414.1,272.5c1.5-0.4,2.8,0.2,3.3,1.7c0.5,1.5-0.3,2.8-1.8,3.2c-1.5,0.4-2.8-0.2-3.3-1.7
			C411.9,274.2,412.7,272.9,414.1,272.5z M415.4,276.4c0.9-0.3,1.3-1.1,1-1.9c-0.3-0.9-1-1.3-1.9-1.1c-0.9,0.3-1.3,1.1-1,1.9
			C413.7,276.2,414.5,276.7,415.4,276.4z"/>
		<path fill="#FFFFFF" d="M419.8,272.5l-1.4,0.1l-0.1-0.9l3.9-0.2l0.1,1l-1.4,0.1l0.2,3.9l-1.1,0.1L419.8,272.5z"/>
		<path fill="#FFFFFF" d="M424.2,271.5l3.3,0.5l-0.2,1l-2.2-0.3l-0.1,0.9l2.1,0.3l-0.2,1l-2.1-0.3l-0.2,1l2.3,0.4l-0.1,1l-3.4-0.5
			L424.2,271.5z"/>
		<path fill="#FFFFFF" d="M432.4,275c-0.1-0.3-0.3-0.6-0.7-0.7c-0.8-0.3-1.6,0.1-1.9,0.9c-0.3,0.8,0,1.7,0.7,2
			c0.4,0.2,0.8,0.1,1.1-0.1l0.6,1c-0.6,0.4-1.3,0.4-2,0.1c-1.4-0.6-2.1-1.9-1.5-3.4c0.6-1.4,2-2,3.4-1.4c0.5,0.2,1.1,0.6,1.3,1.3
			L432.4,275z"/>
		<path fill="#FFFFFF" d="M435.6,276.5l-1.1-0.8l0.5-0.8l3.2,2.2l-0.5,0.8l-1.1-0.8l-2.2,3.2l-0.9-0.6L435.6,276.5z"/>
		<path fill="#FFFFFF" d="M440.5,281c0-0.3-0.1-0.6-0.3-0.8c-0.2-0.2-0.6-0.4-0.9-0.2c-0.6,0.6,1.3,1.8,0.1,3
			c-0.8,0.8-1.8,0.5-2.5-0.2c-0.4-0.5-0.7-1-0.7-1.6l1.1,0c-0.1,0.4,0.1,0.7,0.3,1c0.2,0.3,0.6,0.4,0.9,0.2c0.6-0.6-1.3-1.9-0.1-3.1
			c0.8-0.7,1.8-0.5,2.4,0.2c0.4,0.4,0.6,0.9,0.7,1.4L440.5,281z"/>
	</g>
</g>
<g>
</g>
<g>
</g>
<g>
</g>
<g>
</g>
<g>
</g>
<g>
</g>
</svg>
