<?xml version="1.0" encoding="utf-8"?>
<!-- Generator: Adobe Illustrator 17.1.0, SVG Export Plug-In . SVG Version: 6.00 Build 0)  -->
<!DOCTYPE svg PUBLIC "-//W3C//DTD SVG 1.1//EN" "http://www.w3.org/Graphics/SVG/1.1/DTD/svg11.dtd">
<svg version="1.1" id="Lager_1" xmlns="http://www.w3.org/2000/svg" xmlns:xlink="http://www.w3.org/1999/xlink" x="0px" y="0px"
	 viewBox="0 0 1190.5 841.9" enable-background="new 0 0 1190.5 841.9" xml:space="preserve">
<g>
	<g>
		<rect x="905.9" y="330.6" fill="#008ECC" width="14.5" height="141.7"/>
		<g>
			<path fill="#008ECC" d="M205,472.4V330.6h-14.5L134,452L77.4,330.6H62.9l0,141.7h14.5V364.8l47.1,101.1l0.6,1.2
				c1.5,3.1,5.1,5.2,8.9,5.2c3.8,0,7.4-2.1,8.9-5.2l0.6-1.2l47.1-101.1v107.5H205z"/>
			<g>
				<polygon fill="#008ECC" points="106.1,330.6 90.1,330.6 134,424.7 142,407.6 				"/>
			</g>
		</g>
		<path fill="#008ECC" d="M454.6,431.7c-10.4,17.2-29.4,27.9-49.5,27.9c-32,0-58-26-58-58c0-32.1,26-58.2,58-58.2
			c18.3,0,35.8,8.7,46.7,23.3l3.3,4.4l11.6-8.3l-3.4-4.5c-14-18.6-35.2-29.3-58.2-29.3c-39.9,0-72.4,32.6-72.4,72.6
			c0,39.9,32.5,72.4,72.4,72.4c25.3,0,49.1-13.3,62-34.7l2.8-4.7l-12.4-7.7L454.6,431.7z"/>
		<path fill="#008ECC" d="M1060,431.7c-10.4,17.2-29.4,27.9-49.5,27.9c-32,0-58-26-58-58c0-32.1,26-58.2,58-58.2
			c18.3,0,35.8,8.7,46.7,23.3l3.3,4.4l11.6-8.3l-3.4-4.5c-14-18.6-35.2-29.3-58.2-29.3c-39.9,0-72.4,32.6-72.4,72.6
			c0,39.9,32.5,72.4,72.4,72.4c25.3,0,49.1-13.3,62-34.7l2.8-4.7l-12.4-7.7L1060,431.7z"/>
		<path fill="#008ECC" d="M672.9,329c-39.9,0-72.4,32.6-72.4,72.6c0,39.9,32.5,72.4,72.4,72.4c40,0,72.6-32.5,72.6-72.4
			C745.5,361.5,713,329,672.9,329 M672.9,459.6c-32,0-58-26-58-58c0-32.1,26-58.2,58-58.2c32.1,0,58.2,26.1,58.2,58.2
			C731.1,433.6,705,459.6,672.9,459.6"/>
		<g>
			<g>
				<polygon fill="#008ECC" points="809.6,330.6 791.2,330.6 857.6,415.4 857.6,392 				"/>
			</g>
			<g>
				<path fill="#008ECC" d="M866.4,468.9l-0.1-0.2C866.3,468.8,866.4,468.8,866.4,468.9z"/>
				<path fill="#008ECC" d="M883.6,330.6h-14.5V449l-92.6-118.4h-14.5v141.7h14.5l0-118.3l89.8,114.6c0,0,1.2,1.6,2.9,2.5
					c1.4,0.8,3,1.2,4.7,1.2c5.4,0,9.7-4.4,9.7-9.7l0,0l0,0V330.6z"/>
			</g>
		</g>
		<polygon fill="#008ECC" points="329.9,330.6 280.2,405 230.5,330.6 213.1,330.6 273,420.2 273,472.4 287.4,472.4 287.4,420.2 
			347.3,330.6 		"/>
		<path fill="#008ECC" d="M545.8,421.8c25,0,45.4-20.4,45.4-45.6c0-25.1-20.4-45.6-45.4-45.6h-49.3c-6.6,0-12,5.5-12,12.2v129.5H499
			V345.1h46.9c17.1,0,30.9,14,30.9,31.1c0,17.2-13.9,31.1-30.9,31.1h-29.3c-4.8,0-9.8,3.7-9.8,9.8c0,5.2,3.7,8,5.1,8.8l79.2,48.5
			l7.7-12.4L533,421.8H545.8z"/>
	</g>
</g>
<rect x="-79.2" y="188.9" fill="none" width="1296.6" height="425.2"/>
<g>
</g>
<g>
</g>
<g>
</g>
<g>
</g>
<g>
</g>
<g>
</g>
</svg>
