<?xml version="1.0" encoding="utf-8"?>
<!-- Generator: Adobe Illustrator 17.1.0, SVG Export Plug-In . SVG Version: 6.00 Build 0)  -->
<!DOCTYPE svg PUBLIC "-//W3C//DTD SVG 1.1//EN" "http://www.w3.org/Graphics/SVG/1.1/DTD/svg11.dtd">
<svg version="1.1" id="Layer_1" xmlns="http://www.w3.org/2000/svg" xmlns:xlink="http://www.w3.org/1999/xlink" x="0px" y="0px"
	 viewBox="0 0 297.6 420.9" enable-background="new 0 0 297.6 420.9" xml:space="preserve">
<g>
	<g>
		<defs>
			<rect id="SVGID_1_" x="7" y="68.9" width="283.5" height="283.5"/>
		</defs>
		<clipPath id="SVGID_2_">
			<use xlink:href="#SVGID_1_"  overflow="visible"/>
		</clipPath>
		<path clip-path="url(#SVGID_2_)" fill="#0054A1" d="M144.6,176.5c0-5.3-4.6-7-8.2-7c-2.4,0-4,0.2-5.2,0.3
			c-0.2,3.9-0.3,7.5-0.3,11.3v2.9c0.5,0.1,3,0.1,3.6,0C138.8,184,144.6,182.6,144.6,176.5 M236.3,157.4
			c9.9,12.1,17.9,31.3,19.1,47.4h0.2l8.2-85.1l4.6,0c0,0-5.3,55-8.3,82.3c-3.8,34.2-8.7,48.4-18.1,63.4l-1.4-6.5
			c7.3-12.8,9.4-23.9,10.3-29.8c3-18.3-1.3-43.3-14-62.8c-14.3-21.8-39.8-37.9-71.2-37.9c-25.8,0-48.1,11.3-63.8,29l-3.8-3
			c16.5-18.8,40.6-30.7,67.6-30.7C194,123.6,219.2,136.3,236.3,157.4 M190.6,204.5l-1.7,0c-2.1-2.9-24.5-26.2-26.4-28.2
			c-0.1,2-0.1,6.1-0.1,10c0,5.3,0.4,13.4,0.6,17.7c-0.5-0.1-1.3-0.2-2.3-0.2c-0.9,0-1.7,0.1-2.3,0.2c0.4-5.6,0.6-14.8,0.6-23.3
			c0-6.7-0.1-10.4-0.2-13.8l1.7,0c2.3,2.4,24.5,25.4,26.4,27.5c0.1-2,0.1-5.4,0.1-9.4c0-5.3-0.4-13.4-0.6-17.7
			c0.5,0.1,1.3,0.2,2.3,0.2c0.9,0,1.7-0.1,2.3-0.2c-0.4,5.6-0.6,14.8-0.6,23.3C190.4,197.3,190.5,201.1,190.6,204.5 M150.3,203.9
			c-0.5,0-2.3,0-3.3,0.2c-2.1-3.2-8.8-13.3-13.4-18c-0.1,0-2.7,0-2.7,0v4.2c0,4.6,0.2,9.2,0.4,13.8c-0.9-0.2-2.5-0.2-2.9-0.2
			s-2,0-2.9,0.2c0.2-4.6,0.4-9.2,0.4-13.8v-9.2c0-4.6-0.2-9.2-0.4-13.8c2,0.2,4.6,0.3,6.6,0.3c2,0,4-0.3,6.1-0.3
			c6,0,11.5,1.8,11.5,8.5c0,7.1-7.1,9.6-11.1,10.2c2.6,3.2,11.9,14.6,15,18.1C152.6,203.9,150.8,203.9,150.3,203.9 M119,204L119,204
			c-1.9-0.1-4.6-0.2-7.1-0.2c-1.5,0-2.9,0-4,0h-0.5c-3.2,0-8.2,0.1-11.5,0.3c0.2-4.6,0.4-9.3,0.4-13.8V181c0-4.6-0.2-9.2-0.4-13.7
			c3.2,0.2,8.1,0.3,11.3,0.3c3.2,0,9.1-0.1,11-0.3c-0.1,0.5-0.1,1.1-0.1,1.8c0,0.7,0.1,1.5,0.1,1.8c-3.5-0.3-9.8-0.7-16.7-0.7
			c-0.1,2.3-0.2,12-0.2,13.3c6.3,0,10.3-0.3,13.4-0.5c-0.1,0.5-0.2,1.5-0.2,2c0,0.5,0.1,1.3,0.2,1.9c-3.7-0.4-11.9-0.5-13.4-0.5
			c-0.1,1.8,0,13.3,0.1,14.3c3.9-0.1,13.9-0.4,17.5-0.7c-0.1,0.4-0.1,1.2-0.1,2C118.9,202.9,119,203.5,119,204 M85,256.9
			c-6.3-12.9-9.2-26-9.6-38.5c1.6,0,3.5,0.1,5.1,0.1c0.6,12,3.3,26.9,12.6,43.1C89.8,260.3,87.2,258.7,85,256.9 M56.8,185.7
			c0-11.4,8.7-19.1,20.4-19.1c4.6,0,9.8,1.4,12.7,2.7c-0.6,1.4-1.1,3.1-1.3,4.3l-0.3,0.1c-2.3-2.5-5.9-4.7-11.3-4.7
			c-6.8,0-14.7,5.5-14.7,16.6c0,10.7,8,16.4,15.2,16.4c6.4,0,9.5-3,12.3-5.3l0.2,0.2l-0.8,4.2c-1.3,1-5.7,3.7-12.3,3.7
			C65,204.7,56.8,197.2,56.8,185.7 M152.1,101.7c14,3.9,27.1,11.1,37.5,20.8c-3-0.8-6.1-1.5-9.2-1.9c-14.6-11.6-33.7-18.5-53.6-18.5
			c-47.1,0-85.6,38.4-85.6,85.6c0,47.2,38.4,85.6,85.6,85.6c47.2,0,85.6-38.4,85.6-85.6c0-18.3-6.9-36.5-16.3-49.4
			c2.3,0.7,5,1.8,8.2,3.7c6.4,9.7,12.3,25.5,17.4,49.8c5.3,25.5,32.7,147.4,35.7,160.6h33.2v-250l-138.3-0.8V101.7z M106.5,279.7
			c6.8,5.9,17.5,13.3,30.8,18c-1.1,1.2-2.3,2.5-3.6,3.8c-13.3-5.3-26.3-13.4-36.4-24.4C100.2,278.2,103.3,279,106.5,279.7 M7,68.9
			v283.5h84.6l83.7-89l-0.1-0.1c-13.5,9.5-30.5,14.6-48.9,14.6C92.1,278,62,257.7,49,232.5l-0.1,0.1l17.8,59.9h-4.8
			c0,0-8.8-30.4-16.3-56.8c-5.7-20-9.2-34.9-9.2-48c0.2-45.3,35.8-86.8,83.1-89.9c1.3-0.1,5.3-0.5,11.3-0.5
			c36.5,0,148.9,0.8,159.7,0.9V68.9H7z M230.7,273l1.3,5.8c-15.3,16.5-38.7,28.9-66,28.9c-5.8,0-11.9-0.6-18.7-2
			c1.4-1.5,2.7-2.9,3.9-4.2c4.4,0.8,9.4,1.3,14.5,1.3C192.3,302.8,215.4,290.9,230.7,273 M216.5,190.2c0.4,25-11,42-14.6,47.9
			c-3.1,5.1-10.7,15-25.1,30.4c-18.2,19.4-75.2,79.9-79,84h154.6l-35.6-162.2L216.5,190.2z"/>
	</g>
</g>
</svg>
