<?xml version="1.0" encoding="utf-8"?>
<!-- Generator: Adobe Illustrator 17.1.0, SVG Export Plug-In . SVG Version: 6.00 Build 0)  -->
<!DOCTYPE svg PUBLIC "-//W3C//DTD SVG 1.1//EN" "http://www.w3.org/Graphics/SVG/1.1/DTD/svg11.dtd">
<svg version="1.1" id="Layer_1" xmlns="http://www.w3.org/2000/svg" xmlns:xlink="http://www.w3.org/1999/xlink" x="0px" y="0px"
	 viewBox="0 0 841.9 595.3" enable-background="new 0 0 841.9 595.3" xml:space="preserve">
<g>
	<path fill="#0092D8" d="M478.5,290.9c0.9-4.2-0.3-11.2-0.3-11.2l-1.5,1.5c-0.6,0.7-1.4,1.6-2.1,2.6l0.1,0.8
		c1.3-1.9,2.4-3.1,3.1-3.8c0.3,1.8,0.4,4.8,0.3,7.2c0,1-0.2,2.1-0.4,3.1L478.5,290.9z"/>
	<path fill="#0092D8" d="M467.5,289.1c-0.8,1.8-1.5,3.6-1.8,5.9c-0.3,2,0.1,3.7,0.4,5.4c0.3,1.5,0.5,2.5,0.2,3.8l0.8-0.4
		c0-1.1-0.1-2.4-0.3-3.5c-0.2-1.2-0.6-2.6-0.6-3.9c0-0.4,0-0.9,0.1-1.4c0.2-1.8,0.5-2.7,1.1-4.1L467.5,289.1z"/>
	<path fill="#0092D8" d="M483.9,289.7c-2.4,0.1-7.4,1.1-11,4.1c-3.7,3-5.3,8.5-5.6,10.4l0,0.9c1.6-1,2.9-1.4,4.2-1.9
		c1.4-0.6,2.8-1.1,4.4-2.3c4.1-3.2,7-8.2,8.3-10.8l0.2-0.3L483.9,289.7z M472.9,294.5c3.5-3.1,7.9-3.9,10.4-4.2
		c-1.5,2.6-3.6,6.7-7.7,9.9c-1.6,1.2-2.9,1.7-4.3,2.2c-1.2,0.4-2,0.8-3.5,1.6C468.2,302,469.5,297.4,472.9,294.5z"/>
	<path fill="#0092D8" d="M419.9,332.2c-1.2,1-2.8,4.5-3.1,5.2c0.1-1-0.1-1.5,0.2-2.2c-0.4,0.2-1.3,0.2-2.2,1.2
		c0.3-1,1.8-2.8,3.6-4.4l-0.1-0.2c0.1,0-0.9,0.5-2.2,1.9c-1,1.1-1.7,1.8-2,3.4c0,0,0,0.9,0.4,0.2c0.5-0.7,1.4-1.1,1.9-1.3
		c-0.1,0.7-0.1,1.8-0.1,1.8s0.1,1.3,0.4,0.5c1-2.2,2.3-4.8,3.9-6.2L419.9,332.2z"/>
	<polygon fill="#0092D8" points="429.9,331.2 429.9,331.2 429.9,331.2 	"/>
	<path fill="#0092D8" d="M421.8,332.6c1.7,1.7,2.7,4,3.2,6.2l0.1,0.6c0,0,0.5-2.5,0.6-3.2c0.4,0.4,2.4,2.1,2.4,2.1
		c-0.2-1.1-0.6-2.5-1.6-4c-0.8-1.2-2.4-2.2-3-2.6l-0.2,0.4c0.5,0.3,1.6,0.7,2.6,2.1c0.5,0.7,1.2,1.9,1.3,2.8
		c-0.4-0.6-1.5-1.3-1.9-1.5c0,0.4-0.1,1.6-0.2,2.3c-0.4-1.6-0.5-1.8-1.3-3.2c-0.6-1-0.4-0.7-1.5-2L421.8,332.6z M424.1,330.6
		c0.9,0.3,7.4,2.3,7.5,2.6c0.1,0.3-0.9,0.5-1.4,0.3c-1.3-1-3.8-2.1-6.2-2.6l0,0.3c2.4,0.6,4.6,1.8,5.8,2.8c0.1,0,0.3,0.2,0.5,0.2
		c0.6,0,1.3-0.5,1.7-0.5c0.4,0,0.6-0.9,0-0.9c-0.6,0-6.7-2.3-7.8-2.5L424.1,330.6z M417.6,331.1c-2.4,0.6-5,1.8-6.3,2.7
		c-0.4,0.2-1.1-0.2-1-0.5c0.1-0.3,6-2.1,7.2-2.5v-0.3c-1.3,0.3-7,2.4-7.6,2.4c-0.6,0.1-0.2,0.9,0,1c0.3,0.1,0.8,0.5,1.4,0.5
		c0.2,0,0.5-0.2,0.6-0.2c1.2-1,3.6-2.2,5.9-2.8L417.6,331.1z"/>
	<path fill="#0092D8" d="M421.1,329.5c0.6-0.5,2.2-0.2,2.5,0.3c0.2,0.4,0.2,0.7-0.1,1.4c-0.2,0.6-1.1,1-1.6,1c-0.6,0-1-0.2-1.2-0.4
		l-0.3,0.2c0.2,0.3,0.9,0.7,1.4,0.7c1.1,0,1.9-0.5,2.2-1.4c0.2-0.5,0.3-1.2,0-1.7c-0.2-0.4-0.6-0.7-0.9-0.8
		c-0.4-0.2-1.1-0.2-1.6-0.1c-0.2,0.1-0.5,0.2-0.8,0.4L421.1,329.5z M420.7,330.3L420.7,330.3L420.7,330.3z"/>
	<path fill="#0092D8" d="M417.3,329.5c-0.2,0.5-0.1,1.4,0.3,2c0.3,0.5,0.8,0.8,1.3,0.8c0.8,0.1,2,0.4,2.5-1c0.4-1.4,0-2.5-1.1-2.7
		C419,328.4,417.6,328.7,417.3,329.5z M420.1,329c1.1,0.2,0.9,1.4,0.7,2.1c-0.2,0.8-0.8,0.8-1.9,0.7c-0.3,0-0.7-0.2-1-0.6
		c-0.2-0.3-0.4-0.7-0.4-1.1c0-0.2,0-0.3,0.1-0.4C418,328.9,419.1,328.6,420.1,329z"/>
	<path fill="#0092D8" d="M475.5,296c-2.4,1-4.6,3.3-6.4,6c-0.1,0.1,0,0.3,0,0.2c1.7-1.9,4.3-4.9,6.6-6
		C476.6,295.8,476.1,295.7,475.5,296z"/>
	<path fill="#0092D8" d="M481.6,264.2c-1-4.1-3.6-6.7-4.8-8.3l-0.3-0.4l-0.1,0.5l-0.5,1.6c-0.7,2.5-1.6,5.2-1.5,8.6l0.7,0.3
		c-0.4-2.6,1.1-7.4,1.7-9.7c1.6,2.1,3.5,4.3,4.1,7.7L481.6,264.2z"/>
	<path fill="#0092D8" d="M477.9,269.9c-1.3-2.7-6.9-7-6.9-7s0.2,5.8,0.7,8.1l0.7,0.3c-0.5-2.4-0.8-6.9-0.8-7.2
		c0.3,0.3,4.7,3.7,5.9,6.3L477.9,269.9z M477.3,280.6c-0.5-1.2-1.3-2-2.2-3.2l-0.1,0.8c0.9,1.2,1.6,2,1.9,2.8L477.3,280.6z"/>
	<path fill="#0092D8" d="M486,260.5c-2,1-6.2,4.1-8.2,8.5c-1.9,4.5-1,9.9-0.5,11.8l0.6-0.7l0.2,1.4c1-1.7,1.9-2.5,2.8-3.5
		c1-1.2,2-2.3,2.9-4.1c2.2-4.5,2.4-9.7,2.5-13.3l0-0.4L486,260.5z M477.8,280.3c-0.2-1.2-0.4-2.7-0.4-4.9c0-2.1,0.4-4.3,1.1-6.2
		c1-2.5,4.4-6,7.3-7.9c-0.1,3.5-0.3,8-2.7,12.5c-0.9,1.8-1.9,2.9-2.9,4c-0.8,0.9-1.1,1.3-2.1,2.7
		C478.1,280.4,477.8,280.5,477.8,280.3z"/>
	<path fill="#0092D8" d="M477.7,280.3c0,0.1,0.2-0.3,0.3-0.3c0.1,0,0.2,0.6,0.2,0.5c0.4-4.8,1.3-6.2,3.1-9.5c0-0.1,0-0.3-0.1-0.3
		C480.5,271.2,478.1,275.4,477.7,280.3z"/>
	<path fill="#0092D8" d="M475.9,288c-0.5,1.3-1,2.3-1,2.3c0,0.1,0,0.8,0,0.7l1.1-2.5C476.1,288.1,476.4,286.7,475.9,288z"/>
	<path fill="#0092D8" d="M473.6,269.2c1,1.1,2.6,4.6,3.2,6.8c0,0.1,0.1-0.6,0.1-0.7c-0.8-2.4-1.9-5.3-3.1-6.2
		C473.5,268.9,473.4,269,473.6,269.2z"/>
	<path fill="#0092D8" d="M478.2,268.8c0-2.5-0.3-4.8-0.6-5.8c0-0.3,0.1-0.2,0.1-0.1c0.7,2.5,0.6,3.3,0.6,5.8L478.2,268.8z"/>
	<path fill="#0092D8" d="M468.9,299.3c0.7-2,0.5-3.2,0.6-5.7c0.4,0,1,2.2,0,5.1L468.9,299.3z"/>
	<path fill="#0092D8" d="M464.1,312.7c2.7-3.5,3.5-9.3,3.5-9.3s-6.7,2.6-9.4,4.6l0.1,0.6c1-1.1,8.3-4,8.7-4.2
		c-0.5,1.9-1.4,5.3-3.6,8.1L464.1,312.7z"/>
	<path fill="#0092D8" d="M447.9,319.7c0.7-1.1,1.2-2.4,1.6-3.7c0.4-1.6,0.8-3,1.8-4.6c1-2.2,6.4-6.5,6.7-6.7c0,0.4,0.1,5.1-1.4,8.6
		l0.6-0.1c1.4-2.6,1.3-5.8,1.3-7.8l0.1-1.9l-1.3,1c-2.2,1.7-4.5,3.5-6.5,6.4c-1.1,1.6-1.5,3.4-2,5c-0.4,1.5-0.8,2.7-1.6,3.9
		L447.9,319.7"/>
	<path fill="#0092D8" d="M469.6,314.1c-2-1-7-2.5-11.7-1.4c-4.7,1.1-8.7,5.3-9.8,6.9h0.6l-0.4,0.9c1.9-0.2,3,0,4.3,0.1
		c1.5,0.1,3,0.2,5-0.1c4.9-0.9,9.2-3.9,12.1-5.9l0.3-0.2L469.6,314.1z M452.4,316.1c1.7-1.2,3.7-2.5,5.7-2.9c4.6-1,8.1,0.5,10.7,1.2
		c-2.9,2-6.4,4.6-11.4,5.4c-2,0.3-3.4,0.3-4.9,0.1c-1.2-0.1-2.5-0.2-3.8-0.2C449.4,318.8,450.5,317.5,452.4,316.1z"/>
	<path fill="#0092D8" d="M450.8,318.3c-0.1,0.1-0.5,0.5-0.4,0.6c0.1,0.1,0.6,0,0.7-0.1c4.3-2.2,5.5-2.4,8.6-3c0.1,0,0.3-0.2,0.2-0.2
		C459,315.3,455,316.1,450.8,318.3z"/>
	<path fill="#0092D8" d="M455.2,309.3c-1.2,1.8-3.2,5.9-3.6,6.6c0,0.1,0.7-0.2,0.7-0.3c0.4-1.3,2.2-4.9,3.2-6.3
		C455.9,309,455.4,309.1,455.2,309.3z"/>
	<path fill="#0092D8" d="M458.2,312.7c2-1.5,3.8-3.1,5.4-5c-1.4,2.4-2.7,3.5-4.9,5L458.2,312.7z"/>
	<path fill="#0092D8" d="M442.9,327c3.2-2.6,4.9-5.7,5.9-7.4l0.3-0.4l-0.4,0.1l-1.7,0.1c-2.6,0.2-5.1,0.2-8.3,1.4l-0.1,0.7
		c4.2-1.3,8.3-1.5,9.3-1.6c-1.1,1.7-2.9,4.7-5.8,6.8L442.9,327z"/>
	<path fill="#0092D8" d="M426,328.7c0.9-1,1.3-1.7,2-2.9c0.9-1.4,1.8-3.2,3.2-4.5c2.6-2.2,8.1-4,8.4-4.2c-0.1,0.4-2,6.4-4.2,8
		l0.6,0.2c2.1-2.1,3.3-5.5,3.9-7.5l0.6-1.8l-1.6,0.7c-2.6,1-5.6,1.9-8.3,4.1c-1.5,1.3-2.5,3.3-3.3,4.7c-0.8,1.3-1.5,2.3-2.8,3.7
		L426,328.7z"/>
	<path fill="#0092D8" d="M447.5,329.5c-1.9-1.4-5.8-4.1-10.6-4.4c-4.9-0.2-11.4,3.5-13,4.6l0,0.5l0.7-0.1c1.9,0.4,3.4,0.8,4.7,1.1
		c1.5,0.4,3,1,5,1.2c5,0.5,10-1.2,13.3-2.3l0.6-0.2L447.5,329.5z M430.7,326.9c2-0.7,4.2-1.3,6.2-1.2c4.5,0.3,7.1,2.2,9.9,4.1
		c-4,1.1-6.8,2.4-12.4,2c-2-0.1-3.5-0.8-5-1.2c-1.2-0.3-2.7-0.6-4.4-1C426,329,428.4,327.7,430.7,326.9z"/>
	<path fill="#0092D8" d="M438,328.8c0.1,0,0.6,0.3,0.6,0.4c0,0.1-0.6,0.1-0.7,0.1c-4.8-0.8-6-0.7-9.1-0.4c-0.1,0-0.3-0.1-0.2-0.2
		C429.2,328.4,433.3,328,438,328.8z"/>
	<path fill="#0092D8" d="M434.9,321.7c-1.1,1.7-4.3,4.2-4.9,4.8c-0.1,0.1,0.8,0,0.8-0.1c0.8-1.2,3.9-3.8,4.9-5.1
		C435.9,321,435,321.5,434.9,321.7z"/>
	<path fill="#0092D8" d="M438.2,325.5c2-1.6,3.3-2.2,5.6-3.1c0.6-0.4-0.6,0-1,0.1c-1.8,0.6-3.5,1.6-5.1,3L438.2,325.5z"/>
	<path fill="#0092D8" d="M364.2,290.8c-0.2-1-0.2-2-0.3-3c-0.1-2.3-0.1-5.2,0.2-7c0.5,0.5,1.1,1.1,2.4,2.5l0-0.9
		c-0.8-0.7-1-1-1.2-1.2l-1.5-1.5c0,0-1.1,7-0.2,11.1L364.2,290.8z"/>
	<path fill="#0092D8" d="M373.3,287.1c-0.4-0.4,2.1,4.6,2.5,7.9c0.1,0.5,0.1,0.9,0.1,1.4c0,1.4-0.3,2.7-0.6,3.9
		c-0.2,1.1-0.4,2.6-0.4,3.6l0.7,0.3c0-1.4,0-2.3,0.3-3.8c0.3-1.7,0.8-3.6,0.5-5.5c-0.4-3.4-3.1-8.9-3.1-8.9L373.3,287.1z"/>
	<path fill="#0092D8" d="M368.9,294.1c3.4,2.8,4.8,8,5.4,10c-1.5-0.8-2.3-1.2-3.5-1.6c-1.4-0.5-2.8-1.3-4.4-2.4
		c-4.3-3.2-6.4-7.2-7.7-9.9c1.7,0.1,4.7,0.6,7.4,1.9l0.1-0.6c-2.9-1.3-6.1-1.8-8-1.8l-0.4,0l0.2,0.3c1.3,2.6,4.2,7.6,8.3,10.8
		c1.7,1.2,3,1.7,4.4,2.3c1.3,0.5,2.5,0.8,4.1,1.8l0-0.8c-0.4-1.9-1.7-7.3-5.2-10.3L368.9,294.1z"/>
	<path fill="#0092D8" d="M366.5,296c2.4,1,4.6,3.3,6.4,6c0.1,0.1,0,0.3,0,0.2c-1.7-1.9-4.3-4.9-6.6-6
		C365.3,295.8,365.8,295.7,366.5,296z"/>
	<path fill="#0092D8" d="M361,264.5c1-3.5,2.7-5.6,4.1-7.6c1.3,4.3,2,8.4,1.8,9.8l0.7-0.5c0.1-3.3-0.9-5.9-1.6-8.4l-0.5-1.6
		l-0.1-0.5l-0.3,0.4c-1.2,1.5-3.6,4.3-4.8,8.1L361,264.5z"/>
	<path fill="#0092D8" d="M364.5,270.4c1.2-2.6,5.6-6,6-6.2c0,0.3-0.1,4.2-0.4,6.4l0.7-0.2c0.4-2.2,0.2-7.4,0.2-7.4s-5.7,4.2-6.9,7
		L364.5,270.4z M365.1,281.3c0.2-0.4,0.5-0.9,1.2-1.8l-0.1-0.9c-0.8,0.9-1.1,1.4-1.4,2.2L365.1,281.3z"/>
	<path fill="#0092D8" d="M355.6,260.3c0,0-0.8,7,2.5,13.6c0.9,1.8,1.9,2.8,2.9,4c0.9,1,1.7,1.7,2.7,3.4l0.2-1.2l0.6,0.7
		c0.5-1.9,1.3-7.2-0.5-11.8C361.9,263.5,355.6,260.3,355.6,260.3z M363.8,280.6c-0.9-1.5-1.2-1.9-2-2.9c-1-1.1-1.8-1.6-3-4
		c-2.3-4.5-2.5-8.3-2.6-12.6c2,1.1,5.8,3.9,7.4,8.1c0.7,1.9,1,4.1,1,6.1c0,2.1-0.1,3.6-0.3,4.8C364.2,280.4,363.8,280.5,363.8,280.6
		z"/>
	<path fill="#0092D8" d="M364.3,280.3c0,0.1-0.2-0.3-0.3-0.3c-0.1,0-0.2,0.6-0.2,0.5c-0.4-4.8-1.2-6.3-3.1-9.5
		c-0.1-0.1,0-0.3,0.1-0.3C361.5,271.2,363.9,275.4,364.3,280.3z"/>
	<path fill="#0092D8" d="M368.4,269.2c-1.1,1-2.7,4.6-3.2,6.8c0,0.1-0.1-0.6-0.1-0.7c0.6-2.4,2-5.4,3.1-6.2
		C368.5,268.9,368.5,269,368.4,269.2z"/>
	<path fill="#0092D8" d="M363.8,268.8c0-2.5,0.3-4.8,0.6-5.8c0-0.3-0.1-0.2-0.1-0.1c-0.7,2.5-0.6,3.3-0.6,5.8L363.8,268.8z"/>
	<path fill="#0092D8" d="M373.1,299.2c-0.4-2-0.6-3.8-0.7-5.7c-0.4,0-0.7,2.4,0.2,5.3L373.1,299.2z"/>
	<path fill="#0092D8" d="M383.9,308c-2.6-1.9-5.2-2.8-7.7-3.7l-1.6-0.6l-0.4-0.2l0.1,0.4c0.5,1.9,1.1,5.4,3.7,8.8l0.8-0.2
		c-2.2-2.9-3.1-6.1-3.7-8.1c0.4,0.2,7.8,3.2,8.7,4.2L383.9,308z"/>
	<path fill="#0092D8" d="M394.1,319.7l0.8,0c-0.9-1.2-1.2-2.4-1.6-3.9c-0.5-1.6-0.9-3.3-2-5c-2-2.9-4.4-4.7-6.6-6.4l-1.3-1l0.1,1.9
		c0,2.1-0.1,5.2,1.3,7.8l0.6,0c-1.4-2.5-1.4-8.1-1.4-8.5c0.3,0.2,4.8,3.7,6.7,6.5c1,1.6,1.4,3.2,1.9,4.8
		C393,317.2,393.4,318.5,394.1,319.7"/>
	<path fill="#0092D8" d="M372.1,314.3l0.3,0.2c2.9,2,7.2,5,12.1,5.9c2,0.4,3.5,0.3,5,0.1c1.4-0.1,2.4-0.3,4.3-0.1l-0.4-0.9h0.6
		c-1.1-1.7-5.1-5.8-9.8-6.9c-4.7-1.1-9.7,0.5-11.7,1.4L372.1,314.3z M393.2,319.7c-1.3,0-2.3,0.1-3.6,0.2c-1.5,0.1-2.9,0-4.9-0.3
		c-5-0.8-8.6-3.3-11.4-5.2c2.1-1,6.4-2.3,10.7-1.1c2,0.5,3.9,1.5,5.6,2.7C391.6,317.5,392.5,318.8,393.2,319.7z"/>
	<path fill="#0092D8" d="M391.2,318.3c0.1,0.1,0.5,0.5,0.4,0.6c-0.1,0.1-0.6,0-0.7-0.1c-4.3-2.2-5.5-2.4-8.6-3
		c-0.1,0-0.3-0.2-0.2-0.2C383,315.3,387,316.1,391.2,318.3z"/>
	<path fill="#0092D8" d="M386.9,309.3c1.2,1.8,3.2,5.9,3.6,6.6c0,0.1-0.7-0.2-0.7-0.3c-0.4-1.3-2.2-4.9-3.2-6.3
		C386.2,309,386.7,309.1,386.9,309.3z"/>
	<path fill="#0092D8" d="M383.8,312.7c-2-1.5-3.8-3.1-5.4-5c1.4,2.4,2.7,3.5,4.9,5L383.8,312.7z"/>
	<path fill="#0092D8" d="M399.5,326.6c-2.9-2.1-4.5-4.9-5.5-6.6c0.5,0,7.4,0.4,9.3,1.5l0-0.7c-3.1-1.4-5.7-1.2-8.3-1.4l-1.7-0.1
		l-0.5-0.1l0.3,0.4c1,1.7,2.5,4.8,5.7,7.4L399.5,326.6z"/>
	<path fill="#0092D8" d="M417.3,329.8l0.3-0.4c-1.6-1.5-2.2-2.4-3-3.8c-0.9-1.4-1.8-3.3-3.3-4.6c-2.5-2.4-10-4.9-10-4.9
		s2,6.8,4.5,9.2l0.7-0.2c-2-2.1-3.3-5.3-4.3-8c0.3,0.1,5.7,1.9,8.3,4.1c1.4,1.2,2.6,3.2,3.5,4.5C415,327.7,417.3,329.8,417.3,329.8z
		"/>
	<path fill="#0092D8" d="M393.6,330l0.6,0.2c3.4,1.1,8.3,2.8,13.3,2.3c2-0.2,3.4-0.7,4.8-1.3c1.3-0.5,3-0.9,5-1.2l0.2-0.4l-0.5-0.4
		c-1.6-1.1-7.2-4.3-12.1-4.1c-4.8,0.3-8.7,3-10.6,4.4L393.6,330z M416.6,329.5c-1.7,0.4-2.9,0.6-4.1,1c-1.4,0.5-2.9,0.9-4.9,1.2
		c-3.2,0.6-9.2-0.8-12.6-1.9c1.8-1.5,6.3-3.8,10-4c2-0.1,4.3,0.4,6.2,1.1C413.5,327.8,415.6,328.8,416.6,329.5z"/>
	<path fill="#0092D8" d="M404,328.8c-0.1,0-0.6,0.3-0.6,0.4c0,0.1,0.6,0.1,0.7,0.1c4.8-0.8,6-0.7,9.1-0.4c0.1,0,0.3-0.1,0.2-0.2
		C412.7,328.4,408.7,328,404,328.8z"/>
	<path fill="#0092D8" d="M407.1,321.8c1.1,1.7,4.3,4.2,4.9,4.8c0.1,0.1-0.7,0-0.8-0.1c-0.7-1.2-3.9-3.8-4.9-5.1
		C406.1,321,407,321.6,407.1,321.8z"/>
	<path fill="#0092D8" d="M403.8,325.5c-2-1.6-3.3-2.2-5.6-3.1c-0.6-0.4,0.6,0,1,0.1c1.8,0.6,3.5,1.6,5.1,3L403.8,325.5z"/>
	<path fill="#0092D8" d="M420.8,326.6c-0.1-0.1-0.2-0.4-0.2-0.4c-0.4-0.6-1.6-1.3-2.7-1.1c-0.7,0.1-1.1,0.4-1.3,0.9
		c-0.5,1.1,0.6,2.9,1.3,3.2l0.3-0.2c-1-0.8-1.6-2.1-1.2-2.8c0.1-0.3,0.5-0.6,1-0.7c0.4-0.1,0.8,0.1,1.2,0.2c-0.1,0-0.9,0-1.2,0.7
		c-0.3,0.7-0.2,1.6,0.5,2.4l0.4-0.1c-0.6-0.6-0.8-1.6-0.6-2.1c0.1-0.3,0.4-0.5,0.7-0.5c0.4,0,0.6,0,0.9,0.1c0.2,0.1,0.5,0.5,0.6,0.7
		c0.3,0.6,0.1,1.4-0.2,1.8l0.3,0.3C421,328.4,421.2,327.4,420.8,326.6z"/>
	<path fill="#0092D8" d="M419.3,326c0.8,0.7,0.5,2,0.4,2.5l0.4,0.1c0.2-0.6,0.4-1.9-0.7-2.8L419.3,326z"/>
	<path fill="#0092D8" d="M421.9,327c0.1-1.2,1.6-1.8,2.6-1.4c0.5,0.2,0.8,0.5,0.9,0.9c0.3,1.2-0.8,2.8-1.6,3.1l-0.3-0.5
		c1.1-0.6,1.6-1.6,1.5-2.4c0-0.3-0.2-0.7-0.6-0.9c-0.3-0.2-0.8-0.1-1.2,0c0.1,0,0.8,0.2,1.1,0.9c0.2,0.7-0.1,1.7-0.8,2.4l-0.4-0.1
		c0.5-0.6,1-1.5,0.9-2.1c-0.1-0.3-0.3-0.6-0.6-0.7c-0.2-0.1-0.5-0.1-0.5-0.1c-0.4,0.3-0.5,0.6-0.5,0.9c-0.1,0.7,0,1.4,0.1,1.7
		l-0.3,0C421.9,328.4,421.7,327.9,421.9,327z"/>
	<path fill="#0092D8" d="M422.6,326.1c-1.3,0.8-1.5,1.8-1.6,3l-0.4-0.2c0.2-1.7,1.2-2.8,2.4-3.3L422.6,326.1z"/>
	<path fill="#0092D8" d="M459,251.5c0.4-0.3,0.7-0.6,0.7-0.6l-2.6-4.2c0,0-3.6,1.5-4.1,1.7c-0.3-0.4-1.7-2.3-2-2.6
		c0.3-0.4,2.4-3.6,2.4-3.6l-3.6-3.5c0,0-3.2,2.3-3.6,2.6c-0.4-0.3-2.2-1.7-2.6-2c0.2-0.4,1.4-4.2,1.4-4.2l-0.5-0.3l-0.5,0.6
		c-0.2,0.5-1.4,4.1-1.4,4.1l3.5,2.7c0,0,3.1-2.3,3.5-2.6c0.4,0.3,2.3,2.2,2.6,2.5c-0.3,0.4-2.3,3.5-2.3,3.5l2.7,3.5
		c0,0,3.5-1.4,4-1.6c0.3,0.4,1.7,2.7,1.9,3.1c-0.1,0.1-0.4,0.3-0.8,0.7L459,251.5z M457.3,257.7c0,0,3.7-0.5,4.2-0.6
		c0.1,0.5,1,3.1,1.1,3.6c-0.5,0.2-3.9,2-3.9,2l0.5,2.5l1,0.2c-0.2-0.8-0.4-2-0.5-2.3c0.4-0.2,3.8-2,3.8-2l-1.5-4.8
		c0,0-2.7,0.4-3.8,0.5L457.3,257.7z M448.3,299.9c0.4-0.4,0.7-0.7,0.9-0.8c0.4,0.2,3.7,2.1,3.7,2.1l3.2-3.8c0,0-2.3-2.9-2.6-3.3
		c0.2-0.4,1.4-2.3,1.6-2.7c0.5,0.1,0.4,0.1,4.1,1.2l2.3-4.6c0,0-3-2.3-3.4-2.5c0.1-0.4,0.9-2.6,1-3c0.1,0,0.2-0.1,0.5-0.1l-1.2-0.7
		l-1.4,4.1c0,0,3.1,2.3,3.5,2.6c-0.2,0.4-1.4,2.9-1.6,3.4c-0.5-0.2-4.2-1.3-4.2-1.3l-2.3,3.8c0,0,2.4,2.9,2.7,3.3
		c-0.3,0.4-2,2.4-2.3,2.7c-0.5-0.3-3.8-2.1-3.8-2.1l-1.1,1L448.3,299.9z M397.6,307l0.5,0.4c0,0,2.8-2.6,3.2-2.9
		c0.4,0.2,2.3,1.2,2.7,1.4c-0.1,0.5-0.7,4.3-0.7,4.3l4.6,1.9c0,0,2-3.2,2.2-3.6c0.4,0.1,2.7,0.7,3.1,0.8c0,0.5,0.2,4.3,0.2,4.3
		l5,0.7c0,0,1.2-3.6,1.4-4.1c0.4,0,2.8,0,3.2,0c0.1,0.5,1.2,4.1,1.2,4.1l5-0.5c0,0,0.3-3.8,0.3-4.3c0.4-0.1,2.7-0.6,3.1-0.7
		c0.2,0.4,2.2,3.6,2.2,3.6l4.6-1.9c0,0-0.5-3.6-0.6-4.1c0.4-0.2,2.3-1.2,2.7-1.4c0.3,0.3,3,2.9,3,2.9l1.7-1.2l-0.4-0.6
		c-0.6,0.4-1.1,0.8-1.3,0.9c-0.4-0.4-3.1-3.1-3.1-3.1l-3.8,2c0,0,0.6,3.7,0.7,4.2c-0.4,0.2-2.9,1.1-3.3,1.3
		c-0.3-0.5-2.2-3.6-2.2-3.6l-4.3,0.9c0,0-0.2,3.8-0.2,4.4c-0.5,0.1-3.2,0.4-3.6,0.4c-0.1-0.5-1.2-4.1-1.2-4.1h-4.5
		c0,0-1.1,3.6-1.3,4.1c-0.5-0.1-3.2-0.4-3.7-0.5c0-0.5-0.1-4.3-0.1-4.3l-4.3-1.2c0,0-2,3.2-2.2,3.7c-0.5-0.2-2.9-1.1-3.3-1.3
		c0.1-0.5,0.8-4.4,0.8-4.4l-3.8-2c0,0-2.8,2.6-3.2,2.9L397.6,307z M387.4,251.7c-0.8-0.7-1.7-1.6-2-1.8c0.3-0.4,1.8-2.6,2-3
		c0.5,0.2,4,1.6,4,1.6l2.8-3.4c0,0-2.1-3.2-2.4-3.6c0.4-0.3,2.3-2.1,2.6-2.4c0.4,0.3,3.5,2.6,3.5,2.6l2.7-2l-0.4-0.6
		c-0.7,0.5-2,1.5-2.3,1.7c-0.4-0.3-3.6-2.6-3.6-2.6l-3.5,3.3c0,0,2.1,3.3,2.4,3.7c-0.3,0.3-1.9,2.2-2.1,2.5
		c-0.4-0.2-4.1-1.7-4.1-1.7l-2.7,4.1c0,0,0.9,0.9,1.8,1.7L387.4,251.7z M384.7,255.7c-1.3-0.2-2.8-0.4-2.8-0.4l-1.5,4.5
		c0,0,3.4,1.9,3.8,2.1c-0.1,0.2-0.2,1.1-0.4,1.9l0.8-0.2l0.5-2.1c0,0-3.3-1.9-3.8-2.1c0.2-0.5,1-2.9,1.1-3.3c0.3,0,1.7,0.2,2.8,0.4
		L384.7,255.7z M381.9,281.4c1.1,0,2.2,0,2.4,0c0.1,0.4,0.9,2.6,1,3c-0.4,0.3-3.7,2.6-3.7,2.6l2,4.4c0,0,3.8-1,4.3-1.1
		c0.2,0.4,1.5,2.5,1.7,2.9c-0.3,0.4-2.9,3.3-2.9,3.3l3.1,3.9c0,0,3.5-1.9,4-2.2c0.1,0.1,0.3,0.3,0.7,0.6l0.2-0.8l-0.9-0.8
		c0,0-3.4,1.9-3.9,2.1c-0.3-0.4-1.9-2.5-2.2-2.8c0.3-0.4,2.8-3.3,2.8-3.3l-2.3-3.8c0,0-3.7,0.9-4.2,1.1c-0.2-0.4-1.3-2.8-1.5-3.2
		c0.4-0.3,3.7-2.6,3.7-2.6l-1.4-4.1c0,0-0.6,0-1.4,0L381.9,281.4z M441.1,233l-0.3-0.2c0,0-2.4,3-2.7,3.3c-0.4-0.2-2.6-1.1-3-1.3
		c0-0.5,0.4-4.3,0.4-4.3l-4.8-1.3c0,0-0.2,0.5-0.5,1.1l0.3,1.1c0.3-0.6,0.6-1.2,0.7-1.3c0.5,0.1,3.1,0.8,3.6,0.9
		c0,0.5-0.3,4.2-0.3,4.2l4.1,1.8L441.1,233z M412.5,229.3l-3.3,0.9c0,0,0.2,4,0.2,4.4c-0.4,0.2-2.6,1-3,1.2
		c-0.3-0.4-2.6-3.6-2.6-3.6l-3.6,1.9l0.4,0.6c0.8-0.4,2.6-1.4,3-1.6c0.3,0.4,2.6,3.5,2.6,3.5l4.1-1.6c0,0-0.2-3.8-0.2-4.4
		c0.3-0.1,1.4-0.4,2.4-0.6L412.5,229.3z"/>
	<path fill="#0092D8" d="M428.9,285.5c4,4.6,6.6,8.8,6.6,10.8c0,0.2,0,0.4-0.1,0.5c-1,3-7.5,6.6-13.6,6.5
		c-5.4-0.1-11.2-3.1-12.7-6.5c-0.1-0.2-0.1-0.5-0.1-0.8c0-2,1.9-5.6,5.7-10.3l-0.6-0.7c-4.4,5.3-6.7,9.8-5.8,12
		c1.6,3.7,7.8,6.9,13.5,7c6,0.1,13.2-3.4,14.4-7c0.7-2.2-2.4-7.1-6.7-12.1L428.9,285.5z M425.5,280.7c-0.3-0.3-1.1-1.1-1.1-1.1
		s-1.2,0.6-2.7,0.5c-1.4,0-2.4-0.7-2.4-0.7s-0.9,0.9-1.2,1.2l0.5,0.6c0.3-0.3,0.6-0.5,0.9-0.8c0.8,0.4,1.5,0.5,2.3,0.5
		c1,0.1,1.6-0.1,2.5-0.4c0.3,0.2,0.5,0.4,0.8,0.7L425.5,280.7z"/>
	<path fill="#0092D8" d="M390.3,278.2c1.3,3.7,3.5,6.8,5.9,7.7c0.5,0.2,1.1,0.1,1.8-0.1l0.2-0.8c-0.7,0.2-1.3,0.3-1.7,0.2
		c-1.9-0.7-4.1-3.6-5.4-7.2L390.3,278.2z M401.7,284.1c2.1-1.3,4.4-3.1,6.3-4.7l-0.5-0.6c-1.7,1.5-3.8,3.1-5.6,4.3L401.7,284.1z
		 M395.9,259c0.2-0.1,0.4-0.2,0.6-0.3c0.9-0.4,2.6,0,4.8,1.2l1-0.3c-2.6-1.5-4.8-2.1-6.1-1.5c-0.3,0.1-0.6,0.3-0.8,0.4L395.9,259z"
		/>
	<path fill="#0092D8" d="M441.1,260.2c2.8-1.9,5-2.8,6-2.5c0.4,0.1,0.8,0.3,1.1,0.6l0.5-0.6c-0.5-0.3-0.9-0.6-1.4-0.7
		c-1.5-0.5-4.1,0.7-7.2,2.9L441.1,260.2z M440.4,281.9c-1.4-0.9-3-2.1-4.3-3.3l-0.5,0.6c1.5,1.3,3.4,2.7,5.1,3.7L440.4,281.9z
		 M451.8,278.9c-1.2,2.5-2.9,4.5-4.7,5.3c-0.7,0.3-1.7,0.1-3.1-0.4l0.2,0.8c1.3,0.5,2.5,0.6,3.2,0.3c2-0.8,3.8-3,5.1-5.7
		L451.8,278.9z"/>
	<path fill="#0092D8" d="M422.8,239.2c-0.4,0-0.7,0-1.1-0.1c-0.8,0-1.6,0-2.4,0.1l-0.2,0.8c0.8-0.1,1.7-0.1,2.6-0.1
		c0.4,0,0.9,0,1.3,0.1L422.8,239.2z"/>
	<path fill="#0092D8" d="M430.6,231.9c-0.1,0-0.2,0.1-0.2,0.2c0,0.1,0.1,0.2,0.2,0.2h4.3c0.1,0,0.2-0.1,0.2-0.2
		c0-0.1-0.1-0.2-0.2-0.2H430.6z"/>
	<path fill="#0092D8" d="M409.7,231.9c-0.1,0-0.2,0.1-0.2,0.2c0,0.1,0.1,0.2,0.2,0.2h2c0.1,0,0.2-0.1,0.2-0.2c0-0.1-0.1-0.2-0.2-0.2
		H409.7z"/>
	<path fill="#0092D8" d="M431.2,234c-0.1,0-0.2,0.1-0.2,0.2c0,0.1,0.1,0.2,0.2,0.2h3.5c0.1,0,0.2-0.1,0.2-0.2c0-0.1-0.1-0.2-0.2-0.2
		H431.2z"/>
	<path fill="#0092D8" d="M409.8,234c-0.1,0-0.2,0.1-0.2,0.2c0,0.1,0.1,0.2,0.2,0.2h1.4c0.1,0,0.2-0.1,0.2-0.2c0-0.1-0.1-0.2-0.2-0.2
		H409.8z"/>
	<path fill="#0092D8" d="M400.6,234c-0.1,0-0.2,0.1-0.2,0.2c0,0.1,0.1,0.2,0.2,0.2h4.2c0.1,0,0.2-0.1,0.2-0.2c0-0.1-0.1-0.2-0.2-0.2
		H400.6z"/>
	<path fill="#0092D8" d="M431.7,236.2c-0.1,0-0.2,0.1-0.2,0.2c0,0.1,0.1,0.2,0.2,0.2h5.6c0.1,0,0.2-0.1,0.2-0.2
		c0-0.1-0.1-0.2-0.2-0.2H431.7z"/>
	<path fill="#0092D8" d="M420.6,236.2c-0.1,0-0.2,0.1-0.2,0.2c0,0.1,0.1,0.2,0.2,0.2h1.4c0.1,0,0.2-0.1,0.2-0.2
		c0-0.1-0.1-0.2-0.2-0.2H420.6z"/>
	<path fill="#0092D8" d="M401.8,236.2c-0.1,0-0.2,0.1-0.2,0.2c0,0.1,0.1,0.2,0.2,0.2h8.8c0.1,0,0.2-0.1,0.2-0.2
		c0-0.1-0.1-0.2-0.2-0.2H401.8z"/>
	<path fill="#0092D8" d="M441.9,238.8c-0.1,0-0.2,0.1-0.2,0.2c0,0.1,0.1,0.2,0.2,0.2h1.6c0.1,0,0.2-0.1,0.2-0.2
		c0-0.1-0.1-0.2-0.2-0.2H441.9z"/>
	<path fill="#0092D8" d="M432.2,238.3c-0.1,0-0.2,0.1-0.2,0.2c0,0.1,0.1,0.2,0.2,0.2h5.2c0.1,0,0.2-0.1,0.2-0.2
		c0-0.1-0.1-0.2-0.2-0.2H432.2z"/>
	<path fill="#0092D8" d="M419.9,238.3c-0.1,0-0.2,0.1-0.2,0.2c0,0.1,0.1,0.2,0.2,0.2h2.6c0.1,0,0.2-0.1,0.2-0.2
		c0-0.1-0.1-0.2-0.2-0.2H419.9z"/>
	<path fill="#0092D8" d="M403.1,238.3c-0.1,0-0.2,0.1-0.2,0.2c0,0.1,0.1,0.2,0.2,0.2h6.9c0.1,0,0.2-0.1,0.2-0.2
		c0-0.1-0.1-0.2-0.2-0.2H403.1z"/>
	<path fill="#0092D8" d="M447.4,240.9c-0.1,0-0.2,0.1-0.2,0.2c0,0.1,0.1,0.2,0.2,0.2h3.9c0.1,0,0.2-0.1,0.2-0.2
		c0-0.1-0.1-0.2-0.2-0.2H447.4z"/>
	<path fill="#0092D8" d="M432.9,240.4c-0.1,0-0.2,0.1-0.2,0.2c0,0.1,0.1,0.2,0.2,0.2h3.2c0.1,0,0.2-0.1,0.2-0.2
		c0-0.1-0.1-0.2-0.2-0.2H432.9z"/>
	<path fill="#0092D8" d="M404.3,240.4c-0.1,0-0.2,0.1-0.2,0.2c0,0.1,0.1,0.2,0.2,0.2h5.2c0.1,0,0.2-0.1,0.2-0.2
		c0-0.1-0.1-0.2-0.2-0.2H404.3z"/>
	<path fill="#0092D8" d="M439.1,243.1c-0.1,0-0.2,0.1-0.2,0.2c0,0.1,0.1,0.2,0.2,0.2h13c0.1,0,0.2-0.1,0.2-0.2
		c0-0.1-0.1-0.2-0.2-0.2H439.1z"/>
	<path fill="#0092D8" d="M393,243.1c-0.1,0-0.2,0.1-0.2,0.2c0,0.1,0.1,0.2,0.2,0.2h10.6c0.1,0,0.2-0.1,0.2-0.2
		c0-0.1-0.1-0.2-0.2-0.2H393z"/>
	<path fill="#0092D8" d="M437.9,245.1c-0.1,0-0.2,0.1-0.2,0.2c0,0.1,0.1,0.2,0.2,0.2h13.1c0.1,0,0.2-0.1,0.2-0.2
		c0-0.1-0.1-0.2-0.2-0.2H437.9z"/>
	<path fill="#0092D8" d="M407.4,244.6c-0.1,0-0.2,0.1-0.2,0.2c0,0.1,0.1,0.2,0.2,0.2h1.1c0.1,0,0.2-0.1,0.2-0.2
		c0-0.1-0.1-0.2-0.2-0.2H407.4z"/>
	<path fill="#0092D8" d="M436.4,247.2c-0.1,0-0.2,0.1-0.2,0.2c0,0.1,0.1,0.2,0.2,0.2h15.4c0.1,0,0.2-0.1,0.2-0.2
		c0-0.1-0.1-0.2-0.2-0.2H436.4z"/>
	<path fill="#0092D8" d="M392,247.2c-0.1,0-0.2,0.1-0.2,0.2c0,0.1,0.1,0.2,0.2,0.2h13.9c0.1,0,0.2-0.1,0.2-0.2
		c0-0.1-0.1-0.2-0.2-0.2H392z"/>
	<path fill="#0092D8" d="M435.1,249.4c-0.1,0-0.2,0.1-0.2,0.2c0,0.1,0.1,0.2,0.2,0.2h23.3c0.1,0,0.2-0.1,0.2-0.2
		c0-0.1-0.1-0.2-0.2-0.2H435.1z"/>
	<path fill="#0092D8" d="M385.4,249.4c-0.1,0-0.2,0.1-0.2,0.2c0,0.1,0.1,0.2,0.2,0.2h21.5c0.1,0,0.2-0.1,0.2-0.2
		c0-0.1-0.1-0.2-0.2-0.2H385.4z"/>
	<path fill="#0092D8" d="M457.1,257.4c-0.1,0-0.2,0.1-0.2,0.2c0,0.1,0.1,0.2,0.2,0.2h4.7c0.1,0,0.2-0.1,0.2-0.2
		c0-0.1-0.1-0.2-0.2-0.2H457.1z"/>
	<path fill="#0092D8" d="M381.9,257.4c-0.1,0-0.2,0.1-0.2,0.2c0,0.1,0.1,0.2,0.2,0.2h4.4c0.1,0,0.2-0.1,0.2-0.2
		c0-0.1-0.1-0.2-0.2-0.2H381.9z"/>
	<path fill="#0092D8" d="M455.4,259.5c-0.1,0-0.2,0.1-0.2,0.2c0,0.1,0.1,0.2,0.2,0.2h7.3c0.1,0,0.2-0.1,0.2-0.2
		c0-0.1-0.1-0.2-0.2-0.2H455.4z"/>
	<path fill="#0092D8" d="M381.4,259.5c-0.1,0-0.2,0.1-0.2,0.2c0,0.1,0.1,0.2,0.2,0.2h7c0.1,0,0.2-0.1,0.2-0.2c0-0.1-0.1-0.2-0.2-0.2
		H381.4z"/>
	<path fill="#0092D8" d="M453,261.7c-0.1,0-0.2,0.1-0.2,0.2c0,0.1,0.1,0.2,0.2,0.2h8c0.1,0,0.2-0.1,0.2-0.2c0-0.1-0.1-0.2-0.2-0.2
		H453z"/>
	<path fill="#0092D8" d="M384.9,261.7c-0.1,0-0.2,0.1-0.2,0.2c0,0.1,0.1,0.2,0.2,0.2h5.6c0.1,0,0.2-0.1,0.2-0.2
		c0-0.1-0.1-0.2-0.2-0.2H384.9z"/>
	<path fill="#0092D8" d="M456.1,263.8c-0.1,0-0.2,0.1-0.2,0.2c0,0.1,0.1,0.2,0.2,0.2h3.2c0.1,0,0.2-0.1,0.2-0.2
		c0-0.1-0.1-0.2-0.2-0.2H456.1z"/>
	<path fill="#0092D8" d="M417.6,276.5c-0.1,0-0.2,0.1-0.2,0.2c0,0.1,0.1,0.2,0.2,0.2h8.3c0.1,0,0.2-0.1,0.2-0.2
		c0-0.1-0.1-0.2-0.2-0.2H417.6z"/>
	<path fill="#0092D8" d="M388.9,278.6c-0.1,0-0.2,0.1-0.2,0.2c0,0.1,0.1,0.2,0.2,0.2h2.2c0.1,0,0.2-0.1,0.2-0.2
		c0-0.1-0.1-0.2-0.2-0.2H388.9z"/>
	<path fill="#0092D8" d="M451,280.8c-0.1,0-0.2,0.1-0.2,0.2c0,0.1,0.1,0.2,0.2,0.2h5.5c0.1,0,0.2-0.1,0.2-0.2c0-0.1-0.1-0.2-0.2-0.2
		H451z"/>
	<path fill="#0092D8" d="M433.9,280.8c-0.1,0-0.2,0.1-0.2,0.2c0,0.1,0.1,0.2,0.2,0.2h4.7c0.1,0,0.2-0.1,0.2-0.2
		c0-0.1-0.1-0.2-0.2-0.2H433.9z"/>
	<path fill="#0092D8" d="M405.3,280.8c-0.1,0-0.2,0.1-0.2,0.2c0,0.1,0.1,0.2,0.2,0.2h4.4c0.1,0,0.2-0.1,0.2-0.2
		c0-0.1-0.1-0.2-0.2-0.2H405.3z"/>
	<path fill="#0092D8" d="M384.5,280.8c-0.1,0-0.2,0.1-0.2,0.2c0,0.1,0.1,0.2,0.2,0.2h7.5c0.1,0,0.2-0.1,0.2-0.2
		c0-0.1-0.1-0.2-0.2-0.2H384.5z"/>
	<path fill="#0092D8" d="M449.2,282.9c-0.1,0-0.2,0.1-0.2,0.2c0,0.1,0.1,0.2,0.2,0.2h9.2c0.1,0,0.2-0.1,0.2-0.2
		c0-0.1-0.1-0.2-0.2-0.2H449.2z"/>
	<path fill="#0092D8" d="M433.2,282.9c-0.1,0-0.2,0.1-0.2,0.2c0,0.1,0.1,0.2,0.2,0.2h7.1c0.1,0,0.2-0.1,0.2-0.2
		c0-0.1-0.1-0.2-0.2-0.2H433.2z"/>
	<path fill="#0092D8" d="M402.3,282.9c-0.1,0-0.2,0.1-0.2,0.2c0,0.1,0.1,0.2,0.2,0.2h6c0.1,0,0.2-0.1,0.2-0.2c0-0.1-0.1-0.2-0.2-0.2
		H402.3z"/>
	<path fill="#0092D8" d="M385.3,282.9c-0.1,0-0.2,0.1-0.2,0.2c0,0.1,0.1,0.2,0.2,0.2h7.8c0.1,0,0.2-0.1,0.2-0.2
		c0-0.1-0.1-0.2-0.2-0.2H385.3z"/>
	<path fill="#0092D8" d="M444.4,285.1c-0.1,0-0.2,0.1-0.2,0.2c0,0.1,0.1,0.2,0.2,0.2h13.3c0.1,0,0.2-0.1,0.2-0.2
		c0-0.1-0.1-0.2-0.2-0.2H444.4z"/>
	<path fill="#0092D8" d="M434.8,285.1c-0.1,0-0.2,0.1-0.2,0.2c0,0.1,0.1,0.2,0.2,0.2h6.8c0.1,0,0.2-0.1,0.2-0.2
		c0-0.1-0.1-0.2-0.2-0.2H434.8z"/>
	<path fill="#0092D8" d="M429.5,285.1c-0.1,0-0.2,0.1-0.2,0.2c0,0.1,0.1,0.2,0.2,0.2h2.2c0.1,0,0.2-0.1,0.2-0.2
		c0-0.1-0.1-0.2-0.2-0.2H429.5z"/>
	<path fill="#0092D8" d="M412,285.1c-0.1,0-0.2,0.1-0.2,0.2c0,0.1,0.1,0.2,0.2,0.2h2.5c0.1,0,0.2-0.1,0.2-0.2c0-0.1-0.1-0.2-0.2-0.2
		H412z"/>
	<path fill="#0092D8" d="M401.3,285.1c-0.1,0-0.2,0.1-0.2,0.2c0,0.1,0.1,0.2,0.2,0.2h5.9c0.1,0,0.2-0.1,0.2-0.2
		c0-0.1-0.1-0.2-0.2-0.2H401.3z"/>
	<path fill="#0092D8" d="M384.7,285.1c-0.1,0-0.2,0.1-0.2,0.2c0,0.1,0.1,0.2,0.2,0.2h10.8c0.1,0,0.2-0.1,0.2-0.2
		c0-0.1-0.1-0.2-0.2-0.2H384.7z"/>
	<path fill="#0092D8" d="M444.9,287.2c-0.1,0-0.2,0.1-0.2,0.2c0,0.1,0.1,0.2,0.2,0.2h14.9c0.1,0,0.2-0.1,0.2-0.2
		c0-0.1-0.1-0.2-0.2-0.2H444.9z"/>
	<path fill="#0092D8" d="M436.1,287.2c-0.1,0-0.2,0.1-0.2,0.2c0,0.1,0.1,0.2,0.2,0.2h6.1c0.1,0,0.2-0.1,0.2-0.2
		c0-0.1-0.1-0.2-0.2-0.2H436.1z"/>
	<path fill="#0092D8" d="M431.2,287.2c-0.1,0-0.2,0.1-0.2,0.2c0,0.1,0.1,0.2,0.2,0.2h1.9c0.1,0,0.2-0.1,0.2-0.2
		c0-0.1-0.1-0.2-0.2-0.2H431.2z"/>
	<path fill="#0092D8" d="M410.5,287.2c-0.1,0-0.2,0.1-0.2,0.2c0,0.1,0.1,0.2,0.2,0.2h2.3c0.1,0,0.2-0.1,0.2-0.2
		c0-0.1-0.1-0.2-0.2-0.2H410.5z"/>
	<path fill="#0092D8" d="M416.1,278.7c-0.1,0-0.2,0.1-0.2,0.2c0,0.1,0.1,0.2,0.2,0.2h10.8c0.1,0,0.2-0.1,0.2-0.2
		c0-0.1-0.1-0.2-0.2-0.2H416.1z"/>
	<path fill="#0092D8" d="M400.7,287.2c-0.1,0-0.2,0.1-0.2,0.2c0,0.1,0.1,0.2,0.2,0.2h5.1c0.1,0,0.2-0.1,0.2-0.2
		c0-0.1-0.1-0.2-0.2-0.2H400.7z"/>
	<path fill="#0092D8" d="M382.6,287.2c-0.1,0-0.2,0.1-0.2,0.2c0,0.1,0.1,0.2,0.2,0.2h14.7c0.1,0,0.2-0.1,0.2-0.2
		c0-0.1-0.1-0.2-0.2-0.2H382.6z"/>
	<path fill="#0092D8" d="M445.5,289.3c-0.1,0-0.2,0.1-0.2,0.2c0,0.1,0.1,0.2,0.2,0.2h14.7c0.1,0,0.2-0.1,0.2-0.2
		c0-0.1-0.1-0.2-0.2-0.2H445.5z"/>
	<path fill="#0092D8" d="M437.6,289.3c-0.1,0-0.2,0.1-0.2,0.2c0,0.1,0.1,0.2,0.2,0.2h5.3c0.1,0,0.2-0.1,0.2-0.2
		c0-0.1-0.1-0.2-0.2-0.2H437.6z"/>
	<path fill="#0092D8" d="M432.6,289.3c-0.1,0-0.2,0.1-0.2,0.2c0,0.1,0.1,0.2,0.2,0.2h1.9c0.1,0,0.2-0.1,0.2-0.2
		c0-0.1-0.1-0.2-0.2-0.2H432.6z"/>
	<path fill="#0092D8" d="M409.2,289.3c-0.1,0-0.2,0.1-0.2,0.2c0,0.1,0.1,0.2,0.2,0.2h2.1c0.1,0,0.2-0.1,0.2-0.2
		c0-0.1-0.1-0.2-0.2-0.2H409.2z"/>
	<path fill="#0092D8" d="M400,289.3c-0.1,0-0.2,0.1-0.2,0.2c0,0.1,0.1,0.2,0.2,0.2h4.4c0.1,0,0.2-0.1,0.2-0.2c0-0.1-0.1-0.2-0.2-0.2
		H400z"/>
	<path fill="#0092D8" d="M383.5,289.3c-0.1,0-0.2,0.1-0.2,0.2c0,0.1,0.1,0.2,0.2,0.2h13.3c0.1,0,0.2-0.1,0.2-0.2
		c0-0.1-0.1-0.2-0.2-0.2H383.5z"/>
	<path fill="#0092D8" d="M446.1,291.5c-0.1,0-0.2,0.1-0.2,0.2c0,0.1,0.1,0.2,0.2,0.2h8.1c0.1,0,0.2-0.1,0.2-0.2
		c0-0.1-0.1-0.2-0.2-0.2H446.1z"/>
	<path fill="#0092D8" d="M438.9,291.5c-0.1,0-0.2,0.1-0.2,0.2c0,0.1,0.1,0.2,0.2,0.2h4.8c0.1,0,0.2-0.1,0.2-0.2
		c0-0.1-0.1-0.2-0.2-0.2H438.9z"/>
	<path fill="#0092D8" d="M434.1,291.5c-0.1,0-0.2,0.1-0.2,0.2c0,0.1,0.1,0.2,0.2,0.2h1.9c0.1,0,0.2-0.1,0.2-0.2
		c0-0.1-0.1-0.2-0.2-0.2H434.1z"/>
	<path fill="#0092D8" d="M407.8,291.5c-0.1,0-0.2,0.1-0.2,0.2c0,0.1,0.1,0.2,0.2,0.2h1.8c0.1,0,0.2-0.1,0.2-0.2
		c0-0.1-0.1-0.2-0.2-0.2H407.8z"/>
	<path fill="#0092D8" d="M399.2,291.5c-0.1,0-0.2,0.1-0.2,0.2c0,0.1,0.1,0.2,0.2,0.2h3.8c0.1,0,0.2-0.1,0.2-0.2
		c0-0.1-0.1-0.2-0.2-0.2H399.2z"/>
	<path fill="#0092D8" d="M389.4,291.5c-0.1,0-0.2,0.1-0.2,0.2c0,0.1,0.1,0.2,0.2,0.2h6.9c0.1,0,0.2-0.1,0.2-0.2
		c0-0.1-0.1-0.2-0.2-0.2H389.4z"/>
	<path fill="#0092D8" d="M446.6,293.6c-0.1,0-0.2,0.1-0.2,0.2c0,0.1,0.1,0.2,0.2,0.2h6.3c0.1,0,0.2-0.1,0.2-0.2
		c0-0.1-0.1-0.2-0.2-0.2H446.6z"/>
	<path fill="#0092D8" d="M440.3,293.6c-0.1,0-0.2,0.1-0.2,0.2c0,0.1,0.1,0.2,0.2,0.2h4c0.1,0,0.2-0.1,0.2-0.2c0-0.1-0.1-0.2-0.2-0.2
		H440.3z"/>
	<path fill="#0092D8" d="M435.3,293.6c-0.1,0-0.2,0.1-0.2,0.2c0,0.1,0.1,0.2,0.2,0.2h2.3c0.1,0,0.2-0.1,0.2-0.2
		c0-0.1-0.1-0.2-0.2-0.2H435.3z"/>
	<path fill="#0092D8" d="M406.4,293.6c-0.1,0-0.2,0.1-0.2,0.2c0,0.1,0.1,0.2,0.2,0.2h2.6c0.1,0,0.2-0.1,0.2-0.2
		c0-0.1-0.1-0.2-0.2-0.2H406.4z"/>
	<path fill="#0092D8" d="M398.6,293.6c-0.1,0-0.2,0.1-0.2,0.2c0,0.1,0.1,0.2,0.2,0.2h3c0.1,0,0.2-0.1,0.2-0.2c0-0.1-0.1-0.2-0.2-0.2
		H398.6z"/>
	<path fill="#0092D8" d="M389.8,293.6c-0.1,0-0.2,0.1-0.2,0.2c0,0.1,0.1,0.2,0.2,0.2h5.9c0.1,0,0.2-0.1,0.2-0.2
		c0-0.1-0.1-0.2-0.2-0.2H389.8z"/>
	<path fill="#0092D8" d="M447.2,295.6c-0.1,0-0.2,0.1-0.2,0.2c0,0.1,0.1,0.2,0.2,0.2h7c0.1,0,0.2-0.1,0.2-0.2c0-0.1-0.1-0.2-0.2-0.2
		H447.2z"/>
	<path fill="#0092D8" d="M441.7,295.6c-0.1,0-0.2,0.1-0.2,0.2c0,0.1,0.1,0.2,0.2,0.2h3.3c0.1,0,0.2-0.1,0.2-0.2
		c0-0.1-0.1-0.2-0.2-0.2H441.7z"/>
	<path fill="#0092D8" d="M405.1,295.6c-0.1,0-0.2,0.1-0.2,0.2c0,0.1,0.1,0.2,0.2,0.2h3.5c0.1,0,0.2-0.1,0.2-0.2
		c0-0.1-0.1-0.2-0.2-0.2H405.1z"/>
	<path fill="#0092D8" d="M397.9,295.6c-0.1,0-0.2,0.1-0.2,0.2c0,0.1,0.1,0.2,0.2,0.2h2.4c0.1,0,0.2-0.1,0.2-0.2
		c0-0.1-0.1-0.2-0.2-0.2H397.9z"/>
	<path fill="#0092D8" d="M388.2,295.6c-0.1,0-0.2,0.1-0.2,0.2c0,0.1,0.1,0.2,0.2,0.2h7c0.1,0,0.2-0.1,0.2-0.2c0-0.1-0.1-0.2-0.2-0.2
		H388.2z"/>
	<path fill="#0092D8" d="M447.7,297.7c-0.1,0-0.2,0.1-0.2,0.2c0,0.1,0.1,0.2,0.2,0.2h7.2c0.1,0,0.2-0.1,0.2-0.2
		c0-0.1-0.1-0.2-0.2-0.2H447.7z"/>
	<path fill="#0092D8" d="M443.1,297.7c-0.1,0-0.2,0.1-0.2,0.2c0,0.1,0.1,0.2,0.2,0.2h2.5c0.1,0,0.2-0.1,0.2-0.2
		c0-0.1-0.1-0.2-0.2-0.2H443.1z"/>
	<path fill="#0092D8" d="M435.5,297.7c-0.1,0-0.2,0.1-0.2,0.2c0,0.1,0.1,0.2,0.2,0.2h4.9c0.1,0,0.2-0.1,0.2-0.2
		c0-0.1-0.1-0.2-0.2-0.2H435.5z"/>
	<path fill="#0092D8" d="M403.7,297.7c-0.1,0-0.2,0.1-0.2,0.2c0,0.1,0.1,0.2,0.2,0.2h5.7c0.1,0,0.2-0.1,0.2-0.2
		c0-0.1-0.1-0.2-0.2-0.2H403.7z"/>
	<path fill="#0092D8" d="M397.2,297.7c-0.1,0-0.2,0.1-0.2,0.2c0,0.1,0.1,0.2,0.2,0.2h1.7c0.1,0,0.2-0.1,0.2-0.2
		c0-0.1-0.1-0.2-0.2-0.2H397.2z"/>
	<path fill="#0092D8" d="M389,297.7c-0.1,0-0.2,0.1-0.2,0.2c0,0.1,0.1,0.2,0.2,0.2h5.6c0.1,0,0.2-0.1,0.2-0.2c0-0.1-0.1-0.2-0.2-0.2
		H389z"/>
	<path fill="#0092D8" d="M444.6,299.9c-0.1,0-0.2,0.1-0.2,0.2c0,0.1,0.1,0.2,0.2,0.2h1.6c0.1,0,0.2-0.1,0.2-0.2
		c0-0.1-0.1-0.2-0.2-0.2H444.6z"/>
	<path fill="#0092D8" d="M433.4,299.9c-0.1,0-0.2,0.1-0.2,0.2c0,0.1,0.1,0.2,0.2,0.2h8.4c0.1,0,0.2-0.1,0.2-0.2
		c0-0.1-0.1-0.2-0.2-0.2H433.4z"/>
	<path fill="#0092D8" d="M402.3,299.9c-0.1,0-0.2,0.1-0.2,0.2c0,0.1,0.1,0.2,0.2,0.2h9.2c0.1,0,0.2-0.1,0.2-0.2
		c0-0.1-0.1-0.2-0.2-0.2H402.3z"/>
	<path fill="#0092D8" d="M396.4,299.9c-0.1,0-0.2,0.1-0.2,0.2c0,0.1,0.1,0.2,0.2,0.2h1.1c0.1,0,0.2-0.1,0.2-0.2
		c0-0.1-0.1-0.2-0.2-0.2H396.4z"/>
	<path fill="#0092D8" d="M429.4,302c-0.1,0-0.2,0.1-0.2,0.2c0,0.1,0.1,0.2,0.2,0.2h13.9c0.1,0,0.2-0.1,0.2-0.2
		c0-0.1-0.1-0.2-0.2-0.2H429.4z"/>
	<path fill="#0092D8" d="M400.9,302c-0.1,0-0.2,0.1-0.2,0.2c0,0.1,0.1,0.2,0.2,0.2h14.4c0.1,0,0.2-0.1,0.2-0.2
		c0-0.1-0.1-0.2-0.2-0.2H400.9z"/>
	<path fill="#0092D8" d="M402.2,304.2c-0.1,0-0.2,0.1-0.2,0.2c0,0.1,0.1,0.2,0.2,0.2h42.5c0.1,0,0.2-0.1,0.2-0.2
		c0-0.1-0.1-0.2-0.2-0.2H402.2z"/>
	<path fill="#0092D8" d="M443.9,306.3c-0.1,0-0.2,0.1-0.2,0.2c0,0.1,0.1,0.2,0.2,0.2h2.1c0.1,0,0.2-0.1,0.2-0.2
		c0-0.1-0.1-0.2-0.2-0.2H443.9z"/>
	<path fill="#0092D8" d="M404.4,306.3c-0.1,0-0.2,0.1-0.2,0.2c0,0.1,0.1,0.2,0.2,0.2h33.9c0.1,0,0.2-0.1,0.2-0.2
		c0-0.1-0.1-0.2-0.2-0.2H404.4z"/>
	<path fill="#0092D8" d="M433,308.4c-0.1,0-0.2,0.1-0.2,0.2c0,0.1,0.1,0.2,0.2,0.2h5.7c0.1,0,0.2-0.1,0.2-0.2c0-0.1-0.1-0.2-0.2-0.2
		H433z"/>
	<path fill="#0092D8" d="M412.4,308.4c-0.1,0-0.2,0.1-0.2,0.2c0,0.1,0.1,0.2,0.2,0.2h17.8c0.1,0,0.2-0.1,0.2-0.2
		c0-0.1-0.1-0.2-0.2-0.2H412.4z"/>
	<path fill="#0092D8" d="M404.1,308.4c-0.1,0-0.2,0.1-0.2,0.2c0,0.1,0.1,0.2,0.2,0.2h5.1c0.1,0,0.2-0.1,0.2-0.2
		c0-0.1-0.1-0.2-0.2-0.2H404.1z"/>
	<path fill="#0092D8" d="M434.3,310.6c-0.1,0-0.2,0.1-0.2,0.2c0,0.1,0.1,0.2,0.2,0.2h3.3c0.1,0,0.2-0.1,0.2-0.2
		c0-0.1-0.1-0.2-0.2-0.2H434.3z"/>
	<path fill="#0092D8" d="M423.5,310.6c-0.1,0-0.2,0.1-0.2,0.2c0,0.1,0.1,0.2,0.2,0.2h5.3c0.1,0,0.2-0.1,0.2-0.2
		c0-0.1-0.1-0.2-0.2-0.2H423.5z"/>
	<path fill="#0092D8" d="M413.7,310.6c-0.1,0-0.2,0.1-0.2,0.2c0,0.1,0.1,0.2,0.2,0.2h5.3c0.1,0,0.2-0.1,0.2-0.2
		c0-0.1-0.1-0.2-0.2-0.2H413.7z"/>
	<path fill="#0092D8" d="M405.9,310.6c-0.1,0-0.2,0.1-0.2,0.2c0,0.1,0.1,0.2,0.2,0.2h2.2c0.1,0,0.2-0.1,0.2-0.2
		c0-0.1-0.1-0.2-0.2-0.2H405.9z"/>
	<path fill="#0092D8" d="M424.1,312.7c-0.1,0-0.2,0.1-0.2,0.2c0,0.1,0.1,0.2,0.2,0.2h4.6c0.1,0,0.2-0.1,0.2-0.2
		c0-0.1-0.1-0.2-0.2-0.2H424.1z"/>
	<path fill="#0092D8" d="M413.7,312.7c-0.1,0-0.2,0.1-0.2,0.2c0,0.1,0.1,0.2,0.2,0.2h4.7c0.1,0,0.2-0.1,0.2-0.2
		c0-0.1-0.1-0.2-0.2-0.2H413.7z"/>
	<g>
		<g>
			<g>
				<path fill="#0092D8" d="M433.9,245c4.8-7.3,9-13.9,12.1-18.7l-0.6-0.4l-11.8,18.2L433.9,245z M430,249.7l-1.4,2.2l0.8,0
					c0.3-0.5,0.6-1,0.9-1.4L430,249.7z M435.1,249.9l14-21.6l-0.7-0.5c-3.4,5.3-8.2,12.7-13.6,20.9L435.1,249.9z M425.1,258.6
					c0.4-0.7,0.8-1.3,1.3-2l-0.8,0l-1.2,1.8L425.1,258.6z M429.4,258.8l1.4-2.1l-1,0c-0.4,0.7-0.9,1.3-1.3,2L429.4,258.8z
					 M413.6,276.3c0.4-0.6,0.8-1.2,1.2-1.8l-0.9,0l-0.8,1.3L413.6,276.3z M416.2,279.1l3.1-4.7l-1,0c-0.9,1.4-1.8,2.7-2.6,4
					L416.2,279.1z M412.3,283.5c-9.6,14.7-17,26.3-17.2,26.5c-0.4-0.3-1.9-1.2-2.4-1.5c0.1-0.2,7.8-12,17.4-26.8l-0.4-0.7l-18,27.7
					l3.7,2.3l17.4-26.8L412.3,283.5z M453,222.2l1.6-2.5l-3.6-2.4l-1.7,2.5l0.5,0.5l1.3-2l2.4,1.6l-1.3,1.9L453,222.2z"/>
			</g>
			<path fill="#0092D8" d="M441.9,215.1l-4.2,6.4l21.9,14.3l1.3-2l-2.5-8.4l-16.4-10.6L441.9,215.1z M442.4,215.8
				c0.6,0.4,15.2,9.9,15.4,10c0.1,0.3,2.2,7.4,2.3,7.8c-0.1,0.2-0.4,0.6-0.6,0.9c-0.6-0.4-19.9-13-20.6-13.4
				C439.2,220.5,442,216.4,442.4,215.8z"/>
		</g>
	</g>
	<path fill="#0092D8" d="M452.5,262.8l11.7-11.6H463h-27.7l0.4,0.9c14,0,25.3,0,26.2,0c-0.5,0.5-4.8,4.8-10.4,10.3 M438.2,275.6
		c-2.2,2.2-4.3,4.3-6.3,6.2l0.6,0.7l6.8-6.7L438.2,275.6z M391.3,261.8c-5.2-5.2-9.2-9.1-9.7-9.6c0.8,0,11.6,0,25,0l0.2-0.9h-27.4
		l10.9,10.9L391.3,261.8z M403.8,275.5l17.9,17.8l9.4-9.3l-0.5-0.8c-5,5-8.7,8.6-8.9,8.8c-0.3-0.3-8.1-8-16.7-16.6L403.8,275.5z
		 M430.6,251.2h-17.9l-0.4,0.9c6,0,12.3,0,18.3,0L430.6,251.2z"/>
	<path fill="#0092D8" d="M445.8,261.1l4.7-4.7h-1.1h-12.6l0.2,0.9c6.2,0,10.7,0,11.3,0c-0.3,0.3-1.6,1.6-3.5,3.5L445.8,261.1z
		 M430.8,274.8c-0.7,0.7-1.4,1.4-2,2l0.5,0.8l2.7-2.7L430.8,274.8z M398.3,260.3c-1.6-1.6-2.6-2.6-2.9-2.9c0.6,0,4.4,0,9.8,0
		l0.2-0.9h-12.3l4,4L398.3,260.3z M411.3,274.7l10.4,10.4l6-6l-0.5-0.8c-3.1,3.1-5.3,5.3-5.5,5.5c-0.3-0.3-4.3-4.3-9.2-9.2
		L411.3,274.7z M432.1,256.4h-16.9l0.6,0.9c5.5,0,11.3,0,16.5,0L432.1,256.4z M412.2,256.4h-1.5l-0.2,0.9c0.8,0,1.6,0,2.4,0
		L412.2,256.4z"/>
	<g>
		<g>
			<path fill="#0092D8" d="M412.4,252.6l1.7-5c0.4-0.9,0.7-1.6,1.6-2.2c0.7-0.5,2.2-0.8,2.2-0.8l3.7-10.6l-0.5-1.2
				c-1.8,5.2-3.8,10.9-3.9,11.1c-0.2,0-0.4,0.1-0.4,0.1c-0.6,0.2-1,0.3-1.6,0.7c-1.1,0.7-1.6,1.6-2,2.7c0,0-0.6,1.8-1.5,4.6
				L412.4,252.6z M411,254.3c-0.5,1.4-1,3-1.5,4.6l0.9-0.1l1.2-3.7L411,254.3z M404,275.4c-3.9,11.8-8,24.2-9.9,30.2l1.5-2.1
				l9.4-28.3L404,275.4z M408.5,246.9c3.9-15.1,8-30.6,8-30.7l-0.6-0.7l-8,30.6L408.5,246.9z M407.2,248.7l-2.8,10.7l0.8-0.1
				c0.8-3.1,1.7-6.4,2.6-9.8L407.2,248.7z M400.1,276l-8.6,33.1l2,0.7l0.2-0.5l-1.2-0.7c0.1-0.3,3.9-15.1,8.5-32.8L400.1,276z"/>
			<path fill="#0092D8" d="M433.5,259.1l-3.9-12.2l0,0.1c-0.1-0.6-1.2-1.8-2-2.2c-0.6-0.4-1.8-0.6-3.1-0.8c-0.1-0.4-6.8-26.4-7-27.4
				l-0.9-0.5l7.3,28.5l0.2,0c0.9,0.2,2.5,0.4,3.1,0.8l0,0l0,0c0.6,0.3,1.5,1.3,1.6,1.6l0,0l0,0l3.9,12L433.5,259.1z M438,275.6
				l9.1,28.5l1.3,1.8c-1.5-4.7-5.6-17.5-9.6-30L438,275.6z M438,259.7L426.3,215l-0.6,0.7c0,0.1,6.8,26,11.5,43.9L438,259.7z
				 M441.6,276.3c4.5,17,8.1,31,8.2,31.3c-0.3,0.1-0.5,0.1-0.7,0.2l-0.6,0.5l0.1,0.4l2.1-0.5l-8.3-31.6L441.6,276.3z M427.6,244.7
				C427.6,244.7,427.6,244.7,427.6,244.7L427.6,244.7C427.6,244.7,427.6,244.7,427.6,244.7z"/>
			<path fill="#0092D8" d="M426.7,274.5c11.6,17.2,22,32.7,22.2,32.9c-0.3,0.2-0.7,0.5-1,0.7c-0.2-0.3-10.9-16.1-22.7-33.6l-0.9,0
				l23.5,34.8l2.2-1.5l-22.4-33.2H426.7z M395.2,226.4l-2.3,1.5l20.7,30.7h1c-0.4-0.6-20.6-30.5-20.8-30.7c0.3-0.2,0.7-0.5,1.1-0.7
				c0.1,0.2,20.7,30.7,21.1,31.3l0.8,0L395.2,226.4z"/>
			<path fill="#0092D8" d="M385.2,224.6l2.1,3.1l2.7-1.8l-2.1-3.1L385.2,224.6z M388,223.6c0.3,0.4,0.9,1.4,1.2,1.8
				c-0.4,0.3-1.4,0.9-1.7,1.2c-0.3-0.4-1-1.4-1.2-1.8C386.6,224.6,387.7,223.9,388,223.6z"/>
			<path fill="#0092D8" d="M385.5,220l6.3,9.4l4.9-3.4l-6.3-9.4L385.5,220z M390.2,217.7c0.4,0.5,5.1,7.5,5.4,8.1
				c-0.5,0.3-3.2,2.2-3.7,2.6c-0.3-0.5-4.9-7.3-5.4-8.1C387,219.9,389.7,218,390.2,217.7z"/>
			<path fill="#0092D8" d="M414.2,211.4L414.2,211.4c0,1.8,0.7,3.6,2,4.8c1.3,1.3,3,2,4.8,2c1.8,0,3.5-0.7,4.8-2c1.3-1.3,2-3,2-4.8
				c0-3.7-3.1-6.8-6.8-6.8C417.3,204.6,414.3,207.7,414.2,211.4z M421,205.3c3.3,0,6.1,2.7,6,6c0,1.6-0.6,3.2-1.8,4.3
				c-1.1,1.1-2.7,1.8-4.3,1.7c-1.6,0-3.1-0.6-4.2-1.7c-1.2-1.1-1.8-2.7-1.8-4.3C415,208.1,417.7,205.3,421,205.3z"/>
			<path fill="#0092D8" d="M418,211.4L418,211.4c0,0.8,0.3,1.6,0.9,2.2c0.6,0.5,1.3,0.9,2.1,0.9c0.8,0,1.5-0.3,2.1-0.8
				c0.6-0.6,0.9-1.3,0.9-2.1c0-1.6-1.4-3-3-3C419.4,208.4,418,209.8,418,211.4z M421,209.1c1.2,0,2.2,1,2.2,2.2
				c0,0.6-0.2,1.2-0.7,1.6c-0.4,0.4-1,0.6-1.6,0.6c-0.6,0-1.2-0.2-1.6-0.6c-0.4-0.4-0.7-1-0.7-1.6
				C418.8,210.1,419.8,209.1,421,209.1z"/>
			<path fill="#0092D8" d="M418.4,211.1c-0.1,0-0.1,0.5,0,0.5h5.2c0.1,0,0.1-0.5,0-0.5H418.4z"/>
		</g>
	</g>
	<path fill="#0092D8" d="M398.6,240.9c-0.1,0-0.2,0.1-0.2,0.2c0,0.1,0.1,0.2,0.2,0.2h3.3c0.1,0,0.2-0.1,0.2-0.2
		c0-0.1-0.1-0.2-0.2-0.2H398.6z"/>
	<path fill="#0092D8" d="M392.1,240.9c-0.1,0-0.2,0.1-0.2,0.2c0,0.1,0.1,0.2,0.2,0.2h5.8c0.1,0,0.2-0.1,0.2-0.2
		c0-0.1-0.1-0.2-0.2-0.2H392.1z"/>
	<path fill="#0092D8" d="M406,242.6c-0.1,0-0.2,0.1-0.2,0.2c0,0.1,0.1,0.2,0.2,0.2h3c0.1,0,0.2-0.1,0.2-0.2c0-0.1-0.1-0.2-0.2-0.2
		H406z"/>
	<path fill="#0092D8" d="M393.7,245.1c-0.1,0-0.2,0.1-0.2,0.2c0,0.1,0.1,0.2,0.2,0.2h11c0.1,0,0.2-0.1,0.2-0.2
		c0-0.1-0.1-0.2-0.2-0.2H393.7z"/>
	<path fill="#0092D8" d="M436,295.6c-0.1,0-0.2,0.1-0.2,0.2c0,0.1,0.1,0.2,0.2,0.2h2.8c0.1,0,0.2-0.1,0.2-0.2c0-0.1-0.1-0.2-0.2-0.2
		H436z"/>
	<path fill="#0092D8" d="M440.7,240.9c-0.1,0-0.2,0.1-0.2,0.2c0,0.1,0.1,0.2,0.2,0.2h4.4c0.1,0,0.2-0.1,0.2-0.2
		c0-0.1-0.1-0.2-0.2-0.2H440.7z"/>
	<path fill="#0092D8" d="M437.7,258.4c-0.1,0-0.2,0.1-0.2,0.2c0,0.1,0.1,0.2,0.2,0.2h5.2c0.1,0,0.2-0.1,0.2-0.2
		c0-0.1-0.1-0.2-0.2-0.2H437.7z"/>
	<path fill="#0092D8" d="M399.6,258.4c-0.1,0-0.2,0.1-0.2,0.2c0,0.1,0.1,0.2,0.2,0.2h5.2c0.1,0,0.2-0.1,0.2-0.2
		c0-0.1-0.1-0.2-0.2-0.2H399.6z"/>
	<path fill="#0092D8" d="M433.3,242.6c-0.1,0-0.2,0.1-0.2,0.2c0,0.1,0.1,0.2,0.2,0.2h1.4c0.1,0,0.2-0.1,0.2-0.2
		c0-0.1-0.1-0.2-0.2-0.2H433.3z"/>
	<polygon fill="#0092D8" points="379.6,275.6 383.3,275.6 385.2,273.2 385.6,273.4 383.2,276.4 379.4,276.3 379.6,275.6 	"/>
	<polygon fill="#0092D8" points="378.5,278.2 380.5,269 388.2,273.8 389.3,274 386.4,275.2 386.7,274.5 380.8,270.7 379.2,277.9 
		379.7,278.2 377.9,279.1 378.5,278.2 	"/>
	<polygon fill="#0092D8" points="386.4,267 389.4,266.2 389.2,266.7 394.9,271.4 396.9,264.9 396.5,264.5 398.6,264 397.6,264.8 
		395,273.2 387.7,267.1 	"/>
	<polygon fill="#0092D8" points="414.2,262.4 415.4,262.4 423.2,268.3 423.2,262.7 422.6,262.4 424.4,262.4 423.8,262.7 
		423.8,270.6 415.8,264.3 415.8,270.1 416.3,270.3 414.6,270.3 415.2,270.1 415.2,263 414.2,262.4 	"/>
	<polygon fill="#0092D8" points="402.2,269.4 405.8,270.3 408.3,268.6 408.6,268.9 405.5,271.1 401.8,270 402.2,269.4 	"/>
	<polygon fill="#0092D8" points="400.5,271.6 405,263.1 410.9,270 412,270.4 408.9,270.9 409.3,270.4 404.7,264.9 401.2,271.4 
		401.5,271.9 399.8,272.1 400.5,271.6 	"/>
	<polygon fill="#0092D8" points="442.8,264.3 450.5,266 451,267.1 450,266.4 444.9,265.2 444.2,267.7 448,268.6 448.8,268.2 
		448.3,269.8 447.9,269.1 444.1,268.2 443.3,272 448.5,273.3 449.9,273.1 448.8,273.9 441,272.1 441.8,271.7 443.3,265 442.8,264.3 
			"/>
	<path fill="#0092D8" d="M437.6,270.3c0,0-2.4,0.9-3.9,0.5c-2.1-0.6-4-2-3.7-4.1c0.2-2.3,2.1-3.6,4.9-3.3c1.3,0.2,2.3,0.4,3.3,1.3
		l0.3-0.6c0,0.1-1.8-1-3.6-1.2c-3.2-0.5-6.2,0.6-6.6,3.4c-0.4,2.8,2.1,4.8,5.3,5.1c1,0.1,2.3,0.1,4.2-0.6
		C438.2,270.6,437.6,270.3,437.6,270.3z"/>
	<polygon fill="#0092D8" points="456.5,268 463.7,271.1 454.7,275.3 460,277.7 461.5,277.7 460.2,278.3 452.1,274.9 461.4,270.6 
		456.6,268.6 455.1,268.4 	"/>
	<path fill="#0092D8" d="M373.4,286.8c-0.1,0.1,0.1,0.7,0.2,0.6c8-7.9,25.5-12.8,46.6-12.8c25.2,0,42.1,7.3,47.2,14
		c0.1,0.1,0.3-0.4,0.2-0.6c-5.1-6.8-22-14-47.4-14C399,274.1,381.5,278.8,373.4,286.8z"/>
	<path fill="#0092D8" d="M371.1,271.1c-2.7,1.5-3.7,2.7-3.9,3.7c0,0.1,0.4-0.1,0.4-0.2c0.2-0.8,1.2-1.8,3.7-3.1
		c5.9-3.2,21-11.6,49.2-11.6c18.3,0,34.5,3.8,49.3,11.8c2,1.1,3.4,2,4.1,3.1c0.1,0.1,0.4,0.2,0.3,0.1c-0.7-1.2-2.2-2.4-4.2-3.5
		c-14.9-8-31.1-11.9-49.5-11.8C392.3,259.4,377,267.8,371.1,271.1z"/>
	<path fill="#0092D8" d="M373.2,285.8l0.2,0.3c7.7-7.8,25.6-12.7,46.3-12.7c26.1,0,41.9,7,47.8,13.7l0.1-0.3
		c-6-6.7-21.7-13.7-48-13.7C399,273,381,277.9,373.2,285.8z"/>
	<path fill="#0092D8" d="M366,275.8c0,1.1,1.9,2,4.2,2c2.4,0,4.2-0.9,4.2-2l0,0c0-1.1-1.8-1.9-4.2-2
		C367.9,273.9,366,274.8,366,275.8z M366.4,275.8c0-0.7,1.6-1.5,3.8-1.6c2.3,0.1,3.8,0.9,3.8,1.6c0,0.9-1.8,1.6-3.8,1.6
		C368.2,277.4,366.4,276.7,366.4,275.8z"/>
	<path fill="#0092D8" d="M370.1,274.9c-0.8,0-1.8,0.1-2.2,0.5l-0.1,0.4c0,0,0,0.1,0.1,0.3c0.3,0.3,1.2,0.5,2.2,0.5
		c1,0,1.9-0.2,2.2-0.5c0,0,0.1-0.3,0.1-0.3c0,0-0.1-0.4-0.1-0.4C371.9,275,370.9,274.9,370.1,274.9z M372,275.7L372,275.7
		c0,0.1,0,0.1,0,0.1c-0.1,0.1-0.8,0.4-1.9,0.4c-1.1,0-1.9-0.2-1.9-0.4c0,0,0-0.1,0-0.1c0.2-0.2,0.9-0.4,1.9-0.4
		C371.2,275.3,371.8,275.5,372,275.7z"/>
	<path fill="#0092D8" d="M466.9,275.8c0.2,1.6,0.9,6.1,0.9,8.2c0,2.6-0.8,8.2-0.8,8.3c0,0.3,0.1,0.6,0.4,0.9c0.7,0.7,2.1,1.1,3.8,1
		c1.6,0,3.1-0.4,3.8-1.1c0.2-0.2,0.5-0.7,0.4-1c-0.1-0.6-0.4-5.2-0.5-8.1c0-3.1,0.5-8.2,0.5-8.2c0.1-0.4-0.1-2.7-3-4.5
		c-14-8.6-31.5-13.1-52.2-13.1c-21.9,0-40.7,5.1-52.3,13.8c-1.3,1-2,2.5-2,4.1c0,0.1,0.6,6.5,0.6,7.9c0,2.9-0.5,7.4-0.6,8.1
		c0,0.5,0.2,0.8,0.4,1c0.7,0.7,2.2,1.1,3.8,1.1c1.7,0,3.1-0.4,3.8-1c0.3-0.3,0.4-0.6,0.4-0.9c0-0.1-0.8-5.7-0.8-8.3
		c0-2,0.7-6,0.9-7.6c0.1-0.8-0.3-1.1-0.2-0.9c0.3,0.9-0.4,1.3-0.4,1.3c-0.2,1.6-1,4.1-1,7.3c0,2.7,0.8,8.3,0.8,8.3
		c0,0.2,0,0.2-0.2,0.4c-0.6,0.6-1.8,0.9-3.3,0.9c-1.5,0-2.9-0.3-3.5-1c-0.2-0.2-0.3-0.4-0.3-0.5c0.1-0.3,0.1-1,0.2-2.7
		c0.1-1.5,0.3-3.7,0.3-5.4c0-1.4-0.6-7.9-0.6-8c0-1.3,0.6-2.8,1.8-3.7c11.6-8.7,30.2-13.7,52-13.8c20.6,0,38,4.6,51.9,13.1
		c2.6,1.6,2.8,3.6,2.7,4c0,0.1-0.6,5.2-0.7,8.2c0,1.7,0.2,3.9,0.3,5.4c0.1,1.7,0.1,2.3,0.2,2.7c0,0.2-0.1,0.4-0.3,0.6
		c-0.6,0.6-1.8,1-3.3,1c-1.5,0-2.9-0.3-3.4-0.9c-0.2-0.2-0.2-0.3-0.2-0.5c0,0,0.8-5.5,0.8-8.2c0-2.1-0.5-5.8-0.7-7.4L466.9,275.8z"
		/>
	<path fill="#0092D8" d="M466.9,275.8L466.9,275.8c0,1.1,1.9,2,4.2,2c2.4,0,4.2-0.9,4.2-2c0-1.1-1.8-1.9-4.2-2
		C468.7,273.9,466.9,274.7,466.9,275.8z M471.1,274.2c2.3,0.1,3.7,0.8,3.7,1.6c0,0.9-1.6,1.6-3.7,1.6c-2.1,0-3.8-0.7-3.8-1.6
		C467.2,275.1,468.8,274.2,471.1,274.2z"/>
	<path fill="#0092D8" d="M471.1,274.9c-0.8,0-1.8,0.1-2.2,0.5c0,0-0.1,0.3-0.1,0.4c0,0,0.1,0.3,0.1,0.3c0.3,0.3,1.2,0.5,2.2,0.5
		c1,0,1.9-0.2,2.2-0.5c0.1-0.1,0.1-0.2,0.1-0.3c0,0-0.1-0.3-0.1-0.3C472.9,275,471.9,274.9,471.1,274.9z M469.1,275.8L469.1,275.8
		c0.2-0.3,0.9-0.5,1.9-0.5c1,0,1.7,0.2,1.9,0.4l0,0.1c0,0,0,0,0,0c-0.1,0.1-0.8,0.4-1.9,0.4C469.9,276.2,469.2,275.9,469.1,275.8
		C469.1,275.8,469.1,275.8,469.1,275.8z"/>
</g>
<g>
	<g>
		<path d="M325.9,367.4c-1,0.7-2.6,1.2-4,1.2c-3.7,0-5.6-2.2-5.6-6.6c0-3.4,1.9-6.6,5.8-6.6c1.8,0,3.1,0.6,3.9,1.2l-1.1,1.4
			c-0.7-0.8-1.6-1.1-2.8-1.1c-2.6,0-4,2-4,4.9c0,3.5,1.4,5.1,3.9,5.1c1,0,2-0.4,3-1L325.9,367.4z"/>
		<path d="M338.1,355.6v12.8h-1.8v-5.9l-5.9,0.2v5.6h-1.8v-12.8h1.8v5.6l5.9-0.2v-5.4H338.1z"/>
		<path d="M346.8,355.5l4.3,12.9h-1.9l-1.2-3.8l-4.7,0.3l-1.2,3.5h-1.8l4.6-12.8L346.8,355.5z M343.8,363.3l3.7-0.2l-0.3-0.9
			l-1.5-4.8l-1.6,4.8L343.8,363.3z"/>
		<path d="M353.3,355.6h1.8v11.2h5.5v1.6h-7.3V355.6z"/>
		<path d="M373.7,361.1l0.1-2.4l-0.9,2.5l-2.9,7.2l-1.5,0.1l-3-7.3l-0.9-2.4l0,2.4v7.2h-1.7v-12.8l1.9-0.1l3.7,8.8l0.8,2.1l0.7-2.1
			l3.6-8.7l1.9,0.1v12.8h-1.7V361.1z"/>
		<path d="M385.8,355.6v1.6h-5.7v4l4.7-0.2v1.6l-4.7,0.2v4.1h6v1.6h-7.9v-12.8H385.8z"/>
		<path d="M388.6,355.7c1.2-0.1,2.7-0.2,3.6-0.2c3.1,0,4.3,1.7,4.3,3.9c-0.1,1.7-0.8,2.8-2.3,3.6l3,5.4l-2,0.1l-2.7-5
			c-0.7,0.2-1.4,0.3-2.2,0.4v4.4h-1.8V355.7z M391.9,357.1c-0.4,0-0.9,0-1.6,0.1v5.2c2.9-0.1,4.3-0.9,4.3-2.7
			C394.6,358,393.8,357.1,391.9,357.1z"/>
		<path d="M404.4,365.2c0-1.2-1.4-2-2.6-2.7c-1.5-0.9-2.9-1.8-2.9-3.6c0-2.1,1.5-3.4,3.7-3.4c1.2,0,2.4,0.2,3.5,1l-1,1.4
			c-0.7-0.7-1.4-0.9-2.4-0.9c-1.2,0-1.9,0.6-1.9,1.6c0,1,1.1,1.7,2.2,2.4c1.6,1,3.4,1.9,3.4,4.1c0,2.3-2,3.5-4.3,3.5
			c-1.2,0-2.4-0.2-3.5-1l0.9-1.4c0.9,0.7,1.8,0.9,2.7,0.9C403.3,367,404.4,366.3,404.4,365.2z"/>
	</g>
	<g>
		<path d="M420.2,365.1c0-1.2-1.3-2-2.6-2.7c-1.5-0.9-2.9-1.8-2.9-3.6c0-2.1,1.5-3.4,3.7-3.4c1.2,0,2.3,0.2,3.5,1l-1,1.4
			c-0.7-0.6-1.4-0.9-2.4-0.9c-1.2,0-2,0.6-2,1.6c0,1,1,1.7,2.2,2.4c1.6,0.9,3.4,1.9,3.4,4.1c0,2.3-2,3.5-4.3,3.5
			c-1.2,0-2.5-0.2-3.5-1l0.9-1.4c0.9,0.7,1.8,0.9,2.7,0.9C419.1,367,420.2,366.3,420.2,365.1z"/>
		<path d="M423.7,355.6h9.2v1.6h-3.7v11.3h-1.8v-11.3h-3.7V355.6z"/>
		<path d="M443.2,355.6h1.7v8.6c0,3.6-2.9,4.4-4.9,4.4c-1.9,0-4.8-0.6-4.8-4.2v-8.8h1.8v8.2c0,2.8,1.3,3.2,3.1,3.2
			c1.9,0,3-0.8,3-3.3V355.6z"/>
		<path d="M447.7,355.7c1.3-0.1,2.5-0.1,3.7-0.1c4.6,0,6.4,2.3,6.4,6.1c0,3.8-1.5,6.7-6.4,6.7h-3.8V355.7z M449.5,357.2v9.6h2
			c3.5,0,4.5-1.9,4.5-4.9c0-3.7-1.7-4.8-4.8-4.8C450.6,357.1,450.1,357.1,449.5,357.2z"/>
		<path d="M467.6,355.6v1.6h-5.7v4l4.8-0.2v1.6l-4.8,0.2v4.2h6.1v1.6H460v-12.8H467.6z"/>
		<path d="M471.8,368.4h-1.7v-12.8l1.8-0.1l5.3,7.9l1.3,2.3l-0.1-2.4v-7.8h1.7v12.8l-1.7,0.1l-5.3-7.9l-1.4-2.4l0.1,2.4V368.4z"/>
		<path d="M482.3,355.6h9.4v1.6h-3.8v11.3h-1.8v-11.3h-3.8V355.6z"/>
		<path d="M495.9,355.6v12.8h-1.8v-12.8H495.9z M497.9,361.8l4.7,6.6l-2,0.2l-4.7-6.6l4.5-6.5h2L497.9,361.8z"/>
		<path d="M510.7,355.5l4.3,12.9h-1.9l-1.3-3.8l-4.7,0.3l-1.2,3.5h-1.8l4.6-12.8L510.7,355.5z M507.6,363.3l3.7-0.2l-0.3-0.9
			l-1.5-4.8l-1.6,4.8L507.6,363.3z M507.8,353.2c0-1.1,0.9-1.9,1.9-1.9c1,0,1.8,0.7,1.8,1.9c0,1-0.8,1.9-1.9,1.9
			C508.6,355.1,507.8,354.3,507.8,353.2z M510.7,353.2c0-0.7-0.4-1.1-1-1.1c-0.6,0-1,0.4-1,1.1c0,0.7,0.4,1.1,1,1.1
			C510.3,354.3,510.7,353.9,510.7,353.2z"/>
		<path d="M516.9,355.7c1.2-0.1,2.7-0.2,3.7-0.2c3.1,0,4.2,1.7,4.3,3.9c-0.1,1.7-0.7,2.8-2.3,3.5l3,5.4l-2,0.2l-2.7-5
			c-0.6,0.2-1.4,0.3-2.2,0.4v4.4h-1.8V355.7z M520.3,357.1c-0.4,0-0.9,0-1.5,0.1v5.2c2.8-0.1,4.3-0.9,4.3-2.7
			C523,358,522.1,357.1,520.3,357.1z"/>
	</g>
</g>
<g>
	<path d="M368.6,380.7c0-0.9-0.3-1.5-0.8-1.9c-0.5-0.4-1.4-0.6-2.4-0.6h-2.5v9h1.1v-3.7h1.8l2.1,3.7l0,0h1.3l-2.4-4
		C368,382.7,368.6,381.8,368.6,380.7z M364,379.1h1.3c0.8,0,1.3,0.1,1.6,0.4c0.3,0.2,0.5,0.7,0.5,1.2c0,0.6-0.2,1-0.5,1.3
		c-0.3,0.3-0.9,0.4-1.6,0.4H364V379.1z"/>
	<polygon points="374.8,387.1 379.8,387.1 379.8,386.1 375.9,386.1 375.9,382.9 379.6,382.9 379.6,381.9 375.9,381.9 375.9,379.1 
		379.8,379.1 379.8,378.1 374.8,378.1 	"/>
	<polygon points="392.1,378.2 392.2,378.1 390.8,378.1 386.9,382.4 386.9,378.1 385.7,378.1 385.7,387.1 386.9,387.1 386.9,383.6 
		387.7,382.8 390.9,387.1 391,387.1 392.3,387.1 388.6,382 	"/>
	<path d="M403,380.7c0-0.9-0.3-1.5-0.8-1.9c-0.5-0.4-1.4-0.6-2.4-0.6h-2.5v9h1.1v-3.7h1.8l2.1,3.7l0,0h1.3l-2.4-4
		C402.4,382.7,403,381.8,403,380.7z M398.4,379.1h1.3c0.8,0,1.3,0.1,1.6,0.4c0.3,0.2,0.5,0.7,0.5,1.2c0,0.6-0.2,1-0.5,1.3
		c-0.3,0.3-0.9,0.4-1.6,0.4h-1.4V379.1z"/>
	<polygon points="410.9,382.5 408.6,378.1 408.5,378.1 407.3,378.1 410.3,383.7 410.3,387.1 411.4,387.1 411.4,383.6 414.4,378.2 
		414.4,378.1 413.2,378.1 	"/>
	<polygon points="418.4,379.1 421.2,379.1 421.2,387.1 422.3,387.1 422.3,379.1 425.1,379.1 425.1,378.1 418.4,378.1 	"/>
	<polygon points="430.2,387.1 435.2,387.1 435.2,386.1 431.3,386.1 431.3,382.9 435,382.9 435,381.9 431.3,381.9 431.3,379.1 
		435.2,379.1 435.2,378.1 430.2,378.1 	"/>
	<path d="M446.8,380.7c0-0.9-0.3-1.5-0.8-1.9c-0.5-0.4-1.4-0.6-2.4-0.6h-2.5v9h1.1v-3.7h1.8l2.1,3.7l0,0h1.3l-2.4-4
		C446.2,382.7,446.8,381.8,446.8,380.7z M442.2,379.1h1.3c0.8,0,1.3,0.1,1.6,0.4c0.3,0.2,0.5,0.7,0.5,1.2c0,0.6-0.2,1-0.5,1.3
		c-0.3,0.3-0.9,0.4-1.6,0.4h-1.4V379.1z"/>
	<polygon points="452.6,387.1 453.7,387.1 453.7,385.7 453.7,378.1 452.6,378.1 	"/>
	<path d="M465.5,383.3c0,0.3,0,0.7,0,1.3c0,0.4,0,0.8,0,0.9l-4.8-7.3l0,0h-1.2v9h1.1V382c0-0.7,0-1.5-0.1-2.3l4.8,7.4l0,0h1.3v-9
		h-1.1V383.3z"/>
	<path d="M475.8,382.3v1h2v2.6c-0.6,0.1-1.2,0.2-1.8,0.2c-1.1,0-2-0.3-2.5-0.9c-0.6-0.6-0.9-1.5-0.9-2.7c0-1.1,0.3-2,0.9-2.6
		c0.6-0.6,1.4-1,2.5-1c0.7,0,1.5,0.2,2.3,0.5l0,0l0.4-1l0,0c-0.8-0.3-1.7-0.5-2.7-0.5c-0.9,0-1.8,0.2-2.5,0.6
		c-0.7,0.4-1.2,0.9-1.6,1.6c-0.4,0.7-0.6,1.5-0.6,2.5c0,1.4,0.4,2.6,1.1,3.4c0.8,0.8,1.8,1.2,3.2,1.2c0.6,0,1.2,0,1.7-0.1
		c0.5-0.1,1-0.2,1.4-0.3l0,0v-4.4H475.8z"/>
</g>
</svg>
