<?xml version="1.0" encoding="utf-8"?>
<!-- Generator: Adobe Illustrator 17.1.0, SVG Export Plug-In . SVG Version: 6.00 Build 0)  -->
<!DOCTYPE svg PUBLIC "-//W3C//DTD SVG 1.1//EN" "http://www.w3.org/Graphics/SVG/1.1/DTD/svg11.dtd">
<svg version="1.1" id="Layer_1" xmlns="http://www.w3.org/2000/svg" xmlns:xlink="http://www.w3.org/1999/xlink" x="0px" y="0px"
	 viewBox="0 0 260.7 123.3" enable-background="new 0 0 260.7 123.3" xml:space="preserve">
<g>
	<path fill="#8B7F7A" d="M24.2,99.7c-0.9,0-1.7,0.3-2.2,0.9c-0.5,0.6-0.8,1.5-0.8,2.6c0,1.1,0.3,2,0.8,2.6c0.5,0.6,1.3,0.9,2.2,0.9
		c0.6,0,1.3-0.1,2-0.3v0.9c-0.6,0.2-1.3,0.3-2.2,0.3c-1.3,0-2.2-0.4-2.9-1.1c-0.7-0.8-1-1.9-1-3.3c0-0.9,0.2-1.7,0.5-2.3
		c0.3-0.7,0.8-1.2,1.4-1.5c0.6-0.4,1.4-0.5,2.2-0.5c0.9,0,1.7,0.2,2.4,0.5l-0.4,0.9C25.5,99.8,24.8,99.7,24.2,99.7z"/>
	<path fill="#8B7F7A" d="M34.6,107.5h-1v-4h-4.5v4h-1v-8.6h1v3.6h4.5v-3.6h1V107.5z"/>
	<path fill="#8B7F7A" d="M42.3,107.5l-1.1-2.7h-3.4l-1.1,2.7h-1l3.4-8.6H40l3.4,8.6H42.3z M40.9,103.8l-1-2.7
		c-0.1-0.3-0.3-0.7-0.4-1.2c-0.1,0.4-0.2,0.8-0.4,1.2l-1,2.7H40.9z"/>
	<path fill="#8B7F7A" d="M44.5,107.5v-8.6h1v7.7h3.8v0.9H44.5z"/>
	<path fill="#8B7F7A" d="M54.5,107.5l-2.9-7.6h0c0.1,0.6,0.1,1.3,0.1,2.1v5.4h-0.9v-8.6h1.5L55,106h0l2.7-7.1h1.5v8.6h-1v-5.5
		c0-0.6,0-1.3,0.1-2.1h0l-2.9,7.6H54.5z"/>
	<path fill="#8B7F7A" d="M66.4,107.5h-4.8v-8.6h4.8v0.9h-3.8v2.8h3.6v0.9h-3.6v3.2h3.8V107.5z"/>
	<path fill="#8B7F7A" d="M69.3,103.9v3.6h-1v-8.6h2.3c1.1,0,1.8,0.2,2.3,0.6c0.5,0.4,0.8,1,0.8,1.8c0,1.1-0.6,1.9-1.7,2.3l2.3,3.8
		h-1.2l-2.1-3.6H69.3z M69.3,103h1.4c0.7,0,1.2-0.1,1.5-0.4c0.3-0.3,0.5-0.7,0.5-1.3c0-0.6-0.2-1-0.5-1.2c-0.3-0.2-0.9-0.4-1.6-0.4
		h-1.3V103z"/>
	<path fill="#8B7F7A" d="M80.5,105.2c0,0.8-0.3,1.3-0.8,1.8c-0.5,0.4-1.3,0.6-2.2,0.6c-1,0-1.8-0.1-2.3-0.4v-1
		c0.4,0.1,0.7,0.3,1.1,0.4c0.4,0.1,0.8,0.1,1.2,0.1c0.7,0,1.2-0.1,1.5-0.4c0.3-0.3,0.5-0.6,0.5-1.1c0-0.3-0.1-0.5-0.2-0.7
		c-0.1-0.2-0.3-0.4-0.6-0.5c-0.3-0.2-0.7-0.3-1.3-0.5c-0.8-0.3-1.4-0.6-1.7-1c-0.3-0.4-0.5-0.9-0.5-1.5c0-0.7,0.2-1.2,0.7-1.6
		c0.5-0.4,1.2-0.6,2-0.6c0.9,0,1.6,0.2,2.3,0.5l-0.3,0.9c-0.7-0.3-1.4-0.4-2.1-0.4c-0.5,0-0.9,0.1-1.2,0.3c-0.3,0.2-0.4,0.5-0.4,0.9
		c0,0.3,0.1,0.5,0.2,0.7c0.1,0.2,0.3,0.4,0.6,0.5c0.3,0.2,0.7,0.3,1.2,0.5c0.9,0.3,1.5,0.7,1.9,1C80.3,104.1,80.5,104.6,80.5,105.2z
		"/>
	<path fill="#8B7F7A" d="M90.2,105.2c0,0.8-0.3,1.3-0.8,1.8c-0.5,0.4-1.3,0.6-2.2,0.6c-1,0-1.8-0.1-2.3-0.4v-1
		c0.4,0.1,0.7,0.3,1.1,0.4c0.4,0.1,0.8,0.1,1.2,0.1c0.7,0,1.2-0.1,1.5-0.4c0.3-0.3,0.5-0.6,0.5-1.1c0-0.3-0.1-0.5-0.2-0.7
		c-0.1-0.2-0.3-0.4-0.6-0.5c-0.3-0.2-0.7-0.3-1.3-0.5c-0.8-0.3-1.4-0.6-1.7-1c-0.3-0.4-0.5-0.9-0.5-1.5c0-0.7,0.2-1.2,0.7-1.6
		c0.5-0.4,1.2-0.6,2-0.6c0.9,0,1.6,0.2,2.3,0.5l-0.3,0.9c-0.7-0.3-1.4-0.4-2.1-0.4c-0.5,0-0.9,0.1-1.2,0.3c-0.3,0.2-0.4,0.5-0.4,0.9
		c0,0.3,0.1,0.5,0.2,0.7c0.1,0.2,0.3,0.4,0.6,0.5c0.3,0.2,0.7,0.3,1.2,0.5c0.9,0.3,1.5,0.7,1.9,1C90.1,104.1,90.2,104.6,90.2,105.2z
		"/>
	<path fill="#8B7F7A" d="M94.6,107.5h-1v-7.7h-2.7v-0.9h6.4v0.9h-2.7V107.5z"/>
	<path fill="#8B7F7A" d="M105.1,98.9v5.5c0,1-0.3,1.7-0.9,2.3c-0.6,0.6-1.4,0.8-2.4,0.8c-1,0-1.8-0.3-2.4-0.8
		c-0.6-0.6-0.8-1.3-0.8-2.3v-5.5h1v5.6c0,0.7,0.2,1.3,0.6,1.6c0.4,0.4,1,0.6,1.7,0.6c0.7,0,1.3-0.2,1.7-0.6c0.4-0.4,0.6-0.9,0.6-1.7
		v-5.6H105.1z"/>
	<path fill="#8B7F7A" d="M114.2,103.1c0,1.4-0.4,2.5-1.2,3.2c-0.8,0.7-1.9,1.1-3.3,1.1h-2.4v-8.6h2.6c1.3,0,2.4,0.4,3.1,1.1
		C113.8,100.7,114.2,101.8,114.2,103.1z M113.1,103.1c0-1.1-0.3-2-0.8-2.5c-0.6-0.6-1.4-0.8-2.5-0.8h-1.4v6.8h1.2
		c1.2,0,2.1-0.3,2.7-0.9C112.8,105.1,113.1,104.3,113.1,103.1z"/>
	<path fill="#8B7F7A" d="M120.9,107.5h-4.8v-8.6h4.8v0.9h-3.8v2.8h3.6v0.9h-3.6v3.2h3.8V107.5z"/>
	<path fill="#8B7F7A" d="M129.5,107.5h-1.1l-4.7-7.2h0c0.1,0.8,0.1,1.6,0.1,2.3v4.9h-0.9v-8.6h1.1l4.7,7.2h0c0-0.1,0-0.4-0.1-1
		c0-0.6,0-1,0-1.2v-4.9h0.9V107.5z"/>
	<path fill="#8B7F7A" d="M134.5,107.5h-1v-7.7h-2.7v-0.9h6.4v0.9h-2.7V107.5z"/>
	<path fill="#8B7F7A" d="M144.6,107.5h-1.2l-3.1-4.2l-0.9,0.8v3.4h-1v-8.6h1v4.2l3.9-4.2h1.2l-3.4,3.7L144.6,107.5z"/>
	<path fill="#8B7F7A" d="M151.2,107.5l-1.1-2.7h-3.4l-1.1,2.7h-1l3.4-8.6h0.8l3.4,8.6H151.2z M149.8,103.8l-1-2.7
		c-0.1-0.3-0.3-0.7-0.4-1.2c-0.1,0.4-0.2,0.8-0.4,1.2l-1,2.7H149.8z M149.7,98.2c0,0.4-0.1,0.7-0.4,0.9c-0.2,0.2-0.6,0.3-1,0.3
		c-0.4,0-0.7-0.1-0.9-0.3c-0.2-0.2-0.4-0.5-0.4-0.9c0-0.4,0.1-0.7,0.4-0.9c0.2-0.2,0.6-0.3,0.9-0.3c0.4,0,0.7,0.1,1,0.3
		C149.6,97.5,149.7,97.8,149.7,98.2z M149.1,98.2c0-0.2-0.1-0.4-0.2-0.5c-0.1-0.1-0.3-0.2-0.5-0.2c-0.2,0-0.4,0.1-0.5,0.2
		c-0.1,0.1-0.2,0.3-0.2,0.5c0,0.2,0.1,0.4,0.2,0.5c0.1,0.1,0.3,0.2,0.5,0.2c0.2,0,0.4-0.1,0.5-0.2C149,98.6,149.1,98.4,149.1,98.2z"
		/>
	<path fill="#8B7F7A" d="M154.4,103.9v3.6h-1v-8.6h2.3c1.1,0,1.8,0.2,2.3,0.6c0.5,0.4,0.8,1,0.8,1.8c0,1.1-0.6,1.9-1.7,2.3l2.3,3.8
		h-1.2l-2.1-3.6H154.4z M154.4,103h1.4c0.7,0,1.2-0.1,1.5-0.4c0.3-0.3,0.5-0.7,0.5-1.3c0-0.6-0.2-1-0.5-1.2s-0.9-0.4-1.6-0.4h-1.3
		V103z"/>
	<path fill="#8B7F7A" d="M169.4,101.4c0,0.9-0.3,1.5-0.9,2c-0.6,0.5-1.4,0.7-2.5,0.7h-1v3.4h-1v-8.6h2.2
		C168.3,98.9,169.4,99.7,169.4,101.4z M164.9,103.2h0.9c0.9,0,1.5-0.1,1.9-0.4c0.4-0.3,0.6-0.7,0.6-1.4c0-0.6-0.2-1-0.6-1.3
		c-0.4-0.3-0.9-0.4-1.7-0.4h-1.1V103.2z"/>
	<path fill="#8B7F7A" d="M172.2,103.9v3.6h-1v-8.6h2.3c1.1,0,1.8,0.2,2.3,0.6c0.5,0.4,0.8,1,0.8,1.8c0,1.1-0.6,1.9-1.7,2.3l2.3,3.8
		H176l-2.1-3.6H172.2z M172.2,103h1.4c0.7,0,1.2-0.1,1.5-0.4c0.3-0.3,0.5-0.7,0.5-1.3c0-0.6-0.2-1-0.5-1.2s-0.9-0.4-1.6-0.4h-1.3
		V103z"/>
	<path fill="#8B7F7A" d="M186,103.2c0,1.4-0.3,2.4-1,3.2c-0.7,0.8-1.7,1.2-2.9,1.2c-1.3,0-2.2-0.4-2.9-1.2c-0.7-0.8-1-1.9-1-3.3
		c0-1.4,0.3-2.5,1-3.2s1.7-1.2,2.9-1.2c1.2,0,2.2,0.4,2.9,1.2C185.7,100.7,186,101.8,186,103.2z M179.2,103.2c0,1.2,0.2,2,0.7,2.6
		c0.5,0.6,1.2,0.9,2.2,0.9c0.9,0,1.7-0.3,2.2-0.9c0.5-0.6,0.7-1.5,0.7-2.6c0-1.2-0.2-2-0.7-2.6c-0.5-0.6-1.2-0.9-2.1-0.9
		c-0.9,0-1.7,0.3-2.2,0.9C179.4,101.1,179.2,102,179.2,103.2z"/>
	<path fill="#8B7F7A" d="M191.7,107.5l-2.9-7.6h0c0.1,0.6,0.1,1.3,0.1,2.1v5.4h-0.9v-8.6h1.5l2.7,7.1h0l2.7-7.1h1.5v8.6h-1v-5.5
		c0-0.6,0-1.3,0.1-2.1h0l-2.9,7.6H191.7z"/>
	<path fill="#8B7F7A" d="M206.2,103.2c0,1.4-0.3,2.4-1,3.2c-0.7,0.8-1.7,1.2-2.9,1.2c-1.3,0-2.2-0.4-2.9-1.2c-0.7-0.8-1-1.9-1-3.3
		c0-1.4,0.3-2.5,1-3.2s1.7-1.2,2.9-1.2c1.2,0,2.2,0.4,2.9,1.2C205.9,100.7,206.2,101.8,206.2,103.2z M199.4,103.2
		c0,1.2,0.2,2,0.7,2.6s1.2,0.9,2.2,0.9c0.9,0,1.7-0.3,2.2-0.9c0.5-0.6,0.7-1.5,0.7-2.6c0-1.2-0.2-2-0.7-2.6
		c-0.5-0.6-1.2-0.9-2.1-0.9c-0.9,0-1.7,0.3-2.2,0.9C199.6,101.1,199.4,102,199.4,103.2z"/>
	<path fill="#8B7F7A" d="M210.8,107.5h-1v-7.7H207v-0.9h6.4v0.9h-2.7V107.5z"/>
	<path fill="#8B7F7A" d="M214.8,107.5v-8.6h1v8.6H214.8z"/>
	<path fill="#8B7F7A" d="M225.5,103.2c0,1.4-0.3,2.4-1,3.2c-0.7,0.8-1.7,1.2-2.9,1.2c-1.3,0-2.2-0.4-2.9-1.2c-0.7-0.8-1-1.9-1-3.3
		c0-1.4,0.3-2.5,1-3.2s1.7-1.2,2.9-1.2c1.2,0,2.2,0.4,2.9,1.2C225.2,100.7,225.5,101.8,225.5,103.2z M218.7,103.2
		c0,1.2,0.2,2,0.7,2.6c0.5,0.6,1.2,0.9,2.2,0.9c0.9,0,1.7-0.3,2.2-0.9c0.5-0.6,0.7-1.5,0.7-2.6c0-1.2-0.2-2-0.7-2.6
		c-0.5-0.6-1.2-0.9-2.1-0.9c-0.9,0-1.7,0.3-2.2,0.9C219,101.1,218.7,102,218.7,103.2z"/>
	<path fill="#8B7F7A" d="M234.1,107.5H233l-4.7-7.2h0c0.1,0.8,0.1,1.6,0.1,2.3v4.9h-0.9v-8.6h1.1l4.7,7.2h0c0-0.1,0-0.4-0.1-1
		c0-0.6,0-1,0-1.2v-4.9h0.9V107.5z"/>
</g>
<path fill-rule="evenodd" clip-rule="evenodd" fill="#B7CF55" d="M163.6,20.7c0.2-0.3,0.3-0.6,0.5-1c0.8-1.5,2-2.3,3.8-2.3
	c21.2,0,42.5,0,63.7,0c2.5,0,4.2,1.8,4.2,4.2c0,12.2,0,24.5,0,36.7c0,2.7-1.1,5.1-2.9,7c-6.9,7-13.9,14-20.9,21
	c-2.2,2.2-5,3.1-8.2,3.1c-10.9,0-21.8,0-32.6,0c-0.8,0-1.7,0-2.5,0c-3.3,0-5-1.7-5-5.1c0-7.5,0-15,0-22.4c0-0.5,0.1-1-0.2-1.5
	c0.2-0.9,0.3-1.7,0.3-2.6c0-12,0-24.1,0-36.1C163.7,21.4,163.7,21,163.6,20.7z M167.8,53.3c0,10.2,0,20.5,0,30.7
	c0,0.9,0.1,1.4,1.2,1.4c11.7,0,23.4,0,35.2,0c2,0,3.7-0.7,5.1-2.1c6.8-6.8,13.6-13.6,20.4-20.4c1.5-1.5,2.2-3.2,2.2-5.3
	c0-11.6,0-23.3,0-34.9c0-1-0.3-1.3-1.3-1.3c-20.4,0-40.9,0-61.3,0c-1.1,0-1.4,0.3-1.4,1.4C167.8,33,167.8,43.1,167.8,53.3z"/>
<path fill-rule="evenodd" clip-rule="evenodd" fill="#0692D4" d="M91.6,86c-0.8,2.4-2.1,3.4-4.6,3.4c-12,0-23.9,0-35.9,0
	c-3.1,0-5.8-1.2-8.1-3.4c-6.8-6.8-13.6-13.6-20.4-20.4c-2.1-2.1-3.1-4.6-3.1-7.5c0-3.1,0-6.2,0-9.2c0-2.9,1.1-5.5,3.1-7.5
	c6.8-6.8,13.6-13.6,20.3-20.4c2.3-2.3,5.1-3.5,8.4-3.5c11.8,0,23.7,0.1,35.5,0c2.4,0,4.8,1.6,4.8,4.8c0,7.8,0,15.5,0,23.3
	c0,0.4,0,0.9,0.1,1.3c-0.1,0.6-0.2,1.2-0.2,1.8C91.6,61,91.6,73.5,91.6,86z M87.6,53.5c0-10.2,0-20.5,0-30.7c0-1-0.2-1.3-1.3-1.3
	c-11.6,0-23.3,0-34.9,0c-2.1,0-3.9,0.8-5.4,2.2C39.2,30.4,32.5,37.2,25.7,44c-1.4,1.4-2.1,3.1-2.1,5.1c0,2.9,0,5.8,0,8.8
	c0,2,0.7,3.7,2.1,5.1c6.8,6.8,13.5,13.5,20.3,20.3c1.5,1.5,3.3,2.3,5.5,2.3c11.6,0,23.2,0,34.8,0c1.1,0,1.3-0.3,1.3-1.3
	C87.6,73.9,87.6,63.7,87.6,53.5z"/>
<path fill-rule="evenodd" clip-rule="evenodd" fill="#D70C51" d="M91.6,86c0-12.5,0-25,0-37.5c0-0.6,0.1-1.2,0.2-1.8
	c0.8-2.9,2.5-5.1,4.6-7.1c6.3-6.2,12.5-12.5,18.8-18.7c2.3-2.3,5.1-3.5,8.4-3.5c11.9,0,23.7,0,35.6,0c2.4,0,3.8,1,4.5,3.3
	c0,0.4,0.1,0.7,0.1,1.1c0,12,0,24.1,0,36.1c0,0.9-0.1,1.8-0.3,2.6c-0.6,2.2-1.7,4-3.3,5.6c-6.6,6.6-13.2,13.2-19.9,19.8
	c-2.4,2.4-5.2,3.6-8.6,3.6c-11.7,0-23.3,0-35,0C93.8,89.4,92.6,88.6,91.6,86z M140.9,21.4c-5.8,0-11.6,0-17.4,0
	c-1.9,0-3.7,0.6-5,1.9c-6.9,6.8-13.8,13.7-20.7,20.6c-1.3,1.3-2.1,3-2.1,4.9c0,11.8,0,23.6,0,35.4c0,0.8,0.2,1.1,1.1,1.1
	c11.8,0,23.7,0,35.5,0c1.8,0,3.4-0.7,4.7-1.9c6.9-6.9,13.8-13.8,20.7-20.7c1.4-1.4,2.1-3.1,2.1-5.1c0-11.6,0-23.3,0-34.9
	c0-1-0.2-1.4-1.3-1.3C152.6,21.5,146.7,21.4,140.9,21.4z"/>
</svg>
