<?xml version="1.0" encoding="utf-8"?>
<!-- Generator: Adobe Illustrator 17.1.0, SVG Export Plug-In . SVG Version: 6.00 Build 0)  -->
<!DOCTYPE svg PUBLIC "-//W3C//DTD SVG 1.1//EN" "http://www.w3.org/Graphics/SVG/1.1/DTD/svg11.dtd">
<svg version="1.1" id="Lager_1" xmlns="http://www.w3.org/2000/svg" xmlns:xlink="http://www.w3.org/1999/xlink" x="0px" y="0px"
	 viewBox="0 0 841.9 1190.6" enable-background="new 0 0 841.9 1190.6" xml:space="preserve">
<path fill="#505250" d="M287.9,347.9h-12.1v-7.5h-0.2c-4,5.7-11.7,9.3-18.7,9.3c-8.6,0-15.5-3.6-20.3-9.3
	c-4.4-5.3-6.9-12.4-6.9-20.1c0-7.7,2-14,7.1-19.8c5.6-6.5,12.4-9.6,20.5-9.6c7.6,0,14.1,3.4,18.5,9.6v-7.8h12.1V347.9z M259.5,304
	c-9.8-0.1-16.5,7.3-16.5,16.9c0,9,7.4,16,16.3,15.9c9.6,0.1,16.1-7.1,16.1-16.5C275.4,311,268.8,303.9,259.5,304z"/>
<path fill="#505250" d="M292,292.8h14.7l12.8,36.2l12.6-36.2H347l-22.3,55.1h-10.3L292,292.8z"/>
<rect x="351" y="292.8" fill="#505250" width="13.2" height="55.1"/>
<path fill="#505250" d="M372.9,292.8h12.2v5.1h0.2c3.3-4.6,9.3-6.9,15-6.9c5.8,0,11.7,2.6,15.7,6.9c0.5,0.5,1,1,1.4,1.6
	c4.3,6,4.4,12.8,4.4,19.9v28.6h-13.2v-26c0-4.3,0-9.8-2.3-13.4c-1.9-2.9-5.4-4.6-8.8-4.6c-3.6,0-7.5,1.9-9.3,4.9
	c-2.4,3.8-2.2,9.7-2.2,14.1v25h-13.2V292.8z"/>
<path fill="#505250" d="M484.8,320.5c0,16.3-13.2,29.3-29.5,29.3c-15.9,0-29.2-13.2-29.2-29.3c0-16.5,13.2-29.4,29.8-29.4
	C472.2,291,484.8,304.5,484.8,320.5z M444,309c-3.1,3.1-4.6,7.1-4.6,11.4c0,8.9,6.9,16.3,15.9,16.3c9.4,0,16.2-7.1,16.2-16.3
	c0-9.1-7.1-16.5-16.2-16.5C451.3,304,446.8,306.1,444,309z"/>
<path fill="#505250" d="M545.9,347.9h-12.1v-7.5h-0.2c-3.9,6.1-11.1,9.3-18.3,9.3c-8.1,0-15-3.7-19.9-9.3
	c-4.7-5.4-7.5-12.5-7.5-19.9c0-7.4,2.5-14.6,7.5-20.2c5-5.6,12.7-9.4,20.3-9.4c6.4,0,12.8,2.6,17,7.5v-24.1h13.2V347.9z M517.1,304
	c-8.5,0-15.9,7.6-15.9,16c0,9.2,6.9,16.8,16.1,16.8c9.2,0,16.3-7.5,16.3-16.5C533.6,311.1,526.1,304,517.1,304z"/>
<path fill="#505250" d="M565.6,326.2c2,6.4,7.9,10.5,14.5,10.5c5,0,9.7-1.9,12.3-4.8h14.6c-3.4,9.8-14.8,17.7-26.5,17.7
	c-16,0-29.1-12.9-29.1-29c0-16.3,12.7-29.8,29.3-29.8c15.7,0,28.3,13.5,28.3,29c0,2.1-0.4,4.2-0.7,6.3H565.6z M595.8,314.5
	c-2.2-6.6-8.3-10.5-15-10.5c-6.6,0-13.3,4.2-15.3,10.5H595.8z"/>
<path fill="#C09A5D" d="M402.2,231.5c-4.1-13.8-31.3-17.9-60.8-9.2c-29.5,8.7-50.1,26.9-46.1,40.7c4.1,13.8,31.3,17.9,60.8,9.2
	C385.6,263.6,406.2,245.3,402.2,231.5z M354.7,266c-27.2,8-52.1,5.1-55.5-6.6c-3.4-11.6,15.9-27.6,43.1-35.6c27.2-8,52-5.1,55.5,6.6
	C401.2,242.1,381.9,258,354.7,266z"/>
<path fill="#C09A5D" d="M340.7,267.2c0-9.4,7.6-17,17-17c9.4,0,17,7.6,17,17c0,9.4-7.6,16.9-17,16.9
	C348.3,284.1,340.7,276.5,340.7,267.2z"/>
<g>
	<path fill="#C09A5D" d="M329.3,224.5c0-5.4,4.4-9.8,9.7-9.8c5.4,0,9.8,4.4,9.8,9.8c0,5.4-4.4,9.8-9.8,9.8
		C333.7,234.2,329.3,229.8,329.3,224.5z"/>
	
		<linearGradient id="SVGID_1_" gradientUnits="userSpaceOnUse" x1="-384.944" y1="1327.4745" x2="-384.944" y2="1335.3898" gradientTransform="matrix(0.8108 -0.2695 0.3153 0.949 229.6315 -1148.3574)">
		<stop  offset="0" style="stop-color:#F6F6F6"/>
		<stop  offset="1" style="stop-color:#C09A5D"/>
	</linearGradient>
	<path fill="url(#SVGID_1_)" d="M332.1,224.8c-1.4-4.1,0.4-8.5,3.9-9.6c3.5-1.2,7.5,1.2,8.9,5.4"/>
</g>
<linearGradient id="SVGID_2_" gradientUnits="userSpaceOnUse" x1="-379.9534" y1="1366.4895" x2="-379.9534" y2="1379.9231" gradientTransform="matrix(0.8108 -0.2695 0.3153 0.949 229.6315 -1148.3574)">
	<stop  offset="0" style="stop-color:#F6F6F6"/>
	<stop  offset="1" style="stop-color:#C09A5D"/>
</linearGradient>
<path fill="url(#SVGID_2_)" d="M345.8,267.2c-2.3-7,0.6-14.4,6.7-16.4c6-2,12.8,2.1,15.1,9.1"/>
<path fill="#C09A5D" d="M311.9,264.9c0,7.1-5.7,12.8-12.8,12.8c-7.1,0-12.8-5.7-12.8-12.8c0-7,5.7-12.8,12.8-12.8
	C306.1,252.1,311.9,257.9,311.9,264.9z"/>
<linearGradient id="SVGID_3_" gradientUnits="userSpaceOnUse" x1="-444.028" y1="1350.1584" x2="-444.028" y2="1361.0563" gradientTransform="matrix(0.8108 -0.2695 0.3153 0.949 229.6315 -1148.3574)">
	<stop  offset="0" style="stop-color:#F6F6F6"/>
	<stop  offset="1" style="stop-color:#C09A5D"/>
</linearGradient>
<path fill="url(#SVGID_3_)" d="M289.9,265.9c-1.9-5.7,0.5-11.6,5.4-13.3c4.9-1.6,10.4,1.7,12.3,7.4"/>
<path fill="#C09A5D" d="M412.1,227.9c0,7.1-5.7,12.8-12.8,12.8c-7.1,0-12.8-5.7-12.8-12.8c0-7.1,5.7-12.8,12.8-12.8
	C406.4,215.1,412.1,220.8,412.1,227.9z"/>
<linearGradient id="SVGID_4_" gradientUnits="userSpaceOnUse" x1="-319.0025" y1="1346.6366" x2="-319.0025" y2="1357.5338" gradientTransform="matrix(0.8108 -0.2695 0.3153 0.949 229.6315 -1148.3574)">
	<stop  offset="0" style="stop-color:#F6F6F6"/>
	<stop  offset="1" style="stop-color:#C09A5D"/>
</linearGradient>
<path fill="url(#SVGID_4_)" d="M390.2,228.8c-1.9-5.7,0.5-11.6,5.4-13.3c4.9-1.6,10.4,1.7,12.3,7.4"/>
<g>
</g>
<g>
</g>
<g>
</g>
<g>
</g>
<g>
</g>
<g>
</g>
</svg>
