<?xml version="1.0" encoding="utf-8"?>
<!-- Generator: Adobe Illustrator 17.1.0, SVG Export Plug-In . SVG Version: 6.00 Build 0)  -->
<!DOCTYPE svg PUBLIC "-//W3C//DTD SVG 1.1//EN" "http://www.w3.org/Graphics/SVG/1.1/DTD/svg11.dtd">
<svg version="1.1" id="Layer_1" xmlns="http://www.w3.org/2000/svg" xmlns:xlink="http://www.w3.org/1999/xlink" x="0px" y="0px"
	 viewBox="0 0 595.3 841.9" enable-background="new 0 0 595.3 841.9" xml:space="preserve">
<path fill="#4D9D34" d="M154.9,409.6c0,14,14,27.2,29.2,27.2h281.3v-89.5H154.9L154.9,409.6z"/>
<g>
	<path fill="#FFFFFF" d="M196.7,404.2c0.2,0.6,0.6,1,1,1c0.4,0,0.7-0.4,1-1l13.7-36.4h14l-18.2,43c-1.5,3.5-3.9,6.6-10.5,6.6
		c-6.6,0-9.1-3.1-10.6-6.6l-18.1-43h14L196.7,404.2z"/>
	<path fill="#FFFFFF" d="M276.3,377.3H250c-2.6,0-3.4,0.8-3.4,3.3v6.8h29.1v9.1h-29.1v7.5c0,2.4,0.9,3.3,3.4,3.3h26.6v9.5h-35.4
		c-4.7,0-7.7-2.2-7.7-7.5v-33.9c0-5.2,3-7.6,7.7-7.6h35.1V377.3z"/>
	<path fill="#FFFFFF" d="M305.3,416.8v-39.2h-19v-9.8h51.1v9.8h-19v39.2H305.3z"/>
	<path fill="#FFFFFF" d="M389.8,377.3h-26.3c-2.6,0-3.4,0.8-3.4,3.3v6.8h29.1v9.1h-29.1v7.5c0,2.4,0.9,3.3,3.4,3.3h26.6v9.5h-35.4
		c-4.7,0-7.7-2.2-7.7-7.5v-33.9c0-5.2,3-7.6,7.7-7.6h35.1V377.3z"/>
	<path fill="#FFFFFF" d="M423.6,416.8c-17.2,0-22-9.1-22-24.5c0-15.4,4.8-24.5,22-24.5h21.1v9.8h-14.6c-11.7,0-15.1,2.8-15.1,14.7
		c0,11.9,3.4,14.7,15.1,14.7h15.3v9.8H423.6z"/>
</g>
<g>
</g>
<g>
</g>
<g>
</g>
<g>
</g>
<g>
</g>
<g>
</g>
</svg>
