<?xml version="1.0" encoding="utf-8"?>
<!-- Generator: Adobe Illustrator 17.1.0, SVG Export Plug-In . SVG Version: 6.00 Build 0)  -->
<!DOCTYPE svg PUBLIC "-//W3C//DTD SVG 1.1//EN" "http://www.w3.org/Graphics/SVG/1.1/DTD/svg11.dtd">
<svg version="1.1" id="Layer_1" xmlns="http://www.w3.org/2000/svg" xmlns:xlink="http://www.w3.org/1999/xlink" x="0px" y="0px"
	 viewBox="0 0 200 200" enable-background="new 0 0 200 200" xml:space="preserve">
<g>
	<path fill="#007BC2" d="M128.8,79.7c13.7-9.2,21.7-19.5,22.6-20.7c0.6-0.9,2.6-3.6,2.3-4c-0.4-0.5-3.3,2.6-12,5.6
		c-14.3,4.9-40.2,2.7-42.3,8.7c-1.5,4.2,4,9.4,12.7,14.6c-13.6,13.3-17.5,33.4-18,36.2c-0.3,1.6,0.1,2.1,0.6,2.3
		c1.1,0.4,2-1,2.6-1.9c6.1-8.9,17.4-26.8,24.2-26.8c6.9,0,15.8,16.4,27.4,37.4c0.7,1.3,1.6,1.3,2.2,1.1c0.8-0.3,0.9-1.2,0.9-1.8
		C151.7,126.4,144.6,93.8,128.8,79.7"/>
	<path fill="#007BC2" d="M124.4,60.5c3.6-1.8,5.4-5.6,3.9-8.5c-1.4-2.9-5.6-3.7-9.2-1.8c-3.6,1.8-5.4,5.6-3.9,8.5
		C116.7,61.5,120.8,62.3,124.4,60.5"/>
	
		<rect x="140.6" y="38.4" transform="matrix(0.3309 -0.9437 0.9437 0.3309 56.0572 168.8106)" fill="#009982" width="13" height="13"/>
	<path fill="#004A97" d="M71.3,139.2c-4.2,0-5.7,1.2-5.7,3.7c0,1.8,1.2,3,2.9,3c2.1,0,3.6-2.3,3.6-2.3l0-4.3
		C72.1,139.2,71.6,139.2,71.3,139.2 M76.3,148.6c-0.2,0.1-0.9,0.2-1.6,0.2c-1.6,0-2.3-0.5-2.5-1.5c-1.4,1.2-2.7,1.9-4.5,1.9
		c-4.4,0-6.6-2.7-6.6-6.1c0-4.5,3.6-6.7,9.8-6.7h1.3v-0.7c0-2.2-0.4-3.4-2.7-3.4c-2.8,0-6,2.2-6,2.2l-1.9-3c2.9-1.8,5.5-2.6,8.4-2.6
		c3,0,5.1,1.1,6,3.2c0.3,0.8,0.3,1.7,0.3,1.7L76.3,148.6z M137.8,139c0,6.2-3.4,10.1-8.7,10.1c-5.3,0-8.7-3.9-8.7-10.1
		c0-6.2,3.4-10.2,8.6-10.2C134.6,128.8,137.8,132.9,137.8,139 M125,138.7c0,5.6,1.4,7.3,4,7.3c2.5,0,3.9-2,3.9-6.9
		c0-5.5-1.6-7.1-4.1-7.1C126.2,132,125,134,125,138.7 M56,148.6c-0.3,0.1-0.9,0.2-1.7,0.2c-2,0-2.6-0.7-2.7-2l0-20.9h-6.9v-3.7h18.7
		l-0.6,3.7H56L56,148.6z M94.9,148.6l0-14.3c1-0.9,2.6-1.9,3.9-1.9c1.6,0,2.4,0.7,2.4,3l0,11.3c0.1,1.3,0.7,2,2.6,2
		c0.7,0,1.4-0.1,1.6-0.2l0-14.1c0-4-2.3-5.6-5.5-5.6c-2.1,0-3.9,0.9-5.8,2.8c-1.4-2.3-3.2-2.8-4.9-2.8c-1.8,0-3.6,0.9-5.1,2.4
		c-0.1-1.1-0.3-1.8-0.7-2.4l-3.9,1.1c0.5,1,0.7,2.4,0.7,4.8v12c0.1,1.3,0.7,2,2.6,2c0.7,0,1.4-0.1,1.6-0.2v-14.3
		c1-0.9,2.6-1.9,3.9-1.9c1.6,0,2.4,0.7,2.4,3l0,11.4c0.1,1.3,0.7,2,2.6,2C94,148.7,94.7,148.6,94.9,148.6 M113.7,148.6
		c-0.2,0.1-0.9,0.2-1.6,0.2c-1.8,0-2.5-0.7-2.6-2v-12c0-2.4-0.2-3.8-0.7-4.9l3.9-1.1c0.4,0.6,0.7,1.7,0.7,3c1.5-2.1,3-3.1,4.9-3.1
		c1.3,0,2,0.3,2.5,0.8l-2.2,3.4c-0.4-0.1-0.8-0.3-1.3-0.3c-1.7,0-3.2,1.3-3.6,2.8L113.7,148.6z"/>
	<path fill="#878787" d="M47.8,161c-0.3,0.2-0.6,0.4-0.8,0.5c-0.3,0.1-0.5,0.1-0.8,0.1c-0.5,0-0.9-0.1-1.1-0.4
		c-0.3-0.2-0.4-0.5-0.4-0.9c0-0.2,0-0.4,0.1-0.6c0.1-0.2,0.2-0.3,0.4-0.4c0.2-0.1,0.3-0.2,0.5-0.2c0.1,0,0.4-0.1,0.7-0.1
		c0.6-0.1,1.1-0.2,1.4-0.3c0-0.1,0-0.2,0-0.2c0-0.3-0.1-0.5-0.2-0.7c-0.2-0.2-0.5-0.3-0.9-0.3c-0.4,0-0.6,0.1-0.8,0.2
		c-0.2,0.1-0.3,0.3-0.4,0.7l-0.7-0.1c0.1-0.3,0.2-0.6,0.3-0.8c0.2-0.2,0.4-0.3,0.7-0.5c0.3-0.1,0.6-0.2,1-0.2c0.4,0,0.7,0,0.9,0.1
		c0.2,0.1,0.4,0.2,0.5,0.3c0.1,0.1,0.2,0.3,0.2,0.5c0,0.1,0,0.4,0,0.7v1c0,0.7,0,1.2,0,1.3c0,0.2,0.1,0.4,0.2,0.5H48
		C47.9,161.4,47.8,161.3,47.8,161 M47.8,159.3c-0.3,0.1-0.7,0.2-1.2,0.3c-0.3,0-0.5,0.1-0.7,0.2c-0.1,0.1-0.2,0.1-0.3,0.2
		c-0.1,0.1-0.1,0.2-0.1,0.4c0,0.2,0.1,0.4,0.2,0.5c0.2,0.1,0.4,0.2,0.7,0.2c0.3,0,0.6-0.1,0.8-0.2c0.2-0.1,0.4-0.3,0.5-0.5
		c0.1-0.2,0.1-0.4,0.1-0.8V159.3z"/>
	<path fill="#878787" d="M55.6,161.6v-6.2H58c0.4,0,0.7,0,0.9,0.1c0.3,0.1,0.6,0.1,0.8,0.3c0.2,0.1,0.4,0.3,0.5,0.6
		c0.1,0.3,0.2,0.5,0.2,0.8c0,0.5-0.2,1-0.5,1.3s-0.9,0.5-1.8,0.5h-1.6v2.5H55.6z M56.5,158.4h1.6c0.5,0,0.9-0.1,1.1-0.3
		c0.2-0.2,0.3-0.5,0.3-0.8c0-0.3-0.1-0.5-0.2-0.7c-0.1-0.2-0.3-0.3-0.5-0.4c-0.1,0-0.4-0.1-0.8-0.1h-1.6V158.4z"/>
	<polygon fill="#878787" points="63.2,161.6 63.2,155.4 64,155.4 64,158 67.2,158 67.2,155.4 68,155.4 68,161.6 67.2,161.6 
		67.2,158.7 64,158.7 64,161.6 	"/>
	<path fill="#878787" d="M70.8,158.6c0-1,0.3-1.8,0.8-2.4c0.6-0.6,1.3-0.9,2.1-0.9c0.6,0,1.1,0.1,1.5,0.4c0.5,0.3,0.8,0.7,1,1.1
		c0.2,0.5,0.4,1,0.4,1.7c0,0.6-0.1,1.2-0.4,1.7c-0.3,0.5-0.6,0.9-1.1,1.1c-0.5,0.3-1,0.4-1.5,0.4c-0.6,0-1.1-0.1-1.6-0.4
		c-0.5-0.3-0.8-0.7-1-1.2C71,159.6,70.8,159.1,70.8,158.6 M71.7,158.6c0,0.7,0.2,1.3,0.6,1.8s0.9,0.6,1.5,0.6c0.6,0,1.1-0.2,1.5-0.6
		c0.4-0.4,0.6-1,0.6-1.8c0-0.5-0.1-0.9-0.3-1.3c-0.2-0.4-0.4-0.7-0.7-0.9c-0.3-0.2-0.7-0.3-1.1-0.3c-0.6,0-1.1,0.2-1.5,0.6
		C71.9,157,71.7,157.7,71.7,158.6"/>
	<polygon fill="#878787" points="79.6,161.6 79.6,155.4 84,155.4 84,156.1 80.4,156.1 80.4,158 83.8,158 83.8,158.8 80.4,158.8 
		80.4,160.9 84.2,160.9 84.2,161.6 	"/>
	<polygon fill="#878787" points="87,161.6 87,155.4 87.8,155.4 91.1,160.3 91.1,155.4 91.9,155.4 91.9,161.6 91,161.6 87.8,156.7 
		87.8,161.6 	"/>
	<rect x="95.1" y="155.4" fill="#878787" width="0.8" height="6.2"/>
	<path fill="#878787" d="M98.5,161.6l2.4-3.2l-2.1-3h1l1.1,1.6c0.2,0.3,0.4,0.6,0.5,0.8c0.1-0.2,0.3-0.5,0.5-0.7l1.2-1.6h0.9
		l-2.2,2.9l2.3,3.3h-1l-1.6-2.2c-0.1-0.1-0.2-0.3-0.3-0.4c-0.1,0.2-0.2,0.4-0.3,0.5l-1.6,2.2H98.5z"/>
	<path fill="#878787" d="M113.5,160l0.7,0.1c-0.1,0.5-0.3,0.9-0.6,1.2c-0.3,0.3-0.7,0.4-1.2,0.4c-0.6,0-1.1-0.2-1.5-0.6
		c-0.4-0.4-0.6-1-0.6-1.7c0-0.5,0.1-0.9,0.2-1.3c0.2-0.4,0.4-0.6,0.7-0.8c0.3-0.2,0.7-0.3,1.1-0.3c0.5,0,0.9,0.1,1.2,0.4
		c0.3,0.2,0.5,0.6,0.6,1l-0.7,0.1c-0.1-0.3-0.2-0.5-0.4-0.7c-0.2-0.2-0.4-0.2-0.6-0.2c-0.4,0-0.7,0.1-0.9,0.4
		c-0.2,0.3-0.4,0.7-0.4,1.3c0,0.6,0.1,1,0.3,1.3c0.2,0.3,0.5,0.4,0.9,0.4c0.3,0,0.5-0.1,0.7-0.3C113.4,160.6,113.5,160.3,113.5,160"
		/>
	<path fill="#878787" d="M116.4,159.4c0-0.8,0.2-1.4,0.7-1.8c0.4-0.3,0.9-0.5,1.4-0.5c0.6,0,1.1,0.2,1.5,0.6c0.4,0.4,0.6,1,0.6,1.7
		c0,0.6-0.1,1-0.3,1.4c-0.2,0.3-0.4,0.6-0.8,0.8c-0.3,0.2-0.7,0.3-1.1,0.3c-0.6,0-1.1-0.2-1.5-0.6
		C116.6,160.7,116.4,160.1,116.4,159.4 M117.2,159.4c0,0.6,0.1,1,0.4,1.3c0.3,0.3,0.6,0.4,0.9,0.4c0.4,0,0.7-0.1,0.9-0.4
		c0.2-0.3,0.4-0.7,0.4-1.3c0-0.6-0.1-1-0.4-1.3c-0.3-0.3-0.6-0.4-0.9-0.4c-0.4,0-0.7,0.1-0.9,0.4
		C117.3,158.4,117.2,158.8,117.2,159.4"/>
	<path fill="#878787" d="M123.2,161.6v-4.5h0.7v0.6c0.1-0.2,0.3-0.4,0.6-0.5c0.2-0.1,0.5-0.2,0.8-0.2c0.3,0,0.6,0.1,0.8,0.2
		c0.2,0.1,0.4,0.3,0.4,0.6c0.4-0.5,0.8-0.8,1.4-0.8c0.4,0,0.8,0.1,1,0.4c0.2,0.2,0.4,0.6,0.4,1.1v3.1h-0.8v-2.8c0-0.3,0-0.5-0.1-0.7
		s-0.1-0.2-0.3-0.3c-0.1-0.1-0.3-0.1-0.5-0.1c-0.3,0-0.6,0.1-0.8,0.3c-0.2,0.2-0.3,0.5-0.3,1v2.6h-0.8v-2.9c0-0.3-0.1-0.6-0.2-0.8
		c-0.1-0.2-0.3-0.3-0.6-0.3c-0.2,0-0.4,0.1-0.6,0.2c-0.2,0.1-0.3,0.3-0.4,0.5c-0.1,0.2-0.1,0.5-0.1,0.9v2.3H123.2z"/>
	<path fill="#878787" d="M132.1,163.3v-6.2h0.7v0.6c0.2-0.2,0.3-0.4,0.6-0.5c0.2-0.1,0.5-0.2,0.7-0.2c0.4,0,0.7,0.1,1,0.3
		c0.3,0.2,0.5,0.5,0.7,0.8c0.1,0.4,0.2,0.8,0.2,1.2c0,0.5-0.1,0.9-0.2,1.2c-0.2,0.4-0.4,0.6-0.7,0.8c-0.3,0.2-0.6,0.3-1,0.3
		c-0.3,0-0.5-0.1-0.7-0.2c-0.2-0.1-0.4-0.2-0.5-0.4v2.2H132.1z M132.8,159.4c0,0.6,0.1,1,0.4,1.3c0.2,0.3,0.5,0.4,0.8,0.4
		c0.3,0,0.6-0.1,0.9-0.4c0.2-0.3,0.4-0.7,0.4-1.3c0-0.6-0.1-1-0.4-1.3c-0.2-0.3-0.5-0.4-0.8-0.4c-0.3,0-0.6,0.2-0.9,0.5
		C132.9,158.4,132.8,158.8,132.8,159.4"/>
	<path fill="#878787" d="M141.6,161c-0.3,0.2-0.6,0.4-0.8,0.5c-0.3,0.1-0.5,0.1-0.8,0.1c-0.5,0-0.9-0.1-1.1-0.4
		c-0.3-0.2-0.4-0.5-0.4-0.9c0-0.2,0-0.4,0.1-0.6c0.1-0.2,0.2-0.3,0.4-0.4c0.2-0.1,0.3-0.2,0.5-0.2c0.1,0,0.4-0.1,0.7-0.1
		c0.6-0.1,1.1-0.2,1.4-0.3c0-0.1,0-0.2,0-0.2c0-0.3-0.1-0.5-0.2-0.7c-0.2-0.2-0.5-0.3-0.9-0.3c-0.4,0-0.6,0.1-0.8,0.2
		c-0.2,0.1-0.3,0.3-0.4,0.7l-0.7-0.1c0.1-0.3,0.2-0.6,0.3-0.8c0.2-0.2,0.4-0.3,0.7-0.5c0.3-0.1,0.6-0.2,1-0.2c0.4,0,0.7,0,0.9,0.1
		c0.2,0.1,0.4,0.2,0.5,0.3c0.1,0.1,0.2,0.3,0.2,0.5c0,0.1,0,0.4,0,0.7v1c0,0.7,0,1.2,0,1.3c0,0.2,0.1,0.4,0.2,0.5h-0.8
		C141.6,161.4,141.6,161.3,141.6,161 M141.5,159.3c-0.3,0.1-0.7,0.2-1.2,0.3c-0.3,0-0.5,0.1-0.7,0.2c-0.1,0.1-0.2,0.1-0.3,0.2
		c-0.1,0.1-0.1,0.2-0.1,0.4c0,0.2,0.1,0.4,0.2,0.5c0.2,0.1,0.4,0.2,0.7,0.2c0.3,0,0.6-0.1,0.8-0.2c0.2-0.1,0.4-0.3,0.5-0.5
		c0.1-0.2,0.1-0.4,0.1-0.8V159.3z"/>
	<path fill="#878787" d="M145.2,161.6v-4.5h0.7v0.6c0.3-0.5,0.8-0.7,1.4-0.7c0.3,0,0.5,0,0.7,0.1c0.2,0.1,0.4,0.2,0.5,0.4
		c0.1,0.2,0.2,0.3,0.2,0.6c0,0.1,0,0.4,0,0.7v2.8H148v-2.7c0-0.3,0-0.5-0.1-0.7c-0.1-0.2-0.2-0.3-0.3-0.4c-0.2-0.1-0.3-0.1-0.5-0.1
		c-0.3,0-0.6,0.1-0.8,0.3s-0.4,0.6-0.4,1.2v2.4H145.2z"/>
	<path fill="#878787" d="M151.7,163.3l-0.1-0.7c0.2,0,0.3,0.1,0.4,0.1c0.2,0,0.3,0,0.4-0.1c0.1-0.1,0.2-0.1,0.2-0.2
		c0-0.1,0.1-0.3,0.2-0.6c0,0,0-0.1,0.1-0.2l-1.7-4.5h0.8l0.9,2.6c0.1,0.3,0.2,0.7,0.3,1c0.1-0.3,0.2-0.7,0.3-1l1-2.6h0.8l-1.7,4.6
		c-0.2,0.5-0.3,0.8-0.4,1c-0.1,0.2-0.3,0.4-0.5,0.5c-0.2,0.1-0.4,0.2-0.6,0.2C152,163.4,151.8,163.4,151.7,163.3"/>
</g>
<g>
</g>
<g>
</g>
<g>
</g>
<g>
</g>
<g>
</g>
<g>
</g>
</svg>
