<?xml version="1.0" encoding="utf-8"?>
<!-- Generator: Adobe Illustrator 17.1.0, SVG Export Plug-In . SVG Version: 6.00 Build 0)  -->
<!DOCTYPE svg PUBLIC "-//W3C//DTD SVG 1.1//EN" "http://www.w3.org/Graphics/SVG/1.1/DTD/svg11.dtd">
<svg version="1.1" id="Layer_1" xmlns="http://www.w3.org/2000/svg" xmlns:xlink="http://www.w3.org/1999/xlink" x="0px" y="0px"
	 viewBox="0 0 100 100" enable-background="new 0 0 100 100" xml:space="preserve">
<g>
	<path fill="#D72016" d="M269.5,124.5c0,9.9-8,17.9-17.9,17.9c-9.9,0-17.9-8-17.9-17.9c0-9.9,8-17.9,17.9-17.9
		C261.5,106.6,269.5,114.6,269.5,124.5"/>
	<path fill="#D72016" d="M-140.3,39.6c0-29.5-2.3-54.9-36.5-54.9c-34.2,0-36.5,25.4-36.5,54.9v98.9h-29.9V36.2
		c0-46.7,17.5-79.2,66.4-79.2c48.9,0,66.4,32.5,66.4,79.2v102.3h-29.9V39.6z"/>
	<path fill="#D72016" d="M-243.1,39.6c0-29.5-2.3-54.9-36.5-54.9c-34.2,0-36.5,25.4-36.5,54.9v98.9H-346V36.2
		c0-46.7,17.5-79.2,66.4-79.2c48.9,0,66.4,32.5,66.4,79.2v102.3h-29.9V39.6z"/>
	<path fill="#D72016" d="M-242.5,39.6c0-29.5-3.2-54.9-37.3-54.9c-34.2,0-37.3,25.4-37.3,54.9v98.9h-28.2V36.2
		c0-46.7,16.6-79.2,65.5-79.2c48.9,0,65.5,32.5,65.5,79.2v102.3h-28.2V39.6z"/>
	<path fill="#D72016" d="M-52.1,59.8c0,29.5,3.4,54.9,39.6,54.9c36.3,0,39.6-25.4,39.6-54.9v-98.7H57v102
		c0,46.7-17.6,79.2-69.5,79.2c-51.9,0-69.5-32.5-69.5-79.2v-102h29.9V59.8z"/>
	<rect x="233.9" y="-38.9" fill="#D72016" width="35.4" height="136.5"/>
	<path fill="#D72016" d="M170,2.6c-4.1-9.3-13.1-17.9-23.9-17.9c-10.5,0-21.7,8.2-21.7,19.4c0,16.1,20.2,22,40.7,30.6
		c20.6,8.6,40.7,20.9,40.7,50.5c0,33.3-26.9,57.2-59.4,57.2c-29.5,0-52.7-16.8-62-44.5l26.5-11.2c7.5,16.4,16.1,28,35.9,28
		c16.1,0,28.4-10.8,28.4-26.9C175.2,48.6,96,62,96,6.7C96-22.8,119.9-43,148.3-43c20.2,0,38.9,14.2,46.7,32.5L170,2.6z"/>
	<path fill="#D72016" d="M387,114.7c-36.6,0-60.5-30.3-60.5-65c0-35.1,25.8-65,62-65c14.7,0,26.9,4.7,37.4,12.4l17.7-22.7
		c-15.7-11.1-35-17.4-54-17.4c-51.6,0-93.8,40.4-93.8,92.7c0,53.1,40.4,92.7,93.4,92.7c20.9,0,38.5-6.3,55.7-17.9v0l-17.7-22.7
		C416.1,110.1,403.1,114.7,387,114.7"/>
</g>
</svg>
