<?xml version="1.0" encoding="utf-8"?>
<!-- Generator: Adobe Illustrator 17.1.0, SVG Export Plug-In . SVG Version: 6.00 Build 0)  -->
<!DOCTYPE svg PUBLIC "-//W3C//DTD SVG 1.1//EN" "http://www.w3.org/Graphics/SVG/1.1/DTD/svg11.dtd">
<svg version="1.1" id="Layer_1" xmlns="http://www.w3.org/2000/svg" xmlns:xlink="http://www.w3.org/1999/xlink" x="0px" y="0px"
	 viewBox="0 0 527.4 232.7" enable-background="new 0 0 527.4 232.7" xml:space="preserve">
<g>
	<g>
		<path fill="#0090D4" d="M185.3,137.2c1-4.6-0.3-12.3-0.3-12.3l-1.7,1.7c-0.7,0.8-1.5,1.8-2.3,2.9l0.1,0.9c1.4-2.1,2.6-3.4,3.4-4.2
			c0.3,2,0.5,5.3,0.4,7.9c0,1.1-0.3,2.3-0.5,3.4L185.3,137.2z"/>
		<path fill="#0090D4" d="M173.2,135.3c-0.8,1.9-1.7,4-2,6.5c-0.3,2.2,0.1,4.1,0.5,5.9c0.3,1.6,0.5,2.7,0.3,4.2l0.8-0.4
			c0-1.2-0.1-2.6-0.4-3.9c-0.3-1.3-0.6-2.8-0.6-4.3c0-0.5,0-1,0.1-1.5c0.2-1.9,0.6-3,1.2-4.5L173.2,135.3z"/>
		<path fill="#0090D4" d="M191.2,135.9c-2.7,0.1-8.2,1.2-12.1,4.5c-4,3.3-5.8,9.3-6.2,11.4l0,1c1.8-1.1,3.2-1.6,4.6-2.1
			c1.6-0.6,3-1.2,4.9-2.5c4.5-3.5,7.7-9,9.1-11.9l0.2-0.4L191.2,135.9z M179.1,141.1c3.8-3.4,8.6-4.3,11.4-4.6
			c-1.6,2.9-3.9,7.3-8.5,10.9c-1.8,1.3-3.2,1.9-4.7,2.5c-1.3,0.5-2.2,0.9-3.8,1.8C174,149.4,175.4,144.4,179.1,141.1z"/>
		<path fill="#0090D4" d="M121,182.5c-1.3,1.1-3,4.9-3.4,5.7c0.1-1.1-0.1-1.6,0.2-2.4c-0.4,0.2-1.4,0.3-2.4,1.3
			c0.3-1.1,1.9-3.1,4-4.8l-0.2-0.2c0.1,0-1,0.5-2.4,2c-1.1,1.2-1.9,2-2.2,3.7c0,0,0,1,0.5,0.2c0.5-0.8,1.5-1.2,2.1-1.5
			c-0.1,0.7-0.1,2-0.1,2s0.1,1.5,0.5,0.5c1-2.4,2.6-5.2,4.3-6.8L121,182.5z"/>
		<polygon fill="#0090D4" points="132,181.5 132,181.5 132,181.5 		"/>
		<path fill="#0090D4" d="M123.2,183c1.8,1.8,3,4.4,3.5,6.8l0.1,0.7c0,0,0.6-2.7,0.7-3.6c0.4,0.4,2.6,2.3,2.6,2.3
			c-0.2-1.2-0.7-2.8-1.7-4.4c-0.9-1.4-2.6-2.4-3.3-2.8l-0.2,0.5c0.5,0.3,1.8,0.8,2.8,2.3c0.6,0.8,1.3,2.1,1.4,3
			c-0.4-0.7-1.6-1.4-2.1-1.7c0,0.4-0.1,1.7-0.3,2.5c-0.4-1.7-0.6-2-1.4-3.6c-0.7-1.1-0.5-0.8-1.6-2.2L123.2,183z M125.7,180.8
			c1,0.4,8.1,2.5,8.2,2.9c0.1,0.3-1,0.5-1.5,0.3c-1.4-1.1-4.2-2.3-6.8-2.9l-0.1,0.3c2.6,0.6,5.1,2,6.4,3.1c0.1,0,0.3,0.2,0.5,0.2
			c0.7,0,1.4-0.5,1.8-0.5c0.4,0,0.6-1,0-1c-0.6,0-7.3-2.5-8.5-2.8L125.7,180.8z M118.5,181.3c-2.6,0.7-5.4,2-6.9,3
			c-0.5,0.2-1.2-0.2-1.1-0.5c0.1-0.3,6.6-2.3,7.9-2.8v-0.4c-1.5,0.4-7.7,2.6-8.3,2.6c-0.6,0.1-0.3,1,0,1.1c0.4,0.2,0.9,0.5,1.5,0.5
			c0.2,0,0.6-0.2,0.6-0.3c1.3-1.1,3.9-2.4,6.5-3.1L118.5,181.3z"/>
		<path fill="#0090D4" d="M122.4,179.5c0.7-0.6,2.4-0.3,2.8,0.4c0.3,0.5,0.2,0.8-0.1,1.5c-0.3,0.7-1.2,1.1-1.7,1.1
			c-0.7,0-1.1-0.2-1.4-0.4l-0.3,0.3c0.2,0.4,1,0.7,1.5,0.7c1.2,0,2.1-0.6,2.4-1.5c0.2-0.6,0.3-1.3,0-1.9c-0.2-0.4-0.6-0.7-1-0.8
			c-0.4-0.2-1.2-0.2-1.8-0.1c-0.3,0.1-0.5,0.2-0.9,0.4L122.4,179.5z M121.9,180.5C121.9,180.5,121.9,180.5,121.9,180.5L121.9,180.5z
			"/>
		<path fill="#0090D4" d="M118.1,179.5c-0.2,0.6-0.1,1.5,0.4,2.2c0.4,0.5,0.8,0.9,1.4,0.9c0.8,0.1,2.1,0.4,2.8-1
			c0.5-1.6,0-2.7-1.3-2.9C120,178.4,118.5,178.7,118.1,179.5z M121.2,179c1.2,0.2,1,1.5,0.8,2.3c-0.2,0.9-0.9,0.8-2,0.7
			c-0.3,0-0.8-0.3-1.1-0.7c-0.3-0.4-0.5-0.8-0.5-1.2c0-0.2,0-0.3,0.1-0.5C119,178.9,120.2,178.5,121.2,179z"/>
		<path fill="#0090D4" d="M182,142.8c-2.7,1.1-5.1,3.6-7.1,6.6c-0.1,0.1-0.1,0.3,0,0.2c1.8-2.1,4.8-5.3,7.3-6.6
			C183.3,142.6,182.7,142.5,182,142.8z"/>
		<path fill="#0090D4" d="M188.7,108c-1.1-4.5-3.9-7.4-5.3-9.1l-0.3-0.4l-0.1,0.5l-0.5,1.8c-0.8,2.8-1.8,5.8-1.7,9.4l0.8,0.4
			c-0.4-2.8,1.2-8.2,1.9-10.6c1.8,2.3,3.8,4.8,4.5,8.5L188.7,108z"/>
		<path fill="#0090D4" d="M184.6,114.2c-1.4-3-7.6-7.6-7.6-7.6s0.2,6.4,0.7,8.9l0.8,0.4c-0.6-2.6-0.9-7.5-0.9-7.9
			c0.3,0.3,5.1,4,6.5,6.9L184.6,114.2z M183.9,126c-0.5-1.3-1.4-2.2-2.4-3.5l-0.1,0.8c1,1.3,1.8,2.2,2.1,3.1L183.9,126z"/>
		<path fill="#0090D4" d="M193.6,103.9c-2.2,1.1-6.8,4.5-9,9.4c-2.1,4.9-1.1,10.8-0.6,12.9l0.7-0.7l0.2,1.6c1.1-1.8,2-2.7,3-3.9
			c1.1-1.3,2.2-2.5,3.1-4.5c2.4-4.9,2.6-10.7,2.8-14.5l0-0.4L193.6,103.9z M184.5,125.6c-0.3-1.3-0.5-3-0.5-5.3
			c0-2.3,0.4-4.7,1.2-6.8c1.1-2.8,4.8-6.6,8-8.7c-0.2,3.8-0.4,8.7-3,13.7c-1,1.9-2.1,3.1-3.1,4.4c-0.9,1-1.2,1.4-2.2,3
			C184.9,125.7,184.5,125.8,184.5,125.6z"/>
		<path fill="#0090D4" d="M184.4,125.6c0,0.1,0.2-0.3,0.3-0.3c0.1,0,0.2,0.6,0.2,0.5c0.4-5.3,1.5-6.8,3.3-10.4
			c0.1-0.1,0-0.4-0.1-0.3C187.5,115.7,184.8,120.3,184.4,125.6z"/>
		<path fill="#0090D4" d="M182.5,134.1c-0.5,1.4-1.2,2.5-1.2,2.5c0,0.1,0,0.9,0,0.8l1.2-2.8C182.7,134.1,183,132.7,182.5,134.1z"/>
		<path fill="#0090D4" d="M179.9,113.4c1.1,1.2,2.9,5,3.5,7.5c0,0.1,0.1-0.7,0.1-0.8c-0.9-2.7-2.1-5.8-3.5-6.8
			C179.8,113.1,179.7,113.2,179.9,113.4z"/>
		<path fill="#0090D4" d="M184.9,113c0-2.8-0.3-5.3-0.6-6.4c0-0.3,0.1-0.2,0.1-0.1c0.8,2.8,0.7,3.7,0.7,6.3L184.9,113z"/>
		<path fill="#0090D4" d="M174.8,146.4c0.7-2.2,0.5-3.5,0.6-6.2c0.4,0,1.1,2.4,0,5.6L174.8,146.4z"/>
		<path fill="#0090D4" d="M169.5,161.2c3-3.8,3.8-10.2,3.8-10.2s-7.3,2.8-10.4,5l0.1,0.7c1.1-1.2,9.1-4.4,9.6-4.6
			c-0.5,2.1-1.5,5.8-3.9,8.9L169.5,161.2z"/>
		<path fill="#0090D4" d="M151.7,168.8c0.8-1.2,1.3-2.6,1.7-4.1c0.5-1.7,0.8-3.2,2-5c1.1-2.4,7-7.1,7.3-7.4c0,0.4,0.1,5.6-1.6,9.4
			l0.7-0.1c1.6-2.9,1.4-6.3,1.5-8.6l0.1-2l-1.4,1.1c-2.4,1.9-5,3.9-7.1,7c-1.2,1.8-1.7,3.7-2.2,5.4c-0.5,1.6-0.9,3-1.8,4.3
			L151.7,168.8"/>
		<path fill="#0090D4" d="M175.6,162.7c-2.2-1.1-7.7-2.8-12.9-1.6c-5.2,1.2-9.5,5.8-10.8,7.6h0.6l-0.5,0.9c2.1-0.2,3.3,0,4.8,0.1
			c1.7,0.1,3.3,0.3,5.5-0.2c5.4-1,10.1-4.3,13.3-6.5l0.3-0.2L175.6,162.7z M156.7,164.8c1.8-1.4,4-2.7,6.2-3.2
			c5-1.1,8.9,0.5,11.7,1.3c-3.1,2.2-7,5.1-12.5,6c-2.1,0.3-3.7,0.3-5.3,0.2c-1.4-0.1-2.7-0.2-4.1-0.2
			C153.4,167.8,154.5,166.4,156.7,164.8z"/>
		<path fill="#0090D4" d="M154.9,167.2c-0.1,0.1-0.5,0.5-0.5,0.6c0.1,0.1,0.6,0,0.7-0.1c4.7-2.4,6-2.6,9.4-3.3
			c0.1,0,0.3-0.2,0.2-0.2C163.9,164,159.5,164.8,154.9,167.2z"/>
		<path fill="#0090D4" d="M159.8,157.4c-1.4,2-3.5,6.5-3.9,7.3c-0.1,0.1,0.8-0.3,0.8-0.4c0.4-1.4,2.4-5.4,3.5-6.9
			C160.5,157.1,159.9,157.2,159.8,157.4z"/>
		<path fill="#0090D4" d="M163,161.1c2.2-1.7,4.2-3.4,5.9-5.5c-1.5,2.7-2.9,3.9-5.4,5.5L163,161.1z"/>
		<path fill="#0090D4" d="M146.3,176.8c3.5-2.9,5.4-6.3,6.5-8.1l0.3-0.4l-0.5,0.1l-1.8,0.1c-2.9,0.2-5.6,0.3-9.1,1.6l-0.1,0.7
			c4.6-1.5,9.1-1.7,10.2-1.8c-1.2,1.9-3.1,5.1-6.3,7.5L146.3,176.8z"/>
		<path fill="#0090D4" d="M127.7,178.7c0.9-1.1,1.4-1.8,2.2-3.1c1-1.5,2-3.5,3.5-4.9c2.9-2.4,8.8-4.4,9.3-4.6
			c-0.1,0.4-2.2,7-4.6,8.8l0.7,0.2c2.3-2.3,3.6-6,4.3-8.2l0.7-1.9l-1.7,0.7c-2.8,1.1-6.2,2.1-9.1,4.5c-1.6,1.4-2.7,3.6-3.7,5.1
			c-0.9,1.4-1.7,2.5-3,4.1L127.7,178.7z"/>
		<path fill="#0090D4" d="M151.3,179.5c-2-1.5-6.3-4.5-11.6-4.8c-5.3-0.3-12.5,3.8-14.2,5l0,0.5l0.7-0.1c2.1,0.4,3.7,0.8,5.2,1.2
			c1.6,0.5,3.3,1.1,5.5,1.3c5.5,0.5,10.9-1.3,14.6-2.5l0.7-0.2L151.3,179.5z M132.8,176.7c2.1-0.8,4.6-1.5,6.8-1.3
			c4.9,0.3,7.8,2.5,10.9,4.5c-4.4,1.2-7.4,2.7-13.7,2.2c-2.2-0.2-3.9-0.9-5.5-1.3c-1.3-0.4-3-0.7-4.8-1.1
			C127.7,179,130.4,177.6,132.8,176.7z"/>
		<path fill="#0090D4" d="M140.8,178.8c0.1,0,0.7,0.3,0.6,0.5c0,0.1-0.6,0.2-0.7,0.1c-5.2-0.9-6.5-0.8-9.9-0.4
			c-0.1,0-0.4-0.1-0.3-0.2C131.3,178.3,135.7,177.9,140.8,178.8z"/>
		<path fill="#0090D4" d="M137.4,171c-1.2,1.9-4.7,4.6-5.3,5.3c-0.1,0.1,0.8,0,0.9-0.1c0.8-1.3,4.3-4.1,5.3-5.6
			C138.5,170.2,137.6,170.8,137.4,171z"/>
		<path fill="#0090D4" d="M141.1,175.1c2.2-1.7,3.6-2.4,6.2-3.5c0.7-0.4-0.6,0-1.1,0.2c-1.9,0.6-3.9,1.7-5.6,3.2L141.1,175.1z"/>
		<path fill="#0090D4" d="M59.9,137.1c-0.2-1.1-0.3-2.2-0.3-3.3c-0.1-2.6-0.1-5.8,0.2-7.7c0.5,0.5,1.2,1.2,2.6,2.7l0-1
			c-0.8-0.7-1.1-1-1.3-1.3l-1.7-1.7c0,0-1.2,7.7-0.3,12.2L59.9,137.1z"/>
		<path fill="#0090D4" d="M69.9,133.1c-0.4-0.5,2.3,5.1,2.7,8.7c0.1,0.5,0.1,1,0.1,1.5c0,1.5-0.4,3-0.6,4.3c-0.2,1.2-0.4,2.8-0.4,4
			l0.7,0.3c0-1.5,0-2.5,0.4-4.2c0.3-1.8,0.9-3.9,0.6-6.1c-0.4-3.7-3.3-9.8-3.3-9.8L69.9,133.1z"/>
		<path fill="#0090D4" d="M65.1,140.7c3.7,3,5.3,8.8,5.9,11c-1.6-0.9-2.5-1.3-3.8-1.8c-1.6-0.6-3-1.4-4.8-2.7
			c-4.7-3.5-7-7.9-8.5-10.8c1.9,0.1,5.2,0.7,8.1,2.1l0.1-0.7c-3.2-1.4-6.7-1.9-8.8-1.9l-0.4,0l0.2,0.4c1.4,2.9,4.6,8.4,9.1,11.9
			c1.8,1.3,3.3,1.9,4.9,2.5c1.4,0.5,2.7,0.9,4.5,2l0-0.9c-0.4-2-1.9-8-5.7-11.3L65.1,140.7z"/>
		<path fill="#0090D4" d="M62.5,142.8c2.7,1.1,5.1,3.6,7.1,6.6c0.1,0.1,0.1,0.3,0,0.2c-1.8-2.1-4.8-5.3-7.3-6.6
			C61.2,142.6,61.7,142.5,62.5,142.8z"/>
		<path fill="#0090D4" d="M56.5,108.2c1.1-3.8,2.9-6.2,4.5-8.4c1.4,4.7,2.2,9.2,1.9,10.7l0.8-0.6c0.1-3.6-1-6.5-1.8-9.3L61.4,99
			l-0.1-0.5L61,98.9c-1.4,1.7-3.9,4.7-5.2,8.9L56.5,108.2z"/>
		<path fill="#0090D4" d="M60.3,114.7c1.3-2.9,6.2-6.6,6.5-6.8c0,0.4-0.1,4.6-0.4,7l0.8-0.3c0.5-2.4,0.2-8.1,0.2-8.1
			s-6.2,4.7-7.6,7.6L60.3,114.7z M60.9,126.7c0.2-0.5,0.5-1,1.3-2l-0.1-1c-0.8,1-1.2,1.5-1.6,2.4L60.9,126.7z"/>
		<path fill="#0090D4" d="M50.5,103.7c0,0-0.8,7.6,2.8,15c1,2,2.1,3.1,3.2,4.4c1,1.1,1.9,1.9,3,3.7l0.2-1.3l0.7,0.7
			c0.6-2.1,1.4-7.9-0.6-12.9C57.4,107.1,50.5,103.7,50.5,103.7z M59.5,126c-1-1.6-1.3-2.1-2.2-3.1c-1.1-1.2-2-1.8-3.3-4.4
			c-2.5-4.9-2.8-9.1-2.9-13.8c2.2,1.2,6.3,4.2,8.1,8.8c0.8,2.1,1.1,4.4,1.1,6.7c0,2.3-0.1,3.9-0.4,5.3
			C59.9,125.7,59.5,125.8,59.5,126z"/>
		<path fill="#0090D4" d="M60,125.6c0,0.1-0.2-0.3-0.3-0.3c-0.1,0-0.2,0.6-0.2,0.5c-0.4-5.3-1.3-6.9-3.3-10.4
			c-0.1-0.1,0-0.4,0.1-0.3C57,115.7,59.6,120.3,60,125.6z"/>
		<path fill="#0090D4" d="M64.5,113.4c-1.2,1.1-3,5-3.5,7.5c0,0.1-0.1-0.7-0.1-0.8c0.6-2.6,2.2-5.9,3.5-6.8
			C64.7,113.1,64.7,113.2,64.5,113.4z"/>
		<path fill="#0090D4" d="M59.5,113c0-2.8,0.3-5.3,0.6-6.4c0-0.3-0.1-0.2-0.1-0.1c-0.8,2.8-0.7,3.7-0.7,6.3L59.5,113z"/>
		<path fill="#0090D4" d="M69.7,146.3c-0.5-2.2-0.6-4.1-0.8-6.2c-0.4,0-0.8,2.6,0.3,5.8L69.7,146.3z"/>
		<path fill="#0090D4" d="M81.5,156c-2.8-2.1-5.7-3.1-8.5-4.1l-1.7-0.7l-0.4-0.2l0.2,0.5c0.5,2.1,1.3,5.9,4,9.6l0.8-0.2
			c-2.4-3.2-3.4-6.7-4.1-8.8c0.5,0.2,8.5,3.5,9.6,4.7L81.5,156z"/>
		<path fill="#0090D4" d="M92.7,168.8l0.9,0c-0.9-1.3-1.3-2.6-1.8-4.2c-0.5-1.8-1-3.6-2.2-5.5c-2.2-3.2-4.8-5.2-7.2-7L81,151l0.1,2
			c0,2.3-0.1,5.7,1.5,8.6l0.6,0c-1.5-2.8-1.6-8.9-1.6-9.3c0.3,0.2,5.2,4.1,7.3,7.2c1.1,1.7,1.5,3.5,2,5.2
			C91.5,166.1,92,167.5,92.7,168.8"/>
		<path fill="#0090D4" d="M68.6,162.8l0.3,0.2c3.2,2.2,7.9,5.5,13.3,6.5c2.2,0.4,3.8,0.3,5.5,0.2c1.5-0.1,2.6-0.3,4.8-0.1l-0.5-0.9
			h0.6c-1.3-1.8-5.6-6.3-10.8-7.6c-5.2-1.2-10.7,0.5-12.9,1.6L68.6,162.8z M91.8,168.8c-1.5,0-2.6,0.1-3.9,0.2
			c-1.7,0.1-3.2,0-5.3-0.3c-5.5-0.9-9.4-3.6-12.5-5.7c2.3-1,7-2.5,11.8-1.2c2.2,0.6,4.3,1.6,6.2,3C90,166.4,91,167.8,91.8,168.8z"/>
		<path fill="#0090D4" d="M89.6,167.2c0.1,0.1,0.5,0.5,0.5,0.6c-0.1,0.1-0.6,0-0.7-0.1c-4.7-2.4-6-2.6-9.4-3.3
			c-0.1,0-0.3-0.2-0.2-0.2C80.6,164,85,164.8,89.6,167.2z"/>
		<path fill="#0090D4" d="M84.8,157.4c1.4,2,3.5,6.5,3.9,7.3c0.1,0.1-0.8-0.3-0.8-0.4c-0.4-1.4-2.4-5.4-3.5-6.9
			C84.1,157.1,84.6,157.2,84.8,157.4z"/>
		<path fill="#0090D4" d="M81.4,161.1c-2.2-1.7-4.2-3.4-5.9-5.5c1.5,2.7,2.9,3.9,5.4,5.5L81.4,161.1z"/>
		<path fill="#0090D4" d="M98.6,176.4c-3.2-2.3-4.9-5.4-6-7.3c0.5,0,8.1,0.4,10.2,1.7l0-0.8c-3.4-1.5-6.2-1.3-9.1-1.5l-1.8-0.1
			l-0.5-0.1l0.3,0.4c1.1,1.9,2.8,5.3,6.3,8.1L98.6,176.4z"/>
		<path fill="#0090D4" d="M118.2,179.9l0.4-0.4c-1.7-1.6-2.4-2.7-3.3-4.1c-1-1.5-2-3.6-3.7-5c-2.7-2.6-11-5.4-11-5.4s2.2,7.5,5,10.1
			l0.8-0.2c-2.2-2.3-3.6-5.8-4.8-8.8c0.4,0.1,6.2,2.1,9.1,4.5c1.6,1.4,2.9,3.5,3.8,5C115.7,177.6,118.2,179.9,118.2,179.9z"/>
		<path fill="#0090D4" d="M92.2,180.1l0.7,0.2c3.7,1.2,9.1,3,14.6,2.5c2.2-0.2,3.7-0.8,5.3-1.4c1.4-0.5,3.3-0.9,5.5-1.3l0.2-0.5
			l-0.5-0.4c-1.7-1.2-7.9-4.8-13.2-4.5c-5.3,0.3-9.6,3.3-11.6,4.8L92.2,180.1z M117.4,179.5c-1.8,0.4-3.2,0.7-4.5,1.1
			c-1.5,0.6-3.2,0.9-5.3,1.3c-3.5,0.7-10.1-0.9-13.8-2.1c1.9-1.7,6.9-4.2,11-4.4c2.2-0.1,4.7,0.4,6.8,1.2
			C114.1,177.7,116.3,178.8,117.4,179.5z"/>
		<path fill="#0090D4" d="M103.6,178.8c-0.1,0-0.7,0.3-0.6,0.5c0,0.1,0.6,0.2,0.7,0.1c5.2-0.9,6.5-0.8,9.9-0.4
			c0.1,0,0.4-0.1,0.3-0.2C113.2,178.3,108.7,177.9,103.6,178.8z"/>
		<path fill="#0090D4" d="M107,171.1c1.3,1.9,4.8,4.6,5.3,5.3c0.1,0.1-0.8,0-0.9-0.1c-0.8-1.3-4.3-4.1-5.3-5.6
			C105.9,170.3,106.8,170.9,107,171.1z"/>
		<path fill="#0090D4" d="M103.4,175.1c-2.2-1.7-3.6-2.4-6.2-3.5c-0.7-0.4,0.6,0,1.1,0.2c1.9,0.6,3.9,1.7,5.6,3.2L103.4,175.1z"/>
		<path fill="#0090D4" d="M122,176.4c-0.1-0.2-0.3-0.5-0.3-0.5c-0.5-0.6-1.8-1.4-2.9-1.2c-0.7,0.1-1.2,0.4-1.4,0.9
			c-0.5,1.2,0.6,3.2,1.5,3.5l0.3-0.2c-1.1-0.8-1.7-2.3-1.4-3.1c0.2-0.4,0.6-0.6,1.1-0.7c0.4-0.1,0.9,0.1,1.3,0.3
			c-0.1,0-0.9,0-1.3,0.8c-0.4,0.7-0.2,1.8,0.6,2.6l0.5-0.1c-0.7-0.7-0.9-1.8-0.6-2.3c0.1-0.3,0.4-0.5,0.8-0.5c0.4,0,0.7,0,1,0.1
			c0.2,0.1,0.5,0.5,0.6,0.7c0.4,0.7,0.1,1.6-0.2,2l0.4,0.3C122.2,178.4,122.4,177.2,122,176.4z"/>
		<path fill="#0090D4" d="M120.3,175.7c0.9,0.8,0.6,2.2,0.4,2.8l0.5,0.1c0.2-0.6,0.4-2.1-0.7-3.1L120.3,175.7z"/>
		<path fill="#0090D4" d="M123.2,176.9c0.2-1.3,1.8-2,2.8-1.5c0.5,0.2,0.9,0.5,1,1c0.4,1.3-0.9,3.1-1.7,3.4l-0.3-0.5
			c1.2-0.6,1.7-1.8,1.6-2.6c-0.1-0.4-0.2-0.8-0.7-1c-0.4-0.2-0.9-0.1-1.3,0c0.1,0,0.9,0.2,1.2,1c0.2,0.8-0.1,1.9-0.9,2.6l-0.5-0.1
			c0.6-0.6,1.1-1.7,1-2.3c-0.1-0.3-0.3-0.6-0.7-0.8c-0.2-0.1-0.5-0.1-0.5-0.1c-0.4,0.3-0.5,0.6-0.6,1c-0.2,0.8,0,1.5,0.1,1.9l-0.3,0
			C123.2,178.3,123,177.8,123.2,176.9z"/>
		<path fill="#0090D4" d="M124,175.8c-1.4,0.9-1.6,2-1.8,3.3l-0.4-0.2c0.2-1.8,1.3-3.1,2.7-3.6L124,175.8z"/>
		<path fill="#0090D4" d="M163.9,94c0.4-0.4,0.7-0.6,0.7-0.6l-2.8-4.6c0,0-4,1.6-4.5,1.8c-0.3-0.4-1.9-2.5-2.1-2.8
			c0.3-0.4,2.6-3.9,2.6-3.9l-4-3.8c0,0-3.5,2.6-3.9,2.9c-0.4-0.3-2.4-1.9-2.8-2.1c0.2-0.5,1.6-4.6,1.6-4.6l-0.5-0.3l-0.6,0.6
			c-0.2,0.6-1.5,4.5-1.5,4.5l3.9,3c0,0,3.4-2.5,3.9-2.8c0.4,0.4,2.5,2.4,2.9,2.8c-0.3,0.5-2.6,3.9-2.6,3.9l3,3.9
			c0,0,3.8-1.6,4.4-1.8c0.3,0.5,1.8,3,2.1,3.4c-0.1,0.1-0.4,0.4-0.9,0.7L163.9,94z M162.1,100.8c0,0,4.1-0.6,4.6-0.6
			c0.2,0.5,1.1,3.4,1.2,3.9c-0.5,0.3-4.3,2.2-4.3,2.2l0.5,2.7l1,0.2c-0.2-0.9-0.4-2.2-0.5-2.5c0.5-0.2,4.2-2.2,4.2-2.2l-1.6-5.3
			c0,0-2.9,0.4-4.2,0.6L162.1,100.8z M152.2,147.1c0.5-0.4,0.8-0.7,1-0.9c0.5,0.3,4.1,2.3,4.1,2.3l3.6-4.2c0,0-2.5-3.2-2.8-3.6
			c0.2-0.4,1.5-2.6,1.8-3c0.5,0.2,0.5,0.1,4.5,1.3l2.5-5c0,0-3.3-2.5-3.8-2.8c0.1-0.4,1-2.9,1.1-3.3c0.1,0,0.2-0.1,0.5-0.1l-1.3-0.8
			l-1.5,4.5c0,0,3.4,2.5,3.9,2.8c-0.2,0.5-1.5,3.2-1.8,3.7c-0.6-0.2-4.7-1.4-4.7-1.4l-2.5,4.2c0,0,2.6,3.2,3,3.6
			c-0.3,0.4-2.2,2.6-2.6,3c-0.5-0.3-4.1-2.3-4.1-2.3l-1.2,1.1L152.2,147.1z M96.6,154.9l0.6,0.4c0,0,3.1-2.8,3.5-3.1
			c0.4,0.2,2.6,1.4,3,1.6c-0.1,0.5-0.8,4.7-0.8,4.7l5.1,2c0,0,2.2-3.5,2.4-3.9c0.5,0.1,3,0.8,3.4,0.9c0,0.5,0.2,4.7,0.2,4.7l5.5,0.7
			c0,0,1.3-4,1.5-4.5c0.5,0,3.1,0,3.6,0c0.1,0.5,1.3,4.5,1.3,4.5l5.5-0.6c0,0,0.3-4.2,0.3-4.7c0.5-0.1,3-0.7,3.4-0.8
			c0.3,0.4,2.5,3.9,2.5,3.9l5.1-2c0,0-0.6-3.9-0.7-4.4c0.4-0.2,2.6-1.4,3-1.6c0.4,0.4,3.3,3.1,3.3,3.1l1.9-1.3l-0.4-0.7
			c-0.6,0.4-1.2,0.8-1.4,1c-0.4-0.4-3.4-3.4-3.4-3.4l-4.2,2.2c0,0,0.7,4.1,0.8,4.6c-0.5,0.2-3.2,1.2-3.7,1.4c-0.3-0.5-2.4-4-2.4-4
			l-4.7,1c0,0-0.2,4.2-0.3,4.8c-0.5,0.1-3.5,0.4-4,0.4c-0.2-0.6-1.3-4.5-1.3-4.5h-4.9c0,0-1.2,3.9-1.4,4.5c-0.5-0.1-3.5-0.5-4-0.6
			c0-0.6-0.1-4.8-0.1-4.8l-4.7-1.3c0,0-2.1,3.5-2.5,4c-0.5-0.2-3.2-1.2-3.7-1.4c0.1-0.6,0.9-4.8,0.9-4.8l-4.2-2.2c0,0-3,2.8-3.5,3.2
			L96.6,154.9z M85.3,94.2c-0.9-0.8-1.9-1.8-2.1-2c0.3-0.5,1.9-2.9,2.2-3.3c0.5,0.2,4.4,1.8,4.4,1.8l3.1-3.7c0,0-2.3-3.5-2.6-4
			c0.4-0.4,2.5-2.3,2.9-2.7c0.5,0.3,3.9,2.8,3.9,2.8l3-2.2l-0.4-0.7c-0.7,0.5-2.2,1.6-2.5,1.8c-0.4-0.3-3.9-2.9-3.9-2.9l-3.9,3.6
			c0,0,2.3,3.6,2.6,4.1c-0.3,0.4-2,2.4-2.3,2.8c-0.5-0.2-4.5-1.8-4.5-1.8l-3,4.5c0,0,1,0.9,2,1.8L85.3,94.2z M82.4,98.6
			c-1.4-0.2-3.1-0.4-3.1-0.4l-1.6,4.9c0,0,3.7,2.1,4.2,2.4c-0.1,0.3-0.3,1.2-0.5,2.1l0.9-0.2l0.5-2.3c0,0-3.6-2-4.1-2.3
			c0.2-0.5,1.1-3.2,1.2-3.7c0.3,0,1.8,0.2,3.1,0.4L82.4,98.6z M79.3,126.8c1.2,0,2.4,0,2.6,0c0.1,0.4,1,2.9,1.1,3.3
			c-0.4,0.3-4.1,2.9-4.1,2.9l2.2,4.8c0,0,4.2-1.1,4.7-1.2c0.2,0.4,1.7,2.7,1.9,3.1c-0.3,0.4-3.1,3.7-3.1,3.7l3.4,4.3
			c0,0,3.9-2.1,4.3-2.4c0.1,0.1,0.4,0.3,0.7,0.7l0.3-0.9l-1-0.9c0,0-3.7,2-4.3,2.3c-0.3-0.4-2.1-2.7-2.4-3.1
			c0.4-0.4,3.1-3.6,3.1-3.6l-2.5-4.2c0,0-4.1,1-4.7,1.2c-0.2-0.5-1.4-3.1-1.7-3.6c0.5-0.3,4-2.8,4-2.8l-1.5-4.5c0,0-0.7,0-1.5,0
			L79.3,126.8z M144.3,73.7l-0.3-0.2c0,0-2.7,3.3-3,3.7c-0.4-0.2-2.8-1.2-3.3-1.4c0-0.5,0.4-4.7,0.4-4.7l-5.3-1.4
			c0,0-0.3,0.5-0.6,1.2l0.3,1.2c0.3-0.7,0.6-1.3,0.7-1.5c0.5,0.1,3.4,0.9,3.9,1c0,0.6-0.4,4.6-0.4,4.6l4.5,1.9L144.3,73.7z
			 M112.9,69.7l-3.6,0.9c0,0,0.2,4.3,0.3,4.9c-0.4,0.2-2.9,1.1-3.3,1.3c-0.3-0.4-2.9-3.9-2.9-3.9l-4,2.1l0.5,0.7
			c0.8-0.4,2.8-1.5,3.3-1.7c0.4,0.5,2.8,3.9,2.8,3.9l4.5-1.8c0,0-0.2-4.2-0.3-4.8c0.3-0.1,1.6-0.4,2.6-0.7L112.9,69.7z"/>
		<path fill="#0090D4" d="M130.9,131.3c4.4,5.1,7.3,9.7,7.3,11.9c0,0.2,0,0.4-0.1,0.5c-1.1,3.3-8.2,7.3-15,7.1
			c-5.9-0.1-12.3-3.5-13.9-7.1c-0.1-0.2-0.1-0.5-0.1-0.8c0-2.1,2-6.2,6.2-11.3l-0.6-0.8c-4.8,5.8-7.3,10.8-6.4,13.2
			c1.8,4,8.6,7.5,14.8,7.7c6.6,0.1,14.4-3.7,15.8-7.7c0.8-2.4-2.6-7.8-7.4-13.3L130.9,131.3z M127.2,126c-0.3-0.3-1.2-1.2-1.2-1.2
			s-1.3,0.6-2.9,0.6c-1.5,0-2.7-0.8-2.7-0.8s-1,1-1.3,1.3l0.5,0.6c0.3-0.3,0.6-0.6,0.9-0.9c0.9,0.5,1.6,0.6,2.5,0.6
			c1.1,0.1,1.8-0.1,2.8-0.5c0.3,0.3,0.6,0.5,0.9,0.7L127.2,126z"/>
		<path fill="#0090D4" d="M88.6,123.3c1.4,4.1,3.9,7.5,6.4,8.4c0.5,0.2,1.2,0.1,2-0.1l0.2-0.9c-0.8,0.2-1.4,0.3-1.8,0.2
			c-2.1-0.8-4.5-3.9-5.9-7.9L88.6,123.3z M101.1,129.7c2.3-1.4,4.8-3.4,6.9-5.2l-0.5-0.6c-1.8,1.6-4.1,3.4-6.1,4.7L101.1,129.7z
			 M94.7,102.2c0.2-0.1,0.4-0.2,0.6-0.3c1-0.4,2.8,0,5.2,1.3l1.1-0.3c-2.9-1.6-5.2-2.3-6.7-1.7c-0.3,0.1-0.6,0.3-0.9,0.5L94.7,102.2
			z"/>
		<path fill="#0090D4" d="M144.3,103.6c3-2,5.4-3.1,6.6-2.7c0.4,0.1,0.8,0.4,1.3,0.7l0.5-0.6c-0.5-0.4-1-0.6-1.5-0.8
			c-1.6-0.6-4.5,0.8-7.9,3.2L144.3,103.6z M143.5,127.3c-1.6-1-3.3-2.3-4.8-3.6l-0.5,0.6c1.7,1.5,3.7,2.9,5.5,4.1L143.5,127.3z
			 M156,124.1c-1.3,2.8-3.2,5-5.2,5.8c-0.7,0.3-1.9,0.1-3.4-0.5l0.2,0.9c1.5,0.5,2.7,0.6,3.6,0.3c2.2-0.9,4.2-3.3,5.6-6.3L156,124.1
			z"/>
		<path fill="#0090D4" d="M124.2,80.5c-0.4,0-0.8-0.1-1.2-0.1c-0.8,0-1.7,0-2.6,0.1l-0.2,0.8c0.9-0.1,1.9-0.2,2.8-0.1
			c0.5,0,0.9,0,1.4,0.1L124.2,80.5z"/>
		<path fill="#0090D4" d="M132.8,72.5c-0.1,0-0.2,0.1-0.2,0.2c0,0.1,0.1,0.2,0.2,0.2h4.7c0.1,0,0.2-0.1,0.2-0.2
			c0-0.1-0.1-0.2-0.2-0.2H132.8z"/>
		<path fill="#0090D4" d="M109.8,72.5c-0.1,0-0.2,0.1-0.2,0.2c0,0.1,0.1,0.2,0.2,0.2h2.2c0.1,0,0.2-0.1,0.2-0.2
			c0-0.1-0.1-0.2-0.2-0.2H109.8z"/>
		<path fill="#0090D4" d="M133.4,74.9c-0.1,0-0.2,0.1-0.2,0.2c0,0.1,0.1,0.2,0.2,0.2h3.9c0.1,0,0.2-0.1,0.2-0.2
			c0-0.1-0.1-0.2-0.2-0.2H133.4z"/>
		<path fill="#0090D4" d="M110,74.9c-0.1,0-0.2,0.1-0.2,0.2c0,0.1,0.1,0.2,0.2,0.2h1.5c0.1,0,0.2-0.1,0.2-0.2c0-0.1-0.1-0.2-0.2-0.2
			H110z"/>
		<path fill="#0090D4" d="M99.9,74.9c-0.1,0-0.2,0.1-0.2,0.2c0,0.1,0.1,0.2,0.2,0.2h4.6c0.1,0,0.2-0.1,0.2-0.2
			c0-0.1-0.1-0.2-0.2-0.2H99.9z"/>
		<path fill="#0090D4" d="M133.9,77.2c-0.1,0-0.2,0.1-0.2,0.2c0,0.1,0.1,0.2,0.2,0.2h6.2c0.1,0,0.2-0.1,0.2-0.2
			c0-0.1-0.1-0.2-0.2-0.2H133.9z"/>
		<path fill="#0090D4" d="M121.8,77.2c-0.1,0-0.2,0.1-0.2,0.2c0,0.1,0.1,0.2,0.2,0.2h1.5c0.1,0,0.2-0.1,0.2-0.2
			c0-0.1-0.1-0.2-0.2-0.2H121.8z"/>
		<path fill="#0090D4" d="M101.2,77.2c-0.1,0-0.2,0.1-0.2,0.2c0,0.1,0.1,0.2,0.2,0.2h9.6c0.1,0,0.2-0.1,0.2-0.2
			c0-0.1-0.1-0.2-0.2-0.2H101.2z"/>
		<path fill="#0090D4" d="M145.1,80.1c-0.1,0-0.2,0.1-0.2,0.2c0,0.1,0.1,0.2,0.2,0.2h1.8c0.1,0,0.2-0.1,0.2-0.2
			c0-0.1-0.1-0.2-0.2-0.2H145.1z"/>
		<path fill="#0090D4" d="M134.5,79.5c-0.1,0-0.2,0.1-0.2,0.2c0,0.1,0.1,0.2,0.2,0.2h5.7c0.1,0,0.2-0.1,0.2-0.2
			c0-0.1-0.1-0.2-0.2-0.2H134.5z"/>
		<path fill="#0090D4" d="M121,79.5c-0.1,0-0.2,0.1-0.2,0.2c0,0.1,0.1,0.2,0.2,0.2h2.8c0.1,0,0.2-0.1,0.2-0.2c0-0.1-0.1-0.2-0.2-0.2
			H121z"/>
		<path fill="#0090D4" d="M102.6,79.5c-0.1,0-0.2,0.1-0.2,0.2c0,0.1,0.1,0.2,0.2,0.2h7.6c0.1,0,0.2-0.1,0.2-0.2
			c0-0.1-0.1-0.2-0.2-0.2H102.6z"/>
		<path fill="#0090D4" d="M151.2,82.4c-0.1,0-0.2,0.1-0.2,0.2c0,0.1,0.1,0.2,0.2,0.2h4.3c0.1,0,0.2-0.1,0.2-0.2
			c0-0.1-0.1-0.2-0.2-0.2H151.2z"/>
		<path fill="#0090D4" d="M135.2,81.9c-0.1,0-0.2,0.1-0.2,0.2c0,0.1,0.1,0.2,0.2,0.2h3.5c0.1,0,0.2-0.1,0.2-0.2
			c0-0.1-0.1-0.2-0.2-0.2H135.2z"/>
		<path fill="#0090D4" d="M104,81.9c-0.1,0-0.2,0.1-0.2,0.2c0,0.1,0.1,0.2,0.2,0.2h5.7c0.1,0,0.2-0.1,0.2-0.2c0-0.1-0.1-0.2-0.2-0.2
			H104z"/>
		<path fill="#0090D4" d="M142.1,84.8c-0.1,0-0.2,0.1-0.2,0.2c0,0.1,0.1,0.2,0.2,0.2h14.3c0.1,0,0.2-0.1,0.2-0.2
			c0-0.1-0.1-0.2-0.2-0.2H142.1z"/>
		<path fill="#0090D4" d="M91.6,84.8c-0.1,0-0.2,0.1-0.2,0.2c0,0.1,0.1,0.2,0.2,0.2h11.6c0.1,0,0.2-0.1,0.2-0.2
			c0-0.1-0.1-0.2-0.2-0.2H91.6z"/>
		<path fill="#0090D4" d="M140.7,87c-0.1,0-0.2,0.1-0.2,0.2c0,0.1,0.1,0.2,0.2,0.2h14.3c0.1,0,0.2-0.1,0.2-0.2
			c0-0.1-0.1-0.2-0.2-0.2H140.7z"/>
		<path fill="#0090D4" d="M107.3,86.4c-0.1,0-0.2,0.1-0.2,0.2c0,0.1,0.1,0.2,0.2,0.2h1.2c0.1,0,0.2-0.1,0.2-0.2
			c0-0.1-0.1-0.2-0.2-0.2H107.3z"/>
		<path fill="#0090D4" d="M139.1,89.3c-0.1,0-0.2,0.1-0.2,0.2c0,0.1,0.1,0.2,0.2,0.2H156c0.1,0,0.2-0.1,0.2-0.2
			c0-0.1-0.1-0.2-0.2-0.2H139.1z"/>
		<path fill="#0090D4" d="M90.4,89.3c-0.1,0-0.2,0.1-0.2,0.2c0,0.1,0.1,0.2,0.2,0.2h15.2c0.1,0,0.2-0.1,0.2-0.2
			c0-0.1-0.1-0.2-0.2-0.2H90.4z"/>
		<path fill="#0090D4" d="M137.7,91.7c-0.1,0-0.2,0.1-0.2,0.2c0,0.1,0.1,0.2,0.2,0.2h25.5c0.1,0,0.2-0.1,0.2-0.2
			c0-0.1-0.1-0.2-0.2-0.2H137.7z"/>
		<path fill="#0090D4" d="M83.1,91.7c-0.1,0-0.2,0.1-0.2,0.2c0,0.1,0.1,0.2,0.2,0.2h23.5c0.1,0,0.2-0.1,0.2-0.2
			c0-0.1-0.1-0.2-0.2-0.2H83.1z"/>
		<path fill="#0090D4" d="M161.8,100.5c-0.1,0-0.2,0.1-0.2,0.2c0,0.1,0.1,0.2,0.2,0.2h5.2c0.1,0,0.2-0.1,0.2-0.2
			c0-0.1-0.1-0.2-0.2-0.2H161.8z"/>
		<path fill="#0090D4" d="M79.3,100.5c-0.1,0-0.2,0.1-0.2,0.2c0,0.1,0.1,0.2,0.2,0.2h4.9c0.1,0,0.2-0.1,0.2-0.2
			c0-0.1-0.1-0.2-0.2-0.2H79.3z"/>
		<path fill="#0090D4" d="M159.9,102.8c-0.1,0-0.2,0.1-0.2,0.2c0,0.1,0.1,0.2,0.2,0.2h8c0.1,0,0.2-0.1,0.2-0.2
			c0-0.1-0.1-0.2-0.2-0.2H159.9z"/>
		<path fill="#0090D4" d="M78.8,102.8c-0.1,0-0.2,0.1-0.2,0.2c0,0.1,0.1,0.2,0.2,0.2h7.7c0.1,0,0.2-0.1,0.2-0.2
			c0-0.1-0.1-0.2-0.2-0.2H78.8z"/>
		<path fill="#0090D4" d="M157.3,105.2c-0.1,0-0.2,0.1-0.2,0.2c0,0.1,0.1,0.2,0.2,0.2h8.7c0.1,0,0.2-0.1,0.2-0.2
			c0-0.1-0.1-0.2-0.2-0.2H157.3z"/>
		<path fill="#0090D4" d="M82.6,105.2c-0.1,0-0.2,0.1-0.2,0.2c0,0.1,0.1,0.2,0.2,0.2h6.2c0.1,0,0.2-0.1,0.2-0.2
			c0-0.1-0.1-0.2-0.2-0.2H82.6z"/>
		<path fill="#0090D4" d="M160.7,107.5c-0.1,0-0.2,0.1-0.2,0.2c0,0.1,0.1,0.2,0.2,0.2h3.5c0.1,0,0.2-0.1,0.2-0.2
			c0-0.1-0.1-0.2-0.2-0.2H160.7z"/>
		<path fill="#0090D4" d="M118.5,121.4c-0.1,0-0.2,0.1-0.2,0.2c0,0.1,0.1,0.2,0.2,0.2h9.1c0.1,0,0.2-0.1,0.2-0.2
			c0-0.1-0.1-0.2-0.2-0.2H118.5z"/>
		<path fill="#0090D4" d="M87,123.8c-0.1,0-0.2,0.1-0.2,0.2c0,0.1,0.1,0.2,0.2,0.2h2.4c0.1,0,0.2-0.1,0.2-0.2c0-0.1-0.1-0.2-0.2-0.2
			H87z"/>
		<path fill="#0090D4" d="M155.1,126.1c-0.1,0-0.2,0.1-0.2,0.2c0,0.1,0.1,0.2,0.2,0.2h6c0.1,0,0.2-0.1,0.2-0.2
			c0-0.1-0.1-0.2-0.2-0.2H155.1z"/>
		<path fill="#0090D4" d="M136.4,126.1c-0.1,0-0.2,0.1-0.2,0.2c0,0.1,0.1,0.2,0.2,0.2h5.1c0.1,0,0.2-0.1,0.2-0.2
			c0-0.1-0.1-0.2-0.2-0.2H136.4z"/>
		<path fill="#0090D4" d="M105,126.1c-0.1,0-0.2,0.1-0.2,0.2c0,0.1,0.1,0.2,0.2,0.2h4.9c0.1,0,0.2-0.1,0.2-0.2
			c0-0.1-0.1-0.2-0.2-0.2H105z"/>
		<path fill="#0090D4" d="M82.2,126.1c-0.1,0-0.2,0.1-0.2,0.2c0,0.1,0.1,0.2,0.2,0.2h8.2c0.1,0,0.2-0.1,0.2-0.2
			c0-0.1-0.1-0.2-0.2-0.2H82.2z"/>
		<path fill="#0090D4" d="M153.2,128.5c-0.1,0-0.2,0.1-0.2,0.2c0,0.1,0.1,0.2,0.2,0.2h10c0.1,0,0.2-0.1,0.2-0.2
			c0-0.1-0.1-0.2-0.2-0.2H153.2z"/>
		<path fill="#0090D4" d="M135.7,128.5c-0.1,0-0.2,0.1-0.2,0.2c0,0.1,0.1,0.2,0.2,0.2h7.8c0.1,0,0.2-0.1,0.2-0.2
			c0-0.1-0.1-0.2-0.2-0.2H135.7z"/>
		<path fill="#0090D4" d="M101.8,128.5c-0.1,0-0.2,0.1-0.2,0.2c0,0.1,0.1,0.2,0.2,0.2h6.6c0.1,0,0.2-0.1,0.2-0.2
			c0-0.1-0.1-0.2-0.2-0.2H101.8z"/>
		<path fill="#0090D4" d="M83.1,128.5c-0.1,0-0.2,0.1-0.2,0.2c0,0.1,0.1,0.2,0.2,0.2h8.6c0.1,0,0.2-0.1,0.2-0.2
			c0-0.1-0.1-0.2-0.2-0.2H83.1z"/>
		<path fill="#0090D4" d="M147.9,130.8c-0.1,0-0.2,0.1-0.2,0.2c0,0.1,0.1,0.2,0.2,0.2h14.6c0.1,0,0.2-0.1,0.2-0.2
			c0-0.1-0.1-0.2-0.2-0.2H147.9z"/>
		<path fill="#0090D4" d="M137.3,130.8c-0.1,0-0.2,0.1-0.2,0.2c0,0.1,0.1,0.2,0.2,0.2h7.5c0.1,0,0.2-0.1,0.2-0.2
			c0-0.1-0.1-0.2-0.2-0.2H137.3z"/>
		<path fill="#0090D4" d="M131.5,130.8c-0.1,0-0.2,0.1-0.2,0.2c0,0.1,0.1,0.2,0.2,0.2h2.4c0.1,0,0.2-0.1,0.2-0.2
			c0-0.1-0.1-0.2-0.2-0.2H131.5z"/>
		<path fill="#0090D4" d="M112.3,130.8c-0.1,0-0.2,0.1-0.2,0.2c0,0.1,0.1,0.2,0.2,0.2h2.8c0.1,0,0.2-0.1,0.2-0.2
			c0-0.1-0.1-0.2-0.2-0.2H112.3z"/>
		<path fill="#0090D4" d="M100.6,130.8c-0.1,0-0.2,0.1-0.2,0.2c0,0.1,0.1,0.2,0.2,0.2h6.4c0.1,0,0.2-0.1,0.2-0.2
			c0-0.1-0.1-0.2-0.2-0.2H100.6z"/>
		<path fill="#0090D4" d="M82.4,130.8c-0.1,0-0.2,0.1-0.2,0.2c0,0.1,0.1,0.2,0.2,0.2h11.8c0.1,0,0.2-0.1,0.2-0.2
			c0-0.1-0.1-0.2-0.2-0.2H82.4z"/>
		<path fill="#0090D4" d="M148.5,133.2c-0.1,0-0.2,0.1-0.2,0.2c0,0.1,0.1,0.2,0.2,0.2h16.4c0.1,0,0.2-0.1,0.2-0.2
			c0-0.1-0.1-0.2-0.2-0.2H148.5z"/>
		<path fill="#0090D4" d="M138.8,133.2c-0.1,0-0.2,0.1-0.2,0.2c0,0.1,0.1,0.2,0.2,0.2h6.7c0.1,0,0.2-0.1,0.2-0.2
			c0-0.1-0.1-0.2-0.2-0.2H138.8z"/>
		<path fill="#0090D4" d="M133.4,133.2c-0.1,0-0.2,0.1-0.2,0.2c0,0.1,0.1,0.2,0.2,0.2h2c0.1,0,0.2-0.1,0.2-0.2
			c0-0.1-0.1-0.2-0.2-0.2H133.4z"/>
		<path fill="#0090D4" d="M110.8,133.2c-0.1,0-0.2,0.1-0.2,0.2c0,0.1,0.1,0.2,0.2,0.2h2.5c0.1,0,0.2-0.1,0.2-0.2
			c0-0.1-0.1-0.2-0.2-0.2H110.8z"/>
		<path fill="#0090D4" d="M116.9,123.8c-0.1,0-0.2,0.1-0.2,0.2c0,0.1,0.1,0.2,0.2,0.2h11.8c0.1,0,0.2-0.1,0.2-0.2
			c0-0.1-0.1-0.2-0.2-0.2H116.9z"/>
		<path fill="#0090D4" d="M99.9,133.2c-0.1,0-0.2,0.1-0.2,0.2c0,0.1,0.1,0.2,0.2,0.2h5.6c0.1,0,0.2-0.1,0.2-0.2
			c0-0.1-0.1-0.2-0.2-0.2H99.9z"/>
		<path fill="#0090D4" d="M80.2,133.2c-0.1,0-0.2,0.1-0.2,0.2c0,0.1,0.1,0.2,0.2,0.2h16.2c0.1,0,0.2-0.1,0.2-0.2
			c0-0.1-0.1-0.2-0.2-0.2H80.2z"/>
		<path fill="#0090D4" d="M149.1,135.5c-0.1,0-0.2,0.1-0.2,0.2c0,0.1,0.1,0.2,0.2,0.2h16.2c0.1,0,0.2-0.1,0.2-0.2
			c0-0.1-0.1-0.2-0.2-0.2H149.1z"/>
		<path fill="#0090D4" d="M140.4,135.5c-0.1,0-0.2,0.1-0.2,0.2c0,0.1,0.1,0.2,0.2,0.2h5.8c0.1,0,0.2-0.1,0.2-0.2
			c0-0.1-0.1-0.2-0.2-0.2H140.4z"/>
		<path fill="#0090D4" d="M135,135.5c-0.1,0-0.2,0.1-0.2,0.2c0,0.1,0.1,0.2,0.2,0.2h2c0.1,0,0.2-0.1,0.2-0.2c0-0.1-0.1-0.2-0.2-0.2
			H135z"/>
		<path fill="#0090D4" d="M109.3,135.5c-0.1,0-0.2,0.1-0.2,0.2c0,0.1,0.1,0.2,0.2,0.2h2.3c0.1,0,0.2-0.1,0.2-0.2
			c0-0.1-0.1-0.2-0.2-0.2H109.3z"/>
		<path fill="#0090D4" d="M99.2,135.5c-0.1,0-0.2,0.1-0.2,0.2c0,0.1,0.1,0.2,0.2,0.2h4.8c0.1,0,0.2-0.1,0.2-0.2
			c0-0.1-0.1-0.2-0.2-0.2H99.2z"/>
		<path fill="#0090D4" d="M81.1,135.5c-0.1,0-0.2,0.1-0.2,0.2c0,0.1,0.1,0.2,0.2,0.2h14.6c0.1,0,0.2-0.1,0.2-0.2
			c0-0.1-0.1-0.2-0.2-0.2H81.1z"/>
		<path fill="#0090D4" d="M149.8,137.8c-0.1,0-0.2,0.1-0.2,0.2c0,0.1,0.1,0.2,0.2,0.2h8.8c0.1,0,0.2-0.1,0.2-0.2
			c0-0.1-0.1-0.2-0.2-0.2H149.8z"/>
		<path fill="#0090D4" d="M141.8,137.8c-0.1,0-0.2,0.1-0.2,0.2c0,0.1,0.1,0.2,0.2,0.2h5.2c0.1,0,0.2-0.1,0.2-0.2
			c0-0.1-0.1-0.2-0.2-0.2H141.8z"/>
		<path fill="#0090D4" d="M136.6,137.8c-0.1,0-0.2,0.1-0.2,0.2c0,0.1,0.1,0.2,0.2,0.2h2.1c0.1,0,0.2-0.1,0.2-0.2
			c0-0.1-0.1-0.2-0.2-0.2H136.6z"/>
		<path fill="#0090D4" d="M107.8,137.8c-0.1,0-0.2,0.1-0.2,0.2c0,0.1,0.1,0.2,0.2,0.2h2c0.1,0,0.2-0.1,0.2-0.2
			c0-0.1-0.1-0.2-0.2-0.2H107.8z"/>
		<path fill="#0090D4" d="M98.3,137.8c-0.1,0-0.2,0.1-0.2,0.2c0,0.1,0.1,0.2,0.2,0.2h4.1c0.1,0,0.2-0.1,0.2-0.2
			c0-0.1-0.1-0.2-0.2-0.2H98.3z"/>
		<path fill="#0090D4" d="M87.6,137.8c-0.1,0-0.2,0.1-0.2,0.2c0,0.1,0.1,0.2,0.2,0.2h7.5c0.1,0,0.2-0.1,0.2-0.2
			c0-0.1-0.1-0.2-0.2-0.2H87.6z"/>
		<path fill="#0090D4" d="M150.4,140.2c-0.1,0-0.2,0.1-0.2,0.2c0,0.1,0.1,0.2,0.2,0.2h7c0.1,0,0.2-0.1,0.2-0.2
			c0-0.1-0.1-0.2-0.2-0.2H150.4z"/>
		<path fill="#0090D4" d="M143.4,140.2c-0.1,0-0.2,0.1-0.2,0.2c0,0.1,0.1,0.2,0.2,0.2h4.3c0.1,0,0.2-0.1,0.2-0.2
			c0-0.1-0.1-0.2-0.2-0.2H143.4z"/>
		<path fill="#0090D4" d="M138,140.2c-0.1,0-0.2,0.1-0.2,0.2c0,0.1,0.1,0.2,0.2,0.2h2.5c0.1,0,0.2-0.1,0.2-0.2
			c0-0.1-0.1-0.2-0.2-0.2H138z"/>
		<path fill="#0090D4" d="M106.3,140.2c-0.1,0-0.2,0.1-0.2,0.2c0,0.1,0.1,0.2,0.2,0.2h2.9c0.1,0,0.2-0.1,0.2-0.2
			c0-0.1-0.1-0.2-0.2-0.2H106.3z"/>
		<path fill="#0090D4" d="M97.6,140.2c-0.1,0-0.2,0.1-0.2,0.2c0,0.1,0.1,0.2,0.2,0.2h3.3c0.1,0,0.2-0.1,0.2-0.2
			c0-0.1-0.1-0.2-0.2-0.2H97.6z"/>
		<path fill="#0090D4" d="M88,140.2c-0.1,0-0.2,0.1-0.2,0.2c0,0.1,0.1,0.2,0.2,0.2h6.5c0.1,0,0.2-0.1,0.2-0.2c0-0.1-0.1-0.2-0.2-0.2
			H88z"/>
		<path fill="#0090D4" d="M151,142.4c-0.1,0-0.2,0.1-0.2,0.2c0,0.1,0.1,0.2,0.2,0.2h7.7c0.1,0,0.2-0.1,0.2-0.2
			c0-0.1-0.1-0.2-0.2-0.2H151z"/>
		<path fill="#0090D4" d="M144.9,142.4c-0.1,0-0.2,0.1-0.2,0.2c0,0.1,0.1,0.2,0.2,0.2h3.6c0.1,0,0.2-0.1,0.2-0.2
			c0-0.1-0.1-0.2-0.2-0.2H144.9z"/>
		<path fill="#0090D4" d="M104.8,142.4c-0.1,0-0.2,0.1-0.2,0.2c0,0.1,0.1,0.2,0.2,0.2h3.8c0.1,0,0.2-0.1,0.2-0.2
			c0-0.1-0.1-0.2-0.2-0.2H104.8z"/>
		<path fill="#0090D4" d="M96.9,142.4c-0.1,0-0.2,0.1-0.2,0.2c0,0.1,0.1,0.2,0.2,0.2h2.6c0.1,0,0.2-0.1,0.2-0.2
			c0-0.1-0.1-0.2-0.2-0.2H96.9z"/>
		<path fill="#0090D4" d="M86.2,142.4c-0.1,0-0.2,0.1-0.2,0.2c0,0.1,0.1,0.2,0.2,0.2h7.7c0.1,0,0.2-0.1,0.2-0.2
			c0-0.1-0.1-0.2-0.2-0.2H86.2z"/>
		<path fill="#0090D4" d="M151.5,144.7c-0.1,0-0.2,0.1-0.2,0.2c0,0.1,0.1,0.2,0.2,0.2h7.9c0.1,0,0.2-0.1,0.2-0.2
			c0-0.1-0.1-0.2-0.2-0.2H151.5z"/>
		<path fill="#0090D4" d="M146.5,144.7c-0.1,0-0.2,0.1-0.2,0.2c0,0.1,0.1,0.2,0.2,0.2h2.8c0.1,0,0.2-0.1,0.2-0.2
			c0-0.1-0.1-0.2-0.2-0.2H146.5z"/>
		<path fill="#0090D4" d="M138.1,144.7c-0.1,0-0.2,0.1-0.2,0.2c0,0.1,0.1,0.2,0.2,0.2h5.3c0.1,0,0.2-0.1,0.2-0.2
			c0-0.1-0.1-0.2-0.2-0.2H138.1z"/>
		<path fill="#0090D4" d="M103.3,144.7c-0.1,0-0.2,0.1-0.2,0.2c0,0.1,0.1,0.2,0.2,0.2h6.2c0.1,0,0.2-0.1,0.2-0.2
			c0-0.1-0.1-0.2-0.2-0.2H103.3z"/>
		<path fill="#0090D4" d="M96.1,144.7c-0.1,0-0.2,0.1-0.2,0.2c0,0.1,0.1,0.2,0.2,0.2H98c0.1,0,0.2-0.1,0.2-0.2
			c0-0.1-0.1-0.2-0.2-0.2H96.1z"/>
		<path fill="#0090D4" d="M87.1,144.7c-0.1,0-0.2,0.1-0.2,0.2c0,0.1,0.1,0.2,0.2,0.2h6.1c0.1,0,0.2-0.1,0.2-0.2
			c0-0.1-0.1-0.2-0.2-0.2H87.1z"/>
		<path fill="#0090D4" d="M148.1,147.1c-0.1,0-0.2,0.1-0.2,0.2c0,0.1,0.1,0.2,0.2,0.2h1.8c0.1,0,0.2-0.1,0.2-0.2
			c0-0.1-0.1-0.2-0.2-0.2H148.1z"/>
		<path fill="#0090D4" d="M135.8,147.1c-0.1,0-0.2,0.1-0.2,0.2c0,0.1,0.1,0.2,0.2,0.2h9.2c0.1,0,0.2-0.1,0.2-0.2
			c0-0.1-0.1-0.2-0.2-0.2H135.8z"/>
		<path fill="#0090D4" d="M101.8,147.1c-0.1,0-0.2,0.1-0.2,0.2c0,0.1,0.1,0.2,0.2,0.2h10.1c0.1,0,0.2-0.1,0.2-0.2
			c0-0.1-0.1-0.2-0.2-0.2H101.8z"/>
		<path fill="#0090D4" d="M95.3,147.1c-0.1,0-0.2,0.1-0.2,0.2c0,0.1,0.1,0.2,0.2,0.2h1.2c0.1,0,0.2-0.1,0.2-0.2
			c0-0.1-0.1-0.2-0.2-0.2H95.3z"/>
		<path fill="#0090D4" d="M131.5,149.4c-0.1,0-0.2,0.1-0.2,0.2c0,0.1,0.1,0.2,0.2,0.2h15.2c0.1,0,0.2-0.1,0.2-0.2
			c0-0.1-0.1-0.2-0.2-0.2H131.5z"/>
		<path fill="#0090D4" d="M100.2,149.4c-0.1,0-0.2,0.1-0.2,0.2c0,0.1,0.1,0.2,0.2,0.2H116c0.1,0,0.2-0.1,0.2-0.2
			c0-0.1-0.1-0.2-0.2-0.2H100.2z"/>
		<path fill="#0090D4" d="M101.6,151.8c-0.1,0-0.2,0.1-0.2,0.2c0,0.1,0.1,0.2,0.2,0.2h46.6c0.1,0,0.2-0.1,0.2-0.2
			c0-0.1-0.1-0.2-0.2-0.2H101.6z"/>
		<path fill="#0090D4" d="M147.3,154.1c-0.1,0-0.2,0.1-0.2,0.2c0,0.1,0.1,0.2,0.2,0.2h2.3c0.1,0,0.2-0.1,0.2-0.2
			c0-0.1-0.1-0.2-0.2-0.2H147.3z"/>
		<path fill="#0090D4" d="M104,154.1c-0.1,0-0.2,0.1-0.2,0.2c0,0.1,0.1,0.2,0.2,0.2h37.2c0.1,0,0.2-0.1,0.2-0.2
			c0-0.1-0.1-0.2-0.2-0.2H104z"/>
		<path fill="#0090D4" d="M135.4,156.4c-0.1,0-0.2,0.1-0.2,0.2c0,0.1,0.1,0.2,0.2,0.2h6.2c0.1,0,0.2-0.1,0.2-0.2
			c0-0.1-0.1-0.2-0.2-0.2H135.4z"/>
		<path fill="#0090D4" d="M112.8,156.4c-0.1,0-0.2,0.1-0.2,0.2c0,0.1,0.1,0.2,0.2,0.2h19.5c0.1,0,0.2-0.1,0.2-0.2
			c0-0.1-0.1-0.2-0.2-0.2H112.8z"/>
		<path fill="#0090D4" d="M103.7,156.4c-0.1,0-0.2,0.1-0.2,0.2c0,0.1,0.1,0.2,0.2,0.2h5.6c0.1,0,0.2-0.1,0.2-0.2
			c0-0.1-0.1-0.2-0.2-0.2H103.7z"/>
		<path fill="#0090D4" d="M136.8,158.8c-0.1,0-0.2,0.1-0.2,0.2c0,0.1,0.1,0.2,0.2,0.2h3.6c0.1,0,0.2-0.1,0.2-0.2
			c0-0.1-0.1-0.2-0.2-0.2H136.8z"/>
		<path fill="#0090D4" d="M125,158.8c-0.1,0-0.2,0.1-0.2,0.2c0,0.1,0.1,0.2,0.2,0.2h5.9c0.1,0,0.2-0.1,0.2-0.2
			c0-0.1-0.1-0.2-0.2-0.2H125z"/>
		<path fill="#0090D4" d="M114.2,158.8c-0.1,0-0.2,0.1-0.2,0.2c0,0.1,0.1,0.2,0.2,0.2h5.9c0.1,0,0.2-0.1,0.2-0.2
			c0-0.1-0.1-0.2-0.2-0.2H114.2z"/>
		<path fill="#0090D4" d="M105.7,158.8c-0.1,0-0.2,0.1-0.2,0.2c0,0.1,0.1,0.2,0.2,0.2h2.4c0.1,0,0.2-0.1,0.2-0.2
			c0-0.1-0.1-0.2-0.2-0.2H105.7z"/>
		<path fill="#0090D4" d="M125.7,161.1c-0.1,0-0.2,0.1-0.2,0.2c0,0.1,0.1,0.2,0.2,0.2h5.1c0.1,0,0.2-0.1,0.2-0.2
			c0-0.1-0.1-0.2-0.2-0.2H125.7z"/>
		<path fill="#0090D4" d="M114.2,161.1c-0.1,0-0.2,0.1-0.2,0.2c0,0.1,0.1,0.2,0.2,0.2h5.2c0.1,0,0.2-0.1,0.2-0.2
			c0-0.1-0.1-0.2-0.2-0.2H114.2z"/>
		<g>
			<g>
				<g>
					<path fill="#0090D4" d="M136.4,86.9c5.2-8.1,9.9-15.2,13.3-20.5l-0.6-0.5l-12.9,19.9L136.4,86.9z M132.1,92.1l-1.6,2.4l0.9,0
						c0.3-0.5,0.7-1.1,1-1.6L132.1,92.1z M137.7,92.3l15.3-23.6l-0.8-0.5c-3.8,5.8-9,13.9-14.9,23L137.7,92.3z M126.7,101.8
						c0.5-0.7,0.9-1.4,1.4-2.1l-0.9,0l-1.3,2L126.7,101.8z M131.4,102l1.5-2.3l-1.1,0c-0.5,0.7-1,1.5-1.4,2.2L131.4,102z
						 M114.1,121.2c0.4-0.7,0.9-1.3,1.3-2l-0.9,0l-0.9,1.4L114.1,121.2z M117,124.3l3.4-5.2l-1.1,0c-1,1.5-1.9,3-2.9,4.4L117,124.3z
						 M112.7,129.1c-10.5,16.2-18.7,28.8-18.8,29c-0.5-0.3-2.1-1.3-2.6-1.7c0.2-0.2,8.6-13.2,19.1-29.4l-0.5-0.7l-19.7,30.4l4.1,2.6
						l19.1-29.4L112.7,129.1z M157.3,61.9l1.8-2.8l-3.9-2.7l-1.8,2.8l0.6,0.5l1.4-2.2l2.6,1.8l-1.4,2.1L157.3,61.9z"/>
				</g>
				<path fill="#0090D4" d="M145.2,54l-4.6,7l24,15.7l1.5-2.2l-2.7-9.2l-17.9-11.6L145.2,54z M145.7,54.9c0.7,0.4,16.7,10.8,16.9,11
					c0.1,0.3,2.4,8.1,2.5,8.5c-0.1,0.2-0.4,0.7-0.7,1c-0.7-0.4-21.9-14.3-22.6-14.8C142.2,60,145.3,55.5,145.7,54.9z"/>
			</g>
		</g>
		<path fill="#0090D4" d="M156.8,106.4l12.8-12.7h-1.3H138l0.4,1c15.3,0,27.8,0,28.7,0c-0.5,0.5-5.3,5.2-11.4,11.3 M141.1,120.4
			c-2.4,2.4-4.7,4.7-6.9,6.8l0.6,0.8l7.4-7.3L141.1,120.4z M89.7,105.3c-5.8-5.7-10.1-10-10.6-10.5c0.9,0,12.7,0,27.4,0l0.2-1H76.6
			l12,11.9L89.7,105.3z M103.3,120.3l19.7,19.6l10.3-10.2l-0.6-0.9c-5.5,5.5-9.5,9.4-9.7,9.6c-0.3-0.3-8.8-8.8-18.3-18.2
			L103.3,120.3z M132.8,93.7h-19.7l-0.4,1c6.6,0,13.5,0,20.1,0L132.8,93.7z"/>
		<path fill="#0090D4" d="M149.4,104.6l5.1-5.1h-1.2h-13.9l0.2,1c6.7,0,11.7,0,12.4,0c-0.3,0.3-1.8,1.8-3.9,3.9L149.4,104.6z
			 M132.9,119.6c-0.8,0.8-1.5,1.5-2.2,2.2l0.5,0.9l3-3L132.9,119.6z M97.4,103.7c-1.7-1.7-2.9-2.9-3.2-3.2c0.6,0,4.9,0,10.8,0l0.3-1
			H91.7l4.4,4.4L97.4,103.7z M111.6,119.4l11.4,11.4l6.6-6.5l-0.6-0.9c-3.4,3.4-5.8,5.8-6,6c-0.3-0.3-4.7-4.7-10-10.1L111.6,119.4z
			 M134.4,99.4h-18.5l0.6,1c6,0,12.4,0,18.1,0L134.4,99.4z M112.6,99.4h-1.6l-0.3,1c0.9,0,1.7,0,2.6,0L112.6,99.4z"/>
		<g>
			<g>
				<path fill="#0090D4" d="M112.8,95.2l1.8-5.5c0.4-1,0.8-1.7,1.8-2.4c0.7-0.6,2.4-0.9,2.4-0.9l4.1-11.6l-0.6-1.3
					c-2,5.7-4.2,11.9-4.2,12.2c-0.2,0.1-0.4,0.1-0.4,0.1c-0.7,0.2-1.1,0.3-1.7,0.8c-1.2,0.8-1.8,1.7-2.2,2.9c0,0-0.7,2-1.7,5
					L112.8,95.2z M111.2,97.1c-0.5,1.6-1.1,3.3-1.7,5l1-0.1l1.3-4L111.2,97.1z M103.6,120.3c-4.3,13-8.8,26.6-10.9,33.1l1.6-2.3
					l10.3-31L103.6,120.3z M108.5,88.9c4.3-16.6,8.7-33.5,8.8-33.7l-0.6-0.8L107.9,88L108.5,88.9z M107.1,91l-3.1,11.7l0.9-0.1
					c0.9-3.4,1.8-7.1,2.8-10.8L107.1,91z M99.3,120.9l-9.5,36.3L92,158l0.2-0.5l-1.4-0.8c0.1-0.3,4.3-16.6,9.4-36L99.3,120.9z"/>
				<path fill="#0090D4" d="M135.9,102.3l-4.3-13.4l0,0.1c-0.1-0.7-1.3-2-2.2-2.4c-0.7-0.4-2-0.7-3.4-0.9c-0.1-0.5-7.4-29-7.7-30
					l-1-0.5l8,31.3l0.3,0c1,0.2,2.8,0.5,3.4,0.9l0,0l0,0c0.7,0.3,1.7,1.4,1.7,1.8l0,0l0,0l4.2,13.2L135.9,102.3z M140.9,120.5
					l10,31.3l1.5,2c-1.6-5.1-6.2-19.2-10.6-32.9L140.9,120.5z M140.9,103L128,53.9l-0.6,0.8c0,0.2,7.5,28.5,12.6,48.2L140.9,103z
					 M144.8,121.2c4.9,18.7,8.9,34,9,34.3c-0.3,0.1-0.5,0.1-0.8,0.2l-0.7,0.5l0.1,0.5l2.3-0.6l-9.1-34.7L144.8,121.2z M129.4,86.6
					C129.5,86.6,129.5,86.6,129.4,86.6L129.4,86.6C129.4,86.6,129.4,86.6,129.4,86.6z"/>
				<path fill="#0090D4" d="M128.4,119.2c12.8,18.9,24.2,35.8,24.4,36.1c-0.3,0.2-0.7,0.5-1,0.7c-0.2-0.3-11.9-17.7-24.9-36.9l-1,0
					l25.8,38.2l2.4-1.7l-24.6-36.4H128.4z M93.9,66.5l-2.6,1.6l22.7,33.6h1c-0.5-0.7-22.6-33.4-22.8-33.7c0.4-0.2,0.8-0.5,1.2-0.7
					c0.2,0.2,22.7,33.7,23.2,34.4l0.9-0.1L93.9,66.5z"/>
				<path fill="#0090D4" d="M83,64.6l2.3,3.4l3-2L86,62.6L83,64.6z M86.1,63.4c0.3,0.5,1,1.6,1.3,2c-0.4,0.3-1.5,1-1.9,1.3
					c-0.3-0.4-1.1-1.5-1.4-2C84.5,64.5,85.7,63.7,86.1,63.4z"/>
				<path fill="#0090D4" d="M83.3,59.5l6.9,10.3l5.3-3.7l-6.9-10.3L83.3,59.5z M88.4,56.9c0.4,0.6,5.5,8.3,5.9,8.8
					c-0.5,0.4-3.5,2.4-4,2.8c-0.4-0.5-5.4-8-5.9-8.8C84.9,59.4,87.9,57.3,88.4,56.9z"/>
				<path fill="#0090D4" d="M114.8,50L114.8,50c0,2,0.8,3.9,2.2,5.3c1.4,1.4,3.3,2.2,5.3,2.2c2,0,3.8-0.8,5.2-2.1
					c1.4-1.4,2.2-3.3,2.2-5.3c0-4.1-3.4-7.4-7.5-7.5C118.2,42.6,114.8,45.9,114.8,50z M122.2,43.3c3.7,0,6.6,3,6.6,6.6
					c0,1.8-0.7,3.5-1.9,4.7c-1.3,1.2-2.9,1.9-4.7,1.9c-1.8,0-3.4-0.7-4.6-1.9c-1.3-1.3-2-2.9-2-4.7
					C115.6,46.4,118.6,43.4,122.2,43.3z"/>
				<path fill="#0090D4" d="M119,50L119,50c0,0.9,0.4,1.7,1,2.4c0.6,0.6,1.5,1,2.3,1c0.8,0,1.7-0.3,2.3-0.9c0.6-0.6,1-1.5,1-2.4
					c0-1.8-1.5-3.3-3.3-3.3C120.4,46.8,119,48.2,119,50z M122.2,47.5c1.4,0,2.5,1.1,2.5,2.5c0,0.7-0.3,1.3-0.7,1.8
					c-0.5,0.5-1.1,0.7-1.7,0.7c-0.7,0-1.3-0.2-1.7-0.7c-0.5-0.5-0.7-1.1-0.8-1.8C119.8,48.7,120.9,47.5,122.2,47.5z"/>
				<path fill="#0090D4" d="M119.4,49.7c-0.1,0-0.1,0.5,0,0.5h5.7c0.1,0,0.1-0.5,0-0.5H119.4z"/>
			</g>
		</g>
		<path fill="#0090D4" d="M97.6,82.4c-0.1,0-0.2,0.1-0.2,0.2c0,0.1,0.1,0.2,0.2,0.2h3.6c0.1,0,0.2-0.1,0.2-0.2
			c0-0.1-0.1-0.2-0.2-0.2H97.6z"/>
		<path fill="#0090D4" d="M90.6,82.4c-0.1,0-0.2,0.1-0.2,0.2c0,0.1,0.1,0.2,0.2,0.2h6.3c0.1,0,0.2-0.1,0.2-0.2
			c0-0.1-0.1-0.2-0.2-0.2H90.6z"/>
		<path fill="#0090D4" d="M105.8,84.2c-0.1,0-0.2,0.1-0.2,0.2c0,0.1,0.1,0.2,0.2,0.2h3.3c0.1,0,0.2-0.1,0.2-0.2
			c0-0.1-0.1-0.2-0.2-0.2H105.8z"/>
		<path fill="#0090D4" d="M92.3,87c-0.1,0-0.2,0.1-0.2,0.2c0,0.1,0.1,0.2,0.2,0.2h12.1c0.1,0,0.2-0.1,0.2-0.2c0-0.1-0.1-0.2-0.2-0.2
			H92.3z"/>
		<path fill="#0090D4" d="M138.6,142.4c-0.1,0-0.2,0.1-0.2,0.2c0,0.1,0.1,0.2,0.2,0.2h3.1c0.1,0,0.2-0.1,0.2-0.2
			c0-0.1-0.1-0.2-0.2-0.2H138.6z"/>
		<path fill="#0090D4" d="M143.8,82.4c-0.1,0-0.2,0.1-0.2,0.2c0,0.1,0.1,0.2,0.2,0.2h4.8c0.1,0,0.2-0.1,0.2-0.2
			c0-0.1-0.1-0.2-0.2-0.2H143.8z"/>
		<path fill="#0090D4" d="M140.5,101.5c-0.1,0-0.2,0.1-0.2,0.2c0,0.1,0.1,0.2,0.2,0.2h5.7c0.1,0,0.2-0.1,0.2-0.2
			c0-0.1-0.1-0.2-0.2-0.2H140.5z"/>
		<path fill="#0090D4" d="M98.8,101.5c-0.1,0-0.2,0.1-0.2,0.2c0,0.1,0.1,0.2,0.2,0.2h5.7c0.1,0,0.2-0.1,0.2-0.2
			c0-0.1-0.1-0.2-0.2-0.2H98.8z"/>
		<path fill="#0090D4" d="M135.7,84.2c-0.1,0-0.2,0.1-0.2,0.2c0,0.1,0.1,0.2,0.2,0.2h1.5c0.1,0,0.2-0.1,0.2-0.2
			c0-0.1-0.1-0.2-0.2-0.2H135.7z"/>
		<polygon fill="#0090D4" points="76.8,120.4 80.9,120.5 83,117.8 83.4,118.1 80.8,121.3 76.6,121.2 76.8,120.4 		"/>
		<polygon fill="#0090D4" points="75.6,123.2 77.8,113.2 86.3,118.5 87.4,118.6 84.3,120 84.7,119.3 78.2,115.1 76.4,123 
			76.9,123.3 75,124.3 75.6,123.2 		"/>
		<polygon fill="#0090D4" points="84.3,111 87.5,110.1 87.4,110.7 93.6,115.9 95.8,108.7 95.4,108.3 97.7,107.7 96.6,108.5 
			93.7,117.8 85.7,111.1 		"/>
		<polygon fill="#0090D4" points="114.8,106 116.1,106 124.6,112.4 124.6,106.3 124,106 126,106 125.3,106.3 125.3,114.9 116.5,108 
			116.5,114.4 117.1,114.7 115.2,114.7 115.9,114.4 115.9,106.6 114.8,106 		"/>
		<polygon fill="#0090D4" points="101.6,113.6 105.5,114.7 108.3,112.8 108.6,113.2 105.2,115.5 101.2,114.3 101.6,113.6 		"/>
		<polygon fill="#0090D4" points="99.7,116 104.7,106.8 111.2,114.3 112.3,114.7 109,115.3 109.4,114.7 104.4,108.7 100.5,115.9 
			100.8,116.4 98.9,116.6 99.7,116 		"/>
		<polygon fill="#0090D4" points="146.1,108 154.6,109.9 155.2,111.1 154.1,110.3 148.4,109.1 147.7,111.8 151.9,112.8 152.7,112.4 
			152.2,114.1 151.8,113.3 147.6,112.4 146.6,116.5 152.4,117.9 153.9,117.7 152.7,118.6 144.1,116.6 145,116.2 146.7,108.8 
			146.1,108 		"/>
		<path fill="#0090D4" d="M140.4,114.6c-0.1,0-2.7,1-4.3,0.5c-2.3-0.6-4.4-2.2-4.1-4.5c0.2-2.5,2.3-4,5.3-3.6
			c1.4,0.2,2.5,0.5,3.6,1.5l0.3-0.6c0,0.1-2-1.1-3.9-1.4c-3.5-0.5-6.8,0.6-7.2,3.7c-0.5,3.1,2.3,5.2,5.9,5.5
			c1.1,0.1,2.5,0.1,4.6-0.7C141.1,115,140.4,114.6,140.4,114.6z"/>
		<polygon fill="#0090D4" points="161.2,112.1 169.1,115.5 159.1,120.2 165,122.7 166.6,122.7 165.2,123.4 156.4,119.6 166.5,115 
			161.3,112.8 159.7,112.6 		"/>
		<path fill="#0090D4" d="M70.1,132.8c-0.1,0.1,0.1,0.8,0.2,0.7c8.8-8.7,28-14,51.1-14.1c27.7,0,46.2,8,51.8,15.3
			c0.1,0.1,0.3-0.5,0.2-0.6c-5.6-7.5-24.1-15.3-52-15.4C98.1,118.8,79,124,70.1,132.8z"/>
		<path fill="#0090D4" d="M67.5,115.5c-2.9,1.6-4.1,3-4.3,4c0,0.1,0.4-0.1,0.4-0.2c0.2-0.9,1.4-2,4.1-3.4
			c6.4-3.5,23.1-12.8,53.9-12.7c20.1,0,37.8,4.2,54.1,12.9c2.2,1.2,3.7,2.2,4.5,3.4c0.1,0.1,0.4,0.2,0.3,0.1
			c-0.8-1.3-2.4-2.6-4.6-3.8c-16.3-8.8-34.1-13-54.3-13C90.7,102.6,74,111.9,67.5,115.5z"/>
		<path fill="#0090D4" d="M69.8,131.6l0.3,0.3c8.4-8.5,28-13.9,50.8-13.9c28.6,0,45.9,7.7,52.5,15l0.1-0.3c-6.6-7.4-23.8-15-52.6-15
			C98,117.6,78.3,123,69.8,131.6z"/>
		<path fill="#0090D4" d="M61.9,120.7c0,1.2,2,2.2,4.6,2.2c2.6,0,4.6-0.9,4.6-2.2l0,0c0-1.2-2-2.1-4.6-2.2
			C63.9,118.6,62,119.5,61.9,120.7z M62.4,120.7c0-0.8,1.7-1.7,4.2-1.7c2.5,0.1,4.2,0.9,4.2,1.7c0,0.9-1.9,1.7-4.2,1.7
			C64.3,122.4,62.4,121.6,62.4,120.7z"/>
		<path fill="#0090D4" d="M66.4,119.7c-0.9,0-2,0.1-2.4,0.6l-0.2,0.4c0,0,0,0.2,0.1,0.3c0.3,0.3,1.3,0.6,2.4,0.6
			c1.1,0,2.1-0.2,2.4-0.6c0,0,0.1-0.3,0.1-0.3c0,0-0.2-0.4-0.2-0.4C68.4,119.8,67.3,119.7,66.4,119.7z M68.5,120.6l0.1,0.1
			c0,0,0,0,0,0c-0.1,0.2-0.9,0.5-2.1,0.4c-1.2,0-2.1-0.3-2.1-0.4c0-0.1,0-0.1,0-0.1c0.2-0.2,1-0.5,2.1-0.4
			C67.6,120.1,68.3,120.3,68.5,120.6z"/>
		<path fill="#0090D4" d="M172.5,120.6c0.2,1.7,1,6.7,1,9c0,2.9-0.9,9-0.9,9.1c0,0.4,0.1,0.7,0.4,1c0.7,0.7,2.3,1.2,4.1,1.1
			c1.8,0,3.4-0.4,4.2-1.2c0.3-0.3,0.5-0.8,0.5-1.1c-0.1-0.7-0.5-5.7-0.5-8.9c0-3.4,0.5-9,0.5-9c0.1-0.5-0.1-3-3.3-4.9
			c-15.4-9.4-34.6-14.4-57.2-14.4c-24,0-44.6,5.6-57.4,15.2c-1.4,1-2.2,2.7-2.2,4.5c0,0.1,0.7,7.1,0.7,8.7c0,3.2-0.5,8.1-0.6,8.9
			c0,0.6,0.2,0.8,0.5,1.1c0.8,0.8,2.4,1.2,4.2,1.2c1.8,0,3.4-0.4,4.1-1.1c0.3-0.3,0.4-0.6,0.4-1c0-0.1-0.9-6.2-0.9-9.1
			c0-2.2,0.8-6.6,1-8.4c0.1-0.9-0.3-1.2-0.3-1c0.3,1-0.4,1.4-0.4,1.4c-0.2,1.8-1.1,4.5-1.1,8c0,2.9,0.9,9.1,0.9,9.2
			c0,0.2,0,0.2-0.2,0.4c-0.6,0.6-1.9,1-3.6,1c-1.7,0-3.2-0.4-3.8-1c-0.2-0.2-0.3-0.4-0.3-0.6c0.1-0.4,0.1-1.1,0.3-3
			c0.1-1.7,0.3-4,0.3-5.9c0-1.6-0.6-8.7-0.6-8.7c0-1.4,0.7-3.1,1.9-4c12.7-9.5,33.2-15.1,57.1-15.1c22.6,0,41.7,5,57,14.4
			c2.8,1.7,3,4,3,4.4c0,0.1-0.7,5.7-0.7,9c0,1.9,0.2,4.3,0.3,5.9c0.1,1.9,0.1,2.5,0.2,2.9c0,0.2-0.1,0.4-0.3,0.6
			c-0.7,0.7-2,1.1-3.6,1c-1.7,0-3.2-0.4-3.8-1c-0.2-0.2-0.3-0.4-0.3-0.6c0,0,0.9-6,0.9-9c0-2.3-0.6-6.4-0.8-8.2L172.5,120.6z"/>
		<path fill="#0090D4" d="M172.5,120.6L172.5,120.6c0,1.2,2,2.2,4.6,2.2c2.6,0,4.6-0.9,4.6-2.2c0-1.2-2-2.1-4.6-2.2
			C174.5,118.5,172.5,119.5,172.5,120.6z M177.2,118.9c2.5,0.1,4,0.9,4,1.7c0,0.9-1.8,1.8-4,1.8c-2.3,0-4.2-0.8-4.2-1.7
			C172.9,119.9,174.6,119,177.2,118.9z"/>
		<path fill="#0090D4" d="M177.1,119.7c-0.9,0-2,0.1-2.4,0.6c0,0-0.1,0.4-0.2,0.4c0,0,0.1,0.3,0.1,0.3c0.3,0.3,1.3,0.6,2.4,0.6
			c1.1,0,2.1-0.2,2.4-0.6c0.1-0.1,0.1-0.3,0.1-0.3c0,0.1-0.1-0.4-0.1-0.4C179.1,119.8,178,119.6,177.1,119.7z M175,120.6l0.1-0.1
			c0.2-0.2,1-0.5,2.1-0.4c1.1,0,1.9,0.2,2.1,0.4l0,0.1c0,0,0,0,0,0c-0.1,0.2-0.9,0.5-2.1,0.4C175.9,121.1,175.1,120.8,175,120.6
			C175,120.6,175,120.6,175,120.6z"/>
	</g>
	<g>
		<g>
			<path d="M248.5,108.4c-2.3,1.8-6.3,3-9.8,3c-8.8,0-13.5-5.2-13.5-16.1c0-8.3,4.7-15.9,14.2-15.9c4.4,0,7.5,1.3,9.4,3l-2.6,3.5
				c-1.8-1.9-3.9-2.6-6.9-2.6c-6.3,0-9.5,4.7-9.5,11.9c0,8.3,3.3,12.4,9.5,12.4c2.4,0,5-0.9,7.3-2.4L248.5,108.4z"/>
			<path d="M276.1,79.9V111h-4.4V96.8l-14.3,0.5V111h-4.4V79.9h4.4v13.6l14.3-0.6v-13H276.1z"/>
			<path d="M295.3,79.8l10.5,31.2h-4.7l-2.9-9.1l-11.5,0.7l-2.8,8.5h-4.4l11.2-31L295.3,79.8z M287.9,98.6l9-0.5l-0.7-2.3l-3.6-11.6
				L288.8,96L287.9,98.6z"/>
			<path d="M308.9,79.9h4.4v27.2h13.2v3.9h-17.6V79.9z"/>
			<path d="M356.5,93.3l0.2-5.8l-2.2,6l-7.1,17.6l-3.7,0.4l-7.4-17.7l-2.1-5.8l0.2,5.8V111h-4.2V80l4.7-0.2l9,21.3l1.8,5l1.7-5.1
				l8.7-21.2l4.6,0.2v31h-4.2V93.3z"/>
			<path d="M383.5,79.9v3.8h-13.9v9.6l11.5-0.5v3.8l-11.5,0.5v10h14.7v3.9h-19V79.9H383.5z"/>
			<path d="M388.2,80.3c2.9-0.4,6.5-0.5,8.8-0.5c7.5,0,10.3,4.1,10.4,9.5c-0.1,4-1.8,6.8-5.5,8.6l7.3,13.1l-4.8,0.4l-6.5-12.1
				c-1.6,0.4-3.4,0.7-5.4,1V111h-4.3V80.3z M396.3,83.6c-1.1,0-2.2,0.1-3.8,0.2v12.5c6.8-0.4,10.4-2.3,10.4-6.6
				C402.9,85.9,400.8,83.6,396.3,83.6z"/>
			<path d="M425.5,103.1c0-2.9-3.2-4.8-6.2-6.6c-3.6-2.2-7.1-4.4-7.1-8.8c0-5,3.7-8.3,9-8.3c3,0,5.7,0.5,8.4,2.5l-2.5,3.4
				c-1.7-1.6-3.5-2.1-5.8-2.1c-2.9,0-4.7,1.5-4.7,3.9c0,2.5,2.6,4.1,5.2,5.8c3.9,2.3,8.2,4.7,8.2,9.9c0,5.6-4.9,8.6-10.4,8.6
				c-3,0-5.9-0.6-8.5-2.5l2.3-3.5c2.1,1.7,4.3,2.2,6.4,2.2C422.8,107.7,425.5,105.8,425.5,103.1z"/>
		</g>
		<g>
			<path d="M236.6,142.7c0-2.9-3.2-4.8-6.2-6.6c-3.6-2.2-7.1-4.4-7.1-8.8c0-5,3.7-8.3,9-8.3c3,0,5.7,0.5,8.4,2.5l-2.5,3.4
				c-1.7-1.6-3.5-2.1-5.8-2.1c-2.9,0-4.7,1.5-4.7,3.9c0,2.5,2.6,4.1,5.2,5.8c3.9,2.3,8.2,4.7,8.2,9.9c0,5.6-4.9,8.6-10.4,8.6
				c-3,0-5.9-0.6-8.5-2.5l2.3-3.5c2.1,1.7,4.3,2.2,6.4,2.2C233.9,147.3,236.6,145.5,236.6,142.7z"/>
			<path d="M243.4,119.5h22.4v3.8h-9v27.2h-4.4v-27.2h-9V119.5z"/>
			<path d="M288.9,119.5h4.2v20.9c0,8.6-7.1,10.7-12,10.7c-4.5,0-11.5-1.5-11.5-10.2v-21.3h4.3v19.8c0,6.8,3.2,7.8,7.6,7.8
				c4.5,0,7.4-1.9,7.4-8.1V119.5z"/>
			<path d="M297.6,119.7c3-0.1,5.9-0.3,9-0.3c11.1,0,15.6,5.6,15.6,14.8c0,9.2-3.6,16.3-15.6,16.3h-9V119.7z M302,123.5v23.2h4.9
				c8.4,0,10.9-4.7,10.9-11.8c0-8.9-4.1-11.6-11.6-11.6C304.7,123.3,303.4,123.4,302,123.5z"/>
			<path d="M343.8,119.5v3.8h-13.9v9.6l11.5-0.5v3.8l-11.5,0.5v10h14.7v3.9h-19v-31.1H343.8z"/>
			<path d="M352.7,150.6h-4.2v-31l4.3-0.2l12.8,19.2l3.2,5.5l-0.2-5.8v-18.8h4.2v31l-4.1,0.3l-12.8-19.2l-3.5-5.7l0.3,5.8V150.6z"/>
			<path d="M377,119.5h22.7v3.8h-9.2v27.2h-4.4v-27.2H377V119.5z"/>
			<path d="M408.2,119.5v31.1h-4.4v-31.1H408.2z M413.1,134.7l11.4,15.9l-4.8,0.5l-11.3-15.9l10.8-15.7h4.9L413.1,134.7z"/>
			<path d="M442.4,119.4l10.5,31.2h-4.7l-2.9-9.1l-11.5,0.7l-2.8,8.5h-4.4l11.2-31L442.4,119.4z M435.1,138.3l9-0.5l-0.7-2.3
				l-3.6-11.6l-3.8,11.6L435.1,138.3z M435.5,113.8c0-2.7,2.1-4.5,4.7-4.5c2.6,0,4.5,1.7,4.5,4.5c0,2.5-2,4.6-4.6,4.6
				C437.5,118.4,435.5,116.6,435.5,113.8z M442.5,113.8c0-1.7-1-2.6-2.4-2.6c-1.5,0-2.5,1-2.5,2.6c0,1.8,1.1,2.7,2.5,2.7
				C441.5,116.5,442.5,115.5,442.5,113.8z"/>
			<path d="M456,119.9c2.9-0.4,6.5-0.5,8.8-0.5c7.5,0,10.3,4.1,10.4,9.5c-0.1,4-1.8,6.8-5.5,8.6l7.3,13.1l-4.8,0.4l-6.5-12.1
				c-1.6,0.4-3.4,0.7-5.4,1v10.7H456V119.9z M464,123.2c-1.1,0-2.2,0.1-3.8,0.2v12.5c6.8-0.4,10.4-2.3,10.4-6.6
				C470.7,125.5,468.6,123.2,464,123.2z"/>
		</g>
	</g>
</g>
</svg>
