<?xml version="1.0" encoding="utf-8"?>
<!-- Generator: Adobe Illustrator 17.1.0, SVG Export Plug-In . SVG Version: 6.00 Build 0)  -->
<!DOCTYPE svg PUBLIC "-//W3C//DTD SVG 1.1//EN" "http://www.w3.org/Graphics/SVG/1.1/DTD/svg11.dtd">
<svg version="1.1" id="Layer_3" xmlns="http://www.w3.org/2000/svg" xmlns:xlink="http://www.w3.org/1999/xlink" x="0px" y="0px"
	 viewBox="0 0 1055.4 286.5" enable-background="new 0 0 1055.4 286.5" xml:space="preserve">
<g>
	<g>
		<polygon fill="#0069B4" points="52.7,175 52.7,94.4 78.7,175 99.8,175 99.8,65.4 84.4,65.4 84.4,143.6 58.8,65.4 37.4,65.4 
			37.4,175 52.7,175 		"/>
		<polygon fill="#0069B4" points="194,175 194,160.4 159.7,160.4 159.7,125.8 189.2,125.8 189.2,111.2 159.7,111.2 159.7,80 
			193.1,80 193.1,65.4 143.6,65.4 143.6,175 194,175 		"/>
		<path fill="#0069B4" d="M285.2,148.8c0-31.3-38.6-36.8-38.6-57.9c0-7.8,4.4-12.5,11.3-12.5c7.4,0,10.2,7.4,10.2,12.5v8.7H284V91
			c0-13.1-6.8-27-26.1-27c-17.2,0-27.4,10.5-27.4,27c0,32.2,38.6,36.3,38.6,57.9c0,8.4-4.7,13-11.5,13c-8.9,0-11.7-6.5-12.4-13v-9.6
			h-16v9.6c0,13.4,7.2,27.7,28.3,27.7C274.8,176.5,285.2,165.7,285.2,148.8L285.2,148.8z"/>
		<polygon fill="#0069B4" points="353.5,175 353.5,80 373.6,80 373.6,65.4 316.8,65.4 316.8,80 336.8,80 336.8,175 353.5,175 		"/>
		<path fill="#0069B4" d="M84.9,77.5"/>
		<polygon fill="#0069B4" points="462,175 462,160.4 427.7,160.4 427.7,125.8 457.2,125.8 457.2,111.2 427.7,111.2 427.7,80 
			461.1,80 461.1,65.4 411.6,65.4 411.6,175 462,175 		"/>
		<path fill="#0069B4" d="M629.2,175L606.8,65.4h-22.4L561.9,175h15.8l4.8-25h26.1l4.8,25H629.2L629.2,175z M605.6,135.1h-20
			l10.1-51.5L605.6,135.1L605.6,135.1z"/>
		<path fill="#0069B4" d="M720,145.7v-8.6h-16.1v8.6c0,10.7-3,16.3-9.9,16.3c-9.6,0-11.8-6.9-11.8-16.3V92.5c0-2,1.5-13.9,11.4-13.9
			c7.5,0,10.2,4.8,10.2,13.9v10.2H720V92.5c0-20.2-10.6-28.5-26.4-28.5c-7.7,0-27.9,2.9-27.9,28.5v53.2c0,14.8,4.2,30.9,28.2,30.9
			C717.1,176.5,720,158.6,720,145.7L720,145.7z"/>
		<path fill="#0069B4" d="M819.5,144.6V95.3c0-6.8,0-31.3-28.2-31.3c-28.2,0-28,24.6-28,31.3v49.3c0,9.8-0.2,31.9,28,31.9
			C819.5,176.5,819.5,154.4,819.5,144.6L819.5,144.6z M803.3,144.6c0,5.6,0,16.9-12.1,16.9c-12,0-11.9-11.3-11.9-16.9V95.3
			c0-4.7,0-16.6,11.9-16.6c12.1,0,12.1,11.1,12.1,16.6V144.6L803.3,144.6z"/>
		<path fill="#0069B4" d="M923.2,95.5c0-27.9-15.8-30.1-35.3-30.1h-22.1V175h22.1c23.8,0,37.1-6,37.1-32.1
			c0-16.9-6.3-23.5-17.2-24.3C916.4,117,923.2,111.9,923.2,95.5L923.2,95.5z M881.7,125.8h6.2c11.9,0.2,20.8,1.5,20.8,17.2
			c0,15.4-7.1,17.6-20.8,17.5h-6.2V125.8L881.7,125.8z M907,95.5c0,14.3-8.1,15.8-19.1,15.7h-6.2V80h6.2
			C899.8,80.1,907,81.5,907,95.5L907,95.5z"/>
		<path fill="#0069B4" d="M1018,148.8c0-31.3-38.6-36.8-38.6-57.9c0-7.8,4.4-12.5,11.3-12.5c7.4,0,10.2,7.4,10.2,12.5v8.7h15.8V91
			c0-13.1-6.8-27-26.1-27c-17.2,0-27.4,10.5-27.4,27c0,32.2,38.6,36.3,38.6,57.9c0,8.4-4.7,13-11.4,13c-8.9,0-11.8-6.5-12.4-13v-9.6
			h-16v9.6c0,13.4,7.2,27.7,28.3,27.7C1007.6,176.5,1018,165.7,1018,148.8L1018,148.8z"/>
		<path fill="#0069B4" d="M508,65.4h15.7c0,0,0,79.1,0,90c0,20,1.7,31.6-5.3,46.6c-10.8,23.1-40.1,20.4-40.1,20.4
			s19.8,0.6,27.5-24.8c2-6.5,2.3-16.3,2.3-26.5C508,146.2,508,65.4,508,65.4L508,65.4z"/>
		<path fill="#0069B4" d="M163.4,92.1"/>
	</g>
</g>
</svg>
