<?xml version="1.0" encoding="utf-8"?>
<!-- Generator: Adobe Illustrator 17.1.0, SVG Export Plug-In . SVG Version: 6.00 Build 0)  -->
<!DOCTYPE svg PUBLIC "-//W3C//DTD SVG 1.1//EN" "http://www.w3.org/Graphics/SVG/1.1/DTD/svg11.dtd">
<svg version="1.1" id="Lager_1" xmlns="http://www.w3.org/2000/svg" xmlns:xlink="http://www.w3.org/1999/xlink" x="0px" y="0px"
	 viewBox="0 0 1190.6 595.3" enable-background="new 0 0 1190.6 595.3" xml:space="preserve">
<path fill="#312783" d="M160.1,274.8h13.8l24.5,50.8h-14.3l-4.3-9.6h-26.1l-4.3,9.6h-13.9L160.1,274.8z M168.2,290.4
	c-0.4-0.6-0.6-1.4-0.9-2c-0.2-0.6-0.4-1.3-0.4-2c-0.2,0.6-0.4,1.2-0.5,1.8c-0.3,0.6-0.5,1.3-0.8,1.9l-7.7,16.9h17.9L168.2,290.4z"/>
<path fill="#312783" d="M217.9,295.4c1.7-2.7,4.7-7.3,15.3-7.5v10.7c-1-0.1-1.9-0.1-3.1-0.1c-1,0-5.1,0.1-7.9,1.6
	c-3.7,1.9-4.2,4.8-4.2,7.9v17.6h-12v-36.4h12V295.4z"/>
<path fill="#312783" d="M288.4,306.8c0,13.2-11.2,20.3-24.9,20.3c-14.9,0-25.1-7.7-25.1-19.7c0-12.2,10.9-19.9,25.5-19.9
	C279.9,287.6,288.4,296.4,288.4,306.8z M250.8,307.5c0,2,0.8,10.8,12.8,10.8c9.8,0,12.6-6.3,12.6-11.3c0-6.5-5-11.2-13.3-10.8
	C254.2,296.7,250.8,301.9,250.8,307.5z"/>
<path fill="#312783" d="M309.4,313.2c1.4,4.8,6.1,5.6,10.8,5.6c2.2,0,4.2-0.1,6.3-0.8c0.6-0.2,2.7-0.9,2.7-3c0-2.5-2.9-3-8.4-3.7
	c-2.9-0.4-5.8-0.5-8.6-0.9c-3.8-0.4-13.5-1.6-13.5-10.4c0-8.7,9-12.7,21.2-12.7c3.7,0,10.9,0.3,16.3,4.2c3.7,2.7,4.5,5.7,5,7.4
	l-12.3,0.8c-1.1-2.6-4.1-4.5-9.8-4.5c-4.9,0-8.3,1.3-8.3,3.6c0,1.5,1.4,2.2,3.1,2.6c2.2,0.6,3.3,0.6,13.6,1.7
	c2.7,0.3,5.8,0.6,8.3,1.8c3.5,1.7,5.5,5,5.5,8.9c0,3.1-1.3,6-3.5,8.1c-2.7,2.4-7.8,5-18.1,5c-16.8,0-21.5-6.2-23.2-12.7L309.4,313.2
	z"/>
<path fill="#312783" d="M390.6,309.4c0.3,1.2,0.9,3.4,2.2,4.9c2.5,3,6.6,4.2,10.4,4.2c7.7,0,10.5-3.7,11.6-5l12.3,1.2
	c-5.3,8.8-14.3,12.4-24.5,12.4c-6.2,0-12.6-1.2-17.4-5.1c-4.8-3.9-6.8-9.7-6.8-14.9c0-13.4,11.4-19.3,24.4-19.3c5,0,13.4,1.1,18.9,7
	c4.8,5.1,4.9,10.9,5,14.7H390.6z M413.6,302.9c-0.2-1.4-0.8-3.5-3.2-4.9c-1.7-1-4.6-1.9-7.8-1.9c-2.8,0-6,0.6-8.1,2.1
	c-2.1,1.4-2.8,3-3.5,4.7H413.6z"/>
<path fill="#312783" d="M437.1,274.8h11.8v50.8h-11.8V274.8z"/>
<path fill="#312783" d="M471.4,309.4c0.3,1.2,0.9,3.4,2.2,4.9c2.5,3,6.6,4.2,10.4,4.2c7.7,0,10.5-3.7,11.6-5l12.3,1.2
	c-5.3,8.8-14.3,12.4-24.5,12.4c-6.2,0-12.6-1.2-17.4-5.1c-4.8-3.9-6.8-9.7-6.8-14.9c0-13.4,11.4-19.3,24.4-19.3c5,0,13.4,1.1,18.9,7
	c4.8,5.1,4.9,10.9,5,14.7H471.4z M494.4,302.9c-0.2-1.4-0.8-3.5-3.2-4.9c-1.7-1-4.6-1.9-7.8-1.9c-2.8,0-6,0.6-8.1,2.1
	c-2.1,1.4-2.8,3-3.5,4.7H494.4z"/>
<path fill="#312783" d="M562.3,314.3c-5,9.9-15.8,12.8-23.4,12.8c-12.1,0-23.5-6.8-23.5-19.8c0-14.7,13.8-19.7,24-19.7
	c5,0,11.4,1.2,16.2,4.6c3.6,2.6,4.9,5,5.9,7.1l-12.4,1.4c-1-1.3-3.5-4.2-9.7-4.2c-6.9,0-12,4.5-12,10.7c0,4.8,3.5,10.8,11.9,10.8
	c2.6,0,5.4-0.6,7.6-1.9c2.3-1.4,2.8-2.5,3.3-3.5L562.3,314.3z"/>
<path fill="#312783" d="M573.8,279.5h11.8v9.7h8.1v7.1h-8.1v16.5c0,3.5,1.2,4.3,4.6,4.3c1.7,0,2.4-0.1,3.6-0.2v8.5
	c-2.9,0.3-5.8,0.6-8.6,0.6c-2.5,0-5-0.3-7.1-1.3c-4.2-2.2-4.3-6.1-4.3-8.9v-19.5h-5.9v-7.1h5.9V279.5z"/>
<path fill="#312783" d="M617.8,295.4c1.7-2.7,4.7-7.3,15.3-7.5v10.7c-1-0.1-1.9-0.1-3.1-0.1c-1,0-5.1,0.1-7.9,1.6
	c-3.7,1.9-4.2,4.8-4.2,7.9v17.6h-11.9v-36.4h11.9V295.4z"/>
<path fill="#312783" d="M686.3,306.8c0,13.2-11.2,20.3-24.9,20.3c-14.9,0-25.1-7.7-25.1-19.7c0-12.2,10.9-19.9,25.5-19.9
	C677.8,287.6,686.3,296.4,686.3,306.8z M648.7,307.5c0,2,0.8,10.8,12.8,10.8c9.8,0,12.6-6.3,12.6-11.3c0-6.5-5-11.2-13.3-10.8
	C652.1,296.7,648.7,301.9,648.7,307.5z"/>
<path fill="#312783" d="M696.6,289.2h11.7v5.2c1.9-1.9,6-6.3,16.1-6.3c8.8,0,12.7,4,13.8,5.2c3.2,3.6,3.2,8.2,3.2,12.2v20.2
	l-11.9-0.1V307c0-2.7-0.1-6.1-2.9-8.4c-1.2-1-3.2-2.1-7.2-2.1c-3.3,0-5.9,0.9-7.4,1.7c-3.3,1.9-3.7,5.4-3.7,7.8v19.7h-11.7V289.2z"
	/>
<path fill="#312783" d="M766.2,276.5v8.1h-11.8v-8.1H766.2z M766.2,289.2v36.4h-11.8v-36.4H766.2z"/>
<path fill="#312783" d="M823.4,314.3c-5,9.9-15.8,12.8-23.4,12.8c-12.1,0-23.5-6.8-23.5-19.8c0-14.7,13.8-19.7,24-19.7
	c5,0,11.4,1.2,16.2,4.6c3.6,2.6,4.9,5,5.9,7.1l-12.4,1.4c-1-1.3-3.5-4.2-9.7-4.2c-6.9,0-12,4.5-12,10.7c0,4.8,3.5,10.8,11.9,10.8
	c2.6,0,5.4-0.6,7.6-1.9c2.3-1.4,2.8-2.5,3.3-3.5L823.4,314.3z"/>
<path fill="#312783" d="M841.4,313.2c1.4,4.8,6.1,5.6,10.8,5.6c2.2,0,4.2-0.1,6.3-0.8c0.6-0.2,2.7-0.9,2.7-3c0-2.5-2.9-3-8.4-3.7
	c-2.9-0.4-5.8-0.5-8.6-0.9c-3.8-0.4-13.5-1.6-13.5-10.4c0-8.7,9-12.7,21.2-12.7c3.7,0,10.9,0.3,16.3,4.2c3.7,2.7,4.5,5.7,5,7.4
	l-12.3,0.8c-1.1-2.6-4.1-4.5-9.8-4.5c-4.9,0-8.3,1.3-8.3,3.6c0,1.5,1.4,2.2,3.1,2.6c2.2,0.6,3.3,0.6,13.6,1.7
	c2.7,0.3,5.8,0.6,8.3,1.8c3.5,1.7,5.5,5,5.5,8.9c0,3.1-1.3,6-3.5,8.1c-2.7,2.4-7.8,5-18.1,5c-16.8,0-21.5-6.2-23.2-12.7L841.4,313.2
	z"/>
<path fill="#312783" d="M932.3,274.8h13.8l24.5,50.8h-14.3l-4.3-9.6H926l-4.3,9.6h-13.9L932.3,274.8z M940.4,290.4
	c-0.4-0.6-0.6-1.4-0.9-2c-0.2-0.6-0.4-1.3-0.4-2c-0.2,0.6-0.4,1.2-0.5,1.8c-0.3,0.6-0.5,1.3-0.8,1.9l-7.7,16.9H948L940.4,290.4z"/>
<path fill="#312783" d="M978.4,274.8h33c5.3,0.1,11.7,0.3,15.1,5.3c1.8,2.6,2,5.4,2,7.2c0,1.4-0.1,4.2-2,6.8c-2.1,2.7-4.8,3.6-6.4,4
	c3.2,0.9,11,2.8,11,13c0,3-0.6,6-2.3,8.6c-4,6-10.5,6-15.5,6h-34.9V274.8z M991,294.8h18.2c1.5,0,3-0.1,4.1-0.5c3-1.2,3-4.6,3-5.2
	c0-5.4-4.1-5.5-6.1-5.5H991V294.8z M991,316.7h19.1c2.9,0,8.3,0.1,8.3-6.9c0-6.1-4.8-6.1-6.7-6.1H991V316.7z"/>
<path fill="#312783" d="M702.2,139.8h-16.7v-21.1c0-3.1-2.2-5.5-4.9-5.5h-29.3c-13.7-24.2-39.7-40.5-69.5-40.5
	c-29.8,0-55.8,16.3-69.5,40.5h-29.7c-2.7,0-4.9,2.5-4.9,5.5v21.1h-16.9c-3.1,0-5.5,2.3-5.5,5.1v14.2c0,2.8,2.5,5.1,5.5,5.1h16.9
	v20.9c0,3.1,2.2,5.5,4.9,5.5h29.1c13.5,24.8,39.8,41.6,70.1,41.6c30.3,0,56.6-16.8,70.1-41.6h28.7c2.7,0,4.9-2.5,4.9-5.5v-20.9h16.7
	c3.1,0,5.5-2.3,5.5-5.1v-14.2C707.7,142.1,705.3,139.8,702.2,139.8z M581.8,210.8c-32.2,0-58.3-26.1-58.3-58.3s26.1-58.3,58.3-58.3
	s58.3,26.1,58.3,58.3S614,210.8,581.8,210.8z"/>
<path fill="#312783" d="M613.5,126.5h-25.3v-10.4h-13.4v10.4h-23.7l23.7,46.4h-13.3v13.3h13.3V199h13.4v-12.9h13.3v-13.3h-13.3
	l7.7-14.2l17.6,0v-13.5h-10.3L613.5,126.5z M581.6,154l-7.1-14.3h14.1L581.6,154z"/>
</svg>
