<?xml version="1.0" encoding="utf-8"?>
<!-- Generator: Adobe Illustrator 17.1.0, SVG Export Plug-In . SVG Version: 6.00 Build 0)  -->
<!DOCTYPE svg PUBLIC "-//W3C//DTD SVG 1.1//EN" "http://www.w3.org/Graphics/SVG/1.1/DTD/svg11.dtd">
<svg version="1.1" id="Ebene_1" xmlns="http://www.w3.org/2000/svg" xmlns:xlink="http://www.w3.org/1999/xlink" x="0px" y="0px"
	 viewBox="0 0 1190.6 841.9" enable-background="new 0 0 1190.6 841.9" xml:space="preserve">
<g>
	<g>
		<rect x="771.7" y="382.6" fill="#005A9A" width="119.1" height="51"/>
	</g>
	<g>
		<g>
			<path fill="#FFFFFF" d="M854.6,413L854.6,413L854.6,413L854.6,413L854.6,413L854.6,413c-2.9-2-4.9-2.4-6.3-1.1
				c-1.3,1.3-0.6,3.6,0.6,5.3l0,0c1.2,1.6,3.2,3,4.8,2.2C855.4,418.4,855.6,416.4,854.6,413L854.6,413z M852.3,418.4
				c-0.8,0.6-2.8-1.4-3-1.6h0c-0.2-0.3-1.4-2.8-0.6-3.4c1.1-0.8,3.9,0.8,4,0.9C852.8,414.5,853.4,417.6,852.3,418.4z"/>
			<path fill="#AFDFF9" d="M857.2,411.1L857.2,411.1c-2.6-1.2-4.2-1.1-5.2-0.9c-0.1,0-0.2,0.1-0.1,0.1c0,0,0,0,0.1,0.1
				c1.4,0.5,2.6,1.2,3.6,2l0,0v0c0.5,1.2,0.7,2.6,0.8,4c0,0.1,0,0.1,0,0.1c0,0,0.1,0,0.1-0.1C857,415.5,857.6,413.9,857.2,411.1
				C857.2,411.1,857.2,411.1,857.2,411.1z"/>
			<path fill="#FFFFFF" d="M859.3,409.6L859.3,409.6c-1-0.7-2.8-0.7-4-0.4c-0.1,0-0.1,0.1-0.1,0.1c0,0,0,0,0.1,0.1
				c1.5,0.4,2.3,0.7,2.9,1.1c0.1,0.8,0.2,1.5,0.1,3.1c0,0.1,0,0.1,0,0.1c0,0,0.1,0,0.1-0.1C859.1,412.5,859.6,410.8,859.3,409.6
				L859.3,409.6L859.3,409.6L859.3,409.6z"/>
			<circle fill="none" cx="861.3" cy="408.1" r="2.5"/>
		</g>
		<g>
			<path fill="#FFFFFF" d="M863.9,416L863.9,416L863.9,416L863.9,416L863.9,416L863.9,416c-2.8,2.2-3.8,3.9-3,5.7
				c0.8,1.7,3.3,1.7,5.2,1.1v0c1.9-0.7,3.9-2.1,3.5-3.9C869.3,416.9,867.4,416.1,863.9,416L863.9,416z M868.4,419.8
				c0.3,0.9-2.2,2.3-2.5,2.4l0,0c-0.3,0.1-3.1,0.5-3.4-0.5c-0.4-1.3,2-3.5,2.1-3.5C864.8,418.2,867.9,418.6,868.4,419.8z"/>
			<path fill="#AFDFF9" d="M862.9,412.9L862.9,412.9c-1.9,2.1-2.4,3.7-2.5,4.7c0,0.1,0,0.2,0,0.1c0,0,0,0,0.1-0.1
				c0.9-1.1,1.9-2.2,3-2.8c0,0,0,0,0,0s0,0,0,0c1.2-0.1,2.7,0.1,4.1,0.5c0.1,0,0.1,0,0.1,0c0,0,0-0.1-0.1-0.1
				C867,414.5,865.7,413.5,862.9,412.9L862.9,412.9z"/>
			<path fill="#FFFFFF" d="M862.1,410.5L862.1,410.5c-0.9,0.8-1.6,2.5-1.6,3.7c0,0.1,0,0.2,0,0.2c0,0,0,0,0.1-0.1
				c0.8-1.3,1.4-1.9,1.9-2.4c0.8,0.1,1.5,0.2,3,0.9c0.1,0,0.1,0,0.1,0c0,0,0-0.1-0.1-0.1C864.8,411.6,863.3,410.6,862.1,410.5
				L862.1,410.5L862.1,410.5C862.1,410.5,862.1,410.5,862.1,410.5z"/>
		</g>
		<g>
			<path fill="#FFFFFF" d="M869.7,408.1L869.7,408.1L869.7,408.1L869.7,408.1L869.7,408.1L869.7,408.1c1.2,3.3,2.6,4.8,4.5,4.6
				c1.8-0.2,2.6-2.6,2.6-4.6v0c0-2-0.8-4.3-2.6-4.6C872.2,403.3,870.8,404.8,869.7,408.1L869.7,408.1z M874.7,405
				c1,0,1.5,2.8,1.5,3.1l0,0c0,0.3-0.5,3.1-1.5,3.1c-1.3-0.1-2.7-2.9-2.7-3.1C872,408,873.3,405.1,874.7,405z"/>
			<path fill="#AFDFF9" d="M866.4,408.1L866.4,408.1c1.4,2.5,2.7,3.4,3.7,3.8c0.1,0,0.2,0,0.2,0c0,0,0,0-0.1-0.1
				c-0.8-1.2-1.4-2.5-1.7-3.7h0l0,0c0.3-1.2,0.9-2.5,1.7-3.7c0.1-0.1,0.1-0.1,0.1-0.1c0,0-0.1,0-0.2,0
				C869.2,404.7,867.8,405.6,866.4,408.1C866.4,408.1,866.4,408.1,866.4,408.1z"/>
			<path fill="#FFFFFF" d="M863.8,408.1L863.8,408.1c0.5,1.1,1.9,2.3,3,2.7c0.1,0,0.2,0,0.2,0c0,0,0-0.1-0.1-0.1
				c-1-1.2-1.4-1.9-1.7-2.6c0.3-0.7,0.7-1.4,1.7-2.6c0-0.1,0.1-0.1,0.1-0.1c0,0-0.1,0-0.2,0C865.7,405.8,864.3,407,863.8,408.1
				L863.8,408.1L863.8,408.1L863.8,408.1z"/>
		</g>
		<g>
			<path fill="#FFFFFF" d="M863.9,400.2L863.9,400.2L863.9,400.2L863.9,400.2L863.9,400.2L863.9,400.2c3.5-0.1,5.4-0.9,5.8-2.9
				c0.3-1.8-1.7-3.3-3.5-3.9h0c-1.9-0.6-4.4-0.6-5.2,1.1C860.1,396.3,861.1,398,863.9,400.2L863.9,400.2z M862.5,394.4
				c0.3-0.9,3.1-0.6,3.4-0.5h0c0.3,0.1,2.8,1.5,2.5,2.4c-0.5,1.3-3.6,1.7-3.8,1.6C864.5,397.9,862.2,395.7,862.5,394.4z"/>
			<path fill="#AFDFF9" d="M862.9,403.2C862.9,403.2,862.9,403.2,862.9,403.2c2.8-0.5,4.1-1.6,4.8-2.3c0.1-0.1,0.1-0.1,0.1-0.1
				c0,0,0,0-0.1,0c-1.4,0.4-2.8,0.6-4.1,0.5c0,0,0,0,0,0s0,0,0,0c-1.1-0.7-2.1-1.7-3-2.8c-0.1-0.1-0.1-0.1-0.1-0.1
				c0,0-0.1,0.1,0,0.1C860.5,399.6,861,401.2,862.9,403.2C862.9,403.2,862.9,403.2,862.9,403.2z"/>
			<path fill="#FFFFFF" d="M862.1,405.7L862.1,405.7c1.2-0.1,2.7-1.1,3.5-2.1c0.1-0.1,0.1-0.1,0.1-0.1c0,0-0.1,0-0.1,0
				c-1.4,0.6-2.2,0.8-3,0.9c-0.6-0.5-1.1-1.1-1.9-2.4c0-0.1-0.1-0.1-0.1-0.1c0,0,0,0,0,0.2C860.5,403.2,861.2,404.9,862.1,405.7
				L862.1,405.7L862.1,405.7C862.1,405.7,862.1,405.7,862.1,405.7z"/>
		</g>
		<g>
			<path fill="#FFFFFF" d="M854.6,403.2L854.6,403.2L854.6,403.2L854.6,403.2L854.6,403.2L854.6,403.2c1-3.4,0.8-5.4-1-6.4
				c-1.6-0.9-3.6,0.6-4.8,2.2l0,0c-1.1,1.6-1.9,4-0.6,5.3C849.7,405.6,851.7,405.2,854.6,403.2L854.6,403.2z M848.7,402.7
				c-0.8-0.5,0.4-3.1,0.6-3.4v0c0.2-0.3,2.3-2.2,3-1.6c1.1,0.8,0.5,4,0.4,4.1C852.6,402,849.8,403.5,848.7,402.7z"/>
			<path fill="#AFDFF9" d="M857.2,405.1L857.2,405.1c0.4-2.8-0.2-4.4-0.7-5.3c0-0.1-0.1-0.1-0.1-0.1c0,0,0,0,0,0.1
				c-0.1,1.5-0.3,2.9-0.8,4c0,0,0,0,0,0h0c-1,0.8-2.2,1.5-3.6,2c-0.1,0-0.1,0-0.1,0.1c0,0,0,0.1,0.1,0.1
				C853,406.2,854.6,406.3,857.2,405.1C857.2,405.1,857.2,405.1,857.2,405.1z"/>
			<path fill="#FFFFFF" d="M859.3,406.6L859.3,406.6c0.3-1.2-0.2-2.9-0.9-4c-0.1-0.1-0.1-0.1-0.1-0.1c0,0,0,0.1,0,0.1
				c0.1,1.6,0,2.4-0.1,3.1c-0.7,0.4-1.4,0.7-2.9,1.1c-0.1,0-0.1,0-0.1,0.1c0,0,0,0.1,0.1,0.1C856.5,407.4,858.3,407.3,859.3,406.6
				L859.3,406.6L859.3,406.6L859.3,406.6z"/>
		</g>
	</g>
	<g>
		<path fill="#FFFFFF" d="M810.5,412.7c-0.8-1.8-4.8-11.3-4.8-11.3h-3.6l7.8,18.2h1.2l7.7-18.2h-3.5
			C815.3,401.5,811.3,411,810.5,412.7z M826,416.5c0-0.9,0-15,0-15h-3.5v18.2h13v-3.2C835.6,416.5,826.9,416.5,826,416.5z"/>
		<path fill="#FFFFFF" d="M795.9,401.5h-2.4l-7.8,18.2h3.6c0,0,1.6-3.7,1.8-4.2h7.4c0.2,0.5,1.9,4.2,1.9,4.2h3.6L795.9,401.5z
			 M797.1,412.3h-4.6c0.4-0.9,1.7-4,2.2-5.3C795.3,408.3,796.6,411.3,797.1,412.3z"/>
	</g>
</g>
</svg>
