<?xml version="1.0" encoding="utf-8"?>
<!-- Generator: Adobe Illustrator 17.1.0, SVG Export Plug-In . SVG Version: 6.00 Build 0)  -->
<!DOCTYPE svg PUBLIC "-//W3C//DTD SVG 1.1//EN" "http://www.w3.org/Graphics/SVG/1.1/DTD/svg11.dtd">
<svg version="1.1" id="Lager_1" xmlns="http://www.w3.org/2000/svg" xmlns:xlink="http://www.w3.org/1999/xlink" x="0px" y="0px"
	 viewBox="0 0 700.2 113.4" enable-background="new 0 0 700.2 113.4" xml:space="preserve">
<g>
	<path fill="#004E8C" d="M88.2,36.8c2.7,3.6,4.5,7.9,5.3,12.5H83L88.2,36.8z M34.8,49.3c0.8-4.6,2.7-8.8,5.3-12.5l5.2,12.5H34.8z
		 M71,47.2l-6.9-13.3l-6.9,13.3L45,18.1c-13.1,6.9-22,20.6-22,36.4c0,17.5,11,32.5,26.4,38.4l4.6-10.4c-9.9-3.6-17.4-12.3-19.3-22.9
		h14.9l7.1,16.8l7.4-16.8l7.4,16.8l7.1-16.8h14.9c-1.9,10.6-9.3,19.3-19.3,22.9l4.6,10.4c15.5-5.9,26.4-20.9,26.4-38.4
		c0-15.8-8.9-29.5-22-36.4L71,47.2z M225.5,86.3h0.2l25.9-61.7h-15.9l-11.2,26.5l-9.7-18.8l-9.7,18.8l-11.2-26.5h-15.9L204,86.3h0.2
		l10.7-24.2L225.5,86.3z M678.5,35.9h-22.3v50.4h-15.4V35.9h-22.3V24.6h60V35.9z M611.1,86.3h-12.9L564,46.8v39.5h-15.4V24.6h14.1
		l33,37.7V24.6h15.4V86.3z M536,86.3h-45.4V24.6h44.8v11.3h-29.5v13H534v11.3h-28.1V75H536V86.3z M483.1,35.9h-22.3v50.4h-15.4V35.9
		h-22.3V24.6h60V35.9z M406.3,24.6h-17.8l-24.8,61.7h16.2l4.6-12.2h27.5l5.1,12.2h16.5L406.3,24.6z M407.6,63.2h-19l9-23.9
		L407.6,63.2z M320.5,24.6v61.7h15.4V61.5H348c14.2,0,20.3-9.9,20.3-18.6c0-8.4-6.3-18.3-20.4-18.3H320.5z M335.9,35.9h5.4
		c8.3,0,11.2,1.9,11.2,7.1c0,4.6-2.5,7.1-9.5,7.1h-7.1V35.9z M286.4,24.6h-17.8l-24.8,61.7H260l4.6-12.2h27.5l5.1,12.2h16.5
		L286.4,24.6z M287.6,63.2h-19l9-23.9L287.6,63.2z M160.2,24.6h-17.8l-24.8,61.7h16.2l4.6-12.2H166l5.1,12.2h16.5L160.2,24.6z
		 M161.5,63.2h-19l9-23.9L161.5,63.2z"/>
</g>
<g>
</g>
<g>
</g>
<g>
</g>
<g>
</g>
<g>
</g>
<g>
</g>
</svg>
