<?xml version="1.0" encoding="utf-8"?>
<!-- Generator: Adobe Illustrator 17.1.0, SVG Export Plug-In . SVG Version: 6.00 Build 0)  -->
<!DOCTYPE svg PUBLIC "-//W3C//DTD SVG 1.1//EN" "http://www.w3.org/Graphics/SVG/1.1/DTD/svg11.dtd">
<svg version="1.1" id="Logo" xmlns="http://www.w3.org/2000/svg" xmlns:xlink="http://www.w3.org/1999/xlink" x="0px" y="0px"
	 viewBox="0 0 708.7 119.1" enable-background="new 0 0 708.7 119.1" xml:space="preserve">
<g>
	<path fill="#003761" d="M237.1,100.5c0-10.1-8.4-13.9-16.4-15.2c8-2,13.9-6.6,13.8-14.3c-0.1-9.5-7.4-15.7-24.9-15.7h-37.4v62
		l39.1,0C228.8,117.4,237.1,110.3,237.1,100.5z M192.1,66.8h11.3c7.3,0,10.5,2,10.5,6.8c0,4.7-2.9,7-10.5,7h-11.3V66.8z M192.1,106
		V91.6h13.8c5.7,0,10.6,1.4,10.6,7.1c0,5.4-4,7.3-10.6,7.3H192.1z M281.9,119.1c24.5,0,38-12.4,38-32.6c0-19.3-11-32.6-38-32.6
		c-24.6,0-38,12.3-38,32.6C243.9,105.7,254.3,119.1,281.9,119.1z M281.9,66.5c12.8,0,17.3,8.3,17.3,19.9c0,11.5-4.6,19.9-17.3,19.9
		c-12.9,0-17.3-8.5-17.3-19.9C264.6,74.9,269.7,66.5,281.9,66.5z M349.4,94.1h11c8,0,10.2,1.4,11.1,5.5c0.3,1.7,1,7.9,1.9,12.9
		c0.3,2,0.7,3.8,1.1,5h21.1c-0.4-1.1-0.9-3.2-1.4-5.5c-0.7-3.4-2-11.3-2.6-14.4c-1.4-6.9-5.1-9-13.9-10.1c8.2-1.2,15.4-6,15.4-15
		c0-11.3-9-16.9-24.4-16.9h-39.5v62h20.1V94.1z M349.4,67.4c3.5,0,13.2,0,13.2,0c6.8,0,10.5,1.9,10.5,7.2c0,4.8-2.8,7.6-10.5,7.6
		h-13.2V67.4z M460.9,104.6h-35.3V92.4h32.7V79.8h-32.7V68.2h34.7V55.4h-54.8v62h55.4V104.6z M489.9,105.6h33.4l5.3,11.8h21.6
		l-30.6-62h-23.6l-31,62h19.6L489.9,105.6z M506.8,68.5l11.1,25.2h-22.6L506.8,68.5z M607.5,104.2h-33.2V55.4h-20.2v62h53.4V104.2z
		 M634.4,55.4h-20.2v62h20.2V55.4z M688.3,80.7l-10.9-2.5c-6.7-1.5-11.1-2.6-11.1-6.6c0-3.2,3-5.9,9.8-5.9c5.7,0,11,2.3,11.3,6.7
		h19.5c-0.3-9.2-9.9-18.5-30.3-18.5c-17.1,0-30.7,5.9-30.7,20.3c0,11.4,9.9,14.9,19.9,17.2l11.3,2.6c6.7,1.6,11.3,2.8,11.3,7.1
		c0,3.2-2.1,6.3-11.6,6.3c-6.4,0-12-3.3-12.2-8.1h-20.3c0,4.7,6.7,19.9,31.9,19.9c16,0,32.5-5.1,32.5-20.1
		C708.7,86.3,699.3,83.1,688.3,80.7z M27.8,117.4h89.2V56.9c-3.7-0.4-6.3-0.5-9.3-0.5C72.4,56.3,38.2,86.4,27.8,117.4z"/>
	<path fill="#006EAB" d="M116.9,46.3V0c-2.9,0-7,0.6-9.6,1.3c-36,8.6-63.5,39-83.2,80.1h-0.5C24.4,77,27.8,32.3,68,0H0v117.4h14.8
		C30.7,86.7,65.2,49.9,116.9,46.3z"/>
</g>
<g>
</g>
<g>
</g>
<g>
</g>
<g>
</g>
<g>
</g>
<g>
</g>
</svg>
