<?xml version="1.0" encoding="utf-8"?>
<!-- Generator: Adobe Illustrator 17.1.0, SVG Export Plug-In . SVG Version: 6.00 Build 0)  -->
<!DOCTYPE svg PUBLIC "-//W3C//DTD SVG 1.1//EN" "http://www.w3.org/Graphics/SVG/1.1/DTD/svg11.dtd">
<svg version="1.1" id="Layer_1" xmlns="http://www.w3.org/2000/svg" xmlns:xlink="http://www.w3.org/1999/xlink" x="0px" y="0px"
	 viewBox="0 0 100 100" enable-background="new 0 0 100 100" xml:space="preserve">
<g>
	
		<path fill="none" stroke="#000000" stroke-width="0.12" stroke-linecap="round" stroke-linejoin="round" stroke-miterlimit="10" d="
		M72.3,336.4l-0.1,2.3l-0.2,1.9l-0.4,1.6l-0.6,1.2h-0.5l-0.6-0.1l-0.6-0.2l-0.2-0.1l-0.6,0.2l-0.4,0.7l-0.1,2l-0.2,1.7l-0.5,1.3
		l-0.6,0.7l-4.3-0.6l-7.4,0.6l-2.2-1.9l-0.6,0.8l-1,1.1h-0.7l-0.5-0.4l-0.4-0.5v-0.6l0.6-1.6l0.5-1.3l0.2-0.8v-0.6l-0.4-1l-0.4-1.1
		l-0.4-1.3l-0.4-1.6l-0.4-1.7l-0.4-2l-0.4-2.2l-0.2-2.5l1.4-7.3l-0.5-1.3l-0.2-1l-0.1-0.7v-0.5l0.1-0.6l0.2-0.8l0.1-1l0.4-1v-5
		l0.5-1.3l0.7-1.7l1-1.9l0.6-1.3l0.6-1.4l0.8-1.6l0.8-1.6l8.6,2.4l3.8,2.6v0.8l0.1,1.1l0.1,1.2l0.2,1.4l0.1,0.5l0.4,0.5l0.6,0.2
		l0.8,0.2h0.4l0.1,0.2l0.2,0.5l0.1,0.6v4.3l2.2,6l-0.1,0.4l-0.1,0.4l-0.4,0.6l-0.4,0.8l-0.5,0.7l-0.1,0.7l-0.1,0.7l0.1,0.5l0.5,1
		l0.5,0.7l0.2,0.5l0.1,0.4V336.4L72.3,336.4z M10.7,350.6v4.2l0.1,0.7l1.6,3.5l-1.2,15.2l0.8,0.5l0.8,0.6l0.7,1.1l0.7,1.3h0.5
		l0.4-0.2l0.4-0.4l0.4-0.5l0.4-0.6l0.4-0.8l0.2-1l0.4-1l-0.8-9.4l3.1,0.5l1.4-4h0.4l0.4,0.1l0.4,0.4l0.4,0.5l0.2,0.8l0.2,0.6
		l0.2,0.4l0.1,0.2l8.8,0.2h5.4l0.8,0.5l1.3,0.5l1.8,0.6l2.2,0.5l0.8-0.5l1-0.4l1.3-0.5l1.3-0.5h7.8l0.4,0.2l0.5,0.4l0.5,0.6l0.5,0.7
		l2.6-1.4l10.2,3l3.2,3.2l1.3,2l0.8,2l-0.5,2l-0.2,1.6l-0.1,1.3l-0.1,1l0.4,0.7l0.5,1l0.5,1.2l0.5,1.6l3-1.9l3,1l1.9-5l2-2.8
		l-0.6-1.6l0.6-19.2l-1.6-24l0.1-0.7l0.2-0.7l0.2-1l0.4-1.1l-0.2-1.1l-0.1-1.2l-0.2-1.6l-0.2-1.7l-0.1-1.7v-1.7l0.2-1.4l0.4-1.3
		l-0.4-0.8l-0.5-1.2l-0.2-1.7l-0.4-2l-0.2-2.2l-0.2-1.8l-0.4-1.3l-0.2-0.8l-3.6-4.8l-1.8-5.4l-0.4-0.1l-0.2-0.5v-0.4l-0.1-0.1
		l-0.2,0.1l-0.4,0.4l-3.8-4h-2.6l-0.4-0.4l-0.4-0.4l-0.4-0.7l-0.4-0.6l-0.2-0.5l-0.1-0.2l-3.4-0.2l-3.4-1.3l-3.4,1.1l-3.8-0.1h-0.4
		l-0.4,0.2l-0.2,0.4l-0.2,0.6l-0.6,1.1l-0.5,0.7l-0.6,0.5l-0.6,0.2l-1.3,0.1l-3.2,6v0.5l-0.2,0.7l-0.5,1l-0.6,1.3l-0.6,0.6l-0.8,0.2
		h-0.7l-0.8-0.4l-0.7-0.5l-1-0.6l-0.1-0.2l-0.1-0.2l-0.2-0.5l-0.4-0.5l-0.4-0.7l-0.4-0.7l-0.5-1l-0.5-1l-5-0.6l-0.4-0.1l-0.2-0.4
		l-0.5-0.6l-0.5-0.7l-0.5-0.8l-0.5-0.6l-0.4-0.5l-0.4-0.2l-2.2,3.5l-3.2,0.5l-0.2,0.4l-0.2,0.6l-0.2,0.7l-0.2,0.8l-0.2,0.2l-0.2,0.2
		l-0.5,0.2l-0.6,0.1l-0.6,0.1l-0.5,0.1l-0.4,0.1l-0.2,0.1l-0.6,2.2h-0.7l-0.5-0.2l-0.7-0.4l-2.3,1.9v0.6l-0.2,0.8l-0.1,1l-0.2,1.1
		l0.5,1l0.6,0.7l0.8,0.4h1l1.3-0.1h2.4l0.4-0.5l0.4-0.7l0.4-0.7l0.6-1l2.9-0.6l0.5-0.4l0.1-0.5l-0.1-0.5l-0.4-1l-0.2-1.1l0.1-1
		l6,1.9v4l0.2,0.7l0.2,0.5l0.5,0.4l0.5,0.1h0.8l0.5-0.1l0.4-0.1l0.5,0.1l0.5,0.2l0.4,0.2l0.4,0.5l2.5,7.8l1.1,4.9l-0.5,1.3l-0.4,1.3
		l-0.1,1.4l-0.1,1.3l0.1,1.4l0.1,1.3l0.4,1.3l0.5,1.3l-0.2,1.8l-0.1,1.6l0.1,1.6l0.2,1.3l0.4,1.2l0.5,0.8l-0.1,1.3l-0.4,1l-0.6,0.7
		l-0.8,0.5l-0.6,0.2l-0.1,0.5l0.1,0.2l0.1,0.4l0.2,0.6l0.2,0.7l0.2,0.8l0.4,1.1l0.5,1.3l-0.4,0.8l-0.6,0.7l-0.7,0.5l-0.8,0.4
		l-1.2,0.1l-1,0.2l-0.7,0.4l-0.5,0.4l-0.1,0.6l-0.6,1l-0.4,0.4l-0.4,0.4l-0.4,0.1l-0.2,0.1l-0.1-0.4l-0.2-0.6l-0.4-1l-0.4-1.1
		l-0.2-0.4l-0.2-0.1l-0.5,0.1l-0.2,0.5l-0.2,0.7l-0.1,1.1l-0.5,0.7l-0.8,0.4l-1.7,0.5l-0.5,1l-1,1.4l-0.4-1l-0.6-1.1l-0.7-1.3
		l-0.8-1.4l-0.4,0.1l-0.4,0.4l-0.4,0.6l-0.4,0.8h-3.1l-0.5-0.1l-0.4-0.5l-0.4-0.7l-0.2-1l-1.1-3.7l2.3-5.9l-0.2-0.2l-0.4,0.1
		l-0.5,0.5l-0.1,0.1l-0.2-1l-0.4-1.2l-0.5-1.6l-0.6-1.7l1.3-4.3v-0.7l-0.4-1.1l-0.5-1.4l-0.8-1.8v-0.6l0.2-0.7l0.2-0.6l0.5-0.6
		l1.9-2.3l-1.4-1.4l-1.3-1.1l-1.3-0.7l-1.3-0.2l-0.5,0.5l-0.7,0.5l-0.4,1.7l-0.1,1.9l0.2,1.8l0.2,1.9l-0.6,1.1l-0.4,1.1l-0.2,1.1
		l-0.1,1.3v1.1l0.2,1.3l1,0.4l0.7,0.6l0.4,0.6l0.2,0.8l-0.2,0.8l-0.6,0.8l-0.7,1l-1,0.8l-0.1,0.5l-0.5,0.8l-0.4,1l-0.2,0.7h0.6
		l0.6,0.4l0.6,0.5l0.4,0.8l0.2,1l0.2,1.1V350.6L10.7,350.6z M20.1,312.9v-2.4l-0.8,0.5l-0.5,0.5l-0.4,0.5l-0.1,0.5v0.5l0.2,0.5
		l0.2-0.1l0.4,0.1l0.8,0.1l0.1-0.1V312.9L20.1,312.9z M15.5,312.9v-2.4l-0.1-0.7l-0.1-0.4l-1.4,0.7l-1,1l-0.7,1.2l-0.4,1.4l0.1,1.3
		l0.5,0.8h0.2l0.5,0.2l1,0.2l0.6-0.7l0.5-0.8l0.4-0.8V312.9L15.5,312.9z M89.5,284.9h-1.2l-1.1-12.7l1.2-7.1l0.1-19.7l-3.5-7.7h-2.8
		l-0.2,0.8l-0.1,0.8l-0.6,0.7l-1,0.4l-1.3,0.1l-2.4,3.8l-1.2,5.8l0.1,0.6l0.2,1.1v1.8l-0.2,0.2l-0.2,0.2l-0.5,0.4l-0.7,0.5l-0.4,1.3
		l-0.8,1.6h-2.9l-0.8-1.2l-0.7-1l-0.5-0.5l-0.4-0.2l-2.2,2.9l-0.8,0.4l-0.8,0.1l-0.8-0.1l-0.8-0.2l-0.8-0.4l-0.8-0.6l-0.8,0.8
		l-3.1,0.6l-0.6-1.3l-0.8-1.4l-1.1-1.7l-1.3-1.8l-3.7-2l-0.1-0.5l-0.1-0.7l-0.2-1l-0.1-1.2l-0.1-1l-0.4-0.6l-0.4-0.5l-0.6-0.4
		l-0.7-0.4l-0.5-0.6l-0.5-1.1l-0.4-1.3l-0.4-0.1l-0.5-0.2l-0.6-0.5l-0.6-0.5l-1.3-4.8l-0.7-0.8l-0.5-1.1l-0.4-1.4l-0.1-1.8l-0.1-2.3
		l-0.1-1.8l-0.2-1.4l-0.2-1l1.4-4.3h0.5l0.2,0.4l0.2,0.4l0.6,2.2l10.6,0.4l0.7-1l0.6-1.1l0.5-1.4l0.5-1.4l0.5-1.8l0.2-1.8l0.4-2
		l0.1-2.3l-0.2-1.3l-0.4-1.6l-6.8-1.9l-1.2-2.4l-3.8-1.9l-0.2,0.2l-0.4,0.4l-0.5,0.6l-0.5,0.7l-3,0.5l-0.4,0.8l-0.6,0.8l-0.8,1.1
		l-1.1,1.1l-3.7,6.6l0.1,0.7v2.3l-0.1,1.3l-0.1,1.7l-0.2,1.8l-0.4,0.5l-0.4,0.5l-0.6,0.7l-0.6,0.7l-0.2,4.8l0.4,0.7l0.7,1.1l0.5,0.7
		l0.4,0.6l0.2,0.7v1.3l-0.1,1.1l-0.1,1.2v0.7l0.6,0.6l0.7,0.8l0.7,1.3l0.7,1.6l-0.1,0.6l-0.1,0.8l-0.4,1.1l-0.4,1.4v0.7l0.1,0.8
		l0.5,1l0.6,1l0.6,1.1L36,250l0.4,0.7l0.1,0.6v1.3l-0.2,1.1v0.2l0.2,0.4l0.4,0.4l0.6,0.4l0.2,0.1l0.2,0.4l0.1,0.6v1l-0.2,0.4
		l-0.4,0.4l-0.5,0.2l-0.6,0.2l-0.6,0.2l-0.5,0.1l-0.4,0.2l-0.2,0.1l-0.6,0.7l-0.7,0.8l-0.8,1l-1,1.2l1.8,4v0.6l-0.1,0.7l-0.2,0.8
		l-0.4,1.1l-0.4,1.9l-0.1,1.6l0.1,0.4l0.2,0.5l0.4,0.7l0.6,0.7l0.5,1l0.5,1.2l0.2,1.3v1.4l2.8,4.8l0.7-0.1l0.6-0.2l0.6-0.5l0.4-0.7
		l-0.6-6.6l2.4-5.8l0.4-0.1l0.2,0.1l0.4,0.4l0.2,0.5l0.4,1.1l0.5,0.7l0.6,0.5l0.5,0.1l0.6-0.1l0.6-0.4l0.6-2.8l1.1-0.1L49,271
		l3.7,3.8l1.6-2.4h0.2l0.4-0.2l0.6-0.2l0.5-0.1l2,3h0.7l0.6-0.1l0.4-0.1l0.2-0.4l0.2-0.7l0.4-0.7l0.6-0.8l0.6-1l0.4,0.1l0.4,0.2
		l0.5,0.5l0.5,0.6v0.7l0.1,1l0.1,1l0.1,0.7l0.6-1.1l1.2-1.3h2.2l0.4,0.4l0.6,0.4l0.6,0.1h0.8l1,0.1l0.7,0.2l0.7,0.2l0.5,0.5l0.1,0.5
		l0.1,0.7l0.2,0.7l0.5,1h0.1l0.4,0.2l0.5,0.2l0.6,0.4l1.6,8.3l2.5,2.9l1.2-1l0.5,1.1l0.7,1.3l5.3-3.4l0.5-2L89.5,284.9L89.5,284.9z
		 M77.3,152.3l-2.4,13.8l-0.6,0.8l-0.6,1.2l-0.7,1.4l-0.7,1.8l0.1,0.5l0.2,0.7v0.8l0.1,1L72,175l-1,0.1l-0.7,0.2l-0.4,0.5l-0.1,1.6
		l-0.1,1.1l-0.5,0.1l-0.6,0.4l-0.5,0.5l-0.6,0.6v1l0.2,0.6l0.2,0.4l0.2,0.1l-1.2,0.2l-1,0.2l-0.6,0.2h-0.4l-1.3,0.7l-1.2,1.1
		l-0.6-0.8l-0.5-0.6l-0.4-0.4l-0.2-0.1h-0.4l-0.2,0.2l-0.4,0.2l-0.5,0.5l-0.6,0.8l-0.2,0.7l-3,0.5l-0.4-1.2l-0.5-1.1l-0.5-0.8
		l-0.4-0.7l-0.5-0.6l-0.5-0.4l-0.6-0.2l-0.5-0.1l-0.2,0.5l-0.4,0.5l-0.5,0.5l-0.6,0.7l-0.8-0.2l-1.1-0.4l-0.6-1.2l-0.7-1.4l-0.6-1.7
		l-0.7-1.9l-3-1.4l-2.9-9.5l-0.4-4.7l-1.2-6.4l0.4-1l0.2-0.7l0.1-0.6l0.1-0.4v-0.6l0.4-0.5l0.5-0.2l0.7-0.1l0.2-1.1l-0.1-0.6l-0.1-1
		l-0.2-2l0.6-1l0.7-1.2l0.8-0.6l1.1-0.8l3.8-5.5l1.6-4.1l2.6-3.7l9.8-0.5l1.6,1.4l1.4,1.1l1.3,0.6L67,131h0.7l0.6-0.2l1.4-1.9
		l2.2,6.1v4.1l0.7,1.6l0.7,1.1l1,0.8l1,0.5L77.3,152.3L77.3,152.3z M90,163.6l-0.2-2l-0.1-1.8l-0.1-1.7v-2.9l0.1-1.2l0.1-1l0.2-0.7
		l-2.4-13.2l-0.5-1.9l-0.5-1.8l-0.5-1.7l-0.6-1.6l-0.6-1.3l-0.7-1.2l-0.8-1.1l-0.8-0.8l-1.2-1.7l-1.8-1.9l-1.3-0.1l-1.3-0.4
		l-0.1-0.5l-0.2-0.7l-0.2-0.8l-0.4-1.1l-0.8-0.1l-1.2-0.4l-0.4-0.6l-0.4-0.7l-0.4-0.8l-0.6-1l-1.1-0.2l-0.8-0.2l-0.6-0.1l-0.5-0.1
		l-0.8-0.4l-0.7-0.5l-0.6-0.5l-0.4-0.5l-1,0.5l-0.7,0.5l-10.7-2.5l-0.8,1.7l-0.8,1.2l-0.8,0.6l-0.7,0.2h-0.7l-1-0.2l-1-0.1h-1.4
		l-0.6,0.2l-1.8,2.5l-2.9,1.6l-0.1,0.6l-0.4,0.7l-0.5,0.7l-0.5,0.8l-0.7,0.8l-0.8,0.8l-1,1l-1.1,1.1l-5,10.3v1.2l-0.1,0.8l-0.1,1.1
		l-0.1,1.2l-0.4,1.3l-0.2,1.4l-0.4,1.7l-0.1,3.1l-0.1,3v9l0.1,3l0.1,2.8l0.4,2.2l1.2,2.8l0.8,2.9l0.6,5.2l2.5,5.6l3.2,3.6h0.4
		l0.5,0.2l0.4,0.4l0.4,0.4l0.1,0.5l0.2,0.7l0.4,1l0.4,1.1l5.5,1.4l0.1,0.6l0.2,0.6l0.5,0.7l0.6,0.6l7.3,1.1l0.6,1.2l1.1,1.3l0.2-0.1
		l0.2-0.5l0.2-0.8l0.2-1.2l0.4-0.4l0.8-0.4l1.2-0.1l1.6-0.1l0.5,0.2l0.5,0.5l0.7,0.7l0.7,1.2l0.4-0.1l0.4-0.2l0.1-0.5v-0.7l0.6-0.7
		l0.8-0.5l0.6-0.1l1,0.1l1,0.1h0.7l0.4-0.6l0.5-0.8l0.7-0.8l0.8-0.8l0.2,0.1l0.1,0.1l0.2,0.4l0.4,0.5l0.4-0.7l0.6-1l0.6-1.1l0.8-1.3
		l0.4-0.6l0.7-0.5l1-0.4h1.2l1.2-0.8l1.2-1.2l1-1.7l0.8-2l0.5-1.3l0.6-1.8l0.8-2.4l1-2.8l1.8-5l1.6-3.1V163.6L90,163.6z M88.5,79.6
		l0.4-2.6l0.1-2.2l-0.1-1.1l-0.1-1l-0.2-8.2l-0.6-0.7l-0.6-1.2L86.4,61l-0.8-2l-0.5-2.4l-0.5-2.4L84,51.5l-0.5-2.8l-1.2-0.1
		l-1.1-0.4l-6.5-9.5l-0.4-0.2l-0.5-0.2l-0.7-0.1l-0.8-0.1L71.5,38h-0.6l-0.4-0.1l-0.2-0.1L70,38l-0.5,0.4L69,38.9l-0.6,0.7l-0.6,0.8
		l-0.6,0.6l-0.5,0.5l-0.4,0.2v0.7l0.1,0.7l0.2,0.8l0.5,0.8l0.6,0.8l0.6,1l0.8,1l1.1,1.1l0.2,0.5l0.2,0.8l0.4,1l0.4,1.3l3.8,3.4
		l2.8,7.6l-1.7,23.2l-0.4,0.1l-0.5-0.1L74.8,86l-0.4,0.5l-0.4,0.6l-0.5,0.8L73.1,89l-1.3,6l-0.4,0.2l-0.6,0.2l-0.7,0.5l-0.8,0.5
		l-0.4,0.7l-0.7,1.1L67,99.7l-1.7,1.9l-1.9-3l-0.2,0.5l-0.4,0.7l-0.6,0.8l-0.7,1l-0.2-0.2l-0.6-0.7l-0.4-0.4l-0.4-0.2h-0.7l-0.2,0.6
		l-0.4,0.6l-0.5,0.8l-0.6,1l-0.1,0.1l-0.2-0.1l-0.4-0.1l-0.2-0.5l-0.6-0.6l-0.4-0.2l-6.7-2.2h-0.2l-0.2-0.4L48,98.6L47.7,98
		l-0.2-0.8l-0.5-1.1l-0.4-1.2l-0.5-1.4l-0.2-0.2l-0.5-0.4l-0.7-0.2l-1-0.4l-1-0.4L42,91.5l-0.4-0.6l-0.1-0.6l0.1-0.7l0.4-0.7
		l0.4-0.8l0.1-0.6l-0.1-0.4l-0.2-0.5l-0.4-0.4l-0.6-0.6l-1-0.8l-0.5-0.7l-0.6-3.1L39,78.3v-1.6l0.4-1.3l-1.3-5l3.6-13.6l0.8,0.7
		l0.7,0.6l0.4,0.5l0.4,0.4l0.8,1.2l0.5,1.7h6.1l0.2-0.1l0.1-0.2l0.1-0.5l0.1-0.6l0.1-0.6l0.1-0.5l0.2-0.4l0.2-0.2h1.4l0.5-0.2
		l0.4-0.1l-0.7-5v-0.5l0.2-0.8l0.2-0.8l0.4-1l0.4-1l0.2-0.8l0.1-0.7l0.1-0.6l-0.1-1l-0.2-0.8l-4.2-4.1h-3.7L47.4,41l-0.4-0.5
		l-0.4-0.7l-0.2-0.8l-0.2-0.6L46,38l-0.1-0.2l-0.2,0.1l-0.1,0.2l-0.2,0.2L45,38.8l-0.5,1l-0.1,0.7l-0.1,0.2L43.9,41l-0.5,0.1
		l-0.6,0.1l-0.7,0.1l-0.5,0.1l-0.4,0.1l-0.2,0.2L40.5,43l-0.8,1.7l-1.4,2l-1.8,2.6l-1.3,2.2l-1,2.3l-0.5,2.3l-0.1,2.3l-2.4,6
		l-0.8,11l0.2,0.5l0.2,0.8l0.4,1l0.5,1.2l-0.5,2.6L31,83.8l0.1,2.6l4.4,8.5v1.3l0.2,1.2l1,0.8l1,1l1,1.1l1,1.3l0.8,1.6l0.8,1.8
		l0.8,1.9l0.8,2l9,4.1h5.4l1.6-0.8l1.4-0.6l1,0.4l1.2,0.5l1.3,0.4l1.7,0.4l3.1-0.1l0.2-0.4l0.2-0.5l0.1-0.7l0.2-1l0.4-0.5l0.6-0.4
		l0.6-0.2h0.8l1.2,0.1h1.4l0.2-0.1l4.8-6l0.2-0.2l0.5-0.4l0.7-0.4l1-0.5l1.7-5l0.5-2.2l0.7-2.5l0.6-2.5l0.7-2.8l0.1-0.5l0.1-0.5
		l0.2-0.7l0.2-0.8l0.4-1l0.4-1.2l0.4-1.3L88.5,79.6L88.5,79.6z M88.5,0.9l0.4-2.6l0.1-2.2L88.8-5l-0.1-1l-0.2-8.2l-0.6-0.7L87.3-16
		l-0.8-1.7l-0.8-2l-0.5-2.4l-0.5-2.4L84-27.2l-0.5-2.8l-1.2-0.1l-1.1-0.4l-6.5-9.5l-0.4-0.2l-0.5-0.2l-0.7-0.1l-0.8-0.1l-0.8-0.1
		h-0.6l-0.4-0.1L70.3-41L70-40.7l-0.5,0.4L69-39.8l-0.6,0.7l-0.6,0.8l-0.6,0.6l-0.5,0.5l-0.4,0.2v0.7l0.1,0.7l0.2,0.8l0.5,0.8
		l0.6,0.8l0.6,1l0.8,1l1.1,1.1l0.2,0.5l0.2,0.8l0.4,1l0.4,1.3l3.8,3.4l2.8,7.6L76.5,7.7l-0.4,0.1l-0.5-0.1l-0.8-0.5l-0.4,0.5
		l-0.4,0.6l-0.5,0.8l-0.5,1.1l-1.3,6l-0.4,0.2l-0.6,0.2l-0.7,0.5l-0.8,0.5l-0.4,0.7l-0.7,1.1L67,20.9l-1.7,1.9l-1.9-3l-0.2,0.5
		l-0.4,0.7l-0.6,0.8l-0.7,1l-0.2-0.2l-0.6-0.7l-0.4-0.4l-0.4-0.2h-0.7l-0.2,0.6l-0.4,0.6l-0.5,0.8l-0.6,1l-0.1,0.1l-0.2-0.1
		l-0.4-0.1l-0.2-0.5l-0.6-0.6l-0.4-0.2l-6.7-2.2h-0.2l-0.2-0.4L48,19.9l-0.4-0.6l-0.2-0.8l-0.5-1.1l-0.4-1.2l-0.5-1.4l-0.2-0.2
		l-0.5-0.4l-0.7-0.2l-1-0.4l-1-0.4L42,12.8l-0.4-0.6l-0.1-0.6l0.1-0.7l0.4-0.7l0.4-0.8l0.1-0.6l-0.1-0.4l-0.2-0.5l-0.4-0.4l-0.6-0.6
		l-1-0.8l-0.5-0.7l-0.6-3.1L39-0.4V-2l0.4-1.3l-1.3-5l3.6-13.6l0.8,0.7l0.7,0.6l0.4,0.5l0.4,0.4l0.8,1.2l0.5,1.7h6.1l0.2-0.1
		l0.1-0.2l0.1-0.5l0.1-0.6l0.1-0.6l0.1-0.5l0.2-0.4l0.2-0.2h1.4l0.5-0.2l0.4-0.1l-0.7-5v-0.5l0.2-0.8l0.2-0.8l0.4-1l0.4-1l0.2-0.8
		l0.1-0.7l0.1-0.6l-0.1-1l-0.2-0.8l-4.2-4.1h-3.7l-0.2-0.2l-0.4-0.5l-0.4-0.7l-0.2-0.8l-0.2-0.6L46-40.7L45.9-41l-0.2,0.1l-0.1,0.2
		l-0.2,0.2L45-39.9l-0.5,1l-0.1,0.7L44.3-38l-0.4,0.2l-0.5,0.1l-0.6,0.1l-0.7,0.1l-0.5,0.1l-0.4,0.1l-0.2,0.2l-0.6,1.2L39.6-34
		l-1.4,2l-1.8,2.6l-1.3,2.2l-1,2.3l-0.5,2.3l-0.1,2.3l-2.4,6l-0.8,11l0.2,0.5L30.7-2l0.4,1l0.5,1.2l-0.5,2.6L31,5.1l0.1,2.6l4.4,8.5
		v1.3l0.2,1.2l1,0.8l1,1l1,1.1l1,1.3l0.8,1.6l0.8,1.8l0.8,1.9l0.8,2l9,4.1h5.4l1.6-0.8l1.4-0.6l1,0.4l1.2,0.5l1.3,0.4l1.7,0.4
		l3.1-0.1l0.2-0.4l0.2-0.5l0.1-0.7l0.2-1l0.4-0.5l0.6-0.4l0.6-0.2h0.8l1.2,0.1h1.4l0.2-0.1l4.8-6l0.2-0.2l0.5-0.4l0.7-0.4l1-0.5
		l1.7-5l0.5-2.2l0.7-2.5l0.6-2.5l0.7-2.8l0.1-0.5l0.1-0.5l0.2-0.7l0.2-0.8l0.4-1l0.4-1.2L88,2.3L88.5,0.9L88.5,0.9z M77.3-89.2
		l-2.4,13.8l-0.6,0.8l-0.6,1.2L73-71.9l-0.7,1.8l0.1,0.5l0.2,0.7v0.8l0.1,1L72-66.5l-1,0.1l-0.7,0.2L70-65.7l-0.1,1.6l-0.1,1.1
		l-0.5,0.1l-0.6,0.4l-0.5,0.5l-0.6,0.6v1l0.2,0.6l0.2,0.4l0.2,0.1l-1.2,0.2l-1,0.2l-0.6,0.2h-0.4L63.9-58l-1.2,1.1l-0.6-0.8
		l-0.5-0.6l-0.4-0.4L61-58.9h-0.4l-0.2,0.2L60-58.4l-0.5,0.5l-0.6,0.8l-0.2,0.7l-3,0.5l-0.4-1.2l-0.5-1.1L54.4-59L54-59.7l-0.5-0.6
		l-0.5-0.4l-0.6-0.2L52-61l-0.2,0.5l-0.4,0.5l-0.5,0.5l-0.6,0.7l-0.8-0.2l-1.1-0.4l-0.6-1.2l-0.7-1.4l-0.6-1.7l-0.7-1.9l-3-1.4
		l-2.9-9.5l-0.4-4.7l-1.2-6.4l0.4-1l0.2-0.7l0.1-0.6l0.1-0.4v-0.6l0.4-0.5l0.5-0.2l0.7-0.1l0.2-1.1l-0.1-0.6l-0.1-1l-0.2-2l0.6-1
		l0.7-1.2l0.8-0.6l1.1-0.8l3.8-5.5l1.6-4.1l2.6-3.7l9.8-0.5l1.6,1.4l1.4,1.1l1.3,0.6l1.1,0.1h0.7l0.6-0.2l1.4-1.9l2.2,6.1v4.1
		l0.7,1.6l0.7,1.1l1,0.8l1,0.5L77.3-89.2L77.3-89.2z M90-77.9l-0.2-2l-0.1-1.8l-0.1-1.7v-2.9l0.1-1.2l0.1-1l0.2-0.7l-2.4-13.2
		l-0.5-1.9l-0.5-1.8l-0.5-1.7l-0.6-1.6l-0.6-1.3l-0.7-1.2l-0.8-1.1l-0.8-0.8l-1.2-1.7l-1.8-1.9l-1.3-0.1l-1.3-0.4l-0.1-0.5l-0.2-0.7
		l-0.2-0.8L76-121l-0.8-0.1l-1.2-0.4l-0.4-0.6l-0.4-0.7l-0.4-0.8l-0.6-1l-1.1-0.2l-0.8-0.2l-0.6-0.1l-0.5-0.1l-0.8-0.4l-0.7-0.5
		l-0.6-0.5l-0.4-0.5l-1,0.5l-0.7,0.5l-10.7-2.5l-0.8,1.7l-0.8,1.2l-0.8,0.6l-0.7,0.2h-0.7l-1-0.2l-1-0.1h-1.4l-0.6,0.2l-1.8,2.5
		l-2.9,1.6l-0.1,0.6l-0.4,0.7l-0.5,0.7l-0.5,0.8l-0.7,0.8l-0.8,0.8l-1,1l-1.1,1.1l-5,10.3v1.2l-0.1,0.8l-0.1,1.1l-0.1,1.2L31-98.5
		L30.7-97l-0.4,1.7l-0.1,3.1l-0.1,3v9l0.1,3l0.1,2.8l0.4,2.2l1.2,2.8l0.8,2.9l0.6,5.2l2.5,5.6l3.2,3.6h0.4L40-52l0.4,0.4l0.4,0.4
		l0.1,0.5l0.2,0.7l0.4,1l0.4,1.1l5.5,1.4l0.1,0.6l0.2,0.6l0.5,0.7l0.6,0.6l7.3,1.1l0.6,1.2l1.1,1.3l0.2-0.1l0.2-0.5l0.2-0.8l0.2-1.2
		l0.4-0.4l0.8-0.4l1.2-0.1l1.6-0.1l0.5,0.2l0.5,0.5l0.7,0.7l0.7,1.2l0.4-0.1l0.4-0.2l0.1-0.5V-43l0.6-0.7l0.8-0.5l0.6-0.1l1,0.1
		l1,0.1h0.7l0.4-0.6l0.5-0.8l0.7-0.8l0.8-0.8l0.2,0.1l0.1,0.1l0.2,0.4l0.4,0.5l0.4-0.7l0.6-1l0.6-1.1l0.8-1.3l0.4-0.6l0.7-0.5l1-0.4
		h1.2l1.2-0.8l1.2-1.2l1-1.7l0.8-2l0.5-1.3l0.6-1.8l0.8-2.4l1-2.8l1.8-5l1.6-3.1V-77.9L90-77.9z M86.8-171.4l-0.6-0.8l-0.7-1.3
		l1.3-14.9v-0.8l-0.1-1.2l-0.2-1.3l-0.4-1.4l-0.5-1.4l-0.2-1.3l-0.1-1l-0.1-1l0.1-1.3l0.2-1.2v-2.5l-1-0.7l-1-1.1l-1.1-1.2l-1.2-1.6
		l-4.6,2.6v5.3l-0.2,5l-0.4,4.6l-0.4,4.2l-0.6,3.7l-0.7,3.5l-1,3l-1,2.6l-10.9,2.4l-0.2-0.2l-0.4-0.5l-0.5-0.6l-0.6-0.6h-3.8
		l-0.2,0.5l-0.4,0.4l-0.2,0.2l-0.4,0.1l-0.7-0.2l-0.8-0.5l-1.1-0.5h-0.8l-0.2,0.2l-0.2,0.4l-0.2,0.5l-0.4,0.8l-0.1,0.6l-0.7,0.5
		l-0.8,0.5l-1,0.1l-1.1,0.1l-1.3-0.1l-1.2-0.1l-1.2-0.5l-1.1-0.5l-0.1-0.6l-0.2-0.6l-0.4-0.7l-0.5-0.6h-8.2l-0.2,0.5l-0.5,0.6
		l-0.7,0.7l-0.8,0.7l-0.7-0.7l-0.8-0.7l-0.8-0.5l-1-0.4l-0.8-0.2l-1-0.1h-1l-1.1,0.1l-0.2,0.1l-0.4,0.2l-0.4,0.6l-0.4,0.7l-0.5,0.7
		l-0.4,0.5l-0.4,0.4l-0.2,0.2l-0.4-0.2l-0.5-0.6l-0.5-1l-0.7-1.2l-6.7,3.6l-0.7,1.3l-0.7,1.7l-1,2.3l-0.8,2.6l1.7,4.9l0.8,20.4v1.9
		l-0.2,1.7l0.2,0.5l0.4,0.4l0.6,0.2l0.7,0.1l1,0.1h0.7l0.4,0.1l0.2,0.1l0.4-0.6l0.1-0.6l-0.1-0.8l-0.2-1.1l-0.2-1.1v-0.8l0.1-1
		l0.2-0.5l0.4-0.5l0.4-0.7l0.4-1v-0.8l-0.1-1l-0.1-1.1l-0.1-1.3l-0.1-1.3l-0.1-1.2l-0.1-1v-0.8l0.1-1.4l0.2-1.3l0.4-1.2l0.6-1v-0.4
		l-0.1-0.6v-0.8l-0.1-1l-0.1-1l-0.1-1l0.1-0.7l0.1-0.6l0.2-0.5l0.5-0.2l0.6-0.2l0.7-0.2h0.7l0.6-0.1l0.4-0.1l0.1-0.1l0.1-1.4
		l0.5-1.6l0.7-0.1l0.4,0.1l0.4,0.4l0.6,0.5l0.7,0.7l0.6,0.8l0.7,0.6l0.5,0.4l0.4,0.2l18.8-1l1.4-2.6h0.5l0.2,0.2l0.1,0.4l0.2,0.4
		l0.2,0.6l0.1,0.7l0.2,0.7l12.2,0.6l0.4,0.1l0.2,0.4l0.5,0.5l0.5,0.6l0.6,0.7l0.5,0.5l0.5,0.4l0.5,0.1h0.7l0.5,0.2l2.3-3.5l5.5,4.6
		l2.3,8.4l-0.1,0.8l-0.5,1.3l-0.6,1.7l-1.1,2.2l1.7,4.9l-0.1,0.8l-0.5,1.1l-0.5,1.1l-0.2,0.6l0.6,4.6l1,0.1l1.4,0.2l0.1-0.2l0.1-0.5
		l0.1-0.7l0.2-1.1l0.2-0.1l0.4-0.2h0.4l0.7-0.1l0.1,0.1l0.1,0.2l0.2,0.4l0.1,0.5l0.5,0.8l0.4,0.6h0.4l0.4-0.1l0.4-0.4l0.2-0.5l1-1.7
		h0.4l0.4,0.2l0.4,0.4l0.6,0.6l0.5,0.7l0.4,0.5l0.5,0.5l0.2,0.1l0.6-0.8l0.2-1.1l-0.1-0.6l-0.1-0.7l-0.2-1l-0.4-1l-0.4-1.1l-0.2-1
		l-0.2-0.7v-0.6l0.1-0.7l0.4-1.1l0.5-1l0.2-0.7l-0.1-0.7l-0.5-1.1l-0.4-1l-0.2-0.6l1.4-7.6l-0.2-1.4l-0.1-1.3l-0.2-1.2l-0.1-1
		l-0.1-0.8v-1.7l0.1-0.5l0.2-0.6l0.2-1.1l0.2-1.3l-0.1-0.7l-0.2-1.1l-0.4-1.1l-0.1-0.7L86.8-171.4L86.8-171.4z M85.7-245.1l-1-1.4
		l-0.5-1L83.1-259v-0.5l0.4-0.7l0.6-0.8l0.8-1.1l-0.5-1.2l-0.5-1.4l-0.5-1.8l-0.4-2v-1.4l0.2-1.4l0.6-0.8l0.6-1.1l-3.4-7.2l0.1-0.8
		v-1l0.1-1.2v-1.3l-7.9,0.4l-2.4,9.5l-2.2,2.4l0.2,0.5l0.4,0.4l0.4,0.1l0.6,0.1l1,0.2l0.5,0.5l-0.2,6.6l-0.4,0.6l-0.7,0.1l-0.8,0.2
		l-0.5,0.4l0.1,1l0.5,1.3l0.6,1.3l0.1,1l-0.1,0.8l-0.4,0.7l-0.5,0.5l-0.8,0.2l-1.7,0.1l-1.3,0.2l-1,0.5l-0.6,0.7l-0.4,0.7l-0.4,0.6
		l-0.2,0.4l-0.1,0.4l-2.9,0.6l-0.4-0.2l-0.6-0.6l-0.7-1.1l-1.1-1.4l-6,2.3l-0.5-0.5l-0.7-0.4l-1-0.5l-1.1-0.5l-0.1,0.6l-0.4,0.7
		l-0.4,0.7l-0.5,1l-4.6,0.7l-0.2-0.1l-0.4-0.4l-0.2-0.6l-0.4-0.8l-0.1,0.2l-0.2,0.4l-0.4,0.5l-0.4,0.6l-9,0.8l-0.2,0.4l-0.2,0.4
		l-0.2,0.6l-0.2,0.7l-0.4,0.7l-0.4,0.5l-0.5,0.4l-0.5,0.1l-1.1,0.1l-0.6,0.2l0.6,4.3v0.8l-0.1,0.7l-0.5,0.7l-0.6,0.5l-0.5-0.1
		l-0.4-0.2l-0.2-0.5l-0.1-0.7l-0.7-4.3l-0.4-1l-0.5-0.5l-0.8-0.2l-1,0.2l-0.7,0.1l-0.7,0.1l-0.6-0.1l-0.6-0.6l-0.6-0.5l-0.5-0.1
		l-0.6,0.2l-0.7,0.8l-0.7,1.2l-0.8,1.6l-0.2,0.6l-0.5,0.4l-0.7,0.2h-1l-4,5.2l0.4,4.4l3,1.2l0.2,1l0.1,1.3l0.1,1.7l0.1,2l2.8,2.3
		l6.8,1.1l0.5-0.2l0.4-0.4l0.4-0.6l0.2-0.7l0.2-0.8l0.2-1.1l0.2-1.3l0.1-1.4l0.4-0.1l0.1-0.2l0.1-0.2l0.2,0.2l0.5,0.4l4.6,15.5
		l0.6,1.4l0.7,1.3l1,1.1l1.2,0.7l3-2.5l0.5-1.2l0.1-1.3l-0.2-1.2l-0.4-1.6l-0.2-1.8l-0.4-2l0.1-1.2l0.4-0.8l0.5-0.5h0.8l1.1,0.1
		l0.7-0.4l-0.2-1.9l-2.5-0.5l-0.2-0.8v-1.3l0.1-0.5l0.1-0.7l0.1-0.7l0.2-1l0.2-1.1l0.4-1.2l-0.2-0.7l-0.1-0.7v-1.8l13.1-1.8h0.4
		l0.2,0.1l0.2,0.2l0.2,0.5l0.5,1l0.4,0.7l0.5,0.5l0.2,0.1l0.5-0.1l0.4-0.5l0.4-0.7l0.2-1l0.4-0.6l0.5-0.5l0.5-0.4h1.4l1.2,0.2
		l1.2,0.2l1,0.1l1.3-4.1h0.2l0.2,0.1l0.4,0.4l0.4,0.5l0.4,0.6l0.5,0.7l0.5,1l0.5,1.1l4.9,3l0.6,1.4l0.7,1.4l0.8,1.7l1.2,1.8v4.3
		l1.3,4.9v0.5l-0.2,0.6l-0.4,0.6l-0.4,0.6l-0.5,0.6l-0.4,0.6l-0.2,0.6v0.5L73-214l0.1,0.7l0.2,0.5l0.4,0.4l0.6,0.6l0.5,0.4l0.6,0.2
		l0.6,0.1l3.5,2.6h0.2l0.4-0.4l0.4-0.5l0.4-0.6l0.2,0.2l0.5,0.2l0.6,0.2l0.7,0.1l1.2-0.7l1-1.1l0.6-1.4l0.5-1.8l-1.2-4.9l1.2-4.8
		l-1.9-15.2l1.9-5.4L85.7-245.1L85.7-245.1z"/>
</g>
</svg>
