<?xml version="1.0" encoding="utf-8"?>
<!-- Generator: Adobe Illustrator 17.1.0, SVG Export Plug-In . SVG Version: 6.00 Build 0)  -->
<!DOCTYPE svg PUBLIC "-//W3C//DTD SVG 1.1//EN" "http://www.w3.org/Graphics/SVG/1.1/DTD/svg11.dtd">
<svg version="1.1" id="Layer_2" xmlns="http://www.w3.org/2000/svg" xmlns:xlink="http://www.w3.org/1999/xlink" x="0px" y="0px"
	 viewBox="0 0 595.3 841.9" enable-background="new 0 0 595.3 841.9" xml:space="preserve">
<polygon fill="#101AC6" points="464.7,404.5 427.2,404.5 427.1,433.2 464.8,433.2 464.8,426.4 442.2,426.3 442.2,421.3 464,421.4 
	464,415.9 442.3,415.8 442.3,410.5 464.7,410.5 "/>
<polygon fill="#101AC6" points="423.2,404.5 408.3,404.5 408.3,418 397.6,404.5 379.1,404.5 379.1,433.3 394.2,433.3 394.2,418.9 
	405.5,433.2 423.2,433.2 "/>
<polygon fill="#101AC6" points="360.2,404.4 375,404.4 375,410.7 360.2,410.7 "/>
<polygon fill="#101AC6" points="360.3,412.6 375.1,412.6 375.1,433.4 360.2,433.4 "/>
<path fill="#101AC6" d="M316,404.5c0,0,33.3,0,36.3,0c2,0,3.5,1.7,3.5,3.4c0,2.6,0,4.6,0,6.8s-1.8,3.1-3.4,3c-1.2,0-1.1,0.7,0,0.7
	c1.7,0,3.7,1.1,3.7,2.8c0,1.9,0,7.7,0,9.4c0,1.6-1.6,2.8-3.5,2.8c-6.1,0-36.7,0-36.7,0V404.5z"/>
<path fill="#FCFCFC" d="M330.9,410.8c0,0,9.4,0,10.1,0c0.7,0,1.2,0.7,1.2,1.3c0,0.6,0,1.3,0,2.1s-0.4,1.2-1.3,1.2s-10,0-10,0
	L330.9,410.8z"/>
<path fill="#FFFFFF" d="M330.9,421.6c0,0,8.9,0,10.4,0c1.4,0,1.7,0.9,1.7,1.4c0,0.3,0,1.1,0,2.3c0,1-0.7,1.3-1.5,1.3
	c-1.4,0-10.6,0-10.6,0V421.6z"/>
<path fill="#101AC6" d="M312.1,433.4v-29h-18.3L283,418.4h-0.4l-11-14l-25.8-0.5c0,0-2.8,4.2-5.4,7c2.3,0.6,14.7,3.8,14.5,13.2
	c-0.2,7.1-7.5,14.9-33.8,19.3c15.5,0.1,45.4-2.8,46.9-11c1-6.2,0-13.6,0-13.6l11.2,14.4h7l11-14.5v14.5H312.1z"/>
<path fill="#101AC6" d="M236.2,402c-4.4,4.9-2.3,2.6-6.8,7.4c-5.2,0.2-20-1.2-32.5,0.3c-12.2,1.1-32.9,5.3-33.3,14
	c-0.6,12.2,31.9,15.5,39.9,16c-5.2,4.5-20.9,4.6-36.7,3.1c-14.4-1.4-32-9.6-30.6-19.7c2.1-14.9,42.3-20.5,52.1-21.4
	C198.1,400.9,218.3,400.5,236.2,402z"/>
<path fill="#101AC6" d="M210.9,412.5c27.8,0,37.9,7,37.9,11c0,4-4.5,12.5-37.1,12.5s-39.7-8.1-39.7-12.4
	C171.9,419.4,183.1,412.5,210.9,412.5z"/>
<path fill="#FFFFFF" d="M209.8,417.6c20.9,0,21.3,6.5,21.3,6.5s2,6.5-20.6,6.5s-21.1-6.7-21.1-6.7S188.9,417.6,209.8,417.6z"/>
</svg>
