<?xml version="1.0" encoding="utf-8"?>
<!-- Generator: Adobe Illustrator 17.1.0, SVG Export Plug-In . SVG Version: 6.00 Build 0)  -->
<!DOCTYPE svg PUBLIC "-//W3C//DTD SVG 1.1//EN" "http://www.w3.org/Graphics/SVG/1.1/DTD/svg11.dtd">
<svg version="1.1" id="Layer_1" xmlns="http://www.w3.org/2000/svg" xmlns:xlink="http://www.w3.org/1999/xlink" x="0px" y="0px"
	 viewBox="0 0 612 612" enable-background="new 0 0 612 612" xml:space="preserve">
<g>
	<path fill="#004587" d="M307.4,292.3v-12.2h3.8c5.4,0,11.3,0.2,11.3,5.7c0,5.9-5.7,6.5-12.5,6.5H307.4 M307.4,299h5l15,18H343
		l-18.3-19.6c3.8-1.2,11.8-3.6,11.8-11.8c0-12-16.2-12.3-24.2-12.3h-16.8c-1.8,0-2.2,0.2-2.2,1.3V317c0,0,0.4,0,2.2,0h9.7l2.2,0V299
		z"/>
	<path fill="#004587" d="M415.7,311.4c-7.8,0-11.1-6.2-11.1-16.2c0-9.9,3.3-16.2,11.1-16.2c7.8,0,11.1,6.2,11.1,16.2
		C426.8,305.2,423.5,311.4,415.7,311.4 M441.6,295.2c0-15.4-9.9-22.9-25.9-22.9c-16,0-25.9,7.5-25.9,22.9c0,15.4,9.8,22.9,25.9,22.9
		C431.8,318.1,441.6,310.7,441.6,295.2z"/>
	<path fill="#004587" d="M261.7,297.7h19.7v-6.9h-19.7v-10.5h21.9l3-6.9h-36.8c-0.1,0-0.1,0-0.2,0c-1.4,0-1.9,0.2-2,1V317l38.4,0
		l0-1.3v-4.2l0-1.3h-24.4V297.7z"/>
	<path fill="#004587" d="M494.4,273.4h-7.6l-2.2,0c0,0,0.3,26.4,0.3,28.4l-23.4-27.6c-0.6-0.7-0.8-0.8-2.4-0.8h-8.5l-0.2,0
		c-1.4,0-1.8,0.2-1.9,0.9V317c0,0,0.4,0,2.2,0h7.6c1.8,0,2.2,0,2.2,0v-24.3c0-2.9-0.1-4.9-0.1-5.7c0,0,24,28,24.9,29.1
		c1,1.1,2.4,0.9,2.4,0.9h6.9l2.2,0v-43.7L494.4,273.4z"/>
	<path fill="#004587" d="M147.7,297.7h19.7v-6.9h-19.7v-10.5h21.9l3-6.9h-36.8c-0.1,0-0.1,0-0.2,0c-1.6,0-2,0.2-2,1.2V317l38.4,0
		v-1.3v-4.2l0-1.3h-24.4V297.7z"/>
	<path fill="#004587" d="M209.3,300.5l-16.7-26c-0.6-0.7-0.8-0.8-2.4-0.8h-8.5l-2.2,0v43.7c0,0,0.4,0,2.2,0h7.6c1.8,0,2.2,0,2.2,0
		v-24.3c0-2.9-0.1-4.1-0.1-4.9c0,0,16.5,26.4,18.1,28.2l0.1,0c1.6-1.9,17.3-28.2,17.3-28.2c0,0.8-0.1,2-0.1,4.9v24.3
		c0,0,0.4,0,2.2,0h7.6c1.8,0,2.2,0,2.2,0v-43.7l-2.2,0H228c-1.6,0-1.8,0.1-2.4,0.8l-15.8,26H209.3z"/>
	<path fill="#004587" d="M378.3,293.5c-8.6-4.1-20.4-4.5-20.4-9.4c0-3.8,3.8-5,8.4-5c7.1,0,13.2,2.8,13.8,2.8c0.4,0,0.8-0.3,1.1-0.6
		l0.7-0.9l3.5-4.5l0,0c0,0,0,0,0,0c0,0,0,0-0.1,0c-0.2-0.1-0.8-0.4-1.7-0.7c-0.7-0.3-1.1-0.4-1.3-0.5c-3.5-1.2-10-2.5-16.3-2.5
		c-11.4,0-21.6,3.8-21.6,13c0,5.3,2.4,8.6,7.6,10.7c10,4,20.1,3.7,20.1,9.4c0,4-2.5,5.9-8,5.9c-8.5,0-15.7-2.8-16.3-2.8
		c-0.4,0-0.9,0.3-1.1,0.6l-1.1,2l-1.9,3.5l1.5,0.6c3.1,1.2,11.3,3,19.2,3c12.4,0,21.5-4.1,21.2-13.5
		C385.4,299.8,383.3,295.9,378.3,293.5z"/>
</g>
<g>
	
		<linearGradient id="SVGID_1_" gradientUnits="userSpaceOnUse" x1="820.6376" y1="516.1594" x2="820.6425" y2="516.1594" gradientTransform="matrix(0.438 0.2558 -0.1751 0.2999 68.6657 -137.9852)">
		<stop  offset="0" style="stop-color:#9D9D9C"/>
		<stop  offset="9.335665e-02" style="stop-color:#A8A8A7"/>
		<stop  offset="0.2653" style="stop-color:#C3C3C3"/>
		<stop  offset="0.4954" style="stop-color:#ECECEC"/>
		<stop  offset="0.5" style="stop-color:#EDEDED"/>
		<stop  offset="0.5833" style="stop-color:#E6E6E6"/>
		<stop  offset="0.7191" style="stop-color:#D4D4D4"/>
		<stop  offset="0.8895" style="stop-color:#B5B5B5"/>
		<stop  offset="1" style="stop-color:#9D9D9C"/>
	</linearGradient>
	<path fill="url(#SVGID_1_)" d="M337.7,226.7L337.7,226.7C337.7,226.7,337.7,226.7,337.7,226.7z"/>
	
		<linearGradient id="SVGID_2_" gradientUnits="userSpaceOnUse" x1="715.2797" y1="469.6577" x2="820.6201" y2="469.6577" gradientTransform="matrix(0.438 0.2558 -0.1751 0.2999 68.6726 -137.9852)">
		<stop  offset="0" style="stop-color:#9D9D9C"/>
		<stop  offset="9.335665e-02" style="stop-color:#A8A8A7"/>
		<stop  offset="0.2653" style="stop-color:#C3C3C3"/>
		<stop  offset="0.4954" style="stop-color:#ECECEC"/>
		<stop  offset="0.5" style="stop-color:#EDEDED"/>
		<stop  offset="0.5833" style="stop-color:#E6E6E6"/>
		<stop  offset="0.7191" style="stop-color:#D4D4D4"/>
		<stop  offset="0.8895" style="stop-color:#B5B5B5"/>
		<stop  offset="1" style="stop-color:#9D9D9C"/>
	</linearGradient>
	<path fill="url(#SVGID_2_)" d="M341.9,214.9l-0.3-0.4l-15.7-19.2l-0.1-0.1l-15.2-18.6c-2.9-3.5-2.7-4.2-2.5-4.5l-5.5,9.2
		c0,0.1-0.1,0.3-0.1,0.6c0.2,0.5,0.7,1.3,1.3,2.1l0.3,0.4l15.7,19.2l0.1,0.1l15.2,18.6c2.8,3.3,2.8,4,2.6,4.4l5.5-9.3
		C343.5,217,342.9,216,341.9,214.9z"/>
</g>
<g>
	<linearGradient id="SVGID_3_" gradientUnits="userSpaceOnUse" x1="306.0334" y1="171.8181" x2="355.4681" y2="200.6888">
		<stop  offset="0" style="stop-color:#9D9D9C"/>
		<stop  offset="9.335665e-02" style="stop-color:#A8A8A7"/>
		<stop  offset="0.2653" style="stop-color:#C3C3C3"/>
		<stop  offset="0.4954" style="stop-color:#ECECEC"/>
		<stop  offset="0.5" style="stop-color:#EDEDED"/>
		<stop  offset="0.5833" style="stop-color:#E6E6E6"/>
		<stop  offset="0.7191" style="stop-color:#D4D4D4"/>
		<stop  offset="0.8895" style="stop-color:#B5B5B5"/>
		<stop  offset="1" style="stop-color:#9D9D9C"/>
	</linearGradient>
	<path fill="url(#SVGID_3_)" d="M349.7,201.7l-0.3-0.4l-15.7-19.2l-0.1-0.1l-15.2-18.6c-2.9-3.5-2.7-4.2-2.5-4.5l-5.5,9.2
		c-0.1,0.1-0.1,0.3,0,0.6c0.2,0.5,0.7,1.3,1.3,2.1l0.3,0.4l15.7,19.2l0.1,0.1l15.2,18.6c2.8,3.3,2.8,4,2.6,4.4l5.5-9.3
		C351.3,203.8,350.6,202.9,349.7,201.7z"/>
	
		<linearGradient id="SVGID_4_" gradientUnits="userSpaceOnUse" x1="820.641" y1="516.1603" x2="820.6463" y2="516.1603" gradientTransform="matrix(0.438 0.2558 -0.1751 0.2999 76.4558 -151.1336)">
		<stop  offset="0" style="stop-color:#9D9D9C"/>
		<stop  offset="9.335665e-02" style="stop-color:#A8A8A7"/>
		<stop  offset="0.2653" style="stop-color:#C3C3C3"/>
		<stop  offset="0.4954" style="stop-color:#ECECEC"/>
		<stop  offset="0.5" style="stop-color:#EDEDED"/>
		<stop  offset="0.5833" style="stop-color:#E6E6E6"/>
		<stop  offset="0.7191" style="stop-color:#D4D4D4"/>
		<stop  offset="0.8895" style="stop-color:#B5B5B5"/>
		<stop  offset="1" style="stop-color:#9D9D9C"/>
	</linearGradient>
	<path fill="url(#SVGID_4_)" d="M345.5,213.6L345.5,213.6C345.5,213.6,345.5,213.6,345.5,213.6z"/>
</g>
<g>
	
		<linearGradient id="SVGID_5_" gradientUnits="userSpaceOnUse" x1="715.2805" y1="469.6688" x2="820.6208" y2="469.6688" gradientTransform="matrix(0.438 0.2558 -0.1751 0.2999 53.0905 -111.6912)">
		<stop  offset="0" style="stop-color:#9D9D9C"/>
		<stop  offset="9.335665e-02" style="stop-color:#A8A8A7"/>
		<stop  offset="0.2653" style="stop-color:#C3C3C3"/>
		<stop  offset="0.4954" style="stop-color:#ECECEC"/>
		<stop  offset="0.5" style="stop-color:#EDEDED"/>
		<stop  offset="0.5833" style="stop-color:#E6E6E6"/>
		<stop  offset="0.7191" style="stop-color:#D4D4D4"/>
		<stop  offset="0.8895" style="stop-color:#B5B5B5"/>
		<stop  offset="1" style="stop-color:#9D9D9C"/>
	</linearGradient>
	<path fill="url(#SVGID_5_)" d="M327.6,243.8c0.1-0.1,0.1-0.3,0-0.7c-0.2-0.5-0.7-1.2-1.3-2l-0.3-0.4l-15.7-19.2l-0.1-0.1
		l-15.2-18.6c-2.9-3.5-2.7-4.2-2.5-4.5l-5.5,9.3c-0.3,0.4,0.4,1.4,1.3,2.6l0.3,0.4l15.7,19.2l0.1,0.1l15.2,18.6
		c2.8,3.3,2.8,4,2.6,4.4L327.6,243.8z"/>
	
		<linearGradient id="SVGID_6_" gradientUnits="userSpaceOnUse" x1="820.6404" y1="516.1635" x2="820.6429" y2="516.1635" gradientTransform="matrix(0.438 0.2558 -0.1751 0.2999 53.0905 -111.6912)">
		<stop  offset="0" style="stop-color:#9D9D9C"/>
		<stop  offset="9.335665e-02" style="stop-color:#A8A8A7"/>
		<stop  offset="0.2653" style="stop-color:#C3C3C3"/>
		<stop  offset="0.4954" style="stop-color:#ECECEC"/>
		<stop  offset="0.5" style="stop-color:#EDEDED"/>
		<stop  offset="0.5833" style="stop-color:#E6E6E6"/>
		<stop  offset="0.7191" style="stop-color:#D4D4D4"/>
		<stop  offset="0.8895" style="stop-color:#B5B5B5"/>
		<stop  offset="1" style="stop-color:#9D9D9C"/>
	</linearGradient>
	<path fill="url(#SVGID_6_)" d="M322.2,253L322.2,253C322.1,253,322.2,253,322.2,253z"/>
</g>
<g>
	
		<linearGradient id="SVGID_7_" gradientUnits="userSpaceOnUse" x1="820.6367" y1="516.1608" x2="820.6398" y2="516.1608" gradientTransform="matrix(0.438 0.2558 -0.1751 0.2999 45.3 -98.5428)">
		<stop  offset="0" style="stop-color:#9D9D9C"/>
		<stop  offset="9.335665e-02" style="stop-color:#A8A8A7"/>
		<stop  offset="0.2653" style="stop-color:#C3C3C3"/>
		<stop  offset="0.4954" style="stop-color:#ECECEC"/>
		<stop  offset="0.5" style="stop-color:#EDEDED"/>
		<stop  offset="0.5833" style="stop-color:#E6E6E6"/>
		<stop  offset="0.7191" style="stop-color:#D4D4D4"/>
		<stop  offset="0.8895" style="stop-color:#B5B5B5"/>
		<stop  offset="1" style="stop-color:#9D9D9C"/>
	</linearGradient>
	<path fill="url(#SVGID_7_)" d="M314.4,266.1L314.4,266.1C314.4,266.2,314.4,266.2,314.4,266.1z"/>
	
		<linearGradient id="SVGID_8_" gradientUnits="userSpaceOnUse" x1="715.2797" y1="469.6642" x2="820.6186" y2="469.6642" gradientTransform="matrix(0.438 0.2558 -0.1751 0.2999 45.3 -98.5428)">
		<stop  offset="0" style="stop-color:#9D9D9C"/>
		<stop  offset="9.335665e-02" style="stop-color:#A8A8A7"/>
		<stop  offset="0.2653" style="stop-color:#C3C3C3"/>
		<stop  offset="0.4954" style="stop-color:#ECECEC"/>
		<stop  offset="0.5" style="stop-color:#EDEDED"/>
		<stop  offset="0.5833" style="stop-color:#E6E6E6"/>
		<stop  offset="0.7191" style="stop-color:#D4D4D4"/>
		<stop  offset="0.8895" style="stop-color:#B5B5B5"/>
		<stop  offset="1" style="stop-color:#9D9D9C"/>
	</linearGradient>
	<path fill="url(#SVGID_8_)" d="M319.8,257L319.8,257c0,0,0.2-0.3,0.1-0.7c-0.2-0.5-0.7-1.2-1.4-2l-0.3-0.4l-15.7-19.2l-0.1-0.1
		l-15.2-18.6c-2.9-3.5-2.7-4.2-2.5-4.5l-5.5,9.3c-0.3,0.4,0.4,1.4,1.3,2.6l0.3,0.4l15.7,19.2l0.1,0.1l15.2,18.6
		c2.8,3.3,2.8,4,2.6,4.4L319.8,257z"/>
</g>
<linearGradient id="SVGID_9_" gradientUnits="userSpaceOnUse" x1="715.2792" y1="469.7709" x2="820.6195" y2="469.7709" gradientTransform="matrix(0.438 0.2558 -0.1751 0.2999 60.884 -124.8387)">
	<stop  offset="0" style="stop-color:#9D9D9C"/>
	<stop  offset="9.335665e-02" style="stop-color:#A8A8A7"/>
	<stop  offset="0.2653" style="stop-color:#C3C3C3"/>
	<stop  offset="0.4954" style="stop-color:#ECECEC"/>
	<stop  offset="0.5" style="stop-color:#EDEDED"/>
	<stop  offset="0.5833" style="stop-color:#E6E6E6"/>
	<stop  offset="0.7191" style="stop-color:#D4D4D4"/>
	<stop  offset="0.8895" style="stop-color:#B5B5B5"/>
	<stop  offset="1" style="stop-color:#9D9D9C"/>
</linearGradient>
<path fill="url(#SVGID_9_)" d="M312.2,216.9l15.2,18.6c2.9,3.5,2.8,4.1,2.5,4.5l5.6-9.3c0.2-0.4-0.4-1.4-1.4-2.6l-0.3-0.4
	l-15.7-19.2l-0.1-0.1l-15.2-18.6c-2.9-3.5-2.7-4.2-2.5-4.5l-5.5,9.3c-0.3,0.4,0.4,1.4,1.3,2.6l0.3,0.4l15.7,19.2L312.2,216.9z"/>
<linearGradient id="SVGID_10_" gradientUnits="userSpaceOnUse" x1="282.5559" y1="211.2632" x2="332.1568" y2="240.236">
	<stop  offset="0.2022" style="stop-color:#004380"/>
	<stop  offset="0.4485" style="stop-color:#677FB0"/>
	<stop  offset="0.5056" style="stop-color:#7F91BC"/>
	<stop  offset="0.8034" style="stop-color:#004380"/>
</linearGradient>
<path fill="url(#SVGID_10_)" d="M330.6,229.7l-20.9-8.7l-0.1,0l-21.6-9l-0.3-0.1c-0.7-0.2-2.1-0.7-2.7-0.3c-0.1,0-0.1,0.1-0.2,0.2
	l-5.4,9.2c0.2-0.3,0.9-0.8,4.8,0.9l20.9,8.7l0.1,0.1l21.6,9l0.3,0.1c0.7,0.2,2.1,0.7,2.8,0.4c0.1,0,0.2-0.2,0.3-0.3l5.4-9
	C335.2,230.9,334.5,231.4,330.6,229.7z"/>
<linearGradient id="SVGID_11_" gradientUnits="userSpaceOnUse" x1="290.3457" y1="198.1139" x2="339.9483" y2="227.0877">
	<stop  offset="0.2022" style="stop-color:#004380"/>
	<stop  offset="0.4485" style="stop-color:#677FB0"/>
	<stop  offset="0.5056" style="stop-color:#7F91BC"/>
	<stop  offset="0.8034" style="stop-color:#004380"/>
</linearGradient>
<path fill="url(#SVGID_11_)" d="M338.4,216.6l-20.9-8.7l-0.1,0l-21.6-9l-0.3-0.1c-0.7-0.2-2.1-0.7-2.7-0.3c-0.1,0-0.1,0.1-0.2,0.2
	l-5.4,9.2c0.2-0.3,0.9-0.8,4.8,0.9l20.9,8.7l0.1,0.1l21.6,9l0.3,0.1c0.7,0.2,2.1,0.7,2.8,0.4c0.1,0,0.2-0.2,0.3-0.3l5.4-9
	C343,217.8,342.3,218.3,338.4,216.6z"/>
<linearGradient id="SVGID_12_" gradientUnits="userSpaceOnUse" x1="298.1361" y1="184.9658" x2="347.738" y2="213.9392">
	<stop  offset="0.2022" style="stop-color:#004380"/>
	<stop  offset="0.4485" style="stop-color:#677FB0"/>
	<stop  offset="0.5056" style="stop-color:#7F91BC"/>
	<stop  offset="0.8034" style="stop-color:#004380"/>
</linearGradient>
<path fill="url(#SVGID_12_)" d="M346.2,203.4l-20.9-8.7l-0.1,0l-21.6-9l-0.3-0.1c-0.7-0.2-2.1-0.7-2.7-0.3c-0.1,0-0.1,0.1-0.2,0.2
	l-5.4,9.2c0.2-0.3,0.9-0.8,4.9,0.9l20.9,8.7l0.1,0.1l21.6,9l0.3,0.1c0.7,0.2,2.1,0.7,2.8,0.4c0.1,0,0.2-0.2,0.3-0.3l5.4-9.1
	C350.8,204.6,350.1,205.1,346.2,203.4z"/>
<path fill="#004380" d="M504.6,312v5h-0.8v-5h-1.9v-0.5h4.6v0.5H504.6z"/>
<path fill="#004380" d="M512.8,317.1V312l-2,5.1h-0.7l-2-5v5h-0.7v-5.5h1.2l1.9,4.7l1.8-4.7h1.2v5.5H512.8z"/>
<g>
	<path fill="#AAAAA9" d="M134,343.9c0,3.6-1.7,5.3-5.2,5.3h-2.6v-10.4h2.7C132.4,338.9,134,340.4,134,343.9z M140.3,343.6
		c0-3-1.1-5.3-3.2-6.8c-1.7-1.3-3.4-1.6-8.1-1.6h-8.9v28.6h6.1v-10.9h2.5C136.6,352.9,140.3,349.9,140.3,343.6z"/>
	<path fill="#AAAAA9" d="M152.2,347.1c-0.8,0-2.2,0.2-3,0.4v16.4h-5.9v-20.9h5.8v1.6c2.4-1.2,4.4-1.9,5.3-1.9c0.9,0,1.6,0.1,2.3,0.5
		v4.9C155.4,347.4,153.9,347.1,152.2,347.1z"/>
	<path fill="#AAAAA9" d="M173.4,353.4c0,4.9-1.5,7.5-4.4,7.5c-2.9,0-4.4-2.5-4.4-7.5c0-4.9,1.5-7.4,4.4-7.4S173.4,348.4,173.4,353.4
		z M179.5,353c0-6.6-3.9-10.6-10.4-10.6c-6.7,0-10.7,4.2-10.7,11.4c0,6.5,3.9,10.5,10.4,10.5C175.5,364.3,179.5,360.1,179.5,353z"/>
	<path fill="#AAAAA9" d="M192.1,364.1c-6.2,0-9.8-3.8-9.8-10.4c0-6.9,4.2-11.1,11-11.1c1.6,0,2.9,0.2,5.9,1v3.4
		c-1.4-0.4-2.8-0.5-4.3-0.5c-4.3,0-6.4,2.3-6.4,6.9c0,4.6,2.1,6.7,6.6,6.7c1.3,0,3.1-0.2,4.2-0.4v3.2
		C195.1,363.9,193.8,364.1,192.1,364.1z"/>
	<path fill="#AAAAA9" d="M214.3,351.1H207c0-3.8,1.2-5.5,3.8-5.5C213.4,345.7,214.3,347.1,214.3,351.1z M220.1,354.4
		c0-3.6-0.1-4.9-0.6-6.2c-1.1-3.7-4-5.7-8.3-5.7c-6.2,0-10,4.3-10,11.2c0,6.8,3.6,10.4,10.2,10.4c1.6,0,3.7-0.3,7.7-1.2v-3
		c-2.2,0.3-3.8,0.4-5.4,0.4c-4.9,0-6.7-1.6-6.7-5.9H220.1z"/>
	<path fill="#AAAAA9" d="M229.6,364.2c-2,0-3.8-0.3-6.8-1.1v-3.3c2.1,0.5,4,0.8,5.9,0.8c2.3,0,3.4-0.7,3.4-2.2
		c0-0.9-0.5-1.5-1.8-2.1l-3.2-1.5c-3-1.4-4.2-3.1-4.2-5.9c0-3.9,2.8-6.3,7.6-6.3c1.7,0,3.3,0.3,6.3,1.1v3.2
		c-1.6-0.4-3.6-0.7-5.1-0.7c-2.2,0-3.2,0.6-3.2,1.9c0,1,0.6,1.5,2.3,2.3l3.2,1.4c2.7,1.2,3.8,2.9,3.8,5.7
		C237.7,361.7,234.6,364.2,229.6,364.2z"/>
	<path fill="#AAAAA9" d="M247.2,364.2c-2,0-3.8-0.3-6.8-1.1v-3.3c2.1,0.5,4,0.8,5.9,0.8c2.3,0,3.4-0.7,3.4-2.2
		c0-0.9-0.5-1.5-1.8-2.1l-3.2-1.5c-3-1.4-4.2-3.1-4.2-5.9c0-3.9,2.8-6.3,7.6-6.3c1.7,0,3.3,0.3,6.3,1.1v3.2
		c-1.6-0.4-3.6-0.7-5.1-0.7c-2.2,0-3.2,0.6-3.2,1.9c0,1,0.6,1.5,2.3,2.3l3.2,1.4c2.7,1.2,3.8,2.9,3.8,5.7
		C255.4,361.7,252.3,364.2,247.2,364.2z"/>
	<path fill="#AAAAA9" d="M293,363.8v-24.5l-7.2,24.5h-6.2l-7.3-24.5v24.5h-4.7v-28.6h8.9l6.8,22.6l6.6-22.6h8.8v28.6H293z"/>
	<path fill="#AAAAA9" d="M314.8,359.9c-0.9,0.2-1.8,0.3-2.7,0.3c-2.3,0-3.6-1-3.6-3c0-1.7,1-2.7,2.9-3c0.9-0.1,1.4-0.1,3.3-0.2
		V359.9z M320.4,363.8V350c0-3.2-0.5-4.7-1.8-5.9c-1.2-1.1-3.2-1.6-5.6-1.6c-2,0-4.5,0.4-8.6,1.4v3.1c2.2-0.4,4.7-0.6,6.6-0.6
		c2.6,0,3.6,0.8,3.6,2.9v1.7c-2.1,0-3.7,0.1-5.4,0.2c-4.5,0.4-6.7,2.6-6.7,6.5c0,3.8,2.5,6.4,6.4,6.4c1.5,0,2.8-0.3,5.9-1.6v1.3
		H320.4z"/>
	<path fill="#AAAAA9" d="M338.5,363.8v-13c0-3-1-4-3.8-4c-1,0-2,0.1-3.4,0.4v16.7h-5.9v-20.9h5.8v1.3c3.7-1.4,5.1-1.8,6.9-1.8
		c2,0,3.9,0.8,4.9,2.1c1.1,1.3,1.4,2.8,1.4,5.7v13.6H338.5z"/>
	<path fill="#AAAAA9" d="M360.2,359.9c-0.9,0.2-1.8,0.3-2.7,0.3c-2.3,0-3.6-1-3.6-3c0-1.7,1-2.7,2.9-3c0.9-0.1,1.4-0.1,3.3-0.2
		V359.9z M365.8,363.8V350c0-3.2-0.5-4.7-1.8-5.9c-1.2-1.1-3.2-1.6-5.6-1.6c-2,0-4.5,0.4-8.6,1.4v3.1c2.2-0.4,4.7-0.6,6.6-0.6
		c2.6,0,3.6,0.8,3.6,2.9v1.7c-2.1,0-3.7,0.1-5.4,0.2c-4.5,0.4-6.7,2.6-6.7,6.5c0,3.8,2.5,6.4,6.4,6.4c1.5,0,2.8-0.3,5.9-1.6v1.3
		H365.8z"/>
	<path fill="#AAAAA9" d="M383.9,359.6c-1.1,0.2-1.7,0.2-2.7,0.2c-3.5,0-5.4-2.3-5.4-6.6c0-4.4,2.1-7,5.9-7c0.7,0,1.2,0,2.1,0.2
		V359.6z M389.8,364.5v-21.6H384v0.9c-1.3-0.8-2.9-1.2-4.5-1.2c-5.8,0-9.8,4.7-9.8,11.3c0,6.3,3.2,10.3,8.4,10.3
		c1.3,0,2.6-0.4,5.8-1.7v1.7c0,3.7-1.3,4.7-5.8,4.7c-2,0-4.8-0.3-6.9-0.9v3.6c4.3,1,6.1,1.3,8.3,1.3c2.8,0,5.2-0.5,6.9-1.4
		C388.9,370.2,389.8,368.2,389.8,364.5z"/>
	<path fill="#AAAAA9" d="M407,351.1h-7.2c0-3.8,1.2-5.5,3.8-5.5C406.1,345.7,407,347.1,407,351.1z M412.7,354.4
		c0-3.6-0.1-4.9-0.6-6.2c-1.1-3.7-4-5.7-8.3-5.7c-6.2,0-10,4.3-10,11.2c0,6.8,3.6,10.4,10.2,10.4c1.6,0,3.7-0.3,7.7-1.2v-3
		c-2.2,0.3-3.8,0.4-5.4,0.4c-4.9,0-6.7-1.6-6.7-5.9H412.7z"/>
	<path fill="#AAAAA9" d="M442.8,363.8v-13c0-3-1-4-3.8-4c-1,0-1.8,0.1-3.6,0.5c0,0.1,0,0.2,0,0.2c0.2,0.8,0.2,0.9,0.2,1.7v14.6h-5.9
		v-13.6c0-2.6-1-3.4-3.7-3.4c-1,0-2.3,0.2-3.4,0.4v16.7h-5.9v-20.9h5.8v1.3c3.9-1.5,5.2-1.8,7-1.8c2,0,3.6,0.6,4.7,1.8
		c4.4-1.5,5.8-1.8,7.6-1.8c5,0,7,2.1,7,7.8v13.6H442.8z"/>
	<path fill="#AAAAA9" d="M465.8,351.1h-7.2c0-3.8,1.2-5.5,3.8-5.5C464.9,345.7,465.8,347.1,465.8,351.1z M471.5,354.4
		c0-3.6-0.1-4.9-0.6-6.2c-1.1-3.7-4-5.7-8.3-5.7c-6.2,0-10,4.3-10,11.2c0,6.8,3.6,10.4,10.2,10.4c1.6,0,3.7-0.3,7.7-1.2v-3
		c-2.2,0.3-3.8,0.4-5.4,0.4c-4.9,0-6.7-1.6-6.7-5.9H471.5z"/>
	<path fill="#AAAAA9" d="M488.6,363.8v-13c0-3-1-4-3.8-4c-1,0-2,0.1-3.4,0.4v16.7h-5.9v-20.9h5.8v1.3c3.7-1.4,5.1-1.8,6.9-1.8
		c2,0,3.9,0.8,4.9,2.1c1.1,1.3,1.4,2.8,1.4,5.7v13.6H488.6z"/>
	<path fill="#AAAAA9" d="M506.3,364.1c-4.7,0-6.4-1.7-6.4-6.3v-11.4h-2.6v-3.4h2.6v-4.4l5.9-2.1v6.5h6v3.4h-6v10.5
		c0,2.4,0.8,3.2,3.2,3.2c0.9,0,1.5,0,2.8-0.2v3.2C508.8,363.9,507.6,364.1,506.3,364.1z"/>
</g>
</svg>
