<?xml version="1.0" encoding="utf-8"?>
<!-- Generator: Adobe Illustrator 17.1.0, SVG Export Plug-In . SVG Version: 6.00 Build 0)  -->
<!DOCTYPE svg PUBLIC "-//W3C//DTD SVG 1.1//EN" "http://www.w3.org/Graphics/SVG/1.1/DTD/svg11.dtd">
<svg version="1.1" id="Layer_1" xmlns="http://www.w3.org/2000/svg" xmlns:xlink="http://www.w3.org/1999/xlink" x="0px" y="0px"
	 viewBox="0 0 612 792" enable-background="new 0 0 612 792" xml:space="preserve">
<path d="M549.9,462.1c0.9,0,1.8,0.2,2.7,0.7c0.9,0.5,1.6,1.2,2.1,2.1c0.5,0.9,0.7,1.8,0.7,2.8c0,1-0.2,1.9-0.7,2.8
	c-0.5,0.9-1.2,1.6-2.1,2.1c-0.9,0.5-1.8,0.7-2.8,0.7c-1,0-1.9-0.2-2.8-0.7c-0.9-0.5-1.6-1.2-2.1-2.1c-0.5-0.9-0.7-1.8-0.7-2.8
	c0-1,0.2-1.9,0.7-2.8c0.5-0.9,1.2-1.6,2.1-2.1C548,462.3,548.9,462.1,549.9,462.1z M549.9,463c-0.8,0-1.5,0.2-2.3,0.6
	c-0.7,0.4-1.3,1-1.7,1.7c-0.4,0.7-0.6,1.5-0.6,2.3c0,0.8,0.2,1.6,0.6,2.3c0.4,0.7,1,1.3,1.7,1.7c0.7,0.4,1.5,0.6,2.3,0.6
	c0.8,0,1.6-0.2,2.3-0.6c0.7-0.4,1.3-1,1.7-1.7s0.6-1.5,0.6-2.3c0-0.8-0.2-1.6-0.6-2.3c-0.4-0.7-1-1.3-1.7-1.7
	C551.4,463.2,550.6,463,549.9,463z M547.4,470.7v-6h2.1c0.7,0,1.2,0.1,1.5,0.2c0.3,0.1,0.6,0.3,0.8,0.6c0.2,0.3,0.3,0.6,0.3,0.9
	c0,0.4-0.2,0.8-0.5,1.1c-0.3,0.3-0.7,0.5-1.3,0.5c0.2,0.1,0.4,0.2,0.5,0.3c0.2,0.2,0.5,0.6,0.9,1.2l0.7,1.2h-1.2l-0.5-0.9
	c-0.4-0.7-0.8-1.2-1-1.4c-0.2-0.1-0.4-0.2-0.8-0.2h-0.6v2.5H547.4z M548.4,467.4h1.2c0.6,0,1-0.1,1.2-0.3c0.2-0.2,0.3-0.4,0.3-0.7
	c0-0.2,0-0.3-0.1-0.5c-0.1-0.1-0.2-0.2-0.4-0.3c-0.2-0.1-0.5-0.1-1-0.1h-1.1V467.4z"/>
<g>
	<rect x="268.7" y="436.9" fill="none" width="26.4" height="8.8"/>
	<rect x="212.2" y="436.9" fill="none" width="26.4" height="8.8"/>
	<path d="M123.7,463.6H99l-8.4,9.1v0.3h30.3c4.6,0,7.2-0.5,9.1-1.6c3.3-2,4.1-4.7,4.1-12.8v-30.9l-10.4,0L123.7,463.6z"/>
	<polygon points="145.6,473 191.7,473 191.7,463.5 155.5,463.5 155.5,454.4 181.4,454.4 189.6,445.4 155.5,445.4 155.5,436.8 
		191.7,436.8 191.7,427.7 145.6,427.7 	"/>
	<path d="M233.2,427.7h-31.4V473h10.5v-18.2h22.9c5.9,0,7.9-0.3,9.6-1.2c2.8-1.8,4.2-5.9,4.2-12.9c0-3-0.6-5.9-1.8-8.4
		C245.6,428.9,241.8,427.7,233.2,427.7z M238.7,445.6h-26.4v-8.8h26.4V445.6z"/>
	<path d="M289.6,427.7h-31.4V473h10.5v-18.2h22.9c5.9,0,7.9-0.3,9.6-1.2c2.8-1.8,4.2-5.9,4.2-12.9c0-3-0.6-5.9-1.8-8.4
		C302,428.9,298.3,427.7,289.6,427.7z M295.1,445.6h-26.4v-8.8h26.4V445.6z"/>
	<path d="M405.8,445.6H380v-8.4h36.4v-9.5h-30.1c-12.8,0-16.1,2.9-16.1,13.7c0,6.5,1.4,10.3,4.4,12.4c1.5,1,4,1.4,8.5,1.4h24.7v8.9
		h-36.9v9h30.7c8.4,0,9.7-0.1,12-1.5c3.1-1.8,3.9-4.6,3.9-12.9c0-4-0.4-6.5-1.2-8.2C414.7,447.3,411,445.6,405.8,445.6z"/>
	<polygon points="527.2,427.7 527.2,463.1 499.7,427.7 484.5,427.7 484.5,473 494.9,473 494.9,438.4 521.6,473 537.7,473 
		537.7,427.7 	"/>
	<polygon points="314.2,473 360.3,473 360.3,463.5 324.1,463.5 324.1,454.4 350,454.4 358.2,445.4 324.1,445.4 324.1,436.8 
		360.3,436.8 360.3,427.7 314.2,427.7 	"/>
	<polygon points="427.6,473 473.7,473 473.7,463.5 437.5,463.5 437.5,454.4 463.4,454.4 471.6,445.4 437.5,445.4 437.5,436.8 
		473.7,436.8 473.7,427.7 427.6,427.7 	"/>
</g>
<g>
	<path fill="#0053A1" d="M380.7,485.5h1.5l4,13.6H385l-1.1-4h-4.8l-1.1,4h-1.3L380.7,485.5z M383.6,494.1l-2.1-7.6h0l-2.1,7.6H383.6
		z"/>
	<path fill="#0053A1" d="M394.5,485.5h3.7c2.6,0,3.7,1.4,3.7,3.4c0,1.3-0.7,2.6-2.1,2.9v0c1.7,0.3,2.5,1.6,2.5,3.4
		c0,2.4-1.5,3.8-4.1,3.8h-3.7V485.5z M395.7,491.5h1.9c2.1,0,3-0.9,3-2.5c0-1.8-0.9-2.5-2.8-2.5h-2.1V491.5z M395.7,498.1h2.3
		c2.1,0,3.1-1,3.1-2.8c0-1.8-1-2.8-3.1-2.8h-2.3V498.1z"/>
	<path fill="#0053A1" d="M409.6,485.3c2.8,0,4.3,2.2,4.3,7c0,4.9-1.6,7-4.3,7c-2.8,0-4.3-2.2-4.3-7
		C405.3,487.5,406.8,485.3,409.6,485.3z M409.6,498.3c1.9,0,3.1-1.6,3.1-6c0-4.4-1.2-6-3.1-6c-1.9,0-3.1,1.6-3.1,6
		C406.5,496.7,407.7,498.3,409.6,498.3z"/>
	<path fill="#0053A1" d="M417.3,485.5h6.7v1h-5.5v4.9h5.2v1h-5.2v5.6h5.7v1h-6.9V485.5z"/>
	<path fill="#0053A1" d="M427.1,485.5h1.2v13.6h-1.2V485.5z"/>
	<path fill="#0053A1" d="M431.9,485.5h1.6l5.2,11.8h0v-11.8h1.2v13.6h-1.6l-5.2-11.8h0v11.8h-1.2V485.5z"/>
	<path fill="#0053A1" d="M447.3,493.2v-1h4.4v6.9h-1v-2.2h0c-0.4,1.5-1.6,2.5-3,2.5c-2.8,0-4.3-2.2-4.3-7c0-4.9,1.6-7,4.3-7
		c2.6,0,3.7,1.7,3.9,4h-1.2c0-1.6-0.9-3-2.7-3c-1.9,0-3.1,1.6-3.1,6c0,4.4,1.2,6,3.1,6c1.8,0,2.8-1.6,2.8-4.8v-0.3H447.3z"/>
	<path fill="#0053A1" d="M469.1,494.5c-0.2,3.1-1.6,4.8-4,4.8c-2.8,0-4.3-2.2-4.3-7c0-4.9,1.6-7,4.3-7c2.8,0,3.9,2,3.9,4.2h-1.2
		c0-1.8-0.9-3.2-2.7-3.2c-1.9,0-3.1,1.6-3.1,6c0,4.4,1.2,6,3.1,6c1.7,0,2.7-1.5,2.8-3.8H469.1z"/>
	<path fill="#0053A1" d="M476.3,485.3c2.8,0,4.3,2.2,4.3,7c0,4.9-1.6,7-4.3,7c-2.8,0-4.3-2.2-4.3-7
		C472,487.5,473.5,485.3,476.3,485.3z M476.3,498.3c1.9,0,3.1-1.6,3.1-6c0-4.4-1.2-6-3.1-6c-1.9,0-3.1,1.6-3.1,6
		C473.2,496.7,474.4,498.3,476.3,498.3z"/>
	<path fill="#0053A1" d="M484.1,485.5h2.1l3.3,12.1h0l3.3-12.1h2v13.6h-1.2v-12.4h0l-3.5,12.4h-1.1l-3.5-12.4h0v12.4h-1.2V485.5z"/>
	<path fill="#0053A1" d="M498.4,485.5h3.7c2.6,0,3.7,1.5,3.7,3.8c0,2.1-1,3.8-4.1,3.8h-2v5.9h-1.2V485.5z M499.6,492.2h2.1
		c1.6,0,2.9-0.7,2.9-2.8c0-2-1-2.8-2.9-2.8h-2.1V492.2z"/>
	<path fill="#0053A1" d="M511.1,485.5h1.5l4,13.6h-1.3l-1.1-4h-4.8l-1.1,4h-1.3L511.1,485.5z M513.9,494.1l-2.1-7.6h0l-2.1,7.6
		H513.9z"/>
	<path fill="#0053A1" d="M519,485.5h1.6l5.2,11.8h0v-11.8h1.2v13.6h-1.6l-5.2-11.8h0v11.8H519V485.5z"/>
	<path fill="#0053A1" d="M533.1,493.7l-3.7-8.1h1.3l3,6.8l3-6.8h1.3l-3.7,8.1v5.4h-1.2V493.7z"/>
</g>
<g>
	<path fill="#D0D0D0" d="M322.8,371.7c-1.4-0.3-3-0.7-4.6-1.1l-63.2,0c0,0,11.3,2,25.9,4.9c13.3,2.6,29.3,5.9,41.9,9
		c26.4,6.4,46,16.7,46,16.7l26.8-30.6l-11.3,0l-15.6,17.8C368.8,388.4,349.3,378.1,322.8,371.7z"/>
	<polygon fill="#A8A8A7" points="384.4,357.8 373.1,370.7 384.4,370.6 395.7,357.8 	"/>
	<path fill="#A8A8A7" d="M322.8,358.9c-1.4-0.4-3.1-0.7-4.6-1.1l-73.3,0c0,0,22.5,2.2,38,5.3c11.3,2.2,24.2,4.9,35.4,7.5l40,0
		C349.9,367.2,337.4,362.4,322.8,358.9z"/>
	<path fill="#777776" d="M368.8,375.6c0,0-3.9-2.1-10.6-4.9l-40,0c1.5,0.4,3.1,0.7,4.6,1.1c26.4,6.4,46,16.7,46,16.7l15.6-17.8
		l-11.3,0L368.8,375.6z"/>
	<path fill="#0053A1" d="M395.7,345L234.8,345c0,0,32.9,2.3,48.7,5.4c11.2,2.2,23.9,4.8,34.8,7.4l66.2,0L395.7,345z"/>
	<path fill="#003366" d="M358.2,370.7l14.9,0l11.3-12.8l-66.2,0c1.5,0.4,3.1,0.7,4.6,1.1C337.4,362.4,349.9,367.2,358.2,370.7z"/>
	<path fill="#002750" d="M368.8,375.6l4.3-4.9l-14.9,0C364.9,373.5,368.8,375.6,368.8,375.6z"/>
</g>
<g>
</g>
<g>
</g>
<g>
</g>
<g>
</g>
<g>
</g>
<g>
</g>
</svg>
