<?xml version="1.0" encoding="utf-8"?>
<!-- Generator: Adobe Illustrator 17.1.0, SVG Export Plug-In . SVG Version: 6.00 Build 0)  -->
<!DOCTYPE svg PUBLIC "-//W3C//DTD SVG 1.1//EN" "http://www.w3.org/Graphics/SVG/1.1/DTD/svg11.dtd">
<svg version="1.1" id="Layer_1" xmlns="http://www.w3.org/2000/svg" xmlns:xlink="http://www.w3.org/1999/xlink" x="0px" y="0px"
	 viewBox="0 0 595.3 841.9" enable-background="new 0 0 595.3 841.9" xml:space="preserve">
<g>
	<g>
		<path fill="#009FE3" d="M136.7,302.8c0,1.9-0.7,2.9-2,2.9H99.9v0.2c0,3,1.8,5,5.3,5.8c0.8,0.2,1.9,0.3,3.4,0.4
			c1.5,0.1,3.4,0.2,5.6,0.2c1.7,0,2.6,1.1,2.6,3.3c0,1.8-0.9,2.6-2.6,2.6c-2.4,0-4.3,0-5.8,0c-1.5,0-2.6-0.1-3.4-0.2
			c-3.9-0.4-6.7-1.3-8.5-2.7c-2.6-2-3.9-4.4-3.9-7.1v-11.7c0-3.7,2-6.4,6-8.2c2.7-1.3,6.3-1.9,10.8-1.9h13.1c3.7,0,6.7,0.6,9.1,1.8
			c3.3,1.6,5,3.9,5,7V302.8z M129.9,299.6v-3.9c0-2.4-4.8-3.6-14.3-3.6c-5.6,0-9.5,0.2-11.5,0.6c-2.9,0.6-4.4,1.6-4.4,3.3v3.7H129.9
			z"/>
	</g>
	<path fill="#3C3C3B" d="M180.2,309.1c0,6.1-4.6,9.1-13.9,9.1h-23.7c-1.7,0-2.6-0.9-2.6-2.6c0-2.2,0.9-3.3,2.6-3.3h23.8
		c4.4,0,6.6-1.1,6.6-3.2v-1.2c0-1.9-2-2.9-6-2.9h-11.4c-10.5,0-15.7-2.9-15.7-8.8v-1.7c0-3.9,2.6-6.4,7.9-7.4
		c1.1-0.2,2.6-0.4,4.7-0.5c2.1-0.1,4.6-0.2,7.7-0.2c1.8,0,2.6,1.1,2.6,3.3c0,1.7-0.9,2.6-2.6,2.6h-5.1c-2.6,0-4.2,0-4.8,0.1
		c-2.3,0.3-3.5,1-3.5,2.2v1.7c0,1.9,2.9,2.9,8.7,2.9h11.6c8.7,0,13,2.9,13,8.6V309.1z"/>
	<path fill="#3C3C3B" d="M228.6,315.5c0,1.8-1.1,2.6-3.3,2.6h-26c-5,0-8.6-0.5-10.8-1.4c-3.8-1.5-5.7-4.2-5.7-8.2V296
		c0-6.5,5-9.7,15-9.7h27.8c1.8,0,2.7,1,2.7,3c0,2-0.9,3-2.7,3h-27.3c-5.6,0-8.4,1.2-8.4,3.6v12.5c0,2.7,3.2,4.1,9.6,4.1h26.4
		C227.7,312.3,228.6,313.4,228.6,315.5z"/>
	<path fill="#3C3C3B" d="M275.3,302.8c0,1.9-0.7,2.9-2,2.9h-34.9v0.2c0,3,1.8,5,5.3,5.8c0.8,0.2,1.9,0.3,3.4,0.4
		c1.5,0.1,3.4,0.2,5.6,0.2c1.7,0,2.6,1.1,2.6,3.3c0,1.8-0.9,2.6-2.6,2.6c-2.3,0-4.3,0-5.8,0c-1.5,0-2.6-0.1-3.4-0.2
		c-3.9-0.4-6.7-1.3-8.5-2.7c-2.6-2-3.9-4.4-3.9-7.1v-11.7c0-3.7,2-6.4,6-8.2c2.7-1.3,6.3-1.9,10.8-1.9h13.1c3.7,0,6.7,0.6,9.1,1.8
		c3.3,1.6,5,3.9,5,7V302.8z M268.5,299.6v-3.9c0-2.4-4.8-3.6-14.3-3.6c-5.6,0-9.5,0.2-11.5,0.6c-2.9,0.6-4.4,1.6-4.4,3.3v3.7H268.5z
		"/>
	<path fill="#3C3C3B" d="M322.7,315.5c0,1.8-0.9,2.6-2.6,2.6c-1.7,0-2.7-0.1-3-0.2c-1-0.3-1.4-1.1-1.4-2.4v-20.3
		c0-1.4-1.2-2.4-3.6-2.8c-0.4-0.1-1.1-0.2-1.9-0.2s-2,0-3.3,0h-12.1c-1.2,0-2.2,0-3.1,0.1c-0.8,0-1.5,0.1-2,0.2
		c-2.3,0.4-3.4,1.4-3.4,2.8v20.3c0,1.8-0.9,2.6-2.6,2.6c-1.7,0-2.7-0.1-3-0.2c-0.9-0.3-1.4-1.1-1.4-2.4v-20.2
		c0-6.1,5.4-9.1,16.1-9.1h11.5c10.6,0,15.9,3,15.9,9V315.5z"/>
	<path fill="#3C3C3B" d="M370.8,308.4c0,3.4-2.1,6-6.4,7.8c-3,1.4-6.6,2-10.8,2h-10.7c-10.8,0-16.4-3-16.8-9
		c-0.1-1.1-0.1-2.5-0.1-4.2c0-3.5,0.1-6.3,0.2-8.5c0.4-6.6,5.9-9.9,16.6-9.9h21v-6.2c0-1.8,0.9-2.6,2.6-2.6c1.2,0,2.2,0.1,3,0.3
		c0.9,0.3,1.4,1.1,1.4,2.4V308.4z M363.8,308.2v-15.8h-21.1c-6.3,0-9.4,1.4-9.4,4.2v11.3c0,2.1,1.2,3.4,3.6,4c1,0.3,3,0.4,6,0.4
		h10.1C360.2,312.3,363.8,310.9,363.8,308.2z"/>
	<path fill="#3C3C3B" d="M420.6,308.6c0,6.4-4.8,9.6-14.4,9.6h-17.2c-3.7,0-6.9-0.7-9.5-2c-3.6-1.7-5.4-4.1-5.4-7.2v-4.1
		c0-3.3,1.7-5.8,5.2-7.5c2.6-1.3,5.7-1.9,9.6-1.9h24.8c-0.4-2.2-3.6-3.4-9.5-3.4c-0.2,0-0.5,0-0.9,0c-0.3,0-0.7,0-1.2,0.1
		c0,0-0.1,0-0.3,0h-0.3h-0.5h-0.8c-1.7,0-2.6-1.1-2.6-3.3c0-1.8,0.9-2.6,2.6-2.6c5.6,0,9.9,0.4,12.9,1.2c5.1,1.4,7.6,4.3,7.6,8.6
		V308.6z M413.7,306.9c0-0.3,0-0.7,0-1.2c0-0.5,0-1,0-1.6c0-0.6,0-1.2-0.1-1.6c0-0.5,0-0.9,0-1.2h-24.9c-1.5,0-3,0.3-4.5,0.8
		c-2,0.7-3,1.6-3,2.7v4c0,1.2,1,2.1,3.1,2.7c1.3,0.5,2.9,0.7,4.6,0.7h17.4c2.6,0,4.4-0.3,5.4-0.8C413,310.8,413.7,309.3,413.7,306.9
		z"/>
	<g>
		
			<circle fill="#3C3C3B" stroke="#454344" stroke-width="3.200900e-02" stroke-linejoin="round" stroke-miterlimit="10" cx="54.7" cy="291.3" r="7.2"/>
		
			<circle fill="#3C3C3B" stroke="#454344" stroke-width="3.200900e-02" stroke-linejoin="round" stroke-miterlimit="10" cx="54.4" cy="312.9" r="7.2"/>
	</g>
	<circle fill="#009FE3" cx="74.9" cy="302.2" r="7.2"/>
</g>
<g>
</g>
<g>
</g>
<g>
</g>
<g>
</g>
<g>
</g>
<g>
</g>
</svg>
