<?xml version="1.0" encoding="utf-8"?>
<!-- Generator: Adobe Illustrator 17.1.0, SVG Export Plug-In . SVG Version: 6.00 Build 0)  -->
<!DOCTYPE svg PUBLIC "-//W3C//DTD SVG 1.1//EN" "http://www.w3.org/Graphics/SVG/1.1/DTD/svg11.dtd">
<svg version="1.1" id="Lager_1" xmlns="http://www.w3.org/2000/svg" xmlns:xlink="http://www.w3.org/1999/xlink" x="0px" y="0px"
	 viewBox="0 0 841.9 595.3" enable-background="new 0 0 841.9 595.3" xml:space="preserve">
<g>
	<g>
		<path fill="#575756" d="M340.7,331.4l-0.1,0.6c-0.2,0-0.4,0-0.7,0.1c-0.3,0-0.5,0.1-0.7,0.1c-0.2,0.1-0.4,0.2-0.5,0.4
			c-0.1,0.2-0.2,0.3-0.2,0.5l-2.1,9.1c0,0,0,0.1,0,0.1c0,0.1,0,0.1,0,0.1c0,0.1,0,0.2,0.1,0.3c0.1,0.1,0.2,0.2,0.3,0.2
			c0.1,0,0.3,0.1,0.6,0.1c0.3,0.1,0.5,0.1,0.7,0.1l-0.1,0.6h-5.6l0.1-0.6c0.2,0,0.4,0,0.7-0.1s0.5-0.1,0.7-0.1
			c0.2-0.1,0.4-0.2,0.5-0.3c0.1-0.1,0.2-0.3,0.2-0.5l2.1-9.1c0-0.1,0-0.1,0-0.2c0-0.1,0-0.1,0-0.2c0-0.1,0-0.2-0.1-0.3
			c-0.1-0.1-0.2-0.2-0.3-0.2c-0.2-0.1-0.4-0.1-0.6-0.2c-0.3-0.1-0.5-0.1-0.6-0.1l0.1-0.6H340.7z"/>
		<path fill="#575756" d="M349.7,342.8l-0.1,0.6c-0.5,0.2-0.9,0.4-1.2,0.5c-0.3,0.1-0.6,0.1-0.9,0.1c-0.5,0-0.8-0.1-1.1-0.4
			c-0.2-0.2-0.4-0.5-0.4-0.9c0-0.1,0-0.3,0-0.4c0-0.2,0.1-0.3,0.1-0.5l0.9-3.3c0.1-0.2,0.1-0.5,0.2-0.7c0-0.2,0.1-0.4,0.1-0.5
			c0-0.4-0.1-0.7-0.3-0.9c-0.2-0.2-0.5-0.3-0.8-0.3c-0.4,0-0.8,0.1-1.2,0.4c-0.4,0.2-0.9,0.6-1.2,1l-1.5,6.5h-1.6l1.3-5.7
			c0-0.1,0.1-0.3,0.1-0.6c0.1-0.3,0.1-0.5,0.1-0.6c0-0.3-0.1-0.5-0.2-0.7c-0.1-0.1-0.3-0.2-0.7-0.2c-0.1,0-0.3,0-0.5,0.1
			c-0.2,0-0.4,0.1-0.5,0.1l0.1-0.6c0.5-0.2,0.9-0.4,1.2-0.5c0.4-0.1,0.7-0.1,0.9-0.1c0.5,0,0.8,0.1,1,0.4c0.2,0.2,0.3,0.6,0.3,1h0.1
			c0.6-0.5,1.2-0.9,1.7-1.1s1-0.4,1.6-0.4c0.6,0,1,0.2,1.3,0.5c0.3,0.3,0.5,0.8,0.5,1.3c0,0.1,0,0.3,0,0.6c0,0.3-0.1,0.5-0.2,0.8
			l-0.7,2.8c-0.1,0.2-0.1,0.4-0.2,0.6c-0.1,0.2-0.1,0.4-0.1,0.6c0,0.3,0.1,0.6,0.2,0.7c0.1,0.1,0.4,0.2,0.7,0.2c0.1,0,0.3,0,0.5-0.1
			C349.4,342.9,349.6,342.9,349.7,342.8z"/>
		<path fill="#575756" d="M360.3,342.8l-0.1,0.6c-0.5,0.2-0.9,0.4-1.2,0.5c-0.3,0.1-0.6,0.1-0.9,0.1c-0.5,0-0.8-0.1-1.1-0.4
			c-0.2-0.2-0.4-0.5-0.4-0.9c0-0.1,0-0.3,0-0.4c0-0.2,0.1-0.3,0.1-0.5l0.9-3.3c0.1-0.2,0.1-0.5,0.2-0.7c0-0.2,0.1-0.4,0.1-0.5
			c0-0.4-0.1-0.7-0.3-0.9c-0.2-0.2-0.5-0.3-0.8-0.3c-0.4,0-0.8,0.1-1.2,0.4c-0.4,0.2-0.9,0.6-1.2,1l-1.5,6.5h-1.6l1.3-5.7
			c0-0.1,0.1-0.3,0.1-0.6c0.1-0.3,0.1-0.5,0.1-0.6c0-0.3-0.1-0.5-0.2-0.7c-0.1-0.1-0.3-0.2-0.7-0.2c-0.1,0-0.3,0-0.5,0.1
			c-0.2,0-0.4,0.1-0.5,0.1l0.1-0.6c0.5-0.2,0.9-0.4,1.2-0.5c0.4-0.1,0.7-0.1,0.9-0.1c0.5,0,0.8,0.1,1,0.4c0.2,0.2,0.3,0.6,0.3,1h0.1
			c0.6-0.5,1.2-0.9,1.7-1.1c0.5-0.2,1-0.4,1.6-0.4c0.6,0,1,0.2,1.3,0.5c0.3,0.3,0.5,0.8,0.5,1.3c0,0.1,0,0.3,0,0.6
			c0,0.3-0.1,0.5-0.2,0.8l-0.7,2.8c-0.1,0.2-0.1,0.4-0.2,0.6c-0.1,0.2-0.1,0.4-0.1,0.6c0,0.3,0.1,0.6,0.2,0.7
			c0.1,0.1,0.4,0.2,0.7,0.2c0.1,0,0.3,0,0.5-0.1C360,342.9,360.2,342.9,360.3,342.8z"/>
		<path fill="#575756" d="M369.9,338.4c0,0.7-0.1,1.4-0.4,2.1c-0.2,0.7-0.6,1.3-1,1.8c-0.5,0.5-1,1-1.6,1.3
			c-0.6,0.3-1.4,0.5-2.2,0.5c-1,0-1.8-0.3-2.4-0.9c-0.6-0.6-0.9-1.5-0.9-2.5c0-0.8,0.1-1.5,0.4-2.2c0.3-0.7,0.6-1.3,1-1.8
			c0.4-0.5,1-0.9,1.6-1.2c0.6-0.3,1.3-0.5,2.1-0.5c1,0,1.9,0.3,2.4,1C369.6,336.6,369.9,337.4,369.9,338.4z M368.1,338.1
			c0-0.8-0.1-1.5-0.4-1.9c-0.3-0.4-0.7-0.6-1.3-0.6c-0.5,0-0.9,0.1-1.4,0.4c-0.4,0.3-0.8,0.8-1.1,1.5c-0.2,0.5-0.4,1.1-0.5,1.7
			c-0.1,0.6-0.2,1.2-0.2,1.7c0,0.8,0.1,1.5,0.4,1.9c0.3,0.4,0.7,0.6,1.3,0.6c0.5,0,1-0.2,1.4-0.5c0.4-0.3,0.7-0.7,1-1.2
			c0.3-0.5,0.4-1.1,0.6-1.7C368,339.4,368.1,338.8,368.1,338.1z"/>
		<path fill="#575756" d="M379.6,336.6c0,0.9-0.1,1.8-0.4,2.7c-0.3,0.9-0.6,1.7-1.1,2.4c-0.5,0.7-1,1.3-1.7,1.7
			c-0.7,0.4-1.4,0.7-2.2,0.7c-0.8,0-1.4-0.2-1.8-0.6c-0.5-0.4-0.7-1-0.7-1.7c0-0.1,0-0.3,0-0.5c0-0.2,0.1-0.3,0.1-0.3l0.8-2.8
			c0.1-0.2,0.1-0.5,0.2-0.7c0-0.2,0.1-0.4,0.1-0.6c0-0.3-0.1-0.5-0.2-0.7c-0.1-0.1-0.3-0.2-0.7-0.2c-0.1,0-0.3,0-0.5,0.1
			c-0.2,0.1-0.4,0.1-0.5,0.1l0.1-0.6c0.5-0.2,0.9-0.4,1.2-0.5c0.4-0.1,0.6-0.2,0.8-0.2c0.5,0,0.8,0.1,1,0.3c0.2,0.2,0.3,0.5,0.3,0.9
			c0,0.1,0,0.3,0,0.4c0,0.2-0.1,0.3-0.1,0.5l-0.8,3.3c-0.1,0.2-0.1,0.4-0.1,0.6c0,0.2,0,0.3,0,0.4c0,0.3,0,0.6,0.1,0.7
			c0.1,0.2,0.2,0.3,0.4,0.4c0.1,0.1,0.3,0.2,0.5,0.2c0.2,0,0.3,0.1,0.5,0.1c0.4,0,0.8-0.1,1.2-0.4c0.4-0.2,0.8-0.6,1.1-1
			c0.3-0.4,0.6-0.9,0.8-1.5c0.2-0.5,0.3-1.1,0.3-1.8c0-0.4,0-0.6-0.1-0.8c-0.1-0.2-0.2-0.4-0.3-0.5c-0.1-0.1-0.2-0.3-0.3-0.5
			c-0.1-0.2-0.1-0.4-0.1-0.7c0-0.3,0.1-0.6,0.3-0.8c0.2-0.2,0.5-0.3,0.7-0.3c0.3,0,0.6,0.1,0.8,0.4
			C379.5,335.7,379.6,336.1,379.6,336.6z"/>
		<path fill="#575756" d="M386.3,342.7L386.3,342.7c-0.2,0.1-0.3,0.2-0.5,0.4c-0.2,0.2-0.4,0.3-0.6,0.5c-0.2,0.1-0.5,0.3-0.7,0.4
			c-0.3,0.1-0.6,0.2-0.9,0.2c-0.8,0-1.5-0.3-2-0.9c-0.5-0.6-0.7-1.4-0.7-2.5c0-0.7,0.1-1.4,0.4-2.1c0.3-0.7,0.6-1.3,1.1-1.8
			c0.5-0.5,1-0.9,1.6-1.3c0.6-0.3,1.3-0.5,1.9-0.5c0.4,0,0.8,0.1,1.2,0.2c0.4,0.1,0.7,0.2,0.9,0.4l1.6-0.4l0.1,0.1l-1.3,5.7
			c0,0.2-0.1,0.4-0.1,0.7c-0.1,0.3-0.1,0.5-0.1,0.6c0,0.3,0.1,0.6,0.2,0.7c0.1,0.1,0.4,0.2,0.7,0.2c0.1,0,0.3,0,0.5-0.1
			c0.2,0,0.4-0.1,0.5-0.1l-0.1,0.6c-0.5,0.2-0.9,0.4-1.2,0.5c-0.3,0.1-0.6,0.1-0.9,0.1c-0.4,0-0.8-0.1-1-0.4
			C386.4,343.4,386.3,343.1,386.3,342.7z M387.5,337.1c0-0.2,0-0.4-0.1-0.6c0-0.2-0.1-0.3-0.3-0.5c-0.1-0.1-0.3-0.3-0.5-0.4
			c-0.2-0.1-0.5-0.1-0.8-0.1c-0.4,0-0.8,0.1-1.2,0.4c-0.4,0.3-0.8,0.7-1.1,1.1c-0.3,0.4-0.6,1-0.7,1.6c-0.2,0.6-0.3,1.3-0.3,1.9
			c0,0.4,0,0.7,0.1,0.9c0,0.3,0.1,0.5,0.2,0.8c0.1,0.2,0.3,0.4,0.5,0.5c0.2,0.1,0.5,0.2,0.8,0.2c0.3,0,0.7-0.1,1-0.3
			c0.4-0.2,0.8-0.5,1.2-1L387.5,337.1z"/>
		<path fill="#575756" d="M393.1,344c-0.6,0-1-0.1-1.2-0.3c-0.3-0.2-0.4-0.5-0.4-1c0-0.1,0-0.3,0-0.4s0-0.3,0.1-0.4l1.4-5.9h-1.6
			l0.2-0.8h1.6l0.6-2.6h1.6l-0.6,2.6h2.4l-0.2,0.8h-2.4l-1.1,4.8c-0.1,0.2-0.1,0.4-0.1,0.6c0,0.2-0.1,0.4-0.1,0.5
			c0,0.3,0.1,0.6,0.2,0.7c0.2,0.1,0.5,0.2,0.9,0.2c0.2,0,0.4,0,0.6-0.1c0.3,0,0.5-0.1,0.6-0.1l-0.1,0.6c-0.4,0.2-0.8,0.3-1.2,0.4
			C394.1,344,393.6,344,393.1,344z"/>
		<path fill="#575756" d="M401.6,342.9l-0.1,0.6c-0.5,0.2-1,0.4-1.3,0.4c-0.3,0.1-0.6,0.1-0.8,0.1c-0.5,0-0.8-0.1-1.1-0.4
			c-0.2-0.2-0.4-0.5-0.4-0.9c0-0.1,0-0.3,0-0.4c0-0.1,0.1-0.3,0.1-0.6l0.9-3.7c0-0.2,0.1-0.4,0.1-0.7c0-0.2,0.1-0.4,0.1-0.6
			c0-0.3-0.1-0.5-0.2-0.7c-0.1-0.1-0.3-0.2-0.7-0.2c-0.1,0-0.3,0-0.5,0.1c-0.2,0-0.4,0.1-0.5,0.1l0.1-0.6c0.5-0.2,0.9-0.4,1.2-0.5
			c0.4-0.1,0.7-0.2,0.9-0.2c0.5,0,0.8,0.1,1,0.3c0.2,0.2,0.3,0.5,0.3,0.9c0,0.1,0,0.2,0,0.4c0,0.2-0.1,0.4-0.1,0.5l-0.9,3.7
			c-0.1,0.2-0.1,0.5-0.2,0.7c0,0.2-0.1,0.4-0.1,0.5c0,0.3,0.1,0.6,0.2,0.7c0.2,0.1,0.4,0.2,0.7,0.2c0.1,0,0.3,0,0.5,0
			C401.3,343,401.5,342.9,401.6,342.9z M402.2,331.7c0,0.3-0.1,0.6-0.3,0.9c-0.2,0.2-0.5,0.4-0.8,0.4c-0.3,0-0.6-0.1-0.8-0.4
			c-0.2-0.2-0.3-0.5-0.3-0.8c0-0.3,0.1-0.6,0.3-0.8c0.2-0.2,0.5-0.4,0.8-0.4c0.3,0,0.6,0.1,0.8,0.3
			C402.1,331.1,402.2,331.3,402.2,331.7z"/>
		<path fill="#575756" d="M411.2,338.4c0,0.7-0.1,1.4-0.4,2.1c-0.2,0.7-0.6,1.3-1,1.8c-0.5,0.5-1,1-1.6,1.3
			c-0.6,0.3-1.4,0.5-2.2,0.5c-1,0-1.8-0.3-2.4-0.9c-0.6-0.6-0.9-1.5-0.9-2.5c0-0.8,0.1-1.5,0.4-2.2c0.3-0.7,0.6-1.3,1-1.8
			c0.4-0.5,1-0.9,1.6-1.2c0.6-0.3,1.3-0.5,2.1-0.5c1,0,1.9,0.3,2.4,1C410.9,336.6,411.2,337.4,411.2,338.4z M409.4,338.1
			c0-0.8-0.1-1.5-0.4-1.9c-0.3-0.4-0.7-0.6-1.3-0.6c-0.5,0-0.9,0.1-1.4,0.4c-0.4,0.3-0.8,0.8-1.1,1.5c-0.2,0.5-0.4,1.1-0.5,1.7
			c-0.1,0.6-0.2,1.2-0.2,1.7c0,0.8,0.1,1.5,0.4,1.9c0.3,0.4,0.7,0.6,1.3,0.6c0.5,0,1-0.2,1.4-0.5c0.4-0.3,0.7-0.7,1-1.2
			c0.3-0.5,0.4-1.1,0.6-1.7C409.3,339.4,409.4,338.8,409.4,338.1z"/>
		<path fill="#575756" d="M421.8,342.8l-0.1,0.6c-0.5,0.2-0.9,0.4-1.2,0.5c-0.3,0.1-0.6,0.1-0.9,0.1c-0.5,0-0.8-0.1-1.1-0.4
			c-0.2-0.2-0.4-0.5-0.4-0.9c0-0.1,0-0.3,0-0.4c0-0.2,0.1-0.3,0.1-0.5l0.9-3.3c0.1-0.2,0.1-0.5,0.2-0.7c0-0.2,0.1-0.4,0.1-0.5
			c0-0.4-0.1-0.7-0.3-0.9c-0.2-0.2-0.5-0.3-0.8-0.3c-0.4,0-0.8,0.1-1.2,0.4c-0.4,0.2-0.9,0.6-1.2,1l-1.5,6.5h-1.6l1.3-5.7
			c0-0.1,0.1-0.3,0.1-0.6c0.1-0.3,0.1-0.5,0.1-0.6c0-0.3-0.1-0.5-0.2-0.7c-0.1-0.1-0.3-0.2-0.7-0.2c-0.1,0-0.3,0-0.5,0.1
			c-0.2,0-0.4,0.1-0.5,0.1l0.1-0.6c0.5-0.2,0.9-0.4,1.2-0.5c0.4-0.1,0.7-0.1,0.9-0.1c0.5,0,0.8,0.1,1,0.4c0.2,0.2,0.3,0.6,0.3,1h0.1
			c0.6-0.5,1.2-0.9,1.7-1.1s1-0.4,1.6-0.4c0.6,0,1,0.2,1.3,0.5c0.3,0.3,0.5,0.8,0.5,1.3c0,0.1,0,0.3,0,0.6c0,0.3-0.1,0.5-0.2,0.8
			l-0.7,2.8c-0.1,0.2-0.1,0.4-0.2,0.6c0,0.2-0.1,0.4-0.1,0.6c0,0.3,0.1,0.6,0.2,0.7c0.1,0.1,0.4,0.2,0.7,0.2c0.1,0,0.3,0,0.5-0.1
			C421.6,342.9,421.7,342.9,421.8,342.8z"/>
		<path fill="#575756" d="M431.1,336.1l-1.5,7.3c-0.3,1.3-0.9,2.4-1.7,3.2c-0.9,0.8-1.8,1.2-2.7,1.2c-0.5,0-0.9-0.1-1.1-0.3
			c-0.2-0.2-0.4-0.4-0.4-0.7c0-0.2,0.1-0.5,0.2-0.7c0.2-0.2,0.4-0.3,0.7-0.3c0.2,0,0.3,0,0.5,0.1c0.1,0.1,0.3,0.2,0.4,0.3
			c0.1,0.1,0.2,0.2,0.3,0.4c0.1,0.2,0.2,0.3,0.3,0.4c0.5,0,0.8-0.3,1.2-0.9c0.3-0.6,0.6-1.4,0.8-2.5l1.6-7.6h-1.7l0.2-0.8h1.7
			l0.1-0.6c0.1-0.7,0.4-1.3,0.7-1.8c0.3-0.5,0.7-1,1-1.4c0.4-0.4,0.8-0.7,1.3-0.9c0.5-0.2,0.9-0.3,1.4-0.3c0.5,0,0.9,0.1,1.1,0.3
			c0.2,0.2,0.4,0.4,0.4,0.7c0,0.3-0.1,0.5-0.2,0.7c-0.1,0.2-0.4,0.3-0.7,0.3c-0.2,0-0.3,0-0.5-0.1c-0.1-0.1-0.3-0.2-0.4-0.3
			c-0.1-0.1-0.2-0.3-0.3-0.4c-0.1-0.1-0.2-0.3-0.3-0.4c-0.4,0-0.8,0.3-1.1,0.8c-0.3,0.5-0.6,1.4-0.8,2.6l-0.2,0.9h2.2l-0.2,0.8
			H431.1z"/>
		<path fill="#575756" d="M441.7,338.4c0,0.7-0.1,1.4-0.4,2.1c-0.2,0.7-0.6,1.3-1,1.8c-0.4,0.5-1,1-1.6,1.3
			c-0.6,0.3-1.4,0.5-2.2,0.5c-1,0-1.8-0.3-2.4-0.9c-0.6-0.6-0.9-1.5-0.9-2.5c0-0.8,0.1-1.5,0.4-2.2c0.3-0.7,0.6-1.3,1-1.8
			c0.4-0.5,1-0.9,1.6-1.2c0.6-0.3,1.3-0.5,2.1-0.5c1,0,1.9,0.3,2.4,1C441.4,336.6,441.7,337.4,441.7,338.4z M439.9,338.1
			c0-0.8-0.1-1.5-0.4-1.9s-0.7-0.6-1.3-0.6c-0.5,0-0.9,0.1-1.4,0.4c-0.4,0.3-0.8,0.8-1.1,1.5c-0.2,0.5-0.4,1.1-0.5,1.7
			c-0.1,0.6-0.2,1.2-0.2,1.7c0,0.8,0.1,1.5,0.4,1.9c0.3,0.4,0.7,0.6,1.3,0.6c0.5,0,1-0.2,1.4-0.5c0.4-0.3,0.7-0.7,1-1.2
			c0.3-0.5,0.4-1.1,0.6-1.7C439.8,339.4,439.9,338.8,439.9,338.1z"/>
		<path fill="#575756" d="M450.7,336.4c0,0.2,0,0.3-0.1,0.5c0,0.2-0.1,0.4-0.2,0.5c-0.1,0.2-0.2,0.3-0.3,0.4
			c-0.1,0.1-0.3,0.1-0.5,0.1c-0.3,0-0.6-0.1-0.7-0.2c-0.2-0.2-0.2-0.3-0.2-0.5c0-0.2,0-0.4,0.1-0.6c0.1-0.2,0.2-0.4,0.3-0.7
			c-0.1,0-0.2,0-0.3,0.1c-0.2,0-0.4,0.1-0.6,0.2c-0.2,0.1-0.5,0.3-0.8,0.5c-0.3,0.2-0.6,0.5-0.9,0.9l-1.4,6.3h-1.6l1.3-5.7
			c0-0.1,0.1-0.4,0.1-0.6c0.1-0.3,0.1-0.5,0.1-0.6c0-0.3-0.1-0.5-0.2-0.7c-0.1-0.1-0.3-0.2-0.7-0.2c-0.1,0-0.3,0-0.5,0.1
			c-0.2,0-0.4,0.1-0.5,0.1l0.1-0.6c0.5-0.2,0.9-0.4,1.2-0.5c0.4-0.1,0.7-0.1,0.9-0.1c0.5,0,0.8,0.1,1,0.4c0.2,0.3,0.3,0.6,0.3,1.1
			h0.1c0.7-0.6,1.2-1,1.6-1.3c0.4-0.2,0.7-0.4,1.1-0.4c0.2,0,0.4,0,0.5,0.1c0.2,0,0.3,0.1,0.4,0.2c0.1,0.1,0.2,0.3,0.3,0.4
			C450.6,335.9,450.7,336.1,450.7,336.4z"/>
		<path fill="#575756" d="M460.8,344.1c-0.7,0-1.4-0.1-2-0.3c-0.6-0.2-1.1-0.6-1.6-1c-0.5-0.4-0.8-1-1.1-1.6
			c-0.3-0.6-0.4-1.3-0.4-2.1c0-1.1,0.2-2.2,0.6-3.2c0.4-1,0.9-1.8,1.6-2.6c0.7-0.7,1.5-1.3,2.4-1.7c0.9-0.4,1.9-0.6,2.9-0.6
			c0.8,0,1.5,0.1,2.1,0.3c0.6,0.2,1,0.4,1.4,0.6l0.5-0.6h0.7l-0.9,4.4h-0.7c0-0.5-0.1-1-0.1-1.4c-0.1-0.5-0.2-0.9-0.4-1.3
			c-0.2-0.4-0.5-0.7-0.9-0.9c-0.4-0.2-1-0.3-1.7-0.3c-0.7,0-1.4,0.2-2,0.6c-0.6,0.4-1.2,0.9-1.7,1.6c-0.5,0.6-0.8,1.4-1.1,2.3
			c-0.3,0.9-0.4,1.9-0.4,2.9c0,1.3,0.3,2.3,0.9,3.1c0.6,0.8,1.5,1.1,2.5,1.1c0.5,0,1-0.1,1.3-0.2c0.4-0.2,0.7-0.3,0.9-0.5
			c0.1-0.2,0.2-0.5,0.2-0.8c0.1-0.3,0.2-0.6,0.2-1l0.2-0.8c0-0.1,0-0.1,0-0.2c0-0.1,0-0.2,0-0.2c0-0.1,0-0.3-0.1-0.4
			c0-0.1-0.1-0.2-0.3-0.2c-0.2-0.1-0.4-0.2-0.7-0.2c-0.3,0-0.6-0.1-0.8-0.1l0.1-0.6h5.5l-0.1,0.6c-0.2,0-0.4,0-0.6,0.1
			c-0.2,0-0.4,0.1-0.6,0.2c-0.2,0.1-0.4,0.2-0.5,0.4c-0.1,0.2-0.2,0.3-0.2,0.6l-0.2,1c-0.1,0.6-0.2,1-0.3,1.2
			c-0.1,0.3-0.1,0.5-0.1,0.8c-0.4,0.2-0.7,0.3-1,0.4c-0.3,0.1-0.7,0.2-1.1,0.3c-0.4,0.1-0.8,0.2-1.2,0.2
			C461.7,344.1,461.3,344.1,460.8,344.1z"/>
		<path fill="#575756" d="M476.4,336.4c0,0.2,0,0.3-0.1,0.5c0,0.2-0.1,0.4-0.2,0.5c-0.1,0.2-0.2,0.3-0.3,0.4
			c-0.1,0.1-0.3,0.1-0.5,0.1c-0.3,0-0.6-0.1-0.7-0.2c-0.2-0.2-0.2-0.3-0.2-0.5c0-0.2,0-0.4,0.1-0.6c0.1-0.2,0.2-0.4,0.3-0.7
			c-0.1,0-0.2,0-0.3,0.1c-0.2,0-0.4,0.1-0.6,0.2c-0.2,0.1-0.5,0.3-0.8,0.5c-0.3,0.2-0.6,0.5-0.9,0.9l-1.4,6.3H469l1.3-5.7
			c0-0.1,0.1-0.4,0.1-0.6c0.1-0.3,0.1-0.5,0.1-0.6c0-0.3-0.1-0.5-0.2-0.7c-0.1-0.1-0.3-0.2-0.7-0.2c-0.1,0-0.3,0-0.5,0.1
			c-0.2,0-0.4,0.1-0.5,0.1l0.1-0.6c0.5-0.2,0.9-0.4,1.2-0.5c0.4-0.1,0.7-0.1,0.9-0.1c0.5,0,0.8,0.1,1,0.4c0.2,0.3,0.3,0.6,0.3,1.1
			h0.1c0.7-0.6,1.2-1,1.6-1.3c0.4-0.2,0.7-0.4,1.1-0.4c0.2,0,0.4,0,0.5,0.1c0.2,0,0.3,0.1,0.4,0.2c0.1,0.1,0.2,0.3,0.3,0.4
			C476.3,335.9,476.4,336.1,476.4,336.4z"/>
		<path fill="#575756" d="M485.4,338.4c0,0.7-0.1,1.4-0.4,2.1c-0.2,0.7-0.6,1.3-1,1.8c-0.5,0.5-1,1-1.6,1.3
			c-0.6,0.3-1.4,0.5-2.2,0.5c-1,0-1.8-0.3-2.4-0.9c-0.6-0.6-0.9-1.5-0.9-2.5c0-0.8,0.1-1.5,0.4-2.2c0.3-0.7,0.6-1.3,1-1.8
			c0.4-0.5,1-0.9,1.6-1.2c0.6-0.3,1.3-0.5,2.1-0.5c1,0,1.9,0.3,2.4,1C485.1,336.6,485.4,337.4,485.4,338.4z M483.6,338.1
			c0-0.8-0.1-1.5-0.4-1.9c-0.3-0.4-0.7-0.6-1.3-0.6c-0.5,0-0.9,0.1-1.4,0.4c-0.4,0.3-0.8,0.8-1.1,1.5c-0.2,0.5-0.4,1.1-0.5,1.7
			c-0.1,0.6-0.2,1.2-0.2,1.7c0,0.8,0.1,1.5,0.4,1.9c0.3,0.4,0.7,0.6,1.3,0.6c0.5,0,1-0.2,1.4-0.5c0.4-0.3,0.7-0.7,1-1.2
			c0.3-0.5,0.4-1.1,0.6-1.7C483.5,339.4,483.6,338.8,483.6,338.1z"/>
		<path fill="#575756" d="M500.2,336.6c0,0.9-0.1,1.8-0.4,2.7c-0.3,0.9-0.6,1.7-1.1,2.4c-0.5,0.8-1.1,1.4-1.7,1.8
			c-0.6,0.4-1.3,0.6-2.1,0.6c-0.6,0-1.1-0.2-1.5-0.5c-0.5-0.3-0.8-0.7-0.9-1.3c-0.2,0.2-0.4,0.4-0.6,0.6c-0.2,0.2-0.4,0.4-0.7,0.5
			c-0.3,0.2-0.6,0.3-0.8,0.4c-0.2,0.1-0.5,0.2-0.9,0.2c-0.4,0-0.8-0.1-1.1-0.2c-0.3-0.1-0.5-0.3-0.7-0.5c-0.2-0.2-0.3-0.4-0.4-0.7
			c-0.1-0.3-0.1-0.5-0.1-0.8c0-0.1,0-0.3,0-0.4c0-0.2,0.1-0.3,0.1-0.4l0.7-2.8c0.1-0.3,0.1-0.5,0.2-0.7c0-0.2,0-0.4,0-0.5
			c0-0.3-0.1-0.5-0.2-0.7c-0.1-0.1-0.3-0.2-0.7-0.2c-0.1,0-0.3,0-0.5,0.1c-0.2,0.1-0.4,0.1-0.5,0.1l0.1-0.6c0.5-0.2,0.9-0.4,1.2-0.5
			c0.3-0.1,0.6-0.2,0.8-0.2c0.5,0,0.8,0.1,1,0.3c0.2,0.2,0.3,0.5,0.3,0.9c0,0.1,0,0.2,0,0.4c0,0.2-0.1,0.4-0.1,0.5l-0.8,3.2
			c-0.1,0.2-0.1,0.4-0.1,0.7c0,0.2-0.1,0.4-0.1,0.5c0,0.4,0.1,0.8,0.3,1c0.2,0.2,0.5,0.3,0.9,0.3c0.4,0,0.8-0.1,1.2-0.3
			c0.4-0.2,0.8-0.5,1.1-0.9l1.6-6.7l1.5-0.1l0.1,0.1l-1.2,5.4c0,0.2-0.1,0.4-0.1,0.6c0,0.3-0.1,0.4-0.1,0.5c0,0.3,0.1,0.6,0.2,0.8
			c0.1,0.2,0.2,0.3,0.4,0.4c0.2,0.1,0.3,0.1,0.5,0.2c0.2,0,0.3,0,0.5,0c0.4,0,0.8-0.1,1.2-0.4c0.4-0.2,0.8-0.6,1.1-1
			c0.3-0.4,0.6-0.9,0.8-1.5c0.2-0.5,0.3-1.1,0.3-1.8c0-0.4,0-0.6-0.1-0.8c-0.1-0.2-0.2-0.4-0.3-0.5c-0.1-0.1-0.2-0.3-0.3-0.5
			c-0.1-0.2-0.1-0.4-0.1-0.7c0-0.3,0.1-0.6,0.3-0.8c0.2-0.2,0.5-0.3,0.7-0.3c0.3,0,0.6,0.1,0.8,0.4
			C500.1,335.7,500.2,336.1,500.2,336.6z"/>
		<path fill="#575756" d="M503.4,344c-0.6,0-1-0.1-1.2-0.3c-0.3-0.2-0.4-0.5-0.4-1c0-0.1,0-0.3,0-0.4c0-0.1,0-0.3,0.1-0.4l1.4-5.9
			h-1.6l0.2-0.8h1.6l0.6-2.6h1.6l-0.6,2.6h2.4l-0.2,0.8h-2.4l-1.1,4.8c-0.1,0.2-0.1,0.4-0.1,0.6c0,0.2-0.1,0.4-0.1,0.5
			c0,0.3,0.1,0.6,0.2,0.7c0.2,0.1,0.5,0.2,0.9,0.2c0.2,0,0.4,0,0.6-0.1c0.3,0,0.5-0.1,0.6-0.1l-0.2,0.6c-0.4,0.2-0.8,0.3-1.2,0.4
			C504.3,344,503.9,344,503.4,344z"/>
		<path fill="#575756" d="M516.6,342.8l-0.1,0.6c-0.5,0.2-0.9,0.4-1.2,0.5c-0.3,0.1-0.6,0.1-0.9,0.1c-0.5,0-0.8-0.1-1.1-0.4
			c-0.2-0.2-0.4-0.5-0.4-0.9c0-0.1,0-0.3,0-0.4c0-0.2,0.1-0.3,0.1-0.5l0.9-3.3c0.1-0.2,0.1-0.5,0.2-0.7c0-0.2,0.1-0.4,0.1-0.5
			c0-0.4-0.1-0.7-0.3-0.9c-0.2-0.2-0.5-0.3-0.8-0.3c-0.4,0-0.8,0.1-1.2,0.4c-0.4,0.2-0.8,0.6-1.2,1l-1.5,6.5h-1.6l2.6-11.3
			c0-0.1,0.1-0.2,0.1-0.3c0-0.1,0-0.2,0-0.3c0-0.2,0-0.4-0.1-0.5c-0.1-0.1-0.2-0.2-0.3-0.3c-0.1-0.1-0.3-0.1-0.5-0.1
			c-0.2,0-0.4,0-0.6-0.1l0.1-0.5l3.3-0.2l0.1,0.1l-1.4,6.1h0c0.6-0.5,1.1-0.9,1.6-1.1c0.5-0.2,1-0.4,1.6-0.4c0.6,0,1,0.2,1.3,0.5
			c0.3,0.3,0.5,0.8,0.5,1.3c0,0.1,0,0.3,0,0.6c0,0.3-0.1,0.5-0.2,0.8l-0.7,2.8c0,0.2-0.1,0.4-0.2,0.6c-0.1,0.2-0.1,0.4-0.1,0.6
			c0,0.3,0.1,0.6,0.2,0.7c0.1,0.1,0.4,0.2,0.7,0.2c0.1,0,0.3,0,0.5-0.1C516.3,342.9,516.5,342.9,516.6,342.8z"/>
	</g>
	<g>
		<g>
			<path fill="#AA0A2F" d="M389.9,287.2c0,0-54.4-1.2-53.6,15.8c0.4,8.7,16.1,9.3,16.1,9.3s-7.7-1.2-8.8-7.8
				C340.9,288.6,389.9,287.2,389.9,287.2"/>
			<path fill-rule="evenodd" clip-rule="evenodd" fill="#004289" d="M354.5,319.7h9.6v-7.3h7.5c4.8,0,8.5-2,8.5-7.6
				c0-6-3.9-7.9-9.4-7.9h-16.3V319.7z M364.1,301.7h2.9c2.8,0,3.7,1,3.7,2.9c0,2.2-1.2,3-4.7,3h-2V301.7z"/>
			<path fill="#004289" d="M381.6,319.7h9.3v-5.6c0-2.9,1.2-4.8,5.3-4.8h1.7v-6.1c-3.8,0.2-6,0.8-7.3,4.7h-0.1l-0.2-4.1h-8.9
				c0.2,1.4,0.2,3.5,0.2,5.9V319.7z"/>
			<path fill-rule="evenodd" clip-rule="evenodd" fill="#004289" d="M423.5,313v-0.9c0-7-6.1-9-12.2-9c-7,0-12.2,2.5-12.2,8.6
				c0,6,5,8.5,12.5,8.5c8.2,0,11.5-2.5,11.7-5.2h-9.1c-0.2,1-1,1.8-2.8,1.8c-2.1,0-3.2-1.2-3.2-3.9H423.5z M408.1,310
				c0-2.1,1.1-3.4,3.1-3.4c2.1,0,3.1,1.4,3.1,3.4H408.1z"/>
			<polygon fill="#004289" points="441.6,319.7 449,303.8 441.8,303.8 437.1,315.1 432.7,303.8 423.2,303.8 430.6,319.7 			"/>
			<path fill-rule="evenodd" clip-rule="evenodd" fill="#004289" d="M458.1,308.4c0.2-1,0.8-1.8,3-1.8c2.1,0,2.7,1.2,2.7,2.5v0.9
				h-2.6c-6.6,0-12.5,0.9-12.5,5.7c0,2.1,1.4,3.5,3,4.1c1.3,0.5,3.3,0.6,5.3,0.6c3.3,0,5.7-0.7,7.5-2.9l0.2,2.3h8.3
				c-0.2-0.9-0.2-1.5-0.2-2.1V310c0-5.1-3.7-6.8-12.1-6.8c-2.4,0-5.1,0.3-7.3,1c-2.1,0.8-3.6,2.1-3.8,4.1H458.1z M463.8,313v0.5
				c0,1.9-1.5,3.4-3.8,3.4c-1.6,0-2.4-0.9-2.4-1.8c0-1.3,1.4-2.1,5-2.1H463.8z"/>
			<path fill="#004289" d="M498.1,308.4c0-4.2-4.5-5.2-11.6-5.2c-7.3,0-11.5,1.6-11.5,5.7c0,1.9,1.4,3.4,4.1,3.8l6.2,1
				c3.7,0.6,4.3,0.8,4.3,1.9c0,1-1.1,1.4-3.2,1.4c-1.1,0-1.9-0.1-2.5-0.4c-0.5-0.3-0.8-0.8-0.9-1.5h-8.5c0.2,3.4,2.5,5.2,12.6,5.2
				c8.2,0,11.7-1.7,11.7-5.2c0-3.2-2.5-4.2-7.4-4.9l-3.2-0.5c-4.1-0.6-4.4-0.9-4.4-1.8c0-0.9,1.1-1.4,2.7-1.4c0.8,0,1.5,0.1,2.1,0.4
				c0.5,0.3,0.9,0.7,1,1.5H498.1z"/>
		</g>
	</g>
</g>
<g>
</g>
<g>
</g>
<g>
</g>
<g>
</g>
<g>
</g>
<g>
</g>
</svg>
