<?xml version="1.0" encoding="utf-8"?>
<!-- Generator: Adobe Illustrator 17.1.0, SVG Export Plug-In . SVG Version: 6.00 Build 0)  -->
<!DOCTYPE svg PUBLIC "-//W3C//DTD SVG 1.1//EN" "http://www.w3.org/Graphics/SVG/1.1/DTD/svg11.dtd">
<svg version="1.1" id="Lager_1" xmlns="http://www.w3.org/2000/svg" xmlns:xlink="http://www.w3.org/1999/xlink" x="0px" y="0px"
	 viewBox="0 0 1190.6 841.9" enable-background="new 0 0 1190.6 841.9" xml:space="preserve">
<g>
	<path d="M760.9,549.2l16.1-96.6h45.6l-2.8,16.6h-29l-3.4,20.4h21.4l-2.7,16.3h-21.4l-4.5,26.8h30.2l-2.8,16.6H760.9z"/>
	<path d="M847.2,549.2l7.8-46.9c1.5-9,0.9-11.9-4.6-11.9c-3.5,0-8,3.2-10.3,6.1l-8.8,52.7h-15.6l12.1-72.4h15.6l-0.8,5
		c4.1-3.9,9-6.5,14.1-6.5c14.8,0,17,9.5,14.1,26.5l-7.9,47.5H847.2z"/>
	<path d="M914.5,505.7h-19.8c2.6-10.6,6.6-15.9,12.5-15.9C914,489.9,915.2,496.9,914.5,505.7z M928.9,513
		c3.3-19.9-1.6-37.8-19.1-37.8c-15.1,0-28,13.5-32,37.8c-3.7,22.4,3.1,37.7,20.4,37.7c9.2,0,17.8-4.3,24.5-13.1l-9.7-8.7
		c-3.8,4.3-6.4,6.3-11.9,6.3c-6.1,0-9.7-5-8.4-16.1h35.1C928.1,517.2,928.6,515,928.9,513z"/>
	<path d="M974.9,494.8c-2.3-2.2-4.8-3.6-8.6-3.6c-4.1,0-7.8,2.2-11.1,6.2l-8.6,51.8H931l12.1-72.4h15.6l-0.8,5
		c3.2-3.2,8.6-6.5,13.8-6.5c4.7,0,7.5,1.2,10.4,3.7L974.9,494.8z"/>
	<path d="M1006.6,529.5c-2.3,2.9-6.8,6.1-10.7,6.1c-6.5,0-6.9-7.2-4.2-23c2.8-16.8,5.9-22.1,11.5-22.1c4.4,0,7.3,3,8.9,6.2
		L1006.6,529.5z M1020.2,541.8l10.9-65h-15.6l-0.7,4c-2.5-3.3-6.5-5.5-11.1-5.5c-15.2,0-24.2,15.7-27.9,37.8
		c-4.3,25.5,1,37.7,14,37.7c5,0,10.4-2.6,14.5-6.5c-2.2,13.1-5.1,16.3-21.9,19.5l2.2,12.1C1008.8,572.5,1016.6,563.4,1020.2,541.8z"
		/>
	<path d="M1031.6,549.2l12.1-72.4h15.6l-12.1,72.4H1031.6z"/>
</g>
<g>
	<path d="M324.9,550.7c-21.6,0-27.1-21.9-22.5-49.7c4.7-27.9,17.8-50,39.4-50c14.1,0,23,7.7,24.2,24.4l-16.4,5.2
		c-0.9-9.1-4.6-12.4-10.9-12.4c-9.9,0-15.8,11.9-19.2,32.4c-3.4,20.6-1.3,32.7,8.6,32.7c10.1,0,14-5.2,16.4-19.6h-13.3l2.7-16.1
		h29.3l-2.8,16.6C356.6,537.5,344.3,550.7,324.9,550.7z"/>
	<path d="M405.6,513.2c-2,12.1-6.6,22.1-14,22.1c-7.6,0-9.1-8.8-6.9-22.4c2.3-13.5,6.5-22.2,14-22.2
		C406.1,490.7,407.8,499.8,405.6,513.2z M421.5,512.9c4.1-24.4-4.4-37.7-20-37.7c-15.7,0-28.8,13.5-32.9,38
		c-4.1,24.4,4.5,37.5,20.1,37.5C404.3,550.7,417.4,537.3,421.5,512.9z"/>
	<path d="M457.4,547.5c-3.8,1.9-7.8,3.2-12.5,3.2c-11.3,0-15.8-6.4-13.1-22.2l6.1-36.3h-8.6l2.6-15.5h8.6l3.3-20l17-8.1l-4.7,28.1
		h14.1l-2.6,15.5h-14.1l-6,35.9c-0.9,5.4,0.8,7.2,4.5,7.2c3.1,0,6.4-1.1,9.9-3.4L457.4,547.5z"/>
	<path d="M506.7,505.7h-19.8c2.6-10.6,6.6-15.9,12.5-15.9C506.1,489.9,507.3,496.9,506.7,505.7z M521.1,513
		c3.3-19.9-1.6-37.8-19.1-37.8c-15.1,0-28,13.5-32,37.8c-3.7,22.4,3.1,37.7,20.4,37.7c9.1,0,17.8-4.3,24.5-13.1l-9.7-8.7
		c-3.8,4.3-6.4,6.3-11.9,6.3c-6.1,0-9.6-5-8.4-16.1h35.1C520.3,517.2,520.8,515,521.1,513z"/>
	<path d="M563.6,513.5c-2.8,16.8-5.9,22.1-11.5,22.1c-4.4,0-7.3-3-8.9-6.2l5.5-32.8c2.3-2.9,6.8-6.1,10.7-6.1
		C565.9,490.4,566.3,497.6,563.6,513.5z M579.6,512.9c4.3-25.5-1-37.7-14-37.7c-5,0-10.4,2.6-14.5,6.5l5.5-33.1l-17,8.1l-15.4,92.5
		h15.6l0.7-4c2.5,3.3,6.5,5.5,11.1,5.5C566.9,550.7,575.9,535,579.6,512.9z"/>
	<path d="M623.7,513.2c-2,12.1-6.6,22.1-14,22.1c-7.6,0-9.1-8.8-6.9-22.4c2.3-13.5,6.5-22.2,14-22.2
		C624.3,490.7,625.9,499.8,623.7,513.2z M639.6,512.9c4.1-24.4-4.4-37.7-20-37.7c-15.6,0-28.8,13.5-32.9,38
		c-4.1,24.4,4.5,37.5,20.1,37.5C622.5,550.7,635.6,537.3,639.6,512.9z"/>
	<path d="M686.8,494.8c-2.3-2.2-4.8-3.6-8.6-3.6c-4.1,0-7.8,2.2-11.1,6.2l-8.6,51.8h-15.7l12.1-72.4h15.6l-0.8,5
		c3.2-3.2,8.6-6.5,13.8-6.5c4.6,0,7.5,1.2,10.4,3.7L686.8,494.8z"/>
	<path d="M718.5,529.5c-2.3,2.9-6.8,6.1-10.7,6.1c-6.5,0-6.9-7.2-4.2-23c2.8-16.8,5.9-22.1,11.5-22.1c4.4,0,7.3,3,8.9,6.2
		L718.5,529.5z M732.1,541.8l10.9-65h-15.7l-0.7,4c-2.5-3.3-6.5-5.5-11.1-5.5c-15.3,0-24.2,15.7-27.9,37.8c-4.3,25.5,1,37.7,14,37.7
		c5,0,10.4-2.6,14.5-6.5c-2.2,13.1-5.1,16.3-21.9,19.5l2.2,12.1C720.7,572.5,728.5,563.4,732.1,541.8z"/>
</g>
<g>
	<path fill="#004687" d="M212.1,452.6h48.4c-10.1-12.4-25.9-20.1-44.8-20.1c-37.7,0-73.7,30.6-80.5,68.4
		c-3.4,18.8,1.2,35.9,11.3,48.2l8.8-48.2C160.1,474.2,185.5,452.6,212.1,452.6z"/>
	<g>
		<path fill="#004687" d="M248.8,510.9h-56.3l-3.5,19.3h47.5c-10.9,11.5-26.1,19-41.7,19h-48.4c10.1,12.4,25.9,20.1,44.8,20.1
			c27.2,0,53.6-16,68.7-39.1c3.9-6,7-12.5,9.3-19.3H248.8z"/>
	</g>
	<polygon fill="#008A54" points="284.4,481.5 260.5,452.6 257,471.8 199.7,471.8 196.1,491.5 253.4,491.5 249.8,510.9 	"/>
	<path fill="#FFFFFF" d="M257,471.8l3.5-19.2h-48.3c-26.6,0-52,21.6-56.8,48.3l-8.8,48.2h48.4c15.6,0,30.8-7.4,41.7-19H189l3.5-19.3
		h57.3l3.6-19.4h-57.3l3.6-19.6H257z"/>
</g>
<path d="M1045.1,469l2.5-15.3h15.6l-2.5,15.3H1045.1z"/>
<path d="M406.9,469l2.5-15.3h15.6l-2.5,15.3H406.9z"/>
<path d="M382,469l2.5-15.3h15.6l-2.5,15.3H382z"/>
</svg>
