<?xml version="1.0" encoding="utf-8"?>
<!-- Generator: Adobe Illustrator 17.1.0, SVG Export Plug-In . SVG Version: 6.00 Build 0)  -->
<!DOCTYPE svg PUBLIC "-//W3C//DTD SVG 1.1//EN" "http://www.w3.org/Graphics/SVG/1.1/DTD/svg11.dtd">
<svg version="1.1" id="Lager_1" xmlns="http://www.w3.org/2000/svg" xmlns:xlink="http://www.w3.org/1999/xlink" x="0px" y="0px"
	 viewBox="0 0 595 842" enable-background="new 0 0 595 842" xml:space="preserve">
<g>
	<path d="M399.4,286.2c0,0.3,0,0.5,0,0.7c0,0.2,0,0.3,0.1,0.5c0,0.1,0.1,0.3,0.1,0.4c0.4,1.3,1.2,2.5,2.3,3.5c2,1.5,5,1.7,7.1,0.4
		c1.7-0.8,2.6-2.5,3.2-4.1c0.5-1.9,0.2-3.9-0.7-5.4c-1.6-2.5-4.6-3.5-7.4-2.7c-2.4,0.8-4.2,3.1-4.6,5.6l-5.8-1.4v-10h5.9l0,4.2l0,0
		c1.5-2.6,4.4-4.4,7.3-4.6c4.2-0.1,8.2,1.6,10.2,5.5c2.2,3.7,2.7,9.4,0.6,13.3c-1.5,3.1-4.6,5.6-8,6c-3.6,0.3-7.5-1.1-9.9-3.9l0,0
		v14.7h-6v-20.7v-0.6v-0.8v-1.6L399.4,286.2z"/>
	<path d="M399.5,286.9c0-0.2,0-0.5,0-0.7c0-0.2,0-0.4,0-0.6c0-0.2,0-0.3,0.1-0.5c0.3-2.5,2.1-4.8,4.6-5.6c2.8-0.8,5.8,0.2,7.4,2.7
		c0.9,1.5,1.1,3.6,0.7,5.4c-0.6,1.6-1.5,3.2-3.2,4.1c-2.1,1.3-5.1,1.1-7.1-0.4c-1.1-1-1.9-2.1-2.3-3.5l-6,0.3v20.7h6v-14.7l0,0
		c2.4,2.8,6.3,4.2,9.9,3.9c3.4-0.3,6.5-2.9,8-6c2.1-3.9,1.6-9.6-0.6-13.3c-2-3.9-5.9-5.6-10.2-5.5c-2.9,0.2-5.8,2-7.3,4.6l0,0l0-4.2
		h-5.9v10v0.6v0.8v1.6L399.5,286.9z"/>
</g>
<g>
	<path d="M360.2,280.1c-0.4,0.2-0.8,0.5-1.2,0.7c-0.2,0.2-0.4,0.4-0.6,0.6c-0.2,0.2-0.3,0.3-0.4,0.5c-0.9,1.1-1.5,2.6-1.5,4.2
		c0,3.7,3,6.6,6.6,6.6c3.7,0,6.6-3,6.6-6.6c0-3.7-3-6.6-6.6-6.6c-0.4,0-0.8,0-1.2,0.1l-1-6c0.7-0.1,1.5-0.2,2.2-0.2
		c7,0,12.7,5.7,12.7,12.7s-5.7,12.7-12.7,12.7s-12.7-5.7-12.7-12.7c0-4.6,2.4-8.6,6.1-10.8c0.3-0.2,0.5-0.3,0.8-0.4
		c0.2-0.1,0.4-0.2,0.7-0.3c0.5-0.2,0.9-0.4,1.4-0.5L360.2,280.1z"/>
	<path d="M359,280.9c0.4-0.3,0.8-0.5,1.2-0.7c0.3-0.1,0.6-0.3,0.9-0.4c0.3-0.1,0.6-0.2,0.8-0.2c0.4-0.1,0.8-0.1,1.2-0.1
		c3.7,0,6.6,3,6.6,6.6c0,3.7-3,6.6-6.6,6.6c-3.7,0-6.6-3-6.6-6.6c0-1.6,0.6-3,1.5-4.2l-1.4-6.7c-3.7,2.2-6.1,6.2-6.1,10.8
		c0,7,5.7,12.7,12.7,12.7s12.7-5.7,12.7-12.7s-5.7-12.7-12.7-12.7c-0.8,0-1.5,0.1-2.2,0.2c-0.3,0-0.5,0.1-0.8,0.2
		c-0.2,0.1-0.5,0.1-0.7,0.2c-0.5,0.1-0.9,0.3-1.4,0.5L359,280.9z"/>
</g>
<g>
	<path d="M291.5,284.1h-1.9h-0.8h-0.8h-2.6c0.1-2,1.1-3.7,2.9-4.7c1.8-0.8,4.3-0.7,5.9,0.5c1.2,1,1.8,2.7,1.7,4.2h-2.9l0.3,4.3h9.3
		c0.2-3.2-0.3-6.5-1.8-9.2c-2.7-5.5-10.2-6.4-15.4-4.2c-5.1,3.1-7.2,9-6,14.9c0.7,3.9,3.8,7.5,7.7,8.5c4.1,1.1,9,0.7,12.2-2
		c1-0.8,2.1-2.1,2.4-3.3c-1.5-1-2.6-1.9-4.2-2.5c-1.4,1.8-3.3,3.3-5.6,3.4c-2.4,0.4-4.5-0.8-5.8-2.8c-0.3-0.8-1-1.8-0.6-2.8h2.3h0.7
		h0.8h2.2L291.5,284.1z"/>
	<path d="M289.7,284.1h1.9h0.8h0.8h2.9c0.1-1.6-0.5-3.2-1.7-4.2c-1.6-1.2-4.1-1.3-5.9-0.5c-1.8,1-2.8,2.7-2.9,4.7h2.6l-0.1,4.3h-2.3
		c-0.4,1,0.3,1.9,0.6,2.8c1.4,1.9,3.4,3.2,5.8,2.8c2.3-0.1,4.2-1.6,5.6-3.4c1.6,0.7,2.7,1.6,4.2,2.5c-0.3,1.2-1.4,2.5-2.4,3.3
		c-3.2,2.8-8.1,3.2-12.2,2c-3.9-1-6.9-4.6-7.7-8.5c-1.2-5.9,0.8-11.8,6-14.9c5.3-2.3,12.8-1.4,15.4,4.2c1.4,2.7,1.9,6,1.8,9.2h-9.3
		h-0.9h-0.8h-2.2L289.7,284.1z"/>
</g>
<g>
	<path d="M265.2,272.1v1.8v0.9v0.9v2.8c3.2-0.2,7.2,0.1,8.6-3.4c0.7-1.5,0.7-3.4,0-5c-1.5-3.3-5.4-2.7-8.6-2.8v3.2l-7.1-0.9v-7.8
		l15.5,0c3.1,0.3,5.1,2.7,6.6,5.3c1.8,4.3,1.4,9.7-1.5,13.3c-3.3,3.8-8.5,3.4-13.5,3.4l0,14h-7.1v-23.5v-0.8v-0.9v-1.3L265.2,272.1z
		"/>
	<path d="M265.2,275.7v2.8c3.2-0.2,7.2,0.1,8.6-3.4c0.7-1.5,0.7-3.4,0-5c-1.5-3.3-5.4-2.7-8.6-2.8v3.2v0.7v0.9v1.8l-7.1-1.2v-1.3
		v-0.9v-0.9v-7.8l15.5,0c3.1,0.3,5.1,2.7,6.6,5.3c1.8,4.3,1.4,9.7-1.5,13.3c-3.3,3.8-8.5,3.4-13.5,3.4l0,14h-7.1v-23.5L265.2,275.7z
		"/>
</g>
<g>
	<path d="M231.1,280.5h-0.6H230h-0.7h-2.7l0,7.3h-1.8v-7.3l-7.2,0l0-1.8l7.2,0c0.1-2.6-0.1-4.3,0-7.2h1.8l0,7.2c2.1,0,4.9,0,7.1,0
		l0,1.8h-1.5l-0.2,1.1c1,0.5,1.7,1.6,1.7,2.8l2.6,0.7c1.8-4,1.1-9.3-1.6-12.6l-1.1,2.2c0,1.8-1.4,3.2-3.2,3.2
		c-1.8,0-3.2-1.4-3.2-3.2c0-1.8,1.4-3.2,3.2-3.2c0.4,0,0.7,0.1,1,0.2c0.2,0.1,0.5,0.2,0.7,0.3c0.2,0.1,0.4,0.3,0.6,0.5
		c0.2,0.2,0.3,0.4,0.5,0.6l0.8-1.6c-0.1-0.2-0.3-0.3-0.4-0.5c-0.2-0.2-0.3-0.3-0.5-0.5c-0.1-0.1-0.3-0.2-0.4-0.4
		c-2.2-1.7-5-2.5-8-2.4c-2.2,0.2-4.3,1-6.1,2.4l0.9,1.6c0.4-0.2,0.9-0.3,1.4-0.3c1.8,0,3.2,1.4,3.2,3.2c0,1.8-1.4,3.2-3.2,3.2
		s-3.2-1.4-3.2-3.2c0-0.3,0-0.5,0.1-0.8c0.1-0.3,0.2-0.5,0.3-0.8c0.1-0.2,0.3-0.5,0.5-0.7l-0.9-1.4c-0.2,0.2-0.4,0.3-0.5,0.5
		c-0.2,0.2-0.3,0.3-0.5,0.5c-0.1,0.2-0.3,0.3-0.4,0.5c-0.5,0.6-0.8,1.3-1.2,2c-2,3.4-1.6,8.4,0.4,11.7c0.1,0.2,0.3,0.5,0.4,0.7
		c0.1,0.1,0.2,0.2,0.2,0.3c0.1,0.2,0.2,0.3,0.3,0.5l1.7-1.3c-0.1-0.2-0.2-0.4-0.3-0.6c-0.1-0.2-0.1-0.3-0.2-0.5
		c-0.1-0.2-0.1-0.5-0.1-0.7c0-1.8,1.4-3.2,3.2-3.2s3.2,1.4,3.2,3.2c0,1.8-1.4,3.2-3.2,3.2c-0.6,0-1.2-0.2-1.7-0.5l-1.7,1.5
		c2.1,2.1,4.9,3.2,7.8,3.3c3.7,0.2,7.2-1.5,9.5-4.3c0.1-0.2,0.3-0.3,0.4-0.5c0.1-0.2,0.2-0.3,0.3-0.5c0.1-0.2,0.3-0.4,0.4-0.6
		l-2.4-0.3c-0.1,0.2-0.2,0.3-0.3,0.5c-0.1,0.1-0.2,0.3-0.3,0.4c-0.1,0.1-0.3,0.2-0.4,0.4c-0.5,0.4-1.2,0.6-1.8,0.6
		c-1.8,0-3.2-1.4-3.2-3.2c0-1.4,0.9-2.5,2.1-3c0.2-0.1,0.3-0.1,0.5-0.2c0.2,0,0.4-0.1,0.6-0.1c0.1,0,0.3,0,0.4,0L231.1,280.5z"/>
	<path d="M230.6,280.5h0.6h0.6h0.5h1.5l0-1.8c-2.2,0-5,0-7.1,0l0-7.2h-1.8c-0.1,2.9,0.1,4.6,0,7.2l-7.2,0l0,1.8l7.2,0v7.3h1.8l0-7.3
		h2.7l0.2,1c-1.2,0.5-2.1,1.6-2.1,3c0,1.8,1.4,3.2,3.2,3.2c0.7,0,1.3-0.2,1.8-0.6l2.3,0.6c-2.3,2.8-5.8,4.5-9.5,4.3
		c-2.9,0-5.7-1.2-7.8-3.3c-0.2-0.2-0.4-0.4-0.6-0.6c-0.1-0.2-0.3-0.3-0.4-0.5c-0.1-0.1-0.2-0.3-0.3-0.5l1.7-1.5
		c0.1,0.2,0.2,0.4,0.3,0.6c0.1,0.2,0.3,0.3,0.4,0.5c0.2,0.2,0.4,0.3,0.5,0.4c0.5,0.3,1.1,0.5,1.7,0.5c1.8,0,3.2-1.4,3.2-3.2
		c0-1.8-1.4-3.2-3.2-3.2s-3.2,1.4-3.2,3.2l-2.2,1.7c-2-3.3-2.4-8.3-0.4-11.7c0.3-0.7,0.7-1.3,1.2-2l1.4,2.1c0,1.8,1.4,3.2,3.2,3.2
		s3.2-1.4,3.2-3.2c0-1.8-1.4-3.2-3.2-3.2c-0.5,0-0.9,0.1-1.4,0.3c-0.2,0.1-0.3,0.2-0.5,0.3c-0.2,0.1-0.3,0.3-0.5,0.4
		c-0.2,0.2-0.4,0.4-0.5,0.7l-1-1.6c0.2-0.2,0.3-0.3,0.5-0.5c0.1-0.1,0.3-0.3,0.5-0.4c0.2-0.1,0.3-0.3,0.5-0.4
		c1.8-1.3,3.9-2.2,6.1-2.4c3-0.1,5.9,0.6,8,2.4l-1.2,1.5c-0.3-0.1-0.7-0.2-1-0.2c-1.8,0-3.2,1.4-3.2,3.2c0,1.8,1.4,3.2,3.2,3.2
		c1.8,0,3.2-1.4,3.2-3.2c0-0.3,0-0.6-0.1-0.9c-0.1-0.2-0.2-0.5-0.3-0.7c-0.1-0.2-0.3-0.5-0.5-0.6l0.8-1.4c0.1,0.1,0.3,0.3,0.4,0.5
		c0.1,0.2,0.3,0.3,0.4,0.5c0.1,0.2,0.2,0.3,0.3,0.5c2.7,3.3,3.4,8.7,1.6,12.6c-0.1,0.2-0.2,0.4-0.3,0.6c-0.1,0.1-0.1,0.3-0.2,0.4
		c-0.1,0.2-0.2,0.4-0.4,0.6l-2.3-0.4c0.1-0.2,0.2-0.3,0.3-0.5c0.1-0.2,0.2-0.5,0.2-0.7c0-0.2,0.1-0.4,0.1-0.6c0-1.2-0.7-2.3-1.7-2.8
		c-0.1-0.1-0.3-0.1-0.5-0.2c-0.2-0.1-0.4-0.1-0.6-0.1c-0.1,0-0.3,0-0.4,0L230.6,280.5z"/>
	<path d="M220.9,274.7"/>
	<path d="M230.6,274.7"/>
	<path d="M220.9,284.6"/>
	<path d="M230.7,284.5"/>
	<path d="M220.9,274.7"/>
	<path d="M230.6,274.7"/>
	<path d="M220.9,284.6"/>
	<path d="M230.7,284.5"/>
</g>
<path d="M334.5,275.1c0.8,1,1.6,2.1,1.9,3.4l-5,1.5c-0.1-0.8-0.9-1.7-1.7-2c-0.8-0.3-1.8-0.1-2.5,0.3c-0.6,0.7-1.2,1.5-1,2.5
	c1,2.9,4.3,2.7,6.6,4.1c2.7,1.3,3.8,4,3.6,7c-0.4,2.3-1.6,4.7-3.9,5.8c-3.1,1.2-7.3,1.4-10.2-0.3c-1.6-1-2.7-2.7-3.3-4.3l5.1-2
	c0.5,1.1,1.3,2.2,2.5,2.8c1.2,0.3,2.6,0.1,3.5-0.8c0.7-0.6,0.8-1.7,0.5-2.5c-2.3-2.8-6.5-2-8.7-5.1c-1.8-2.1-1.7-5.1-0.9-7.5
	c1.1-2.8,3.7-4.4,6.5-4.6C330.1,273.2,332.7,273.5,334.5,275.1z"/>
<path d="M318.6,280c-2.5-0.5-5.6,0.2-6.9,2.3l-0.6,1.6v13.9h-6.7v-23.7h6.7c0.1,1.1,0,2.4,0,3.3c1.4-1.7,3.2-3.2,5.5-3.6
	c0.7,0,1.3-0.2,1.9-0.1L318.6,280z"/>
<path d="M249.1,308.1h-35.4v-14.7c4.7,4.3,12.4,5.6,18.5,3.2c6.4-2.5,11.1-9,11.5-15.9c0.6-7.4-3.6-14-9.9-17.6
	c-6-3.2-14.4-2.3-19.5,2.3c-0.3,0.2-0.2,0.6-0.6,0.6v-4.4h-5.9l-0.1,46.5h-6.6v-52.8l47.8,0V308.1z"/>
<polygon points="346.5,274.2 350.7,274.3 350.7,279.7 346.6,279.7 346.6,297.8 339.7,297.8 339.7,279.7 337.3,279.7 337.3,274.2 
	339.7,274.2 339.7,266.4 346.5,266.4 "/>
<path d="M391.5,279.9c-2.3-0.5-4.7,0.2-6.4,1.9l-1,1.8l0,14.3h-6.6v-23.7l6.7,0c0.1,1.1-0.1,2.1,0,3.3c1.5-1.5,2.8-3.2,4.9-3.5
	c0.7-0.1,1.4-0.2,2.4-0.1V279.9z"/>
<path fill="#646363" d="M204.8,336.6l-3.7-14.6h2l1.7,7.4c0.4,1.8,0.8,3.6,1.1,5.1h0c0.2-1.5,0.7-3.2,1.2-5.1l2-7.4h2l1.8,7.4
	c0.4,1.8,0.8,3.5,1,5h0c0.3-1.6,0.7-3.2,1.2-5.1l1.9-7.4h1.9l-4.1,14.6h-2L211,329c-0.5-1.9-0.8-3.3-1-4.8h0
	c-0.2,1.5-0.6,2.9-1.1,4.8l-2.1,7.6H204.8z"/>
<path fill="#646363" d="M224.3,322v14.6h-1.9V322H224.3z"/>
<path fill="#646363" d="M229.4,336.6V322h2.1l4.7,7.4c1.1,1.7,1.9,3.3,2.6,4.7l0.1,0c-0.2-2-0.2-3.7-0.2-6V322h1.8v14.6h-1.9
	l-4.6-7.4c-1-1.6-2-3.3-2.7-4.9l-0.1,0c0.1,1.8,0.1,3.6,0.1,6v6.2H229.4z"/>
<path fill="#646363" d="M245.4,336.6V322h2.1l4.7,7.4c1.1,1.7,1.9,3.3,2.6,4.7l0.1,0c-0.2-2-0.2-3.7-0.2-6V322h1.8v14.6h-1.9
	l-4.6-7.4c-1-1.6-2-3.3-2.7-4.9l-0.1,0c0.1,1.8,0.1,3.6,0.1,6v6.2H245.4z"/>
<path fill="#646363" d="M263.3,322v14.6h-1.9V322H263.3z"/>
<path fill="#646363" d="M268.3,336.6V322h2.1l4.7,7.4c1.1,1.7,1.9,3.3,2.6,4.7l0.1,0c-0.2-2-0.2-3.7-0.2-6V322h1.8v14.6h-1.9
	l-4.6-7.4c-1-1.6-2-3.3-2.7-4.9l-0.1,0c0.1,1.8,0.1,3.6,0.1,6v6.2H268.3z"/>
<path fill="#646363" d="M295.4,335.9c-0.8,0.3-2.5,0.8-4.5,0.8c-2.2,0-4-0.6-5.5-1.9c-1.3-1.2-2-3.2-2-5.4c0-4.4,3-7.5,7.9-7.5
	c1.7,0,3,0.4,3.7,0.7l-0.5,1.5c-0.8-0.4-1.8-0.6-3.2-0.6c-3.6,0-5.9,2.2-5.9,5.9c0,3.7,2.2,5.9,5.6,5.9c1.2,0,2.1-0.2,2.5-0.4v-4.4
	h-2.9v-1.5h4.8V335.9z"/>
<path fill="#646363" d="M307.3,322h7.9v1.6h-6v4.9h5.5v1.6h-5.5v6.6h-1.9V322z"/>
<path fill="#646363" d="M325.3,336.8c-3.9,0-6.6-3-6.6-7.4c0-4.6,2.9-7.7,6.8-7.7c4,0,6.6,3.1,6.6,7.4
	C332.1,334.1,329.1,336.8,325.3,336.8L325.3,336.8z M325.4,335.3c3,0,4.7-2.8,4.7-6.1c0-2.9-1.5-5.9-4.7-5.9c-3.1,0-4.7,2.9-4.7,6.1
	C320.8,332.5,322.5,335.3,325.4,335.3L325.4,335.3z"/>
<path fill="#646363" d="M335.3,322.2c1-0.2,2.3-0.3,3.6-0.3c2,0,3.3,0.4,4.3,1.2c0.7,0.6,1.1,1.6,1.1,2.8c0,1.9-1.2,3.2-2.8,3.7v0.1
	c1.1,0.4,1.8,1.4,2.1,2.9c0.5,2,0.8,3.4,1.1,4h-2c-0.2-0.4-0.6-1.7-1-3.5c-0.4-2-1.2-2.8-2.9-2.8h-1.8v6.3h-1.9V322.2z M337.2,328.8
	h1.9c2,0,3.3-1.1,3.3-2.8c0-1.9-1.4-2.7-3.4-2.7c-0.9,0-1.5,0.1-1.9,0.2V328.8z"/>
<path fill="#646363" d="M361,330.2c-0.1-2-0.2-4.5-0.2-6.3h0c-0.5,1.7-1.1,3.6-1.8,5.5l-2.6,7.1h-1.4l-2.4-7
	c-0.7-2.1-1.3-3.9-1.7-5.7h0c0,1.8-0.2,4.3-0.3,6.5l-0.4,6.3h-1.8l1-14.6h2.4l2.5,7.1c0.6,1.8,1.1,3.4,1.5,4.9h0
	c0.4-1.5,0.9-3.1,1.6-4.9l2.6-7.1h2.4l0.9,14.6h-1.9L361,330.2z"/>
<path fill="#646363" d="M369.8,322v8.7c0,3.3,1.5,4.6,3.4,4.6c2.1,0,3.6-1.4,3.6-4.6V322h1.9v8.5c0,4.5-2.4,6.3-5.5,6.3
	c-3,0-5.2-1.7-5.2-6.2V322H369.8z"/>
<path fill="#646363" d="M383.6,322h1.9v13h6.2v1.6h-8.2V322z"/>
<path fill="#646363" d="M398,332l-1.5,4.6h-1.9l5-14.6h2.3l5,14.6h-2l-1.6-4.6H398z M402.7,330.5l-1.5-4.2c-0.3-1-0.5-1.8-0.7-2.7
	h-0.1c-0.2,0.8-0.4,1.8-0.7,2.6l-1.4,4.2H402.7z"/>
<path fill="#646363" d="M410.4,334.3c0.8,0.5,2.1,0.9,3.4,0.9c1.9,0,3.1-1,3.1-2.5c0-1.4-0.8-2.2-2.8-2.9c-2.4-0.8-3.9-2.1-3.9-4.1
	c0-2.3,1.9-4,4.7-4c1.5,0,2.6,0.3,3.2,0.7l-0.5,1.6c-0.5-0.3-1.4-0.7-2.8-0.7c-2,0-2.8,1.2-2.8,2.2c0,1.3,0.9,2,2.9,2.8
	c2.5,1,3.7,2.1,3.7,4.3c0,2.2-1.6,4.2-5.1,4.2c-1.4,0-2.9-0.4-3.7-1L410.4,334.3z"/>
</svg>
