<?xml version="1.0" encoding="utf-8"?>
<!-- Generator: Adobe Illustrator 17.1.0, SVG Export Plug-In . SVG Version: 6.00 Build 0)  -->
<!DOCTYPE svg PUBLIC "-//W3C//DTD SVG 1.1//EN" "http://www.w3.org/Graphics/SVG/1.1/DTD/svg11.dtd">
<svg version="1.1" id="Layer_1" xmlns="http://www.w3.org/2000/svg" xmlns:xlink="http://www.w3.org/1999/xlink" x="0px" y="0px"
	 viewBox="0 0 175.3 195.4" enable-background="new 0 0 175.3 195.4" xml:space="preserve">
<g>
	<path fill="#F39200" d="M58.4,35.5l0-0.3l5,0.2l0,0.3C63,45.5,67,58,71.8,66.3c1.2,2.1,2.6,4,4.1,5.9c-1.2-2.7-2.2-5.3-2.9-8
		c-5-18.7-0.1-34.3-0.1-34.5l0.1-0.3l4.8,1.5l-0.1,0.3c-2.9,9.3-2.3,22.5,0.1,31.7c0.6,2.3,1.4,4.5,2.4,6.6
		c-0.5-2.8-0.7-5.6-0.7-8.3c0-19.4,8.8-33.2,8.9-33.3l0.2-0.3l4.3,2.7l-0.2,0.3c-5.2,8.2-8.1,21.1-8.1,30.6c0,2.4,0.2,4.8,0.6,7.2
		c0.3-2.9,0.8-5.7,1.5-8.4c5-18.7,17.1-29.8,17.2-29.9l0.2-0.2l3.4,3.7l-0.2,0.2c-7.2,6.6-13.3,18.3-15.7,27.5
		c-0.6,2.3-1,4.7-1.3,7.1c1-2.7,2.2-5.3,3.6-7.7c9.7-16.8,24.2-24.4,24.4-24.4l0.3-0.2l2.3,4.5l-0.3,0.2
		c-8.6,4.5-17.6,14.2-22.3,22.5c-1.2,2.1-2.2,4.3-3.1,6.5c1.7-2.4,3.5-4.6,5.5-6.5c13.7-13.7,29.7-17.3,29.9-17.3l0.3-0.1l1.1,4.9
		l-0.3,0.1c-9.5,2.1-20.6,9.2-27.4,15.9c-1.7,1.7-3.2,3.6-4.6,5.5c2.2-1.8,4.6-3.5,7-4.9c16.8-9.7,33.1-9,33.3-9l0.3,0l-0.2,5
		l-0.3,0c-9.7-0.4-22.3,3.6-30.6,8.3c-2.1,1.2-4,2.6-5.9,4.1c2.7-1.2,5.3-2.2,8-2.9c18.7-5,34.3-0.1,34.5-0.1l0.3,0.1l-1.5,4.8
		l-0.3-0.1c-9.3-2.9-22.5-2.3-31.7,0.1c-2.3,0.6-4.6,1.5-6.8,2.4c2.9-0.5,5.7-0.8,8.5-0.8c19.4,0,33.2,8.8,33.3,8.9l0.3,0.2
		l-2.7,4.2l-0.3-0.2c-8.2-5.2-21.1-8.1-30.6-8.1c-2.4,0-4.8,0.2-7.2,0.6c2.9,0.3,5.7,0.8,8.4,1.5c18.7,5,29.8,17.1,29.9,17.2
		l0.2,0.2l-3.7,3.4l-0.2-0.2c-6.6-7.2-18.3-13.3-27.5-15.7c-2.3-0.6-4.7-1-7.1-1.3c2.7,1,5.3,2.2,7.7,3.6
		c16.8,9.7,24.4,24.2,24.4,24.4l0.2,0.3l-4.5,2.3l-0.2-0.3c-4.5-8.6-14.2-17.6-22.5-22.3c-2.1-1.2-4.3-2.2-6.5-3.1
		c2.4,1.7,4.6,3.5,6.5,5.5c13.7,13.7,17.3,29.7,17.3,29.9l0.1,0.3l-4.9,1.1l-0.1-0.3c-2.1-9.5-9.2-20.6-15.9-27.4
		c-1.7-1.7-3.6-3.2-5.5-4.6c1.8,2.3,3.5,4.6,4.9,7c9.7,16.8,9,33.1,9,33.3l0,0.3l-5-0.2l0-0.3c0.4-9.7-3.5-22.3-8.3-30.6
		c-1.2-2.1-2.6-4-4.1-5.9c1.2,2.7,2.2,5.3,2.9,8c5,18.7,0.1,34.3,0.1,34.5l-0.1,0.3l-4.8-1.5l0.1-0.3c2.9-9.3,2.3-22.5-0.1-31.7
		c-0.6-2.4-1.5-4.7-2.5-6.9c0.5,2.9,0.8,5.8,0.8,8.6c0,19.4-8.8,33.2-8.9,33.3l-0.2,0.3l-4.3-2.7l0.2-0.3c5.2-8.2,8.1-21.1,8.1-30.6
		c0-2.4-0.2-4.8-0.6-7.2c-0.3,2.9-0.8,5.7-1.5,8.4c-5,18.7-17.1,29.8-17.2,29.9l-0.2,0.2l-3.4-3.7l0.2-0.2
		c7.2-6.6,13.3-18.3,15.7-27.5c0.6-2.3,1-4.7,1.3-7.1c-1,2.7-2.2,5.3-3.6,7.7c-9.7,16.8-24.2,24.4-24.4,24.4l-0.3,0.2l-2.3-4.5
		l0.3-0.2c8.6-4.5,17.6-14.2,22.3-22.5c1.2-2.1,2.2-4.3,3.1-6.5c-1.7,2.4-3.5,4.6-5.5,6.5c-13.7,13.7-29.7,17.3-29.9,17.3l-0.3,0.1
		l-1.1-4.9l0.3-0.1c9.5-2.1,20.6-9.2,27.4-15.9c1.7-1.7,3.2-3.5,4.6-5.5c-2.2,1.8-4.6,3.5-7,4.9c-16.8,9.7-33.1,9-33.3,9l-0.3,0
		l0.2-5l0.3,0c9.7,0.4,22.3-3.6,30.6-8.3c2.1-1.2,4-2.6,5.9-4.1c-2.7,1.2-5.3,2.2-8,2.9c-18.7,5-34.3,0.1-34.5,0.1l-0.3-0.1l1.5-4.8
		l0.3,0.1c9.3,2.9,22.5,2.3,31.7-0.1c2.3-0.6,4.6-1.5,6.8-2.4c-2.9,0.5-5.7,0.8-8.5,0.8c-19.4,0-33.2-8.8-33.3-8.9l-0.3-0.2l2.7-4.3
		l0.3,0.2c8.2,5.2,21.1,8.1,30.6,8.1c2.4,0,4.8-0.2,7.2-0.6c-2.9-0.3-5.7-0.8-8.4-1.5c-18.7-5-29.8-17.1-29.9-17.2l-0.2-0.2l3.7-3.4
		l0.2,0.2c6.6,7.2,18.3,13.3,27.5,15.7c2.3,0.6,4.7,1,7.1,1.3c-2.7-1-5.3-2.2-7.7-3.6c-16.8-9.7-24.4-24.2-24.4-24.4l-0.2-0.3
		l4.5-2.3l0.2,0.3c4.5,8.6,14.2,17.6,22.5,22.3c2.1,1.2,4.3,2.2,6.5,3.1c-2.4-1.7-4.6-3.5-6.5-5.5C49.5,61,46,45,45.9,44.9l-0.1-0.3
		l4.9-1.1l0.1,0.3c2.1,9.5,9.2,20.6,15.9,27.4c1.7,1.7,3.5,3.2,5.5,4.6c-1.8-2.2-3.5-4.6-4.9-7C57.7,52,58.4,35.7,58.4,35.5
		L58.4,35.5z"/>
	<path fill="#F39200" d="M55.5,43.7l4.9-0.4l0,0.5c0.7,8.7,5.6,19.5,10.8,26.4c1,1.4,2.2,2.7,3.4,3.9c-1.1-1.9-2-3.8-2.8-5.7
		c-6.6-16.3-3.9-30.8-3.9-31l0.1-0.5l4.8,0.9l-0.1,0.5c-1.6,8.6,0.4,20.3,3.6,28.3c0.6,1.6,1.4,3.1,2.2,4.5c-0.5-2.1-1-4.1-1.2-6.1
		c-2.1-17.4,4.2-30.8,4.3-30.9l0.2-0.4l4.4,2.1L85.9,36C82.2,44,81,55.8,82.1,64.3c0.2,1.7,0.5,3.4,1,5.1c0-2.2,0.1-4.3,0.4-6.4
		c2.4-17.4,12-28.6,12.2-28.8l0.3-0.4l3.7,3.2l-0.3,0.4c-5.7,6.7-9.8,17.8-11,26.3c-0.2,1.7-0.4,3.4-0.4,5.1
		c0.6-2.1,1.2-4.1,2.1-6.1c6.9-16.2,19-24.5,19.2-24.6l0.4-0.3l2.8,4l-0.4,0.3c-7.2,5-14.1,14.6-17.5,22.5c-0.7,1.6-1.2,3.2-1.7,4.9
		c1.1-1.9,2.3-3.7,3.5-5.3c10.8-13.8,24.7-18.8,24.9-18.8l0.4-0.2l1.6,4.6l-0.4,0.2c-8.2,2.9-17.4,10.5-22.7,17.2
		c-1.1,1.4-2,2.8-2.9,4.3c1.5-1.5,3.1-3,4.8-4.2c14-10.6,28.8-11.7,28.9-11.7l0.5,0l0.4,4.9l-0.5,0c-8.7,0.7-19.5,5.6-26.4,10.8
		c-1.4,1-2.7,2.2-3.9,3.4c1.9-1.1,3.8-2.1,5.7-2.8c16.3-6.6,30.8-3.9,31-3.9l0.5,0.1l-0.9,4.8l-0.5-0.1c-8.6-1.6-20.3,0.4-28.3,3.6
		c-1.6,0.6-3.1,1.4-4.6,2.2c2.1-0.6,4.2-1,6.3-1.3c17.4-2.1,30.8,4.2,30.9,4.3l0.4,0.2l-2.1,4.4l-0.4-0.2
		c-7.9-3.8-19.7-4.9-28.2-3.9c-1.7,0.2-3.4,0.5-5.1,1c2.2,0,4.3,0.1,6.4,0.4c17.4,2.4,28.6,12,28.8,12.2l0.4,0.3l-3.2,3.7l-0.4-0.3
		c-6.7-5.7-17.8-9.8-26.3-11c-1.7-0.2-3.4-0.4-5.1-0.4c2.1,0.6,4.1,1.2,6.1,2c16.2,6.9,24.5,19,24.6,19.2l0.3,0.4l-4,2.8l-0.3-0.4
		c-5-7.2-14.6-14.1-22.5-17.5c-1.6-0.7-3.2-1.2-4.9-1.7c1.9,1.1,3.7,2.3,5.3,3.5c13.8,10.8,18.8,24.7,18.8,24.9l0.2,0.4l-4.6,1.6
		l-0.2-0.4c-2.9-8.2-10.5-17.4-17.2-22.7c-1.4-1.1-2.8-2-4.3-2.9c1.5,1.5,3,3.1,4.2,4.8c10.6,14,11.7,28.8,11.7,28.9l0,0.5l-4.9,0.4
		l0-0.5c-0.7-8.7-5.6-19.5-10.8-26.4c-1-1.4-2.2-2.7-3.4-3.9c1.1,1.9,2.1,3.8,2.8,5.7c6.6,16.3,3.9,30.8,3.9,31l-0.1,0.5l-4.8-0.9
		l0.1-0.5c1.6-8.6-0.4-20.3-3.6-28.3c-0.7-1.7-1.5-3.2-2.3-4.8c0.6,2.2,1,4.3,1.3,6.4c2.1,17.4-4.2,30.8-4.3,30.9l-0.2,0.4l-4.4-2.1
		l0.2-0.4c3.8-7.9,4.9-19.7,3.9-28.2c-0.2-1.7-0.5-3.4-1-5.1c0,2.2-0.1,4.3-0.4,6.4c-2.4,17.4-12,28.6-12.2,28.8l-0.3,0.4l-3.7-3.2
		l0.3-0.4c5.7-6.7,9.8-17.8,11-26.3c0.2-1.7,0.4-3.4,0.4-5.1c-0.6,2.1-1.2,4.1-2,6c-6.9,16.2-19,24.5-19.2,24.6l-0.4,0.3l-2.8-4
		l0.4-0.3c7.2-5,14.1-14.6,17.5-22.5c0.7-1.6,1.2-3.2,1.7-4.9c-1.1,1.9-2.3,3.7-3.5,5.3c-10.8,13.8-24.7,18.8-24.9,18.8l-0.4,0.2
		l-1.6-4.6l0.4-0.2c8.2-2.9,17.4-10.5,22.7-17.2c1.1-1.4,2-2.8,2.9-4.3c-1.5,1.5-3.1,3-4.8,4.2c-14,10.6-28.8,11.7-28.9,11.7l-0.5,0
		l-0.4-4.9l0.5,0c8.7-0.7,19.5-5.6,26.4-10.8c1.4-1,2.7-2.2,3.9-3.4c-1.9,1.1-3.8,2-5.7,2.8c-16.3,6.6-30.8,3.9-31,3.9l-0.5-0.1
		l0.9-4.8l0.5,0.1c8.6,1.6,20.3-0.4,28.3-3.6c1.6-0.6,3.1-1.4,4.6-2.2c-2.1,0.6-4.2,1-6.3,1.3c-17.4,2.1-30.8-4.2-30.9-4.3l-0.4-0.2
		l2.1-4.4l0.4,0.2c7.9,3.8,19.7,4.9,28.2,3.9c1.7-0.2,3.4-0.5,5.1-1c-2.2,0-4.3-0.1-6.4-0.4c-17.4-2.4-28.6-12-28.8-12.2l-0.4-0.3
		l3.2-3.7l0.4,0.3c6.7,5.7,17.8,9.8,26.3,11c1.7,0.2,3.4,0.4,5.1,0.4c-2.1-0.6-4.1-1.2-6-2c-16.2-6.9-24.5-19-24.6-19.2l-0.3-0.4
		l4-2.8l0.3,0.4c5,7.2,14.6,14.1,22.5,17.5c1.6,0.7,3.2,1.2,4.9,1.7c-1.9-1.1-3.7-2.3-5.3-3.5C50.4,68.1,45.5,54.1,45.4,54l-0.2-0.4
		l4.6-1.6l0.2,0.4C53,60.6,60.5,69.7,67.3,75c1.4,1.1,2.8,2,4.3,2.9c-1.5-1.5-3-3.1-4.2-4.8c-10.6-14-11.7-28.8-11.7-28.9L55.5,43.7
		L55.5,43.7z"/>
	<path fill="#C10B25" d="M69.7,62.3c0.7,1.4,1.4,2.7,2.1,4c1.2,2.1,2.6,4,4.1,5.9c-1.2-2.7-2.2-5.3-2.9-8
		c-2.9-10.7-2.5-20.4-1.6-26.7l1.5,0.3l-0.1,0.5c-1.6,8.6,0.4,20.3,3.6,28.3c0.6,1.6,1.4,3.1,2.2,4.5c-0.5-2.1-1-4.1-1.2-6.1
		c-0.3-2.3-0.4-4.5-0.4-6.6c0.3,1.6,0.6,3.2,1,4.6c0.6,2.3,1.4,4.5,2.4,6.6c-0.5-2.8-0.7-5.6-0.7-8.3c0-11.1,2.9-20.3,5.3-26.2
		l1.4,0.7L85.9,36C82.2,44,81,55.8,82.1,64.3c0.2,1.7,0.5,3.4,1,5.1c0-2.2,0.1-4.3,0.4-6.4c0.3-2.2,0.7-4.2,1.2-6.2
		c-0.1,1.5-0.2,3-0.2,4.5c0,2.4,0.2,4.8,0.6,7.2c0.3-2.9,0.8-5.7,1.5-8.4c2.9-10.7,8-18.9,11.9-24l1.2,1l-0.3,0.4
		c-5.7,6.7-9.8,17.8-11,26.3c-0.2,1.7-0.4,3.4-0.4,5.1c0.6-2.1,1.2-4.1,2.1-6.1c0.9-2,1.8-3.9,2.8-5.7c-0.5,1.5-1,2.9-1.3,4.2
		c-0.6,2.3-1,4.7-1.3,7.1c1-2.7,2.2-5.3,3.6-7.7c5.5-9.6,12.6-16.2,17.7-20.1l0.9,1.2l-0.4,0.3c-7.2,5-14.1,14.6-17.5,22.5
		c-0.7,1.6-1.2,3.2-1.7,4.9c1.1-1.9,2.3-3.7,3.5-5.3c1.3-1.7,2.7-3.3,4.2-4.8c-0.9,1.3-1.7,2.5-2.4,3.8c-1.2,2.1-2.2,4.3-3.1,6.5
		c1.7-2.4,3.5-4.6,5.5-6.5c7.8-7.8,16.4-12.3,22.3-14.8l0.5,1.4l-0.4,0.2c-8.2,2.9-17.4,10.5-22.7,17.2c-1.1,1.4-2,2.8-2.9,4.3
		c1.5-1.5,3.1-3,4.8-4.2c1.7-1.3,3.5-2.5,5.2-3.5c-1.2,1-2.3,2-3.3,3c-1.7,1.7-3.2,3.6-4.6,5.5c2.2-1.8,4.6-3.5,7-4.9
		c9.6-5.5,19-7.7,25.4-8.5l0.1,1.5l-0.5,0c-8.7,0.7-19.5,5.6-26.4,10.8c-1.4,1-2.7,2.2-3.9,3.4c1.9-1.1,3.8-2.1,5.7-2.8
		c2-0.8,4-1.5,6-2c-1.4,0.7-2.7,1.4-4,2.1c-2.1,1.2-4,2.6-5.9,4.1c2.7-1.2,5.3-2.2,8-2.9c10.7-2.9,20.4-2.5,26.7-1.6l-0.3,1.5
		l-0.5-0.1c-8.6-1.6-20.3,0.4-28.3,3.6c-1.6,0.6-3.1,1.4-4.6,2.2c2.1-0.6,4.2-1,6.3-1.3c2.2-0.3,4.3-0.4,6.3-0.4
		c-1.5,0.3-3,0.6-4.3,1c-2.3,0.6-4.6,1.5-6.8,2.4c2.9-0.5,5.7-0.8,8.5-0.8c11.1,0,20.3,2.9,26.2,5.3l-0.7,1.4l-0.4-0.2
		c-7.9-3.8-19.7-4.9-28.2-3.9c-1.7,0.2-3.4,0.5-5.1,1c2.2,0,4.3,0.1,6.4,0.4c2.2,0.3,4.2,0.7,6.2,1.2c-1.5-0.1-3-0.2-4.4-0.2
		c-2.4,0-4.8,0.2-7.2,0.6c2.9,0.3,5.7,0.8,8.4,1.5c10.7,2.9,18.9,8,24,11.9l-1,1.2l-0.4-0.3c-6.7-5.7-17.8-9.8-26.3-11
		c-1.7-0.2-3.4-0.4-5.1-0.4c2.1,0.6,4.1,1.2,6.1,2c2,0.9,3.9,1.8,5.7,2.8c-1.5-0.5-2.9-1-4.2-1.3c-2.3-0.6-4.7-1-7.1-1.3
		c2.7,1,5.3,2.2,7.7,3.6c9.6,5.5,16.2,12.6,20.1,17.7l-1.2,0.9l-0.3-0.4c-5-7.2-14.6-14.1-22.5-17.5c-1.6-0.7-3.2-1.2-4.9-1.7
		c1.9,1.1,3.7,2.3,5.3,3.5c1.7,1.3,3.3,2.7,4.8,4.1c-1.3-0.9-2.5-1.7-3.8-2.4c-2.1-1.2-4.3-2.2-6.5-3.1c2.4,1.7,4.6,3.5,6.5,5.5
		c7.8,7.8,12.3,16.4,14.8,22.3l-1.4,0.5l-0.2-0.4c-2.9-8.2-10.5-17.4-17.2-22.7c-1.4-1.1-2.8-2-4.3-2.9c1.5,1.5,3,3.1,4.2,4.8
		c1.3,1.7,2.5,3.5,3.5,5.2c-1-1.2-2-2.3-3-3.3c-1.7-1.7-3.6-3.2-5.5-4.6c1.8,2.3,3.5,4.6,4.9,7c5.5,9.6,7.7,19,8.5,25.4l-1.5,0.1
		l0-0.5c-0.7-8.7-5.6-19.5-10.8-26.4c-1-1.4-2.2-2.7-3.4-3.9c1.1,1.9,2.1,3.8,2.8,5.7c0.8,2,1.5,4,2,6c-0.7-1.4-1.4-2.7-2.1-3.9
		c-1.2-2.1-2.6-4-4.1-5.9c1.2,2.7,2.2,5.3,2.9,8c2.9,10.7,2.5,20.4,1.6,26.7l-1.5-0.3l0.1-0.5c1.6-8.6-0.4-20.3-3.6-28.3
		c-0.7-1.7-1.5-3.2-2.3-4.8c0.6,2.2,1,4.3,1.3,6.4c0.3,2.1,0.4,4.1,0.4,6.1c-0.3-1.4-0.6-2.8-0.9-4.1c-0.6-2.4-1.5-4.7-2.5-6.9
		c0.5,2.9,0.8,5.8,0.8,8.6c0,11.1-2.9,20.3-5.3,26.2l-1.4-0.6l0.2-0.4c3.8-7.9,4.9-19.7,3.9-28.2c-0.2-1.7-0.5-3.4-1-5.1
		c0,2.2-0.1,4.3-0.4,6.4c-0.3,2.2-0.7,4.3-1.2,6.2c0.1-1.5,0.2-3,0.2-4.5c0-2.4-0.2-4.8-0.6-7.2c-0.3,2.9-0.8,5.7-1.5,8.4
		c-2.9,10.7-8,18.9-11.9,24l-1.1-1l0.3-0.4c5.7-6.7,9.8-17.8,11-26.3c0.2-1.7,0.4-3.4,0.4-5.1c-0.6,2.1-1.2,4.1-2,6
		c-0.9,2-1.8,3.9-2.8,5.7c0.5-1.5,1-2.9,1.3-4.3c0.6-2.3,1-4.7,1.3-7.1c-1,2.7-2.2,5.3-3.6,7.7c-5.5,9.6-12.6,16.2-17.7,20.1
		l-0.9-1.2l0.4-0.3c7.2-5,14.1-14.6,17.5-22.5c0.7-1.6,1.2-3.2,1.7-4.9c-1.1,1.9-2.3,3.7-3.5,5.3c-1.4,1.7-2.8,3.3-4.2,4.8
		c0.9-1.3,1.7-2.5,2.4-3.8c1.2-2.1,2.2-4.3,3.1-6.5c-1.7,2.4-3.5,4.6-5.5,6.5c-7.8,7.8-16.4,12.3-22.3,14.8l-0.5-1.4l0.4-0.2
		c8.2-2.9,17.4-10.5,22.7-17.2c1.1-1.4,2-2.8,2.9-4.3c-1.5,1.5-3.1,3-4.8,4.2c-1.8,1.3-3.5,2.5-5.3,3.5c1.2-1,2.3-2,3.3-3
		c1.7-1.7,3.2-3.5,4.6-5.5c-2.2,1.8-4.6,3.5-7,4.9c-9.6,5.5-19,7.7-25.4,8.5l-0.1-1.5l0.5,0c8.7-0.7,19.5-5.6,26.4-10.8
		c1.4-1,2.7-2.2,3.9-3.4c-1.9,1.1-3.8,2-5.7,2.8c-2,0.8-4,1.5-6,2.1c1.4-0.7,2.7-1.4,4-2.1c2.1-1.2,4-2.6,5.9-4.1
		c-2.7,1.2-5.3,2.2-8,2.9c-10.7,2.9-20.4,2.5-26.7,1.6l0.3-1.5l0.5,0.1c8.6,1.6,20.3-0.4,28.3-3.6c1.6-0.6,3.1-1.4,4.6-2.2
		c-2.1,0.6-4.2,1-6.3,1.3c-2.2,0.3-4.3,0.4-6.3,0.4c1.5-0.3,3-0.6,4.4-1c2.3-0.6,4.6-1.5,6.8-2.4c-2.9,0.5-5.7,0.8-8.5,0.8
		c-11.1,0-20.3-2.9-26.2-5.3l0.6-1.4l0.4,0.2c7.9,3.8,19.7,4.9,28.2,3.9c1.7-0.2,3.4-0.5,5.1-1c-2.2,0-4.3-0.1-6.4-0.4
		c-2.2-0.3-4.3-0.7-6.2-1.2c1.5,0.1,3,0.2,4.5,0.2c2.4,0,4.8-0.2,7.2-0.6c-2.9-0.3-5.7-0.8-8.4-1.5c-10.7-2.9-18.9-8-24-11.9l1-1.1
		l0.4,0.3c6.7,5.7,17.8,9.8,26.3,11c1.7,0.2,3.4,0.4,5.1,0.4c-2.1-0.6-4.1-1.2-6-2c-2-0.9-3.9-1.8-5.7-2.8c1.5,0.5,2.9,1,4.3,1.3
		c2.3,0.6,4.7,1,7.1,1.3c-2.7-1-5.3-2.2-7.7-3.6c-9.6-5.5-16.2-12.6-20.1-17.7l1.2-0.9l0.3,0.4c5,7.2,14.6,14.1,22.5,17.5
		c1.6,0.7,3.2,1.2,4.9,1.7c-1.9-1.1-3.7-2.3-5.3-3.5c-1.7-1.4-3.3-2.8-4.8-4.2c1.3,0.9,2.5,1.7,3.8,2.4c2.1,1.2,4.3,2.2,6.5,3.1
		c-2.4-1.7-4.6-3.5-6.5-5.5c-7.8-7.8-12.3-16.4-14.8-22.3l1.4-0.5l0.2,0.4C53,60.6,60.5,69.7,67.3,75c1.4,1.1,2.8,2,4.3,2.9
		c-1.5-1.5-3-3.1-4.2-4.8c-1.3-1.8-2.5-3.5-3.5-5.3c1,1.2,2,2.3,3,3.3c1.7,1.7,3.5,3.2,5.5,4.6c-1.8-2.2-3.5-4.6-4.9-7
		c-5.5-9.6-7.7-19-8.5-25.4l1.5-0.1l0,0.5c0.7,8.7,5.6,19.5,10.8,26.4c1,1.4,2.2,2.7,3.4,3.9c-1.1-1.9-2-3.8-2.8-5.7
		C70.9,66.3,70.2,64.3,69.7,62.3L69.7,62.3z"/>
	<g>
		<path fill="#646363" d="M46.4,149.6h2.2v4.4H52l-0.9,2.2h-2.5l0,7.4c0,1.1,0.4,1.9,3.3,2l0.3,0v2.2l-0.3,0
			c-3.3-0.1-5.5-1.2-5.5-4.2V149.6L46.4,149.6z"/>
		<path fill="#646363" d="M74.9,156.1c-3.3,0-3.8,0.9-3.8,2l0,9.6l-2.2,0l0-9.6c0-3.1,2.4-4.2,5.9-4.2h1.4l-0.9,2.2H74.9L74.9,156.1
			z"/>
		<path fill-rule="evenodd" clip-rule="evenodd" fill="#646363" d="M59.9,153.8c3.9,0,7,3.2,7,7c0,3.9-3.2,7-7,7c-3.9,0-7-3.2-7-7
			C52.8,157,56,153.8,59.9,153.8L59.9,153.8z M59.9,155.9c-2.7,0-4.9,2.2-4.9,4.9c0,2.7,2.2,4.9,4.9,4.9c2.7,0,4.9-2.2,4.9-4.9
			C64.8,158.1,62.6,155.9,59.9,155.9L59.9,155.9z"/>
		<path fill-rule="evenodd" clip-rule="evenodd" fill="#646363" d="M82.7,167.7c-3.8,0-6.9-3.1-6.9-6.9c0-3.8,3.1-6.9,6.9-6.9l5.4,0
			v13.8H82.7L82.7,167.7z M82.7,156.1c-2.6,0-4.7,2.1-4.7,4.7c0,2.6,2.1,4.7,4.7,4.7h3.2v-9.5H82.7L82.7,156.1z"/>
		<path fill="#646363" d="M106.2,167.8H104v-13.8h5.2c3.5,0,5.9,1.1,5.9,4.2v9.6l-2.2,0l0-9.6c0-1.1-0.5-2-3.8-2h-3.1V167.8
			L106.2,167.8z"/>
		<path fill="#646363" d="M123.9,159.5c2.1,0.5,4.2,1.4,4.2,4.2c0,2.7-2.3,4.1-4.9,4.1h-5.5v-2.2l5.5,0c2,0,2.7-0.9,2.7-1.9
			c0-1.1-0.9-1.6-1.9-2c-1-0.3-2.2-0.4-3-0.6c-1.9-0.5-3.6-1.4-3.6-3.6c0-2.8,2.8-3.5,4-3.5l5.8,0l-0.9,2.2h-4.9
			c-1,0-1.8,0.5-1.8,1.4c0,0.7,0.6,1.1,1.4,1.4C121.8,159.1,122.8,159.3,123.9,159.5L123.9,159.5z"/>
		<path fill="#646363" d="M40.4,159.5c2.1,0.5,4.2,1.4,4.2,4.2c0,2.7-2.3,4.1-4.9,4.1h-5.5v-2.2l5.5,0c2,0,2.7-0.9,2.7-1.9
			c0-1.1-0.9-1.6-1.9-2c-1-0.3-2.2-0.4-3-0.6c-1.9-0.5-3.6-1.4-3.6-3.6c0-2.8,2.7-3.5,4-3.5l5.8,0l-0.9,2.2h-4.9
			c-1,0-1.8,0.5-1.8,1.4c0,0.7,0.6,1.1,1.4,1.4C38.3,159.1,39.4,159.3,40.4,159.5L40.4,159.5z"/>
		<path fill-rule="evenodd" clip-rule="evenodd" fill="#646363" d="M136.4,153.8c3.9,0,7,3.2,7,7c0,3.9-3.2,7-7,7c-3.9,0-7-3.2-7-7
			C129.3,157,132.5,153.8,136.4,153.8L136.4,153.8z M136.4,155.9c-2.7,0-4.9,2.2-4.9,4.9c0,2.7,2.2,4.9,4.9,4.9
			c2.7,0,4.9-2.2,4.9-4.9C141.3,158.1,139.1,155.9,136.4,155.9L136.4,155.9z"/>
		<path fill="#646363" d="M96.7,165.6l4.8,0v2.2h-4.8c-3.5,0-6-1.1-6-4.2v-5.4c0-3.1,2.4-4.2,6-4.2h4l-0.9,2.2h-3.2
			c-3.3,0-3.8,0.9-3.8,2v1.5h5.6l-0.9,2.2h-4.7v1.8C92.9,164.7,93.4,165.6,96.7,165.6L96.7,165.6z"/>
	</g>
	<g>
		<path fill="#FFFFFF" d="M72.7,89.1c0,0.2,0,0.4,0.4,0.4l0.2,0V90h-2.6v-0.5l0.2,0c0.3,0,0.4-0.2,0.4-0.4v-3.4c0-0.2,0-0.4-0.4-0.4
			l-0.2,0v-0.5l1.9-0.2v1.1h0c0.3-0.7,1-1.1,1.7-1.1c0.1,0,0.2,0,0.3,0.1V86c-0.1,0-0.3-0.1-0.5-0.1c-1,0-1.4,0.8-1.4,1.7V89.1z"/>
		<path fill="#FFFFFF" d="M76,87.6c0,1.1,0.5,1.6,1.2,1.6c0.7,0,1.1-0.4,1.2-0.9h1.3c-0.4,1.2-1.3,1.8-2.4,1.8
			c-1.6,0-2.7-1.1-2.7-2.8c0-1.6,1.1-2.8,2.7-2.8c1.7,0,2.6,1.4,2.5,3H76z M78.3,86.9c0-0.9-0.4-1.4-1.1-1.4c-0.9,0-1.2,0.8-1.2,1.4
			H78.3z"/>
		<path fill="#FFFFFF" d="M81.9,84.8H83v0.8h-1.1v3c0,0.5,0.1,0.6,0.6,0.6c0.2,0,0.3,0,0.4,0V90c-0.2,0-0.6,0.1-0.8,0.1
			c-0.9,0-1.6-0.2-1.6-1.2v-3.3h-0.9v-0.8h0.9v-1.6h1.4V84.8z"/>
		<path fill="#FFFFFF" d="M85.3,85.5L85.3,85.5c0.3-0.5,1-0.9,1.6-0.9c1.5,0,1.9,0.9,1.9,2.2v2.3c0,0.2,0,0.4,0.4,0.4l0.2,0V90h-2.6
			v-0.5l0.2,0c0.3,0,0.4-0.2,0.4-0.4v-2.1c0-0.9-0.3-1.3-0.9-1.3c-0.8,0-1.1,0.4-1.1,1.5v1.9c0,0.2,0,0.4,0.4,0.4l0.2,0V90h-2.6
			v-0.5l0.2,0c0.3,0,0.4-0.2,0.4-0.4v-5.4c0-0.2,0-0.4-0.4-0.4l-0.2,0v-0.5l2-0.2V85.5z"/>
		<path fill="#FFFFFF" d="M90,85.7c0-0.2,0-0.4-0.4-0.4l-0.2,0v-0.5l2-0.2v4.4c0,0.2,0,0.4,0.4,0.4l0.2,0V90h-2.6v-0.5l0.2,0
			c0.3,0,0.4-0.2,0.4-0.4V85.7z M91.4,84H90v-1.2h1.4V84z"/>
		<path fill="#FFFFFF" d="M94.1,85.5L94.1,85.5c0.4-0.6,1-0.9,1.6-0.9c1.5,0,1.9,0.9,1.9,2.2v2.3c0,0.2,0,0.4,0.4,0.4l0.2,0V90h-2.6
			v-0.5l0.2,0c0.3,0,0.4-0.2,0.4-0.4v-2.1c0-0.9-0.3-1.3-0.9-1.3c-0.8,0-1.1,0.4-1.1,1.5v1.9c0,0.2,0,0.4,0.4,0.4l0.2,0V90h-2.6
			v-0.5l0.2,0c0.3,0,0.4-0.2,0.4-0.4v-3.4c0-0.2,0-0.4-0.4-0.4l-0.2,0v-0.5l1.9-0.2V85.5z"/>
		<path fill="#FFFFFF" d="M100.8,87.7l-0.4,0.4v1c0,0.2,0,0.4,0.4,0.4l0.2,0V90h-2.6v-0.5l0.2,0c0.3,0,0.4-0.2,0.4-0.4v-5.4
			c0-0.2,0-0.4-0.4-0.4l-0.2,0v-0.5l2-0.2v4.1l0.9-1c0.2-0.2,0.2-0.5-0.1-0.5l-0.2,0v-0.5h2.9v0.5l-0.2,0c-0.3,0-0.7,0.2-0.9,0.5
			l-1,1l1.6,2.4c0.2,0.2,0.3,0.4,0.6,0.4l0.2,0V90h-2L100.8,87.7z"/>
		<rect x="104.9" y="88.4" fill="#FFFFFF" width="1.6" height="1.6"/>
	</g>
</g>
</svg>
