<?xml version="1.0" encoding="utf-8"?>
<!-- Generator: Adobe Illustrator 17.1.0, SVG Export Plug-In . SVG Version: 6.00 Build 0)  -->
<!DOCTYPE svg PUBLIC "-//W3C//DTD SVG 1.1//EN" "http://www.w3.org/Graphics/SVG/1.1/DTD/svg11.dtd">
<svg version="1.1" id="Lager_1" xmlns="http://www.w3.org/2000/svg" xmlns:xlink="http://www.w3.org/1999/xlink" x="0px" y="0px"
	 viewBox="0 0 595 842" enable-background="new 0 0 595 842" xml:space="preserve">
<g>
	<g>
		<rect x="387" y="113.3" fill="#BCE4FA" width="11.9" height="11.9"/>
		<rect x="387" y="125.2" fill="#FFF7B2" width="11.9" height="11.9"/>
		<rect x="387" y="137.1" fill="#F9C5AF" width="11.9" height="11.9"/>
		<rect x="398.9" y="113.3" fill="#69ACDF" width="11.9" height="11.9"/>
		<rect x="398.9" y="125.2" fill="#FFE163" width="11.9" height="11.9"/>
		<rect x="398.9" y="137.1" fill="#F08050" width="11.9" height="11.9"/>
		<rect x="410.8" y="113.3" fill="#00508C" width="11.9" height="11.9"/>
		<rect x="410.8" y="125.2" fill="#F7A600" width="11.9" height="11.9"/>
		<rect x="410.8" y="137.1" fill="#E63323" width="11.9" height="11.9"/>
	</g>
	<g>
		<path fill="#0063AF" d="M191.1,137.4h11.1c0.1,3.9,1.6,4.2,4.8,4.2h13.6c2.4,0,4.8-0.2,4.8-3.1c0-3.2-1.3-3.4-15.6-3.4
			c-16.7,0-18.6-2-18.6-10.9c0-6.6,0.6-11.6,14.6-11.6h15.5c12.8,0,14,4.4,14,10.7v1.2h-11.1c0-2.7-0.3-3.8-5.4-3.8h-12.3
			c-2.5,0-4.2,0.9-4.2,2.8c0,3.2,1.3,3.3,13.3,3.2c17.3-0.1,21.3,1,21.3,11.6c0,9.8-3.3,11.4-18.1,11.4h-13.5
			c-10.1,0-14.2-1.9-14.2-9.8V137.4z"/>
		<path fill="#0063AF" d="M238.6,113h39.6v8.4h-28.5v5.8h27v7.5h-27v5.8h29.2v8.7h-40.3V113z"/>
		<path fill="#0063AF" d="M280.7,125.7c0-10.6,6-13.1,16-13.1h13.1c15.8,0,17.9,3.4,17.8,13.7h-11.1v-1c0-2.6-1.9-3.4-5.2-3.4h-12.1
			c-5.9,0-7,2.8-7,7.3v3.9c0,5.3,1.1,7.3,6.4,7.3h11.9c5,0,6.5-0.5,6.5-5h11.1v3.4c0,6.1-2.2,10.9-13.4,10.9h-17.9
			c-10,0-16-2.5-16-13.1V125.7z"/>
		<path fill="#0063AF" d="M329.8,125.7c0-10.6,6-13.1,16-13.1h17.8c10,0,16,2.5,16,13.1v10.8c0,10.6-6,13.1-16,13.1h-17.8
			c-10,0-16-2.5-16-13.1V125.7z M341.2,133.1c0,5.3,1.1,7.3,6.4,7.3h14.2c5.3,0,6.4-2,6.4-7.3v-3.9c0-4.5-1.1-7.3-7-7.3h-13
			c-5.9,0-7,2.8-7,7.3V133.1z"/>
	</g>
</g>
</svg>
