<?xml version="1.0" encoding="utf-8"?>
<!-- Generator: Adobe Illustrator 17.1.0, SVG Export Plug-In . SVG Version: 6.00 Build 0)  -->
<!DOCTYPE svg PUBLIC "-//W3C//DTD SVG 1.1//EN" "http://www.w3.org/Graphics/SVG/1.1/DTD/svg11.dtd">
<svg version="1.1" id="Lager_1" xmlns="http://www.w3.org/2000/svg" xmlns:xlink="http://www.w3.org/1999/xlink" x="0px" y="0px"
	 viewBox="0 0 841.9 595.3" enable-background="new 0 0 841.9 595.3" xml:space="preserve">
<g>
	<g>
		<g>
			<path fill="#293E6B" d="M412.7,292.3c0,2.7-0.8,3.5-3.3,3.5c-1.3,0-2.8-0.1-3.7-0.2v-28.2h6.9l12,17.9c0,0-0.2-0.7-0.2-2.2v-15.7
				h7.1v28.2c-1.2,0.1-2.9,0.2-4.5,0.2c-2.8,0-3.5-0.8-4.8-2.6c-1.1-1.7-9.6-14.6-9.6-14.6s0.2,0.6,0.2,2.8V292.3z"/>
			<path fill="#293E6B" d="M331.5,267.4c-6.6,0.3-9,4.1-9,8.4c0,4.2,2.7,8.5,9.3,8.6c2.2,0,5,0,6,0c1.5,0.1,2.7,1.1,2.7,2.7
				c0,1.6-1.2,2.6-2.7,2.7c-1,0.1-10.6,0-10.6,0c-3.5,0-4.4,1-4.4,4.3v1.7c3.3,0.1,9,0.2,15.8,0.1c6.8-0.1,9.5-4.5,9.5-9
				c0-4.5-2.9-8.9-9.5-9c-2,0-5.3,0.1-6.3,0c-1.2-0.1-2.3-1-2.3-2.5c0-1.5,1.2-2.4,2.3-2.5c1-0.1,9.5,0,9.5,0c3.5,0,4.4-1,4.4-4.3
				v-1.3C344.2,267.4,336.5,267.2,331.5,267.4z"/>
			<path fill="#293E6B" d="M444.2,267.4c-6.6,0.3-9,4.1-9,8.4c0,4.2,2.7,8.5,9.3,8.6c2.2,0,5,0,6,0c1.5,0.1,2.7,1.1,2.7,2.7
				c0,1.6-1.2,2.6-2.7,2.7c-1,0.1-10.6,0-10.6,0c-3.5,0-4.4,1-4.4,4.3v1.7c3.3,0.1,9,0.2,15.8,0.1c6.8-0.1,9.5-4.5,9.5-9
				c0-4.5-2.9-8.9-9.5-9c-2,0-5.3,0.1-6.3,0c-1.2-0.1-2.3-1-2.3-2.5c0-1.5,1.2-2.4,2.3-2.5c1-0.1,9.5,0,9.5,0c3.5,0,4.4-1,4.4-4.3
				v-1.3C457,267.4,449.3,267.2,444.2,267.4z"/>
			<path fill="#293E6B" d="M404.8,295.6c-0.9,0.1-2.9,0.2-4.5,0.2c-2.4,0-4-0.3-4.7-2.5l-1-3.1h-10.5l-1,3.1
				c-0.7,2.2-2.2,2.4-4.6,2.5c-2.1,0.1-4,0.1-6.2,0c-2.3-0.1-3.4-0.5-4.5-1.7l-9.1-10.6c-0.2-0.3-0.3-0.4-0.3-0.6v9.4
				c0,2.7-0.8,3.5-3.3,3.5c-1.3,0-3.4-0.1-4.4-0.2v-28.2h7.7v12.8c0-0.4,0.1-0.5,0.3-0.8l9.3-12h9.1l-11.7,13.7
				c0,0,9.7,10.5,9.8,10.6c0.2,0.2,0.2,0.4,0.2,0.4s0-0.2,0.1-0.4c0.1-0.2,9.7-24.2,9.7-24.2h8.2L404.8,295.6z M392.9,284.6l-3.5-11
				l-3.5,11c0,0,0.1-0.1,0.3-0.1h6.3C392.9,284.5,392.9,284.6,392.9,284.6z"/>
			<path fill="#293E6B" d="M518,295.6c-0.9,0.1-2.9,0.2-4.5,0.2c-2.4,0-4-0.3-4.7-2.5l-1-3.1h-10.5l-1,3.1c-0.7,2.2-2.2,2.4-4.6,2.5
				c-2.1,0.1-4,0.1-6.2,0c-2.3-0.1-3.4-0.5-4.5-1.7l-9.1-10.6c-0.2-0.3-0.3-0.4-0.3-0.6l0,9.4c0,2.7-0.8,3.5-3.3,3.5
				c-1.3,0-3.4-0.1-4.4-0.2v-28.2h7.7v12.8c0-0.4,0.1-0.5,0.3-0.8l9.3-12h9.1l-11.7,13.7c0,0,9.7,10.5,9.8,10.6
				c0.2,0.2,0.2,0.4,0.2,0.4s0-0.2,0.1-0.4c0.1-0.2,9.7-24.2,9.7-24.2h8.2L518,295.6z M506.1,284.6l-3.5-11l-3.5,11
				c0,0,0.1-0.1,0.3-0.1h6.3C506,284.5,506.1,284.6,506.1,284.6z"/>
		</g>
	</g>
	<g>
		<rect x="296.9" y="239.1" fill="none" width="247.1" height="84.5"/>
	</g>
</g>
</svg>
