<?xml version="1.0" encoding="utf-8"?>
<!-- Generator: Adobe Illustrator 17.1.0, SVG Export Plug-In . SVG Version: 6.00 Build 0)  -->
<!DOCTYPE svg PUBLIC "-//W3C//DTD SVG 1.1//EN" "http://www.w3.org/Graphics/SVG/1.1/DTD/svg11.dtd">
<svg version="1.1" id="Layer_1" xmlns="http://www.w3.org/2000/svg" xmlns:xlink="http://www.w3.org/1999/xlink" x="0px" y="0px"
	 viewBox="0 0 841.9 595.3" enable-background="new 0 0 841.9 595.3" xml:space="preserve">
<g>
	<g>
		<path fill="#457C1F" d="M247.7,259.2c-3.2,0.9-5.8,2.1-7.9,3.6c-2.2,1.5-3.8,3.3-4.9,5.3c-1.1,2-1.6,4.2-1.6,6.4
			c0,3.6,1.2,6.7,3.5,9.2c2.3,2.5,6.1,4.3,11.5,5.5l6.3,1.2c0,0,5.5,1,5.5,1c3.6,0.7,6.1,1.5,7.3,2.5c1.1,0.8,1.6,2.1,1.6,3.8
			c0,2.3-1,3.9-3.1,4.9c-2.3,1.2-5.6,1.8-9.8,1.8c-3.4,0-7-0.6-10.7-1.8c-3.7-1.2-7.3-3.2-7.4-3.2c-3.2-1.8-3.5-1.8-3.7-1.8
			c-1.1,0-1.3,0.9-1.3,4.3c0,0,0,3.8,0,3.8c0,4.1,5.9,5.5,9.9,6.5l0.1,0c3.7,0.9,7.9,1.4,12.3,1.4c7.9,0,14.3-1.6,18.9-4.7
			c4.8-3.2,7.2-7.3,7.2-12.3c0-4-1.4-7.3-4.1-9.7c-2.6-2.4-6.4-4-11.2-5l-11.8-2.1c-3.1-0.6-5.4-1.5-6.8-2.4
			c-1.2-0.9-1.8-2.2-1.8-3.9c0-2,1-3.5,3.2-4.5c2.3-1.1,5.3-1.7,8.7-1.7c3.4,0,6.8,0.6,10.3,1.6c3.5,1.1,6.1,2.5,6.1,2.5
			c3.2,1.7,3.5,1.7,3.7,1.7c1.1,0,1.3-0.9,1.3-4.3c0,0-0.1-3-0.1-3c0.1-3.3-1.8-4.2-4.6-5.3c-1.5-0.6-3.2-0.9-5.2-1.3
			c-3.7-0.8-7.4-1.1-10.9-1.1C254.4,257.9,250.9,258.3,247.7,259.2z"/>
	</g>
	<g>
		<path fill="#457C1F" d="M363.8,257.9c-2.3,0-4.6,1.8-5.2,4.1l-8.7,34.3c0,0,0,0.1,0,0.1c0,0,0,0,0-0.1L337,261.8
			c-0.8-2.2-3.2-3.9-5.5-3.9H330c-2.3,0-4.7,1.7-5.5,3.9L312,296.3c0,0.1,0,0.1-0.1,0.1c0,0,0-0.1,0-0.1l-9.2-34.3
			c-0.6-2.3-2.9-4.1-5.2-4.1h-3.7c-1.2,0-2.3,0.5-2.9,1.4c-0.6,0.9-0.8,2.1-0.5,3.3l13.7,46.3c0.7,2.3,3,4,5.3,4h2.5
			c2.3,0,4.7-1.7,5.5-3.9l12.8-34.4c0.1-0.2,0.2-0.4,0.2-0.5c0.1,0.1,0.2,0.3,0.2,0.5l12.9,34.4c0.8,2.2,3.2,3.9,5.5,3.9h2.6
			c2.3,0,4.6-1.8,5.3-4l13.6-46.3c0.3-1.2,0.2-2.4-0.5-3.3c-0.6-0.9-1.7-1.4-2.9-1.4H363.8z"/>
	</g>
	<path fill="#457C1F" d="M386.8,265.5c-5.5,5.1-8.3,12.2-8.3,20.9c0,8.8,2.9,15.7,8.7,20.5c5.7,4.8,13.7,7.2,23.7,7.2
		c3.9,0,7.7-0.4,11.3-1.3c3.5-0.8,7.1-2,7.2-2.1c2.2-0.7,3.9-3.1,3.9-5.4v-2.7c0-4-0.8-4.4-1.6-4.4h-0.4l-0.3,0.2
		c-1.6,1.3-4.5,2.6-8.4,4c-3.9,1.4-7.9,2-11.8,2c-2.9,0-5.6-0.4-8-1.1c-2.4-0.7-4.5-1.8-6.2-3.2c-1.8-1.4-3.2-3.2-4.2-5.5
		c-1-2.2-1.2-4.6-1.2-4.7c-0.1-0.6,0.1-1.2,0.5-1.6c0.4-0.4,0.9-0.6,1.5-0.6H430c2.4,0,4.4-2,4.4-4.4v-1.3c0-7.7-2.3-13.8-6.8-18.1
		c-4.5-4.2-11-6.4-19.2-6.4C399.5,257.7,392.2,260.3,386.8,265.5z M395.9,270.8c2.9-2.6,7-3.9,12-3.9c5,0,8.7,1.2,11.1,3.5
		c2.3,2.2,3.1,6.7,3.1,6.7c0,0.1,0,0.2,0,0.4c0,0.4-0.1,0.8-0.4,1.1c-0.3,0.4-0.8,0.6-1.4,0.6c0,0-26.9,0-29.2,0
		C391.7,275.9,393.3,273.1,395.9,270.8z"/>
	<g>
		<path fill="#457C1F" d="M468.7,259.2c-3.1,1.2-7.6,4.1-7.8,4.2c-0.5,0.3-0.8,0.3-1,0.2c-0.1-0.1-0.3-0.4-0.3-0.9v-0.9
			c0-2.4-2-4.4-4.4-4.4h-3.3c-2.4,0-4.4,2-4.4,4.4v47.3c0,2.4,2,4.4,4.4,4.4h3.3c2.4,0,4.4-2,4.4-4.4c0,0,0-34.1,0-35.2
			c2.4-1.7,5-3.1,7.6-4.2c2.7-1.1,5.6-1.7,8.5-1.7c1.9,0,3.5,0.1,4.9,0.2l1.4,0.1c0.6,0.1,3,0.5,3.3,0.5c1.1,0,1.3-0.9,1.3-4.4v0
			l0.1-3.1c-0.2-2.5-1.7-3.8-4.3-4l-0.2,0c0,0-3.9-0.1-3.9-0.1C475.1,257.4,471.8,258,468.7,259.2z"/>
	</g>
	<path fill="#457C1F" d="M499.2,265.2c-5.5,5.1-8.3,12.2-8.3,20.9c0,8.8,2.9,15.7,8.7,20.6c5.7,4.8,13.7,7.2,23.7,7.2
		c3.9,0,7.7-0.4,11.3-1.3c3.5-0.8,7.1-2,7.2-2c3.2-1.4,3.9-3.1,3.9-5.4v-2.7c0-3.9-0.4-4.4-1.6-4.4c-0.3,0-0.6,0.2-0.6,0.2
		c-1.6,1.3-4.5,2.6-8.4,4c-3.9,1.4-7.9,2-11.8,2c-2.9,0-5.6-0.4-8-1.1c-2.4-0.7-4.4-1.8-6.2-3.2c-1.8-1.4-3.2-3.2-4.2-5.5
		c-1-2.2-1.2-4.6-1.2-4.7c-0.1-0.6,0.1-1.2,0.5-1.6c0.4-0.4,0.9-0.6,1.5-0.6h36.8c2.4,0,4.4-2,4.4-4.4v-1.3c0-7.7-2.3-13.8-6.8-18.1
		c-4.5-4.2-11-6.4-19.2-6.4C511.9,257.4,504.6,260,499.2,265.2z M508.3,270.5c2.9-2.6,7-3.9,12-3.9c5,0,8.7,1.2,11.1,3.5
		c2.3,2.2,3.1,6.7,3.1,6.7c0,0.1,0,0.2,0,0.4c0,0.4-0.1,0.8-0.4,1.1c-0.3,0.4-0.8,0.6-1.4,0.6c0,0-26.9,0-29.2,0
		C504.1,275.6,505.7,272.8,508.3,270.5z"/>
	<path fill="#457C1F" d="M571.4,258.4c0,0-5.2,0.9-5.2,0.9c-2.3,0.5-4.1,2.7-4.1,5v2.2c0,4,0.8,4.4,1.6,4.4h0.2l0.2-0.1
		c3.4-1.2,6.6-2.1,9.8-2.7c3.1-0.6,6-0.9,8.5-0.9c2.1,0,4.1,0.1,6.1,0.4c1.8,0.2,3.4,0.7,4.7,1.3c1.3,0.7,2.3,1.6,3,2.7
		c0,0,0.7,1.2,0.7,1.3c0.1,1.3,0.2,2.6,0.3,3.5c-5.4,0.2-10.5,0.6-15.3,1.1c-5.1,0.5-9.6,1.5-13.2,2.9c-3.7,1.5-6.6,3.5-8.7,6
		c-2.1,2.6-3.1,6-3.1,10.2c0,5.1,2,9.3,5.9,12.6c3.9,3.2,8.6,4.9,14.2,4.9c2.9,0,5.6-0.2,7.8-0.7c2.2-0.5,4.2-1.1,5.9-1.8
		c1.5-0.6,3-1.4,4.5-2.3l1.5-0.9c0.2-0.1,0.4-0.3,0.4-0.3c0,0,0.1,1,0.1,1.5c0,2.1,2,3.8,4.4,3.8h3.3c2.4,0,4.4-2,4.4-4.4v-32.3
		c0-3.5-0.6-6.5-1.9-8.9c-1.2-2.4-3.1-4.4-5.4-5.9c-2.4-1.5-5.2-2.6-8.4-3.2c-3.1-0.6-6.9-0.9-11.1-0.9
		C578.9,257.6,575.2,257.9,571.4,258.4z M571.9,302c-1.8-1.3-2.6-3.2-2.6-5.9c0-2.3,0.7-4.1,2.3-5.4c1.6-1.4,3.8-2.4,6.5-3.1
		c2.3-0.6,5.5-1,9.5-1.3l7.3-0.5c0.6,0,1.2,0.2,1.6,0.6c0.4,0.4,0.7,1,0.7,1.6c0,0,0,9.5,0,10.5c-2.3,1.5-4.7,2.8-7.4,3.9
		c-2.7,1.1-5.8,1.7-9.1,1.7C576.7,304,573.8,303.3,571.9,302z"/>
</g>
<g>
	<g>
		<path fill="#004289" d="M388.2,328.3c-0.6,0.2-1.2,0.5-1.6,0.8c-0.4,0.4-0.8,0.8-1,1.2c-0.2,0.5-0.3,1-0.3,1.5
			c0,0.8,0.2,1.6,0.7,2.1c0.5,0.6,1.3,1,2.3,1.3c0,0,1.2,0.3,1.2,0.3l1,0.2c0.9,0.2,1.2,0.4,1.3,0.5c0.2,0.2,0.3,0.4,0.3,0.7
			c0,0.4-0.2,0.7-0.5,0.9c-0.4,0.2-1,0.4-1.8,0.4c-0.6,0-1.3-0.1-2-0.4c-0.8-0.3-1.4-0.5-1.9-1c0,0-0.1-0.1-0.1-0.1l-0.7-0.5v3.3
			l0.2,0.1l1.8,0.7c0.7,0.2,1.6,0.3,2.4,0.3c1.6,0,2.8-0.4,3.8-1.1c1-0.7,1.4-1.7,1.4-2.9c0-0.9-0.3-1.7-0.8-2.3
			c-0.5-0.6-1.3-0.9-2.3-1.2l-1.1-0.2l-1.2-0.2c-0.7-0.2-1.1-0.4-1.2-0.5c-0.2-0.2-0.3-0.4-0.3-0.7c0-0.4,0.2-0.6,0.5-0.8
			c0.4-0.2,0.9-0.4,1.6-0.4c0.6,0,1.3,0.1,1.9,0.4c0.7,0.3,1.3,0.5,1.7,0.8l0.7,0.5l0-0.8v-2.3l-0.2-0.1c-0.5-0.3-1.1-0.5-1.8-0.6
			c-0.7-0.2-1.4-0.3-2.2-0.3C389.5,328,388.8,328.1,388.2,328.3z"/>
	</g>
	<g>
		<path fill="#004289" d="M463.4,328.3c-0.6,0.2-1.2,0.5-1.6,0.8c-0.4,0.4-0.8,0.8-1,1.2c-0.2,0.5-0.3,1-0.3,1.5
			c0,0.8,0.2,1.6,0.7,2.1c0.5,0.6,1.3,1,2.3,1.3c0,0,1.2,0.3,1.2,0.3l1,0.2c0.9,0.2,1.2,0.4,1.3,0.5c0.2,0.2,0.3,0.4,0.3,0.7
			c0,0.4-0.2,0.7-0.5,0.9c-0.4,0.2-1,0.4-1.8,0.4c-0.6,0-1.3-0.1-2-0.4c-0.8-0.3-1.4-0.5-1.9-1c0,0-0.1-0.1-0.1-0.1l-0.7-0.5v3.3
			l0.2,0.1l1.8,0.7c0.7,0.2,1.6,0.3,2.4,0.3c1.6,0,2.8-0.4,3.8-1.1c1-0.7,1.4-1.7,1.4-2.9c0-0.9-0.3-1.7-0.8-2.3
			c-0.5-0.6-1.3-0.9-2.3-1.2c0,0-1.1-0.2-1.1-0.2l-1.2-0.2c-0.7-0.2-1.1-0.4-1.2-0.5c-0.2-0.2-0.3-0.4-0.3-0.7
			c0-0.4,0.2-0.6,0.5-0.8c0.4-0.2,0.9-0.4,1.6-0.4c0.6,0,1.3,0.1,1.9,0.4c0.7,0.3,1.3,0.5,1.7,0.8l0.7,0.5l0-0.8v-2.3l-0.2-0.1
			c-0.5-0.3-1.1-0.5-1.8-0.6c-0.7-0.2-1.4-0.3-2.2-0.3C464.7,328,464,328.1,463.4,328.3z"/>
	</g>
	<g>
		<path fill="#004289" d="M532,328.3c-0.6,0.2-1.2,0.5-1.6,0.8c-0.4,0.4-0.8,0.8-1,1.2c-0.2,0.5-0.3,1-0.3,1.5
			c0,0.8,0.2,1.6,0.7,2.1c0.5,0.6,1.3,1,2.3,1.3c0,0,1.2,0.3,1.2,0.3l1,0.2c0.9,0.2,1.2,0.4,1.3,0.5c0.2,0.2,0.3,0.4,0.3,0.7
			c0,0.4-0.2,0.7-0.5,0.9c-0.4,0.2-1,0.4-1.8,0.4c-0.6,0-1.3-0.1-2-0.4c-0.8-0.3-1.4-0.5-1.9-1c0,0-0.1-0.1-0.1-0.1l-0.7-0.5v3.3
			l0.2,0.1l1.8,0.7c0.7,0.2,1.6,0.3,2.4,0.3c1.6,0,2.8-0.4,3.8-1.1c1-0.7,1.4-1.7,1.4-2.9c0-0.9-0.3-1.7-0.8-2.3
			c-0.5-0.6-1.3-0.9-2.3-1.2c0,0-1.1-0.2-1.1-0.2l-1.2-0.2c-0.7-0.2-1.1-0.4-1.2-0.5c-0.2-0.2-0.3-0.4-0.3-0.7
			c0-0.4,0.2-0.6,0.5-0.8c0.4-0.2,0.9-0.4,1.6-0.4c0.6,0,1.3,0.1,1.9,0.4c0.7,0.3,1.3,0.5,1.7,0.8l0.7,0.5l0-0.8v-2.3l-0.2-0.1
			c-0.5-0.3-1.1-0.5-1.8-0.6c-0.7-0.2-1.4-0.3-2.2-0.3C533.4,328,532.7,328.1,532,328.3z"/>
	</g>
	<g>
		<path fill="#004289" d="M412.5,328.3c0,0-1.3,5.7-1.7,7.7c-0.7-2-2.6-7.7-2.6-7.7h-2.2c0,0-1.9,5.8-2.5,7.7
			c-0.5-2-1.9-7.7-1.9-7.7h-2.8l3.2,12.2h2.4c0,0,2-6.2,2.6-7.9c0.6,1.7,2.6,7.9,2.6,7.9h2.4l3.2-12.2H412.5z"/>
	</g>
	<path fill="#004289" d="M421.1,329.8c-1.1,1.2-1.6,2.8-1.6,4.7c0,2,0.6,3.6,1.7,4.6c1.1,1.1,2.7,1.6,4.7,1.6c0.8,0,1.5-0.1,2.2-0.3
		c0,0,2.2-0.7,2.3-0.9c0,0,0-0.2,0-0.2v-2.9l-0.7,0.5c-0.3,0.2-0.8,0.5-1.7,0.8c-0.7,0.3-1.5,0.4-2.2,0.4c-0.5,0-1-0.1-1.5-0.2
		c-0.4-0.1-0.8-0.4-1.1-0.6c-0.3-0.3-0.6-0.7-0.8-1.1c-0.1-0.4-0.2-0.8-0.2-1.3c0.8,0,8.3,0,8.3,0v-1.4c0-1.7-0.5-3.1-1.4-4.1
		c-0.9-1-2.2-1.5-3.9-1.5C423.6,328,422.2,328.6,421.1,329.8z M423.1,331.2c0.5-0.5,1.2-0.8,2.2-0.8c0.9,0,1.6,0.2,2,0.7
		c0.4,0.4,0.5,1,0.6,1.7c-0.7,0-4.8,0-5.6,0C422.4,332.1,422.7,331.6,423.1,331.2z"/>
	<path fill="#004289" d="M514.7,329.8c-1.1,1.2-1.6,2.8-1.6,4.7c0,2,0.6,3.6,1.7,4.6c1.1,1.1,2.7,1.6,4.7,1.6c0.8,0,1.5-0.1,2.2-0.3
		c0,0,2.2-0.7,2.3-0.9c0,0,0-0.2,0-0.2v-2.9l-0.7,0.5c-0.3,0.2-0.8,0.5-1.7,0.8c-0.7,0.3-1.5,0.4-2.2,0.4c-0.5,0-1-0.1-1.5-0.2
		c-0.4-0.1-0.8-0.4-1.1-0.6c-0.3-0.3-0.6-0.7-0.8-1.1c-0.1-0.4-0.2-0.8-0.2-1.3c0.8,0,8.3,0,8.3,0v-1.4c0-1.7-0.5-3.1-1.4-4.1
		c-0.9-1-2.2-1.5-3.9-1.5C517.3,328,515.8,328.6,514.7,329.8z M516.8,331.2c0.5-0.5,1.2-0.8,2.2-0.8c0.9,0,1.6,0.2,2,0.7
		c0.4,0.4,0.5,1,0.6,1.7c-0.7,0-4.8,0-5.6,0C516.1,332.1,516.3,331.6,516.8,331.2z"/>
	<path fill="#004289" d="M544.7,329.8c-1.1,1.2-1.6,2.8-1.6,4.7c0,2,0.6,3.6,1.7,4.6c1.1,1.1,2.7,1.6,4.7,1.6c0.8,0,1.5-0.1,2.2-0.3
		c0,0,2.2-0.7,2.3-0.9c0,0,0-0.2,0-0.2v-2.9l-0.7,0.5c-0.3,0.2-0.8,0.5-1.7,0.8c-0.7,0.3-1.5,0.4-2.2,0.4c-0.5,0-1-0.1-1.5-0.2
		c-0.4-0.1-0.8-0.4-1.1-0.6c-0.3-0.3-0.6-0.7-0.8-1.1c-0.1-0.4-0.2-0.8-0.2-1.3c0.8,0,8.3,0,8.3,0v-1.4c0-1.7-0.5-3.1-1.4-4.1
		c-0.9-1-2.2-1.5-3.9-1.5C547.3,328,545.8,328.6,544.7,329.8z M546.8,331.2c0.5-0.5,1.2-0.8,2.2-0.8c0.9,0,1.6,0.2,2,0.7
		c0.4,0.4,0.5,1,0.6,1.7c-0.7,0-4.8,0-5.6,0C546.1,332.1,546.3,331.6,546.8,331.2z"/>
	<path fill="#004289" d="M443.2,323.8c0,0,0,3.8,0,4.7c-0.5-0.2-1-0.4-1-0.4c-0.5-0.1-1.1-0.2-1.7-0.2c-0.7,0-1.4,0.1-2.1,0.4
		c-0.7,0.3-1.3,0.7-1.8,1.3c-0.5,0.6-0.9,1.3-1.2,2.1c-0.3,0.8-0.4,1.7-0.4,2.7c0,1.9,0.4,3.5,1.3,4.6c0.9,1.2,2.1,1.7,3.6,1.7
		c0.8,0,1.5-0.1,2.1-0.4c0.4-0.2,0.8-0.5,1.2-0.7c0,0.2,0,0.9,0,0.9h2.7v-16.7H443.2z M443.2,331.1c0,0.5,0,5.6,0,6
		c-0.4,0.3-0.8,0.6-1.3,0.8c-0.5,0.2-1,0.3-1.5,0.3c-0.9,0-1.5-0.3-1.9-0.9c-0.4-0.6-0.6-1.6-0.6-2.9c0-1.3,0.3-2.3,0.8-2.9
		c0.5-0.7,1-0.9,2.2-1C442,330.5,443.2,331.1,443.2,331.1z"/>
	<g>
		<path fill="#004289" d="M451.9,323.8v2.8h3v-2.8H451.9z"/>
		<path fill="#004289" d="M452,328.3v12.2h2.7v-12.2H452z"/>
	</g>
	<g>
		<path fill="#004289" d="M474.9,323.8v16.7h2.7c0,0,0-8.3,0-8.7c0.5-0.3,0.9-0.6,1.4-0.8c0.5-0.2,1-0.4,1.5-0.4
			c0.5,0,0.8,0.1,1.1,0.2c0.2,0.1,0.4,0.3,0.5,0.5c0.1,0.2,0.2,0.5,0.3,0.9c0,0,0.1,1.4,0.1,1.4v6.9h2.7v-7.8c0-1.5-0.4-2.7-1.1-3.5
			c-0.7-0.8-1.8-1.3-3.1-1.3c-0.7,0-1.4,0.2-2.1,0.5c-0.4,0.2-0.9,0.5-1.3,0.8c0-1.1,0-5.4,0-5.4H474.9z"/>
	</g>
	<g>
		<path fill="#004289" d="M505.9,328.7c-0.4,0.2-0.9,0.5-1.4,0.9c0-0.4,0-1.3,0-1.3h-2.7v12.2h2.7c0,0,0-7.9,0-8.3
			c0.4-0.3,0.9-0.6,1.4-0.9c0.5-0.2,1-0.4,1.5-0.4c0,0,0.1-0.1,0.9,0c0.8,0.1,1.4,0.3,1.4,0.3l0-0.5v-2.3l-1-0.1c0,0-0.8,0-0.8,0
			C507.2,328.3,506.5,328.5,505.9,328.7z"/>
	</g>
	<g>
		<path fill="#004289" d="M578.8,328.7c-0.4,0.2-0.9,0.5-1.4,0.9c0-0.4,0-1.3,0-1.3h-2.7v12.2h2.7c0,0,0-7.9,0-8.3
			c0.4-0.3,0.9-0.6,1.4-0.9c0.5-0.2,1-0.4,1.5-0.4c0,0,0.1-0.1,0.9,0c0.8,0.1,1.4,0.3,1.4,0.3l0-0.5v-2.3l-1-0.1c0,0-0.8,0-0.8,0
			C580.1,328.3,579.5,328.5,578.8,328.7z"/>
	</g>
	<path fill="#004289" d="M566.5,339.7C566.5,339.7,566.5,339.7,566.5,339.7c0,0.2,0,0.8,0,0.8h2.7c0,0,0-8.1,0-8.1
		c-0.1-4.2-3.7-5.2-9.5-3.7c0,0,0,2.8,0,2.8c4.8-1.6,6.9-0.9,6.7,0.7c0,0-2.7,0.2-2.7,0.2c-1,0.1-1.9,0.3-2.6,0.7
		c-0.8,0.3-1.3,0.8-1.8,1.4c-0.4,0.6-0.6,1.4-0.6,2.3c0,1.2,0.4,2.1,1.2,2.9c0.8,0.8,1.9,1.1,2.9,1.1
		C565,340.8,566.5,339.7,566.5,339.7z M565.6,340.2L565.6,340.2L565.6,340.2z M562,337.9c-0.3-0.3-0.4-0.6-0.4-1.2
		c0-0.5,0.1-0.8,0.4-1.1c0.3-0.3,0.7-0.5,1.2-0.6c0,0,1.8-0.3,1.8-0.3c0,0,1-0.1,1.6-0.1c0,0.6,0,2.2,0,2.5
		c-0.2,0.2-1.3,0.8-1.3,0.8c-0.5,0.2-1.1,0.4-1.7,0.4C562.9,338.3,562.3,338.1,562,337.9z"/>
	<g>
		<path fill="#004289" d="M591.9,328c-1.7,0-3.2,0.6-4.3,1.7c-1.1,1.1-1.6,2.7-1.6,4.7c0,1,0.1,2,0.4,2.8c0.3,0.8,0.7,1.5,1.2,2
			c0.5,0.5,1.2,0.9,1.9,1.2c0.7,0.3,1.5,0.4,2.4,0.4c0.7,0,1.2,0,1.9-0.3c0.7-0.2,2.1-0.9,2.1-0.9l0-0.2v-2.9c0,0-2.2,1.8-4.1,1.8
			c-0.9,0-1.7-0.3-2.3-1c-0.6-0.7-0.8-1.6-0.8-2.9c0-1.3,0.3-2.3,0.8-2.9c0.6-0.6,1.3-1,2.3-1c0.5,0,1.1,0.1,1.7,0.3
			c0.6,0.2,1.2,0.6,1.7,1l0.7,0.6l0-0.9v-2.4C595.9,329.1,593.6,328,591.9,328z"/>
	</g>
	<g>
		<path fill="#004289" d="M600.7,323.8v16.7h2.7c0,0,0-8.3,0-8.7c0.5-0.3,0.9-0.6,1.4-0.8c0.5-0.2,1-0.4,1.5-0.4
			c0.5,0,0.8,0.1,1.1,0.2c0.2,0.1,0.4,0.3,0.5,0.5c0.1,0.2,0.2,0.5,0.3,0.9c0,0,0.1,1.4,0.1,1.4v6.9h2.7v-7.8c0-1.5-0.4-2.7-1.1-3.5
			c-0.7-0.8-1.8-1.3-3.1-1.3c-0.7,0-1.4,0.2-2.1,0.5c-0.4,0.2-0.9,0.5-1.3,0.8c0-1.1,0-5.4,0-5.4H600.7z"/>
	</g>
</g>
<path fill="none" d="M233.7,338.6"/>
<g>
	<rect x="234.2" y="337.8" fill="#004289" width="139.5" height="2.6"/>
</g>
<g>
</g>
<g>
</g>
<g>
</g>
<g>
</g>
<g>
</g>
<g>
</g>
</svg>
