<?xml version="1.0" encoding="utf-8"?>
<!-- Generator: Adobe Illustrator 17.1.0, SVG Export Plug-In . SVG Version: 6.00 Build 0)  -->
<!DOCTYPE svg PUBLIC "-//W3C//DTD SVG 1.1//EN" "http://www.w3.org/Graphics/SVG/1.1/DTD/svg11.dtd">
<svg version="1.1" id="Lager_1" xmlns="http://www.w3.org/2000/svg" xmlns:xlink="http://www.w3.org/1999/xlink" x="0px" y="0px"
	 viewBox="0 0 592 840" enable-background="new 0 0 592 840" xml:space="preserve">
<g>
	<g>
		<g>
			<defs>
				<rect id="SVGID_1_" x="129.1" y="378.6" width="332.9" height="76.5"/>
			</defs>
			<clipPath id="SVGID_2_">
				<use xlink:href="#SVGID_1_"  overflow="visible"/>
			</clipPath>
			<path clip-path="url(#SVGID_2_)" fill="#008739" d="M225.4,426.8c3.2,1.6,7.7,2.9,13,3c4,0.1,7.8-0.6,7.9-3.9
				c0.1-7.8-22.3-3.3-22.1-18.5c0.2-10.1,11.3-12.6,20.8-12.5c4.5,0.1,9,0.8,12.2,1.8l-1,8.6c-3.2-1.4-6.9-2-10.5-2.1
				c-3.2-0.1-8.5,0.1-8.5,3.8c-0.1,6.8,22.3,2.6,22.1,17.7c-0.2,10.9-10.5,13.6-21.1,13.4c-4.4-0.1-9.9-0.8-14.1-2L225.4,426.8
				L225.4,426.8z"/>
			<path clip-path="url(#SVGID_2_)" fill="#008739" d="M288.4,394.7c15.6,0,23.7,8.2,23.7,21.7c0,13.3-8.3,21.7-23.7,21.7
				c-15.5,0-23.7-8.3-23.7-21.7C264.7,402.9,272.8,394.7,288.4,394.7L288.4,394.7z M288.4,429.8c7.7,0,10.7-6.5,10.7-13.4
				c0-7.3-3.1-13.4-10.7-13.4c-7.7,0-10.7,6.1-10.7,13.4C277.7,423.3,280.7,429.8,288.4,429.8L288.4,429.8z"/>
			<path clip-path="url(#SVGID_2_)" fill="#008739" d="M319.4,395.4h17.2c16.5,0,28,4.6,28,20.8c0,15.7-11.9,21.1-28,21.1h-17.2
				V395.4L319.4,395.4z M332,429h4.9c9.4,0,14.7-4.3,14.7-12.7c0-8.3-5.5-12.7-14.7-12.7H332V429L332,429z"/>
			<path clip-path="url(#SVGID_2_)" fill="#008739" d="M371.2,395.4h22.5c8.4,0,15.3,3.4,15.3,10.6c0,5.6-3,9.3-9.1,10.6v0.1
				c4.1,1,4.3,4.1,6.7,9.2l4.6,11.4h-13.2l-2.7-7.6c-2.6-7.2-4.2-9-8.9-9h-2.6v16.6h-12.6V395.4L371.2,395.4z M383.8,412.8h3.3
				c4.1,0,9.2-0.1,9.2-4.9c0-3.9-4.4-4.6-9.2-4.6h-3.3V412.8L383.8,412.8z"/>
			<path clip-path="url(#SVGID_2_)" fill="#008739" d="M428.3,395.4h15.5l18.2,41.9h-13.8l-3.5-8.9h-17.8l-3.7,8.9h-12.8
				L428.3,395.4L428.3,395.4z M436,404.1h-0.1l-6.1,16.4h11.9L436,404.1L436,404.1z"/>
			<path clip-path="url(#SVGID_2_)" fill="#008739" d="M286.2,387.7c0,2.6-2.5,4.7-5.6,4.7c-3.1,0-5.6-2.1-5.6-4.7
				c0-2.6,2.5-4.7,5.6-4.7C283.7,382.9,286.2,385,286.2,387.7L286.2,387.7z M302.7,387.7c0,2.6-2.5,4.7-5.6,4.7s-5.6-2.1-5.6-4.7
				c0-2.6,2.5-4.7,5.6-4.7S302.7,385,302.7,387.7L302.7,387.7z"/>
			<path clip-path="url(#SVGID_2_)" fill="none" stroke="#008739" stroke-width="5.0016" d="M165.9,410.8
				c-3.7,4.9-18.4,24.4-18.4,24.4h38.5c0,0-15.1-20-18.6-24.6"/>
			<polygon clip-path="url(#SVGID_2_)" fill="none" stroke="#008739" stroke-width="5.0016" points="166.7,389.3 150.3,411 
				183.1,411 166.7,389.3 			"/>
		</g>
	</g>
	<circle fill="none" stroke="#008739" stroke-width="5.0016" cx="166.7" cy="416.8" r="35.8"/>
</g>
</svg>
