<?xml version="1.0" encoding="utf-8"?>
<!-- Generator: Adobe Illustrator 17.1.0, SVG Export Plug-In . SVG Version: 6.00 Build 0)  -->
<!DOCTYPE svg PUBLIC "-//W3C//DTD SVG 1.1//EN" "http://www.w3.org/Graphics/SVG/1.1/DTD/svg11.dtd">
<svg version="1.1" id="Layer_1" xmlns="http://www.w3.org/2000/svg" xmlns:xlink="http://www.w3.org/1999/xlink" x="0px" y="0px"
	 viewBox="0 0 842 595" enable-background="new 0 0 842 595" xml:space="preserve">
<g>
	<g>
		<g>
			<path fill="#005FAA" d="M374.5,425.1c2.2,0,6-0.7,9-5.5c-1.7-3.8-2.9-11.4-3.1-14.2c-0.9-14.3,4.6-27.7,10.6-28
				c4.4-0.3,7.9,3.9,8.3,10.7c1.1,17.8-4.8,25.2-7.8,31.6c0.5,2.5,4.7,6.7,8.7,6.7c1.5,0,3.2-0.7,3.7-1.3c-0.3-1-0.6-2.3-0.6-4.3
				c0-10.3,6.6-19,12.4-19c4.6,0,7.2,6,7.2,10c0,4.7-4,8.5-9.8,12.2c1,1,2.9,1.8,4.6,1.8c8.4,0,12.8-10.1,16-19.4
				c0.6-1.8,1.6-4.3,3.7-4.3c3.5,0,5,23.2,10.9,23.2c2.5,0,4.6-5.2,4.6-9.1c0-2.9-1-3.2-1-7.5c0-4.7,2.5-8.7,5.9-8.7
				c2.1,0,2.8,2,2.8,4.5c0,9.4-6.8,26.9-16.8,26.9c-7.5,0-6.9-12.9-9.6-12.9c-3,0-7.1,13.1-21.6,13.1c-2.4,0-4.9-1.2-6.9-3.5
				c-3.5,2.4-6.5,3.4-9.9,3.4c-5.4,0-7.8-5.6-10-5.6c-2.6,0-5.6,5.7-14.4,5.7c-7.1,0-8.2-9.4-10.7-9.4c-2.2,0-5.6,9.4-9.3,9.4
				c-6.2,0-7.5-16.3-12.9-16.3c-4.3,0-17.7,16.6-21.4,16.2c-1.5-0.2-2.1-1.3-1.9-2.7c0.2-2,2-7.5,2.7-10.1c1.2-4.5,2.3-9.4,2.9-10.9
				c0.6-1.6,2.2-2.7,3.5-2.6c0.7,0.1,0.9,1.3,1.1,2.3c0.7,3.6,1.8,7.3,2.9,7.3c2.1,0,8.9-13.1,12.9-13.1c4.9,0,5.4,20.6,12.1,20.6
				c2.2,0,3.8-2.6,5.3-5.9c0.1-5.4,1.6-13.2,6-13.2c3.1,0,4.6,6.9,2.3,12.9C366.7,423.4,371.4,425.1,374.5,425.1z M492.1,407.5
				c-1.8,7.6-7.3,18.7-15.6,18.7c-1.9,0-5.3-0.7-5.3-2.7c0-2.1,12.9-2.3,12.9-12.2c0-3.7-3.4-8.8-8.4-8.8c-6.6,0-13.1,7.2-13.1,17.2
				c0,9,5.6,11.9,11.2,11.9c9.7,0,15.6-7.9,18.7-14.6c1.5,4.4,2.3,14.6,6,14.6c1.5,0,2.5-0.7,4.3-4.7c4.4-9.9,8.7-21.2,14.6-21.2
				c2.2,0,0.9,4,6.2,4c2.5,0,4.3-2.1,4.3-4.4c0-3.4-3.1-6-7.8-6c-13.8,0-16.8,20.7-19,20.7c-3.7,0-2.5-16.6-5.2-16.6
				C493.5,403.4,492.4,406.2,492.1,407.5z M394.5,392c-0.3-4.1-1.2-6-3.5-5.8c-2.9,0.2-4.3,9.4-3.7,19.1c0.4,6.3,1.3,7.3,2.2,7.2
				C391.2,412.4,395.1,401.1,394.5,392z M370.6,383.4c-0.2-2.4-2.1-4-4.6-4c-2.8,0-5.4,2.9-5.1,6.6c0.2,2.4,1.6,4.4,4.4,4.4
				C368.6,390.5,370.9,386.8,370.6,383.4z M416.4,413.4c0-2.5-1.3-4.6-2.9-4.6c-1.3,0-4.4,1.5-4.4,6.2c0,3.7,1.3,5.4,1.9,6.2
				C415.2,419.9,416.4,416.3,416.4,413.4z M473.8,408.4c3.1,0,4,3.7,3.2,5.9c-0.7,2.2-3.4,4.7-7.5,5.4
				C468.7,417.5,468.2,408.4,473.8,408.4z M304.5,398c-0.4-1.3-1.6-4.3-2-6.6c-0.7-4.9,1.8-8.1,4.2-8.9c2.6-0.7,3.7,0.6,4.7,3.7
				c1.3,4.7,1.5,10.9,1,19.7c-0.6,12.1-6.6,26.6-21.6,26.3c-12.9-0.3-18.7-8.7-19.3-21.5c-0.3-6,0.1-12.1,2.6-20.6
				c1.3-4.6,2.5-6.2,6.6-7.1c3.2-0.6,2.9,2.8,2.2,6.8c-1.6,8.8-2.4,13.1-1.8,23.1c0.6,10.6,5.4,14.7,10.7,14.7
				c7.9,0.2,11.5-6.5,12.9-16C306.2,404,305.3,400.3,304.5,398z"/>
		</g>
	</g>
	<g>
		<path fill="#005FAA" d="M477.9,206.7c1,7.4,12.2,17.4,15.3,17.2c2-0.2,2.8-9.7,2.8-17.2c0-4.3,0.2-7.6-2-8.4
			C490.4,205.5,481,207,477.9,206.7z M478.6,203.4c8.1,0,15.5-6.5,15.5-12.2c0-2.7-1.3-4.8-4.5-5.2c0.5,0.7,0.8,1.2,0.8,2.5
			c0,4.3-6.5,9.1-13.6,9.1c-2.6,0-3.4,1.8-3.4,2.7C473.4,202.5,475.5,203.4,478.6,203.4z M476.9,194.6c-1.1,0-2.7,0-3.5-1.7
			c-0.7-1.4-0.5-3.7-1.8-4.7c1.3,0.4,2.7,0.4,3.8,0.4c3.5,0,6.9-2.4,9.5-2.4c1.7,0,2.2,1.1,2.2,2.2
			C487.1,191.8,480.1,194.6,476.9,194.6z"/>
		<path fill="#005FAA" d="M302.4,255.8c2.6,0,2.1-16.2,6.4-16.2c1,0,1.3,1,1.3,2.3c0,3.7-1.8,9-1.8,12c0,1.5,0.4,2,1.1,2
			c1.9,0,5.1-17.9,8.3-17.9c1,0,1.5,1,1.5,2c0,3.7-4.8,14.5-4.8,17.6c0,0.5,0.2,0.9,0.5,0.9c2,0,5.9-8.4,7.1-12.6
			c0.7-2.2,1.6-3.4,2.5-3.4c0.8,0,1.5,0.9,1.5,2.7c0,4.2-3.9,14.1-7.3,20.8c-2.7,5.1-6.8,12.6-6.8,16.7c0,2.1,0.4,4.3,3.4,6.9
			c-5-0.3-7-0.8-8.9-4.7c-8.3,16.6,15.4,15,7.3,29.7c-1.5-2.6-13.2-5.4-13.2-20.8c0-13.3,11.7-21.1,11.7-26.7c0-1.1-0.4-2-1.4-2.9
			c-2.6-2.2-2.7-4-4.7-4c-1.5,0-3.3,3.4-1.4,6.5c0.6,1,1.2,1.6,1.2,2.6c0,2.2-3.4,8-5.8,8c-2.4,0-4.3-6-4.3-15.7
			c0-8.6,1.9-17.2,4.4-17.2c0.7,0,0.9,0.5,0.9,1.1c0,1-0.3,3-0.3,6.5C300.8,255.4,301.7,255.8,302.4,255.8z"/>
		<path fill="#005FAA" d="M322.2,278.6c3.3,0,6-2.4,6-7.8v-8c0-3,0.2-6.5,2.3-8.9c-0.2,1-0.2,2.1-0.2,3.1c0,6.7,3.7,11.3,3.7,17.8
			c0,2.4-0.7,3.7-2.6,3.7c-1.8,0-1.6-1.6-2-1.6c-0.3,0-0.8,1-0.8,2.1c0,1.6,1.2,4.2,4.4,4.2c2.8,0,5.1-2.6,5.1-5.5
			c0-7-5.5-14.8-5.5-22.3c0-3.3,0.9-5.5,1.6-7.2c0,15.5,13.2,26.8,13.2,33.3c0,1.5-1.1,2.7-2.7,2.7c-1.8,0-2.7-1.4-2.7-2.5
			c0-0.5-0.1-0.7-0.3-0.7c-0.5,0-1.9,1.6-1.9,3.6c0,2.6,2.1,5.7,6,5.7c4.4,0,6.9-3.7,6.9-7.1c0-8.2-16-20.6-16-33.9
			c0-2.3,0.4-5.9,2-8.7c-10.3,6.6-13.5,15.4-13.5,23.2c0,6.7-0.2,10.1-3.7,10.1c-1.8,0-2.3-1.6-2.9-1.6c-0.5,0-0.7,1.4-0.7,1.8
			C318,277,320.1,278.6,322.2,278.6z"/>
		<path fill="#005FAA" d="M457.4,200.7c3.4,0,6-1.6,6-2.5c0-0.3-0.5-0.5-1.5-0.5s-3-0.1-6.9-0.7c-3.3-0.5-5.8-1.8-6.7-1.8
			c-0.3,0-0.5,0.2-0.5,0.4C447.9,197.6,451.7,200.7,457.4,200.7z M440.4,190.8c1-0.7,5.4,0.4,11.1-2.4c0.7-0.4,1.4-0.5,2-0.5
			c2.7,0,2,3.1,4.5,3.1c1.9,0,4.4-1.6,5.9-1.6c2.3,0,5.7,7.3,5.7,10.8c0,4-6,6.4-13.1,6.4c-10.4,0-16.6-9-16.6-14.9
			C440,191.1,440.2,190.9,440.4,190.8z"/>
		<path fill="#005FAA" d="M323.9,308c-2.6,0.6-6.7,4.7-6.7,11.1c0,7.6,8.2,19.4,21.7,19.4c11.4,0,14.2-7.9,14.2-13.2
			c0-11.8-7.2-20-16.7-20c-5.2,0-9.8,3.7-9.8,9.3c0,5.2,3.9,12.9,13.2,12.9c4.4,0,6.9-3.1,6.9-6.7c0-3.5-3.2-8.3-7.9-8.3
			c-1.4,0-2.4,0.9-2.4,2.4c0,1.9,2.6,3.7,5.8,3.7c0.8,0,1.4-0.2,1.7-0.3c0.2,0.2,0.2,0.6,0.2,0.9c0,1.8-1.7,2.9-4.4,2.9
			c-4,0-7.8-3-7.8-7.7c0-2.8,2.4-4.8,5.9-4.8c6.9,0,11.1,6.2,11.1,12.3c0,5.5-3,8.7-9.3,8.7C327.2,330.7,321.2,319.4,323.9,308z"/>
		<path fill="#005FAA" d="M406.9,338.1c0,1.7,1.4,3.1,3.1,3.1c1.7,0,3.1-1.4,3.1-3.1c0-1.7-1.4-3.1-3.1-3.1
			C408.3,335,406.9,336.4,406.9,338.1z M412.9,353.7c3.7,0,3.5-0.3,4.7-0.3c1.2,0,1.2,0.7,1.2,1.2c0,1.7-3.8,3.8-10.6,3.8
			c-4,0-6.4-2.1-7.1-4.5c-3.9,2.5-9.8,4.8-15.7,4.8c-16,0-20-6.9-25-9.2c-3.8-1.7-9.7,1.6-17.9-7.5c1.1,0.2,2.6,0.3,3.7,0.3
			c7.2,0,11-3.5,11-9.1c0-0.7-0.1-1.5-0.2-2.2c2.2,0.9,7.2,4.6,8.3,11.2c0.2,0.8,3.4,1.5,5.4,1.5c2.8,0,6.4-1.2,6.9-5.8
			c9.4-0.8,15.7-6.3,17-13.3c3.4,1.1,7.2,4.1,8.1,5.7c1.3-0.5,2.9-0.7,4.7-0.7c2.5,0,5.3,0.5,8.7,1.5c0.2-1,0.3-2.3,1.9-2.3
			c2.3,0,1.7,2.6,2.5,4.1c0.4,0.8,2.3,1.2,2.3,2.8c0,1.5-1.3,2-2,2c-0.3,0-0.7-0.1-0.9-0.2c-1.6,0.5-1.6,11.8-8.2,11.8
			c-4.8,0-9.3-4-11.2-9c-0.5-1.5-1.7-2.4-2.8-2.4c-1.2,0-1.9,0.2-3.4,1.9c-4.2,4.6-11.2,8.6-19.9,8.6c-2.7,0-4.8-0.2-5.3-0.2
			c-0.3,0-0.3,0.1-0.3,0.2c0,0.5,2.7,2.7,8.4,2.7c13.7,0,17.1-7.7,19.3-7.7c0.3,0,1.2,0,1.8,1.2C401.6,352,408.6,353.7,412.9,353.7z
			"/>
		<path fill="#005FAA" d="M460.2,304c-1.6,0-10.7,12.1-16.5,12.1c-1.4,0-2.6-2.7-2.6-4.7c0-1.1,0.7-1.9,3.2-2.4
			c13.4-3,10.4-13.1,21.9-13.1c6.3,0,13.3,4.3,13.3,14c0,10.3-14.7,23.1-16.8,23.1c-1.8,0-3.7-2.6-3.7-4.3c0-0.5,0.2-1.2,1.8-1.9
			c7.5-3,11.8-9.8,11.8-13.3c0-0.8-0.4-1.6-1.4-1.6c-1.3,0-7,12.9-13.3,12.9c-4.4,0-8.8-4-8.8-5.8c0-3.1,12.6-8.9,12.6-13.3
			C461.7,304.1,460.9,304,460.2,304z M468.7,299.2c-1.1,0-2.3,0.9-2.3,3c0,2.3,1.8,3.8,2.8,4.3c0.5,0.3,1.4,0.6,2.3,0.6
			c2.3,0,4.1-0.6,4.1-2.5C475.5,302.2,472,299.2,468.7,299.2z"/>
		<path fill="#005FAA" d="M322.9,208.9c0,1.7,1.4,3.1,3.1,3.1c1.7,0,3.1-1.4,3.1-3.1c0-1.7-1.4-3.1-3.1-3.1
			C324.4,205.8,322.9,207.2,322.9,208.9z M318.9,201.9c0,1.7,1.4,3.1,3.1,3.1c1.7,0,3.1-1.4,3.1-3.1c0-1.7-1.4-3.1-3.1-3.1
			C320.3,198.7,318.9,200.1,318.9,201.9z M316.1,223.2c-1.8,0.5-5.5,2.7-5.5,6.6c0,2.8,2.2,4.6,4.9,4.6c1.4,0,2.4-0.3,3-0.8
			c-2.2-2.1-3-4.4-3-6.8C315.5,225.2,315.8,224.2,316.1,223.2z M297,224.3c-0.1,0.4-0.1,0.8-0.1,1.2c0,3.7,1.9,5.7,4.5,5.7
			c1.9,0,4.2-1.2,6.2-3.7c-0.9,0.2-1.9,0.2-2.8,0.2C302,227.7,298.8,226.9,297,224.3z M294.2,231.3c0,5.9,1.8,8.7,5,8.7
			c2.5,0,5.8-1.8,9.8-5.2c-3,0.7-5.4,1.2-7.5,1.2C298.8,235.9,296.6,234.9,294.2,231.3z M314.4,200.1c0.4-1.3,0.7-2.8,0.7-4.5
			c0-3.7-1.7-9.4-7-9.4c-3,0-5.2,2.4-5.2,5.3C302.9,197.6,309.1,200.1,314.4,200.1z M307.8,219.7c-2.6,0-5.4-3.2-5.4-6.1
			c0-1.6,1.2-3.5,2-3.5c0.3,0,0.5,0.2,0.5,0.8c0.5,3.8,3,6,5.3,7.1c0.2,0.2,0.4,0.2,0.4,0.4C310.7,218.9,309.2,219.7,307.8,219.7z
			 M315,210.2c0.5,0.7,2,1.6,2,2.2c0,1.1-0.6,2.5-1.9,2.5c-2.7,0-4.9-4.1-4.9-6.5c0-1.5,0.9-1.6,2-1.6c0.5,0,0.8,0.1,1.2,0.3
			C314.1,207.5,314.1,209,315,210.2z M296.7,219.9c-0.1,0.2-0.2,0.5-0.2,0.9c0,0.7,0.8,1.5,1.5,1.5c0.6,0,1-0.2,1.3-0.2
			c1.9,0,4,1.3,7,1.3c1.8,0,3.9-0.5,6.6-1.9c5.6-2.8,7.8-9.8,7.8-10.9c0-1.5-1.2-1.3-2.2-2.7c-1-1.4-0.6-2.6-1.2-3.2
			c-0.4-0.4-1.5-0.4-2.9-0.5c-0.5-0.1-1.1-0.1-1.7-0.1c-2.6,0-5.6,0.3-9,2.5C296.8,210.9,297.7,218.1,296.7,219.9z M322.6,216.8
			c-1.7,2-3.5,5.5-3.5,9c0,4.2,2.6,7.7,6.6,7.7c3.8,0,5.6-3.3,5.6-6.6C331.2,221.6,326.5,217.9,322.6,216.8z M305.9,201.8
			c0,0-2.3,1.7-5.1,1.7c-3.4,0-6-2.5-6-6c0-2.4,1.2-4.9,4.1-6.2c-0.1,0.5-0.1,0.9-0.1,1.3C298.8,197.1,301.3,200.5,305.9,201.8z"/>
		<path fill="#005FAA" d="M443.4,227.7c0,1.8,1.5,3.3,3.3,3.3c1.8,0,3.3-1.5,3.3-3.3c0-1.8-1.5-3.3-3.3-3.3
			C444.9,224.4,443.4,225.9,443.4,227.7z M443.6,237.5c0,2,1.6,3.7,3.7,3.7c2,0,3.7-1.6,3.7-3.7c0-2-1.6-3.7-3.7-3.7
			C445.3,233.8,443.6,235.5,443.6,237.5z M432.4,244.1c0,3,2.4,5.4,5.4,5.4c3,0,5.4-2.4,5.4-5.4c0-3-2.4-5.4-5.4-5.4
			C434.8,238.8,432.4,241.2,432.4,244.1z M435.3,233.1c0,1.7,1.4,3.1,3.1,3.1c1.7,0,3.1-1.4,3.1-3.1c0-1.7-1.4-3.1-3.1-3.1
			C436.7,230,435.3,231.4,435.3,233.1z M425.1,239.4c0,1.7,1.4,3.1,3.1,3.1c1.7,0,3.1-1.4,3.1-3.1c0-1.7-1.4-3.1-3.1-3.1
			C426.5,236.3,425.1,237.7,425.1,239.4z M433.1,221.1c0,2.7,2.3,5,5,5s5-2.3,5-5c0-2.7-2.3-5-5-5S433.1,218.4,433.1,221.1z
			 M438.9,211.5c0,1.6,1.3,3,3,3c1.6,0,3-1.3,3-3c0-1.6-1.3-3-3-3C440.3,208.6,438.9,209.9,438.9,211.5z M424.8,219
			c0,1.6,1.3,3,2.9,3c1.6,0,3-1.3,3-3c0-1.6-1.3-3-3-3C426.2,216.1,424.8,217.4,424.8,219z M424.4,229.2c0,2.7,2.1,4.8,4.7,4.8
			c2.7,0,4.8-2.1,4.8-4.8c0-2.7-2.1-4.8-4.8-4.8C426.5,224.4,424.4,226.5,424.4,229.2z M414.6,234.1c0,2.4,2,4.4,4.4,4.4
			c2.4,0,4.4-2,4.4-4.4c0-2.4-2-4.4-4.4-4.4C416.6,229.7,414.6,231.7,414.6,234.1z M417.3,223.2c0,1.7,1.4,3.1,3.1,3.1
			c1.7,0,3.1-1.4,3.1-3.1c0-1.7-1.4-3.1-3.1-3.1C418.7,220,417.3,221.4,417.3,223.2z M444.6,247.2c0-1.6,1.4-2.9,2.9-2.9
			c1.7,0,3,1.3,3,2.9c0,1.8-1.3,3-3,3C446.1,250.2,444.6,249,444.6,247.2z"/>
		<path fill="#005FAA" d="M446.7,336.9c0.4,0,0.9,0.2,0.9,1.6c0,1.7-0.8,4-3.6,5.8c-2,1.3-4.6,2.4-8.5,2.5c0.6-1.9,1.1-3.8,1.1-5.7
			c0-0.6-0.1-1.1-0.2-1.8h1C443.6,339.3,446.2,336.9,446.7,336.9z M447.3,329.2c0.6-0.5,0.8-1.4,0.8-2.3v-1.8c0-2.3-3.4-3.6-8.1-3.6
			c-5.7,0-8.7,2.6-8.7,3.7v3.6c0,1.5,3.4,3,7.7,3C442.2,331.7,445.3,330.9,447.3,329.2z M451.3,330c-2,1.6-6.8,5.1-14.7,5.1
			c-4.2,0-6.1-1.3-6.7-1.3c-0.8,0-1.6,0.8-2.5,1.8c-1.9,2.2-4.3,6.2-4.3,10.7c0,3.1,2.4,6.2,6.9,6.2c14.6,0,25.5-9.1,25.5-16.5
			C455.6,331.7,453.1,330,451.3,330z"/>
		<path fill="#005FAA" d="M454.1,264.4c0,1.9,0.6,4.2,2.6,4.2c1.6,0,3-2.5,3-5.2c0-3.1-0.5-5.5-0.5-6.8c0-0.5,0.2-0.8,0.5-0.8
			c1.2,0.1,2.3,3.3,3.5,3.3c1.4,0,3.5-2.6,4.4-2.6c0.2,0,0.3,0.3,0.3,0.4c0,1.2-1.8,3.7-1.8,4.8c0,0.9,4.5,1,4.5,1.8
			c0,1.2-4.7,1.2-7,2.2c-2.2,0.9-3.5,2.1-3.5,3.7c0,1.6,1.6,1.9,3.8,1.9c5.2,0,8.9-2.8,10-2.8c0.2,0,0.4,0.2,0.4,0.4
			c0,0.8-2.7,3.4-2.7,4.5c0,1.3,4.8,2.9,4.8,3.7c-0.1,0.2-0.4,0.3-0.9,0.3c-0.9,0-2.2-0.2-3.2-0.2c-0.6,0-1.2,0.1-1.4,0.4
			c-0.5,0.6,0.2,4.8-0.9,4.8c-1,0-3.7-9.2-9.7-9.2c-0.9,0-1.5,0.7-1.5,1.9c0,3.1,3,6.7,5.9,8.4c1.3,0.9,3.5,1.7,3.5,2.2
			c0,0.9-5,0.1-5,1.6c0,1.4,0.6,3.5,0.6,4.8c0,0.4-0.1,0.9-0.5,0.9c-0.9,0-3.2-4.3-4.3-4.3c-0.9,0-3,2.6-3.8,2.6
			c-0.2,0-0.4-0.2-0.4-0.5c0-1.8,2.9-5.9,2.9-9.8c0-1.9-0.2-5.9-2.5-5.9c-1.9,0-4,3-4.9,5.9c-0.5,1.7-0.2,8.3-1.4,8.3
			c-1.2,0-0.9-4.4-2.4-4.4c-1.2,0-3.7,2.1-4.5,2.1c-0.2,0-0.3-0.1-0.3-0.2c0-0.9,2.3-4,2.3-4.6c0-1.2-5.2-1.3-5.2-2.3
			c0-0.5,2-0.9,3.9-1.2c4-0.7,9.8-3.6,9.8-7.6c0-4.5-4.4-6.5-7.2-8.4c-1.5-0.9-3.1-1.7-3.1-2.3c0-0.6,1.9-0.6,2.7-0.6
			c1.2,0,2.3-0.1,2.3-1c0-0.7-0.2-2.1-0.2-3.2c0-0.8,0.1-1.4,0.4-1.4c1.2,0,2.8,3.8,3.6,3.8c1.2,0,3-3.1,4.1-3.1
			c0.4,0,0.5,0.2,0.5,0.9C455.6,258.3,454.1,261.6,454.1,264.4z M416.9,241.6c0.9,6.6,9.8,3.3,9.8,11.3c0,1.2-0.3,2.9-0.3,4.4
			c0,1.7,0.2,3.2,1.5,3.2c1.3,0,1.6-0.9,1.6-2.2c0-1.2-0.3-2.8-0.3-3.7c0-2.7,2-3.4,3.1-3.4c3,0,5.2,3,9.7,3c-1,5-11.3,3.7-11.3,9.1
			c0,2.7,2.7,3.4,4.5,3.4c1.6,0,2.2-0.2,2.2-1.6c0-0.8-0.2-1.6-0.2-2.2c0-0.3,0.2-0.6,0.6-0.6c1.7,0,10.1,6.4,10.1,8.4
			c0,1.8-8.9,3.6-11.5,3.6c-0.8,0-0.9-0.5-0.9-0.9c0-0.5,1.3-2.2,1.3-3.1c0-0.7-1.2-1.2-4.3-1.2c-1.5,0-2.6,0.2-2.6,1.3
			c0,2.1,3.4,4.7,3.4,6.6c0,1.6-0.9,2.5-3.4,2.5c-2.1,0-5.3-1.6-5.3-4.4c0-2.2,2.2-4.4,2.2-5.7c0-0.4-0.3-1-1.2-1
			c-2.9,0-3.7,7.6-13.9,8.5c1.6-1.5,3-3.1,3-6.5c0-1.6-0.4-3-0.4-4.8c0-2.3,1.1-3.5,2.6-3.5c2.9,0,4.3,4.1,6.2,4.1
			c1,0,2.1-0.9,2.1-2.3c0-5.9-11.4-5.1-11.4-13.4C414,248.3,414.8,245.5,416.9,241.6z"/>
		<path fill="#005FAA" d="M431.7,292.3c0,1.1,0.8,2,1.9,2c1.2,0,2-1.1,2-2.3c0-1.6-1.5-3.9-2.9-3.9c-0.6,0-0.4,0.9-0.5,2
			C432.1,290.7,431.7,291.6,431.7,292.3z M427.6,281.9c8.2,1.6,12.6,7.7,12.6,13.5c0,4-2.5,7.6-6.9,7.6c-4,0-6.9-2.7-6.9-7.1
			c0-3.3,2.6-6.7,2.6-10.1C429.1,284.5,428.7,283.2,427.6,281.9z M417.3,295.2c0.8,0.8,1,1.6,1,2.3c0,1.2-0.5,2.4-0.5,3.7
			c0,1.9,1.4,3.5,3.4,3.5c2.2,0,3.7-1.7,3.7-3.7C424.8,298,421.8,295.2,417.3,295.2z M443.1,290.2c0.5,0.9,0.8,1.7,0.8,2.5
			c0,2.2-1.5,4.2-1.5,6.5c0,2.6,2,4.7,4.9,4.7c3.2,0,5.4-2.6,5.4-5.6C452.7,294.1,448.9,290.6,443.1,290.2z M419.1,286
			c3.6,0.5,4.5,1.7,4.5,2.7c0,1.7-1.6,2.3-3.1,2.3c-1.1,0-2.3-0.2-3.7-0.2c-1.7,0-3.4,0.4-4.8,2c1,0.2,2.5,0.9,2.5,2.4
			c0,4.5-12.6,0.8-12.6,12.4c0,6.2,6.4,12.9,16.1,12.9c5,0,8.2-1.6,8.2-3.5c0-1.5-2.7-0.5-2.7-1.7c0-0.5,0.9-1.6,0.9-2.4
			c0-0.4-0.3-1.1-0.9-1.1c-1.4,0-4.1,2.3-9.4,2.3c-4.2,0-8.3-2.4-8.3-5.7c0-0.7,0.3-1.1,0.8-1.1c0.5,0,1.1,0.3,1.6,0.3
			c0.5,0,0.5-0.3,0.5-1.2c0-0.9,0-3.3,1.5-3.3c1.5,0,4.3,5.5,15.1,5.5c3.6,0,10.5-0.7,13.1-3c-0.1,8.6-6.8,19.9-20.8,19.9
			c-14.6,0-22.4-11.7-22.4-22.5c0-11.9,9.7-22.8,23.1-22.8c3.4,0,6.3,1.2,6.3,2.6C424.6,284.9,419.5,283.6,419.1,286z"/>
		<path fill="#005FAA" d="M368.7,196.9c5.1,0,7.5,4.4,7.5,9.4c0,2.2-0.6,5.4-1.6,5.4c-1,0-0.9-1.8-1-3.4c-0.2-2.1-0.5-2.6-1.2-2.6
			c-1.3,0-2.2,3.1-2.2,6c0,1.8,0.3,3.8,1.7,3.8c0.8,0,1.5-0.4,2-0.9c-0.3,3.6-3,6.7-6.7,6.7c-6.9,0-9.4-8-10.2-12.7
			c-4.1,4.4-8,7.6-14.8,7.6c-6.4,0-9.3-4.7-9.3-9.1c0-1.3,0.5-4.8,2.1-4.8c1.9,0,0.2,6.4,4.1,6.4c0.9,0,2.7-0.8,3.6-3.4
			c0.5-1.6,0.9-3.2,0.9-4.6c0-2.1-0.5-3.4-2-3.4c-1.3,0-3,1-3.5,1.6c1.9-5.6,6.4-8.5,11.4-8.5c6.2,0,9.4,5.5,9.4,11.5
			c0,0.9-0.1,1.8-0.2,2.7C361,200.3,364.7,196.9,368.7,196.9z M362.7,206.1c0-1.3-0.3-1.6-0.6-1.6c-0.8,0-1.6,0.9-2.9,3
			c0.2,2.8,0.6,4.1,1.4,4.1C361.4,211.6,362.7,208.9,362.7,206.1z M352,209.3c0.9,0,2-0.9,4-3.2c0.2-1,0.2-2,0.2-3.1
			c0-1.6-0.6-3.3-1.6-3.3c-2.3,0-3.5,6.2-3.5,7.9C351,208.6,351.5,209.3,352,209.3z M364.7,216.3c1.9,0,4.1-7.5,4.1-12.2
			c0-1-0.2-2.1-0.6-2.1c-1.6,0-4.4,7.7-4.4,11.9C363.8,215.6,364.2,216.3,364.7,216.3z M345.6,212c2.7,0,5.7-14.4,5.7-16.8
			c0-0.6-0.2-1.1-0.8-1.1c-2.4,0-5.8,13.7-5.8,16.7C344.7,211.4,344.9,212,345.6,212z"/>
		<path fill="#005FAA" d="M354.1,217.9c-3.4,0-3.5,4.1-3.5,12.2c-2.5-5.4-6.6-11.2-11.5-11.2c-3.3,0-4.5,2.2-4.5,6
			c0,0.8,0.1,2,0.2,2.7c0.4-1.3,1.6-1.9,3.2-1.9c3.4,0,7.4,2.6,10.1,6.1c-3-0.5-6-1.1-8.5-1.1c-1.6,0-3,0.2-4.1,0.7
			c-2.3,1-5.3,4.4-5.3,9.4c0,0.8,0.1,1.6,0.2,2.6c2.7-6.1,10-8.8,14.7-8.8c0.9,0,1.6,0.1,2.2,0.2c-2.4,2.2-3,6-3.1,8.6
			c-0.1,1.2-0.5,1.3-1.4,1.3c0,2.6,2,6.4,2,8.3c0,0.7-0.4,1.3-0.8,1.5c0,3.4,3.4,5.9,3.4,8.1c0,0.5-0.2,1-0.4,1.2
			c0.2,1.4,4,3.8,4.5,4.9c0.6,1.4,1.3,1.7,1.7,1.7c1.3,0,3.4-1.6,3.4-3c0-0.5-0.4-1-0.7-1.2c-1.5-1.1-2.3-3.4-2.9-5
			c-0.5,0-1.3-0.2-1.5-1.1c-0.4-1.6-0.4-4.6-1.1-6.4c-1-0.2-1.5-0.6-1.5-2.7c0-1,0.6-5,0.6-6.4c-0.5,0-1.1-0.3-1.1-1.2
			c0-2.5,2.5-4.4,3.2-7.6c4.4,3.3,5.5,6.6,5.5,9.6c0,1.6-0.2,3-0.5,4.4c3.3-1.6,8.2-4.1,8.2-9c0-2.9-1.3-6.1-10.1-7.3
			c2.7-1,6.2-1.6,9-1.6c5,0,7.9,1.6,8.5,5.1c1-1.6,1.8-3.4,1.8-5c0-3.8-3.2-6.3-7.3-6.3c-4.8,0-9,2.5-13.5,5.5
			c2-4.2,3.4-6.7,5.9-6.7c0.4,0,0.8,0.1,1.2,0.2C359.5,221.3,355.9,217.9,354.1,217.9z"/>
		<path fill="#005FAA" d="M485.5,274.2c3.9,0,7,5.1,7,11c0,6.3-3,13.2-8.3,17.9c-0.1-10.5-13-7.2-13-14.8c0-3.3,2.3-5.5,5.2-5.5
			c2.5,0,4.4,0.7,5.9,2.1c-1.4-1.3-2.1-3.2-2.1-5C480.2,276.9,482.1,274.2,485.5,274.2z"/>
		<path fill="#005FAA" d="M427.6,194.4c-0.6-1-3-1.6-4-1.6c-3.4,0-5.8,2.4-6.2,4.6c-0.3-0.8-0.5-1.7-0.5-2.7c0-3.4,2.3-7.6,8-7.6
			c5,0,6.9,2.7,7.6,2.7c0.8,0,1.6-0.8,2.2-0.8c0.9,0,0.9,1.3,0.9,2.3c0,3.1-1.4,8.5-4.9,10.5c-0.6-1.3-1.9-2.8-3.9-3.7
			c-0.5-0.2-0.8-0.7-0.8-1.2C425.9,195.9,426.7,194.8,427.6,194.4z M415.9,200.1c2,2,3.8,2.8,6,2.8c0.9,0,1.9-0.2,2.4-0.2
			c0.7,0,1.2,0.3,1.2,0.9c0,0.9-0.8,2.3-1.7,3c0.9,0.4,2,0.5,3,0.5c4.4,0,9.5-2.8,9.5-9.8c0.9,1.2,1.5,3.8,1.5,5
			c0,8.5-6.2,11.8-12,11.8c-3.8,0-5.6-1.2-6.1-1.2c-1.5,0-1.4,3-2.4,2.9c-1.8-0.3-3.4-4.3-3.4-8.5
			C413.8,204.7,414.5,202,415.9,200.1z"/>
		<path fill="#005FAA" d="M349.1,150.4c0-0.5-2.3-0.9-5.5-0.9c-5.1,0-4.4,4.2-8.3,4.2c-4.1,0-3-4.4-8.2-4.4c-3.1,0-6,0.5-6,1.2
			c0,0.9,3.7,0.5,3.7,3.1c0,2.7-7.9,3.5-7.9,5.1c0,0.5,0.6,0.8,1.4,0.8c1.7,0,4.4-0.8,6.4-0.8c1.1,0,2.1,0.2,2.1,1.2
			c0,2-4.2,5.5-4.2,7c0,0.5,0.4,0.6,0.8,0.6c1.6,0,4.2-4,6.7-4c4.1,0,1.4,8.8,3.7,8.8c2.3,0,1.3-8.7,4.7-8.7c2.7,0,4.8,6,6.6,6
			c0.5,0,0.9-0.4,0.9-0.9c0-1.6-2.3-5-2.3-7.2c0-1.3,0.9-2,2.2-2c1.8,0,4.2,1.1,5.5,1.1c0.5,0,0.9-0.2,0.9-0.7
			c0-1.9-6.9-3.9-6.9-6.3C345.3,151.5,349.1,151.5,349.1,150.4z M367.4,158.4c0,1.4,4.9,4.4,7.2,4.4c1.3,0,1.7-1.8,1.7-3.7
			c0-2.3-1-2.4-3-2.4C370.7,156.8,367.4,157.5,367.4,158.4z M375.5,173.9c0-4.7-12.7-13.2-12.8-16.8c0-0.3,0.2-0.7,0.5-1
			c2.2-2.3,11.2-4,11.2-5.9c0-1-1.9-1-2.8-1c-7.3,0-17.9,2.7-17.9,5.2c0,2.7,9.5,9.1,9.5,12.3c0,0.9-0.5,1.2-1.4,1.2
			c-2.6,0-8.4-3.2-11.2-3.2c-1.2,0-1.7,0.9-1.7,2.1c0,3.7,4.4,10.8,4.4,12.9c0,0.2-0.1,0.5-0.4,0.5c-1.4,0-8-7.8-10.4-7.8
			c-0.9,0-0.9,1.2-0.9,2.9v2.7c0,1.8-0.1,2.9-0.9,2.9c-2,0-3-5.7-4.9-5.7c-2,0-2.4,10.1-4.4,10.1c-2.3,0-0.3-11.2-2.5-11.2
			c-2.4,0-5.1,7.4-6.9,7.4c-0.6,0-0.8-0.6-0.8-1.2c0-2.3,1.3-5.9,1.3-8.1c0-1.1-0.3-1.7-1.2-1.7c-2.4,0-7.7,3.9-9.8,3.9
			c-0.3,0-0.7-0.2-0.7-0.5c0-1.9,8.5-7.8,8.5-10.4c0-2.6-11.7-0.9-11.7-3.8c0-2.5,8.4-5.1,8.4-7.6c0-2.3-9.9-3.3-13.7-3.3
			c-4.6,0-7.1,0.5-7.1,1.9c0,2,10.5,2.7,10.5,4.4c0,1.7-10.8,6.3-10.8,9c0,2.3,15.3,0.2,15.3,2.6c0,2.6-13.3,14.1-13.3,17.9
			c0,0.9,0.6,1.3,1.5,1.3c4.1,0,14.6-7.7,17.5-7.7c1,0,1.1,1.2,1.1,2.3c0,2-0.7,5.1-0.7,7.4c0,1.8,0.5,3,2,3c2.9,0,5.5-4.9,7.5-4.9
			c2.5,0,1,14.4,4.8,14.4c3.2,0,4.5-15.6,6.6-15.6c2,0,3.7,4.5,5.5,4.5c2.3,0,1.2-7.9,3.7-7.9c2.7,0,10.5,9.4,14,9.4
			c1.1,0,1.5-0.9,1.5-2c0-4.1-5.8-13.5-5.8-16.5c0-0.8,0.2-1,1.1-1c3,0,11.9,4.2,16.1,4.2C374.7,175.6,375.5,174.9,375.5,173.9z
			 M304.3,169.3c0,1.6-5.9,6.8-8,6.8c-0.8,0-1-0.9-1-1.8c0-1.6,0.7-3.7,1.6-4.4c1-0.9,3.4-1.4,5.1-1.4
			C303.1,168.5,304.3,168.7,304.3,169.3z M361.6,177.4c0,2.7,9.8,16.1,11.6,16.1c1.6,0,2.7-2.7,2.7-5.1c0-0.6-0.2-1.2-0.5-1.7
			c-1.4-2-11.3-9.8-13.5-9.8C361.8,176.9,361.6,177.1,361.6,177.4z"/>
		<path fill="#005FAA" d="M486.9,153.7c0,1.1,0.9,1.9,2,1.9c1.1,0,2-0.9,2-1.9c0-1.1-0.9-2-2-2C487.8,151.8,486.9,152.6,486.9,153.7
			z M474.2,171c0-5.5-13.3-6.9-13.3-8.2c0-1,7.4-2.7,11.2-2.8c-5.8-7.5-14.2-6.7-14.2-8c0-0.8,6.2-2.3,12-2.3c4.8,0,9.4,1.1,9.4,4.8
			c0,2-1.6,4.1-1.6,7.3c0,1.7,0.9,3.2,3.1,3.2c2.4,0,3-2.6,3-5.3c0-2.3-0.4-4-0.4-5.1c0-3.3,2.2-5.5,5.4-5.5c2.7,0,3.3,1.2,7.2,1.2
			c-2.1,1.3-2.9,3.5-2.9,4.6c0,3.3,2.1,5.5,2.1,12.2c0,12.3-11.5,16.7-25.7,16.7c-3.9,0-8-0.3-12.1-0.9c-0.6-0.1-0.8-0.2-0.8-0.6
			c0-1,5.5-1.6,5.5-6.6c0-2-0.6-3.8-0.6-4.5c0-0.4,0.3-0.6,0.6-0.6c1.2,0,3.5,4.5,7.9,4.5C471.3,174.9,474.2,174.6,474.2,171z
			 M487.4,163.1c0,6.9-5.1,12.2-14.2,13.7c1,0.1,2,0.1,2.9,0.1c10.7,0,14.6-4.8,14.6-8.9C490.7,165.7,489.4,163.7,487.4,163.1z"/>
		<path fill="#005FAA" d="M482,263.6c1.2-3.9,2.8-6.6,5.4-10.8c-2.6-1.3-9.4-4.1-9.4-8.7c0-5.4,6.7-9.6,8.1-9.6
			c0.6,0,0.8,0.5,0.8,1.6c0,2.8-1.3,7.3-1.3,9.8c0,2.2,1.4,4.3,2.7,4.3c1.3,0,5-4.7,5-9.3c0-8.3-7.3-10.8-9.5-10.8
			c-2.1,0-5.9,3.4-14.9,3.4c-16.8,0-20.6-16.6-20.6-23.9c0-0.3,0.1-0.4,0.2-0.4c0.4,0,2,2,7.3,2c2.7,0,5.2-0.7,9.2-0.7
			c9.3,0,13.5,6.5,19.3,14.7c3.5,2.2,11.8,5.7,11.8,15.6c0,8.7-9.3,13.6-11.5,22.9c3.6-0.4,5.7-6.8,9.4-6.8c1.9,0,2.7,1.5,2.7,3.8
			c0,3.4-2,8.6-5.7,11.8c0.1-0.3,0.1-0.7,0.1-1.2c0-2.2-0.9-5.3-3.4-5.3c-3.9,0-5.1,4.2-7.3,7.7c-2.3-8-5.3-15.1-10.8-19.5
			c-5.5-4.4-15.1-2-15.1-10.1c0-2.2,1.4-5.3,1.4-7.8c0-0.9-0.2-1.6-0.6-2.3c7.5,2.8,4.8,7.8,9.5,12.9c2.9,3.3,10.8,6.4,15.4,19.9
			c0.1-0.4,0.2-1.4,0.2-2.1c0-11.5-15.3-22.9-16.6-27.5c8.9,1,10.4,3.2,14.7,14.9C479.2,254.7,482,260.7,482,263.6z M480,225.8
			c0-1.6-4.1-1.8-4.5-6.4c-0.1-0.7-0.3-1.9-1.2-1.9c-1.4,0-0.3,4.3-1.9,4.3c-3.6,0-4.8-7-6.1-7c-0.3,0-0.7,0.2-0.7,1.2
			c0,0.9,0.2,1.4,0.2,2.4c0,1-0.2,1.7-1.2,1.7c-2.1,0-4-4.9-5.8-4.9c-0.4,0-0.8,0.2-0.8,0.6c0,0.9,1.6,2.7,1.6,3.5
			c0,1.9-5.1,0.9-5.1,2.4c0,0.7,0.7,0.9,1.6,0.9c1.6,0,4.2-0.7,5.5-0.7c0.8,0,2,0.2,2,1.2c0,1.1-2.8,2.5-2.8,3.5
			c0,0.5,0.5,0.7,0.9,0.7c2.1,0,5.8-3.7,8.5-3.7c0.5,0,1.6,0.2,1.6,0.9c0,1-2.7,2.8-2.7,4.3c0,0.4,0.2,0.9,0.7,0.9
			c1.4,0,3.3-3.7,5.9-3.7c1,0,2.5,0.4,3.3,0.4C479.7,226.4,480,226,480,225.8z"/>
		<path fill="#005FAA" d="M421.9,179.1c1.3,0,1.5,3,1.7,4.8c0.2,0.9,0.3,1,0.7,1c0.9,0,2.4-3.6,3.4-3.6c1.5,0,5.5,4.1,12.1,4.1
			c9.4,0,18.3-6.6,18.3-18.3c0-11.3-8-17.9-19-17.9c-5.2,0-9.1,2.6-11.1,2.6c-1.2,0.1-3.1-3-4-3c-0.4,0-0.8,0.8-0.8,2.1
			c0,0.9,0,3.6-0.9,3.6c-1.9,0-9.1-5.4-9.1-3.4c0,1.8,4.8,7.3,4.8,8.7c0,1.4-4.8,2.7-4.8,3.7c0,1.7,5.1,2,5.1,4.2
			c0,2.2-5.3,3.9-5.3,5.5c0,1.3,5.3,0.4,5.3,2c0,1.6-3.9,7.1-3.9,8.7c0,0.4,0.1,0.4,0.4,0.4C416.3,184.1,420.8,179.1,421.9,179.1z
			 M424.1,166.3c0-0.9-3-2.5-3-3.4c0-0.2,0.2-0.2,0.4-0.2c0.9,0,2.3,0.3,3.5,0.3c1,0,1.2-4.4,1.9-4.4c0.5,0,1.5,4.1,2.3,4.1
			c1,0,2.9-1.2,3.7-1.2c0.2,0,0.3,0.1,0.3,0.2c0,0.5-2,2.6-2,3.3c0,0.7,4.4,1.6,4.4,2.2c0,0.8-4.5,0.7-4.5,1.4
			c0,0.5,1.6,2.7,1.6,3.4c0,0.2-0.1,0.2-0.2,0.2c-0.6,0-3-1.1-3.7-1.1c-0.9,0-2.2,3.2-3,3.2c-0.2,0-0.4-0.3-0.4-0.7l-0.2-3.1
			c0-0.3-0.2-0.6-0.5-0.6c-0.9,0-2.7-0.1-3.3-0.1c-0.4,0-0.5-0.1-0.5-0.2C421,169,424.1,166.8,424.1,166.3z M439.3,181.1
			c-5.5,0-9.1-2.7-9.1-4.1c0-0.7,0.5-1.2,1.1-1.2c1.7,0,5.5,2.6,6.7,2.6c0.3,0,0.5-0.2,0.5-0.6c0-1.4-1.3-3.7-1.3-4.9
			c0-0.3,0.2-0.5,0.7-0.5c2.1,0,5.2,0.9,6.9,0.9c0.5,0,0.7-0.3,0.7-0.6c0-1.7-5.1-5.1-5.1-6.1c0-0.9,6.3-2.3,6.3-3.8
			c0-1.6-8.6-0.5-8.6-2c0-1.1,1.6-3,1.6-3.8c0-0.4-0.3-0.5-0.9-0.5c-0.7,0-4.5,1.5-6,1.5c-0.8,0-1.7-0.2-1.7-1.2
			c0-1.8,3-3.7,7.8-3.7c7.7,0,12.3,5.3,12.3,14.2C451.4,178.3,443.6,181.1,439.3,181.1z"/>
		<path fill="#005FAA" d="M386.5,316.1c0,0.7-0.2,1.5-0.9,2.3c-0.9-1.6-3.3-2.3-4.4-2.3c-8,0-5,11.6-13.6,11.6
			c-3.6,0-3.9-0.5-5.2-0.5c-0.5,0-0.9,0.2-0.9,0.7c0,2,2.9,7,10.9,7c8,0,15.8-4.9,15.8-11c0-1-0.2-2.1-0.7-3.2
			c0.3-0.5,1.1-0.8,1.8-0.8c1.2,0,1.9,1.4,3.1,1.4c1.2,0,2.2-0.9,2.2-2.2c0-1-0.5-1.7-1.5-2.2c0.6-0.5,1.1-1.2,1.1-2.1
			c0-1.3-0.9-2.6-2.5-2.6c-0.7,0-1.2,0.2-1.7,0.8c-0.2-1.4-0.9-2.7-2.4-2.7c-1.2,0-2,0.9-2,2.2C385.7,313.7,386.5,314.7,386.5,316.1
			z"/>
		<path fill="#005FAA" d="M365.5,319c-2.3,0-5.9-2.5-5.9-3.9c0-1.2,1.1-1.8,1.9-1.8c2,0,5.5,2.4,5.5,4.4
			C367.1,318.3,366.7,319,365.5,319z M343.8,301.6c6.2,1.6,9.4,4.9,10,8.9c0.6,3.8,1.4,6.9,2.9,8.5c2,2.2,5.8,4.1,9.1,4.1
			c2.8,0,5.1-0.9,5.1-3.5c0-2.8-3.8-9.1-9.4-9.1c-0.5,0-1.2,0.1-2,0.1c-0.7,0-1.7-0.2-2.3-0.7c-1.2-1.1-1.6-6.9-4-10.5
			c-2.6-3.9-5.4-5-9.2-5c-2.7,0-5.8,1.5-5.8,3.7C338.1,299.4,338.8,300.3,343.8,301.6z"/>
		<path fill="#005FAA" d="M382.9,292c0-3.5-7.3-3.6-7.3-8.9c0-1.3,0.9-3.6,2.6-6c0.7,4.1,2.3,6.2,5.9,7.5c6.9,2.6,7.9,6.5,7.9,10.6
			c0,7-4.9,15.8-17.6,15.8c-10.1,0-17.4-9-17.4-16.7c0-2.1,0.5-4.4,1.9-4.4c1.2,0,1.6,0.9,2.5,1.9c3.5,3.5,7.3,4.4,12.9,4.4
			C379.3,296.2,382.9,294.1,382.9,292z M383.2,297.6c-2.7,1.2-3.7,1-3.7,3.7c0,1-0.2,2.3-0.2,3c0,0.9,0.2,1.5,1.2,1.5
			c2.8,0,7.3-4.8,7.3-8.8c0-1.1-0.6-1.6-1.3-1.6C385.8,295.5,385.1,296.8,383.2,297.6z M358.4,258.3c0-5,11.9-7.6,11.9-13.8
			c0-1-0.4-2.8-1.1-4.1c4.1,2.3,7.2,6.1,7.2,9.2c0,5.4-5.6,7.9-5.6,11.2c0,3.9,6,4.5,6,9.4c0,4-5.7,8.6-5.7,13.7
			c0,4,2.8,7.3,7.1,7.8c-1.4,0.3-2.7,0.5-4,0.5c-7.9,0-16-6.5-16-14.2c0-3.8,1.6-7.2,4.1-9.6c2.2,1.9,4.4,3.1,5.8,3.1
			c1.2,0,1.8-0.6,1.8-1.6C369.8,267.1,358.4,264.4,358.4,258.3z"/>
		<path fill="#005FAA" d="M313.1,296.8c0.3,2.7,2.8,4.7,5.6,4.4c1-0.1,2-0.4,2.6-0.8c0.6,2.5,2.7,4.1,5.5,3.7
			c2.9-0.4,4.8-2.6,4.5-5.5c-0.1-0.8-0.2-1.2-0.5-1.8c0,0,0.4,0,0.7-0.1c2.8-0.5,4.7-2.8,4.5-5.5c-0.3-2.8-2.8-4.9-5.5-4.6
			c-1,0.1-2,0.5-2.6,1.1c-0.7-2.3-2.9-4.4-5.9-3.9c-2.7,0.4-4.5,2.8-4.2,5.7c0,0.5,0.2,1,0.4,1.6c0,0-0.5,0.1-0.8,0.1
			C315.2,291.5,312.7,293.8,313.1,296.8z M327.7,293.7c0.2,1.6-1,3.1-2.6,3.3c-1.6,0.2-3.1-1-3.3-2.6c-0.2-1.6,1-3.1,2.6-3.3
			C326,290.9,327.5,292.1,327.7,293.7z"/>
	</g>
</g>
</svg>
