<?xml version="1.0" encoding="utf-8"?>
<!-- Generator: Adobe Illustrator 17.1.0, SVG Export Plug-In . SVG Version: 6.00 Build 0)  -->
<!DOCTYPE svg PUBLIC "-//W3C//DTD SVG 1.1//EN" "http://www.w3.org/Graphics/SVG/1.1/DTD/svg11.dtd">
<svg version="1.1" xmlns="http://www.w3.org/2000/svg" xmlns:xlink="http://www.w3.org/1999/xlink" x="0px" y="0px"
	 viewBox="0 0 841.9 595.3" enable-background="new 0 0 841.9 595.3" xml:space="preserve">
<g>
	<path fill="#E30613" d="M120.4,283.1c0,0-31.4,62.5-33.2,65.9l33.2-100.2V283.1z"/>
	<path fill="#E30613" d="M87.7,355.5c-0.1,0-0.1,0.2-0.3,0.1l35.6-72.3l0.2-0.1l37.4,0L87.7,355.5z"/>
	<polygon fill="#0062AE" points="162.8,322.2 89.7,358 162.7,284.9 162.8,285 	"/>
	<path fill="#0062AE" d="M96.9,358l66.6-33l33.2,0.1C196.7,325.1,97.1,358,96.9,358z"/>
	<rect x="165.6" y="283.1" fill="#0062AE" width="39.7" height="39.5"/>
	<rect x="123.4" y="240.7" fill="#E30613" width="39.7" height="39.5"/>
</g>
<path fill="#0062AE" d="M251.4,322.5H242l-30.2-82.3h20.9l15.6,42.7l16.9-42.6h10.6l17.3,43.1l15.7-43.1h20.5l-30.1,82.3h-9.4
	l-19.2-47L251.4,322.5z"/>
<path fill="#0062AE" d="M388.8,261.3c-11.8-5.2-18.8-7.3-25.7-7.3c-7.3,0-11.9,2.6-11.9,6.7c0,12.3,41.3,8.8,41.3,37.1
	c0,15.6-13.1,24.6-31.2,24.6c-14.2,0-21.2-3.7-29.3-7.9v-17.5c11.7,7.7,18.8,10.5,27.7,10.5c7.7,0,11.9-2.7,11.9-7.5
	c0-13.3-41.3-8.5-41.3-37.6c0-14,12.1-23.3,31-23.3c9,0,17.3,1.9,27.5,6.3V261.3z"/>
<path fill="#0062AE" d="M441.2,240.3c18.6,0,26.9,13,26.9,24.1c0,11.4-8.1,24.5-26.8,24.5h-16.1v32.6H405v-81.2H441.2z M425.3,274
	h9.4c9.3,0,12.6-3.3,12.6-9.4c0-6.9-3.9-9.4-14.9-9.4h-7.1V274z"/>
</svg>
